<svg width="43" height="53" viewBox="0 0 43 53" fill="none" xmlns="http://www.w3.org/2000/svg">
<g clip-path="url(#clip0_1190_9087)">
<path d="M14.3116 14.4504C14.0059 11.344 14.8354 7.99534 16.8571 5.04646C18.8787 2.09757 21.7275 0.449112 25.3016 0.131648C28.596 -0.157597 31.9946 -0.0494239 34.9643 1.25335C39.0219 3.03585 41.7356 6.31161 42.7215 10.7843C43.6814 15.1536 42.0105 18.9279 39.8775 22.507C37.9364 25.7992 35.3743 28.6211 32.5824 31.2525C31.8003 31.9862 31.3286 31.958 30.7693 31.095C29.8426 29.6628 28.9396 28.2119 27.9252 26.8621C27.2782 25.9991 27.4678 25.6134 28.3353 25.0961C31.1177 23.45 33.6395 21.4488 35.4454 18.728C38.6474 13.8743 36.9718 7.56971 31.9188 5.20872C27.4915 3.14638 20.9051 5.71666 19.4902 10.7279C18.7484 13.3476 19.4523 16.0989 20.3956 18.6621C22.5025 24.3812 25.9202 29.2866 30.0275 33.7593C32.7862 36.7623 35.5971 39.7018 38.837 42.2109C39.503 42.7235 39.5859 43.2362 38.6995 43.7112C35.4383 45.4608 34.1016 48.3156 34.0187 51.8736C34.0187 52.238 34.194 52.7154 33.7817 52.9341C33.329 53.1693 33.1086 52.6848 32.8336 52.4638C25.8396 46.7589 20.5093 39.8358 17.3192 31.3771C15.2412 25.976 14.2204 20.2311 14.3116 14.4504Z" fill="#F5F5F5"/>
<path d="M0 46.4696C4.11442 41.971 5.34686 38.2061 2.99813 32.2566C3.99592 32.2566 4.95343 32.2284 5.90856 32.2566C8.62429 32.3498 11.3425 32.1686 14.0213 31.7157C14.6967 31.6005 14.8935 31.8239 15.0878 32.3765C16.0318 35.0888 17.2616 37.6946 18.7567 40.1509C19.3681 41.1456 18.7306 41.5994 18.0314 41.9663C14.3341 43.8993 10.4757 45.3925 6.35413 46.185C4.32773 46.5801 2.30607 46.5613 0 46.4696Z" fill="#F5F5F5"/>
</g>
<defs>
<clipPath id="clip0_1190_9087">
<rect width="43" height="53" fill="white"/>
</clipPath>
</defs>
</svg>
