<svg width="43" height="54" viewBox="0 0 43 54" fill="none" xmlns="http://www.w3.org/2000/svg">
<g clip-path="url(#clip0_1190_9097)">
<path d="M14.3116 14.9506C14.0059 11.8441 14.8354 8.49547 16.8571 5.54658C18.8787 2.59769 21.7275 0.949234 25.3016 0.63177C28.596 0.342525 31.9946 0.450698 34.9643 1.75348C39.0219 3.53598 41.7356 6.81173 42.7215 11.2844C43.6814 15.6537 42.0105 19.428 39.8775 23.0071C37.9364 26.2993 35.3743 29.1212 32.5824 31.7526C31.8003 32.4863 31.3286 32.4581 30.7693 31.5951C29.8426 30.163 28.9396 28.712 27.9252 27.3622C27.2782 26.4992 27.4678 26.1135 28.3353 25.5962C31.1177 23.9501 33.6395 21.9489 35.4454 19.2281C38.6474 14.3744 36.9718 8.06983 31.9188 5.70884C27.4915 3.6465 20.9051 6.21678 19.4902 11.228C18.7484 13.8477 19.4523 16.599 20.3956 19.1623C22.5025 24.8813 25.9202 29.7867 30.0275 34.2594C32.7862 37.2624 35.5971 40.2019 38.837 42.711C39.503 43.2237 39.5859 43.7363 38.6995 44.2113C35.4383 45.9609 34.1016 48.8157 34.0187 52.3737C34.0187 52.7382 34.194 53.2155 33.7817 53.4342C33.329 53.6694 33.1086 53.185 32.8336 52.9639C25.8396 47.259 20.5093 40.3359 17.3192 31.8773C15.2412 26.4761 14.2204 20.7312 14.3116 14.9506Z" fill="#024F93"/>
<path d="M0 46.9696C4.11442 42.471 5.34686 38.7061 2.99813 32.7566C3.99592 32.7566 4.95343 32.7284 5.90856 32.7566C8.62429 32.8498 11.3425 32.6686 14.0213 32.2157C14.6967 32.1005 14.8935 32.3239 15.0878 32.8765C16.0318 35.5888 17.2616 38.1946 18.7567 40.6509C19.3681 41.6456 18.7306 42.0994 18.0314 42.4663C14.3341 44.3993 10.4757 45.8925 6.35413 46.685C4.32773 47.0801 2.30607 47.0613 0 46.9696Z" fill="#024F93"/>
</g>
<defs>
<clipPath id="clip0_1190_9097">
<rect width="43" height="53" fill="white" transform="translate(0 0.5)"/>
</clipPath>
</defs>
</svg>
