<svg width="566" height="137" viewBox="0 0 566 137" fill="none" xmlns="http://www.w3.org/2000/svg">
<g clip-path="url(#clip0_1190_9060)">
<path d="M36.6853 37.3531C35.9017 29.3233 38.0277 20.6673 43.2093 13.0447C48.3909 5.42212 55.6925 1.161 64.8528 0.34039C73.2964 -0.40728 82.0073 -0.127664 89.6187 3.23989C100.018 7.84749 106.974 16.315 109.501 27.8765C111.961 39.1706 107.678 48.9268 102.211 58.1785C97.2361 66.6886 90.6696 73.9829 83.5138 80.7849C81.5092 82.6814 80.3004 82.6085 78.8668 80.3776C76.4916 76.6757 74.1772 72.9252 71.5773 69.4361C69.919 67.2052 70.405 66.2083 72.6282 64.871C79.7597 60.616 86.223 55.4431 90.8518 48.4101C99.0585 35.8639 94.7638 19.5671 81.8129 13.4641C70.4657 8.13318 53.5846 14.7771 49.9581 27.7307C48.0568 34.5022 49.8609 41.6142 52.2786 48.2399C57.6788 63.0231 66.4383 75.7031 76.9654 87.2647C84.0362 95.0271 91.2406 102.625 99.5445 109.111C101.251 110.436 101.464 111.762 99.1921 112.989C90.8336 117.512 87.4076 124.891 87.1949 134.088C87.1949 135.031 87.6445 136.264 86.5875 136.83C85.4273 137.438 84.8623 136.185 84.1577 135.614C66.2318 120.867 52.5702 102.972 44.3938 81.107C39.0677 67.1455 36.4514 52.2956 36.6853 37.3531Z" fill="#C9D3E7"/>
<path d="M0 120.12C10.5454 108.491 13.7041 98.7594 7.68427 83.3805C10.2417 83.3805 12.6958 83.3075 15.1438 83.3805C22.1043 83.6214 29.0712 83.153 35.9369 81.9824C37.6681 81.6845 38.1723 82.262 38.6704 83.6905C41.0899 90.7014 44.2418 97.4373 48.0738 103.786C49.641 106.358 48.007 107.531 46.215 108.479C36.7387 113.476 26.8494 117.336 16.2858 119.384C11.0921 120.405 5.91051 120.357 0 120.12Z" fill="#C9D3E7"/>
<path d="M187.264 49.8447C187.264 54.434 187.671 57.7469 188.394 59.9109H178.067C178.821 57.7469 179.197 54.4219 179.197 49.8447V22.3754C179.197 21.0928 179.276 19.482 179.355 17.549C178.745 18.8825 178.047 20.174 177.266 21.415L160.233 48.5439H160.075L142.932 21.573C142.223 20.4289 141.578 19.2457 141.001 18.0292C141.163 19.9622 141.244 21.9762 141.244 24.0713V49.8447C141.244 54.434 141.645 57.7469 142.374 59.9109H132.047C132.77 57.7347 133.177 54.4401 133.177 49.8447V15.9381C133.177 11.4278 132.77 8.1271 132.047 5.95095H142.75L156.43 27.5301C158.277 30.4316 159.643 32.7658 160.53 34.5326C161.654 32.5206 163.027 30.2776 164.552 27.7732L174.447 11.9688C176.701 8.32161 177.424 7.2153 177.484 5.92664H188.346C187.623 8.10278 187.216 11.3974 187.216 15.9138L187.264 49.8447Z" fill="#015294"/>
<path d="M212.609 21.7311C223.47 21.7311 231.355 29.1409 231.355 40.0095C231.355 52.1667 222.243 60.6768 210.276 60.6768C199.342 60.6768 191.609 53.2731 191.609 42.2404C191.615 30.4296 200.63 21.7311 212.609 21.7311ZM211.078 28.1744C204.645 28.1744 200.381 33.8883 200.381 40.4958C200.381 50.0757 206.17 54.1788 211.886 54.1788C218.325 54.1788 222.583 48.4649 222.583 41.8635C222.589 33.4324 217.845 28.1744 211.084 28.1744H211.078Z" fill="#015294"/>
<path d="M259.764 59.8987L258.774 55.5464C257.288 57.2266 255.452 58.5592 253.394 59.45C251.337 60.3408 249.109 60.7679 246.868 60.7011C238.74 60.7011 234.555 55.5464 234.555 47.2552V31.8763C234.555 28.0954 234.15 25.0358 233.34 22.6976H242.992V45.5897C242.992 51.1455 244.681 54.2821 249.832 54.2821C251.458 54.278 253.063 53.9153 254.533 53.2198C256.003 52.5243 257.302 51.513 258.337 50.258V31.8763C258.337 28.0954 257.932 25.0358 257.122 22.6976H266.78V50.72C266.78 54.5009 267.185 57.5605 267.995 59.8987H259.764Z" fill="#015294"/>
<path d="M295.974 59.1754C293.376 60.2567 290.58 60.7766 287.767 60.7011C278.655 60.7011 275.053 55.7896 275.053 47.6564V28.7397H268.778L268.699 28.5756L283.339 12.7712H283.503V22.6976H295.409L294.522 28.7397H283.503V47.7415C283.503 52.1667 285.435 54.3429 289.213 54.3429C290.483 54.3341 291.738 54.0654 292.901 53.5532C294.064 53.0409 295.11 52.2961 295.974 51.3643V59.1754Z" fill="#015294"/>
<path d="M322.44 59.8987C323.25 57.6415 323.655 54.582 323.655 50.72V36.7878C323.655 31.0739 321.08 28.4175 316.578 28.4175C313.359 28.4175 310.297 29.9433 307.467 32.9279V50.72C307.467 54.582 307.872 57.6415 308.682 59.8987H297.82C298.63 57.6415 299.035 54.582 299.035 50.72V13.5188C299.035 9.73793 298.63 6.68038 297.82 4.34619H307.479V26.8371C310.613 23.4574 314.641 21.7614 319.628 21.7614C327.914 21.7614 332.099 26.7581 332.099 36.0158V50.72C332.099 54.582 332.504 57.6415 333.314 59.8987H322.44Z" fill="#015294"/>
<path d="M379.973 5.06958C385.368 5.06958 389.954 6.19413 393.088 8.04811V17.3059C389.444 14.4063 383.272 12.2363 377.902 12.2363C367.685 12.2363 360.122 20.3634 360.122 32.0404C360.122 44.3557 368.244 53.4554 379.834 53.4554C385.544 53.4554 390.16 51.3644 394.716 47.2552V56.5312C391.072 59.0295 384.821 60.7194 378.06 60.7194C361.41 60.7194 350.949 50.0088 350.949 33.8275C350.688 16.9047 363.159 4.82644 379.973 5.06958Z" fill="#015294"/>
<path d="M421.65 59.8988L420.927 56.2516C417.951 59.2301 414.166 60.6768 409.422 60.6768C406.202 60.7555 403.052 59.7327 400.492 57.7773C398.063 55.7511 396.848 53.0137 396.848 49.5651C396.848 42.1613 403.281 36.2833 414.385 36.2833C416.358 36.2414 418.33 36.4311 420.259 36.8486V36.7635C420.259 31.0496 417.768 28.1501 412.696 28.1501C408.212 28.2034 403.909 29.9263 400.626 32.9826L400.547 32.9036L401.762 24.9284C405.708 22.775 410.139 21.6661 414.634 21.7068C424.286 21.7068 428.715 26.6183 428.715 35.9611V50.72C428.715 54.582 429.12 57.6416 429.93 59.8988H421.65ZM420.283 42.5078C418.461 41.9401 416.56 41.6672 414.652 41.6994C408.857 41.6994 405.48 44.4408 405.48 48.5439C405.48 52.0877 408.055 54.4219 412.241 54.4219C413.742 54.4587 415.234 54.1783 416.62 53.5991C418.006 53.0199 419.254 52.1549 420.283 51.0604V42.5078Z" fill="#015294"/>
<path d="M457.775 59.8988C458.585 57.6416 458.99 54.582 458.99 50.72V36.7878C458.99 31.0739 456.414 28.4176 451.907 28.4176C448.772 28.4176 445.796 29.7853 443.141 32.6057V50.72C443.141 54.582 443.546 57.6416 444.356 59.8988H433.477C434.286 57.6416 434.691 54.582 434.691 50.72V31.8763C434.691 28.0954 434.286 25.0358 433.477 22.6976H441.768L442.649 27.0499C445.711 23.5081 449.815 21.7351 454.962 21.7311C463.248 21.7311 467.433 26.7277 467.433 35.9855V50.72C467.433 54.582 467.838 57.6416 468.648 59.8988H457.775Z" fill="#015294"/>
<path d="M491.811 21.7311C496.239 21.7311 500.023 22.9468 501.949 24.1625V32.2167C498.65 29.8825 495.431 28.3568 491.489 28.3568C483.847 28.3568 479.582 33.6695 479.582 40.7511C479.582 48.9633 485.299 54.1241 492.132 54.1241C496.239 54.1241 500.102 51.9479 502.593 49.3766V57.4004C501.226 58.6891 496.16 60.7011 490.122 60.7011C478.295 60.7011 470.817 53.6985 470.817 42.1856C470.574 30.5086 480.305 21.573 491.811 21.7311Z" fill="#015294"/>
<path d="M512.411 43.5533C513.462 50.2398 518.285 54.1788 524.967 54.1788C529.711 54.1788 534.079 51.9236 537.517 48.9451V56.9202C534.619 58.8532 529.231 60.7011 523.114 60.7011C510.886 60.7011 503.402 53.6986 503.402 42.1856C503.402 30.1074 511.366 21.7311 522.841 21.7311C533.38 21.7311 539.74 29.305 539.74 39.4442C539.781 40.8215 539.673 42.1992 539.418 43.5533H512.411ZM530.999 37.7543C530.276 31.9614 526.577 28.0954 521.668 28.0954C516.76 28.0954 513.219 31.9614 512.332 37.7543H530.999Z" fill="#015294"/>
<path d="M565.999 30.5876C564.782 30.3328 563.543 30.1984 562.299 30.1864C558.357 30.1864 554.816 31.8763 551.76 35.177V50.72C551.76 54.582 552.165 57.6415 552.975 59.8987H542.102C542.911 57.6415 543.316 54.582 543.316 50.72V31.8763C543.316 28.0954 542.911 25.0358 542.102 22.6976H550.393L551.608 29.2199C552.963 27.2239 554.684 25.5035 556.68 24.1503C558.76 22.5637 561.306 21.709 563.921 21.7189C564.621 21.7213 565.319 21.7761 566.011 21.883L565.999 30.5876Z" fill="#015294"/>
<path d="M169.477 131.845C169.398 128.952 168.676 126.618 167.145 122.43L165.225 117.354H142.61L140.787 122.265C139.178 126.618 138.358 129.833 138.358 131.845H128.371C130.193 129.189 132.313 125.086 134.646 119.451L147.196 87.9698C149.128 83.1373 149.772 81.2043 149.772 79.6786C149.777 79.158 149.695 78.6401 149.529 78.1468H157.328L174.228 119.53C175.915 123.786 177.932 127.903 180.26 131.845H169.477ZM162.959 111.482L155.16 91.1064C154.623 89.7935 154.164 88.4498 153.787 87.0824C153.42 88.48 152.963 89.8526 152.42 91.1915L144.784 111.482H162.959Z" fill="#015294"/>
<path d="M200.309 93.8478C204.488 93.8478 208.03 94.8934 209.961 96.103V103.337C206.584 101.002 203.2 99.7927 199.823 99.7927C192.017 99.7927 187.431 105.428 187.431 112.837C187.431 121.129 193.147 126.685 200.388 126.685C204.226 126.606 207.886 125.049 210.605 122.338V129.596C209.074 130.885 204.409 132.636 198.699 132.636C187.352 132.636 179.789 125.633 179.789 114.278C179.807 102.619 188.719 93.8478 200.309 93.8478Z" fill="#015294"/>
<path d="M237.635 131.122C235.15 132.218 232.452 132.741 229.738 132.654C221.124 132.654 217.826 127.985 217.826 120.01V100.206H211.63L211.551 100.048L224.988 85.4594H225.152V94.8265H237.058L236.171 100.218H225.17V120.108C225.17 124.697 227.095 126.952 230.959 126.952C232.209 126.934 233.443 126.668 234.589 126.17C235.736 125.673 236.773 124.953 237.641 124.053L237.635 131.122Z" fill="#015294"/>
<path d="M245.361 75.6484C248.259 75.6484 250.27 77.8246 250.27 80.7241C250.27 83.6236 248.259 85.7937 245.361 85.7937C242.464 85.7937 240.453 83.7026 240.453 80.7241C240.453 77.7456 242.464 75.6484 245.361 75.6484ZM241.717 103.993C241.75 100.897 241.372 97.8106 240.593 94.8143H249.055V122.667C248.974 125.76 249.326 128.849 250.099 131.845H240.617C241.447 128.859 241.834 125.766 241.765 122.667L241.717 103.993Z" fill="#015294"/>
<path d="M274.089 93.8478C284.951 93.8478 292.349 101.495 292.349 112.12C292.349 124.119 283.845 132.654 272.079 132.654C261.217 132.654 253.812 125.007 253.812 114.296C253.812 102.783 262.42 93.8478 274.089 93.8478ZM272.637 99.7259C265.804 99.7259 261.454 105.762 261.454 112.527C261.454 122.253 267.328 126.776 273.524 126.776C276.987 126.776 279.641 125.56 281.652 123.074C283.707 120.465 284.782 117.216 284.689 113.895C284.708 105.282 279.799 99.7259 272.637 99.7259Z" fill="#015294"/>
<path d="M320.193 131.845C321.022 128.859 321.409 125.766 321.341 122.667V108.686C321.341 102.808 318.844 99.9082 313.936 99.9082C310.479 99.9082 307.339 101.519 304.362 104.82V122.691C304.284 125.79 304.665 128.883 305.492 131.87H295.895C296.727 128.875 297.114 125.774 297.043 122.667V103.993C297.119 100.9 296.768 97.811 295.998 94.8143H303.075L303.962 99.5618C305.502 97.741 307.426 96.2842 309.596 95.2963C311.766 94.3083 314.128 93.8137 316.511 93.8478C324.317 93.8478 328.661 98.5952 328.661 107.616V122.667C328.585 125.765 328.966 128.858 329.79 131.845H320.193Z" fill="#015294"/>
<path d="M405.404 121.785C405.404 126.296 405.725 129.687 406.369 131.845H397.276C397.92 129.675 398.242 126.296 398.242 121.785V93.6108C398.242 91.4407 398.321 89.5077 398.479 87.7328C397.73 89.4401 396.842 91.0829 395.824 92.6443L378.767 119.937H378.609L361.473 92.6443C360.57 91.2497 359.758 89.7979 359.043 88.2981C359.296 90.6782 359.404 93.0716 359.365 95.4648V121.791C359.365 126.302 359.687 129.694 360.331 131.851H351.219C351.863 129.681 352.185 126.302 352.185 121.791V88.14C352.185 83.7148 351.863 80.3351 351.219 78.1589H360.871L374.63 99.9751C376.884 103.762 378.329 106.339 379.052 107.707C380.103 105.695 381.549 103.197 383.402 100.297L393.024 84.7482C395.599 80.8031 396.401 79.4355 396.48 78.1468H406.388C405.744 80.3229 405.422 83.7026 405.422 88.1279L405.404 121.785Z" fill="#015294"/>
<path d="M431.066 93.8478C441.927 93.8478 449.332 101.495 449.332 112.12C449.332 124.119 440.828 132.654 429.055 132.654C418.194 132.654 410.789 125.007 410.789 114.296C410.789 102.783 419.403 93.8478 431.066 93.8478ZM429.62 99.7259C422.78 99.7259 418.437 105.762 418.437 112.527C418.437 122.253 424.311 126.776 430.507 126.776C433.963 126.776 436.618 125.56 438.629 123.074C440.683 120.464 441.758 117.216 441.666 113.895C441.69 105.282 436.758 99.7259 429.62 99.7259Z" fill="#015294"/>
<path d="M477.173 131.845C477.997 128.858 478.378 125.765 478.303 122.667V108.686C478.303 102.808 475.806 99.9082 470.898 99.9082C467.436 99.9082 464.301 101.519 461.325 104.82V122.691C461.248 125.789 461.627 128.882 462.448 131.87H452.875C453.697 128.882 454.075 125.789 453.999 122.691V103.993C454.076 100.9 453.724 97.811 452.954 94.8143H460.037L460.924 99.5618C462.464 97.741 464.388 96.2842 466.558 95.2963C468.728 94.3083 471.09 93.8137 473.474 93.8478C481.279 93.8478 485.623 98.5952 485.623 107.616V122.667C485.546 125.765 485.925 128.857 486.747 131.845H477.173Z" fill="#015294"/>
<path d="M514.025 131.122C511.54 132.216 508.842 132.74 506.128 132.654C497.514 132.654 494.216 127.985 494.216 120.01V100.206H488.038L487.953 100.048L501.39 85.4594H501.554V94.8265H513.46L512.573 100.218H501.554V120.108C501.554 124.697 503.486 126.952 507.343 126.952C508.593 126.933 509.826 126.667 510.973 126.169C512.12 125.672 513.157 124.952 514.025 124.053V131.122Z" fill="#015294"/>
<path d="M541.702 131.845C542.526 128.858 542.907 125.765 542.832 122.667V108.686C542.832 102.808 540.177 99.9082 535.427 99.9082C531.782 99.9082 528.508 101.683 525.453 105.142V122.667C525.376 125.765 525.755 128.857 526.577 131.845H517.082C517.863 128.85 518.224 125.761 518.157 122.667V85.7086C518.244 82.615 517.892 79.5247 517.112 76.5298H525.447V99.4766C528.581 95.6897 532.688 93.8418 537.918 93.8418C545.717 93.8418 550.146 98.7047 550.146 107.61V122.667C550.069 125.765 550.448 128.857 551.269 131.845H541.702Z" fill="#015294"/>
</g>
<defs>
<clipPath id="clip0_1190_9060">
<rect width="566" height="137" fill="white"/>
</clipPath>
</defs>
</svg>
