<svg width="202" height="66" viewBox="0 0 202 66" fill="none" xmlns="http://www.w3.org/2000/svg">
<g clip-path="url(#clip0_277_466)">
<path d="M163.872 3.6583C163.871 3.0155 164.049 2.38663 164.386 1.85125C164.722 1.31588 165.201 0.89806 165.761 0.650666C166.322 0.403271 166.939 0.337419 167.536 0.461439C168.132 0.585459 168.68 0.893774 169.11 1.34738C169.541 1.80099 169.834 2.37951 169.954 3.00973C170.073 3.63995 170.014 4.29354 169.782 4.88783C169.551 5.48212 169.158 5.99039 168.653 6.34833C168.148 6.70627 167.555 6.89779 166.947 6.89866C166.543 6.90453 166.142 6.82483 165.767 6.66423C165.392 6.50364 165.052 6.26538 164.765 5.96348C164.479 5.66159 164.252 5.30214 164.099 4.90627C163.945 4.5104 163.868 4.08609 163.872 3.6583ZM169.412 3.6583C169.334 3.02372 169.041 2.44085 168.586 2.01852C168.132 1.59619 167.548 1.36326 166.943 1.36326C166.338 1.36326 165.754 1.59619 165.3 2.01852C164.846 2.44085 164.552 3.02372 164.474 3.6583C164.428 4.0298 164.458 4.40732 164.561 4.76567C164.665 5.12402 164.839 5.45495 165.073 5.73639C165.306 6.01783 165.594 6.24331 165.917 6.39777C166.239 6.55223 166.589 6.63213 166.943 6.63213C167.297 6.63213 167.647 6.55223 167.97 6.39777C168.292 6.24331 168.58 6.01783 168.814 5.73639C169.047 5.45495 169.222 5.12402 169.325 4.76567C169.428 4.40732 169.458 4.0298 169.412 3.6583ZM168.474 5.41459H167.715L166.98 3.92614H166.337V5.41459H165.694V1.90201H167.283C167.598 1.87718 167.913 1.93605 168.201 2.07326C168.33 2.17879 168.432 2.31772 168.497 2.47682C168.562 2.63592 168.587 2.80988 168.57 2.98214C168.57 3.6144 168.254 3.88663 167.665 3.93054L168.495 5.41898L168.474 5.41459ZM167.296 3.40804C167.665 3.40804 167.939 3.32022 167.939 2.88115C167.939 2.44208 167.449 2.4289 167.146 2.4289H166.317V3.41682L167.296 3.40804Z" fill="#231F20"/>
<path d="M0.0124512 26.9334L0.979336 22.5603L17.3998 4.36949H5.37804L6.39887 0.272949H25.7573L24.8527 4.42657L8.19985 22.6964H20.8731L19.8813 26.9334H0.0124512Z" fill="#231F20"/>
<path d="M21.6615 26.938L27.0561 4.42675L28.0147 0.475098H33.5504L31.0606 10.6879C32.2723 9.64732 33.87 8.49256 37.0071 8.49256C41.1237 8.49256 43.3977 10.9514 43.3977 14.0468C43.3802 15.4393 43.2145 16.8252 42.9039 18.1785L40.9245 26.9336H35.3556L37.6711 16.971C37.8075 16.3238 37.8949 15.666 37.9326 15.004C37.9326 13.5507 36.9864 12.4091 35.0277 12.4091C33.8285 12.4091 30.6166 12.936 29.3136 18.2048L27.1889 26.938H21.6615Z" fill="#231F20"/>
<path d="M53.8924 27.32C49.0414 27.32 44.5555 24.8217 44.5555 19.6626C44.5555 14.0205 48.8173 8.35205 56.3656 8.35205C62.0259 8.35205 64.4285 11.4563 64.4285 15.1884C64.3819 16.5834 64.1913 17.9689 63.86 19.3201H49.5975C49.6805 21.5945 50.6598 23.7108 55.4071 23.7108C57.5742 23.7211 59.7166 23.2249 61.6814 22.2575L61.0714 26.2399C58.7366 26.9092 56.3319 27.2676 53.9132 27.3068L53.8924 27.32ZM56.0378 11.7768C54.8014 11.7279 53.5844 12.1124 52.5758 12.8707C51.5673 13.629 50.8237 14.7185 50.4606 15.97H59.5568C59.5983 15.5309 59.5983 14.903 59.5983 14.6835C59.5983 13.1248 58.3534 11.7768 56.0503 11.7768H56.0378Z" fill="#231F20"/>
<path d="M63.6816 26.9376L67.9558 8.78196H73.1306L72.4209 11.9916C73.8111 10.1343 75.832 8.479 78.687 8.479C79.3344 8.48752 79.9794 8.564 80.6125 8.70732L79.4755 13.2605C78.8904 13.039 78.275 12.9204 77.6537 12.9092C72.9563 12.9092 71.6947 16.8302 71.0142 19.6007L69.2672 26.9376H63.6816Z" fill="#231F20"/>
<path d="M77.8363 26.9378L82.1437 8.78213H87.1939L86.5839 11.3902C87.357 10.44 88.3226 9.68647 89.4089 9.18553C90.4952 8.68458 91.6742 8.44915 92.8583 8.49673C95.0244 8.49673 97.6263 9.10704 98.0786 12.2288C98.8878 10.736 101.203 8.49673 105.204 8.49673C108.739 8.49673 111.204 10.736 111.204 13.5768C111.128 14.9134 110.919 16.2379 110.582 17.5285L108.258 26.929H102.805L105.295 16.602C105.455 15.9396 105.56 15.2639 105.61 14.5823C105.61 13.0762 104.631 12.4484 103.253 12.4484C102.062 12.4484 99.2198 13.0763 97.8587 18.6305L95.8087 26.929H90.2647L92.5097 17.8841C92.8116 16.8209 92.9872 15.7221 93.0326 14.613C93.0326 13.2519 92.0989 12.4484 90.8042 12.4484C87.7707 12.4484 86.1067 15.3682 85.6253 17.4275L83.3388 26.929L77.8363 26.9378Z" fill="#231F20"/>
<path d="M117.288 27.2098C113.731 27.2098 110.93 25.4536 110.93 22.1561C110.93 17.4712 116.624 15.7588 121.562 15.7588C122.947 15.7418 124.332 15.7989 125.712 15.9301V15.0519C125.712 13.1288 124.533 11.8511 121.437 11.8511C118.985 11.9098 116.569 12.4892 114.333 13.5547L115.196 9.49327C117.65 8.85999 120.165 8.52559 122.691 8.49658C127.712 8.49658 130.72 10.3451 130.72 14.2045C130.692 15.3586 130.529 16.5044 130.235 17.6161L128.857 23.3328C128.529 24.9047 128.442 25.3614 128.214 26.9376H123.574L124.014 24.571C122.711 25.7214 121.006 27.2055 117.3 27.2055L117.288 27.2098ZM116.371 21.8005C116.371 23.0474 117.371 23.8729 118.981 23.8729C122.906 23.8729 124.541 20.5579 124.94 18.7314C124.255 18.7314 123.906 18.7094 123.604 18.7094C120.172 18.7094 116.371 19.3461 116.371 21.7829V21.8005Z" fill="#231F20"/>
<path d="M140.435 27.2098C135.509 27.2098 131.633 24.3339 131.633 19.2451C131.633 16.8302 133.351 8.49658 144.082 8.49658C145.842 8.51046 147.592 8.76429 149.29 9.25179L147.904 13.1244C146.676 12.6014 145.365 12.3331 144.041 12.3341C142.33 12.2821 140.67 12.9507 139.425 14.193C138.18 15.4353 137.452 17.1498 137.401 18.9597C137.401 22.3625 139.891 23.3504 142.285 23.3504C143.69 23.3412 145.076 23.0102 146.348 22.38L145.904 26.402C144.125 26.927 142.29 27.2045 140.443 27.2274L140.435 27.2098Z" fill="#231F20"/>
<path d="M147.643 26.9336L154.042 0.461914H159.582L155.926 15.4343L163.694 8.78233H170.632L160.569 17.1467L169.022 31.3155H162.947L155.349 17.8184L153.149 26.9336H147.643Z" fill="#231F20"/>
<path d="M1.34866 31.2012H3.2617C4.27423 31.2012 5.22035 31.548 5.22035 32.6808C5.19427 33.0609 5.04142 33.4187 4.78907 33.6906C4.53672 33.9624 4.20129 34.1305 3.84264 34.1649C4.14567 34.1939 4.42547 34.3488 4.62072 34.5958C4.81596 34.8427 4.91073 35.1614 4.88423 35.4821C4.88423 37.2692 2.80936 37.4053 1.84248 37.4053H0L1.34866 31.2012ZM1.4524 36.4305H1.89642C2.69317 36.4305 3.57706 36.3471 3.57706 35.3768C3.57706 34.7445 2.95875 34.6391 2.25329 34.6391H1.83832L1.44825 36.4305H1.4524ZM2.04168 33.7083H2.55624C3.2119 33.7083 3.92564 33.5326 3.92564 32.795C3.92564 32.211 3.33638 32.1759 2.83011 32.1759H2.39024L2.04168 33.7083Z" fill="#231F20"/>
<path d="M7.75588 31.2012H11.557L11.3661 32.1759H8.84311L8.49453 33.7039H10.7561L10.5486 34.6874H8.2829L7.91357 36.4305H10.4615L10.2416 37.4053H6.39062L7.75588 31.2012Z" fill="#231F20"/>
<path d="M14.412 34.8367L12.8849 31.2012H14.2501L15.2212 33.8049L17.3251 31.2012H18.8314L15.7025 34.8367L15.1465 37.4053H13.8393L14.412 34.8367Z" fill="#231F20"/>
<path d="M25.7158 33.7172C25.7117 34.7496 25.3259 35.7393 24.641 36.4746C24.2722 36.8311 23.8403 37.1066 23.3701 37.2852C22.9 37.4638 22.4011 37.542 21.9022 37.5152C20.3128 37.5152 19.3459 36.4175 19.3459 34.9334C19.3559 33.9315 19.7253 32.971 20.3792 32.2463C20.7196 31.8667 21.1315 31.567 21.5883 31.3666C22.0451 31.1661 22.5366 31.0694 23.0309 31.0828C24.7862 31.0828 25.7158 32.0707 25.7158 33.7172ZM20.7029 35.0081C20.6844 35.2057 20.7061 35.4052 20.7666 35.5933C20.827 35.7813 20.9248 35.9535 21.0534 36.0982C21.1819 36.2429 21.3382 36.3569 21.5118 36.4324C21.6854 36.5079 21.8723 36.5433 22.0599 36.536C23.5579 36.536 24.3754 34.8324 24.3754 33.5942C24.3943 33.3949 24.3721 33.1935 24.3104 33.0041C24.2488 32.8146 24.149 32.6416 24.0181 32.4968C23.8872 32.352 23.7282 32.239 23.552 32.1654C23.3759 32.0918 23.1868 32.0595 22.9977 32.0707C21.4831 32.0707 20.7029 33.7479 20.7029 35.0081Z" fill="#231F20"/>
<path d="M28.189 31.2012H29.8281L31.21 35.9124H31.2183L32.2723 31.2012H33.4923L32.1022 37.4053H30.4298L29.0812 32.6457H29.0604L28.0396 37.4053H26.7864L28.189 31.2012Z" fill="#231F20"/>
<path d="M35.5466 31.2012H37.4803C38.8414 31.2012 40.3851 31.6973 40.3851 33.8356C40.3851 35.2758 39.6299 37.3877 36.3765 37.3877H34.2103L35.5673 31.1836L35.5466 31.2012ZM35.7042 36.4305H36.3184C38.1692 36.4305 39.024 35.3767 39.024 33.6687C39.024 32.6984 38.2356 32.1759 37.0778 32.1759H36.6213L35.7084 36.4305H35.7042Z" fill="#231F20"/>
<path d="M45.9665 31.2012H47.3234L45.954 37.4053H44.6095L45.9665 31.2012Z" fill="#231F20"/>
<path d="M49.282 31.2012H50.9253L52.303 35.9124H52.3113L53.3778 31.2012H54.5978L53.1952 37.4053H51.5353L50.1742 32.6457H50.1659L49.1243 37.4053H47.9043L49.282 31.2012Z" fill="#231F20"/>
<path d="M56.6188 31.2012H58.2579L59.6398 35.9124H59.6481L60.7021 31.2012H61.9221L60.5237 37.4053H58.8721L57.511 32.6457H57.4902L56.4611 37.4053H55.2286L56.6188 31.2012Z" fill="#231F20"/>
<path d="M69.321 33.7169C69.3227 34.2284 69.2289 34.7352 69.0452 35.2084C68.8615 35.6815 68.5914 36.1117 68.2504 36.4742C67.8819 36.8312 67.4499 37.107 66.9797 37.2856C66.5095 37.4642 66.0105 37.5422 65.5115 37.5148C63.9222 37.5148 62.9761 36.4172 62.9761 34.9331C62.9747 33.9338 63.3356 32.9721 63.9845 32.246C64.3259 31.8679 64.738 31.5692 65.1946 31.3689C65.6511 31.1686 66.142 31.071 66.6361 31.0824C68.3873 31.0824 69.321 32.0704 69.321 33.7169ZM64.3123 35.0077C64.2936 35.2065 64.3156 35.4073 64.3768 35.5963C64.438 35.7852 64.5369 35.9581 64.6668 36.103C64.7967 36.248 64.9546 36.3617 65.1297 36.4363C65.3048 36.511 65.4931 36.5449 65.6817 36.5357C67.1549 36.5357 67.9848 34.8321 67.9848 33.5939C68.0024 33.3937 67.979 33.1918 67.9161 33.0021C67.8532 32.8123 67.7523 32.6392 67.6203 32.4945C67.4883 32.3498 67.3283 32.237 67.1512 32.1638C66.9742 32.0906 66.7844 32.0587 66.5946 32.0704C65.0924 32.0704 64.3123 33.7476 64.3123 35.0077Z" fill="#231F20"/>
<path d="M71.1553 31.2012H72.4583L73.06 36.0354H73.0807L75.7656 31.2012H77.1724L73.5538 37.4053H72.006L71.1553 31.2012Z" fill="#231F20"/>
<path d="M80.5128 31.2012H81.9652L83.1354 37.4053H81.849L81.6291 35.9915H78.8695L78.0395 37.4053H76.5996L80.5045 31.2012H80.5128ZM79.438 35.0079H81.4382L81.0232 32.3032H80.9734L79.4256 35.0079H79.438Z" fill="#231F20"/>
<path d="M85.3223 31.2012H90.3228L90.0904 32.1759H88.2811L87.0984 37.4053H85.7415L86.9324 32.1759H85.0983L85.3223 31.2012Z" fill="#231F20"/>
<path d="M91.6258 31.2012H92.9827L91.6258 37.4053H90.2688L91.6258 31.2012Z" fill="#231F20"/>
<path d="M100.332 33.7171C100.342 34.2387 100.248 34.7567 100.057 35.2376C99.8658 35.7186 99.5818 36.1519 99.2229 36.5097C98.864 36.8675 98.4384 37.1418 97.9733 37.3149C97.5082 37.4881 97.0139 37.5563 96.5224 37.5151C94.9206 37.5151 93.9828 36.4174 93.9828 34.9334C93.9838 33.9362 94.341 32.9764 94.9829 32.2462C95.3252 31.8695 95.7375 31.5716 96.1938 31.3714C96.6501 31.1712 97.1406 31.0729 97.6345 31.0827C99.4065 31.0827 100.332 32.0706 100.332 33.7171ZM95.3522 35.008C95.333 35.2058 95.3542 35.4056 95.4144 35.594C95.4746 35.7823 95.5724 35.9548 95.701 36.0997C95.8297 36.2446 95.9863 36.3586 96.1603 36.4338C96.3342 36.5091 96.5214 36.5439 96.7092 36.536C98.1823 36.536 99.0039 34.8324 99.0039 33.5942C99.0228 33.3948 99.0007 33.1935 98.939 33.004C98.8773 32.8146 98.7776 32.6415 98.6466 32.4968C98.5157 32.352 98.3567 32.2389 98.1806 32.1653C98.0044 32.0918 97.8153 32.0595 97.6262 32.0706C96.1323 32.0706 95.3522 33.7479 95.3522 35.008Z" fill="#231F20"/>
<path d="M102.805 31.2012H104.444L105.814 35.9124H105.834L106.888 31.2012H108.121L106.71 37.4053H105.058L103.697 32.6457H103.677L102.647 37.4053H101.407L102.805 31.2012Z" fill="#231F20"/>
<path d="M169.022 31.3154L110.602 65.3523H143.593L202 31.3154H169.022Z" fill="#EE3224"/>
<path d="M132.804 48.8783L162.947 31.3154H129.969L99.8257 48.8783H132.804Z" fill="#EE3224"/>
</g>
<defs>
<clipPath id="clip0_277_466">
<rect width="202" height="65.0793" fill="white" transform="translate(0 0.272949)"/>
</clipPath>
</defs>
</svg>
