<svg width="231" height="48" viewBox="0 0 231 48" fill="none" xmlns="http://www.w3.org/2000/svg">
<g clip-path="url(#clip0_2507_11603)">
<path d="M6.468 0.289463C6.37323 0.442968 6.11262 1.29315 5.88754 2.17876L5.47292 3.80828H11.4908C15.4711 3.80828 17.5442 3.84371 17.5915 3.92636C17.6389 3.99721 16.8452 4.88282 15.8502 5.91013C14.8551 6.92562 13.6705 8.16548 13.2203 8.64961C12.7702 9.13374 11.5974 10.3618 10.6142 11.3655C8.09092 13.9396 2.03754 20.2806 1.40969 20.9891C0.947692 21.5086 0.852923 21.7212 0.663385 22.5832C0.533077 23.1382 0.343538 23.9765 0.225077 24.4371C0.0947692 24.9094 0 25.3463 0 25.4171C0 25.6061 19.7949 25.5825 20.0555 25.3817C20.174 25.2991 20.3872 24.6614 20.6123 23.7522C20.9914 22.1817 21.0388 21.8157 20.8611 21.7094C20.8018 21.674 17.9588 21.6385 14.5234 21.6385C10.4602 21.6267 8.29231 21.5913 8.29231 21.5086C8.29231 21.4496 9.58354 20.0799 11.1591 18.474C12.7465 16.8681 14.63 14.9433 15.3526 14.1994C16.0634 13.4555 18.5866 10.8695 20.944 8.44887C23.3843 5.94555 25.2442 3.94998 25.2797 3.78467C25.3152 3.63116 25.5048 2.79278 25.6943 1.91898C25.8957 1.04518 26.0615 0.254038 26.0615 0.171381C26.0615 0.0651093 24.0358 0.0296841 16.3477 0.0296841H6.63385L6.468 0.289463Z" fill="#32324F"/>
<path d="M28.6676 0.478331C28.4544 0.643644 28.2649 1.21043 27.7792 3.17058C27.4238 4.52851 26.8552 6.78386 26.488 8.17722C26.1326 9.57058 25.2796 12.9241 24.5926 15.6163C23.9055 18.3086 23.0526 21.6503 22.709 23.02L22.0575 25.5352H24.8176H27.5896L27.7555 24.9093C27.8503 24.5787 28.1583 23.4215 28.4307 22.347C29.8641 16.7853 30.2432 15.5573 30.871 14.589C32.103 12.6643 33.6549 11.7197 35.5621 11.7197C37.114 11.7197 37.9787 12.1448 38.3933 13.1012C38.8435 14.1639 38.7961 14.471 37.1613 21.0481L36.0478 25.4761L38.7132 25.5115C40.573 25.5352 41.426 25.4997 41.5326 25.4053C41.7458 25.2281 41.805 25.0038 43.1318 19.3949C43.2621 18.84 43.5109 17.8363 43.6886 17.1514C43.9729 16.0414 44.0084 15.6872 44.0084 13.8451C44.0084 11.8377 43.9966 11.7551 43.6886 11.1174C43.2266 10.161 42.4329 9.34623 41.497 8.85029C40.1821 8.16541 39.4476 8.03553 37.2561 8.08276C35.5621 8.11818 35.266 8.16541 34.4367 8.44881C33.6193 8.7322 32.9441 9.09826 32.0083 9.78313C31.8661 9.8894 31.7121 9.94844 31.6766 9.91302C31.6173 9.85398 32.3636 6.80748 33.4653 2.68645C33.9392 0.867998 33.951 0.808958 33.643 0.501945C33.418 0.277592 33.2521 0.265783 31.1672 0.265783C29.1889 0.265783 28.9046 0.2894 28.6676 0.478331Z" fill="#32324F"/>
<path d="M157.151 0.525614C157.056 0.679119 156.784 1.56473 156.547 2.50938C156.31 3.45403 155.931 4.94185 155.706 5.81565C155.469 6.68945 154.912 8.87395 154.462 10.657C154 12.44 153.384 14.8371 153.1 15.9706C151.761 21.1426 150.766 25.0275 150.707 25.2636L150.659 25.5352H153.254C155.161 25.5352 155.907 25.4998 156.049 25.3817C156.192 25.2872 156.417 24.6024 156.725 23.4097C157.447 20.505 158.253 17.4348 158.359 17.1633C158.466 16.8562 158.312 16.6201 163.015 24.4725C164.709 27.2946 166.154 29.6444 166.237 29.6917C166.32 29.7389 167.635 29.7861 169.175 29.7861C171.331 29.7861 171.994 29.7507 172.042 29.6326C172.089 29.5027 171.13 27.9323 167.919 22.8784C165.266 18.7101 163.832 16.3839 163.832 16.2776C163.832 16.1478 164.543 15.5692 170.087 11.2474C171.923 9.8068 173.428 8.55514 173.428 8.46067C173.428 8.31897 172.883 8.29536 170.146 8.29536H166.877L166.036 8.98023C163.287 11.2238 159.07 14.5655 159.047 14.5419C159.011 14.4946 159.343 13.1013 159.959 10.7751C161.7 4.19794 162.612 0.561039 162.565 0.407534C162.517 0.30126 161.89 0.265837 159.911 0.265837C157.353 0.265837 157.317 0.265837 157.151 0.525614Z" fill="#32324F"/>
<path d="M190.249 1.08044C189.384 1.76531 186.529 3.99704 180.31 8.86199C179.493 9.48782 178.166 10.5387 177.349 11.1882C176.531 11.8376 175.418 12.7114 174.873 13.1247C173.866 13.9041 173.653 14.1402 173.747 14.4C173.818 14.6125 190.368 14.6243 190.758 14.4118C190.901 14.341 191.671 13.7742 192.464 13.1483C193.246 12.5225 194.68 11.4007 195.639 10.6568C196.587 9.91291 198.079 8.7439 198.956 8.05903C199.821 7.37416 201.313 6.20516 202.273 5.46125C203.221 4.71734 204.713 3.54833 205.578 2.86346C206.431 2.17859 207.414 1.41106 207.758 1.15129C208.101 0.903315 208.374 0.596304 208.374 0.478223C208.374 0.277485 207.971 0.265676 199.821 0.265676L191.256 0.277485L190.249 1.08044Z" fill="#F5010B"/>
<path d="M212.461 1.29309C211.75 1.85988 210.376 2.93442 209.428 3.67833C208.481 4.43405 207.012 5.57944 206.171 6.22888C205.341 6.87833 203.849 8.04733 202.854 8.82667C201.87 9.60601 200.271 10.8577 199.323 11.6016C198.364 12.3455 197.002 13.4082 196.303 13.9632C195.592 14.5182 194.573 15.3211 194.028 15.7462C193.483 16.1713 191.647 17.6001 189.953 18.9226C188.259 20.2451 186.636 21.5204 186.34 21.7566C186.044 21.9927 184.966 22.8429 183.947 23.6459C182.727 24.5905 182.075 25.1691 182.075 25.3108C182.075 25.5233 182.372 25.5352 190.593 25.5352H199.11L200.105 24.7676C200.638 24.3425 201.752 23.4805 202.557 22.8429C203.375 22.2171 204.808 21.0835 205.756 20.3396C206.704 19.5839 209.049 17.7536 210.956 16.2658C212.875 14.7662 215.138 12.9949 216.003 12.3101C216.868 11.6252 218.123 10.6451 218.799 10.1256C220.007 9.19272 220.966 8.44881 225.148 5.15434C226.309 4.23331 228.039 2.88719 228.986 2.15508C230.775 0.773533 231.036 0.537371 230.929 0.372057C230.893 0.313017 227.02 0.265783 222.317 0.265783L213.764 0.277592L212.461 1.29309Z" fill="#F5010B"/>
<path d="M55.1438 7.98818C53.6986 8.24796 52.8812 8.49593 51.6847 9.06272C50.2513 9.73578 49.7538 10.09 48.5336 11.3063C47.041 12.7941 46.1289 14.4118 45.6787 16.3601C45.4536 17.3048 45.4299 19.8081 45.6195 20.5166C46.4013 23.3505 49.0549 25.2871 52.893 25.8302C54.9898 26.1255 56.9918 26.0074 59.823 25.4406C60.6404 25.2871 61.4933 25.1218 61.7184 25.0745C62.1686 24.9919 62.1567 25.0155 62.4292 23.2915C62.5121 22.8074 62.6187 22.1697 62.6661 21.8745C62.7253 21.5793 62.749 21.3314 62.7372 21.3195C62.7253 21.2959 62.3699 21.4258 61.9435 21.5793C61.5289 21.7446 60.6523 22.0162 60.0007 22.1933C58.9464 22.4649 58.5792 22.5004 56.6246 22.5122C53.5564 22.524 52.5376 22.217 51.3767 20.9299C50.8555 20.3513 50.737 20.0443 50.5238 18.769L50.4527 18.3321H57.7381H65.0235L65.1419 17.8834C65.3433 17.1395 65.6276 15.0258 65.6276 14.2819C65.6276 12.6642 64.9287 11.0583 63.7323 9.9011C62.8201 9.01549 61.9435 8.55497 60.4746 8.1653C59.2426 7.84649 56.5061 7.75202 55.1438 7.98818ZM58.6384 11.259C59.2899 11.4598 59.9652 11.9675 60.3206 12.5461C60.6404 13.0657 60.7233 13.5498 60.6759 14.6952L60.6523 15.1439H56.0204H51.3886L51.4715 14.8133C51.6136 14.2465 52.277 13.2074 52.8812 12.617C53.5919 11.9203 54.8713 11.2826 55.8546 11.141C56.6601 11.0111 58.0106 11.0701 58.6384 11.259Z" fill="#32324F"/>
<path d="M78.0899 8.23626C77.4384 8.44881 76.2182 9.06283 75.697 9.4525C75.4719 9.61781 74.9507 10.0783 74.5361 10.468C73.9082 11.0584 73.7898 11.1293 73.849 10.8931C73.8845 10.7278 74.0267 10.1492 74.157 9.60601C74.2873 9.06283 74.3939 8.54327 74.3939 8.44881C74.3939 8.31892 73.9438 8.2953 71.8233 8.31892L69.2527 8.35435L67.0967 16.9388L64.9407 25.5352H67.6416C70.0582 25.5352 70.3425 25.5115 70.5084 25.3226C70.6031 25.2163 71.0178 23.7639 71.4324 22.1108C72.8065 16.561 73.233 15.4392 74.5124 14.0459C75.0928 13.42 75.4601 13.1484 76.2656 12.7588L77.2844 12.251H79.1561H81.0396L81.1581 11.7787C81.2291 11.5189 81.3239 11.1174 81.3831 10.8931C81.4424 10.6687 81.5964 10.0429 81.7385 9.52335C82.1413 8.05914 82.2005 8.11818 80.2578 8.09457C79.1442 8.08276 78.4334 8.12999 78.0899 8.23626Z" fill="#32324F"/>
<path d="M92.2223 8.23626C91.2036 8.51966 89.7702 9.3108 88.9765 10.0193C88.5145 10.4444 88.2539 10.6215 88.2894 10.4798C88.3368 10.3499 88.4671 9.80674 88.5856 9.26357L88.8225 8.2953L86.2637 8.31892L83.7168 8.35434L81.5608 16.9388L79.3929 25.5352H82.1649H84.9369L85.008 25.2045C85.0436 25.0274 85.1857 24.5433 85.3042 24.1182C85.4345 23.6931 85.6003 23.0082 85.6951 22.5831C85.7899 22.158 86.2163 20.4459 86.6428 18.7691C87.5549 15.2031 87.8866 14.4591 89.0831 13.2429C90.0663 12.251 90.8837 11.8495 92.092 11.7551C93.1819 11.6724 93.8689 11.8968 94.3902 12.4872C95.0654 13.2429 94.9825 14.6953 94.0585 17.978C93.94 18.4031 93.6202 19.6193 93.3477 20.6938C93.0753 21.7684 92.6962 23.1971 92.5066 23.8702C92.3171 24.5551 92.1631 25.2045 92.1631 25.3226C92.1631 25.5233 92.3289 25.5352 94.7456 25.5352C96.6291 25.5352 97.3873 25.4997 97.5176 25.3817C97.6953 25.2518 98.0151 24.1536 99.1642 19.6901C100.147 15.8761 100.787 14.4473 102.066 13.1602C103.133 12.1093 103.879 11.7787 105.253 11.7787C106.438 11.7787 106.9 11.9558 107.374 12.5816C107.587 12.865 107.622 13.0776 107.61 13.9396C107.61 14.8016 107.48 15.451 106.805 18.037C106.367 19.7256 105.774 22.0163 105.478 23.1263C105.194 24.2363 104.957 25.2281 104.957 25.3344C104.957 25.5115 105.218 25.5352 107.539 25.5352C109.861 25.5352 110.146 25.5115 110.311 25.3226C110.406 25.2163 110.608 24.6732 110.738 24.1182C110.88 23.5632 111.176 22.4178 111.401 21.5794C113.249 14.6008 113.166 14.9905 113.178 13.1957C113.19 11.6724 113.166 11.4953 112.906 10.9639C112.302 9.75951 110.833 8.62593 109.328 8.23626C108.428 7.98829 105.739 8.0001 104.791 8.24807C103.144 8.67316 101.368 9.7477 100.467 10.8931L100.005 11.4717L99.7446 10.7396C99.2708 9.4525 98.5126 8.75582 97.0437 8.27169C96.2263 8.0001 93.1582 7.98829 92.2223 8.23626Z" fill="#32324F"/>
<path d="M121.423 8.20101C120.404 8.3427 117.597 8.88588 117.538 8.94492C117.502 8.96853 117.324 9.66521 117.147 10.48C116.898 11.5899 116.839 12.0386 116.922 12.204C117.087 12.4874 117.076 12.4874 118.343 12.0741C121.921 10.8933 125.474 10.8106 127.097 11.8733C127.773 12.322 128.175 13.1958 128.175 14.2113V15.0143L125.368 14.9907C121.032 14.9552 118.9 15.2977 116.59 16.384C115.216 17.0335 114.09 18.049 113.593 19.0999C113.285 19.7375 113.249 19.9265 113.249 21.06C113.249 22.2172 113.273 22.3589 113.605 23.0202C114.055 23.9058 114.813 24.6143 115.808 25.0866C117.052 25.6652 117.632 25.7715 119.705 25.7715C121.269 25.7715 121.767 25.7243 122.489 25.5235C123.52 25.2401 124.894 24.5552 125.782 23.8822L126.41 23.3981L126.339 23.9648C126.292 24.2719 126.209 24.7206 126.15 24.9449C126.09 25.1693 126.043 25.3936 126.043 25.4527C126.043 25.4999 127.097 25.5235 128.377 25.5117L130.722 25.4763L130.924 24.2955C131.03 23.646 131.575 21.308 132.144 19.0999L133.163 15.0851L133.127 13.432C133.08 11.4719 132.938 11.0704 131.883 10.0195C131.042 9.18108 129.893 8.61429 128.412 8.29547C127.476 8.09473 126.896 8.05931 124.752 8.07112C123.342 8.08292 121.85 8.14196 121.423 8.20101ZM127.346 17.9545C127.346 18.0726 127.133 18.6158 126.872 19.1471C125.794 21.3671 123.709 22.7014 121.305 22.7014C119.528 22.7014 118.39 21.5796 118.746 20.1744C118.995 19.1826 120.546 18.3088 122.667 17.9899C123.934 17.7892 124.088 17.7774 125.782 17.7538C127.216 17.742 127.346 17.7538 127.346 17.9545Z" fill="#32324F"/>
<path d="M143.931 8.201C141.692 8.66152 140.827 8.95672 139.37 9.77148C138.422 10.291 136.882 11.7198 136.172 12.7235C135.508 13.68 134.951 14.8726 134.608 16.0888C134.276 17.2814 134.241 19.1826 134.513 20.2217C135.2 22.7958 137.368 24.7678 140.341 25.5235C141.135 25.7243 141.668 25.7715 143.433 25.7715C145.246 25.7715 145.779 25.7243 147.023 25.4763C147.899 25.2874 148.551 25.0984 148.634 24.9921C148.705 24.8977 148.823 24.3545 148.894 23.7877C148.965 23.2209 149.072 22.4534 149.119 22.0755C149.238 21.2962 149.238 21.2962 148.326 21.6386C145.696 22.6423 142.414 22.3117 141.159 20.9183C140.318 20.0091 140.199 19.6195 140.199 17.9781C140.211 16.6556 140.235 16.4313 140.519 15.7818C141.194 14.1641 142.189 13.0778 143.587 12.3693C145.435 11.4364 147.307 11.3538 150.126 12.0741C150.458 12.1567 150.742 12.1803 150.802 12.1213C150.861 12.0623 151.192 11.2829 151.524 10.3855C152.022 9.09842 152.116 8.73237 151.998 8.64971C151.844 8.56705 151.583 8.50801 149.783 8.1892C148.93 8.03569 144.689 8.0475 143.931 8.201Z" fill="#32324F"/>
<path d="M50.4173 34.0725C50.2396 34.2496 50.1093 34.5566 50.0619 34.9345C50.0145 35.2533 49.7657 36.5758 49.517 37.8747C49.2682 39.1736 48.8891 41.1101 48.6877 42.1847C48.4864 43.2592 48.1547 44.9241 47.9651 45.8806C47.7756 46.8489 47.6216 47.6636 47.6216 47.6872C47.6216 47.7227 47.977 47.7345 48.4153 47.7109L49.209 47.6754L49.588 45.6681C49.8013 44.5581 50.0264 43.3655 50.0974 43.0112C50.5239 40.685 50.7608 39.4334 51.0688 37.8747C51.2584 36.8946 51.4716 35.7847 51.5427 35.395C51.6137 35.0053 51.6848 34.592 51.7085 34.4858C51.827 33.8599 50.9267 33.5765 50.4173 34.0725Z" fill="#32324F"/>
<path d="M3.6131 34.5921C3.10372 34.6747 2.9971 34.8046 2.91418 35.4304C2.86679 35.7375 2.72464 36.4932 2.60618 37.1072C2.3811 38.2172 2.26264 38.8666 1.55187 42.657C1.33864 43.7315 1.06618 45.1721 0.93587 45.857C0.793716 46.5419 0.710793 47.2386 0.734485 47.3921L0.770023 47.6755L3.24587 47.7109C5.41372 47.7345 5.85202 47.7109 6.68125 47.4983C8.06725 47.1559 9.25187 46.5183 10.1166 45.6681C11.0051 44.7825 11.5026 43.9559 11.9883 42.5862C12.3319 41.6179 12.3556 41.4172 12.3674 39.8821C12.3793 37.8511 12.1897 37.2489 11.1709 36.1625C9.97448 34.8637 8.80171 34.4976 5.9231 34.5212C4.8451 34.533 3.81448 34.5684 3.6131 34.5921ZM7.90141 35.8792C9.93895 36.3279 10.9103 37.8983 10.7326 40.4135C10.5076 43.519 8.75433 45.7271 5.99418 46.3648C5.20048 46.5537 3.26956 46.6127 2.73648 46.471C2.47587 46.412 2.46402 46.3648 2.5351 45.798C2.58248 45.4673 2.66541 44.9242 2.72464 44.6053C2.79572 44.2747 2.94972 43.4836 3.06818 42.8341C3.19848 42.1847 3.42356 41.0393 3.55387 40.2954C3.69602 39.5515 3.90925 38.4297 4.02772 37.8157C4.14618 37.2017 4.27648 36.4932 4.32387 36.257C4.35941 35.9854 4.46602 35.8083 4.59633 35.7729C5.09387 35.643 7.14325 35.702 7.90141 35.8792Z" fill="#32324F"/>
<path d="M34.7448 36.3987C34.3183 36.5877 34.2354 36.6821 34.1762 37.0718C33.9748 38.229 33.9748 38.229 33.3588 38.2999C32.8257 38.3589 32.4585 38.6069 32.4585 38.9021C32.4585 39.1264 32.956 39.4689 33.2877 39.4689C33.572 39.4689 33.6431 39.5161 33.6431 39.705C33.6431 39.953 33.039 43.1648 32.802 44.1803C32.731 44.4755 32.648 45.1368 32.6243 45.6563C32.577 46.4356 32.6006 46.6954 32.7783 47.0261C33.0508 47.5574 33.8445 47.9707 34.6026 47.9707C35.4437 47.9707 35.7754 47.8054 35.7754 47.4039C35.7754 46.9552 35.5622 46.719 35.0765 46.6246C34.1288 46.4475 34.034 45.8452 34.5316 43.2829C34.6856 42.4445 34.9225 41.2637 35.0291 40.6497L35.2423 39.5279L36.3796 39.4925C37.6353 39.4571 37.6708 39.4334 37.6708 38.6069V38.288H36.6047C35.4082 38.288 35.3963 38.2762 35.6688 37.308C35.9057 36.4224 35.5266 36.0445 34.7448 36.3987Z" fill="#32324F"/>
<path d="M16.8333 38.2878C14.085 39.2797 12.2489 43.3299 13.3861 45.9277C13.6823 46.6244 14.4523 47.3919 15.1157 47.6753C16.0989 48.0886 17.8877 48.0059 19.0367 47.4982C19.5698 47.262 19.7475 46.9196 19.6172 46.3882L19.5461 46.093L18.9775 46.3528C18.1483 46.7188 16.2292 46.7188 15.6369 46.3528C15.009 45.9631 14.701 45.3373 14.6655 44.3572L14.63 43.5425L16.17 43.4598C18.5273 43.3417 19.7238 42.9166 20.5175 41.9365C20.9321 41.4288 21.0861 40.3661 20.861 39.6694C20.6833 39.138 20.1266 38.5594 19.5106 38.276C18.8472 37.9808 17.6744 37.9926 16.8333 38.2878ZM18.9064 39.4805C19.6053 39.9056 19.6764 40.8502 19.0486 41.476C18.5629 41.9602 17.6863 42.2081 16.1818 42.279L14.9024 42.3262L14.9853 41.9365C15.1749 41.0509 16.2292 39.7875 17.094 39.4096C17.6626 39.1616 18.4444 39.1971 18.9064 39.4805Z" fill="#32324F"/>
<path d="M26.9263 38.217C26.2274 38.4413 25.7061 38.7956 25.0664 39.4686L24.4978 40.0709L24.5807 39.1734L24.6637 38.276L23.9766 38.3114C23.2895 38.3469 23.2777 38.3587 23.2421 38.7011C23.2184 39.0908 23.1592 39.4214 22.6261 42.2435C22.4247 43.2827 22.1286 44.8531 21.9627 45.7269C21.7969 46.6007 21.6311 47.4155 21.5955 47.5336C21.5481 47.7225 21.6192 47.7461 22.3418 47.7107L23.1474 47.6753L23.4198 46.1993C23.9647 43.2709 24.1898 42.2317 24.3675 41.8303C24.6874 41.1218 25.4455 40.2125 26.026 39.7993C26.5235 39.4686 26.6894 39.4096 27.3291 39.4096C27.9806 39.4096 28.1109 39.445 28.3952 39.7402C28.7151 40.059 28.7269 40.0945 28.7151 41.3343C28.7151 42.2672 28.6084 43.0819 28.336 44.428C28.1227 45.4317 27.8977 46.5181 27.8384 46.8251C27.6489 47.7579 27.6371 47.7343 28.49 47.7343H29.2481L29.3192 47.2856C29.414 46.7188 29.5443 46.0812 29.9826 43.8376C30.184 42.834 30.3735 41.5233 30.4091 40.9447C30.4683 39.941 30.4564 39.8465 30.1247 39.2443C29.5561 38.1579 28.3597 37.7801 26.9263 38.217Z" fill="#32324F"/>
<path d="M42.587 38.2762C41.4023 38.6186 40.739 38.9965 39.9334 39.7522C38.4645 41.1574 37.7537 42.7397 37.7419 44.6762C37.73 45.7035 37.7656 45.857 38.0854 46.4946C38.6067 47.4983 39.2937 47.9116 40.4428 47.9116C41.7103 47.8998 42.5988 47.3803 43.582 46.0814C43.8071 45.7862 44.0203 45.5146 44.0677 45.4673C44.1033 45.4201 44.1151 45.9042 44.0914 46.5655L44.044 47.7463L44.7311 47.7109L45.43 47.6755L45.5011 46.2585C45.5959 44.5581 45.6551 44.1566 46.5673 39.5751C46.7805 38.5242 46.7094 38.3707 46.0223 38.2053C45.122 38.0046 43.4162 38.04 42.587 38.2762ZM44.968 39.3744C45.0036 39.4216 44.8733 40.319 44.6719 41.3817C44.2336 43.578 43.8071 44.6172 42.9423 45.5854C42.0657 46.5537 41.118 46.8843 40.2296 46.5065C39.2108 46.0814 39.0331 43.8614 39.886 42.0902C40.4428 40.933 41.6393 39.8349 42.7647 39.4334C43.2859 39.2445 44.7903 39.209 44.968 39.3744Z" fill="#32324F"/>
</g>
<defs>
<clipPath id="clip0_2507_11603">
<rect width="231" height="48" fill="white"/>
</clipPath>
</defs>
</svg>
