<svg width="336" height="67" viewBox="0 0 336 67" fill="none" xmlns="http://www.w3.org/2000/svg">
<g clip-path="url(#clip0_277_381)">
<path d="M26.4893 54.094C25.607 54.094 24.7446 53.8092 24.011 53.2758C23.2775 52.7424 22.7057 51.9842 22.3681 51.0971C22.0305 50.2101 21.9422 49.234 22.1143 48.2923C22.2864 47.3506 22.7112 46.4856 23.3351 45.8066C23.9589 45.1277 24.7538 44.6654 25.619 44.478C26.4843 44.2907 27.3812 44.3869 28.1963 44.7543C29.0114 45.1217 29.7081 45.744 30.1982 46.5423C30.6884 47.3406 30.95 48.2792 30.95 49.2394C30.9441 50.5249 30.4723 51.756 29.637 52.665C28.8017 53.5741 27.6705 54.0876 26.4893 54.094Z" fill="#00ABE1"/>
<path d="M26.4893 42.1154C25.607 42.1154 24.7446 41.8307 24.011 41.2973C23.2775 40.7639 22.7057 40.0057 22.3681 39.1186C22.0305 38.2316 21.9422 37.2555 22.1143 36.3138C22.2864 35.3721 22.7112 34.5071 23.3351 33.8281C23.9589 33.1492 24.7538 32.6868 25.619 32.4995C26.4843 32.3122 27.3812 32.4084 28.1963 32.7758C29.0114 33.1432 29.7081 33.7654 30.1982 34.5638C30.6884 35.3621 30.95 36.3007 30.95 37.2608C30.9441 38.5464 30.4723 39.7775 29.637 40.6865C28.8017 41.5956 27.6705 42.1091 26.4893 42.1154Z" fill="#00ABE1"/>
<path d="M19.9581 49.2232C19.9581 50.1834 19.6964 51.122 19.2063 51.9203C18.7161 52.7186 18.0195 53.3409 17.2044 53.7083C16.3893 54.0757 15.4924 54.1719 14.6271 53.9846C13.7618 53.7972 12.967 53.3349 12.3431 52.656C11.7193 51.977 11.2945 51.112 11.1223 50.1703C10.9502 49.2286 11.0386 48.2525 11.3762 47.3655C11.7138 46.4784 12.2855 45.7202 13.0191 45.1868C13.7527 44.6534 14.6151 44.3687 15.4973 44.3687C16.6783 44.3761 17.8089 44.8899 18.644 45.7987C19.4791 46.7075 19.9512 47.938 19.9581 49.2232Z" fill="#00ABE1"/>
<path d="M8.94756 49.2232C8.94756 50.1834 8.68595 51.122 8.1958 51.9203C7.70565 52.7186 7.00898 53.3409 6.19389 53.7083C5.3788 54.0757 4.4819 54.1719 3.6166 53.9846C2.75131 53.7972 1.95648 53.3349 1.33264 52.656C0.708797 51.977 0.283954 51.112 0.111837 50.1703C-0.0602813 49.2286 0.0280558 48.2525 0.365677 47.3655C0.703299 46.4784 1.27504 45.7202 2.0086 45.1868C2.74216 44.6534 3.6046 44.3687 4.48684 44.3687C5.66779 44.3761 6.79843 44.8899 7.6335 45.7987C8.46857 46.7075 8.94073 47.938 8.94756 49.2232Z" fill="#00ABE1"/>
<path d="M19.9581 37.2447C19.9581 38.2049 19.6964 39.1435 19.2063 39.9418C18.7161 40.7401 18.0195 41.3624 17.2044 41.7298C16.3893 42.0972 15.4924 42.1934 14.6271 42.0061C13.7618 41.8187 12.967 41.3564 12.3431 40.6774C11.7193 39.9985 11.2945 39.1335 11.1223 38.1918C10.9502 37.2501 11.0386 36.274 11.3762 35.387C11.7138 34.4999 12.2855 33.7417 13.0191 33.2083C13.7527 32.6749 14.6151 32.3901 15.4973 32.3901C16.678 32.3986 17.8081 32.9128 18.6429 33.8214C19.4778 34.73 19.9503 35.9598 19.9581 37.2447Z" fill="#00ABE1"/>
<path d="M26.4893 30.1364C25.607 30.1364 24.7446 29.8517 24.011 29.3183C23.2775 28.7849 22.7057 28.0267 22.3681 27.1396C22.0305 26.2526 21.9422 25.2765 22.1143 24.3348C22.2864 23.3931 22.7112 22.5281 23.3351 21.8491C23.9589 21.1702 24.7538 20.7078 25.619 20.5205C26.4843 20.3332 27.3812 20.4293 28.1963 20.7968C29.0114 21.1642 29.7081 21.7864 30.1982 22.5848C30.6884 23.3831 30.95 24.3217 30.95 25.2818C30.9441 26.5674 30.4723 27.7985 29.637 28.7075C28.8017 29.6165 27.6705 30.1301 26.4893 30.1364Z" fill="#E51D2B"/>
<path d="M35.8716 20.3989H43.5366V33.1746H54.4096V20.3989H62.0746V54.102H54.4096V40.056H43.5366V54.102H35.8716V20.3989Z" fill="#1D1F23"/>
<path d="M65.7102 45.7887V29.9668H72.7173V44.2029C72.7173 46.8446 73.799 48.305 76.0628 48.305C78.4864 48.305 79.9585 46.3227 79.9585 43.4504V29.9668H87.0213V54.1022H80.2633V51.1328H80.1518C78.5496 53.4873 76.5981 54.8102 73.5239 54.8102C68.4127 54.8102 65.7176 51.1692 65.7176 45.8049" fill="#1D1F23"/>
<path d="M90.8276 20.3989H113.871V27.4219H98.4926V34.2547H111.358V40.9986H98.4926V54.102H90.8276V20.3989Z" fill="#1D1F23"/>
<path d="M115.384 29.9667H122.157V33.7371H122.287C123.845 30.8648 125.666 29.5905 128.35 29.5905C128.819 29.5573 129.29 29.6219 129.736 29.7806V36.3788H129.562C125.231 35.7194 122.458 38.0294 122.458 43.2562V54.0981H115.395L115.384 29.9667Z" fill="#1D1F23"/>
<path d="M131.974 20.3989H139.037V26.6209H131.974V20.3989ZM131.974 29.9665H139.037V54.102H131.974V29.9665Z" fill="#1D1F23"/>
<path d="M141.412 41.9858C141.412 34.7767 146.048 29.2627 152.806 29.2627C155.965 29.2627 158.478 30.3914 160.385 32.2766C163.025 34.9183 164.326 39.1135 164.281 44.0085H148.345C148.776 47.2449 150.423 49.2677 153.322 49.2677C155.181 49.2677 156.4 48.3736 157.006 46.8647H163.891C163.338 49.1987 162.015 51.2295 160.173 52.5688C158.135 54.0823 155.711 54.8581 153.244 54.7857C145.925 54.7857 141.42 49.2677 141.42 41.9615L141.412 41.9858ZM157.144 39.4169C156.884 36.5405 155.237 34.7039 152.943 34.7039C150.256 34.7039 148.854 36.5405 148.393 39.4169H157.144Z" fill="#1D1F23"/>
<path d="M165.667 42.0342C165.667 34.4934 169.652 29.2626 175.37 29.2626C178.485 29.2626 180.261 30.6745 181.563 32.7013H181.693V20.3989H188.755V54.102H182.005V50.8656H181.919C181.264 52.114 180.31 53.1458 179.158 53.851C178.007 54.5563 176.701 54.9086 175.381 54.8706C169.704 54.8706 165.679 50.109 165.679 42.0504L165.667 42.0342ZM181.875 42.0504C181.875 38.0049 180.358 35.076 177.284 35.076C174.47 35.076 172.823 37.9078 172.823 41.9533C172.823 46.1485 174.47 48.7862 177.198 48.7862C180.143 48.7862 181.875 46.0069 181.875 42.0464" fill="#1D1F23"/>
<path d="M192.863 56.0805H195.29C197.368 56.0805 198.19 55.1864 198.19 53.5359C198.19 52.5002 197.758 51.0843 196.848 48.5397L190.309 29.9668H197.744L200.717 40.2424C201.409 42.6009 202.104 45.8049 202.104 45.8049H202.189C202.189 45.8049 202.795 42.6009 203.491 40.2424L206.39 29.9668H213.453L205.788 54.4299C204.011 60.0936 201.892 62.0678 197.431 62.0678H192.863V56.0805Z" fill="#1D1F23"/>
<path d="M218.434 50.1416C215.75 46.9376 214.278 42.5078 214.278 37.37C214.278 32.1109 215.921 27.4221 218.869 24.2181C221.423 21.3863 225.017 19.7397 229.478 19.7397C237.448 19.7397 242.213 24.3597 243.21 31.4272H235.775C235.21 28.6965 233.132 26.6211 229.753 26.6211C224.642 26.6211 222.088 31.2411 222.088 37.37C222.088 43.4989 225.032 48.1149 229.894 48.1149C233.924 48.1149 236.303 45.194 236.608 42.2246V42.1477H230.76V36.0026H243.667V54.1022H238.295L237.864 50.0567H237.764C235.73 53.4954 232.697 54.8627 228.972 54.8627C224.556 54.8627 220.962 53.1677 218.404 50.1497" fill="#1D1F23"/>
<path d="M247.172 29.9669H253.926V33.7373H254.057C255.618 30.865 257.436 29.5906 260.119 29.5906C260.589 29.5571 261.059 29.6217 261.506 29.7808V36.379H261.335C257.004 35.7196 254.231 38.0295 254.231 43.2563V54.0982H247.168L247.172 29.9669Z" fill="#1D1F23"/>
<path d="M262.331 42.0828C262.331 34.8009 267.093 29.3071 274.197 29.3071C281.301 29.3071 286.022 34.8211 286.022 42.0828C286.022 49.3445 281.345 54.8544 274.193 54.8544C267.041 54.8544 262.328 49.3404 262.328 42.0828H262.331ZM278.869 42.0828C278.869 37.6975 277.226 34.7281 274.152 34.7281C271.078 34.7281 269.472 37.6975 269.472 42.0828C269.472 46.4681 271.074 49.389 274.152 49.389C277.23 49.389 278.869 46.4641 278.869 42.0828Z" fill="#1D1F23"/>
<path d="M288.229 45.7887V29.9668H295.244V44.2029C295.244 46.8446 296.326 48.305 298.589 48.305C301.017 48.305 302.489 46.3227 302.489 43.4504V29.9668H309.552V54.1022H302.783V51.1328H302.652C301.05 53.4873 299.099 54.8102 296.025 54.8102C290.913 54.8102 288.218 51.1692 288.218 45.8049" fill="#1D1F23"/>
<path d="M312.912 29.9666H319.67V32.8915H319.8C320.564 31.738 321.575 30.8039 322.744 30.1697C323.914 29.5354 325.207 29.22 326.514 29.2506C332.405 29.2506 336 34.7646 336 42.0222C336 49.8462 332.145 54.8424 326.335 54.8424C323.477 54.8424 321.443 53.6287 320.057 51.606H319.971V62.0717H312.908L312.912 29.9666ZM328.837 42.3175C328.837 38.1709 327.409 35.4402 324.376 35.4402C321.343 35.4402 319.744 38.4096 319.744 42.3175C319.744 46.2255 321.473 48.9157 324.506 48.9157C327.19 48.9157 328.837 46.4196 328.837 42.3175Z" fill="#1D1F23"/>
<path d="M213.966 59.5719H211.687V57.7798H218.211V59.5719H215.906V66.3117H213.966V59.5719Z" fill="#39AAE1"/>
<path d="M218.828 57.7798H220.616V60.9555H220.664C220.847 60.6585 221.096 60.4171 221.388 60.2542C221.68 60.0914 222.005 60.0125 222.333 60.025C223.56 60.025 224.285 60.9798 224.285 62.3391V66.3117H222.497V62.7315C222.497 62.0882 222.2 61.6473 221.62 61.6473C221.04 61.6473 220.635 62.1853 220.635 62.9378V66.3117H218.847L218.828 57.7798Z" fill="#39AAE1"/>
<path d="M224.828 63.2449C224.807 62.8222 224.867 62.3995 225.003 62.0032C225.14 61.6068 225.35 61.2454 225.621 60.9416C225.892 60.6378 226.217 60.3981 226.577 60.2375C226.937 60.077 227.323 59.999 227.712 60.0085C228.417 59.987 229.103 60.259 229.63 60.7691C230.3 61.4406 230.63 62.5005 230.619 63.7425H226.582C226.694 64.5516 227.11 65.0816 227.846 65.0816C228.041 65.0977 228.235 65.0475 228.402 64.938C228.569 64.8286 228.701 64.6653 228.779 64.4707H230.519C230.379 65.0616 230.044 65.5758 229.578 65.915C229.062 66.2983 228.448 66.4951 227.824 66.4773C227.426 66.5016 227.029 66.4347 226.657 66.281C226.284 66.1273 225.946 65.8902 225.664 65.585C225.381 65.2799 225.161 64.9135 225.017 64.5097C224.873 64.1058 224.808 63.6735 224.828 63.2409V63.2449ZM228.809 62.5976C228.812 62.2864 228.702 61.9865 228.503 61.763C228.304 61.5395 228.032 61.4106 227.746 61.4042C227.065 61.4042 226.716 61.8694 226.593 62.5976H228.809Z" fill="#39AAE1"/>
<path d="M233.035 57.7794H236.82C237.473 57.7367 238.12 57.9442 238.648 58.366C238.868 58.5615 239.043 58.8089 239.161 59.0893C239.279 59.3698 239.336 59.6759 239.329 59.9842C239.341 60.3583 239.238 60.7261 239.036 61.0289C238.834 61.3318 238.544 61.5522 238.214 61.655V61.6914C238.627 61.8205 238.99 62.0956 239.244 62.4735C239.499 62.8514 239.63 63.3106 239.619 63.7789C239.637 64.1438 239.574 64.5081 239.435 64.8406C239.296 65.1732 239.085 65.4641 238.819 65.6884C238.256 66.1209 237.575 66.3346 236.886 66.2952H233.035V57.7794ZM236.533 61.1574C237.095 61.1574 237.474 60.858 237.474 60.2998C237.474 59.7415 237.102 59.4502 236.544 59.4502H234.953V61.1615L236.533 61.1574ZM236.686 64.6163C237.321 64.6163 237.719 64.2118 237.719 63.6171C237.719 62.9374 237.258 62.5895 236.667 62.5895H234.953V64.6123L236.686 64.6163Z" fill="#E31013"/>
<path d="M240.147 63.2448C240.126 62.8222 240.186 62.3994 240.322 62.0031C240.459 61.6067 240.669 61.2454 240.94 60.9415C241.211 60.6377 241.536 60.398 241.896 60.2375C242.256 60.0769 242.642 59.9989 243.031 60.0084C243.736 59.9877 244.422 60.2596 244.949 60.769C245.618 61.4405 245.945 62.5005 245.934 63.7424H241.901C242.009 64.5515 242.425 65.0815 243.161 65.0815C243.355 65.0985 243.55 65.0487 243.716 64.9391C243.883 64.8295 244.014 64.6656 244.091 64.4706H245.838C245.697 65.062 245.361 65.5762 244.893 65.9149C244.377 66.2983 243.764 66.495 243.139 66.4772C242.742 66.5009 242.345 66.4336 241.973 66.2797C241.601 66.1257 241.263 65.8885 240.981 65.5834C240.699 65.2783 240.479 64.9121 240.335 64.5086C240.192 64.105 240.127 63.6731 240.147 63.2408V63.2448ZM244.128 62.5976C244.131 62.2856 244.02 61.9851 243.82 61.7615C243.62 61.5379 243.347 61.4095 243.061 61.4041C242.384 61.4041 242.031 61.8694 241.912 62.5976H244.128Z" fill="#E31013"/>
<path d="M246.202 64.3334H247.89C247.899 64.4683 247.934 64.5997 247.992 64.7194C248.05 64.8391 248.13 64.9447 248.226 65.0296C248.323 65.1145 248.435 65.1769 248.555 65.213C248.675 65.2491 248.8 65.2582 248.923 65.2395C249.458 65.2395 249.8 65.0251 249.8 64.6287C249.8 64.0825 249.12 64.0219 248.373 63.8803C247.399 63.6982 246.354 63.415 246.354 61.9789C246.354 60.6924 247.451 60.0249 248.778 60.0249C250.369 60.0249 251.224 60.7774 251.313 61.9789H249.659C249.596 61.4327 249.254 61.2628 248.759 61.2628C248.325 61.2628 247.983 61.4449 247.983 61.8251C247.983 62.2054 248.618 62.3147 249.332 62.4603C250.317 62.6383 251.481 62.9134 251.481 64.483C251.481 65.8181 250.395 66.5058 248.927 66.5058C247.28 66.5058 246.25 65.6967 246.195 64.3334" fill="#E31013"/>
<path d="M252.347 64.7012V61.4203H251.603V60.2067H252.347V58.2729H254.09V60.2067H255.109V61.4203H254.09V64.2846C254.09 64.7619 254.332 64.8792 254.715 64.8792C254.867 64.8792 255.042 64.8792 255.109 64.8792V66.3033C254.788 66.3745 254.462 66.4057 254.135 66.3963C253.09 66.3963 252.347 66.0282 252.347 64.7134" fill="#E31013"/>
<path d="M259.517 57.7798H257.577V66.3117H259.517V57.7798Z" fill="#39AAE1"/>
<path d="M260.488 60.203H262.209V61.0404H262.242C262.423 60.72 262.678 60.4572 262.983 60.2789C263.287 60.1006 263.629 60.013 263.974 60.025C265.201 60.025 265.926 60.9798 265.926 62.339V66.3117H264.156V62.7315C264.156 62.0882 263.863 61.6473 263.279 61.6473C262.696 61.6473 262.294 62.1853 262.294 62.9378V66.3117H260.506L260.488 60.203Z" fill="#39AAE1"/>
<path d="M268.55 57.7794H272.082C272.864 57.732 273.632 58.0228 274.219 58.5885C274.479 58.8589 274.683 59.1855 274.819 59.5471C274.956 59.9087 275.021 60.2974 275.011 60.6881C275.011 62.3063 273.966 63.4795 272.357 63.4795H270.524V66.3114H268.55V57.7794ZM271.963 61.7885C272.107 61.8091 272.254 61.7946 272.393 61.7462C272.532 61.6977 272.659 61.6164 272.766 61.5082C272.872 61.3999 272.956 61.2674 273.009 61.12C273.063 60.9727 273.087 60.8141 273.078 60.6558C273.078 59.9761 272.669 59.5594 271.963 59.5594H270.524V61.7885H271.963Z" fill="#39AAE1"/>
<path d="M275.594 60.2029H277.304V61.1617H277.338C277.472 60.843 277.689 60.5738 277.962 60.387C278.234 60.2002 278.551 60.1039 278.873 60.1099C278.991 60.1007 279.11 60.1172 279.223 60.1584V61.8292H279.182C278.085 61.6633 277.383 62.2338 277.383 63.5728V66.3157H275.594V60.2029Z" fill="#39AAE1"/>
<path d="M279.367 64.6085C279.367 63.2573 280.356 62.8527 281.516 62.6869C282.572 62.5412 282.943 62.4239 282.943 62.0072C282.943 61.5906 282.713 61.3478 282.174 61.3478C281.635 61.3478 281.319 61.6229 281.267 62.1367H279.62C279.665 61.004 280.464 60.0371 282.167 60.0371C282.807 59.9809 283.446 60.1573 283.984 60.5387C284.225 60.7426 284.417 61.0079 284.541 61.3113C284.666 61.6147 284.719 61.9468 284.698 62.2783V65.3569C284.698 65.8464 284.743 66.1215 284.895 66.2307V66.3116H283.163C283.059 66.1014 282.995 65.87 282.977 65.632H282.955C282.767 65.917 282.514 66.1441 282.222 66.2909C281.929 66.4377 281.607 66.4992 281.286 66.4694C280.17 66.4694 279.367 65.81 279.367 64.6085ZM282.988 64.1311V63.4029C282.693 63.5464 282.383 63.6536 282.066 63.7225C281.375 63.8924 281.089 64.0826 281.089 64.5316C281.089 64.9807 281.419 65.2113 281.858 65.2113C281.999 65.2259 282.141 65.2084 282.275 65.1601C282.409 65.1117 282.533 65.0335 282.637 64.9304C282.742 64.8272 282.826 64.7015 282.884 64.5611C282.942 64.4207 282.972 64.2688 282.973 64.1149" fill="#39AAE1"/>
<path d="M285.315 63.2694C285.296 62.8419 285.358 62.4147 285.499 62.0149C285.639 61.6152 285.855 61.2516 286.131 60.9472C286.408 60.6429 286.739 60.4044 287.105 60.247C287.471 60.0897 287.863 60.0168 288.256 60.033C289.78 60.033 290.754 60.9999 290.917 62.3713H289.196C289.174 62.1231 289.067 61.8927 288.898 61.7252C288.728 61.5576 288.507 61.4649 288.278 61.4651C287.508 61.4651 287.126 62.1569 287.126 63.2653C287.126 64.3738 287.497 65.0454 288.278 65.0454C288.835 65.0454 289.174 64.6853 289.252 63.9935H290.962C290.917 65.4014 289.887 66.5017 288.296 66.5017C287.901 66.5201 287.507 66.4489 287.139 66.2927C286.77 66.1366 286.436 65.8988 286.156 65.5946C285.877 65.2903 285.658 64.9262 285.515 64.5252C285.371 64.1243 285.306 63.6952 285.323 63.2653" fill="#39AAE1"/>
<path d="M291.973 64.7012V61.4203H291.229V60.2067H291.973V58.2729H293.716V60.2067H294.738V61.4203H293.716V64.2846C293.716 64.7619 293.958 64.8792 294.341 64.8792C294.497 64.8792 294.671 64.8792 294.738 64.8792V66.3033C294.417 66.3741 294.089 66.4053 293.761 66.3963C292.72 66.3963 291.973 66.0282 291.973 64.7134" fill="#39AAE1"/>
<path d="M295.381 57.7798H297.169V59.3535H295.381V57.7798ZM295.381 60.2071H297.169V66.3158H295.381V60.2071Z" fill="#39AAE1"/>
<path d="M297.779 63.2691C297.759 62.8414 297.821 62.414 297.962 62.0139C298.102 61.6139 298.317 61.25 298.594 60.9455C298.87 60.641 299.202 60.4026 299.568 60.2455C299.934 60.0883 300.326 60.0158 300.719 60.0327C302.243 60.0327 303.217 60.9995 303.381 62.371H301.66C301.638 62.122 301.531 61.8911 301.36 61.7235C301.19 61.5559 300.968 61.4636 300.738 61.4648C299.972 61.4648 299.589 62.1565 299.589 63.265C299.589 64.3735 299.961 65.045 300.738 65.045C301.299 65.045 301.638 64.685 301.716 63.9932H303.426C303.381 65.401 302.351 66.5014 300.76 66.5014C300.365 66.5203 299.971 66.4496 299.602 66.2936C299.233 66.1377 298.898 65.9 298.619 65.5956C298.339 65.2912 298.121 64.9268 297.977 64.5256C297.834 64.1244 297.769 63.6951 297.786 63.265" fill="#39AAE1"/>
<path d="M303.749 63.2449C303.728 62.8224 303.787 62.3998 303.923 62.0034C304.059 61.6071 304.269 61.2457 304.54 60.9418C304.81 60.6379 305.136 60.3981 305.495 60.2375C305.855 60.0769 306.241 59.999 306.63 60.0085C307.336 59.9871 308.023 60.2591 308.552 60.769C309.221 61.4406 309.548 62.5005 309.537 63.7425H305.504C305.611 64.5516 306.028 65.0815 306.764 65.0815C306.958 65.098 307.152 65.0479 307.318 64.9383C307.485 64.8288 307.616 64.6653 307.693 64.4707H309.436C309.299 65.0624 308.963 65.5772 308.496 65.9149C307.98 66.2983 307.366 66.495 306.741 66.4772C306.346 66.498 305.951 66.4286 305.581 66.2733C305.212 66.118 304.876 65.8804 304.596 65.5756C304.316 65.2708 304.098 64.9056 303.955 64.5036C303.812 64.1015 303.748 63.6714 303.768 63.2408L303.749 63.2449ZM307.745 62.5976C307.748 62.2864 307.638 61.9864 307.439 61.763C307.24 61.5395 306.968 61.4106 306.682 61.4042C306.002 61.4042 305.652 61.8694 305.53 62.5976H307.745Z" fill="#39AAE1"/>
<path d="M2.08906 1.00098V4.92915H6.28957V1.00098H7.40475V10.431H6.28957V6.0093H2.08906V10.431H0.973877V1.00098H2.08906Z" fill="#1D1D1B"/>
<path d="M14.5457 8.57041C14.5457 9.27028 14.5457 9.88924 14.5977 10.4192H13.6126L13.5457 9.31478H13.5234C13.3142 9.71105 13.0109 10.0388 12.6453 10.2637C12.2797 10.4886 11.8653 10.6024 11.4455 10.5932C10.4678 10.5932 9.29688 10.0066 9.29688 7.62781V3.65918H10.4121V7.40935C10.4121 8.69582 10.7838 9.5656 11.7986 9.5656C12.12 9.55761 12.4322 9.44719 12.6965 9.248C12.9608 9.04881 13.1656 8.76962 13.2855 8.445C13.3529 8.24272 13.3869 8.02907 13.3859 7.8139V3.65918H14.5196L14.5457 8.57041Z" fill="#1D1D1B"/>
<path d="M19.0733 6.19141V7.10164H15.895V6.19141H19.0733Z" fill="#1D1D1B"/>
<path d="M20.5527 1.00098H25.2179V2.02044H21.6716V5.1557H24.9503V6.16303H21.6716V10.431H20.5565L20.5527 1.00098Z" fill="#1D1D1B"/>
<path d="M26.2513 5.77103C26.2513 4.96193 26.2513 4.29038 26.1992 3.65928H27.1917L27.2289 4.98621H27.2809C27.3866 4.57196 27.6107 4.20511 27.9208 3.93887C28.231 3.67264 28.611 3.52086 29.0058 3.50555C29.1135 3.50361 29.221 3.51721 29.3254 3.54601V4.70707C29.2033 4.67862 29.0786 4.66505 28.9537 4.66661C28.1582 4.66661 27.5932 5.32198 27.4371 6.2484C27.4048 6.43794 27.3874 6.63012 27.385 6.82286V10.4314H26.2698L26.2513 5.77103Z" fill="#1D1D1B"/>
<path d="M31.5075 1.75376C31.5109 1.85584 31.4945 1.95755 31.4592 2.05222C31.424 2.14689 31.3707 2.23237 31.303 2.30306C31.2352 2.37374 31.1545 2.42802 31.0661 2.46234C30.9777 2.49666 30.8836 2.51023 30.7901 2.50218C30.6989 2.50388 30.6083 2.48538 30.5239 2.44781C30.4394 2.41023 30.3629 2.35437 30.2989 2.28361C30.235 2.21286 30.1849 2.12868 30.1517 2.0362C30.1186 1.94373 30.103 1.84488 30.1061 1.74567C30.104 1.64378 30.121 1.54249 30.156 1.44796C30.191 1.35343 30.2433 1.26762 30.3097 1.19574C30.3761 1.12387 30.4552 1.06742 30.5423 1.02982C30.6293 0.992221 30.7225 0.97426 30.8161 0.977024C30.9097 0.973395 31.003 0.991196 31.0898 1.02928C31.1767 1.06736 31.2553 1.12486 31.3205 1.19808C31.3857 1.2713 31.436 1.35859 31.4682 1.45431C31.5004 1.55004 31.5138 1.65205 31.5075 1.75376ZM30.2473 10.4313V3.65919H31.3811V10.4313H30.2473Z" fill="#1D1D1B"/>
<path d="M33.8605 7.26782C33.8865 8.93457 34.8641 9.61825 35.9979 9.61825C36.5879 9.63822 37.1749 9.51955 37.719 9.27034L37.9123 10.1523C37.2558 10.4436 36.5504 10.5815 35.8418 10.5568C33.9274 10.5568 32.7825 9.18539 32.7825 7.14241C32.7825 5.09944 33.8976 3.50146 35.7005 3.50146C37.7339 3.50146 38.2729 5.44735 38.2729 6.68931C38.2705 6.88141 38.2581 7.07321 38.2357 7.26378L33.8605 7.26782ZM37.18 6.3859C37.18 5.60512 36.8826 4.38743 35.6113 4.38743C34.4664 4.38743 33.9646 5.5323 33.8753 6.3859H37.18Z" fill="#1D1D1B"/>
<path d="M44.9976 0.479492V8.68376C44.9976 9.28249 44.9976 9.97023 45.0496 10.4314H44.0348L43.9828 9.25822H43.9567C43.7545 9.67585 43.448 10.0228 43.0724 10.259C42.6969 10.4952 42.2676 10.6111 41.8342 10.5932C40.3473 10.5932 39.1726 9.20967 39.1726 7.15052C39.1726 4.89717 40.4476 3.50957 41.9643 3.50957C42.3305 3.48834 42.6954 3.57297 43.0218 3.75487C43.3482 3.93676 43.6246 4.20945 43.8229 4.54522H43.8489V0.479492H44.9976ZM43.8824 6.39805C43.8835 6.22384 43.866 6.05007 43.8303 5.88023C43.7495 5.47492 43.5434 5.11204 43.2465 4.85214C42.9495 4.59225 42.5796 4.45107 42.1985 4.45217C41.0275 4.45217 40.3398 5.57277 40.3398 7.06961C40.3398 8.44103 40.9569 9.57781 42.1799 9.57781C42.5695 9.57648 42.9468 9.42944 43.2487 9.16135C43.5505 8.89325 43.7585 8.52039 43.8378 8.10525C43.8748 7.93155 43.8923 7.75359 43.8898 7.57529L43.8824 6.39805Z" fill="#1D1D1B"/>
<path d="M47.2129 3.65918L48.5734 7.66017C48.7147 8.10922 48.8708 8.63918 48.9749 9.04778H48.9972C49.1161 8.64323 49.2425 8.12136 49.3986 7.63186L50.6328 3.65918H51.8297L50.1309 8.48546C49.3206 10.8076 48.7667 12.001 47.9972 12.7251C47.6063 13.1218 47.1271 13.4006 46.607 13.5342L46.3245 12.4905C46.6857 12.3583 47.021 12.1539 47.3133 11.8877C47.7235 11.5167 48.0493 11.0473 48.2649 10.5163C48.3119 10.4247 48.3434 10.3247 48.3578 10.221C48.3473 10.1107 48.321 10.0028 48.2797 9.90138L45.9788 3.65918H47.2129Z" fill="#1D1D1B"/>
<path d="M51.4954 12.1547C51.841 11.0655 52.101 9.94624 52.2723 8.80907L53.5324 8.66748C53.2397 9.84601 52.8309 10.9867 52.3132 12.0697L51.4954 12.1547Z" fill="#1D1D1B"/>
<path d="M65.0596 5.6173C65.0596 8.85369 63.2493 10.5852 61.0375 10.5852C58.7477 10.5852 57.1418 8.65546 57.1418 5.79934C57.1418 2.80568 58.8518 0.847656 61.1639 0.847656C63.5318 0.847656 65.0596 2.81781 65.0596 5.6173ZM58.3351 5.77103C58.3351 7.79377 59.3388 9.59402 61.1007 9.59402C62.8627 9.59402 63.8775 7.814 63.8775 5.67393C63.8775 3.79682 62.978 1.8388 61.1119 1.8388C59.2458 1.8388 58.3351 3.71591 58.3351 5.77103Z" fill="#1D1D1B"/>
<path d="M66.502 5.49154C66.502 4.79167 66.502 4.21721 66.45 3.65893H67.4425L67.4945 4.75121H67.5317C67.7182 4.36559 68.0002 4.04449 68.3458 3.82429C68.6914 3.60408 69.0867 3.49354 69.487 3.5052C69.8737 3.50351 70.2513 3.63316 70.5671 3.87609C70.883 4.11901 71.1213 4.46311 71.2489 4.86044H71.275C71.4479 4.51592 71.6861 4.21531 71.9738 3.97852C72.3677 3.65146 72.8541 3.48408 73.3492 3.5052C74.1744 3.5052 75.3937 4.0918 75.3937 6.44223V10.4311H74.2785V6.59596C74.2785 5.29735 73.8399 4.51253 72.9291 4.51253C72.6271 4.52617 72.3363 4.64119 72.0967 4.84183C71.8571 5.04246 71.6804 5.31887 71.5909 5.63313C71.5316 5.83169 71.5014 6.03923 71.5017 6.24804V10.4311H70.3865V6.38559C70.3865 5.30949 69.9516 4.52466 69.0892 4.52466C68.7688 4.5437 68.4617 4.67076 68.2106 4.88822C67.9595 5.10568 67.7768 5.40277 67.6878 5.73831C67.6254 5.93188 67.5952 6.13599 67.5986 6.34109V10.4311H66.4834L66.502 5.49154Z" fill="#1D1D1B"/>
<path d="M77.241 5.49168C77.241 4.79181 77.241 4.21735 77.189 3.65908H78.1926L78.2558 4.77968H78.293C78.4966 4.38281 78.7961 4.05422 79.1592 3.82957C79.5222 3.60491 79.9349 3.49278 80.3524 3.50535C81.211 3.50535 82.5493 4.06362 82.5493 6.38574V10.4312H81.4341V6.54756C81.4341 5.45527 81.0624 4.52481 79.9918 4.52481C79.5592 4.54476 79.1508 4.74725 78.8531 5.08935C78.5554 5.43146 78.3919 5.88629 78.3971 6.35742V10.4312H77.2819L77.241 5.49168Z" fill="#1D1D1B"/>
<path d="M85.6383 1.75346C85.6418 1.85554 85.6253 1.95725 85.5901 2.05192C85.5548 2.14659 85.5016 2.23208 85.4338 2.30276C85.3661 2.37344 85.2853 2.42773 85.1969 2.46204C85.1085 2.49636 85.0145 2.50994 84.9209 2.50188C84.8306 2.50299 84.7411 2.48433 84.6576 2.44701C84.5742 2.40969 84.4984 2.35447 84.435 2.28464C84.3715 2.21481 84.3216 2.1318 84.2882 2.04054C84.2548 1.94929 84.2386 1.85166 84.2406 1.75346C84.2386 1.65192 84.2555 1.55098 84.2903 1.45672C84.325 1.36247 84.377 1.27685 84.443 1.20503C84.509 1.13321 84.5877 1.07668 84.6743 1.03883C84.7609 1.00098 84.8536 0.982611 84.9469 0.984819C85.0399 0.981285 85.1325 0.998877 85.2188 1.03647C85.3052 1.07407 85.3833 1.13084 85.4484 1.20316C85.5135 1.27549 85.564 1.36178 85.5967 1.45653C85.6293 1.55128 85.6435 1.65241 85.6383 1.75346ZM84.3782 10.4311V3.65889H85.5119V10.4311H84.3782Z" fill="#1D1D1B"/>
<path d="M90.809 10.4312L90.7198 9.57759H90.6789C90.4593 9.89999 90.1718 10.1604 89.8407 10.3371C89.5096 10.5138 89.1444 10.6015 88.7757 10.593C88.5309 10.6126 88.285 10.5767 88.0536 10.4875C87.8222 10.3984 87.6103 10.2579 87.4314 10.0749C87.2525 9.89202 87.1104 9.67066 87.0142 9.42489C86.918 9.17911 86.8697 8.91427 86.8724 8.64713C86.8724 7.02893 88.2106 6.11465 90.6157 6.13083V5.98115C90.6157 5.42287 90.4745 4.41554 89.2032 4.41554C88.6309 4.42089 88.0712 4.59873 87.5861 4.92932L87.3259 4.12022C87.9426 3.71607 88.6507 3.5073 89.3704 3.51744C91.2737 3.51744 91.7383 4.92932 91.7383 6.28861V8.82109C91.7302 9.36274 91.765 9.90415 91.8424 10.4393L90.809 10.4312ZM90.6417 6.97634C89.4076 6.94802 88.0062 7.18671 88.0062 8.50149C87.9946 8.65772 88.0141 8.81483 88.0635 8.96207C88.1129 9.10931 88.1909 9.24322 88.2922 9.35462C88.3935 9.46602 88.5157 9.55229 88.6505 9.60754C88.7852 9.66278 88.9294 9.68568 89.073 9.67469C89.402 9.68421 89.7252 9.57959 89.9958 9.37594C90.2665 9.1723 90.4706 8.88021 90.5785 8.54195C90.6186 8.41145 90.64 8.27499 90.6417 8.1374V6.97634Z" fill="#1D1D1B"/>
<path d="M92.8276 12.1547C93.1721 11.0654 93.4307 9.94612 93.6008 8.80907L94.861 8.66748C94.5655 9.84562 94.1555 10.9861 93.638 12.0697L92.8276 12.1547Z" fill="#1D1D1B"/>
<path d="M102.396 10.4312L102.307 9.57763H102.266C102.046 9.90002 101.759 10.1605 101.428 10.3371C101.096 10.5138 100.731 10.6015 100.363 10.593C100.118 10.6121 99.8725 10.5757 99.6416 10.4863C99.4106 10.3968 99.1992 10.2562 99.0207 10.0734C98.8422 9.89053 98.7005 9.66938 98.6045 9.42389C98.5085 9.17841 98.4603 8.91393 98.463 8.64716C98.463 7.02896 99.7975 6.11468 102.203 6.13086V5.98118C102.203 5.4229 102.061 4.41557 100.79 4.41557C100.216 4.42017 99.6554 4.59804 99.1693 4.92935L98.9128 4.12025C99.5293 3.7157 100.237 3.5069 100.957 3.51747C102.861 3.51747 103.321 4.92935 103.321 6.28864V8.82112C103.313 9.36277 103.348 9.90418 103.426 10.4393L102.396 10.4312ZM102.229 6.97637C100.994 6.94805 99.593 7.18674 99.593 8.50152C99.5814 8.65775 99.601 8.81486 99.6503 8.9621C99.6997 9.10934 99.7777 9.24325 99.879 9.35465C99.9803 9.46605 100.103 9.55233 100.237 9.60757C100.372 9.66281 100.516 9.68571 100.66 9.67472C100.989 9.68425 101.312 9.57962 101.583 9.37597C101.853 9.17233 102.057 8.88024 102.165 8.54198C102.205 8.41148 102.227 8.27502 102.229 8.13743V6.97637Z" fill="#1D1D1B"/>
<path d="M105.124 5.49164C105.124 4.79177 105.124 4.21731 105.072 3.65903H106.076L106.139 4.77963H106.173C106.376 4.38309 106.674 4.05465 107.037 3.82999C107.399 3.60533 107.811 3.49303 108.228 3.5053C109.091 3.5053 110.429 4.06358 110.429 6.38569V10.4312H109.295V6.54752C109.295 5.45523 108.923 4.52477 107.856 4.52477C107.424 4.54472 107.016 4.7472 106.718 5.08931C106.42 5.43142 106.257 5.88624 106.262 6.35738V10.4312H105.147L105.124 5.49164Z" fill="#1D1D1B"/>
<path d="M117.637 0.479492V8.68376C117.637 9.28249 117.637 9.97023 117.689 10.4314H116.67L116.618 9.25822H116.581C116.379 9.67238 116.074 10.0168 115.702 10.2527C115.33 10.4886 114.904 10.6066 114.473 10.5932C112.968 10.5932 111.812 9.20967 111.812 7.15052C111.812 4.89717 113.083 3.50957 114.6 3.50957C114.967 3.48256 115.335 3.56235 115.665 3.74077C115.994 3.9192 116.275 4.18985 116.477 4.52499H116.503V0.479492H117.637ZM116.522 6.39805C116.524 6.22399 116.508 6.05022 116.473 5.88023C116.391 5.47494 116.184 5.11239 115.887 4.85267C115.589 4.59294 115.219 4.45164 114.838 4.45217C113.667 4.45217 112.979 5.57277 112.979 7.06961C112.979 8.44103 113.596 9.57781 114.815 9.57781C115.205 9.57591 115.583 9.42874 115.885 9.16082C116.187 8.89289 116.396 8.52037 116.477 8.10525C116.513 7.93138 116.529 7.75342 116.525 7.57529L116.522 6.39805Z" fill="#1D1D1B"/>
<path d="M128.335 10.124C127.611 10.4542 126.83 10.6141 126.045 10.5933C123.603 10.5933 121.785 8.89418 121.785 5.79938C121.785 2.84617 123.621 0.847692 126.309 0.847692C127.015 0.812349 127.719 0.950628 128.368 1.25224L128.097 2.24743C127.549 1.97411 126.953 1.83596 126.35 1.84288C124.317 1.84288 122.967 3.25476 122.967 5.73465C122.967 8.04058 124.187 9.52528 126.313 9.52528C126.941 9.53171 127.562 9.39386 128.138 9.12073L128.335 10.124Z" fill="#1D1D1B"/>
<path d="M129.673 5.77108C129.673 4.96198 129.673 4.29043 129.621 3.65933H130.614L130.651 4.98625H130.707C130.812 4.57265 131.036 4.20627 131.345 3.94009C131.654 3.67391 132.034 3.52175 132.428 3.5056C132.537 3.50339 132.645 3.517 132.751 3.54606V4.70712C132.629 4.67867 132.504 4.6651 132.379 4.66666C131.584 4.66666 131.019 5.32203 130.863 6.24845C130.83 6.43799 130.813 6.63017 130.811 6.82291V10.4315H129.695L129.673 5.77108Z" fill="#1D1D1B"/>
<path d="M139.345 6.98854C139.345 9.4927 137.751 10.585 136.245 10.585C134.561 10.585 133.271 9.24188 133.271 7.10182C133.271 4.83229 134.636 3.50537 136.361 3.50537C138.141 3.50537 139.345 4.92939 139.345 6.98854ZM134.424 7.05732C134.424 8.54201 135.208 9.66262 136.316 9.66262C137.424 9.66262 138.204 8.5582 138.204 7.03304C138.204 5.88412 137.68 4.42774 136.346 4.42774C135.011 4.42774 134.424 5.77085 134.424 7.05732Z" fill="#1D1D1B"/>
<path d="M140.554 9.1733C141.001 9.47696 141.514 9.6459 142.04 9.66281C142.866 9.66281 143.252 9.21376 143.252 8.65548C143.252 8.0972 142.929 7.74524 142.093 7.40947C140.977 6.9766 140.449 6.30505 140.449 5.4919C140.449 4.39962 141.256 3.50556 142.594 3.50556C143.128 3.49385 143.656 3.63325 144.126 3.91011L143.843 4.80417C143.461 4.54215 143.02 4.40199 142.568 4.39962C141.899 4.39962 141.527 4.80417 141.527 5.32199C141.527 5.83982 141.899 6.13109 142.71 6.47091C143.791 6.91996 144.345 7.50656 144.345 8.49366C144.345 9.68304 143.494 10.5164 142.018 10.5164C141.408 10.5285 140.805 10.3697 140.267 10.0552L140.554 9.1733Z" fill="#1D1D1B"/>
<path d="M145.646 9.1733C146.093 9.47696 146.606 9.6459 147.133 9.66281C147.958 9.66281 148.345 9.21376 148.345 8.65548C148.345 8.0972 148.021 7.74524 147.185 7.40947C146.07 6.9766 145.542 6.30505 145.542 5.4919C145.542 4.39962 146.349 3.50556 147.687 3.50556C148.221 3.49385 148.749 3.63325 149.218 3.91011L148.936 4.80417C148.554 4.54215 148.112 4.40199 147.661 4.39962C146.992 4.39962 146.62 4.80417 146.62 5.32199C146.62 5.83982 146.992 6.13109 147.802 6.47091C148.884 6.91996 149.438 7.50656 149.438 8.49366C149.438 9.68304 148.586 10.5164 147.111 10.5164C146.5 10.5285 145.898 10.3697 145.36 10.0552L145.646 9.1733Z" fill="#1D1D1B"/>
<path d="M152.103 1.71338V3.65926H153.724V4.59782H152.103V8.23876C152.103 9.08023 152.323 9.5576 152.951 9.5576C153.172 9.56017 153.394 9.53162 153.609 9.47264L153.657 10.395C153.336 10.5183 152.997 10.5759 152.657 10.5649C152.431 10.5796 152.205 10.5409 151.994 10.4515C151.782 10.3621 151.592 10.2242 151.434 10.0471C151.114 9.68301 150.995 9.08023 150.995 8.28327V4.59782H150.036V3.65926H150.999V2.04106L152.103 1.71338Z" fill="#1D1D1B"/>
<path d="M155.382 7.26782C155.408 8.93457 156.385 9.61825 157.515 9.61825C158.107 9.63817 158.695 9.51951 159.24 9.27034L159.434 10.1523C158.777 10.4433 158.072 10.5811 157.363 10.5568C155.445 10.5568 154.304 9.18539 154.304 7.14241C154.304 5.09944 155.419 3.50146 157.222 3.50146C159.251 3.50146 159.794 5.44735 159.794 6.68931C159.793 6.8816 159.779 7.07356 159.753 7.26378L155.382 7.26782ZM158.701 6.3859C158.701 5.60512 158.404 4.38743 157.133 4.38743C155.988 4.38743 155.486 5.5323 155.397 6.3859H158.701Z" fill="#1D1D1B"/>
<path d="M161.259 3.65918L162.147 5.11556C162.378 5.49179 162.571 5.8397 162.775 6.21998H162.816C163.021 5.81543 163.229 5.46347 163.433 5.09937L164.307 3.65918H165.53L163.419 6.95221L165.604 10.4516H164.318L163.404 8.92641C163.162 8.52186 162.954 8.15777 162.738 7.74918H162.712C162.504 8.15372 162.288 8.52186 162.054 8.92641L161.155 10.4516H159.909L162.14 6.99671L160.028 3.67941L161.259 3.65918Z" fill="#1D1D1B"/>
<path d="M172.86 10.4312L172.771 9.57759H172.73C172.511 9.89999 172.223 10.1604 171.892 10.3371C171.561 10.5138 171.196 10.6015 170.827 10.593C170.582 10.6126 170.336 10.5767 170.105 10.4875C169.873 10.3984 169.662 10.2579 169.483 10.0749C169.304 9.89202 169.162 9.67066 169.065 9.42489C168.969 9.17911 168.921 8.91427 168.924 8.64713C168.924 7.02893 170.262 6.11465 172.667 6.13083V5.98115C172.667 5.42287 172.526 4.41554 171.251 4.41554C170.678 4.42068 170.119 4.59853 169.634 4.92932L169.373 4.12022C169.99 3.71607 170.698 3.5073 171.418 3.51744C173.321 3.51744 173.786 4.92932 173.786 6.28861V8.82109C173.778 9.36274 173.813 9.90415 173.89 10.4393L172.86 10.4312ZM172.712 6.97634C171.477 6.94802 170.076 7.18671 170.076 8.50149C170.064 8.65772 170.084 8.81483 170.133 8.96207C170.183 9.10931 170.261 9.24322 170.362 9.35462C170.463 9.46602 170.586 9.55229 170.72 9.60754C170.855 9.66278 170.999 9.68568 171.143 9.67469C171.469 9.6799 171.788 9.57326 172.055 9.36992C172.322 9.16657 172.523 8.87687 172.63 8.54195C172.67 8.41145 172.691 8.27499 172.693 8.1374L172.712 6.97634Z" fill="#1D1D1B"/>
<path d="M175.585 5.77103C175.585 4.96193 175.585 4.29038 175.537 3.65928H176.525L176.563 4.98621H176.615C176.72 4.57196 176.944 4.20511 177.255 3.93887C177.565 3.67264 177.945 3.52086 178.339 3.50555C178.447 3.50361 178.555 3.51721 178.659 3.54601V4.70707C178.537 4.67862 178.412 4.66505 178.287 4.66661C177.492 4.66661 176.927 5.32198 176.771 6.2484C176.739 6.43794 176.721 6.63012 176.719 6.82286V10.4314H175.604L175.585 5.77103Z" fill="#1D1D1B"/>
<path d="M180.269 7.26782C180.295 8.93457 181.269 9.61825 182.402 9.61825C182.992 9.63822 183.579 9.51955 184.124 9.27034L184.317 10.1523C183.66 10.4436 182.955 10.5815 182.246 10.5568C180.332 10.5568 179.187 9.18539 179.187 7.14241C179.187 5.09944 180.302 3.50146 182.105 3.50146C184.138 3.50146 184.677 5.44735 184.677 6.68931C184.675 6.88141 184.663 7.07321 184.64 7.26378L180.269 7.26782ZM183.585 6.3859C183.585 5.60512 183.291 4.38743 182.016 4.38743C180.871 4.38743 180.369 5.5323 180.28 6.3859H183.585Z" fill="#1D1D1B"/>
<path d="M188.807 5.49168C188.807 4.79181 188.807 4.21735 188.755 3.65908H189.759L189.822 4.77968H189.848C190.052 4.38281 190.351 4.05422 190.714 3.82957C191.078 3.60491 191.49 3.49278 191.908 3.50535C192.766 3.50535 194.105 4.06362 194.105 6.38574V10.4312H192.989V6.54756C192.989 5.45527 192.618 4.52481 191.547 4.52481C191.114 4.54476 190.706 4.74725 190.408 5.08935C190.111 5.43146 189.947 5.88629 189.952 6.35742V10.4312H188.837L188.807 5.49168Z" fill="#1D1D1B"/>
<path d="M201.524 6.98854C201.524 9.4927 199.929 10.585 198.428 10.585C196.744 10.585 195.454 9.24188 195.454 7.10182C195.454 4.83229 196.818 3.50537 198.539 3.50537C200.316 3.50537 201.524 4.92939 201.524 6.98854ZM196.588 7.05732C196.588 8.54201 197.372 9.66262 198.48 9.66262C199.587 9.66262 200.368 8.5582 200.368 7.03304C200.368 5.88412 199.84 4.42774 198.509 4.42774C197.179 4.42774 196.588 5.77085 196.588 7.05732Z" fill="#1D1D1B"/>
<path d="M203.097 3.65918L203.937 7.1019C204.115 7.8584 204.286 8.55827 204.401 9.25814H204.438C204.58 8.57041 204.784 7.84222 204.992 7.11403L206.007 3.65918H206.959L207.922 7.04526C208.156 7.85436 208.334 8.57041 208.475 9.25814H208.516C208.635 8.51506 208.794 7.78022 208.992 7.05739L209.877 3.65918H210.992L208.974 10.4313H207.944L206.992 7.19494C206.774 6.46379 206.589 5.72119 206.438 4.96992H206.412C206.266 5.72739 206.077 6.47448 205.847 7.20708L204.844 10.4435H203.814L201.955 3.67132L203.097 3.65918Z" fill="#1D1D1B"/>
<path d="M214.836 5.86779C214.836 5.00206 214.813 4.30219 214.787 3.65895H215.802L215.854 4.82001H215.88C216.106 4.39959 216.433 4.05464 216.826 3.82278C217.22 3.59093 217.664 3.48108 218.111 3.50522C219.598 3.50522 220.746 4.88878 220.746 6.94794C220.746 9.37524 219.382 10.5889 217.917 10.5889C217.54 10.6068 217.166 10.5182 216.83 10.3317C216.493 10.1453 216.207 9.86734 215.999 9.52492H215.973V13.2063H214.858L214.836 5.86779ZM215.951 7.67613C215.954 7.84474 215.971 8.01268 216.003 8.17777C216.097 8.58782 216.314 8.95203 216.62 9.21284C216.925 9.47365 217.302 9.6162 217.691 9.61797C218.888 9.61797 219.579 8.55805 219.579 7.00458C219.579 5.64529 218.925 4.48424 217.72 4.48424C217.32 4.49716 216.936 4.65382 216.627 4.92974C216.317 5.20566 216.1 5.5853 216.01 6.00939C215.965 6.17377 215.939 6.34364 215.932 6.51507L215.951 7.67613Z" fill="#1D1D1B"/>
<path d="M222.151 5.77108C222.151 4.96198 222.151 4.29043 222.099 3.65933H223.092L223.129 4.98625H223.181C223.286 4.57265 223.51 4.20627 223.819 3.94009C224.129 3.67391 224.508 3.52175 224.902 3.5056C225.011 3.50339 225.12 3.517 225.225 3.54606V4.70712C225.103 4.67886 224.979 4.6653 224.854 4.66666C224.058 4.66666 223.489 5.32203 223.337 6.24845C223.305 6.43799 223.287 6.63017 223.285 6.82291V10.4315H222.17L222.151 5.77108Z" fill="#1D1D1B"/>
<path d="M231.816 6.98854C231.816 9.4927 230.221 10.585 228.72 10.585C227.036 10.585 225.746 9.24188 225.746 7.10182C225.746 4.83229 227.11 3.50537 228.831 3.50537C230.615 3.50537 231.816 4.92939 231.816 6.98854ZM226.88 7.05732C226.88 8.54201 227.664 9.66262 228.772 9.66262C229.879 9.66262 230.66 8.5582 230.66 7.03304C230.66 5.88412 230.132 4.42774 228.801 4.42774C227.471 4.42774 226.887 5.77085 226.887 7.05732H226.88Z" fill="#1D1D1B"/>
<path d="M238.411 8.57041C238.411 9.27028 238.411 9.88924 238.463 10.4192H237.459L237.392 9.32692H237.366C237.157 9.71729 236.857 10.0403 236.496 10.2628C236.134 10.4852 235.725 10.5993 235.31 10.5932C234.333 10.5932 233.166 10.0066 233.166 7.62781V3.65918H234.281V7.40935C234.281 8.69582 234.652 9.5656 235.667 9.5656C235.989 9.55813 236.301 9.44791 236.566 9.24866C236.83 9.0494 237.035 8.76992 237.154 8.445C237.222 8.24272 237.256 8.02906 237.255 7.8139V3.65918H238.37L238.411 8.57041Z" fill="#1D1D1B"/>
<path d="M245.663 0.479492V8.68376C245.663 9.28249 245.663 9.97023 245.715 10.4314H244.7L244.648 9.25822H244.622C244.42 9.67553 244.113 10.0222 243.738 10.2583C243.362 10.4945 242.933 10.6106 242.5 10.5932C241.013 10.5932 239.838 9.20967 239.838 7.15052C239.838 4.89717 241.113 3.50957 242.63 3.50957C242.996 3.48834 243.361 3.57297 243.687 3.75487C244.014 3.93676 244.29 4.20945 244.488 4.54522H244.514V0.479492H245.663ZM244.548 6.39805C244.549 6.22384 244.531 6.05007 244.496 5.88023C244.415 5.47492 244.209 5.11204 243.912 4.85214C243.615 4.59225 243.245 4.45107 242.864 4.45217C241.693 4.45217 241.005 5.57277 241.005 7.06961C241.005 8.44103 241.622 9.57781 242.864 9.57781C243.254 9.57648 243.631 9.42944 243.933 9.16135C244.235 8.89325 244.443 8.52039 244.522 8.10525C244.559 7.93155 244.576 7.75359 244.574 7.57529L244.548 6.39805Z" fill="#1D1D1B"/>
<path d="M250.269 5.49165C250.269 4.79178 250.269 4.21732 250.217 3.65904H251.205L251.257 4.75132H251.298C251.484 4.36602 251.766 4.04508 252.11 3.82486C252.455 3.60464 252.85 3.49394 253.25 3.50531C253.637 3.49995 254.017 3.62817 254.333 3.8716C254.65 4.11503 254.887 4.4612 255.012 4.86055H255.038C255.211 4.51745 255.448 4.21715 255.733 3.97863C256.127 3.65095 256.613 3.4835 257.108 3.50531C257.934 3.50531 259.153 4.09191 259.153 6.44234V10.4312H258.038V6.59607C258.038 5.29746 257.599 4.51264 256.685 4.51264C256.383 4.52709 256.093 4.64249 255.854 4.84307C255.616 5.04365 255.439 5.31961 255.35 5.63324C255.291 5.8318 255.261 6.03934 255.261 6.24815V10.4312H254.146V6.3857C254.146 5.3096 253.707 4.52477 252.848 4.52477C252.528 4.54322 252.22 4.67006 251.969 4.88761C251.718 5.10516 251.535 5.40258 251.447 5.73842C251.382 5.93125 251.35 6.13572 251.354 6.3412V10.4312H250.239L250.269 5.49165Z" fill="#1D1D1B"/>
<path d="M261.61 7.26782C261.636 8.93457 262.614 9.61825 263.747 9.61825C264.337 9.63822 264.924 9.51955 265.469 9.27034L265.662 10.1523C265.005 10.4433 264.3 10.5811 263.591 10.5568C261.677 10.5568 260.532 9.18539 260.532 7.14241C260.532 5.09944 261.647 3.50146 263.45 3.50146C265.483 3.50146 266.022 5.44735 266.022 6.68931C266.02 6.88141 266.008 7.07321 265.985 7.26378L261.61 7.26782ZM264.93 6.3859C264.93 5.60512 264.632 4.38743 263.361 4.38743C262.216 4.38743 261.714 5.5323 261.625 6.3859H264.93Z" fill="#1D1D1B"/>
<path d="M267.372 5.49153C267.372 4.79166 267.372 4.2172 267.323 3.65892H268.312L268.364 4.7512H268.401C268.588 4.36558 268.87 4.04448 269.216 3.82427C269.561 3.60406 269.956 3.49353 270.357 3.50519C270.744 3.5035 271.121 3.63315 271.437 3.87608C271.753 4.119 271.991 4.4631 272.119 4.86043H272.145C272.317 4.51771 272.552 4.21745 272.836 3.97851C273.232 3.65146 273.719 3.48414 274.215 3.50519C275.037 3.50519 276.26 4.09179 276.26 6.44222V10.4311H275.145V6.59595C275.145 5.29734 274.71 4.51252 273.795 4.51252C273.493 4.52616 273.202 4.64118 272.963 4.84182C272.723 5.04245 272.547 5.31886 272.457 5.63312C272.398 5.83168 272.368 6.03922 272.368 6.24803V10.4311H271.253V6.38558C271.253 5.30948 270.814 4.52465 269.952 4.52465C269.631 4.54369 269.324 4.67075 269.073 4.88821C268.822 5.10567 268.639 5.40276 268.55 5.7383C268.488 5.93187 268.458 6.13598 268.461 6.34108V10.4311H267.346L267.372 5.49153Z" fill="#1D1D1B"/>
<path d="M278.059 10.4314C278.085 9.97023 278.111 9.28249 278.111 8.68376V0.479492H279.226V4.75154H279.252C279.467 4.35171 279.778 4.02391 280.153 3.80411C280.527 3.58431 280.95 3.48101 281.375 3.50552C282.917 3.50552 284.01 4.90526 283.999 6.96038C283.999 9.38767 282.598 10.6013 281.207 10.6013C280.785 10.6255 280.365 10.5186 279.997 10.293C279.628 10.0673 279.326 9.73232 279.126 9.32699H279.085L279.025 10.4314H278.059ZM279.23 7.71688C279.234 7.86806 279.251 8.01847 279.282 8.16593C279.376 8.578 279.595 8.9437 279.903 9.20473C280.211 9.46575 280.59 9.60707 280.981 9.60613C282.163 9.60613 282.869 8.55835 282.869 7.00488C282.869 5.64559 282.226 4.48453 281.01 4.48453C280.61 4.49276 280.223 4.64596 279.911 4.91994C279.6 5.19392 279.381 5.57308 279.289 5.99755C279.25 6.16167 279.228 6.32985 279.222 6.49919L279.23 7.71688Z" fill="#1D1D1B"/>
<path d="M286.033 7.26775C286.059 8.9345 287.036 9.61819 288.17 9.61819C288.76 9.63815 289.347 9.51948 289.891 9.27027L290.084 10.1522C289.428 10.4436 288.722 10.5814 288.014 10.5567C286.088 10.5932 284.973 9.2015 284.973 7.15852C284.973 5.11555 286.088 3.51758 287.891 3.51758C289.925 3.51758 290.464 5.46346 290.464 6.70543C290.461 6.89753 290.449 7.08932 290.426 7.27989L286.033 7.26775ZM289.352 6.38584C289.352 5.60505 289.055 4.38736 287.783 4.38736C286.638 4.38736 286.137 5.53224 286.047 6.38584H289.352Z" fill="#1D1D1B"/>
<path d="M291.794 5.77103C291.794 4.96193 291.794 4.29038 291.746 3.65928H292.735L292.772 4.98621H292.824C292.929 4.57196 293.154 4.20511 293.464 3.93887C293.774 3.67264 294.154 3.52086 294.549 3.50555C294.656 3.50361 294.764 3.51721 294.868 3.54601V4.70707C294.746 4.67862 294.622 4.66505 294.497 4.66661C293.701 4.66661 293.136 5.32198 292.98 6.2484C292.948 6.43794 292.93 6.63012 292.928 6.82286V10.4314H291.813L291.794 5.77103Z" fill="#1D1D1B"/>
<path d="M295.753 9.17324C296.2 9.4769 296.713 9.64583 297.24 9.66275C298.065 9.66275 298.448 9.2137 298.448 8.65542C298.448 8.09714 298.128 7.74518 297.292 7.40941C296.177 6.97654 295.645 6.30499 295.645 5.49184C295.645 4.39956 296.456 3.5055 297.794 3.5055C298.328 3.49435 298.855 3.63371 299.325 3.91005L299.043 4.80411C298.661 4.54209 298.219 4.40193 297.768 4.39956C297.099 4.39956 296.727 4.80411 296.727 5.32193C296.727 5.83976 297.099 6.13103 297.909 6.47085C298.991 6.9199 299.541 7.5065 299.541 8.4936C299.541 9.68298 298.693 10.5163 297.214 10.5163C296.605 10.5279 296.003 10.3691 295.467 10.0552L295.753 9.17324Z" fill="#1D1D1B"/>
<path d="M309.362 6.98854C309.362 9.4927 307.767 10.585 306.262 10.585C304.578 10.585 303.288 9.24188 303.288 7.10182C303.288 4.83229 304.652 3.50537 306.373 3.50537C308.154 3.50537 309.362 4.92939 309.362 6.98854ZM304.426 7.05732C304.426 8.54201 305.21 9.66262 306.314 9.66262C307.418 9.66262 308.206 8.5582 308.206 7.03304C308.206 5.88412 307.678 4.42774 306.347 4.42774C305.017 4.42774 304.426 5.77085 304.426 7.05732Z" fill="#1D1D1B"/>
<path d="M310.622 10.4312V4.5976H309.749V3.65905H310.622V3.33541C310.622 2.38472 310.815 1.51898 311.34 0.972837C311.752 0.556272 312.297 0.330053 312.86 0.34174C313.189 0.340641 313.516 0.406499 313.823 0.535923L313.67 1.49066C313.443 1.38239 313.197 1.32991 312.949 1.33693C311.983 1.33693 311.741 2.2593 311.741 3.29495V3.65905H313.246V4.5976H311.741V10.4312H310.622Z" fill="#1D1D1B"/>
</g>
<defs>
<clipPath id="clip0_277_381">
<rect width="336" height="66.1641" fill="white" transform="translate(0 0.341797)"/>
</clipPath>
</defs>
</svg>
