<svg width="168" height="75" viewBox="0 0 168 75" fill="none" xmlns="http://www.w3.org/2000/svg">
<g clip-path="url(#clip0_277_379)">
<path d="M109.252 58.9648C101.641 62.9718 93.2801 65.0547 84.8072 65.0547C76.3343 65.0547 67.9733 62.9718 60.3622 58.9648C52.5909 54.8167 45.6604 49.0525 39.971 42.0052L37.9009 47.7664C43.0847 56.0303 50.0761 62.7966 58.2599 67.4703C66.4438 72.1439 75.5695 74.5817 84.8342 74.5691C94.0989 74.5565 103.219 72.0939 111.392 67.398C119.564 62.7021 126.54 55.9168 131.704 47.6388L129.689 42.0445C123.987 49.0909 117.044 54.8517 109.261 58.9942L109.252 58.9648ZM134.55 26.6846C134.094 26.0369 134.212 24.7218 134.869 22.9649L138.79 12.5909H143.861L145.156 8.95953H140.094L141.617 4.55279L133.911 5.97592L132.853 8.92029H129.461L128.23 12.5517H131.595L127.546 23.3477C126.506 26.086 126.451 28.0882 127.382 29.472C128.312 30.8559 130.118 31.4349 132.853 31.4349C134.661 31.3879 136.458 31.1145 138.207 30.6203L139.839 26.3706C138.674 26.8675 137.442 27.1623 136.191 27.2441C135.883 27.3038 135.567 27.2773 135.271 27.1673C134.976 27.0574 134.712 26.8675 134.504 26.616L134.55 26.6846ZM46.61 18.1263C44.7861 27.8722 39.3144 28.3728 38.1927 28.3728C36.4508 28.3728 35.1832 27.9017 34.4445 26.9693C33.7059 26.0369 33.4323 24.3979 33.8244 22.3172C34.5449 18.5484 37.5817 12.9246 43.0443 12.9246C43.5842 12.8778 44.1271 12.9609 44.6334 13.168C45.1398 13.3752 45.5969 13.701 45.9716 14.122C46.3518 14.6963 46.6059 15.3559 46.7149 16.0513C46.8239 16.7466 46.7849 17.4594 46.6009 18.1362L46.61 18.1263ZM54.0242 19.1078C55.383 12.7087 50.1393 9.11656 43.1902 9.11656C35.8945 9.11656 27.8055 13.8374 26.3282 21.7872C24.7505 30.2866 31.7999 32.1121 36.2867 32.1612C46.4367 32.2888 52.6015 25.7621 54.0242 19.098V19.1078ZM160.996 17.7632H151.485C151.923 16.26 152.806 14.9527 154 14.0416C155.195 13.1304 156.633 12.6657 158.096 12.7185C158.598 12.6585 159.106 12.7237 159.58 12.9093C160.055 13.0948 160.483 13.3956 160.832 13.7883C161.434 14.6324 161.461 16.0064 160.914 17.7141L160.996 17.7632ZM159.172 8.77305C151.302 8.77305 144.581 13.4939 142.867 20.2463C141.955 23.6618 142.447 26.6552 144.18 28.9028C146.086 31.3858 149.442 32.7501 153.609 32.7501C156.301 32.7126 158.975 32.2699 161.553 31.4349L163.723 26.6356C161.221 27.7195 158.55 28.2759 155.853 28.2746C154.975 28.3344 154.097 28.1791 153.283 27.8204C152.47 27.4617 151.743 26.9089 151.156 26.2037C150.708 25.5555 150.412 24.7998 150.294 24.0015C150.177 23.2032 150.241 22.3861 150.481 21.6204H167.106L167.188 21.3848C168.493 17.459 168.328 14.1122 166.723 11.8647C165.264 9.81341 162.702 8.76325 159.172 8.76325V8.77305ZM8.61803 18.2147C9.81269 11.0501 16.2328 5.61275 23.8477 5.61275C26.0173 5.59667 28.1685 6.0437 30.1766 6.92793L32.4018 2.26601C30.1805 1.26843 27.7957 0.761108 25.3889 0.774172C13.2234 0.774172 1.85133 8.24308 0.237175 18.1852C-1.18547 26.9693 5.86392 31.8569 14.5092 31.8569C16.8824 31.8096 19.2435 31.4805 21.5495 30.8755L23.8659 25.2714C21.6336 26.302 19.2438 26.881 16.8165 26.9791C9.98595 26.9791 7.89758 22.5135 8.6089 18.146L8.61803 18.2147ZM76.7045 19.9322C78.6104 15.5059 82.4589 13.4841 84.912 13.3859C85.7255 13.2727 86.5521 13.3453 87.3377 13.5989C88.1234 13.8526 88.8506 14.2816 89.4718 14.8581C86.5991 26.8515 80.79 27.833 79.0664 27.833C74.8349 27.833 75.218 23.4066 76.7045 19.9813V19.9322ZM69.8192 29.6683C71.1507 31.2288 73.157 31.8373 75.5372 31.9551C79.0085 32.2114 82.4629 31.2432 85.3771 29.1972C83.5532 34.978 77.3975 36.1754 73.2573 36.1459C71.218 36.2796 69.1757 35.9451 67.2657 35.1645L65.4418 40.0717C67.6345 40.6376 69.8808 40.9274 72.1356 40.9354C82.2947 40.9354 88.8334 37.0096 91.5602 29.3248L98.5002 9.69562C97.3651 10.0294 96.2005 10.2333 95.0256 10.3041C91.3048 10.3041 91.1407 9.20489 85.0853 9.20489C76.3944 9.20489 69.2447 16.0751 68.2233 23.701C68.0491 24.7723 68.1012 25.8721 68.376 26.9187C68.6507 27.9653 69.1408 28.9319 69.8101 29.7468L69.8192 29.6683ZM104.473 24.5255C104.802 22.5625 106.224 21.4731 110.055 21.0413C112.176 20.812 114.311 20.7759 116.438 20.9333L114.642 25.8701C112.773 26.7845 110.756 27.2947 108.705 27.3717C105.139 27.5385 104.145 26.0565 104.446 24.4273L104.473 24.5255ZM105.075 32.1023C110.675 32.1023 112.152 31.1209 115.572 31.062C117.475 30.9162 119.387 31.122 121.226 31.6705C120.98 30.4829 120.724 29.2168 121.91 25.8799C122.758 23.4949 123.734 20.6585 124.728 17.9595C126.962 11.6978 122.174 8.92029 114.377 8.92029C111.012 8.90709 107.653 9.2357 104.346 9.90175L102.522 15.025C106.091 13.8962 109.801 13.3665 113.52 13.4546C118.663 13.4546 118.198 15.7807 117.888 16.8995C114.995 16.6702 112.09 16.6702 109.197 16.8995C106.82 17.0156 104.473 17.5254 102.239 18.411C98.7737 19.893 97.2234 22.5037 97.0137 25.5069C96.7766 28.9224 98.9926 32.1514 105.057 32.1514L105.075 32.1023ZM60.7361 31.6606L71.6796 1.39249H64.4478L53.5044 31.6606H60.7361Z" fill="#F5010B"/>
</g>
<defs>
<clipPath id="clip0_277_379">
<rect width="168" height="73.7565" fill="white" transform="translate(0 0.764648)"/>
</clipPath>
</defs>
</svg>
