<svg width="148" height="68" viewBox="0 0 148 68" fill="none" xmlns="http://www.w3.org/2000/svg">
<path d="M106.208 53.4629C104.864 52.1482 103.651 50.7075 102.584 49.1608C98.7805 43.6365 97.022 36.9681 97.6098 30.2958C98.1976 23.6234 101.095 17.3616 105.807 12.581C110.519 7.80046 116.752 4.79806 123.441 4.08722C130.13 3.37638 136.859 5.00126 142.478 8.68401C137.054 3.33805 129.73 0.340095 122.098 0.341943C121.105 0.338677 120.112 0.390155 119.124 0.49614C113.154 1.10606 107.52 3.54309 102.997 7.47194C98.4748 11.4008 95.2862 16.6284 93.8701 22.4356C92.454 28.2428 92.88 34.3443 95.0895 39.9005C97.299 45.4568 101.183 50.1949 106.208 53.4629Z" fill="#233E82"/>
<path d="M0 67.1556H2.58629L2.74116 64.7501H5.83852L5.93144 63.131H2.83408L2.91151 62.0362H6.10179L6.2102 60.4326H0.43363L0 67.1556Z" fill="#233E82"/>
<path d="M13.6903 62.2829C13.6063 62.0307 13.4863 61.7919 13.3341 61.5736C13.1749 61.3404 12.9757 61.1368 12.7456 60.9723C12.4767 60.7991 12.1848 60.6641 11.8784 60.5714C11.4865 60.4895 11.0857 60.4584 10.6859 60.4788H6.98454L6.55091 67.1864H10.2522C10.6694 67.1923 11.0857 67.1456 11.4912 67.0476C11.8073 66.9548 12.1095 66.8199 12.3894 66.6467C12.6357 66.4747 12.8594 66.2727 13.0554 66.0454C13.22 65.8217 13.3651 65.5844 13.489 65.336C13.5945 65.0989 13.6724 64.8506 13.7213 64.5959C13.8181 64.3411 13.8907 64.0778 13.9381 63.8095C13.9612 63.5582 13.9612 63.3053 13.9381 63.0539C13.8959 62.7858 13.8123 62.5257 13.6903 62.2829ZM11.0111 64.5342C10.9899 64.7332 10.9321 64.9266 10.8407 65.1048C10.7574 65.2172 10.652 65.3116 10.531 65.3823C10.4191 65.4443 10.2993 65.491 10.1748 65.5211H9.29207L9.46242 62.0208H9.98897C10.1124 62.006 10.2372 62.006 10.3607 62.0208C10.4796 62.037 10.592 62.085 10.6859 62.1596C10.8011 62.2335 10.8968 62.334 10.9646 62.4526C11.0412 62.6136 11.0934 62.7851 11.1195 62.9614C11.1516 63.2226 11.1516 63.4867 11.1195 63.7478C11.1175 64.0135 11.0811 64.2778 11.0111 64.5342Z" fill="#233E82"/>
<path d="M14.4647 67.1556H17.0509L17.4846 60.4326H14.8983L14.4647 67.1556Z" fill="#233E82"/>
<path d="M28.8209 60.448L27.7213 64.7347H27.6904L26.916 60.448H24.4381L23.0908 64.7347H23.0598L22.5178 60.448H20.1018L21.2479 67.1556H24.0819L25.4138 62.7764H25.4603L26.2966 67.1556H29.0687L31.1284 60.448H28.8209Z" fill="#233E82"/>
<path d="M36.0687 62.6993C35.7894 62.4591 35.4621 62.2804 35.1085 62.175C34.6901 62.0589 34.2575 62.0018 33.8231 62.0054C33.3838 62.0026 32.9461 62.0596 32.5222 62.175C32.1498 62.28 31.8022 62.4583 31.5001 62.6993C31.2157 62.925 30.9833 63.209 30.8187 63.5319C30.6469 63.8731 30.5467 64.2457 30.5244 64.6267C30.4931 65.0037 30.5459 65.3828 30.6793 65.737C30.7982 66.0574 30.9951 66.3435 31.2523 66.5696C31.5269 66.8047 31.8491 66.9783 32.197 67.0785C32.6131 67.2069 33.0469 67.2694 33.4824 67.2635C33.9281 67.2691 34.3721 67.2067 34.7988 67.0785C35.1683 66.9734 35.5149 66.8009 35.8209 66.5696C36.1053 66.3439 36.3377 66.0599 36.5023 65.737C36.6762 65.391 36.7764 65.013 36.7966 64.6267C36.8192 64.2552 36.7666 63.8828 36.6417 63.5319C36.5228 63.2115 36.3259 62.9254 36.0687 62.6993ZM34.1948 64.6267V65.0431C34.178 65.1732 34.1521 65.302 34.1174 65.4286C34.0779 65.5342 34.0143 65.6292 33.9315 65.7061C33.8464 65.7828 33.7365 65.8265 33.6218 65.8295C33.5122 65.8243 33.4079 65.7806 33.3276 65.7061C33.2602 65.6256 33.2125 65.5306 33.1882 65.4286C33.1801 65.3002 33.1801 65.1714 33.1882 65.0431C33.1805 64.9044 33.1805 64.7654 33.1882 64.6267C33.1882 64.5034 33.1882 64.3646 33.1882 64.2258C33.21 64.0953 33.2411 63.9665 33.2811 63.8403C33.3119 63.7343 33.3707 63.6385 33.4514 63.5628C33.4923 63.5229 33.5408 63.4914 33.5939 63.4703C33.6471 63.4491 33.7039 63.4386 33.7612 63.4394C33.819 63.4332 33.8775 63.4413 33.9314 63.4628C33.9854 63.4843 34.0333 63.5186 34.0709 63.5628C34.1115 63.5975 34.1447 63.6399 34.1687 63.6876C34.1926 63.7352 34.2068 63.7872 34.2103 63.8403C34.2265 63.9683 34.2265 64.0978 34.2103 64.2258C34.2103 64.3646 34.1948 64.5034 34.1948 64.6267Z" fill="#233E82"/>
<path d="M41.4736 62.0208C41.2821 62.0165 41.092 62.0533 40.9161 62.1287C40.7448 62.1908 40.5871 62.285 40.4515 62.4063C40.321 62.5247 40.2065 62.6595 40.1108 62.8072C40.0104 62.9513 39.9272 63.1065 39.863 63.2698L39.9404 62.1287H37.6329L37.3077 67.1556H39.7391L39.8475 65.336C39.858 65.0781 39.9382 64.8277 40.0798 64.6113C40.1966 64.4165 40.3692 64.2608 40.5754 64.1641C40.7806 64.0572 41.0098 64.0042 41.2413 64.01H41.7369L41.8143 62.0208H41.4736Z" fill="#233E82"/>
<path d="M42.1395 67.1556H44.571L45.0356 59.9083H42.6041L42.1395 67.1556Z" fill="#233E82"/>
<path d="M49.2789 62.761C49.1253 62.5152 48.9052 62.3175 48.644 62.1904C48.3732 62.0627 48.0763 61.9994 47.7767 62.0054C47.5605 61.9827 47.3425 61.9827 47.1263 62.0054C46.9128 62.0692 46.7095 62.1626 46.5223 62.2829C46.3168 62.412 46.1338 62.5735 45.9803 62.761C45.8177 62.9832 45.6873 63.2272 45.5931 63.4857C45.4774 63.8023 45.4146 64.1357 45.4072 64.4725C45.3751 64.8495 45.4012 65.2291 45.4847 65.5982C45.5326 65.8765 45.6438 66.1402 45.8099 66.3692C45.9382 66.5666 46.1071 66.7348 46.3055 66.8626C46.4891 66.9825 46.6942 67.0662 46.9095 67.1093C47.1101 67.1319 47.3128 67.1319 47.5134 67.1093C47.8556 67.1196 48.1939 67.034 48.4896 66.8623C48.7853 66.6905 49.0266 66.4395 49.186 66.1379V66.986H51.4161L51.8962 59.677H49.4648L49.2789 62.761ZM49.2789 64.5651C49.2696 64.6728 49.2696 64.7811 49.2789 64.8889C49.2664 65.013 49.2296 65.1335 49.1705 65.2435C49.1272 65.351 49.0581 65.4463 48.9692 65.5211C48.8754 65.5911 48.7613 65.629 48.644 65.629C48.5267 65.629 48.4126 65.5911 48.3188 65.5211C48.2437 65.4436 48.1903 65.3479 48.1639 65.2435C48.1405 65.1265 48.1405 65.006 48.1639 64.8889V64.5651C48.1732 64.4573 48.1732 64.349 48.1639 64.2412C48.1782 64.1193 48.2095 64 48.2568 63.8866C48.3057 63.7822 48.374 63.688 48.4581 63.609C48.5543 63.5321 48.6757 63.4936 48.7988 63.5011C48.8552 63.4964 48.9119 63.5036 48.9653 63.5222C49.0186 63.5408 49.0675 63.5704 49.1086 63.609C49.1882 63.6856 49.2468 63.7812 49.2789 63.8866C49.2876 64.0047 49.2876 64.1232 49.2789 64.2412V64.5651Z" fill="#233E82"/>
<path d="M61.7613 62.2829C61.6825 62.0314 61.5677 61.7926 61.4206 61.5736C61.2597 61.3365 61.0547 61.1324 60.8166 60.9723C60.5508 60.7934 60.2581 60.658 59.9493 60.5714C59.5882 60.4945 59.2187 60.4634 58.8498 60.4788H55.071L54.6374 67.1864H58.3387C58.7559 67.1923 59.1722 67.1456 59.5776 67.0476C59.9053 66.9525 60.2181 66.8124 60.5069 66.6313C60.7531 66.4593 60.9769 66.2572 61.1728 66.0299C61.3382 65.8097 61.4784 65.5718 61.5909 65.3206C61.7011 65.0839 61.7842 64.8356 61.8387 64.5805C61.8953 64.3424 61.9315 64.0999 61.9471 63.8557C61.9702 63.6044 61.9702 63.3515 61.9471 63.1002C61.9375 62.8185 61.8744 62.5413 61.7613 62.2829ZM59.0976 64.5342C59.0524 64.7384 58.9683 64.9321 58.8498 65.1047C58.7664 65.2172 58.6611 65.3116 58.54 65.3823C58.427 65.4418 58.3075 65.4884 58.1838 65.5211H57.3011L57.5489 62.0208H58.0599C58.1833 62.0039 58.3083 62.0039 58.4316 62.0208C58.5553 62.0372 58.6726 62.085 58.7723 62.1596C58.8866 62.2299 58.978 62.3317 59.0356 62.4525C59.1247 62.6097 59.1826 62.7825 59.206 62.9614C59.238 63.2226 59.238 63.4866 59.206 63.7478C59.204 64.0135 59.1676 64.2778 59.0976 64.5342Z" fill="#233E82"/>
<path d="M67.5843 62.8226C67.4091 62.6163 67.1929 62.4483 66.9493 62.3292C66.7138 62.2106 66.464 62.1226 66.206 62.0671C65.9484 62.0448 65.6893 62.0448 65.4316 62.0671C65.0331 62.066 64.6365 62.1231 64.2547 62.2367C63.906 62.3464 63.5806 62.5189 63.2945 62.7455C63.0197 62.9646 62.793 63.2375 62.6285 63.5474C62.4527 63.8752 62.3572 64.2398 62.3498 64.6113C62.3269 64.8008 62.3269 64.9924 62.3498 65.1818C62.3905 65.6057 62.5457 66.0106 62.7989 66.3538C62.939 66.5521 63.1182 66.7199 63.3254 66.8472C63.5786 67.0077 63.8556 67.1274 64.1462 67.2018C64.5222 67.2869 64.9068 67.3283 65.2923 67.3252C65.6585 67.3468 66.0256 67.3468 66.3918 67.3252C66.7939 67.2736 67.1922 67.1963 67.5843 67.0939L67.6772 65.7986C67.3777 65.8985 67.0726 65.9809 66.7635 66.0454C66.4733 66.1066 66.1774 66.1376 65.8808 66.1379C65.6716 66.1421 65.463 66.1161 65.2613 66.0608C65.1294 66.0283 65.0073 65.9648 64.9051 65.8757C64.829 65.8024 64.7708 65.7127 64.7347 65.6136C64.72 65.5217 64.72 65.428 64.7347 65.336H68.1418V64.9043C68.1734 64.5155 68.1367 64.1241 68.0334 63.7478C67.9637 63.4069 67.8093 63.0888 67.5843 62.8226ZM66.0356 64.195H64.7812V64.087C64.7803 63.9067 64.8172 63.7281 64.8896 63.5628C64.9255 63.4554 64.9897 63.3595 65.0755 63.2852C65.141 63.2372 65.2143 63.2007 65.2923 63.1773C65.3481 63.1629 65.4068 63.1629 65.4626 63.1773C65.5331 63.1549 65.6089 63.1549 65.6794 63.1773C65.7484 63.2133 65.8112 63.2602 65.8653 63.3161C65.9298 63.3984 65.9772 63.4928 66.0047 63.5936C66.0224 63.7422 66.0224 63.8923 66.0047 64.0408L66.0356 64.195Z" fill="#233E82"/>
<path d="M74.3365 62.6839C74.2668 62.5537 74.1721 62.4384 74.0578 62.3446C73.9174 62.229 73.7536 62.1449 73.5777 62.0979C73.3464 62.0307 73.1061 61.9995 72.8653 62.0054C72.7263 61.9912 72.5862 61.9912 72.4472 62.0054L71.9826 62.1442C71.8206 62.2217 71.6696 62.3202 71.5334 62.4371C71.3818 62.5874 71.2609 62.7654 71.1772 62.9614V62.0825H68.9317L68.6064 67.1093H71.0379L71.2392 64.2412C71.232 64.1695 71.232 64.0972 71.2392 64.0254C71.2303 63.9537 71.2303 63.8812 71.2392 63.8095C71.2674 63.7402 71.316 63.6811 71.3786 63.6399C71.4644 63.6137 71.5561 63.6137 71.6418 63.6399C71.7166 63.6114 71.7994 63.6114 71.8741 63.6399C71.9068 63.6564 71.935 63.6804 71.9565 63.7099C71.978 63.7394 71.9923 63.7735 71.998 63.8095C72.0067 63.8812 72.0067 63.9537 71.998 64.0254C72.0064 64.0971 72.0064 64.1695 71.998 64.2412L71.8122 67.1402H74.3365L74.5688 63.6553V63.3932C74.5814 63.2804 74.5814 63.1667 74.5688 63.0539C74.5227 62.9136 74.443 62.7866 74.3365 62.6839Z" fill="#233E82"/>
<path d="M78.3167 63.5628H79.4162L79.5091 62.1133H78.4096L78.5335 60.1704L76.0711 60.8952L75.9781 62.1133H75.1264L75.0335 63.5628H75.8852L75.7768 65.3052C75.761 65.4848 75.761 65.6653 75.7768 65.8449C75.7942 66.0294 75.8358 66.2109 75.9007 66.3846C75.9693 66.5547 76.0751 66.7075 76.2104 66.8318C76.3695 66.9765 76.5605 67.0822 76.768 67.1402C77.0593 67.2265 77.3622 67.2681 77.6662 67.2635C77.893 67.281 78.1208 67.281 78.3476 67.2635C78.5206 67.2413 78.6915 67.2052 78.8587 67.1556L79.1994 67.0476L79.2923 65.5982H78.7503C78.6369 65.6019 78.5246 65.5752 78.4251 65.5211C78.3568 65.4688 78.3034 65.3997 78.2702 65.3206C78.2629 65.2488 78.2629 65.1765 78.2702 65.1048V64.9351L78.3167 63.5628Z" fill="#233E82"/>
<path d="M84.8985 62.6068C84.7125 62.4562 84.5033 62.3364 84.2791 62.2521C84.0709 62.1528 83.8529 62.0752 83.6286 62.0208C83.3604 62.0054 83.0915 62.0054 82.8233 62.0208C82.5654 62.006 82.3069 62.006 82.049 62.0208C81.7737 62.0426 81.4997 62.0786 81.2282 62.1287C80.9562 62.1674 80.6872 62.2241 80.4229 62.2984L80.3299 63.609C80.5454 63.5185 80.7682 63.4463 80.9959 63.3932L81.5534 63.2698H82.4671C82.5949 63.2822 82.7202 63.3134 82.8388 63.3623C82.9522 63.3859 83.0521 63.4522 83.1175 63.5474C83.1564 63.5878 83.185 63.6368 83.2012 63.6904C83.2173 63.744 83.2205 63.8007 83.2105 63.8557V64.0099H82.1883C81.946 63.9947 81.7029 63.9947 81.4605 64.0099C81.2232 64.0358 80.9895 64.0876 80.7636 64.1641C80.5503 64.2419 80.3475 64.3455 80.1596 64.4725C79.9812 64.6042 79.8333 64.7724 79.7259 64.966C79.6052 65.1887 79.5414 65.4376 79.5401 65.6907C79.4996 65.8839 79.4996 66.0834 79.5401 66.2766C79.5985 66.4571 79.6993 66.621 79.8344 66.7547C79.9829 66.9009 80.163 67.0117 80.3609 67.0785C80.6101 67.163 80.872 67.2047 81.1352 67.2018C81.2794 67.2166 81.4247 67.2166 81.5689 67.2018L82.049 67.1093C82.2121 67.0566 82.3682 66.9841 82.5136 66.8934C82.6726 66.7821 82.8181 66.6527 82.9472 66.5079V67.1093H85.1773L85.3786 63.9174C85.3951 63.6507 85.3582 63.3834 85.2702 63.131C85.1846 62.9322 85.058 62.7536 84.8985 62.6068ZM83.0866 65.2435C83.0899 65.4063 83.0469 65.5666 82.9627 65.7061C82.8954 65.8118 82.8055 65.9013 82.6994 65.9682C82.592 65.9894 82.4815 65.9894 82.3742 65.9682C82.3011 65.9743 82.2275 65.9651 82.1581 65.9412C82.0888 65.9173 82.0252 65.8793 81.9715 65.8295C81.9207 65.7898 81.8811 65.7377 81.8567 65.6782C81.8323 65.6188 81.8238 65.554 81.8321 65.4902C81.8318 65.3806 81.8642 65.2732 81.9251 65.1818C81.9879 65.1039 82.0672 65.0407 82.1574 64.9968L82.4361 64.9043H83.1175L83.0866 65.2435Z" fill="#233E82"/>
<path d="M86.0136 67.1556H88.445L88.9096 59.9083H86.4782L86.0136 67.1556Z" fill="#233E82"/>
<path d="M94.5778 62.0362H97.768L97.861 60.4326H92.0844L91.6663 67.1556H94.2371L94.3919 64.7501H97.4893L97.5977 63.131H94.5003L94.5778 62.0362Z" fill="#233E82"/>
<path d="M102.848 62.8226C102.669 62.6196 102.454 62.4521 102.213 62.3292C101.977 62.2123 101.727 62.1242 101.469 62.0671C101.212 62.0448 100.953 62.0448 100.695 62.0671C100.291 62.066 99.8898 62.1231 99.5026 62.2367C99.1603 62.3502 98.8406 62.5224 98.5579 62.7455C98.2831 62.9646 98.0564 63.2375 97.8919 63.5474C97.7161 63.8752 97.6206 64.2398 97.6132 64.6113C97.5806 64.7738 97.565 64.9391 97.5667 65.1048C97.5888 65.5327 97.746 65.9428 98.0158 66.2766C98.1498 66.4802 98.3302 66.6493 98.5424 66.7701C98.7955 66.9306 99.0725 67.0503 99.3632 67.1247C99.739 67.2107 100.124 67.2521 100.509 67.2481C100.875 67.2697 101.243 67.2697 101.609 67.2481C102.011 67.1965 102.409 67.1192 102.801 67.0168V65.7215C102.508 65.8232 102.208 65.9056 101.903 65.9683C101.608 66.0304 101.307 66.0614 101.005 66.0608C100.801 66.0641 100.597 66.0382 100.401 65.9837C100.269 65.9512 100.147 65.8877 100.045 65.7986C99.9686 65.7253 99.9103 65.6356 99.8742 65.5365C99.8595 65.4446 99.8595 65.3509 99.8742 65.2589H103.25V64.8272C103.282 64.4384 103.245 64.047 103.142 63.6707C103.107 63.3701 103.007 63.0807 102.848 62.8226ZM101.299 64.195H100.045V64.087C100.05 63.9223 100.087 63.7601 100.153 63.609C100.189 63.5016 100.253 63.4058 100.339 63.3315C100.404 63.2834 100.478 63.2469 100.556 63.2235C100.612 63.2092 100.67 63.2092 100.726 63.2235C100.791 63.2012 100.862 63.2012 100.927 63.2235C101.003 63.2552 101.072 63.3025 101.129 63.3623C101.193 63.4447 101.241 63.5391 101.268 63.6399C101.286 63.7884 101.286 63.9385 101.268 64.087L101.299 64.195Z" fill="#233E82"/>
<path d="M107.602 62.761C107.453 62.5173 107.238 62.3198 106.983 62.1904C106.712 62.0627 106.415 61.9994 106.115 62.0054C105.899 61.9827 105.681 61.9827 105.465 62.0054C105.247 62.069 105.038 62.1624 104.845 62.2829C104.645 62.4125 104.467 62.574 104.319 62.761C104.156 62.9832 104.026 63.2272 103.932 63.4857C103.816 63.8023 103.753 64.1357 103.746 64.4725C103.696 64.8461 103.696 65.2246 103.746 65.5982C103.808 65.8723 103.918 66.1333 104.071 66.3692C104.209 66.5639 104.382 66.7313 104.582 66.8626C104.762 66.9798 104.961 67.0634 105.171 67.1093C105.377 67.131 105.584 67.131 105.79 67.1093C106.131 67.112 106.467 67.0271 106.766 66.8626C107.053 66.6844 107.288 66.4345 107.447 66.1379V66.986H109.708L110.188 59.677H107.803L107.602 62.761ZM107.602 64.5651C107.596 64.6729 107.596 64.781 107.602 64.8889C107.575 65.0097 107.539 65.1283 107.494 65.2435C107.45 65.351 107.381 65.4463 107.292 65.5211C107.202 65.597 107.085 65.6356 106.967 65.629C106.908 65.634 106.849 65.627 106.793 65.6084C106.737 65.5899 106.686 65.5601 106.642 65.5211C106.562 65.4445 106.504 65.349 106.472 65.2435C106.455 65.1259 106.455 65.0065 106.472 64.8889C106.456 64.7815 106.456 64.6725 106.472 64.5651C106.478 64.4572 106.478 64.3491 106.472 64.2412C106.498 64.1204 106.535 64.0018 106.58 63.8866C106.623 63.7791 106.692 63.6838 106.781 63.609C106.853 63.5739 106.934 63.558 107.014 63.5628C107.072 63.5578 107.132 63.5648 107.187 63.5834C107.243 63.6019 107.295 63.6317 107.339 63.6707C107.418 63.7473 107.477 63.8428 107.509 63.9483C107.518 64.0663 107.518 64.1849 107.509 64.3029C107.53 64.3892 107.546 64.4768 107.556 64.5651H107.602Z" fill="#233E82"/>
<path d="M115.81 62.8226C115.632 62.6196 115.416 62.4521 115.175 62.3292C114.934 62.2122 114.679 62.1242 114.416 62.0671C114.164 62.0447 113.91 62.0447 113.657 62.0671C113.254 62.066 112.852 62.1231 112.465 62.2367C112.119 62.353 111.795 62.5249 111.505 62.7455C111.235 62.9652 111.013 63.2382 110.854 63.5474C110.679 63.8752 110.583 64.2398 110.576 64.6113C110.56 64.8012 110.56 64.992 110.576 65.1818C110.592 65.388 110.639 65.5906 110.715 65.7832C110.787 65.9885 110.892 66.1811 111.025 66.3538C111.171 66.5525 111.355 66.7202 111.567 66.8472C111.818 67.0104 112.096 67.1303 112.388 67.2018C112.763 67.2878 113.148 67.3292 113.534 67.3252C113.895 67.3473 114.257 67.3473 114.618 67.3252C115.025 67.2751 115.429 67.1978 115.826 67.0939V65.7986C115.532 65.9003 115.232 65.9827 114.927 66.0454C114.632 66.1075 114.331 66.1385 114.029 66.1379C113.825 66.1412 113.622 66.1152 113.425 66.0608C113.293 66.0283 113.171 65.9648 113.069 65.8757C112.988 65.8064 112.929 65.7154 112.899 65.6136C112.884 65.5217 112.884 65.428 112.899 65.336H116.306V64.9043C116.33 64.5155 116.293 64.1254 116.197 63.7478C116.146 63.4126 116.013 63.095 115.81 62.8226ZM114.261 64.195H113.053V64.087C113.027 63.9133 113.027 63.7365 113.053 63.5628C113.1 63.4569 113.168 63.3622 113.255 63.2852C113.319 63.2343 113.392 63.1975 113.472 63.1773C113.528 63.1629 113.586 63.1629 113.642 63.1773C113.707 63.155 113.778 63.155 113.843 63.1773C113.919 63.209 113.988 63.2563 114.045 63.3161C114.098 63.4028 114.14 63.4961 114.169 63.5936C114.194 63.7416 114.194 63.8928 114.169 64.0408L114.261 64.195Z" fill="#233E82"/>
<path d="M121.385 62.0208H120.998C120.807 62.0149 120.616 62.0518 120.441 62.1287C120.269 62.1908 120.112 62.285 119.976 62.4063C119.845 62.5286 119.726 62.6628 119.62 62.8072C119.53 62.955 119.453 63.1097 119.388 63.2698V62.1287H117.142L116.817 67.1556H119.248L119.372 65.336C119.378 65.0795 119.453 64.8292 119.589 64.6113C119.71 64.4198 119.881 64.2652 120.084 64.1641C120.295 64.0572 120.529 64.0042 120.766 64.01H121.261L121.385 62.0208Z" fill="#233E82"/>
<path d="M126.481 62.6068C126.302 62.4532 126.098 62.333 125.877 62.2521C125.642 62.158 125.398 62.0908 125.149 62.0516C124.88 62.0363 124.612 62.0363 124.343 62.0516C124.085 62.0369 123.827 62.0369 123.569 62.0516C123.294 62.0734 123.02 62.1095 122.748 62.1596C122.476 62.1983 122.207 62.2549 121.943 62.3292L121.85 63.6399C122.065 63.5494 122.288 63.4771 122.516 63.424L123.073 63.3006H124.034C124.161 63.313 124.287 63.3442 124.405 63.3932C124.519 63.4167 124.619 63.483 124.684 63.5782C124.723 63.6186 124.752 63.6677 124.768 63.7213C124.784 63.7749 124.787 63.8315 124.777 63.8866V64.0408H123.755C123.512 64.0256 123.269 64.0256 123.027 64.0408C122.79 64.0667 122.556 64.1184 122.33 64.195C122.117 64.2728 121.914 64.3763 121.726 64.5034C121.548 64.635 121.4 64.8033 121.292 64.9968C121.166 65.2181 121.097 65.4671 121.091 65.7215C121.058 65.9155 121.058 66.1136 121.091 66.3075C121.149 66.4879 121.25 66.6518 121.385 66.7855C121.534 66.9318 121.714 67.0425 121.912 67.1093C122.161 67.1938 122.423 67.2355 122.686 67.2327C122.83 67.2474 122.976 67.2474 123.12 67.2327L123.6 67.1401C123.763 67.0874 123.919 67.0149 124.065 66.9243C124.222 66.8167 124.363 66.6868 124.483 66.5388V67.1401H126.713L126.992 63.9483C127.008 63.6816 126.971 63.4143 126.883 63.1619C126.796 62.9472 126.658 62.7567 126.481 62.6068ZM124.684 65.2435C124.68 65.4053 124.638 65.5639 124.56 65.7061C124.493 65.8118 124.403 65.9013 124.297 65.9682C124.185 65.9915 124.069 65.9915 123.956 65.9682C123.809 65.9752 123.665 65.9255 123.554 65.8295C123.507 65.7873 123.471 65.7343 123.449 65.6752C123.428 65.6161 123.421 65.5526 123.43 65.4902C123.423 65.3797 123.455 65.2702 123.523 65.1818C123.585 65.1039 123.665 65.0407 123.755 64.9968C123.842 64.9501 123.936 64.9188 124.034 64.9043H124.715L124.684 65.2435Z" fill="#233E82"/>
<path d="M130.646 60.1704L128.169 60.8952L128.091 62.1133H127.239L127.146 63.5628H127.998L127.89 65.3052C127.874 65.4848 127.874 65.6653 127.89 65.8449C127.9 66.0305 127.942 66.2131 128.014 66.3846C128.076 66.554 128.177 66.7069 128.308 66.8318C128.473 66.9768 128.669 67.0823 128.881 67.1402C129.172 67.2275 129.475 67.2691 129.779 67.2635C130.006 67.2805 130.234 67.2805 130.461 67.2635C130.628 67.2398 130.794 67.2037 130.956 67.1556L131.312 67.0476L131.405 65.5982H130.848C130.739 65.6022 130.632 65.5755 130.538 65.5211C130.466 65.4726 130.412 65.4023 130.383 65.3206C130.369 65.2494 130.369 65.176 130.383 65.1048V64.9351L130.476 63.5165H131.576L131.669 62.0671H130.569L130.646 60.1704Z" fill="#233E82"/>
<path d="M132.211 61.5891H134.642L134.75 59.9083H132.319L132.211 61.5891Z" fill="#233E82"/>
<path d="M131.854 67.1556H134.286L134.611 62.1133H132.18L131.854 67.1556Z" fill="#233E82"/>
<path d="M140.666 62.6993C140.387 62.4591 140.06 62.2804 139.706 62.175C139.288 62.0589 138.855 62.0018 138.421 62.0054C137.981 62.0026 137.544 62.0596 137.12 62.175C136.747 62.28 136.4 62.4583 136.098 62.6993C135.809 62.9206 135.576 63.2056 135.416 63.5319C135.245 63.8731 135.144 64.2457 135.122 64.6267C135.091 65.0037 135.144 65.3828 135.277 65.737C135.396 66.0574 135.593 66.3435 135.85 66.5696C136.125 66.8047 136.447 66.9783 136.795 67.0785C137.211 67.2069 137.645 67.2694 138.08 67.2635C138.526 67.2691 138.97 67.2067 139.397 67.0785C139.766 66.9734 140.113 66.8009 140.419 66.5696C140.703 66.3439 140.935 66.0599 141.1 65.737C141.274 65.391 141.374 65.013 141.394 64.6267C141.417 64.2552 141.364 63.8828 141.239 63.5319C141.12 63.2115 140.924 62.9254 140.666 62.6993ZM138.793 64.6267V65.0431C138.801 65.1714 138.801 65.3002 138.793 65.4286C138.753 65.5342 138.689 65.6292 138.607 65.7061C138.522 65.7828 138.412 65.8265 138.297 65.8295C138.187 65.8243 138.083 65.7806 138.003 65.7061C137.935 65.6256 137.888 65.5306 137.863 65.4286C137.855 65.3002 137.855 65.1714 137.863 65.0431C137.856 64.9044 137.856 64.7654 137.863 64.6267C137.863 64.5034 137.863 64.3646 137.863 64.2258C137.885 64.0953 137.916 63.9665 137.956 63.8403C137.987 63.7343 138.046 63.6385 138.127 63.5628C138.167 63.5229 138.216 63.4914 138.269 63.4703C138.322 63.4491 138.379 63.4386 138.436 63.4394C138.492 63.4358 138.547 63.445 138.598 63.4664C138.649 63.4879 138.695 63.5208 138.731 63.5628C138.771 63.5975 138.804 63.6399 138.828 63.6876C138.852 63.7352 138.866 63.7872 138.87 63.8403C138.886 63.9683 138.886 64.0978 138.87 64.2258C138.808 64.3646 138.793 64.5034 138.793 64.6267Z" fill="#233E82"/>
<path d="M147.666 62.6839C147.597 62.5537 147.502 62.4384 147.388 62.3446C147.247 62.229 147.084 62.1449 146.908 62.0979C146.676 62.0359 146.435 62.0099 146.195 62.0208C146.056 62.0066 145.916 62.0066 145.777 62.0208L145.312 62.1596C145.15 62.2372 144.999 62.3357 144.863 62.4526C144.712 62.6028 144.591 62.7808 144.507 62.9768V62.0979H142.231L141.905 67.1247H144.337L144.523 64.2258C144.515 64.154 144.515 64.0817 144.523 64.01C144.514 63.9383 144.514 63.8658 144.523 63.7941C144.551 63.7248 144.599 63.6657 144.662 63.6245C144.748 63.5983 144.84 63.5983 144.925 63.6245C145 63.596 145.083 63.596 145.158 63.6245C145.19 63.641 145.218 63.665 145.24 63.6945C145.261 63.724 145.276 63.7581 145.281 63.7941C145.29 63.8658 145.29 63.9382 145.281 64.01C145.29 64.0817 145.29 64.1541 145.281 64.2258L145.096 67.1247H147.527L147.759 63.6399V63.3777C147.772 63.265 147.772 63.1512 147.759 63.0385C147.753 62.9152 147.721 62.7946 147.666 62.6839Z" fill="#233E82"/>
<path d="M66.0511 55.9454L78.8587 55.8838L85.5645 21.4515L73.4073 21.1586L66.0511 55.9454Z" fill="#233E82"/>
<path d="M88.3056 8.2831L75.9162 8.1289L73.8719 17.5195L86.2459 17.6583L88.3056 8.2831Z" fill="#233E82"/>
<path d="M46.7391 55.4366H59.1285L68.4206 8.26768H56.279L52.6551 25.1677C42.186 13.3253 27.551 24.0729 26.5443 38.8912C26.2346 43.4092 26.0643 48.1431 30.1063 52.9232C31.0388 54.0676 32.2205 54.9858 33.5621 55.6083C34.9036 56.2307 36.3698 56.5411 37.8497 56.516C41.7678 56.516 43.8121 56.4389 46.7236 52.3835L46.7391 55.4366ZM43.363 47.1716C40.1417 47.1716 38.0975 43.1933 38.8099 38.2899C39.5223 33.3864 42.7435 29.4081 45.9648 29.4081C49.186 29.4081 51.2303 33.4018 50.5179 38.2899C49.8055 43.1779 46.5687 47.1716 43.363 47.1716Z" fill="#233E82"/>
<path d="M27.6749 20.6651H21.4802C21.728 16.6868 23.8342 16.3322 28.8519 16.4864L30.478 8.17516C13.0554 6.29395 10.7323 10.0718 8.79649 20.6651H3.46904L1.62611 28.8838H6.6748L1.16151 55.4366H13.5509L19.0642 28.8838H26.2191L27.6749 20.6651Z" fill="#233E82"/>
<path d="M123.461 43.1779C118.901 43.1731 114.416 42.0284 110.417 39.8489C106.418 37.6693 103.032 34.5246 100.571 30.7034C100.387 31.8819 100.294 33.0727 100.292 34.2653C100.278 39.4845 101.931 44.573 105.013 48.7947C108.095 53.0165 112.446 56.1526 117.436 57.7494C122.427 59.3461 127.798 59.3208 132.773 57.677C137.748 56.0333 142.069 52.8563 145.111 48.6057C146.923 45.5217 147.806 42.4378 143.562 47.1562C141.555 49.1625 139.163 50.7477 136.53 51.8179C133.896 52.8882 131.074 53.4219 128.229 53.3874C125.385 53.3529 122.577 52.7509 119.97 51.6171C117.363 50.4832 115.012 48.8405 113.053 46.7861C116.625 48.9727 120.756 50.0814 124.947 49.978C135.788 49.4537 143.779 42.8387 147.357 33.1243C148.487 29.6086 148.1 28.2979 146.412 30.5954C143.956 34.4435 140.566 37.6134 136.554 39.8125C132.543 42.0116 128.04 43.1691 123.461 43.1779Z" fill="#ED1C24"/>
</svg>
