<svg width="155" height="166" viewBox="0 0 155 166" fill="none" xmlns="http://www.w3.org/2000/svg">
<path d="M129.038 109.06C112.825 101.398 95.2599 97.4369 77.4936 97.4369C59.7274 97.4369 42.1618 101.398 25.949 109.06V0.341797H129.038V109.06Z" fill="#141E8C"/>
<path d="M38.1677 33.5207C36.8375 33.5265 35.5587 34.0636 34.5889 35.0239C33.6191 35.9842 33.0303 37.2963 32.941 38.696H30.6218V31.0216H48.7388C48.4409 35.6194 46.5998 39.9549 43.5457 43.251C43.5457 43.251 38.5039 49.4544 38.3358 52.113H41.2601C45.4616 52.113 45.8818 46.9376 45.8818 46.9376H48.2347V54.6297H29.7478C29.7478 54.6297 29.0756 48.7986 35.4788 41.7268C35.4788 41.7268 39.4114 37.0832 40.3189 33.4321L38.1677 33.5207Z" fill="white"/>
<path d="M84.1157 54.6829V52.1661H83.5779C83.3426 52.1685 83.1091 52.1216 82.8911 52.0282C82.673 51.9349 82.4746 51.7969 82.3074 51.6222C82.1402 51.4475 82.0075 51.2396 81.9169 51.0105C81.8263 50.7814 81.7797 50.5356 81.7797 50.2874V35.4348C81.7797 34.9319 81.9691 34.4495 82.3064 34.0939C82.6436 33.7382 83.101 33.5384 83.5779 33.5384H84.1157V31.0216H72.1497V33.5384H72.7043C72.9405 33.5361 73.1748 33.5828 73.3938 33.676C73.6128 33.7691 73.8123 33.9068 73.9809 34.0813C74.1494 34.2558 74.2837 34.4635 74.3761 34.6927C74.4685 34.9219 74.5172 35.1681 74.5194 35.4171V50.252C74.5194 50.7549 74.3299 51.2373 73.9927 51.5929C73.6555 51.9486 73.1981 52.1484 72.7211 52.1484H72.1497V54.6652L84.1157 54.6829Z" fill="white"/>
<path d="M69.6793 54.7011V47.009H67.2256C67.2256 47.009 66.7718 52.1843 62.5703 52.1843H60.2174V44.12H61.0745C61.5517 44.1245 62.0083 44.3252 62.3473 44.6794C62.6863 45.0336 62.8808 45.5133 62.8896 46.0164V46.9735H65.2593V38.6965H62.8896V39.6713C62.8853 40.1745 62.695 40.6561 62.3591 41.0136C62.0233 41.3711 61.5684 41.5763 61.0913 41.5855H60.2174V33.5212H62.6207C66.8222 33.5212 67.276 38.6965 67.276 38.6965H69.6793V31.0044H50.6715V33.5389H51.2261C51.4614 33.5365 51.6949 33.5834 51.913 33.6768C52.1311 33.7701 52.3294 33.9082 52.4966 34.0828C52.6639 34.2575 52.7966 34.4654 52.8872 34.6945C52.9777 34.9236 53.0244 35.1694 53.0243 35.4176V50.2524C53.0243 50.7554 52.8349 51.2378 52.4977 51.5934C52.1604 51.9491 51.703 52.1489 51.2261 52.1489H50.6715V54.6657L69.6793 54.7011Z" fill="white"/>
<path d="M96.6861 33.5207C98.0164 33.5265 99.2952 34.0636 100.265 35.0239C101.235 35.9842 101.824 37.2963 101.913 38.696H104.199V31.0216H87.0058C87.0058 31.0216 84.2664 34.7791 91.409 43.251C91.409 43.251 96.4508 49.4544 96.5853 52.113H93.6778C89.4931 52.113 89.0393 46.9376 89.0393 46.9376H86.6192V54.6297H103.997C103.997 54.6297 107.156 51.085 99.3415 41.7268C99.3415 41.7268 95.2408 37.2958 94.4845 33.4321L96.6861 33.5207Z" fill="white"/>
<path d="M116.854 33.5207C118.182 33.5268 119.459 34.0645 120.426 35.0252C121.393 35.9858 121.979 37.2978 122.064 38.696H124.366V31.0216H107.157C107.157 31.0216 104.434 34.7791 111.56 43.251C111.56 43.251 116.602 49.4544 116.753 52.113H113.846C109.644 52.113 109.207 46.9376 109.207 46.9376H106.787V54.6297H124.181C124.181 54.6297 127.324 51.085 119.509 41.7268C119.509 41.7268 115.425 37.2958 114.686 33.4321L116.854 33.5207Z" fill="white"/>
<path d="M0.100837 157.002C0.683292 157.34 1.30468 157.596 1.94952 157.765C2.59676 157.951 3.26219 158.058 3.93265 158.084C4.30941 158.051 4.68148 157.974 5.04186 157.853C5.39416 157.747 5.72469 157.573 6.01662 157.339C6.31737 157.102 6.5595 156.792 6.72248 156.435C6.89896 156.017 6.98507 155.563 6.97457 155.106C6.97561 154.729 6.88905 154.358 6.72248 154.025C6.57511 153.712 6.37589 153.43 6.13426 153.192C5.87567 152.928 5.58109 152.707 5.26034 152.536L4.21836 151.951L2.9915 151.295C2.61365 151.09 2.24876 150.859 1.8991 150.604C1.54979 150.36 1.24282 150.054 0.991566 149.7C0.731561 149.341 0.527344 148.94 0.386543 148.513C0.0234483 147.267 0.107182 145.923 0.621829 144.738C0.906222 144.131 1.32752 143.608 1.84868 143.213C2.35065 142.812 2.92131 142.518 3.5293 142.345C4.1502 142.183 4.78914 142.112 5.4284 142.132C6.64699 142.118 7.86031 142.303 9.02493 142.682L8.89048 145.003C8.35392 144.752 7.78918 144.573 7.20986 144.472C6.65698 144.351 6.09375 144.292 5.52924 144.295C5.18872 144.296 4.84979 144.343 4.52087 144.436C4.1855 144.51 3.86982 144.662 3.59653 144.879C3.31832 145.081 3.08822 145.348 2.92428 145.659C2.74183 146.037 2.655 146.458 2.67219 146.882C2.65967 147.21 2.7171 147.538 2.84025 147.839C2.96188 148.104 3.12687 148.344 3.32763 148.548C3.54663 148.766 3.78918 148.957 4.05029 149.115L4.8906 149.594L6.20149 150.267C6.65626 150.493 7.09444 150.753 7.51237 151.047C7.90948 151.308 8.26653 151.63 8.57116 152.004C8.8879 152.383 9.13317 152.822 9.29383 153.298C9.4856 153.867 9.57675 154.467 9.56273 155.071C9.57876 155.869 9.42965 156.661 9.12576 157.392C8.85768 158.024 8.45511 158.582 7.94933 159.023C7.45234 159.448 6.88148 159.767 6.26871 159.962C5.56994 160.179 4.84593 160.293 4.11752 160.299C3.44798 160.285 2.77999 160.226 2.11758 160.122C1.39404 159.989 0.684717 159.782 0 159.502L0.100837 157.002Z" fill="black"/>
<path d="M14.5385 153.866C14.5351 154.467 14.6202 155.064 14.7906 155.638C14.9543 156.152 15.2183 156.624 15.5657 157.024C15.9131 157.424 16.336 157.743 16.8073 157.96C17.3379 158.2 17.9104 158.321 18.488 158.314C19.0549 158.309 19.6193 158.232 20.1686 158.084C20.7066 157.955 21.2264 157.752 21.7147 157.481L21.866 159.431C21.3256 159.671 20.7621 159.85 20.1854 159.963C19.5476 160.084 18.9007 160.143 18.2527 160.14C17.3465 160.143 16.4471 159.975 15.5973 159.644C14.8713 159.327 14.2222 158.843 13.6982 158.226C13.1651 157.59 12.7694 156.84 12.5386 156.028C12.2683 155.122 12.1378 154.177 12.152 153.228C12.1474 152.35 12.2722 151.477 12.5218 150.64C12.7438 149.852 13.1091 149.118 13.5973 148.478C14.0498 147.86 14.623 147.352 15.278 146.989C15.9877 146.598 16.7798 146.402 17.5804 146.422C18.3913 146.405 19.1952 146.581 19.9333 146.936C20.5526 147.257 21.0845 147.739 21.4795 148.336C21.8851 148.976 22.1703 149.692 22.3198 150.445C22.4876 151.302 22.5721 152.175 22.5719 153.05V153.848H14.5385V153.866ZM20.2526 152.235C20.2468 151.748 20.2075 151.262 20.135 150.782C20.0611 150.335 19.9192 149.904 19.7148 149.506C19.5083 149.111 19.1995 148.786 18.8245 148.57C18.4496 148.353 18.0239 148.253 17.5972 148.283C17.1317 148.265 16.6712 148.388 16.2695 148.637C15.8992 148.865 15.5785 149.173 15.3284 149.541C15.0646 149.925 14.8708 150.358 14.757 150.817C14.6258 151.278 14.5524 151.754 14.5385 152.235H20.2526Z" fill="black"/>
<path d="M27.227 153.865C27.2207 154.468 27.3116 155.067 27.4959 155.638C27.6497 156.159 27.9079 156.639 28.253 157.045C28.598 157.452 29.0218 157.776 29.4958 157.995C30.0264 158.236 30.5989 158.356 31.1764 158.349C31.7421 158.358 32.3067 158.293 32.857 158.154C33.3997 158.023 33.9247 157.82 34.42 157.552L34.5545 159.501C34.0141 159.742 33.4506 159.92 32.8738 160.033C32.2361 160.154 31.5892 160.214 30.9411 160.21C30.0403 160.216 29.1461 160.048 28.3026 159.714C27.5691 159.403 26.9135 158.918 26.3867 158.296C25.8433 157.652 25.4415 156.89 25.2102 156.063C24.94 155.157 24.8095 154.212 24.8237 153.263C24.8245 152.384 24.9549 151.511 25.2102 150.675C25.4391 149.89 25.8037 149.157 26.2858 148.513C26.742 147.899 27.3143 147.392 27.9664 147.024C28.6724 146.639 29.4575 146.444 30.2521 146.457C31.0685 146.438 31.8784 146.614 32.6217 146.971C33.2329 147.298 33.7582 147.779 34.1511 148.371C34.5637 149.007 34.8496 149.724 34.9914 150.48C35.1762 151.335 35.2776 152.208 35.2939 153.085V153.883H27.227V153.865ZM32.9243 152.235C32.9268 151.747 32.8875 151.261 32.8066 150.781C32.7328 150.335 32.5909 149.904 32.3865 149.505C32.1953 149.141 31.9172 148.835 31.5798 148.619C31.1762 148.392 30.7261 148.274 30.2689 148.274C29.8117 148.274 29.3616 148.392 28.958 148.619C28.5825 148.847 28.2562 149.154 28 149.523C27.743 149.911 27.5498 150.343 27.4286 150.799C27.2975 151.26 27.224 151.736 27.2102 152.217L32.9243 152.235Z" fill="black"/>
<path d="M38.1339 144.011V141.441H40.5203V144.011H38.1339ZM38.1339 159.856V146.723H40.5203V159.856H38.1339Z" fill="black"/>
<path d="M44.1338 159.856V149.736C44.1338 149.222 44.1338 148.708 44.1338 148.229C44.1338 147.751 44.1338 147.219 44.033 146.723H46.2682V148.992C46.6031 148.214 47.1489 147.558 47.8368 147.107C48.5248 146.656 49.324 146.43 50.1336 146.457C50.7682 146.438 51.399 146.565 51.9823 146.829C52.4783 147.054 52.9079 147.415 53.2259 147.875C53.5509 148.359 53.7796 148.908 53.8982 149.488C54.0465 150.174 54.1198 150.876 54.1167 151.579V159.856H51.7302V152.146C51.7278 151.696 51.6998 151.246 51.6462 150.799C51.6117 150.395 51.4972 150.002 51.31 149.647C51.1539 149.314 50.9085 149.037 50.6042 148.85C50.234 148.636 49.8159 148.532 49.3941 148.548C48.8996 148.529 48.4099 148.658 47.9824 148.921C47.6215 149.165 47.3171 149.493 47.0917 149.878C46.8559 150.293 46.6909 150.749 46.6043 151.225C46.5096 151.732 46.4646 152.249 46.4699 152.767V159.856H44.1338Z" fill="black"/>
<path d="M58.2173 162.905C58.7504 163.202 59.3143 163.434 59.8979 163.596C60.5022 163.758 61.123 163.841 61.7466 163.844C62.3501 163.856 62.95 163.742 63.5112 163.507C63.9907 163.295 64.4124 162.96 64.7381 162.532C65.0632 162.092 65.2979 161.585 65.4271 161.044C65.5706 160.417 65.6384 159.774 65.6288 159.129V157.57C65.2926 158.316 64.747 158.934 64.0658 159.342C63.3949 159.725 62.644 159.926 61.881 159.926C61.118 159.926 60.3671 159.725 59.6962 159.342C59.1008 158.959 58.5907 158.445 58.2005 157.836C57.8045 157.184 57.52 156.464 57.3601 155.709C57.1905 154.9 57.1171 154.073 57.1417 153.245C57.1378 152.386 57.228 151.53 57.4106 150.693C57.5628 149.924 57.8476 149.191 58.2509 148.531C58.6509 147.867 59.2093 147.326 59.8701 146.963C60.5308 146.599 61.2707 146.424 62.0155 146.457C62.7868 146.45 63.5462 146.658 64.2171 147.059C64.8906 147.472 65.4297 148.09 65.7632 148.832V146.723H68.0489V159.129C68.1546 160.919 67.641 162.689 66.6035 164.11C66.0276 164.728 65.3309 165.207 64.5619 165.513C63.7928 165.819 62.9697 165.945 62.1499 165.882C61.4624 165.88 60.7764 165.814 60.0995 165.687C59.4177 165.561 58.7442 165.389 58.0828 165.173L58.2173 162.905ZM60.3012 156.311C60.518 156.737 60.8224 157.107 61.192 157.392C61.6323 157.676 62.1382 157.826 62.6541 157.826C63.17 157.826 63.6759 157.676 64.1162 157.392C64.5026 157.098 64.8285 156.724 65.0742 156.294C65.3088 155.831 65.4786 155.336 65.5784 154.823C65.6758 154.309 65.732 153.787 65.7464 153.263C65.7469 152.715 65.6963 152.169 65.5952 151.632C65.5119 151.088 65.3474 150.562 65.1078 150.073C64.8777 149.615 64.5497 149.221 64.1498 148.92C63.7282 148.607 63.2196 148.452 62.7045 148.477C62.1687 148.454 61.6395 148.609 61.192 148.92C60.7993 149.207 60.4861 149.598 60.2844 150.055C60.0502 150.544 59.8968 151.071 59.8306 151.614C59.7501 152.166 59.7107 152.723 59.713 153.281C59.7237 153.809 59.7686 154.336 59.8475 154.858C59.914 155.373 60.0677 155.871 60.3012 156.329V156.311Z" fill="black"/>
<path d="M79.191 140.892H81.5606V148.885C81.8471 148.134 82.369 147.508 83.0396 147.113C83.6958 146.701 84.444 146.481 85.2076 146.475C86.003 146.454 86.7901 146.649 87.4932 147.042C88.1114 147.399 88.6322 147.918 89.0058 148.548C89.409 149.209 89.6939 149.942 89.8461 150.711C90.1816 152.394 90.1816 154.132 89.8461 155.815C89.7023 156.576 89.4411 157.306 89.073 157.978C88.6856 158.616 88.1619 159.15 87.5436 159.537C86.8547 159.955 86.0694 160.164 85.2748 160.14C84.4998 160.16 83.7356 159.944 83.0732 159.52C82.4029 159.103 81.8648 158.486 81.527 157.747V159.927H79.191V140.892ZM82.1489 156.471C82.3814 156.931 82.7019 157.335 83.09 157.659C83.5049 157.989 84.0156 158.158 84.5353 158.137C85.0678 158.156 85.5922 157.995 86.0311 157.676C86.4215 157.368 86.7381 156.967 86.9554 156.506C87.182 156.008 87.335 155.476 87.4092 154.929C87.4954 154.378 87.5404 153.821 87.5436 153.263C87.5469 152.705 87.5076 152.148 87.426 151.597C87.3575 151.062 87.21 150.542 86.989 150.055C86.7727 149.609 86.4622 149.221 86.0815 148.921C85.6399 148.632 85.1306 148.479 84.611 148.479C84.0913 148.479 83.582 148.632 83.1404 148.921C82.7454 149.222 82.423 149.616 82.1993 150.073C81.9489 150.554 81.773 151.075 81.6783 151.615C81.5772 152.152 81.5265 152.698 81.527 153.245C81.5294 153.792 81.5743 154.337 81.6615 154.876C81.7446 155.431 81.909 155.969 82.1489 156.471Z" fill="black"/>
<path d="M94.9054 153.865C94.9021 154.466 94.9871 155.064 95.1575 155.638C95.3142 156.16 95.5753 156.64 95.9233 157.047C96.2712 157.454 96.6978 157.777 97.1743 157.995C97.7039 158.239 98.2771 158.36 98.8549 158.349C99.4206 158.359 99.9853 158.294 100.535 158.154C101.08 158.028 101.606 157.826 102.098 157.552L102.25 159.501C101.682 159.748 101.09 159.927 100.485 160.033C99.8473 160.154 99.2004 160.213 98.5524 160.21C97.6461 160.216 96.7464 160.047 95.897 159.714C95.1617 159.406 94.5054 158.921 93.9811 158.296C93.4591 157.656 93.0699 156.907 92.8383 156.098C92.5587 155.182 92.4225 154.225 92.4349 153.263C92.4303 152.385 92.5551 151.512 92.8046 150.675C93.0267 149.887 93.392 149.153 93.8802 148.513C94.33 147.892 94.9038 147.384 95.5609 147.024C96.2706 146.633 97.0627 146.438 97.8633 146.457C98.6742 146.44 99.4781 146.616 100.216 146.971C100.832 147.297 101.363 147.778 101.762 148.371C102.168 149.011 102.453 149.727 102.603 150.48C102.77 151.337 102.855 152.21 102.855 153.085V153.883H94.9054V153.865ZM100.603 152.235C100.603 151.748 100.569 151.262 100.502 150.781C100.42 150.337 100.279 149.907 100.082 149.505C99.8752 149.11 99.5665 148.786 99.1915 148.569C98.8165 148.353 98.3908 148.253 97.9642 148.282C97.4987 148.265 97.0382 148.388 96.6365 148.637C96.2661 148.865 95.9454 149.173 95.6953 149.541C95.4266 149.924 95.2272 150.357 95.1071 150.817C94.9896 151.28 94.9219 151.755 94.9054 152.235H100.603Z" fill="black"/>
<path d="M104.82 163.631C105.203 163.745 105.598 163.804 105.996 163.809C106.256 163.818 106.514 163.763 106.75 163.649C106.986 163.536 107.194 163.366 107.357 163.153C107.743 162.54 108.027 161.863 108.198 161.15L108.45 160.335L104.198 146.723H106.803L109.71 157.534L112.601 146.723H115.021L110.416 161.629C110.262 162.14 110.082 162.643 109.878 163.135C109.679 163.615 109.425 164.067 109.122 164.482C108.806 164.918 108.395 165.268 107.924 165.502C107.454 165.737 106.936 165.849 106.416 165.829C105.851 165.83 105.287 165.765 104.736 165.634L104.82 163.631Z" fill="black"/>
<path d="M119.509 159.661C118.437 159.154 117.56 158.279 117.021 157.18C116.066 155.094 115.91 152.701 116.584 150.498C116.845 149.706 117.244 148.973 117.761 148.335C118.28 147.745 118.909 147.274 119.609 146.953C120.379 146.606 121.209 146.431 122.046 146.439C122.903 146.435 123.753 146.603 124.55 146.935C125.253 147.244 125.884 147.709 126.399 148.3C126.912 148.931 127.296 149.667 127.525 150.462C127.783 151.37 127.908 152.315 127.895 153.263C127.906 154.193 127.782 155.12 127.525 156.01C127.289 156.818 126.907 157.571 126.399 158.225C125.896 158.847 125.263 159.339 124.55 159.661C123.759 160.015 122.906 160.19 122.046 160.175C121.176 160.183 120.314 160.008 119.509 159.661ZM119.509 156.612C119.776 157.059 120.131 157.44 120.55 157.729C121.008 158.016 121.531 158.168 122.063 158.168C122.595 158.168 123.118 158.016 123.576 157.729C123.995 157.44 124.351 157.059 124.618 156.612C124.885 156.128 125.078 155.601 125.189 155.053C125.303 154.47 125.359 153.876 125.357 153.28C125.368 152.686 125.318 152.091 125.206 151.508C125.101 150.957 124.908 150.43 124.634 149.948C124.393 149.497 124.046 149.118 123.626 148.849C123.162 148.549 122.624 148.401 122.08 148.424C121.547 148.402 121.019 148.551 120.567 148.849C120.149 149.134 119.798 149.516 119.542 149.966C119.286 150.456 119.093 150.981 118.971 151.526C118.856 152.109 118.795 152.702 118.786 153.298C118.798 153.893 118.859 154.487 118.971 155.07C119.071 155.617 119.253 156.143 119.509 156.63V156.612Z" fill="black"/>
<path d="M130.852 159.856V149.736C130.852 149.222 130.852 148.708 130.852 148.229C130.852 147.751 130.852 147.219 130.852 146.723H133.087V148.991C133.424 148.215 133.97 147.56 134.658 147.109C135.345 146.659 136.144 146.432 136.953 146.457C137.593 146.437 138.229 146.564 138.818 146.829C139.307 147.058 139.73 147.419 140.045 147.875C140.377 148.355 140.606 148.905 140.717 149.487C140.866 150.174 140.939 150.875 140.936 151.579V159.856H138.465V152.146C138.491 151.697 138.491 151.248 138.465 150.799C138.431 150.394 138.316 150.002 138.129 149.647C137.962 149.317 137.712 149.041 137.407 148.849C137.03 148.637 136.607 148.533 136.18 148.548C135.69 148.528 135.206 148.657 134.785 148.92C134.419 149.165 134.109 149.491 133.877 149.877C133.647 150.294 133.487 150.75 133.407 151.224C133.306 151.732 133.256 152.248 133.255 152.766V159.856H130.852Z" fill="black"/>
<path d="M152.702 159.856L152.568 157.676C152.245 158.42 151.711 159.039 151.038 159.448C150.363 159.855 149.598 160.069 148.82 160.068C148.02 160.09 147.23 159.882 146.534 159.466C145.925 159.074 145.407 158.54 145.022 157.906C144.606 157.238 144.315 156.492 144.165 155.708C143.829 154.025 143.829 152.287 144.165 150.604C144.323 149.834 144.613 149.101 145.022 148.442C145.409 147.823 145.927 147.308 146.534 146.935C147.239 146.546 148.025 146.351 148.82 146.368C149.58 146.363 150.325 146.584 150.971 147.006C151.635 147.404 152.151 148.03 152.433 148.778V140.909H154.82V155.939C154.82 156.666 154.82 157.357 154.82 157.995C154.82 158.633 154.82 159.271 154.82 159.874H152.702V159.856ZM147.055 156.506C147.266 156.966 147.577 157.367 147.963 157.676C148.403 157.992 148.926 158.153 149.459 158.137C149.979 158.161 150.49 157.991 150.904 157.658C151.303 157.342 151.63 156.936 151.862 156.471C152.102 155.981 152.266 155.455 152.349 154.911C152.45 154.374 152.501 153.828 152.501 153.28C152.504 152.732 152.447 152.185 152.333 151.65C152.251 151.103 152.081 150.575 151.828 150.09C151.604 149.629 151.275 149.233 150.87 148.938C150.432 148.649 149.925 148.495 149.408 148.495C148.891 148.495 148.384 148.649 147.946 148.938C147.549 149.22 147.235 149.613 147.039 150.072C146.804 150.561 146.651 151.089 146.585 151.632C146.425 152.742 146.425 153.872 146.585 154.982C146.667 155.51 146.82 156.023 147.039 156.506H147.055Z" fill="black"/>
</svg>
