<svg width="53" height="50" viewBox="0 0 53 50" fill="none" xmlns="http://www.w3.org/2000/svg">
<path d="M26.5201 0C41.0795 0 52.9388 11.2243 52.9412 25.0011C52.9412 38.8356 41.053 50.009 26.3345 49.9998C22.8732 50.0129 19.4434 49.3696 16.2428 48.1068C13.0422 46.844 10.1341 44.9867 7.68617 42.642C5.2382 40.2974 3.29875 37.5117 1.97961 34.4456C0.660474 31.3794 -0.0122652 28.0934 0.000169273 24.777C0.0194565 11.088 11.8932 0 26.5201 0ZM26.5201 6.92998C15.9603 6.90688 7.34137 14.9433 7.29074 24.8578C7.24011 34.8301 15.8036 43.0236 26.3369 43.0744C36.9231 43.1253 45.5494 35.0703 45.5903 25.0981C45.6313 15.1258 37.0654 6.95077 26.5201 6.92998Z" fill="#044A8F"/>
<path d="M25.7403 39.7319C20.7401 39.5332 16.3137 37.2741 13.2398 32.7095C12.2513 31.2427 12.4755 29.8428 13.763 29.0851C15.0504 28.3275 16.4608 28.764 17.4058 30.2078C18.5332 31.9458 20.1784 33.32 22.1291 34.153C24.0798 34.986 26.2463 35.2396 28.3489 34.8809C30.3911 34.5362 32.2815 33.6211 33.7828 32.2505C35.284 30.8799 36.3292 29.1149 36.7871 27.1771C36.8883 26.7567 36.9366 26.3247 37.0041 25.8973C37.2283 24.4582 38.3445 23.5504 39.7115 23.6959C41.1581 23.853 42.0863 24.971 41.9078 26.4541C41.363 30.9816 39.1112 34.5506 35.2031 37.1401C32.5463 38.9026 29.5833 39.7111 25.7403 39.7319Z" fill="#E51D3D"/>
</svg>
