<svg width="36" height="34" viewBox="0 0 36 34" fill="none" xmlns="http://www.w3.org/2000/svg">
<path d="M18.0337 0C27.9341 0 35.9984 7.63249 36 17.0007C36 26.4082 27.9161 34.0061 17.9074 33.9999C15.5538 34.0088 13.2215 33.5713 11.0451 32.7126C8.86871 31.8539 6.89121 30.591 5.22659 28.9966C3.56197 27.4022 2.24315 25.508 1.34614 23.423C0.449122 21.338 -0.00834031 19.1035 0.000115105 16.8484C0.0132304 7.53982 8.08734 0 18.0337 0ZM18.0337 4.71239C10.853 4.69668 4.99213 10.1615 4.9577 16.9033C4.92327 23.6845 10.7465 29.2561 17.9091 29.2906C25.1077 29.3252 30.9736 23.8478 31.0014 17.0667C31.0293 10.2856 25.2045 4.72652 18.0337 4.71239Z" fill="#044A8F"/>
<path d="M17.5044 27.0176C14.1042 26.8825 11.0943 25.3463 9.004 22.2424C8.33184 21.2449 8.48431 20.293 9.35976 19.7778C10.2352 19.2626 11.1943 19.5595 11.8369 20.5412C12.6035 21.723 13.7223 22.6575 15.0487 23.224C16.3752 23.7904 17.8484 23.9628 19.2782 23.7189C20.6669 23.4846 21.9524 22.8623 22.9732 21.9303C23.9941 20.9983 24.7048 19.7981 25.0162 18.4803C25.085 18.1945 25.1178 17.9007 25.1637 17.6101C25.3162 16.6315 26.0752 16.0142 27.0048 16.1132C27.9884 16.22 28.6196 16.9802 28.4983 17.9887C28.1278 21.0674 26.5966 23.4943 23.9391 25.2552C22.1324 26.4537 20.1176 27.0035 17.5044 27.0176Z" fill="#E51D3D"/>
</svg>
