<svg width="30" height="28" viewBox="0 0 30 28" fill="none" xmlns="http://www.w3.org/2000/svg">
<path d="M15.0281 0C23.2784 0 29.9986 6.28558 30 14.0006C30 21.7479 23.2634 28.0051 14.9229 27.9999C12.9615 28.0072 11.0179 27.6469 9.20426 26.9398C7.39059 26.2326 5.74268 25.1926 4.35549 23.8795C2.96831 22.5665 1.86929 21.0066 1.12178 19.2895C0.374269 17.5725 -0.00695026 15.7323 9.59211e-05 13.8751C0.0110253 6.20926 6.73945 0 15.0281 0ZM15.0281 3.88079C9.0442 3.86785 4.16011 8.36827 4.13142 13.9204C4.10273 19.5048 8.95539 24.0932 14.9242 24.1217C20.9231 24.1501 25.8113 19.6394 25.8345 14.0549C25.8577 8.47047 21.0037 3.89243 15.0281 3.88079Z" fill="#044A8F"/>
<path d="M14.5883 22.2498C11.7548 22.1385 9.24652 20.8734 7.50464 18.3173C6.94451 17.4958 7.07156 16.7119 7.8011 16.2876C8.53064 15.8633 9.32985 16.1078 9.86539 16.9163C10.5042 17.8896 11.4365 18.6591 12.5419 19.1256C13.6473 19.5921 14.875 19.7341 16.0665 19.5332C17.2237 19.3402 18.295 18.8278 19.1457 18.0602C19.9964 17.2927 20.5886 16.3043 20.8481 15.2191C20.9055 14.9837 20.9328 14.7418 20.9711 14.5024C21.0981 13.6965 21.7306 13.1882 22.5053 13.2697C23.325 13.3576 23.851 13.9837 23.7499 14.8142C23.4411 17.3497 22.1651 19.3483 19.9505 20.7984C18.445 21.7854 16.766 22.2382 14.5883 22.2498Z" fill="#F5F5F5"/>
</svg>
