<svg width="50" height="48" viewBox="0 0 50 48" fill="none" xmlns="http://www.w3.org/2000/svg">
<path d="M25.0468 0C38.7973 0 49.9977 10.7753 50 24.001C50 37.2822 38.7723 48.0087 24.8714 47.9998C21.6024 48.0124 18.3632 47.3948 15.3404 46.1825C12.3177 44.9702 9.57113 43.1872 7.25916 40.9364C4.94719 38.6855 3.11548 36.0112 1.86963 33.0677C0.623781 30.1242 -0.0115838 26.9697 0.000159869 23.7859C0.0183756 10.6444 11.2324 0 25.0468 0ZM25.0468 6.65278C15.0737 6.6306 6.93351 14.3456 6.8857 23.8635C6.83788 33.4369 14.9257 41.3027 24.8737 41.3515C34.8719 41.4003 43.0188 33.6675 43.0575 24.0942C43.0962 14.5208 35.0062 6.67274 25.0468 6.65278Z" fill="white"/>
<path d="M24.3125 38.1426C19.5901 37.9519 15.4096 35.7831 12.5064 31.4011C11.5729 29.9929 11.7846 28.6491 13.0005 27.9217C14.2164 27.1943 15.5485 27.6134 16.441 28.9994C17.5057 30.6679 19.0596 31.9871 20.9019 32.7868C22.7442 33.5865 24.7904 33.8299 26.7762 33.4856C28.7049 33.1547 30.4903 32.2762 31.9081 30.9605C33.326 29.6447 34.3131 27.9503 34.7455 26.09C34.8412 25.6864 34.8867 25.2717 34.9505 24.8614C35.1622 23.4798 36.2164 22.6083 37.5075 22.748C38.8737 22.8988 39.7503 23.9722 39.5818 25.3958C39.0672 29.7423 36.9405 33.1685 33.2496 35.6544C30.7404 37.3465 27.942 38.1226 24.3125 38.1426Z" fill="#E51D3D"/>
</svg>
