<svg width="137" height="63" viewBox="0 0 137 63" fill="none" xmlns="http://www.w3.org/2000/svg">
<path d="M98.3097 49.2143C97.0655 47.9964 95.9422 46.6616 94.9553 45.2286C91.4342 40.1106 89.8066 33.9326 90.3506 27.751C90.8947 21.5693 93.5767 15.768 97.938 11.339C102.299 6.91001 108.069 4.12842 114.261 3.46985C120.452 2.81129 126.681 4.31667 131.882 7.72858C126.862 2.77578 120.082 -0.00169894 113.017 1.33423e-05C112.098 -0.00301267 111.179 0.0446793 110.265 0.14287C104.739 0.707937 99.5235 2.96574 95.3374 6.60566C91.1513 10.2456 88.1998 15.0887 86.889 20.4689C85.5783 25.849 85.9726 31.5017 88.0178 36.6494C90.0629 41.797 93.6585 46.1866 98.3097 49.2143Z" fill="#233E82"/>
<path d="M0 61.9H2.39395L2.5373 59.6714H5.40431L5.49032 58.1714H2.62331L2.69499 57.1571H5.64801L5.74835 55.6714H0.401381L0 61.9Z" fill="#233E82"/>
<path d="M12.6722 57.3857C12.5944 57.1521 12.4834 56.9308 12.3425 56.7286C12.1951 56.5125 12.0107 56.3239 11.7977 56.1714C11.5488 56.011 11.2786 55.886 10.995 55.8C10.6323 55.7242 10.2613 55.6954 9.89118 55.7143H6.4651L6.06372 61.9286H9.4898C9.87597 61.934 10.2613 61.8908 10.6366 61.8C10.9292 61.714 11.2089 61.589 11.468 61.4286C11.696 61.2692 11.9031 61.082 12.0844 60.8714C12.2369 60.6643 12.3712 60.4444 12.4858 60.2143C12.5834 59.9946 12.6556 59.7646 12.7008 59.5286C12.7905 59.2925 12.8577 59.0486 12.9015 58.8C12.9229 58.5672 12.9229 58.3329 12.9015 58.1C12.8624 57.8516 12.7851 57.6106 12.6722 57.3857ZM10.1922 59.4714C10.1726 59.6558 10.1191 59.8349 10.0345 60C9.95739 60.1042 9.85986 60.1916 9.74783 60.2572C9.64423 60.3146 9.53332 60.3578 9.41812 60.3857H8.60103L8.75871 57.1429H9.2461C9.36037 57.1291 9.47588 57.1291 9.59014 57.1429C9.70029 57.1579 9.8043 57.2023 9.89118 57.2714C9.99785 57.3399 10.0864 57.433 10.1492 57.5429C10.2201 57.6921 10.2684 57.851 10.2926 58.0143C10.3223 58.2563 10.3223 58.5009 10.2926 58.7429C10.2907 58.989 10.257 59.2339 10.1922 59.4714Z" fill="#233E82"/>
<path d="M13.3889 61.9H15.7829L16.1843 55.6714H13.7903L13.3889 61.9Z" fill="#233E82"/>
<path d="M26.6775 55.6857L25.6597 59.6571H25.6311L24.9143 55.6857H22.6207L21.3735 59.6571H21.3449L20.8432 55.6857H18.6069L19.6677 61.9H22.291L23.5238 57.8429H23.5668L24.3409 61.9H26.9069L28.8134 55.6857H26.6775Z" fill="#233E82"/>
<path d="M33.3863 57.7714C33.1277 57.5489 32.8249 57.3834 32.4975 57.2857C32.1103 57.1782 31.7098 57.1253 31.3077 57.1286C30.901 57.126 30.4959 57.1788 30.1036 57.2857C29.7588 57.383 29.4371 57.5481 29.1575 57.7714C28.8942 57.9806 28.6791 58.2437 28.5267 58.5429C28.3677 58.859 28.275 59.2041 28.2544 59.5571C28.2253 59.9063 28.2743 60.2576 28.3977 60.5857C28.5078 60.8826 28.69 61.1477 28.9281 61.3572C29.1823 61.575 29.4805 61.7358 29.8026 61.8286C30.1877 61.9476 30.5892 62.0054 30.9924 62C31.4049 62.0052 31.8158 61.9473 32.2108 61.8286C32.5528 61.7313 32.8737 61.5714 33.157 61.3572C33.4202 61.148 33.6353 60.8849 33.7877 60.5857C33.9487 60.2652 34.0414 59.915 34.0601 59.5571C34.081 59.2129 34.0323 58.868 33.9167 58.5429C33.8066 58.246 33.6244 57.9809 33.3863 57.7714ZM31.6518 59.5571V59.9429C31.6362 60.0634 31.6122 60.1828 31.5801 60.3C31.5436 60.3979 31.4847 60.4859 31.4081 60.5571C31.3293 60.6282 31.2276 60.6687 31.1214 60.6714C31.0199 60.6666 30.9234 60.6261 30.849 60.5571C30.7867 60.4825 30.7425 60.3945 30.72 60.3C30.7125 60.1811 30.7125 60.0618 30.72 59.9429C30.7129 59.8144 30.7129 59.6856 30.72 59.5571C30.72 59.4429 30.72 59.3143 30.72 59.1857C30.7402 59.0648 30.769 58.9455 30.806 58.8286C30.8345 58.7303 30.889 58.6415 30.9637 58.5714C31.0015 58.5345 31.0464 58.5053 31.0956 58.4857C31.1448 58.4661 31.1974 58.4564 31.2504 58.4571C31.3039 58.4514 31.358 58.4589 31.408 58.4788C31.458 58.4987 31.5023 58.5305 31.5371 58.5714C31.5747 58.6036 31.6054 58.6429 31.6276 58.6871C31.6497 58.7312 31.6628 58.7793 31.6661 58.8286C31.6811 58.9472 31.6811 59.0671 31.6661 59.1857C31.6661 59.3143 31.6518 59.4429 31.6518 59.5571Z" fill="#233E82"/>
<path d="M38.3892 57.1429C38.212 57.1388 38.036 57.1729 37.8732 57.2429C37.7146 57.3004 37.5687 57.3877 37.4431 57.5C37.3224 57.6097 37.2164 57.7346 37.1278 57.8714C37.0348 58.0049 36.9578 58.1487 36.8984 58.3L36.9701 57.2429H34.8342L34.5331 61.9H36.7837L36.8841 60.2143C36.8938 59.9753 36.9681 59.7433 37.0991 59.5429C37.2073 59.3624 37.367 59.2181 37.5578 59.1286C37.7478 59.0295 37.9599 58.9804 38.1742 58.9857H38.6329L38.7046 57.1429H38.3892Z" fill="#233E82"/>
<path d="M39.0056 61.9H41.2563L41.6863 55.1857H39.4357L39.0056 61.9Z" fill="#233E82"/>
<path d="M45.6141 57.8286C45.4719 57.6009 45.2682 57.4177 45.0264 57.3C44.7757 57.1817 44.5009 57.123 44.2236 57.1286C44.0235 57.1075 43.8217 57.1075 43.6215 57.1286C43.424 57.1877 43.2358 57.2742 43.0625 57.3857C42.8723 57.5053 42.7028 57.6549 42.5607 57.8286C42.4103 58.0345 42.2896 58.2606 42.2024 58.5C42.0953 58.7934 42.0372 59.1022 42.0303 59.4143C42.0006 59.7635 42.0248 60.1152 42.102 60.4572C42.1464 60.715 42.2493 60.9594 42.4031 61.1714C42.5219 61.3544 42.6782 61.5102 42.8618 61.6286C43.0318 61.7397 43.2215 61.8172 43.4208 61.8572C43.6066 61.878 43.7941 61.878 43.9799 61.8572C44.2967 61.8667 44.6097 61.7874 44.8834 61.6283C45.1572 61.4692 45.3805 61.2366 45.5281 60.9571V61.7429H47.5923L48.0367 54.9714H45.7861L45.6141 57.8286ZM45.6141 59.5C45.6055 59.5998 45.6055 59.7002 45.6141 59.8C45.6025 59.915 45.5684 60.0266 45.5138 60.1286C45.4736 60.2282 45.4097 60.3165 45.3274 60.3857C45.2406 60.4506 45.1349 60.4857 45.0264 60.4857C44.9178 60.4857 44.8122 60.4506 44.7253 60.3857C44.6559 60.3139 44.6064 60.2253 44.582 60.1286C44.5604 60.0201 44.5604 59.9085 44.582 59.8V59.5C44.5906 59.4002 44.5906 59.2998 44.582 59.2C44.5953 59.087 44.6242 58.9765 44.668 58.8714C44.7132 58.7747 44.7765 58.6875 44.8543 58.6143C44.9433 58.543 45.0558 58.5074 45.1697 58.5143C45.2219 58.51 45.2744 58.5166 45.3238 58.5339C45.3731 58.5511 45.4184 58.5785 45.4564 58.6143C45.5301 58.6852 45.5844 58.7738 45.6141 58.8714C45.6222 58.9808 45.6222 59.0906 45.6141 59.2V59.5Z" fill="#233E82"/>
<path d="M57.1682 57.3857C57.0952 57.1527 56.989 56.9314 56.8528 56.7286C56.7039 56.5089 56.5141 56.3198 56.2937 56.1714C56.0477 56.0057 55.7767 55.8803 55.4909 55.8C55.1567 55.7288 54.8147 55.7 54.4732 55.7143H50.9754L50.574 61.9286H54.0001C54.3863 61.934 54.7716 61.8908 55.1469 61.8C55.4502 61.7119 55.7397 61.5821 56.007 61.4143C56.235 61.2549 56.4421 61.0677 56.6234 60.8571C56.7765 60.6531 56.9063 60.4327 57.0105 60.2C57.1124 59.9807 57.1894 59.7507 57.2398 59.5143C57.2922 59.2937 57.3257 59.0691 57.3402 58.8429C57.3615 58.61 57.3615 58.3757 57.3402 58.1429C57.3312 57.8819 57.2729 57.625 57.1682 57.3857ZM54.7025 59.4714C54.6607 59.6606 54.5828 59.8401 54.4732 60C54.396 60.1042 54.2985 60.1916 54.1865 60.2571C54.0818 60.3123 53.9712 60.3555 53.8568 60.3857H53.0397L53.269 57.1429H53.7421C53.8562 57.1272 53.972 57.1272 54.0861 57.1429C54.2006 57.1581 54.3092 57.2024 54.4015 57.2714C54.5073 57.3366 54.5919 57.4309 54.6452 57.5429C54.7277 57.6884 54.7812 57.8485 54.8029 58.0143C54.8326 58.2562 54.8326 58.5009 54.8029 58.7429C54.8011 58.989 54.7673 59.2339 54.7025 59.4714Z" fill="#233E82"/>
<path d="M62.5581 57.8857C62.396 57.6946 62.1958 57.5389 61.9704 57.4286C61.7523 57.3187 61.5211 57.2371 61.2823 57.1857C61.0438 57.1651 60.804 57.1651 60.5656 57.1857C60.1966 57.1847 59.8296 57.2377 59.4761 57.3429C59.1534 57.4445 58.8521 57.6043 58.5873 57.8143C58.333 58.0173 58.1232 58.2701 57.9709 58.5572C57.8082 58.8609 57.7198 59.1986 57.7129 59.5429C57.6917 59.7184 57.6917 59.8959 57.7129 60.0714C57.7506 60.4641 57.8943 60.8393 58.1286 61.1572C58.2583 61.3409 58.4241 61.4964 58.616 61.6143C58.8503 61.763 59.1067 61.8739 59.3757 61.9429C59.7237 62.0217 60.0797 62.0601 60.4365 62.0572C60.7755 62.0772 61.1154 62.0772 61.4543 62.0572C61.8265 62.0093 62.1952 61.9378 62.5581 61.8429L62.6441 60.6429C62.3669 60.7354 62.0845 60.8117 61.7984 60.8714C61.5297 60.9282 61.2559 60.9569 60.9813 60.9572C60.7877 60.961 60.5945 60.937 60.4079 60.8857C60.2858 60.8556 60.1728 60.7968 60.0782 60.7143C60.0078 60.6463 59.9538 60.5633 59.9205 60.4714C59.9068 60.3863 59.9068 60.2995 59.9205 60.2143H63.0742V59.8143C63.1034 59.4541 63.0694 59.0915 62.9738 58.7429C62.9093 58.427 62.7664 58.1323 62.5581 57.8857ZM61.1246 59.1572H59.9635V59.0572C59.9626 58.8901 59.9968 58.7246 60.0638 58.5714C60.097 58.4719 60.1564 58.3831 60.2358 58.3143C60.2965 58.2698 60.3644 58.236 60.4365 58.2143C60.4883 58.201 60.5425 58.201 60.5942 58.2143C60.6595 58.1935 60.7296 58.1935 60.7949 58.2143C60.8588 58.2477 60.9169 58.2911 60.9669 58.3429C61.0266 58.4192 61.0705 58.5066 61.0959 58.6C61.1123 58.7376 61.1123 58.8767 61.0959 59.0143L61.1246 59.1572Z" fill="#233E82"/>
<path d="M68.8082 57.7572C68.7437 57.6366 68.656 57.5298 68.5502 57.4429C68.4202 57.3358 68.2687 57.2578 68.1058 57.2143C67.8917 57.1521 67.6693 57.1231 67.4464 57.1286C67.3177 57.1154 67.188 57.1154 67.0593 57.1286L66.6293 57.2572C66.4793 57.329 66.3396 57.4203 66.2136 57.5286C66.0732 57.6678 65.9613 57.8327 65.8839 58.0143V57.2H63.8053L63.5042 61.8572H65.7548L65.9412 59.2C65.9346 59.1335 65.9346 59.0665 65.9412 59C65.933 58.9336 65.933 58.8664 65.9412 58.8C65.9673 58.7359 66.0123 58.6811 66.0702 58.6429C66.1496 58.6186 66.2345 58.6186 66.3139 58.6429C66.3831 58.6165 66.4597 58.6165 66.5289 58.6429C66.5591 58.6582 66.5853 58.6804 66.6052 58.7077C66.6251 58.7351 66.6383 58.7667 66.6436 58.8C66.6516 58.8664 66.6516 58.9336 66.6436 59C66.6513 59.0665 66.6513 59.1336 66.6436 59.2L66.4716 61.8857H68.8082L69.0232 58.6572V58.4143C69.0348 58.3099 69.0348 58.2045 69.0232 58.1C68.9805 57.97 68.9067 57.8524 68.8082 57.7572Z" fill="#233E82"/>
<path d="M72.4923 58.5714H73.5101L73.5961 57.2286H72.5783L72.693 55.4286L70.4137 56.1L70.3277 57.2286H69.5393L69.4533 58.5714H70.2417L70.1414 60.1857C70.1267 60.3521 70.1267 60.5194 70.1414 60.6857C70.1574 60.8567 70.196 61.0248 70.256 61.1857C70.3195 61.3433 70.4175 61.4849 70.5427 61.6C70.69 61.7341 70.8667 61.832 71.0588 61.8857C71.3285 61.9657 71.6089 62.0043 71.8902 62C72.1002 62.0162 72.311 62.0162 72.521 62C72.6811 61.9794 72.8393 61.946 72.994 61.9L73.3094 61.8L73.3954 60.4572H72.8937C72.7887 60.4606 72.6848 60.4359 72.5927 60.3857C72.5295 60.3373 72.4801 60.2733 72.4493 60.2C72.4426 60.1335 72.4426 60.0665 72.4493 60V59.8429L72.4923 58.5714Z" fill="#233E82"/>
<path d="M78.5847 57.6857C78.4125 57.5462 78.2189 57.4353 78.0113 57.3572C77.8186 57.2651 77.6168 57.1933 77.4092 57.1429C77.161 57.1286 76.9121 57.1286 76.6638 57.1429C76.4251 57.1292 76.1858 57.1292 75.9471 57.1429C75.6922 57.1631 75.4386 57.1964 75.1873 57.2429C74.9356 57.2787 74.6866 57.3312 74.4419 57.4L74.3559 58.6143C74.5553 58.5304 74.7615 58.4635 74.9723 58.4143L75.4883 58.3H76.3341C76.4524 58.3115 76.5683 58.3404 76.6781 58.3857C76.7831 58.4076 76.8756 58.469 76.9362 58.5572C76.9721 58.5946 76.9986 58.6401 77.0136 58.6897C77.0285 58.7394 77.0315 58.7919 77.0222 58.8429V58.9857H76.0761C75.8517 58.9716 75.6267 58.9716 75.4023 58.9857C75.1827 59.0097 74.9664 59.0576 74.7573 59.1286C74.5599 59.2006 74.3721 59.2966 74.1982 59.4143C74.0331 59.5362 73.8962 59.6921 73.7968 59.8714C73.685 60.0778 73.626 60.3084 73.6248 60.5429C73.5873 60.7219 73.5873 60.9067 73.6248 61.0857C73.6788 61.2529 73.7722 61.4047 73.8971 61.5286C74.0347 61.6641 74.2014 61.7667 74.3845 61.8286C74.6152 61.9069 74.8576 61.9455 75.1013 61.9429C75.2347 61.9565 75.3692 61.9565 75.5027 61.9429L75.9471 61.8572C76.0981 61.8083 76.2425 61.7411 76.3771 61.6572C76.5243 61.554 76.659 61.4342 76.7785 61.3V61.8572H78.8427L79.0291 58.9C79.0443 58.6529 79.0102 58.4053 78.9287 58.1714C78.8495 57.9873 78.7323 57.8218 78.5847 57.6857ZM76.9075 60.1286C76.9106 60.2794 76.8708 60.4279 76.7928 60.5572C76.7306 60.655 76.6473 60.738 76.5491 60.8C76.4498 60.8196 76.3475 60.8196 76.2481 60.8C76.1804 60.8056 76.1123 60.7971 76.0481 60.775C75.9839 60.7528 75.9251 60.7176 75.8754 60.6714C75.8283 60.6347 75.7917 60.5864 75.7691 60.5313C75.7465 60.4762 75.7386 60.4162 75.7464 60.3572C75.7461 60.2555 75.776 60.1561 75.8324 60.0714C75.8905 59.9992 75.9639 59.9407 76.0474 59.9L76.3054 59.8143H76.9362L76.9075 60.1286Z" fill="#233E82"/>
<path d="M79.6168 61.9H81.8674L82.2975 55.1857H80.0469L79.6168 61.9Z" fill="#233E82"/>
<path d="M87.5441 57.1571H90.4971L90.5831 55.6714H85.2362L84.8491 61.9H87.2287L87.3721 59.6714H90.2391L90.3394 58.1714H87.4724L87.5441 57.1571Z" fill="#233E82"/>
<path d="M95.199 57.8857C95.034 57.6976 94.8345 57.5425 94.6113 57.4286C94.3926 57.3203 94.1616 57.2387 93.9232 57.1857C93.6847 57.1651 93.4449 57.1651 93.2064 57.1857C92.8328 57.1847 92.461 57.2377 92.1026 57.3429C91.7858 57.4481 91.4899 57.6076 91.2282 57.8143C90.9739 58.0173 90.7641 58.2701 90.6118 58.5572C90.4491 58.8609 90.3607 59.1986 90.3538 59.5429C90.3236 59.6934 90.3092 59.8466 90.3108 60C90.3312 60.3965 90.4767 60.7765 90.7265 61.0857C90.8505 61.2743 91.0175 61.431 91.2139 61.5429C91.4482 61.6916 91.7046 61.8025 91.9736 61.8714C92.3215 61.9511 92.6775 61.9894 93.0344 61.9857C93.3734 62.0058 93.7132 62.0058 94.0522 61.9857C94.4244 61.9379 94.7931 61.8663 95.156 61.7714V60.5714C94.8842 60.6656 94.6064 60.742 94.3246 60.8C94.0512 60.8576 93.7725 60.8863 93.4931 60.8857C93.3043 60.8888 93.116 60.8648 92.9341 60.8143C92.812 60.7842 92.699 60.7254 92.6044 60.6429C92.534 60.5749 92.48 60.4919 92.4467 60.4C92.433 60.3148 92.433 60.228 92.4467 60.1429H95.5717V59.7429C95.6009 59.3826 95.567 59.0201 95.4714 58.6714C95.439 58.3929 95.346 58.1248 95.199 57.8857ZM93.7655 59.1572H92.6044V59.0572C92.6092 58.9045 92.6433 58.7542 92.7047 58.6143C92.7379 58.5148 92.7973 58.426 92.8767 58.3572C92.9374 58.3126 93.0053 58.2788 93.0774 58.2572C93.1291 58.2439 93.1834 58.2439 93.2351 58.2572C93.2955 58.2365 93.3611 58.2365 93.4215 58.2572C93.492 58.2865 93.5555 58.3303 93.6078 58.3857C93.6675 58.4621 93.7114 58.5495 93.7368 58.6429C93.7532 58.7805 93.7532 58.9195 93.7368 59.0572L93.7655 59.1572Z" fill="#233E82"/>
<path d="M99.5999 57.8286C99.4615 57.6029 99.263 57.4199 99.0265 57.3C98.7758 57.1817 98.501 57.123 98.2237 57.1286C98.0236 57.1075 97.8218 57.1075 97.6216 57.1286C97.4195 57.1875 97.2265 57.274 97.0482 57.3857C96.8625 57.5057 96.6979 57.6554 96.5609 57.8286C96.4104 58.0345 96.2897 58.2606 96.2025 58.5C96.0954 58.7934 96.0373 59.1022 96.0304 59.4143C95.9846 59.7604 95.9846 60.111 96.0304 60.4572C96.0876 60.7111 96.1895 60.953 96.3315 61.1714C96.4592 61.3519 96.6196 61.5069 96.8045 61.6286C96.9707 61.7371 97.1553 61.8146 97.3493 61.8572C97.5399 61.8773 97.7321 61.8773 97.9227 61.8572C98.2384 61.8597 98.5495 61.7809 98.8258 61.6286C99.0913 61.4635 99.3087 61.232 99.4565 60.9571V61.7429H101.549L101.994 54.9714H99.7862L99.5999 57.8286ZM99.5999 59.5C99.594 59.5999 99.594 59.7001 99.5999 59.8C99.575 59.912 99.5415 60.0218 99.4995 60.1286C99.4594 60.2282 99.3954 60.3165 99.3132 60.3857C99.2293 60.4561 99.1216 60.4919 99.0121 60.4857C98.9578 60.4903 98.903 60.4838 98.8513 60.4666C98.7995 60.4494 98.7518 60.4219 98.7111 60.3857C98.6375 60.3148 98.5832 60.2263 98.5534 60.1286C98.5385 60.0196 98.5385 59.909 98.5534 59.8C98.5391 59.7005 98.5391 59.5995 98.5534 59.5C98.5593 59.4001 98.5593 59.2999 98.5534 59.2C98.5783 59.0881 98.6118 58.9782 98.6538 58.8714C98.6939 58.7718 98.7579 58.6836 98.8401 58.6143C98.9069 58.5817 98.981 58.567 99.0551 58.5714C99.1095 58.5668 99.1642 58.5733 99.216 58.5905C99.2678 58.6077 99.3155 58.6353 99.3562 58.6714C99.4298 58.7424 99.4841 58.8309 99.5139 58.9286C99.5219 59.038 99.5219 59.1478 99.5139 59.2572C99.5334 59.3371 99.5478 59.4182 99.5569 59.5H99.5999Z" fill="#233E82"/>
<path d="M107.197 57.8857C107.032 57.6976 106.833 57.5425 106.61 57.4286C106.386 57.3202 106.15 57.2387 105.907 57.1857C105.674 57.165 105.439 57.165 105.205 57.1857C104.831 57.1847 104.459 57.2377 104.101 57.3429C103.781 57.4506 103.481 57.6099 103.212 57.8143C102.962 58.0178 102.757 58.2707 102.61 58.5572C102.448 58.8609 102.359 59.1986 102.352 59.5429C102.338 59.7188 102.338 59.8955 102.352 60.0714C102.368 60.2624 102.411 60.4501 102.481 60.6286C102.548 60.8188 102.645 60.9972 102.768 61.1572C102.903 61.3413 103.074 61.4967 103.27 61.6143C103.503 61.7655 103.759 61.8766 104.029 61.9429C104.377 62.0225 104.733 62.0608 105.09 62.0571C105.424 62.0777 105.759 62.0777 106.094 62.0571C106.471 62.0107 106.844 61.9391 107.212 61.8429V60.6429C106.94 60.7371 106.662 60.8134 106.38 60.8714C106.107 60.929 105.828 60.9577 105.549 60.9571C105.36 60.9602 105.172 60.9362 104.99 60.8857C104.868 60.8556 104.755 60.7968 104.66 60.7143C104.585 60.65 104.531 60.5658 104.502 60.4714C104.489 60.3863 104.489 60.2995 104.502 60.2143H107.656V59.8143C107.678 59.4541 107.645 59.0927 107.556 58.7429C107.508 58.4323 107.385 58.1381 107.197 57.8857ZM105.764 59.1572H104.646V59.0571C104.621 58.8962 104.621 58.7324 104.646 58.5714C104.689 58.4734 104.752 58.3856 104.832 58.3143C104.891 58.2671 104.96 58.233 105.033 58.2143C105.085 58.201 105.139 58.201 105.191 58.2143C105.251 58.1936 105.317 58.1936 105.377 58.2143C105.447 58.2437 105.511 58.2875 105.563 58.3429C105.613 58.4232 105.651 58.5096 105.678 58.6C105.701 58.7371 105.701 58.8772 105.678 59.0143L105.764 59.1572Z" fill="#233E82"/>
<path d="M112.358 57.1429H112C111.822 57.1374 111.646 57.1716 111.484 57.2429C111.325 57.3004 111.179 57.3877 111.054 57.5C110.932 57.6133 110.822 57.7376 110.724 57.8714C110.641 58.0083 110.569 58.1517 110.509 58.3V57.2429H108.43L108.129 61.9H110.38L110.495 60.2143C110.5 59.9766 110.569 59.7447 110.695 59.5429C110.807 59.3655 110.966 59.2222 111.154 59.1286C111.349 59.0295 111.566 58.9804 111.785 58.9857H112.243L112.358 57.1429Z" fill="#233E82"/>
<path d="M117.074 57.6857C116.909 57.5435 116.72 57.4321 116.515 57.3572C116.298 57.27 116.072 57.2077 115.841 57.1714C115.593 57.1572 115.344 57.1572 115.096 57.1714C114.857 57.1577 114.618 57.1577 114.379 57.1714C114.124 57.1916 113.871 57.225 113.62 57.2714C113.368 57.3073 113.119 57.3598 112.874 57.4286L112.788 58.6429C112.988 58.559 113.194 58.4921 113.405 58.4429L113.921 58.3286H114.809C114.928 58.3401 115.044 58.369 115.153 58.4143C115.258 58.4361 115.351 58.4976 115.411 58.5857C115.447 58.6232 115.474 58.6686 115.489 58.7183C115.504 58.7679 115.507 58.8204 115.497 58.8714V59.0143H114.551C114.327 59.0002 114.102 59.0002 113.878 59.0143C113.658 59.0383 113.442 59.0862 113.232 59.1572C113.035 59.2292 112.847 59.3252 112.673 59.4429C112.508 59.5648 112.371 59.7207 112.272 59.9C112.155 60.1051 112.091 60.3357 112.086 60.5714C112.055 60.7511 112.055 60.9346 112.086 61.1143C112.14 61.2815 112.233 61.4333 112.358 61.5572C112.496 61.6927 112.662 61.7953 112.845 61.8571C113.076 61.9354 113.319 61.9741 113.562 61.9714C113.696 61.9851 113.83 61.9851 113.964 61.9714L114.408 61.8857C114.559 61.8369 114.703 61.7697 114.838 61.6857C114.984 61.586 115.114 61.4657 115.225 61.3286V61.8857H117.289L117.547 58.9286C117.563 58.6815 117.528 58.4339 117.447 58.2C117.366 58.0011 117.238 57.8246 117.074 57.6857ZM115.411 60.1286C115.408 60.2785 115.369 60.4254 115.297 60.5571C115.234 60.655 115.151 60.738 115.053 60.8C114.949 60.8216 114.842 60.8216 114.738 60.8C114.601 60.8065 114.468 60.7604 114.365 60.6714C114.322 60.6324 114.288 60.5833 114.268 60.5285C114.248 60.4737 114.242 60.4149 114.25 60.3572C114.244 60.2547 114.274 60.1533 114.336 60.0714C114.394 59.9992 114.468 59.9407 114.551 59.9C114.632 59.8568 114.719 59.8278 114.809 59.8143H115.44L115.411 60.1286Z" fill="#233E82"/>
<path d="M120.93 55.4286L118.637 56.1L118.565 57.2286H117.777L117.691 58.5714H118.479L118.379 60.1857C118.364 60.3521 118.364 60.5194 118.379 60.6857C118.388 60.8577 118.427 61.0269 118.493 61.1857C118.551 61.3427 118.645 61.4843 118.766 61.6C118.918 61.7344 119.1 61.8321 119.296 61.8857C119.566 61.9666 119.846 62.0052 120.128 62C120.338 62.0157 120.548 62.0157 120.758 62C120.914 61.978 121.067 61.9446 121.217 61.9L121.547 61.8L121.633 60.4572H121.117C121.016 60.4609 120.917 60.4361 120.83 60.3857C120.763 60.3409 120.713 60.2757 120.687 60.2C120.673 60.134 120.673 60.066 120.687 60V59.8429L120.773 58.5286H121.791L121.877 57.1857H120.859L120.93 55.4286Z" fill="#233E82"/>
<path d="M122.378 56.7429H124.629L124.729 55.1857H122.479L122.378 56.7429Z" fill="#233E82"/>
<path d="M122.049 61.9H124.299L124.6 57.2286H122.35L122.049 61.9Z" fill="#233E82"/>
<path d="M130.205 57.7714C129.947 57.5489 129.644 57.3834 129.316 57.2857C128.929 57.1782 128.529 57.1253 128.127 57.1286C127.72 57.126 127.315 57.1788 126.922 57.2857C126.578 57.383 126.256 57.5481 125.976 57.7714C125.709 57.9765 125.493 58.2405 125.346 58.5429C125.187 58.859 125.094 59.2041 125.073 59.5571C125.044 59.9063 125.093 60.2576 125.217 60.5857C125.327 60.8826 125.509 61.1477 125.747 61.3572C126.001 61.575 126.299 61.7358 126.621 61.8286C127.007 61.9476 127.408 62.0054 127.811 62C128.224 62.0052 128.635 61.9473 129.03 61.8286C129.372 61.7313 129.693 61.5714 129.976 61.3572C130.239 61.148 130.454 60.8849 130.607 60.5857C130.768 60.2652 130.86 59.915 130.879 59.5571C130.9 59.2129 130.851 58.868 130.736 58.5429C130.625 58.246 130.443 57.9809 130.205 57.7714ZM128.471 59.5571V59.9429C128.479 60.0618 128.479 60.1811 128.471 60.3C128.434 60.3979 128.375 60.4859 128.299 60.5571C128.22 60.6282 128.118 60.6687 128.012 60.6714C127.91 60.6666 127.814 60.6261 127.74 60.5571C127.677 60.4825 127.633 60.3945 127.611 60.3C127.603 60.1811 127.603 60.0618 127.611 59.9429C127.603 59.8144 127.603 59.6856 127.611 59.5571C127.611 59.4429 127.611 59.3143 127.611 59.1857C127.631 59.0648 127.66 58.9455 127.697 58.8286C127.725 58.7303 127.78 58.6415 127.854 58.5714C127.892 58.5345 127.937 58.5053 127.986 58.4857C128.035 58.4661 128.088 58.4564 128.141 58.4571C128.192 58.4538 128.243 58.4623 128.291 58.4822C128.338 58.502 128.38 58.5326 128.413 58.5714C128.451 58.6036 128.482 58.6429 128.504 58.6871C128.526 58.7312 128.539 58.7793 128.542 58.8286C128.557 58.9472 128.557 59.0671 128.542 59.1857C128.485 59.3143 128.471 59.4429 128.471 59.5571Z" fill="#233E82"/>
<path d="M136.685 57.7572C136.62 57.6366 136.532 57.5298 136.427 57.4429C136.297 57.3358 136.145 57.2578 135.982 57.2143C135.767 57.1569 135.545 57.1328 135.323 57.1429C135.194 57.1297 135.064 57.1297 134.936 57.1429L134.506 57.2714C134.356 57.3433 134.216 57.4346 134.09 57.5429C133.95 57.6821 133.838 57.847 133.76 58.0286V57.2143H131.653L131.352 61.8714H133.603L133.775 59.1857C133.768 59.1192 133.768 59.0522 133.775 58.9857C133.766 58.9193 133.766 58.8521 133.775 58.7857C133.801 58.7216 133.846 58.6668 133.904 58.6286C133.983 58.6043 134.068 58.6043 134.147 58.6286C134.217 58.6022 134.293 58.6022 134.362 58.6286C134.393 58.6439 134.419 58.6662 134.439 58.6935C134.459 58.7208 134.472 58.7524 134.477 58.7857C134.485 58.8522 134.485 58.9193 134.477 58.9857C134.485 59.0522 134.485 59.1193 134.477 59.1857L134.305 61.8714H136.556L136.771 58.6429V58.4C136.782 58.2956 136.782 58.1902 136.771 58.0857C136.765 57.9715 136.735 57.8597 136.685 57.7572Z" fill="#233E82"/>
<path d="M61.139 51.5143L72.994 51.4571L79.2011 19.5572L67.9481 19.2857L61.139 51.5143Z" fill="#233E82"/>
<path d="M81.7384 7.35716L70.2704 7.2143L68.3782 15.9143L79.8319 16.0429L81.7384 7.35716Z" fill="#233E82"/>
<path d="M43.2632 51.0429H54.7312L63.3322 7.34287H52.0935L48.7391 23C39.0487 12.0286 25.502 21.9857 24.5703 35.7143C24.2836 39.9 24.1259 44.2857 27.8673 48.7143C28.7304 49.7746 29.8243 50.6252 31.0661 51.2019C32.3079 51.7786 33.665 52.0662 35.0348 52.0429C38.6616 52.0429 40.5538 51.9714 43.2488 48.2143L43.2632 51.0429ZM40.1381 43.3857C37.1564 43.3857 35.2642 39.7 35.9236 35.1572C36.583 30.6143 39.5647 26.9286 42.5464 26.9286C45.5281 26.9286 47.4203 30.6286 46.7609 35.1572C46.1015 39.6857 43.1055 43.3857 40.1381 43.3857Z" fill="#233E82"/>
<path d="M25.6167 18.8286H19.8827C20.1121 15.1429 22.0616 14.8143 26.7062 14.9572L28.2114 7.25716C12.0844 5.5143 9.93418 9.0143 8.1423 18.8286H3.21105L1.50518 26.4429H6.1784L1.07513 51.0429H12.5432L17.6464 26.4429H24.2692L25.6167 18.8286Z" fill="#233E82"/>
<path d="M114.279 39.6857C110.059 39.6813 105.907 38.6208 102.205 36.6015C98.5036 34.5822 95.3699 31.6688 93.0918 28.1286C92.9217 29.2204 92.8354 30.3236 92.8337 31.4286C92.8202 36.2639 94.3504 40.9782 97.2032 44.8895C100.056 48.8007 104.083 51.7062 108.703 53.1855C113.322 54.6649 118.294 54.6414 122.899 53.1185C127.504 51.5957 131.504 48.6523 134.319 44.7143C135.997 41.8572 136.814 39 132.886 43.3714C131.027 45.2302 128.814 46.6988 126.376 47.6903C123.938 48.6819 121.326 49.1763 118.693 49.1443C116.06 49.1124 113.461 48.5547 111.048 47.5042C108.635 46.4538 106.458 44.9319 104.646 43.0286C107.952 45.0543 111.776 46.0815 115.655 45.9857C125.69 45.5 133.087 39.3714 136.398 30.3714C137.444 27.1143 137.086 25.9 135.523 28.0286C133.25 31.5937 130.112 34.5305 126.399 36.5678C122.686 38.6052 118.518 39.6775 114.279 39.6857Z" fill="#ED1C24"/>
</svg>
