<svg width="154" height="57" viewBox="0 0 154 57" fill="none" xmlns="http://www.w3.org/2000/svg">
<path d="M69.4831 1.99756H81.2508V40.0665H69.4831V1.99756Z" fill="#1E64B0"/>
<path d="M97.8519 44.3336L84.4862 44.4406L81.6458 50.3597L69.4688 50.4703L84.6442 13.7714H97.0834L110.973 50.9555L99.4427 51.0982L97.8519 44.3336ZM95.0725 36.2596L90.239 23.3475L86.3823 36.2596H95.0725Z" fill="#1E64B0"/>
<path d="M135.119 19.3516C135.119 29.6412 127.255 35.8957 114.392 35.8957H102.043V2.74324L114.392 2.72183C127.255 2.68259 135.119 8.97983 135.119 19.3516ZM123.269 19.3087C123.269 11.7699 120.928 9.67556 114.144 9.67556L113.132 9.70767V27.629L114.238 27.6004C120.942 27.604 123.258 26.1126 123.258 19.3016L123.269 19.3087Z" fill="#1E64B0"/>
<path d="M126.519 51.5514C125.032 49.589 122.54 46.824 122.54 43.3739C124.799 43.4274 131.474 43.3453 131.474 43.3453C132.153 44.5084 132.81 48.2582 139.421 48.4723C141.608 48.5437 143.73 46.3316 143.662 44.7724C143.508 40.9834 140.208 40.409 136.412 38.7464C131.507 36.6592 126.788 34.1331 126.788 28.3639C126.788 21.7384 133.158 17.011 140.513 17.011C146.427 17.011 150.55 19.2588 152.557 23.5402C153.534 25.2242 154.033 27.1402 153.993 29.0846C150.546 29.0846 145.709 29.1917 145.709 29.1917C144.578 25.688 142.667 25.21 140.814 25.21C138.699 25.21 137.029 27.3507 137.001 28.6708C136.943 31.2111 139.321 31.443 143.504 33.177C149.562 35.6923 153.993 38.9069 153.993 44.5584C153.993 51.8475 147.12 56.3822 139.356 56.3822C132.99 56.3822 128.26 53.7349 126.519 51.5514Z" fill="#1E64B0"/>
<path d="M40.498 3.12856C39.963 2.9252 39.3992 2.80032 38.8641 2.59695C38.5014 2.68615 38.1352 2.77535 37.7725 2.86097C36.0775 2.75037 34.4257 3.01796 32.7774 3.38902C32.7523 3.22846 32.7235 3.06791 32.6948 2.90736C32.7128 1.9369 31.4128 1.94404 31.2979 1.00213C31.6068 0.980721 31.912 0.959314 32.2172 0.937907C29.8939 0.477655 27.5705 0.520469 25.2435 0.9165C25.064 0.927203 24.8808 0.934339 24.6977 0.945042C23.9436 0.820168 23.2362 1.08062 22.5287 1.24117C17.4188 2.40786 12.8439 4.58068 9.14875 8.37686C7.50048 9.70767 6.16823 11.3168 5.03348 13.0936C4.09982 14.4208 3.30622 15.8123 2.65625 17.2679C6.98338 7.3743 16.9089 0.456248 28.4646 0.456248C32.7738 0.45268 36.8496 1.41243 40.498 3.12856Z" fill="#C4E7F1"/>
<path d="M56.6015 28.4032C56.6015 28.9597 56.5835 29.5128 56.5512 30.0658C56.5332 30.3441 56.5153 30.6259 56.4901 30.9042C56.4363 31.5215 56.3609 32.128 56.2639 32.7345C56.1095 33.7157 55.9048 34.679 55.6498 35.6245C55.4883 36.2346 55.3051 36.8304 55.104 37.4155C54.7844 38.3432 54.4181 39.2494 54.0088 40.1307C53.6712 40.8585 53.3013 41.5649 52.9028 42.2571C52.5544 42.8708 52.181 43.4666 51.7824 44.0482C46.7586 51.4265 38.2803 56.293 28.6528 56.3537C28.6493 56.3572 28.6493 56.3572 28.6493 56.3537C28.6457 56.3572 28.6457 56.3537 28.6457 56.3537C28.6421 56.3572 28.6421 56.3572 28.6385 56.3537C28.6349 56.3572 28.6349 56.3537 28.6349 56.3537C28.5738 56.3572 28.52 56.3572 28.4625 56.3572C28.1465 56.3572 27.8377 56.3501 27.5289 56.3394H27.5253C26.7029 56.3144 25.8878 56.2502 25.0834 56.1539C24.8356 56.1253 24.5879 56.0932 24.3401 56.0575C24.3365 56.0575 24.3329 56.0575 24.3293 56.054C23.6003 55.9505 22.8857 55.8149 22.1783 55.6544C22.1747 55.6508 22.1711 55.6508 22.1675 55.6508C21.4529 55.4902 20.7455 55.2976 20.0524 55.0835C19.8478 55.0229 19.6503 54.9586 19.4492 54.8908C19.2732 54.8302 19.1008 54.7731 18.9249 54.7089C17.6285 54.2451 16.3753 53.6885 15.1795 53.0498C15.0179 52.9606 14.8563 52.875 14.6911 52.7858C14.3248 52.5824 13.9657 52.3684 13.6066 52.1472C13.5994 52.1436 13.5887 52.14 13.5815 52.1293C13.2655 51.9367 12.9603 51.7333 12.6514 51.5264C12.6514 51.5264 12.6514 51.5264 12.6478 51.5264C12.3139 51.3016 11.9907 51.0697 11.6675 50.8306C11.6603 50.8271 11.6603 50.8235 11.6531 50.8199C11.6495 50.8199 11.6495 50.8199 11.6495 50.8164C11.3012 50.5595 10.9637 50.2955 10.6333 50.0243C10.6297 50.0243 10.6297 50.0207 10.6261 50.0207C10.2634 49.7282 9.91151 49.4249 9.56319 49.1145C9.55959 49.1109 9.556 49.1109 9.556 49.1074C9.18613 48.772 8.82703 48.433 8.47871 48.0798C8.47512 48.0763 8.47512 48.0763 8.47153 48.0727C8.21298 47.8122 7.95802 47.5482 7.70665 47.2771C7.29728 46.8382 6.90586 46.3815 6.52881 45.9141C6.51444 45.8927 6.50008 45.8749 6.48212 45.8535C6.26307 45.5823 6.05121 45.3112 5.84652 45.0293C5.84293 45.0257 5.83934 45.0222 5.83575 45.0186C5.54847 44.6368 5.27555 44.248 5.00982 43.8519L5.00623 43.8484C4.52863 43.1312 4.07976 42.3962 3.66679 41.6363C3.65961 41.6256 3.64884 41.6113 3.64525 41.597C3.18919 40.7479 2.77264 39.8773 2.40277 38.9782C2.23399 38.5608 2.06881 38.1398 1.92158 37.7188C1.7528 37.2407 1.5912 36.7519 1.44757 36.2595C1.44397 36.2524 1.44397 36.2488 1.44397 36.2417C1.33984 35.8814 1.23929 35.5246 1.14592 35.1571V35.1535C1.02383 34.6647 0.9161 34.1724 0.819144 33.6729C0.819144 33.6693 0.819144 33.6657 0.815553 33.6657C0.693459 33.0235 0.589321 32.3742 0.51391 31.7177C0.510319 31.7105 0.51032 31.6998 0.51032 31.6927C0.391817 30.7008 0.33077 29.6947 0.316406 28.6743V28.3889C0.316406 28.1035 0.319998 27.818 0.330771 27.5362C0.330771 27.5183 0.33077 27.5005 0.334361 27.4862C0.337952 27.3756 0.341543 27.2686 0.345134 27.158C0.395408 26.0412 0.506728 24.9423 0.682687 23.8613C0.786825 23.3725 0.919691 22.8837 1.09924 22.4056C1.08129 23.187 1.04538 23.9755 1.94312 24.3608C2.33095 24.0682 2.22322 23.6401 2.21245 23.2583C2.18731 22.4734 2.53563 22.1059 3.32565 22.1523C3.41902 21.9703 3.51238 21.7848 3.60575 21.6028C3.56625 21.2247 3.73502 20.7894 3.32924 20.5004C2.91987 20.7929 2.43149 20.5254 1.98262 20.5254C1.95748 20.5254 1.93235 20.5289 1.90721 20.5289C1.88207 20.5325 1.85694 20.5325 1.83539 20.5361C1.81385 20.5396 1.79589 20.5432 1.77434 20.5468C1.75639 20.5503 1.74203 20.5539 1.72766 20.5575C1.70971 20.5646 1.69175 20.5682 1.6738 20.5789C1.65943 20.5824 1.64866 20.5896 1.6343 20.5967C1.61993 20.6038 1.60916 20.6074 1.5948 20.6145C1.54093 20.6467 1.48707 20.6859 1.4332 20.7359C1.42243 20.7466 1.41166 20.7573 1.40088 20.768V20.7644C1.58043 20.0901 1.78871 19.4229 2.02571 18.77C2.0329 18.7521 2.03649 18.7343 2.04367 18.7165C2.10472 18.5523 2.16576 18.3846 2.23399 18.2205C2.27708 18.1099 2.32377 17.9958 2.37045 17.8851C2.40995 17.7888 2.45304 17.6889 2.49254 17.5926C2.49254 17.589 2.49254 17.5854 2.49613 17.5819C2.50331 17.5605 2.51409 17.5426 2.52127 17.5212C2.56077 17.4285 2.60386 17.3321 2.64336 17.2358C3.29333 15.7766 4.08694 14.3887 5.02059 13.0614C6.15534 11.2846 7.4876 9.67554 9.13586 8.34473C12.831 4.54854 17.4059 2.37573 22.5159 1.20904C23.2197 1.04849 23.9307 0.788035 24.6848 0.912909C24.8644 0.902206 25.0475 0.89507 25.2306 0.884366C27.5576 0.488335 29.881 0.445521 32.2043 0.905773C31.8991 0.92718 31.5903 0.94502 31.285 0.969995C31.4035 1.91191 32.6999 1.90477 32.6819 2.87522C32.7071 3.03578 32.7358 3.19633 32.7645 3.35688C34.4092 2.98583 36.0646 2.71824 37.7596 2.82884C38.1259 2.73965 38.4885 2.65045 38.8512 2.56482C39.3863 2.76819 39.9501 2.89663 40.4851 3.09643C40.4887 3.1 40.4923 3.1 40.4959 3.10357C40.7401 3.21774 40.9843 3.33904 41.2213 3.46035C41.2249 3.46035 41.2249 3.46035 41.2249 3.46392L42.6182 4.2203C42.6218 4.22387 42.6218 4.22387 42.6254 4.22387C43.638 4.809 44.6076 5.45834 45.5341 6.16121C46.4677 6.87121 47.3583 7.64186 48.195 8.4589C48.985 9.23312 49.7319 10.0502 50.425 10.9136C51.0713 11.7163 51.6782 12.5548 52.2348 13.4289C52.8022 14.3173 53.3193 15.2414 53.7825 16.1904C54.3032 17.2536 54.7557 18.3525 55.1399 19.4871C55.1399 19.4871 55.1399 19.4871 55.1399 19.4907C55.9479 21.8918 56.4399 24.4393 56.562 27.0795C56.5907 27.5362 56.6015 27.9679 56.6015 28.4032Z" fill="#365CA8"/>
<path d="M56.6017 28.4032C56.6017 28.9597 56.5838 29.5128 56.5514 30.0658C56.002 30.419 55.7147 30.9791 55.4562 31.5928C53.1616 37.0445 49.9153 41.8111 45.2039 45.5003C36.7795 52.1008 27.2849 54.4127 16.7239 52.5325C15.9087 52.3862 15.054 51.8403 14.1922 52.4362C13.9983 52.347 13.8044 52.2542 13.6177 52.1507C13.6105 52.1472 13.5997 52.1436 13.5925 52.1329C13.2693 51.9545 12.9605 51.7547 12.6625 51.5299C12.6625 51.5299 12.6625 51.5299 12.6589 51.5299C12.5045 51.4122 12.35 51.2837 12.1992 51.1553C12.5511 50.7022 13.0287 50.795 13.4668 50.9305C18.0848 52.3826 22.7818 52.8893 27.6081 52.2328C32.2189 51.6049 36.5712 50.2955 40.5285 47.8122C42.4712 46.9988 44.159 45.8356 45.5235 44.2265C46.9635 43.4523 48.0731 42.3499 48.8524 40.9192C50.4683 39.5634 51.6426 37.8865 52.4613 35.9563C52.9892 35.7315 53.0826 35.1963 53.3303 34.7718C54.4902 32.7916 55.133 30.5938 56.0631 28.5138C56.0667 28.3282 56.0703 28.1427 56.0703 27.9572C56.239 27.6753 56.4078 27.3899 56.5766 27.108C56.5909 27.5362 56.6017 27.9679 56.6017 28.4032Z" fill="#63CAE8"/>
<path d="M56.5503 30.0658C56.5324 30.3441 56.5144 30.6259 56.4893 30.9042C56.0907 31.1825 55.9399 31.6606 55.7388 32.1173C53.1892 37.8758 49.5587 42.778 44.4451 46.6028C39.6512 50.1849 34.2934 52.3398 28.4329 53.2639C25.5314 53.7206 22.5868 53.742 19.6278 53.4245C18.4859 53.2996 17.2434 52.4968 16.062 53.4066C15.7604 53.3032 15.4659 53.189 15.1858 53.0498C15.0206 52.9678 14.8554 52.8822 14.6974 52.7858C14.5215 52.6788 14.3527 52.5646 14.1875 52.4362C15.0493 51.8403 15.904 52.3862 16.7191 52.5325C27.2766 54.4128 36.7712 52.1008 45.1992 45.5003C49.9106 41.8076 53.1568 37.0445 55.4515 31.5928C55.71 30.9827 56.0009 30.419 56.5503 30.0658Z" fill="#5EC9E5"/>
<path d="M56.4898 30.9042C56.4359 31.5215 56.3605 32.128 56.2635 32.7345C55.9691 33.1555 55.6495 33.5587 55.3874 33.9976C53.8612 36.5521 52.4104 39.1317 50.4713 41.4436C46.3453 46.3566 41.2497 49.8174 35.2383 51.9688C29.7908 53.9204 24.1853 54.5127 18.4397 53.6243C18.0052 53.5565 17.4989 53.4601 17.1793 53.9454C16.8058 53.767 16.436 53.585 16.0625 53.4031C17.2403 52.4933 18.4864 53.2996 19.6283 53.4209C22.5873 53.742 25.5319 53.717 28.4334 53.2604C34.2939 52.3363 39.6517 50.1813 44.4456 46.5992C49.5592 42.7745 53.1861 37.8758 55.7393 32.1137C55.9404 31.6606 56.0912 31.1861 56.4898 30.9042Z" fill="#5DC9E5"/>
<path d="M56.5697 27.1045C56.4009 27.3864 56.2322 27.6718 56.0634 27.9536C55.9808 27.8609 55.8946 27.7645 55.812 27.6718C55.8048 26.9404 55.7977 26.209 55.7905 25.4811C55.0902 24.6855 55.3344 23.5224 54.6809 22.7125C54.6019 22.0489 54.1997 21.8455 53.582 21.9418C54.2248 21.5351 54.8389 21.1391 54.7563 20.2079C54.7527 20.1864 54.7527 20.165 54.7599 20.1436C54.7599 20.1329 54.7635 20.1222 54.7671 20.1115C54.7742 20.083 54.785 20.0509 54.7994 20.0188C54.8066 20.0045 54.8101 19.9938 54.8173 19.9795C54.8245 19.9652 54.8353 19.9545 54.8425 19.9403C54.8604 19.9153 54.8784 19.8867 54.8963 19.8582V19.8546C54.9179 19.8297 54.9358 19.8011 54.9574 19.7726C54.9753 19.7512 54.9897 19.7333 55.0077 19.7119C55.0328 19.6798 55.0579 19.6477 55.0831 19.6156C55.1082 19.5835 55.1333 19.5514 55.1549 19.5228C55.9593 21.9169 56.4512 24.4643 56.5697 27.1045Z" fill="#3B84C5"/>
<path d="M28.0411 2.30797C26.9135 2.49349 25.8614 2.87525 24.8631 3.38189C24.6979 3.46395 24.5327 3.55671 24.3675 3.64591C24.2023 3.73867 24.0407 3.83143 23.8791 3.92777C23.8432 3.90279 23.8073 3.87782 23.775 3.85284C23.6673 3.77792 23.5595 3.71726 23.4518 3.66375C22.4499 3.16425 21.3654 3.44968 20.2989 3.56028C19.0924 3.68159 18.0222 4.54144 16.6792 4.11329C16.2734 3.98128 15.4511 4.30596 15.4188 4.89465C15.3793 5.5547 14.9735 5.71883 14.5713 6.00425C9.21715 9.79687 6.99074 15.1023 7.89208 21.4066C8.73237 27.3007 12.2443 31.4965 17.8894 33.7121C19.4263 34.3151 21.0351 35.0715 22.7839 34.3008C22.8772 34.2116 22.9634 34.1224 23.0568 34.0368C23.5452 34.3401 23.9474 34.7004 23.9222 35.3426C23.2579 36.5878 22.0765 36.0027 21.2398 35.8814C15.1638 34.9966 10.8295 31.6606 8.05726 26.2625C7.26007 24.7069 6.82915 23.03 6.409 21.346C6.31564 20.7038 6.22227 20.0687 6.12891 19.4265C6.14686 15.8729 7.05897 12.5762 8.9586 9.55069C9.17047 9.21531 9.69475 8.86566 9.16329 8.37687C12.8584 4.58068 17.4333 2.40787 22.5433 1.24118C23.2471 1.08063 23.9581 0.820174 24.7122 0.945049C24.7625 1.66575 25.3227 1.48736 25.7393 1.49806C26.2312 1.5052 26.7268 1.30897 27.2152 1.53018C27.1649 1.70857 26.8237 1.74425 26.9602 2.02967C27.3193 2.10817 27.7574 1.9155 28.0411 2.30797Z" fill="#C4E7F1"/>
<path d="M6.09367 45.3362C5.7238 44.7831 5.10256 44.3978 4.98047 43.6771C5.55503 43.6129 6.02185 43.802 6.521 44.1124C12.3061 47.7516 18.5867 49.5962 25.4742 49.1787C26.2247 49.1323 27.0686 49.2929 27.4852 48.3974C28.4009 47.8907 29.5177 48.3046 30.4298 47.7694C33.105 47.7623 35.3889 46.6027 37.6584 45.379C38.0067 45.1899 38.3407 45.0258 38.0283 44.5584C38.9188 44.5905 39.2708 43.9304 39.6478 43.3025C40.208 43.9911 40.7 43.3417 41.0268 43.0991C42.14 42.2856 43.3501 41.5507 44.1365 40.359C44.3233 40.5445 44.5064 40.7301 44.6896 40.9156C44.9732 41.9966 43.9821 42.3606 43.4291 42.7887C36.8397 47.8979 29.471 50.4667 20.9927 49.7781C16.3387 49.3999 12.0762 48.0299 8.04358 45.8249C7.40079 45.4824 6.80828 45.2505 6.09367 45.3362Z" fill="#7CD1EE"/>
<path d="M6.09375 45.3362C6.80836 45.2505 7.39728 45.4824 8.04006 45.8321C12.0763 48.037 16.3352 49.4071 20.9891 49.7853C29.4675 50.4739 36.8362 47.9086 43.4256 42.7958C43.9786 42.3677 44.9697 42.0038 44.686 40.9227C45.2714 40.805 45.6412 41.2153 46.0722 41.4722C45.5981 42.3677 44.686 42.7958 43.9607 43.4167C38.5742 48.0406 32.2289 50.349 25.205 50.8164C19.9657 51.166 14.9742 50.035 10.1695 47.9442C9.56623 47.6802 8.9019 46.8596 8.05443 47.5447C7.2285 46.9631 6.71499 46.0997 6.09375 45.3362Z" fill="#7AD0ED"/>
<path d="M8.05469 47.5482C8.90216 46.8632 9.5629 47.6838 10.1698 47.9478C14.9745 50.035 19.966 51.166 25.2052 50.82C32.2328 50.349 38.5744 48.0442 43.9609 43.4202C44.6863 42.7959 45.5984 42.3677 46.0724 41.4758C46.2592 41.565 46.4459 41.6577 46.629 41.7469C46.5788 42.2214 46.3417 42.564 45.9826 42.9029C43.53 45.2149 40.7973 47.0916 37.7306 48.5223C30.5055 51.901 23.047 52.5468 15.3049 50.7308C13.5381 50.3169 11.9186 49.3143 10.0225 49.4249C9.23971 48.9361 8.61129 48.2761 8.05469 47.5482Z" fill="#6FCDEB"/>
<path d="M47.1445 19.769C46.3904 19.5514 45.5645 19.8083 44.8104 19.5657C44.7565 19.5478 44.7026 19.5264 44.6488 19.505C44.5698 19.4693 44.4908 19.4301 44.4154 19.3801C44.4692 19.3409 44.5231 19.2981 44.5662 19.2553C44.8894 18.9484 44.9755 18.556 44.9791 18.0779C44.9899 16.8398 44.8858 15.6196 44.6919 14.3958C43.8982 9.32951 40.8423 5.89724 36.5547 3.16784C37.0323 3.20352 37.4093 3.05724 37.7684 2.86101C38.1347 2.77181 38.4974 2.68261 38.8601 2.59698C39.3952 2.80035 39.9589 2.92879 40.494 3.12859C40.4976 3.13216 40.5012 3.13216 40.5048 3.13573C40.7561 3.22849 41.0003 3.34266 41.2301 3.49251C41.2337 3.49251 41.2337 3.49251 41.2337 3.49608C41.3092 3.54603 41.3846 3.59598 41.4564 3.65307C40.7454 4.1597 41.4276 4.43086 41.679 4.69845C45.3382 8.62307 47.2271 13.1756 46.5879 18.5774C46.5197 19.2124 46.8716 19.4158 47.1445 19.769Z" fill="#38B7E4"/>
<path d="M10.0234 49.4285C11.9195 49.3179 13.539 50.3205 15.3058 50.7343C23.0479 52.5504 30.51 51.901 37.7315 48.5258C40.7982 47.0916 43.5309 45.2149 45.9835 42.9065C46.3426 42.5711 46.576 42.225 46.6299 41.7505C46.9351 41.7398 47.2619 41.7969 47.463 41.4722C50.7703 38.0043 53.1727 34.0011 54.6845 29.4628C54.9107 28.7814 55.0041 28.0036 55.8121 27.6754C55.8946 27.7681 55.9808 27.8645 56.0634 27.9608C56.0598 28.1463 56.0598 28.3318 56.0562 28.5174C55.7546 28.5388 55.5212 28.6779 55.435 28.9669C54.7168 31.4145 53.363 33.5908 52.4545 35.9563C51.1689 37.5476 49.9264 39.1745 48.8491 40.9192C47.6246 41.9111 46.515 43.0135 45.5203 44.2266C43.7643 45.2969 42.1304 46.5314 40.5252 47.8087C36.568 50.2919 32.2157 51.6049 27.6085 52.2328C22.7822 52.8893 18.0888 52.3863 13.4672 50.9306C13.0327 50.795 12.5551 50.7022 12.1996 51.1553C11.3844 50.6951 10.6698 50.1028 10.0234 49.4285Z" fill="#69CCE9"/>
<path d="M52.0176 43.9625C47.7839 50.3383 41.7905 54.1345 34.3644 55.7899C32.296 56.2502 30.1916 56.5213 28.0586 56.3073C29.6171 55.4653 31.409 55.5009 33.068 55.0121C38.8064 53.3281 44.0097 50.7735 48.4733 46.7347C49.5686 45.7429 50.4915 44.4442 52.0176 43.9625Z" fill="#46C0DB"/>
<path d="M27.4854 48.4009C27.0652 49.2965 26.2213 49.1359 25.4744 49.1823C18.5869 49.5997 12.3063 47.7516 6.52122 44.116C6.02566 43.802 5.55524 43.6165 4.98069 43.6807C4.80473 43.3953 4.62518 43.1134 4.44922 42.8315C4.60722 42.646 4.76523 42.4605 4.92682 42.275C5.61988 41.9182 6.12621 42.2785 6.67204 42.6638C9.91829 44.9829 13.5057 46.5528 17.4163 47.3449C19.7827 47.823 22.1923 48.1904 24.6162 47.9407C25.3667 47.8622 26.0598 47.8051 26.7672 48.0584C27.0042 48.1726 27.2448 48.2868 27.4854 48.4009Z" fill="#80D2EF"/>
<path d="M48.3186 18.3169C48.2827 19.1054 48.1032 19.7369 47.4711 20.2185C47.3886 20.2257 47.3024 20.2257 47.2198 20.215C47.1982 20.0651 47.1731 19.9153 47.1515 19.769C46.875 19.4158 46.5231 19.216 46.6021 18.5738C47.2377 13.1721 45.3489 8.61948 41.6933 4.69485C41.4419 4.42727 40.7596 4.15611 41.4706 3.64948C41.8513 3.85998 42.2463 4.05264 42.6413 4.24887C42.6449 4.25244 42.6449 4.25244 42.6485 4.25244C43.6611 4.83757 44.6307 5.48691 45.5572 6.18978C45.5464 6.20048 45.5392 6.20762 45.532 6.21475C45.5248 6.22189 45.5141 6.23259 45.5069 6.2433C45.4997 6.25043 45.4997 6.25043 45.4961 6.254C45.4782 6.27184 45.4674 6.28611 45.4566 6.30395C45.4422 6.32179 45.4315 6.33963 45.4207 6.3539C45.4099 6.3646 45.4027 6.37531 45.3991 6.38958C45.392 6.40385 45.3848 6.41455 45.3776 6.42883C45.3668 6.44667 45.3597 6.46807 45.3525 6.48948C45.2986 6.63933 45.3237 6.77847 45.3848 6.91048C45.4207 6.99255 45.4746 7.07104 45.5284 7.14596C45.5823 7.22089 45.6433 7.29224 45.7008 7.3636C45.7259 7.39928 45.7547 7.43496 45.7798 7.46707C45.8049 7.50275 45.8265 7.53486 45.8444 7.57054C47.7369 10.9136 48.491 14.4957 48.3186 18.3169Z" fill="#32ADDF"/>
<path d="M54.0107 40.1307C53.2458 40.0237 52.9909 40.7693 52.6785 41.1832C49.1018 45.9356 44.5557 49.4891 39.1979 52.0473C35.0934 54.006 30.734 55.0514 26.2273 55.5152C25.6635 55.5759 25.1248 55.6044 24.7227 56.054C24.8447 56.0932 24.9704 56.1253 25.0925 56.1574L27.5344 56.343H27.538C27.7139 56.3358 27.8863 56.3251 28.0623 56.3109C29.6208 55.4689 31.4127 55.5045 33.0717 55.0157C38.8137 53.3353 44.0134 50.7771 48.477 46.7383C48.6063 46.6206 48.7356 46.4993 48.8576 46.3744C49.0731 46.1603 49.285 45.9427 49.5004 45.7286C49.5723 45.6573 49.6441 45.5824 49.7159 45.5146C49.7985 45.4325 49.8847 45.3469 49.9744 45.2684C50.0355 45.2077 50.0965 45.1542 50.1612 45.0971C50.312 44.9616 50.4664 44.8331 50.628 44.7082C50.7034 44.6512 50.7788 44.5976 50.8542 44.5441C51.0158 44.4335 51.1846 44.33 51.3606 44.2408C51.3857 44.223 51.4144 44.2123 51.4432 44.2016C51.4611 44.1945 51.4791 44.1838 51.4934 44.1766C51.5186 44.1624 51.5473 44.1516 51.576 44.1374C51.5904 44.1302 51.6012 44.1267 51.6155 44.1195C51.6478 44.1053 51.6766 44.0946 51.7089 44.0803C51.734 44.0696 51.7592 44.0625 51.7843 44.0517C51.7879 44.0482 51.7915 44.0482 51.7915 44.0482C51.8633 44.0232 51.9387 43.9947 52.0177 43.9697L54.0107 40.1307Z" fill="#4AC4DE"/>
<path d="M55.6538 35.6245C55.4922 36.2346 55.3091 36.8304 55.108 37.4155C55.1044 37.4191 55.1008 37.4227 55.0972 37.4227C55.0326 37.4619 54.9715 37.5083 54.9141 37.5547C54.8494 37.6011 54.7884 37.651 54.7309 37.701C54.6699 37.7509 54.6124 37.8044 54.5586 37.8615C54.5119 37.9043 54.4652 37.9507 54.4221 37.9971C54.3934 38.0292 54.3611 38.0613 54.3323 38.0934C54.3 38.1255 54.2713 38.1576 54.2426 38.1898C54.1959 38.2433 54.1528 38.2968 54.1097 38.3539C54.0702 38.4038 54.0343 38.4502 53.9984 38.5037C53.9912 38.5144 53.9804 38.5251 53.9732 38.5358C53.9661 38.5501 53.9553 38.5608 53.9481 38.5751C53.9445 38.5787 53.9409 38.5822 53.9409 38.5858C53.8978 38.6464 53.8583 38.7071 53.8152 38.7678C52.0018 41.4972 49.8113 43.9126 47.3694 46.0854C44.8916 48.2903 42.1302 50.1313 39.1102 51.5192C34.1259 53.8134 28.8974 55.112 23.3601 54.9765C22.7532 54.9586 22.1823 55.1299 21.6795 55.4867C21.1409 55.3511 20.6058 55.2155 20.0672 55.0799C19.8625 55.03 19.6578 54.9765 19.4531 54.9265C19.4567 54.9122 19.4603 54.9015 19.4639 54.8873C19.4819 54.8373 19.4962 54.7909 19.5178 54.7481C19.5178 54.7481 19.5178 54.7446 19.5214 54.7446C19.5285 54.7267 19.5393 54.7089 19.5465 54.691C19.6219 54.559 19.7153 54.477 19.823 54.4342C19.841 54.427 19.8553 54.4199 19.8733 54.4163C19.981 54.3806 20.0995 54.3771 20.2216 54.3806C20.3365 54.3878 20.455 54.4056 20.5699 54.4199C20.5951 54.4235 20.6274 54.427 20.6525 54.4306C20.7064 54.4377 20.7638 54.4377 20.8141 54.4377H20.8321C23.7695 54.402 26.6925 54.4199 29.6156 53.9168C39.0024 52.2899 46.3891 47.5197 52.1706 40.12C53.1329 38.8891 53.9266 37.5582 54.6986 36.2096C54.9931 35.6994 55.1726 35.5103 55.4096 35.5389C55.4204 35.5424 55.4348 35.5424 55.4491 35.546C55.4671 35.5496 55.4815 35.5531 55.4994 35.5603C55.5174 35.5674 55.5389 35.5745 55.5605 35.5817C55.5676 35.5852 55.5784 35.5888 55.5856 35.5924C55.6071 35.6031 55.6287 35.6138 55.6538 35.6245Z" fill="#55C7E1"/>
<path d="M0.804577 33.0199C0.283885 31.0969 0.316204 29.1381 0.355705 27.1722C1.49764 26.8868 1.41864 28.3282 2.24456 28.4923C2.93044 28.7421 3.71327 28.8955 3.86768 29.7732C4.11905 31.2039 5.27894 31.4751 6.40292 31.814C7.58435 32.235 8.46414 32.8986 8.39591 34.3079C8.3636 34.4685 8.33487 34.629 8.30614 34.7932C8.13736 34.9109 7.96141 35.0251 7.79263 35.1428C5.5734 33.9369 3.23208 32.945 1.32168 31.3109C0.653756 31.9032 0.951808 32.5133 0.804577 33.0199Z" fill="#3566AA"/>
<path d="M56.2649 32.7346C56.1105 33.7157 55.9058 34.679 55.6508 35.6245C55.6293 35.6138 55.6041 35.6031 55.5862 35.5924C55.5754 35.5853 55.5682 35.5853 55.5611 35.5817C55.5395 35.5746 55.5216 35.5639 55.5 35.5603C55.4821 35.5532 55.4641 35.5496 55.4497 35.546C55.4354 35.5425 55.4246 35.5389 55.4102 35.5389C55.1732 35.5103 54.9937 35.6994 54.6992 36.2096C53.9272 37.5619 53.1335 38.8891 52.1712 40.12C46.3897 47.5197 39.003 52.2935 29.6162 53.9169C26.6896 54.4235 23.7701 54.4021 20.8327 54.4378H20.8147C20.7644 54.4378 20.707 54.4342 20.6531 54.4306C20.628 54.4271 20.5957 54.4235 20.5705 54.4199C20.4556 54.4056 20.3371 54.3878 20.2222 54.3807C20.1001 54.3735 19.9816 54.3771 19.8739 54.4163C19.8559 54.4235 19.838 54.4271 19.8236 54.4342C19.7159 54.4806 19.6225 54.5591 19.5471 54.6911C19.5399 54.7089 19.5291 54.7268 19.522 54.7446C19.5184 54.7482 19.5184 54.7482 19.5184 54.7482C19.4968 54.791 19.4789 54.8374 19.4645 54.8873C19.4573 54.898 19.4573 54.9123 19.4537 54.9266C19.2849 54.8516 19.1126 54.7803 18.9438 54.7053C18.3585 54.452 17.7767 54.1987 17.1914 53.9454C17.511 53.4566 18.0137 53.5565 18.4518 53.6243C24.1974 54.5127 29.8029 53.9169 35.2505 51.9688C41.2618 49.8174 46.361 46.3566 50.4834 41.4437C52.4225 39.1317 53.8733 36.5557 55.3995 33.9976C55.6544 33.5587 55.9704 33.1556 56.2649 32.7346Z" fill="#59C8E3"/>
<path d="M55.1039 37.4155C54.7843 38.3432 54.418 39.2494 54.0087 40.1307C53.2438 40.0236 52.9888 40.7693 52.6764 41.1832C49.0998 45.9355 44.5536 49.4891 39.1959 52.0473C35.0914 54.006 30.7319 55.0514 26.2252 55.5152C25.6615 55.5759 25.1228 55.6044 24.7206 56.054C24.5949 56.0611 24.4728 56.0611 24.3472 56.0575C24.3436 56.0575 24.34 56.0575 24.3364 56.054L22.1854 55.6543C22.1818 55.6508 22.1782 55.6508 22.1746 55.6508C22.0058 55.6008 21.8371 55.5437 21.6719 55.4902C22.1746 55.1334 22.7456 54.9622 23.3525 54.98C28.8897 55.1156 34.1182 53.8169 39.1025 51.5228C42.1225 50.1313 44.884 48.2939 47.3618 46.089C49.8036 43.9161 51.9941 41.5007 53.8076 38.7713C53.8471 38.7107 53.8902 38.65 53.9333 38.5893C53.9369 38.5858 53.9404 38.5822 53.9404 38.5786C53.9584 38.5537 53.9764 38.5323 53.9907 38.5073C54.0266 38.4573 54.0625 38.4038 54.102 38.3574C54.1451 38.3039 54.1918 38.2468 54.2349 38.1933C54.2636 38.1576 54.2924 38.1255 54.3247 38.097C54.3498 38.0613 54.3857 38.0292 54.4145 38.0007C54.4611 37.9543 54.5042 37.9079 54.5509 37.8651C54.6048 37.8116 54.6658 37.758 54.7233 37.7045C54.7843 37.6546 54.8418 37.6046 54.9064 37.5582C54.9675 37.5119 55.0249 37.469 55.0896 37.4262C55.1003 37.4227 55.1039 37.4191 55.1039 37.4155Z" fill="#50C6DF"/>
<path d="M49.4518 19.2124C49.301 19.9688 49.0353 20.8108 49.4087 21.6171C49.0389 21.824 48.669 21.9311 48.2919 21.6278C48.2022 21.3495 48.1124 21.0677 48.0226 20.7894C47.8359 20.5967 47.6528 20.4112 47.466 20.2185C48.098 19.7404 48.2776 19.1054 48.3135 18.3169C48.4859 14.4993 47.7353 10.9136 45.8285 7.56694C45.8106 7.53483 45.789 7.49915 45.7639 7.46347C45.7388 7.43136 45.7136 7.39568 45.6849 7.36001C45.6274 7.28865 45.5664 7.21729 45.5125 7.14237C45.4587 7.06744 45.4048 6.98895 45.3689 6.90689C45.3078 6.77488 45.2863 6.63573 45.3366 6.48588C45.3438 6.46448 45.3509 6.44664 45.3617 6.42523C45.3689 6.41096 45.3761 6.40026 45.3833 6.38598C45.3904 6.37528 45.394 6.36458 45.4048 6.35031C45.412 6.33247 45.4263 6.31463 45.4407 6.30036C45.4515 6.28252 45.4658 6.26824 45.4802 6.25041C45.4838 6.24684 45.4874 6.24327 45.491 6.2397C45.5089 6.22186 45.5269 6.20046 45.5448 6.18262C46.4785 6.89262 47.3691 7.66327 48.2058 8.48031C48.116 9.22599 48.3422 9.92529 48.5505 10.6246C49.3692 13.436 50.0479 16.2404 49.4518 19.2124Z" fill="#35A5DD"/>
<path d="M53.7924 16.219C53.7565 16.3224 53.7206 16.4223 53.6883 16.5258C53.656 16.6221 53.6272 16.722 53.5985 16.8219C53.5949 16.8255 53.5949 16.8291 53.5949 16.8326C53.5626 16.9468 53.5303 17.061 53.5051 17.1787C53.4656 17.3286 53.4333 17.4784 53.4046 17.6283C53.3866 17.7246 53.3651 17.8209 53.3507 17.9173C53.3256 18.0493 53.304 18.1777 53.2861 18.3097C53.2681 18.4203 53.2538 18.5345 53.2394 18.6451C53.225 18.7628 53.2143 18.8806 53.1999 18.9947C53.1927 19.0625 53.1855 19.1303 53.1819 19.1981C53.1748 19.2695 53.1712 19.3373 53.164 19.4086C53.1532 19.5478 53.1424 19.6869 53.1353 19.8296C53.1245 20.0615 53.1101 20.2934 53.1029 20.5254C53.0994 20.6288 53.0958 20.7394 53.0922 20.8429C53.0706 21.4887 53.0599 22.1344 53.0347 22.7802C51.9718 24.1467 51.9143 25.8093 51.663 27.4113C51.5085 27.6396 51.3685 27.8858 51.0633 27.95C50.6611 27.2579 50.8191 26.3588 50.2445 25.7344C50.2373 25.4668 50.2337 25.1992 50.2266 24.9316C51.9251 22.0702 52.1477 18.927 52.0005 15.7088C51.9826 15.2771 51.8174 14.8168 51.8174 14.378C51.8174 14.3387 51.821 14.2959 51.8246 14.2566C51.8246 14.2459 51.8281 14.2317 51.8281 14.2174V14.2103C51.8317 14.1817 51.8353 14.1496 51.8389 14.1246C51.8425 14.1068 51.8461 14.089 51.8497 14.0747C51.8569 14.0533 51.8605 14.0354 51.8676 14.014C51.8748 13.9926 51.8784 13.9748 51.8856 13.9534C51.8928 13.932 51.9036 13.907 51.9107 13.8856C51.9179 13.8642 51.9287 13.8392 51.9431 13.8178C51.961 13.7857 51.9754 13.7572 51.9969 13.725C52.0077 13.7072 52.0221 13.6858 52.0364 13.668C52.0508 13.6501 52.0616 13.6287 52.0795 13.6109C52.0975 13.593 52.1118 13.5752 52.1298 13.5574C52.1477 13.5395 52.1657 13.5217 52.1801 13.5038C52.198 13.486 52.2196 13.4646 52.2411 13.4503C52.8121 14.3458 53.3256 15.2663 53.7924 16.219Z" fill="#3992CF"/>
<path d="M0.804688 33.0199C0.951918 32.5133 0.653866 31.9068 1.32179 31.3074C3.2286 32.9414 5.56992 33.9333 7.79274 35.1392C7.50187 35.9349 7.35823 36.7483 7.48751 37.5939C7.41569 37.626 7.34746 37.6581 7.27923 37.6974C7.24691 37.2157 7.21459 36.7341 7.18227 36.231C6.79085 36.363 7.0925 36.9303 6.52153 36.9481C5.40474 36.3202 4.04016 36.0205 2.89105 35.2106C2.30572 34.7967 1.46543 34.3543 1.38284 35.7244C1.00219 34.8645 0.804688 33.9619 0.804688 33.0199Z" fill="#365CA8"/>
<path d="M52.2442 13.4575C52.2227 13.4753 52.2047 13.4931 52.1832 13.511C52.1652 13.5288 52.1473 13.5467 52.1329 13.5645C52.115 13.5823 52.1006 13.6002 52.0826 13.618C52.0647 13.6359 52.0539 13.6573 52.0395 13.6751C52.0252 13.6929 52.0144 13.7144 52 13.7322C51.9785 13.7643 51.9605 13.7928 51.9462 13.825C51.9354 13.8464 51.9246 13.8713 51.9139 13.8927C51.9067 13.9177 51.8959 13.9391 51.8887 13.9605C51.8815 13.9819 51.8744 13.9998 51.8708 14.0212C51.8672 14.0426 51.86 14.0604 51.8528 14.0818C51.8492 14.0997 51.8456 14.114 51.842 14.1318C51.8349 14.1568 51.8349 14.1889 51.8313 14.2174V14.2246C51.8277 14.2353 51.8277 14.2495 51.8277 14.2638C51.8241 14.303 51.8205 14.3459 51.8205 14.3851C51.8169 14.8204 51.9821 15.2806 52.0036 15.7159C52.1473 18.9341 51.9282 22.0738 50.2297 24.9388C49.849 24.4571 49.6731 23.9041 49.6695 23.294C49.472 22.3699 50.3482 21.8098 50.4631 21.0177C50.8114 18.6665 50.9407 16.3189 50.6103 13.932C50.4739 12.9651 49.8347 11.9625 50.4308 10.9421C51.0843 11.7449 51.6876 12.5833 52.2442 13.4575Z" fill="#3998D4"/>
<path d="M8.94828 9.54715C7.04865 12.5727 6.13654 15.8694 6.11859 19.4229C5.60867 19.612 5.37885 20.2721 4.73606 20.2435C4.68938 18.4097 4.71092 16.5794 5.13825 14.7847C5.27471 14.2032 5.48658 13.6323 5.04129 13.0936C6.17604 11.3168 7.5083 9.7077 9.15656 8.37689C9.68443 8.86569 9.16015 9.21177 8.94828 9.54715Z" fill="#BDE5F0"/>
<path d="M50.4695 21.0142C50.351 21.8098 49.4784 22.3664 49.6759 23.2904C49.2558 22.7838 49.482 22.1773 49.4066 21.6171C49.0331 20.8144 49.2988 19.9688 49.4497 19.2124C50.0458 16.2404 49.3707 13.4361 48.5483 10.6282C48.3436 9.92886 48.1138 9.22957 48.2036 8.48389C48.9936 9.25811 49.7405 10.0751 50.4336 10.9386C49.8411 11.959 50.4803 12.9615 50.6131 13.9284C50.9507 16.3153 50.8178 18.6629 50.4695 21.0142Z" fill="#369FD9"/>
<path d="M1.38672 35.728C1.46931 34.3615 2.31319 34.8039 2.89493 35.2142C4.04405 36.0277 5.40503 36.3274 6.52542 36.9517C7.09638 36.9339 6.79115 36.363 7.18616 36.2346C7.22207 36.7377 7.25079 37.2193 7.28311 37.701C7.23284 38.2076 7.17897 38.7142 7.1287 39.2173C6.79115 39.3921 6.66906 39.963 6.12323 39.7668C5.18957 38.5466 3.29712 37.8044 2.20187 38.229C1.75659 37.4512 1.47649 36.6199 1.38672 35.728Z" fill="#3454A4"/>
<path d="M5.13854 14.7847C4.71481 16.5829 4.69326 18.4096 4.73635 20.2435C4.34494 20.6931 3.72729 20.0045 3.35023 20.5182C2.94086 20.8108 2.45249 20.5432 2.00361 20.5432C1.97848 20.5432 1.95334 20.5468 1.9282 20.5468C1.90307 20.5468 1.87793 20.5504 1.85638 20.5539C1.83484 20.5575 1.81688 20.5611 1.79534 20.5646C1.77738 20.5682 1.76302 20.5718 1.74865 20.5753C1.7307 20.5825 1.71274 20.586 1.69479 20.5967C1.68043 20.6039 1.66965 20.6074 1.65529 20.6146C1.64092 20.6217 1.63015 20.6253 1.61579 20.6324C1.56192 20.6645 1.50806 20.7038 1.45419 20.7537C1.44342 20.7644 1.43265 20.7751 1.42188 20.7858V20.7823C1.60142 20.1079 1.8097 19.4408 2.04671 18.7878C2.05389 18.77 2.05748 18.7522 2.06466 18.7343C2.12571 18.5702 2.18675 18.4025 2.25498 18.2384C2.29807 18.1278 2.34476 18.0136 2.39144 17.903C2.43094 17.8067 2.47403 17.7068 2.51353 17.6104C2.51353 17.6069 2.51353 17.6033 2.51713 17.5997C2.52431 17.5783 2.53508 17.5605 2.54226 17.5391C2.58176 17.4463 2.62485 17.35 2.66436 17.2537C3.31432 15.7944 4.10793 14.4065 5.04159 13.0793C5.48328 13.6323 5.275 14.2032 5.13854 14.7847Z" fill="#B4E2EF"/>
<path d="M2.19922 38.229C3.29806 37.8009 5.19051 38.543 6.12057 39.7667C6.0308 39.7953 5.94461 39.8274 5.85843 39.8595C4.5154 40.2698 5.56397 41.5935 4.92478 42.2749C4.76677 42.4605 4.60877 42.646 4.44717 42.8315C3.4812 41.4044 2.62655 39.9202 2.19922 38.229Z" fill="#334C9F"/>
<path d="M32.6974 2.90382C31.1461 2.70402 29.5948 2.50422 28.0399 2.30799C27.7598 1.91909 27.3181 2.10819 26.9518 2.02256C26.8154 1.73713 27.1565 1.70502 27.2068 1.52306C27.3684 1.39105 27.6233 1.31969 27.4689 0.909391H25.2461C27.5731 0.51336 29.8964 0.470546 32.2198 0.930798C31.9145 0.952205 31.6057 0.970044 31.3005 0.995019C31.419 1.94407 32.7117 1.93693 32.6974 2.90382Z" fill="#B9E4EF"/>
<path d="M55.1463 19.5157C55.1212 19.5478 55.0961 19.5799 55.0745 19.612C55.0494 19.6441 55.0242 19.6762 54.9991 19.7083C54.9812 19.7297 54.9668 19.7476 54.9488 19.769C54.9273 19.7939 54.9057 19.8225 54.8878 19.851V19.8546C54.8662 19.8796 54.8483 19.9117 54.8339 19.9367C54.8267 19.9509 54.816 19.9616 54.8088 19.9759C54.8016 19.9902 54.7944 20.0009 54.7908 20.0152C54.7765 20.0473 54.7657 20.0758 54.7585 20.1079C54.7549 20.1186 54.7513 20.1293 54.7513 20.14C54.7477 20.1614 54.7477 20.1828 54.7477 20.2042C54.8303 21.139 54.2163 21.5315 53.5735 21.9382C53.3939 22.2165 53.2108 22.5019 53.0312 22.7838C53.0564 22.138 53.0672 21.4922 53.0887 20.8465C53.0923 20.7394 53.0959 20.6324 53.0995 20.5289C53.1067 20.297 53.121 20.0651 53.1318 19.8332C53.139 19.694 53.1498 19.5549 53.1605 19.4122C53.1677 19.3408 53.1713 19.273 53.1785 19.2017C53.1857 19.1339 53.1893 19.0661 53.1964 18.9983C53.2072 18.8806 53.2216 18.7628 53.2359 18.6487C53.2503 18.5381 53.2647 18.4239 53.2826 18.3133C53.3006 18.1813 53.3221 18.0528 53.3473 17.9208C53.3652 17.8245 53.3832 17.7282 53.4011 17.6318C53.4298 17.482 53.4622 17.3321 53.5017 17.1823C53.5268 17.0681 53.5627 16.9504 53.5914 16.8362C53.595 16.8291 53.595 16.8291 53.595 16.8255C53.6202 16.7256 53.6525 16.6257 53.6848 16.5294C53.7171 16.4259 53.7494 16.326 53.7889 16.2225C54.3132 17.2822 54.7657 18.3811 55.1463 19.5157Z" fill="#398ACA"/>
<path d="M2.24792 28.4888C1.42558 28.3283 1.50099 26.8904 0.362651 27.1687L0.355469 27.1723C0.387788 26.0627 0.47038 24.9567 0.703794 23.8756C0.807932 23.3868 0.940799 22.898 1.12035 22.4199C1.10239 23.2013 1.06648 23.9898 1.96423 24.3751C2.02528 25.3384 2.35205 26.2446 2.79734 27.0617C3.2498 27.8787 2.84402 28.1749 2.24792 28.4888Z" fill="#A4DCEE"/>
<path d="M3.62619 21.6207C3.53282 21.8027 3.43945 21.9882 3.34609 22.1702C2.55607 22.1202 2.20416 22.4913 2.23288 23.2762C2.24366 23.658 2.3478 24.0861 1.96356 24.3787C1.06581 23.9898 1.10172 23.2013 1.11968 22.4235C0.943721 22.9016 0.807263 23.3904 0.703125 23.8792C0.990404 22.1274 1.43928 20.4291 2.04256 18.8021C1.80556 19.455 1.59728 20.1187 1.41773 20.7965V20.8001C1.4285 20.7894 1.43928 20.7787 1.45005 20.768C1.50032 20.7181 1.55419 20.6752 1.61164 20.6467C1.62601 20.6396 1.63678 20.6324 1.65114 20.6289C1.66551 20.6217 1.67628 20.611 1.69065 20.611C1.7086 20.6039 1.72655 20.5932 1.74451 20.5896C1.76246 20.5825 1.77683 20.5825 1.79119 20.5789C1.81274 20.5718 1.83069 20.5682 1.85224 20.5682C1.87738 20.5611 1.90251 20.5611 1.92406 20.5611C1.9492 20.5575 1.97433 20.5575 1.99947 20.5575C2.44834 20.5539 2.94031 20.8215 3.34609 20.5325C3.75546 20.8073 3.58668 21.239 3.62619 21.6207Z" fill="#A6DDEE"/>
<path d="M1.41797 20.7894C1.42874 20.7787 1.43951 20.768 1.45029 20.7573C1.43951 20.7715 1.42874 20.7822 1.41797 20.7894Z" fill="#9EDBEF"/>
<path d="M27.206 1.52657C26.7177 1.30537 26.2221 1.5016 25.7301 1.49446C25.3136 1.48733 24.7534 1.66215 24.7031 0.941446C24.8827 0.930742 25.0658 0.923606 25.249 0.912903H27.4718C27.6226 1.3232 27.3676 1.39456 27.206 1.52657Z" fill="#7BBACB"/>
<path d="M52.457 35.9528C53.3655 33.5873 54.7194 31.4073 55.4375 28.9633C55.5201 28.6743 55.7571 28.5352 56.0588 28.5138C55.1287 30.5938 54.4895 32.7916 53.326 34.7718C53.0783 35.1928 52.9849 35.7315 52.457 35.9528Z" fill="#69CCE8"/>
<path d="M40.5273 47.8051C42.1289 46.5278 43.7664 45.2934 45.5224 44.223C44.1542 45.8286 42.4701 46.9917 40.5273 47.8051Z" fill="#69CCE8"/>
<path d="M48.8477 40.9156C49.925 39.171 51.1674 37.5476 52.453 35.9528C51.6379 37.883 50.4672 39.5598 48.8477 40.9156Z" fill="#69CCE8"/>
<path d="M45.5195 44.223C46.5178 43.0063 47.6274 41.9039 48.8484 40.9156C48.0727 42.3463 46.9631 43.4488 45.5195 44.223Z" fill="#69CCE8"/>
<path d="M54.6858 22.7125C55.3393 23.5224 55.0952 24.689 55.7954 25.4811C55.0018 25.0173 54.8187 25.5988 54.7073 26.1554C54.3303 28 53.7449 29.7875 52.9801 31.5001C51.5509 34.6861 49.9026 37.7474 47.1914 40.0879C47.3386 39.1745 47.5721 38.2683 47.4715 37.3299C48.003 37.7045 48.2687 37.3906 48.5452 36.966C49.188 35.9777 49.978 35.0643 50.4879 34.0154C51.4072 32.1102 52.9406 30.3369 52.1865 27.9572C52.621 27.8537 52.6246 28.4174 52.8616 28.471C53.8778 26.6442 53.6911 24.5035 54.6858 22.7125Z" fill="#79D0ED"/>
<path d="M47.1811 40.0879C49.8923 37.7474 51.5406 34.6862 52.9698 31.5001C53.7347 29.7875 54.3236 28.0036 54.6971 26.1554C54.812 25.5953 54.9915 25.0173 55.7851 25.4811C55.7923 26.2125 55.7995 26.9404 55.8067 27.6718C54.9987 28 54.9054 28.7778 54.6791 29.4593C53.1709 33.9976 50.765 38.0007 47.4577 41.4686C47.332 41.0155 46.5132 40.7015 47.1811 40.0879Z" fill="#6FCDEB"/>
<path d="M54.6847 22.7125C53.6936 24.5036 53.8767 26.6443 52.8569 28.4746C52.6235 28.421 52.6199 27.8573 52.1818 27.9608C52.0094 27.7824 51.8407 27.6004 51.6719 27.422C51.9197 25.8165 51.9807 24.1575 53.04 22.791C53.2196 22.5091 53.4027 22.2273 53.5823 21.9454C54.1999 21.8455 54.6057 22.0489 54.6847 22.7125Z" fill="#7DD1EE"/>
<path d="M22.7692 34.3008C21.024 35.0679 19.4116 34.3151 17.8747 33.7121C12.2333 31.4929 8.72127 27.2971 7.88098 21.403C6.98323 15.0987 9.20964 9.79327 14.5602 6.00065C14.9624 5.71522 15.3682 5.55467 15.4077 4.89105C15.4436 4.29879 16.2659 3.97768 16.6717 4.10612C18.0147 4.53783 19.0813 3.67798 20.2914 3.55311C21.5124 3.4318 22.7584 3.07502 23.8752 3.92416C23.2827 3.97768 22.7907 4.28452 22.2736 4.53426C21.3328 4.89105 20.2196 4.78758 19.4404 5.58321C19.1603 5.57964 18.8802 5.57608 18.6037 5.57251C17.9645 5.11226 17.3791 5.41909 16.7938 5.69738C10.2941 8.80498 7.08019 16.2546 9.05523 22.9586C10.7789 28.8027 14.7433 32.4098 20.787 33.7014C21.4585 33.8477 22.3203 33.4124 22.7692 34.3008Z" fill="#CCEAF1"/>
<path d="M6.39962 21.3389C6.81977 23.0229 7.25068 24.7033 8.04788 26.2554C10.8165 31.6571 15.1544 34.9894 21.2304 35.8778C22.0671 35.9991 23.2485 36.5843 23.9128 35.3391C23.9811 35.389 24.0529 35.4319 24.1283 35.4675C24.2324 36.0848 24.3366 36.7056 24.4443 37.3228C23.92 37.4084 23.385 37.6082 22.8751 37.5583C17.704 37.0802 13.1471 35.2392 9.65664 31.2967C7.27582 28.6101 5.59883 25.5561 5.30078 21.8919C5.77479 21.9311 6.01898 21.4994 6.39962 21.3389Z" fill="#BEE5F0"/>
<path d="M22.7695 34.3008C22.3207 33.4124 21.4552 33.8477 20.7837 33.705C14.7437 32.4134 10.7792 28.8063 9.05557 22.9622C7.07694 16.2618 10.2945 8.80855 16.7977 5.70452C17.3831 5.42623 17.9684 5.1194 18.6076 5.57965C17.8571 5.90075 18.4316 6.37171 18.4675 6.78201C18.0618 6.77131 17.6524 6.75704 17.2466 6.74633C15.8748 6.96397 14.7976 7.69538 13.7957 8.61231C11.0162 11.1491 9.51163 14.3494 9.23512 18.0065C9.03403 20.6645 9.30335 23.3547 11.2209 25.5846C11.4867 25.2527 11.2999 24.846 11.6267 24.6462C12.1079 26.9154 13.257 28.7278 15.2787 29.9445C15.9359 30.8685 16.8552 31.4001 17.8966 31.8354C19.3114 32.4241 20.7837 32.6525 22.2776 32.8451C22.5218 33.1627 22.7695 33.4802 23.0137 33.7977C23.0209 33.8762 23.0317 33.9547 23.0424 34.0332C22.9527 34.1224 22.8593 34.2116 22.7695 34.3008Z" fill="#CDEBF1"/>
<path d="M23.0444 34.0368C23.0336 33.9583 23.0228 33.8798 23.0156 33.8013C23.5615 33.5373 24.0606 33.7942 24.5705 33.9369C27.551 34.7575 30.5495 34.8431 33.53 33.9797C35.0598 33.5373 36.5393 32.9308 38.0439 32.4027C38.0403 32.4848 38.0331 32.5633 38.0187 32.6453C37.0635 33.102 36.9594 34.1652 36.3849 34.8966C36.0904 34.5506 35.7636 34.8253 35.5087 34.918C32.3342 36.0598 29.0987 36.2132 25.7735 35.7565C25.2241 35.6816 24.7285 35.1678 24.1252 35.4782C24.0498 35.4425 23.978 35.3997 23.9098 35.3498C23.9349 34.7004 23.5327 34.3401 23.0444 34.0368Z" fill="#3D8FCD"/>
<path d="M22.2734 4.54143C22.7905 4.29168 23.2825 3.98484 23.875 3.93132C25.1678 3.14997 26.5359 2.5577 28.037 2.31152C29.5919 2.51132 31.1432 2.71112 32.6945 2.91092C32.7196 3.07147 32.7483 3.23203 32.7735 3.39258C32.6765 3.49605 32.576 3.60308 32.4754 3.70655C31.0929 4.48791 29.5847 4.88037 28.0226 5.09087C26.895 4.89107 27.685 4.22032 27.8071 3.59238C27.1608 3.89208 26.6724 4.12042 26.1912 4.34519C26.5826 5.59751 25.9003 6.2754 24.3921 6.20761C24.3957 5.54756 24.3311 4.98741 23.419 5.41555C22.5033 5.84012 22.3417 5.24429 22.2734 4.54143Z" fill="#3DC4EA"/>
<path d="M6.40031 21.3388C6.01966 21.4994 5.77188 21.9275 5.29428 21.8954C4.70536 21.9882 4.18467 21.7099 3.62807 21.6171C3.58857 21.2389 3.75734 20.8036 3.35156 20.5146C3.72862 20.0009 4.34986 20.6895 4.73768 20.2399C5.38047 20.2685 5.61029 19.6084 6.12021 19.4193C6.21358 20.0615 6.30694 20.7002 6.40031 21.3388Z" fill="#A6DDEE"/>
<path d="M27.4867 48.4009C27.2461 48.2868 27.0055 48.1726 26.7649 48.0584C26.8152 47.2521 26.2981 46.6206 26.0898 45.8927C26.6572 45.4468 27.2354 45.3362 27.9859 45.5003C28.7256 45.6608 29.5695 45.6929 30.2949 45.5038C31.1388 45.2862 31.8067 45.4004 32.4782 45.8642C31.8354 46.5421 31.3686 47.4019 30.4349 47.773C29.5228 48.3046 28.4024 47.8907 27.4867 48.4009Z" fill="#3463AE"/>
<path d="M30.4297 47.7694C31.3633 47.3984 31.8302 46.5385 32.473 45.8606C32.9039 45.7571 33.0619 45.4646 33.0331 45.0471C33.4892 45.6751 34.0171 45.6608 34.6886 45.3468C35.6187 44.9116 36.4482 44.2158 37.5506 44.198C37.7122 44.3193 37.8702 44.4406 38.0282 44.5584C38.3406 45.0257 38.0067 45.1899 37.6583 45.379C35.3924 46.6027 33.105 47.7658 30.4297 47.7694Z" fill="#83D3EF"/>
<path d="M47.1809 40.0879C46.5094 40.7015 47.3317 41.0155 47.461 41.465C47.2599 41.7897 46.9331 41.7326 46.6279 41.7433C46.4412 41.6541 46.2545 41.5614 46.0713 41.4722C45.6404 41.2153 45.2705 40.8014 44.6852 40.9227C44.4985 40.7372 44.3153 40.5517 44.1322 40.3661C44.1286 40.2769 44.125 40.1878 44.125 40.1021C44.7678 38.6536 46.0749 37.8116 47.1773 36.7876C47.2707 36.9696 47.3677 37.1515 47.4646 37.3335C47.5652 38.2718 47.3317 39.1745 47.1809 40.0879Z" fill="#55C9F3"/>
<path d="M44.1261 40.0986C44.1297 40.1878 44.1297 40.277 44.1333 40.3626C43.3468 41.5543 42.1403 42.2892 41.0235 43.1027C40.6967 43.3418 40.2047 43.9947 39.6445 43.3061C39.6804 42.8672 39.6769 42.4177 39.9929 42.0538C40.5243 41.3866 40.4848 40.4411 41.0953 39.8132C41.5154 39.5384 41.9859 39.5135 42.467 39.5313C42.959 39.8988 43.4725 40.202 44.1261 40.0986Z" fill="#84D3EE"/>
<path d="M39.9965 42.0537C39.6805 42.4177 39.6877 42.8672 39.6482 43.306C39.2711 43.9304 38.9228 44.594 38.0286 44.5584C37.867 44.4371 37.709 44.3157 37.551 44.198C37.8024 43.727 37.5151 43.2918 37.4648 42.8387C37.6444 42.539 37.8455 42.2642 38.2513 42.2642C38.8115 42.043 39.2567 40.8478 39.9965 42.0537Z" fill="#517386"/>
<path d="M44.9804 18.0743C44.9732 18.5488 44.8906 18.9448 44.5674 19.2517C44.5243 19.298 44.474 19.3409 44.4166 19.3765L44.413 19.3801C43.9354 19.4336 43.6661 19.0519 43.2998 18.8628C43.3034 18.77 43.3034 18.6808 43.2962 18.588C42.973 18.2669 42.8365 17.878 42.6893 17.4321C42.2979 16.2689 42.6498 15.063 42.3302 13.9106C41.0375 9.22601 38.1611 6.01852 33.4856 4.4451C33.0978 4.31666 32.5089 4.35234 32.4766 3.69942C32.5735 3.59595 32.6741 3.48892 32.771 3.38545H32.7746C34.4193 3.0144 36.0747 2.74681 37.7697 2.85741C37.4106 3.05364 37.0335 3.19992 36.5559 3.16424C40.8436 5.89365 43.8995 9.32235 44.6931 14.3923C44.887 15.616 44.9911 16.8362 44.9804 18.0743Z" fill="#37C0E9"/>
<path d="M43.3032 18.8627C43.6659 19.0518 43.9388 19.4336 44.4164 19.3801C45.2675 19.9188 46.255 19.5121 47.1456 19.769C47.1671 19.9188 47.1923 20.0687 47.2138 20.2149C46.4525 20.6467 47.4293 22.0738 46.0791 22.1701C46.2371 23.1691 46.1868 24.0646 44.9623 24.3751C44.6427 24.1396 44.736 23.8577 44.8186 23.533C45.0053 22.8016 45.1669 22.056 44.7181 21.346C44.8007 20.1115 43.2924 20.0758 43.0195 19.1089C43.1129 19.0304 43.2099 18.9448 43.3032 18.8627Z" fill="#A7DDEE"/>
<path d="M26.091 45.8927C26.2993 46.6206 26.8164 47.2521 26.7661 48.0584C26.0587 47.8015 25.3692 47.8622 24.6151 47.9407C22.1912 48.1904 19.7853 47.8229 17.4152 47.3448C13.5046 46.5528 9.91366 44.9829 6.671 42.6638C6.12876 42.2749 5.62243 41.9181 4.92578 42.2749C5.56498 41.5935 4.51641 40.2698 5.85944 39.8595C10.3302 43.8805 15.7167 45.7678 21.5951 46.3744C22.992 46.5207 24.5469 46.8632 25.8433 45.8178C25.9258 45.8428 26.0084 45.8677 26.091 45.8927Z" fill="#89D4EE"/>
<path d="M46.0781 22.1701C47.4283 22.0738 46.4516 20.6467 47.2129 20.215C47.2955 20.2257 47.3817 20.2257 47.4642 20.2185C47.651 20.4076 47.8377 20.5967 48.0208 20.7894C47.7264 20.9821 47.6761 21.2818 47.5827 21.5993C47.3493 22.4056 46.8681 22.7232 46.0781 22.1701Z" fill="#7DD1EB"/>
<path d="M24.7427 38.4431C24.5273 38.807 24.319 39.171 24.1071 39.5349C23.7983 39.0604 23.3494 38.9819 22.8036 38.9747C18.9828 38.939 15.5247 37.7652 12.3431 35.678C11.2191 34.9395 10.2172 34.044 9.30869 33.2983C8.59049 33.4945 9.40923 34.5256 8.40017 34.3044C8.4684 32.8951 7.5922 32.2351 6.40717 31.8105C6.62263 31.6606 6.84168 31.5072 7.0751 31.3467C5.21497 28.5388 3.63853 25.606 3.34766 22.1702C3.44102 21.9882 3.53439 21.8027 3.62775 21.6207C4.18436 21.7135 4.70505 21.9918 5.29397 21.899C5.59561 25.5596 7.2726 28.6137 9.64983 31.3003C13.1403 35.2463 17.6972 37.0838 22.8682 37.5619C23.3782 37.6082 23.9132 37.4084 24.4375 37.3264C24.5129 37.3514 24.5883 37.3799 24.6673 37.4013C24.6925 37.7474 24.7176 38.0935 24.7427 38.4431Z" fill="#B4E2EF"/>
<path d="M8.39805 34.3044C9.40712 34.5256 8.58837 33.4909 9.30657 33.2983C10.2115 34.044 11.217 34.9395 12.341 35.678C15.5226 37.7617 18.9807 38.939 22.8015 38.9747C23.3473 38.9783 23.7926 39.0603 24.105 39.5349C24.123 39.6276 24.1409 39.7204 24.1589 39.8132C24.0476 40.0879 23.9362 40.3626 23.8249 40.6373C23.7136 40.8264 23.5951 41.0155 23.6777 40.8799C17.7597 40.6231 12.6354 38.6322 8.30469 34.7896C8.3406 34.6291 8.36932 34.4685 8.39805 34.3044Z" fill="#AFE0EF"/>
<path d="M8.31025 34.7896C12.641 38.6322 17.7653 40.6266 23.6833 40.8799C23.6007 41.0155 23.7156 40.8264 23.8305 40.6373C23.8556 40.9941 23.8808 41.3509 23.9059 41.7077C23.4462 42.1465 22.8537 42.3499 22.2684 42.2678C19.6362 41.9039 17.0327 41.4865 14.5406 40.4411C12.1167 39.4242 9.99083 37.9864 7.89729 36.3488C7.70697 36.834 7.9332 37.3156 7.53819 37.6118L7.4951 37.5975C7.36223 36.7519 7.50587 35.9385 7.80033 35.1428C7.96552 35.0251 8.13788 34.9074 8.31025 34.7896Z" fill="#A5DDEF"/>
<path d="M7.07481 31.3431C6.8414 31.5072 6.62235 31.6571 6.40689 31.8069C5.28291 31.4716 4.12302 31.1968 3.87166 29.7661C3.72083 28.8884 2.93082 28.735 2.24853 28.4853C2.84463 28.1677 3.24682 27.8716 2.79795 27.0546C2.34908 26.2411 2.0223 25.3277 1.96484 24.368C2.35267 24.0754 2.24494 23.6473 2.23417 23.2655C2.20903 22.4806 2.55736 22.1131 3.34737 22.1595C3.63824 25.606 5.21109 28.5352 7.07481 31.3431Z" fill="#AADFEF"/>
<path d="M46.0754 22.1702C46.8619 22.7232 47.3466 22.4021 47.58 21.5993C47.6734 21.2818 47.7201 20.9821 48.0181 20.7894C48.1079 21.0677 48.1977 21.3496 48.2875 21.6314C47.7991 22.8802 48.0217 24.3287 47.1814 25.4776C46.9947 26.0306 47.1779 26.7049 46.6213 27.1366C46.4417 27.2294 46.2586 27.3222 46.079 27.4113C45.5655 27.0332 44.9909 27.026 44.3984 27.1402C44.5313 26.209 45.1382 25.3741 44.9586 24.3822C46.1832 24.0647 46.237 23.1692 46.0754 22.1702Z" fill="#A1DCEF"/>
<path d="M47.1836 25.474C48.0239 24.3251 47.8048 22.8801 48.2896 21.6278C48.6631 21.9275 49.0365 21.8276 49.4028 21.6171C49.4782 22.1773 49.252 22.7838 49.6721 23.2904C49.6757 23.9005 49.8481 24.4536 50.2323 24.9352C50.2359 25.2028 50.2431 25.4704 50.2467 25.738C49.8732 26.2018 49.4998 26.6692 49.1263 27.133C48.1244 26.9903 48.2717 25.5203 47.1836 25.474Z" fill="#95D8EE"/>
<path d="M47.4664 37.3299C47.3731 37.1479 47.2761 36.966 47.1792 36.784C47.0894 36.5985 46.996 36.413 46.9062 36.2274C48.3247 34.9823 49.1039 33.366 49.858 31.5464C49.0967 31.5464 48.5545 31.5464 48.0123 31.5464C47.6101 31.5464 47.2043 31.55 47.1828 30.9898V30.9863C47.7394 30.8971 48.2601 30.6116 48.849 30.708C49.3445 31.8604 50.3141 30.9577 50.3572 30.7329C50.5439 29.791 51.4704 29.024 51.0718 27.9536C51.377 27.8894 51.5171 27.6432 51.6715 27.4149C51.8439 27.5932 52.0126 27.7752 52.1814 27.9536C52.9319 30.3334 51.4022 32.1066 50.4829 34.0118C49.9765 35.0607 49.1829 35.9741 48.5401 36.9624C48.2636 37.3905 47.9979 37.7081 47.4664 37.3299Z" fill="#80D2EE"/>
<path d="M51.0732 27.9607C51.4754 29.0311 50.5454 29.7946 50.3586 30.7401C50.3155 30.9649 49.346 31.8675 48.8504 30.7151C48.6134 30.3833 49.3891 29.8018 48.5703 29.6162C49.2275 29.2559 49.741 28.7814 49.8631 27.9679C49.7553 27.5933 49.0479 27.6967 49.1269 27.1401C49.5004 26.6763 49.8738 26.2089 50.2473 25.7451C50.829 26.3695 50.6674 27.2686 51.0732 27.9607Z" fill="#89D4EE"/>
<path d="M7.12891 39.2173C7.17918 38.7107 7.23304 38.2041 7.28332 37.701C7.34796 37.6618 7.41978 37.6261 7.49159 37.5975L7.53469 37.6118C7.409 38.6679 8.38575 38.0328 8.79871 38.3932C11.2944 40.5588 14.2965 41.8575 17.4709 42.6567C19.8338 43.2526 22.2541 43.8662 24.7247 43.0884C24.9043 43.381 25.0838 43.6736 25.2598 43.9661C25.2705 44.3122 25.2813 44.6583 25.2921 45.0044C24.5775 44.7404 23.8306 44.7475 23.0872 44.776C21.4282 44.8403 19.8051 44.6369 18.1712 44.3122C14.0631 43.5023 10.4972 41.5792 7.12891 39.2173Z" fill="#98D9EE"/>
<path d="M7.12731 39.2173C10.4992 41.5792 14.0615 43.5023 18.1696 44.3122C19.7999 44.6333 21.423 44.8402 23.0856 44.776C23.8326 44.7474 24.5759 44.7403 25.2905 45.0043C25.4772 45.2755 25.664 45.5466 25.8471 45.8178C24.5508 46.8596 22.9995 46.5171 21.599 46.3744C15.7205 45.7679 10.3305 43.8805 5.86328 39.8595C5.94946 39.8274 6.03565 39.7953 6.12542 39.7667C6.66407 39.9594 6.78616 39.3921 7.12731 39.2173Z" fill="#91D7EE"/>
<path d="M22.275 4.54144C22.3396 5.24431 22.5048 5.84371 23.4241 5.40843C24.3362 4.98029 24.4009 5.54044 24.3973 6.20049C24.1854 6.33607 24.1639 6.54657 24.1675 6.77135C24.1387 6.80702 24.1136 6.85341 24.0777 6.87125C24.0418 6.88908 23.9879 6.88908 23.952 6.87481C23.3164 6.65361 24.1028 6.06491 23.5714 5.68315C23.0112 7.03537 21.7723 7.40285 20.5729 7.83456C20.1958 7.08888 19.8224 6.3432 19.4453 5.59396C20.2246 4.79476 21.3342 4.89823 22.275 4.54144Z" fill="#D3EDF3"/>
<path d="M19.4461 5.58681C19.8231 6.33249 20.1966 7.07817 20.5736 7.82742C20.3833 7.90591 20.1894 7.98084 19.9991 8.05933C19.4174 8.12355 18.8356 8.19134 18.3006 8.25199C18.121 7.6526 19.0044 7.43853 18.6094 6.87124C18.5627 6.8427 18.516 6.81058 18.4729 6.77847C18.437 6.36817 17.8589 5.89722 18.6094 5.57611C18.8895 5.57968 19.1696 5.58325 19.4461 5.58681Z" fill="#3EC5EB"/>
<path d="M24.6669 37.4013C24.5879 37.3798 24.5125 37.3549 24.4371 37.3263C24.333 36.7091 24.2288 36.0883 24.1211 35.471C24.7244 35.1606 25.2199 35.6744 25.7694 35.7493C29.0982 36.206 32.3301 36.0526 35.5045 34.9109C35.7595 34.8181 36.0862 34.547 36.3807 34.8895C36.3699 35.1535 36.3592 35.4211 36.3448 35.6851C36.0719 36.2381 35.6517 36.5806 35.0341 36.7341C33.2601 37.1729 31.4754 37.494 29.644 37.6332C27.9706 37.758 26.3439 37.073 24.6669 37.4013Z" fill="#3C88C8"/>
<path d="M11.6351 24.6498C11.3084 24.8496 11.4951 25.2563 11.2294 25.5881C9.31177 23.3582 9.04245 20.6645 9.24354 18.01C9.52005 14.353 11.0247 11.1526 13.8005 8.61232C14.8024 7.69538 15.8833 6.96398 17.2514 6.74634C16.9893 7.16021 16.6302 7.53126 16.6876 8.08071C16.5081 8.51242 16.21 8.82282 15.8438 9.12966C13.5168 11.0563 11.7967 13.4075 11.2832 16.4223C11.0175 17.985 10.0371 19.7476 11.9009 21.0748C11.9224 22.0845 11.944 23.0978 11.9655 24.1039C11.8506 24.2787 11.7429 24.4643 11.6351 24.6498Z" fill="#D4EDF3"/>
<path d="M38.0418 32.3992C36.5407 32.9308 35.0577 33.5337 33.5279 33.9762C30.551 34.8396 27.5525 34.7539 24.5684 33.9333C24.0585 33.7942 23.5593 33.5337 23.0135 33.7978C22.7693 33.4802 22.5215 33.1627 22.2773 32.8451C22.4533 32.3171 22.6293 31.7926 22.8052 31.2682C22.8842 31.2682 22.9668 31.2682 23.0458 31.2646C23.0279 31.8212 23.1787 32.178 23.8071 32.3742C28.9638 33.9904 33.7972 33.3304 38.3326 30.4226C39.1657 29.891 40.0132 29.3808 40.8499 28.8599C40.3723 30.4012 39.0544 31.2789 38.0418 32.3992Z" fill="#4195D1"/>
<path d="M22.8079 31.2681C22.632 31.7962 22.456 32.3206 22.2801 32.8451C20.7862 32.6525 19.3139 32.4241 17.8991 31.8354C16.8577 31.4001 15.9384 30.8685 15.2812 29.9445C15.468 29.8303 15.6511 29.7125 15.8379 29.5984C16.6566 29.4093 17.5687 30.0551 18.3228 29.3129C18.9692 29.2202 19.5114 28.7457 20.2045 28.8242C20.6426 29.0882 20.7934 29.5556 20.973 30.0229C22.1436 29.6911 22.9336 29.8588 22.8079 31.2681Z" fill="#D6EEF4"/>
<path d="M15.8418 29.602C15.655 29.7162 15.4719 29.8339 15.2852 29.9481C13.2598 28.7314 12.1143 26.919 11.6367 24.6534C11.7444 24.4679 11.8558 24.2823 11.9599 24.1004C12.5381 23.5545 11.9922 22.7731 12.2795 22.295C13.3783 24.789 14.6891 27.2151 16.603 29.3023C16.4415 29.4343 16.0177 29.2488 15.8418 29.602Z" fill="#3D8FCD"/>
<path d="M16.6851 8.07717C16.6312 7.53129 16.9903 7.15667 17.2489 6.7428C17.6547 6.7535 18.0605 6.76777 18.4698 6.77848C18.5165 6.81059 18.5596 6.83913 18.6063 6.87124C17.9922 7.31365 17.5685 8.05576 16.6851 8.07717Z" fill="#5296B0"/>
<path d="M38.0414 32.3992C39.0541 31.2789 40.3719 30.4012 40.8531 28.867C41.5965 28.1535 41.6539 27.233 41.6396 26.2875C41.6324 26.2018 41.6324 26.1162 41.6288 26.0306C41.7868 26.2268 41.9448 26.4231 42.1172 26.6371C42.4044 25.9913 42.7169 25.3812 42.9431 24.7426C43.1693 24.1004 42.8749 23.7864 42.1962 23.8257C43.5428 23.5081 43.9557 22.2522 44.717 21.346C45.1659 22.056 45.0043 22.8017 44.8176 23.5331C44.735 23.8542 44.6416 24.1361 44.9612 24.3751C45.1408 25.367 44.5303 26.2054 44.401 27.1331C44.4118 27.2222 44.419 27.3079 44.4226 27.3971C43.5859 28.8742 42.7492 30.3548 41.9125 31.8319C41.2589 31.6999 40.6305 31.3324 39.8405 31.6821C40.1457 32.3278 39.8728 32.8095 39.2659 33.0914C38.7345 33.3375 38.2892 33.1948 38.0234 32.6382C38.0306 32.5597 38.0378 32.4777 38.0414 32.3992Z" fill="#ABDFEF"/>
<path d="M38.0175 32.6382C38.2832 33.1948 38.7321 33.3375 39.2599 33.0913C39.8632 32.813 40.1397 32.3278 39.8345 31.682C40.6245 31.3324 41.2529 31.6999 41.9065 31.8319C42.2261 32.1601 42.0142 32.8951 42.7396 32.9129C42.1866 33.416 41.3679 32.8487 40.743 33.5908C39.5867 34.9573 38.1791 36.1133 36.8791 37.3549C36.3907 36.8947 36.362 36.2917 36.3477 35.6852C36.3584 35.4211 36.3692 35.1536 36.3836 34.8895C36.9581 34.1617 37.0623 33.0913 38.0175 32.6382Z" fill="#79D0ED"/>
<path d="M32.4802 3.6994C32.5125 4.35232 33.105 4.31664 33.4928 4.44508C38.1647 6.0185 41.0447 9.22599 42.3374 13.9106C42.6534 15.063 42.3051 16.2654 42.6965 17.432C42.8473 17.8744 42.9766 18.2633 43.3034 18.588C42.3841 18.9163 41.7449 18.4917 41.1021 17.8816C40.7107 17.5105 40.5814 16.8897 39.9781 16.7327C40.6137 16.1226 40.6281 15.3805 40.445 14.592C39.3748 10.068 36.5057 7.3386 32.0313 6.13981C30.7098 5.78659 29.3488 5.89006 28.0273 5.61533C28.0309 5.43694 28.0309 5.25855 28.0345 5.07659C29.593 4.87679 31.0976 4.48433 32.4802 3.6994Z" fill="#41C5EB"/>
<path d="M28.0293 5.08376C28.0257 5.26215 28.0257 5.44054 28.0221 5.62251C27.7456 5.66175 27.3327 5.4905 27.4224 6.06135C27.4871 6.46452 27.1783 6.70713 26.8551 6.62507C26.1117 6.43241 25.4402 6.89623 24.722 6.76422C24.5353 6.76778 24.3522 6.76778 24.169 6.77135C24.1618 6.55015 24.187 6.33964 24.3988 6.2005C25.9106 6.26472 26.5929 5.58683 26.1979 4.33808C26.6791 4.11331 27.1675 3.88853 27.8139 3.58527C27.6918 4.21677 26.9053 4.88396 28.0293 5.08376Z" fill="#CBEAF1"/>
<path d="M25.8431 45.8178C25.6564 45.5467 25.4697 45.2755 25.2865 45.0044C25.2758 44.6583 25.265 44.3122 25.2578 43.9661C25.3189 43.8591 25.4015 43.6522 25.4302 43.6593C27.0461 44.066 28.6692 44.1017 30.3391 44.0018C31.305 43.9412 32.4506 43.4631 33.298 44.4514C33.1113 44.6083 32.9641 44.7832 33.0359 45.0508C33.0646 45.4682 32.9102 45.7608 32.4757 45.8642C31.8042 45.4004 31.1362 45.2898 30.2924 45.5039C29.567 45.693 28.7231 45.6644 27.9834 45.5003C27.2364 45.3362 26.6547 45.4468 26.0873 45.8928C26.0083 45.8678 25.9257 45.8428 25.8431 45.8178Z" fill="#3568B1"/>
<path d="M33.0342 45.0507C32.9623 44.7796 33.1096 44.6083 33.2963 44.4513C33.8421 44.4014 34.1438 44.0446 34.3916 43.6129C35.4976 43.6914 36.3056 42.5746 37.4654 42.8422C37.5157 43.2918 37.803 43.7306 37.5516 44.2016C36.4528 44.2194 35.6161 44.9152 34.6896 45.3504C34.0181 45.6644 33.4902 45.6751 33.0342 45.0507Z" fill="#89D4EE"/>
<path d="M46.9078 36.2275C46.9976 36.413 47.091 36.5985 47.1807 36.7841C46.0747 37.808 44.7676 38.65 44.1284 40.0986C43.4749 40.202 42.9613 39.8988 42.4694 39.5313C42.3509 39.1745 41.6937 39.385 41.7584 38.6893C43.0332 37.7973 43.7801 36.2846 44.9508 35.1321C45.0764 35.3498 45.2883 35.4033 45.5181 35.4069C45.9814 35.678 46.4446 35.9527 46.9078 36.2275Z" fill="#60CBF1"/>
<path d="M44.9493 35.1286C43.7787 36.281 43.0317 37.7937 41.7569 38.6857C41.6923 39.3814 42.3494 39.1745 42.4679 39.5277C41.9868 39.5099 41.5163 39.5348 41.0962 39.8096C41.1034 39.253 41.1967 38.6607 40.4498 38.2254C40.2164 39.2744 39.5162 39.8274 38.7046 40.2556C38.1947 40.5267 38.0259 40.9406 38.0259 41.4722C37.3221 41.3081 36.5931 41.1832 36.3633 40.3376C36.6003 40.0165 36.6577 39.6419 36.6793 39.2566C37.4513 39.3208 37.9254 38.7571 38.4784 38.3824C40.4534 37.0481 42.0658 35.2962 43.8541 33.7478C44.048 34.0689 44.3748 34.0154 44.6764 34.0332C44.7698 34.4007 44.8595 34.7646 44.9493 35.1286Z" fill="#68CCF0"/>
<path d="M38.0273 41.4757C38.0273 40.9477 38.1925 40.5267 38.706 40.2591C39.514 39.831 40.2143 39.2744 40.4513 38.229C41.1982 38.6643 41.1012 39.2565 41.0976 39.8131C40.4908 40.4411 40.5267 41.3865 39.9952 42.0537C39.2555 40.8478 38.8102 42.043 38.25 42.2678C38.3326 41.961 38.1925 41.7148 38.0273 41.4757Z" fill="#4F788E"/>
<path d="M38.0276 41.4758C38.1928 41.7148 38.3329 41.961 38.2467 42.2678C37.8445 42.2678 37.6434 42.5425 37.4603 42.8422C36.304 42.5747 35.496 43.6878 34.39 43.6129C34.5156 43.0099 33.9375 42.6068 33.9375 42.0395C34.9825 41.8076 35.3488 40.6159 36.365 40.3412C36.5948 41.1868 37.3238 41.3116 38.0276 41.4758Z" fill="#91D7EE"/>
<path d="M39.9738 16.7327C40.5771 16.8897 40.7064 17.5105 41.0978 17.8816C41.7406 18.4917 42.3798 18.9162 43.2991 18.588C43.3027 18.6808 43.3027 18.7735 43.3027 18.8627C43.2093 18.9448 43.1124 19.0269 43.019 19.1125C42.624 19.7012 42.132 20.0936 41.36 19.9081C41.1553 19.6619 40.9506 19.4157 40.7459 19.166C40.6418 18.6701 40.3688 18.2705 40.0097 17.928C39.6111 17.5355 39.6973 17.1395 39.9738 16.7327Z" fill="#B8E3EF"/>
<path d="M41.3621 19.9046C42.1342 20.0937 42.6262 19.7012 43.0212 19.1089C43.2941 20.0758 44.8023 20.1115 44.7197 21.346C43.9584 22.2522 43.5455 23.5045 42.1988 23.8256C41.8757 24.3287 41.3657 24.5428 40.8163 24.6962C40.705 24.764 40.5937 24.8318 40.4788 24.8996C39.8144 23.765 41.0928 23.2298 41.2903 22.3521C41.4771 21.5279 42.3461 20.7573 41.3621 19.9046Z" fill="#36C2EA"/>
<path d="M24.1593 39.8131C24.1414 39.7204 24.1234 39.6276 24.1055 39.5348C24.3173 39.1709 24.5292 38.807 24.7411 38.4431C25.2223 38.8284 25.7537 38.9675 26.3857 39.0104C28.1669 39.1352 29.93 39.31 31.7148 38.9996C33.4815 38.6928 35.2627 38.4966 36.8642 37.6118C36.972 38.1077 36.9253 38.5751 36.6021 38.9889C36.2969 39.2708 36.2789 39.7239 35.672 39.8488C32.9249 40.4197 30.167 40.8621 27.3697 40.6052C26.2924 40.5053 25.0678 40.7051 24.1593 39.8131Z" fill="#397BBE"/>
<path d="M36.8704 37.6118C35.2689 38.4966 33.4841 38.6928 31.721 38.9996C29.9363 39.31 28.1695 39.1352 26.392 39.0104C25.7563 38.964 25.2285 38.8248 24.7473 38.4431C24.7221 38.097 24.697 37.7473 24.6719 37.4013C26.3525 37.073 27.9756 37.7616 29.6597 37.6332C31.4912 37.494 33.2759 37.1729 35.0498 36.7341C35.6675 36.5806 36.084 36.2346 36.3605 35.6851C36.3749 36.2952 36.4072 36.8946 36.892 37.3549C36.8992 37.4405 36.892 37.5261 36.8704 37.6118Z" fill="#3B81C3"/>
<path d="M24.1621 39.8132C25.0742 40.7051 26.2951 40.5017 27.3724 40.6016C30.1698 40.8621 32.9277 40.4161 35.6748 39.8453C36.2817 39.7204 36.2996 39.2673 36.6048 38.9854C36.63 39.0746 36.6551 39.1674 36.6803 39.2566C36.6587 39.6419 36.6013 40.0165 36.3642 40.3376C35.348 40.6123 34.9817 41.804 33.9367 42.0359C31.7822 42.1394 29.6383 42.3891 27.473 42.2999C26.4567 42.2607 25.4297 41.6649 24.417 42.3178C24.2483 42.1108 24.0759 41.9039 23.9035 41.7005C23.8784 41.3438 23.8533 40.987 23.8281 40.6302C23.9394 40.3626 24.0508 40.0879 24.1621 39.8132Z" fill="#3876BB"/>
<path d="M23.9058 41.7077C24.0746 41.9146 24.247 42.1216 24.4194 42.3249C24.5235 42.5818 24.624 42.8351 24.7246 43.092C22.254 43.8662 19.8337 43.2561 17.4708 42.6603C14.2964 41.8611 11.2943 40.5624 8.79858 38.3967C8.38202 38.0364 7.40887 38.6715 7.53455 37.6154C7.92956 37.3228 7.70333 36.8376 7.89365 36.3524C9.98719 37.99 12.1131 39.4278 14.537 40.4447C17.0291 41.4901 19.6362 41.9075 22.2648 42.2714C22.8537 42.3463 23.4462 42.143 23.9058 41.7077Z" fill="#9FDBEF"/>
<path d="M44.6773 34.0332C44.3756 34.0154 44.0489 34.0689 43.8549 33.7478C43.7652 33.4731 43.6754 33.1948 43.582 32.92C44.2284 31.9103 44.8784 30.8971 45.5248 29.8874C46.717 29.2844 46.2573 28.314 46.0814 27.4077C46.2609 27.315 46.444 27.2222 46.6236 27.133C46.9719 27.9393 46.5302 29.0061 47.4603 29.6162C47.1982 30.0408 47.1551 30.5082 47.1838 30.9898V30.9934C45.8946 31.6356 45.8192 33.2697 44.6773 34.0332Z" fill="#98D9EE"/>
<path d="M47.4617 29.6163C46.528 29.0062 46.9697 27.9394 46.625 27.133C47.1816 26.7049 47.0021 26.027 47.1852 25.474C48.2733 25.5204 48.126 26.9939 49.1279 27.1366C49.0489 27.6932 49.7563 27.5897 49.8641 27.9644C49.742 28.7778 49.2285 29.2523 48.5713 29.6127C48.2014 29.3665 47.8316 29.3594 47.4617 29.6163Z" fill="#69CDEF"/>
<path d="M46.0787 27.4078C46.2547 28.314 46.7143 29.2845 45.5221 29.8874C45.6442 29.313 44.8937 29.6341 44.8362 29.206C45.0014 28.6779 45.084 28.0821 45.6406 27.7146C45.2528 27.3221 44.8147 27.4435 44.4161 27.4006C44.4125 27.3114 44.4053 27.2258 44.3945 27.1366C44.9942 27.0189 45.5688 27.0296 46.0787 27.4078Z" fill="#78D0EF"/>
<path d="M46.9092 36.2275C46.446 35.9527 45.9828 35.678 45.5195 35.4033C46.7584 34.3793 47.2899 32.8987 48.0153 31.5464C48.5611 31.5464 49.1033 31.5464 49.861 31.5464C49.1069 33.3696 48.3313 34.9859 46.9092 36.2275Z" fill="#89D4EE"/>
<path d="M48.0157 31.5465C47.2903 32.8987 46.7589 34.3793 45.52 35.4033C45.2866 35.3997 45.0819 35.3462 44.9526 35.1286C44.8628 34.7646 44.7695 34.3972 44.6797 34.0332C45.8216 33.2662 45.897 31.6356 47.1862 30.9899C47.2077 31.55 47.6099 31.5465 48.0157 31.5465Z" fill="#90D7EF"/>
<path d="M47.4639 29.6162C47.8338 29.3593 48.2036 29.3665 48.5735 29.6126C49.3923 29.7982 48.6166 30.3833 48.8536 30.7115C48.2647 30.6152 47.744 30.9006 47.1874 30.9898C47.1587 30.5082 47.2018 30.0408 47.4639 29.6162Z" fill="#90D7EF"/>
<path d="M24.7232 43.0884C24.6191 42.8315 24.5185 42.5782 24.418 42.3213C25.4306 41.6684 26.4576 42.2607 27.4739 42.3035C29.6393 42.3927 31.7831 42.1429 33.9377 42.0395C33.9377 42.6067 34.5194 43.0063 34.3901 43.6129C34.1459 44.0446 33.8407 44.4049 33.2949 44.4513C32.4474 43.4666 31.3019 43.9411 30.3359 44.0018C28.6697 44.1052 27.0466 44.0696 25.427 43.6593C25.3983 43.6521 25.3157 43.8591 25.2547 43.9661C25.0823 43.6735 24.9028 43.381 24.7232 43.0884Z" fill="#366FB6"/>
<path d="M24.1691 6.76776C24.3559 6.76419 24.539 6.76419 24.7221 6.76062C24.9017 6.88193 25.0848 6.99967 25.2752 7.12811C23.6305 7.78103 22.4634 8.96912 21.2963 10.4533C21.7883 10.5354 22.0469 10.5818 22.309 10.6246C21.0198 10.8636 20.1006 11.7057 19.1705 12.5334C19.0161 12.1124 18.8617 11.6878 18.6606 11.1348C17.9029 11.1348 17.1272 11.1348 16.3516 11.1348C16.9297 10.6924 17.594 10.9814 18.2189 10.9172C18.5313 10.8851 18.894 10.9564 19.052 10.5854C19.21 10.2179 19.0951 9.89319 18.8724 9.56495C18.7072 9.31877 18.2404 9.36515 18.2691 8.95485C18.8186 8.58022 19.8097 9.09043 20 8.06289C20.1903 7.98439 20.3842 7.90947 20.5746 7.83098C21.7739 7.40283 23.0128 7.03178 23.573 5.67957C24.1045 6.06132 23.3181 6.65002 23.9537 6.87123C23.9932 6.8855 24.047 6.8855 24.0794 6.86766C24.1189 6.84982 24.1404 6.80344 24.1691 6.76776Z" fill="#49C6EC"/>
<path d="M19.9979 8.05933C19.8076 9.08687 18.82 8.5731 18.267 8.95129C18.2383 9.36516 18.7015 9.31521 18.8703 9.56139C19.093 9.88963 19.2079 10.2143 19.0499 10.5818C18.8919 10.9529 18.5292 10.8815 18.2168 10.9136C17.5955 10.9778 16.9276 10.6924 16.3494 11.1312C15.8395 11.5094 16.2094 12.1552 15.8647 12.6262C15.423 13.2291 15.3188 13.825 16.3818 13.9177C16.6726 13.9427 16.6583 14.2246 16.687 14.4458C16.4356 14.8596 16.213 15.2842 15.7318 15.5161C15.1536 15.7909 14.8843 16.2761 14.9705 16.9254C14.8915 17.111 14.8161 17.2965 14.7371 17.482C14.5216 17.6461 14.3026 17.8138 14.0871 17.9815C13.3366 18.1742 13.2181 18.9234 12.8123 19.4193C12.5071 19.9652 12.2019 20.5147 11.8966 21.0606C10.0365 19.7333 11.0132 17.9744 11.279 16.4081C11.7925 13.3968 13.509 11.042 15.8395 9.11541C16.2058 8.81214 16.5039 8.49818 16.6834 8.06647C17.5668 8.04863 17.9941 7.30652 18.6046 6.86053C18.9996 7.43139 18.1162 7.64546 18.2958 8.24129C18.8344 8.19134 19.4161 8.12712 19.9979 8.05933Z" fill="#DAF0F5"/>
<path d="M11.8945 21.0641C12.1998 20.5182 12.505 19.9688 12.8102 19.4229C13.1837 19.8546 13.2627 20.4076 13.4099 20.925C14.3184 24.1467 15.9667 26.9368 18.326 29.313C17.5719 30.0551 16.6562 29.4093 15.841 29.5984C16.017 29.2452 16.4407 29.4343 16.6023 29.2951C14.6883 27.2079 13.3776 24.7782 12.2788 22.2879C11.9915 22.766 12.5373 23.5473 11.9592 24.0932C11.9376 23.0871 11.9197 22.0738 11.8945 21.0641Z" fill="#4094D0"/>
<path d="M14.7344 17.4856C14.8134 17.3001 14.8888 17.1145 14.9678 16.929C15.6034 16.9647 15.8691 17.3429 15.826 17.9351C15.7758 18.6309 15.9661 19.2874 16.0954 19.9581C17.8226 28.8884 28.3155 33.4981 36.1761 28.5388C37.0128 28.0107 37.8028 27.4006 38.6144 26.8262L38.6216 26.8155C38.7545 27.3079 39.4439 26.944 39.584 27.422C36.546 31.2718 29.5831 33.2912 23.087 30.7294C23.0726 30.9185 23.0583 31.0934 23.0439 31.2718C22.9649 31.2718 22.8823 31.2718 22.8033 31.2753C22.9254 29.8696 22.139 29.6983 20.9719 30.0373C20.7924 29.5663 20.6415 29.0989 20.2034 28.8385C20.2573 28.7707 20.3076 28.7065 20.3579 28.6387C20.2358 28.5994 20.1137 28.5566 19.9916 28.5174C19.9916 27.9358 19.5176 27.6647 19.1872 27.3079C17.3307 25.3099 15.9338 23.0586 15.3664 20.3649C15.1653 19.398 15.212 18.3847 14.7344 17.4856Z" fill="#459FD8"/>
<path d="M23.0527 31.2682C23.0671 31.0898 23.0815 30.915 23.0958 30.7259C29.5919 33.2876 36.5512 31.2682 39.5928 27.4185C39.4527 26.9404 38.7597 27.3079 38.6304 26.8119C39.6574 26.7406 40.5983 26.2125 41.6504 26.2839C41.6648 27.2258 41.6073 28.1463 40.864 28.8634C40.0237 29.3844 39.1762 29.8946 38.3467 30.4262C33.8077 33.334 28.9779 33.994 23.8212 32.3778C23.182 32.1815 23.0312 31.8212 23.0527 31.2682Z" fill="#419AD4"/>
<path d="M19.9981 28.5102C20.1201 28.5494 20.2422 28.5923 20.3643 28.6315C20.3141 28.6957 20.2602 28.7635 20.2099 28.8313C19.5205 28.7528 18.971 29.2238 18.3282 29.3201C15.969 26.9403 14.3207 24.1539 13.4122 20.9321C13.265 20.4148 13.186 19.8617 12.8125 19.43C13.2183 18.9341 13.3332 18.1849 14.0873 17.9922C14.8091 20.8215 15.2616 23.7792 17.2797 26.0627C18.0697 26.9582 18.5186 28.3282 19.9981 28.5102Z" fill="#419AD4"/>
<path d="M44.4206 27.397C44.8192 27.4398 45.2537 27.3185 45.6451 27.711C45.0885 28.0785 45.0095 28.6743 44.8407 29.2024C44.8982 29.6305 45.6451 29.3094 45.5266 29.8838C44.8802 30.8935 44.2302 31.9068 43.5839 32.9165C43.3074 32.8558 43.0309 32.4776 42.7472 32.9094C42.0218 32.8915 42.2337 32.1565 41.9141 31.8283C42.7472 30.3548 43.5839 28.8777 44.4206 27.397Z" fill="#A1DCEF"/>
<path d="M41.6396 26.2875C40.591 26.2197 39.6466 26.7441 38.6196 26.8155L38.6124 26.8262C38.4903 26.6478 38.3646 26.4658 38.2461 26.2875C38.3251 25.6345 38.8637 25.5739 39.3378 25.4918C39.7974 25.4133 40.2175 25.3277 40.4761 24.896C40.5874 24.8282 40.6987 24.7604 40.8136 24.6926C41.1332 25.1101 41.0004 25.7987 41.6288 26.027C41.6324 26.1126 41.636 26.2018 41.6396 26.2875Z" fill="#B8E3EF"/>
<path d="M41.6316 26.027C41.0031 25.7986 41.136 25.1065 40.8164 24.6926C41.3658 24.5428 41.8757 24.3287 42.1989 23.8221C42.8776 23.7828 43.1757 24.0968 42.9459 24.739C42.7196 25.3776 42.4072 25.9877 42.1199 26.6335C41.9476 26.4195 41.7896 26.2232 41.6316 26.027Z" fill="#B5E2EF"/>
<path d="M42.7421 32.9093C43.0258 32.4776 43.2987 32.8558 43.5788 32.9165C43.6686 33.1912 43.7584 33.4695 43.8518 33.7442C42.067 35.2962 40.4511 37.0445 38.4761 38.3788C37.923 38.7535 37.449 39.3172 36.677 39.253C36.6518 39.1638 36.6267 39.071 36.6016 38.9818C36.9248 38.5679 36.975 38.1005 36.8637 37.6046C36.8853 37.5226 36.8924 37.4369 36.8817 37.3477C38.1852 36.1026 39.5893 34.9501 40.7456 33.5837C41.374 32.8487 42.1891 33.416 42.7421 32.9093Z" fill="#6FCEEF"/>
<path d="M22.3056 10.6246C22.0471 10.5782 21.7885 10.5354 21.293 10.4533C22.4636 8.97267 23.6307 7.78101 25.2718 7.1281C25.0815 7.00322 24.8983 6.88191 24.7188 6.76061C25.437 6.89262 26.1085 6.42523 26.8518 6.62146C27.175 6.70352 27.4838 6.46091 27.4192 6.05774C27.3294 5.48689 27.7424 5.65814 28.0189 5.6189C29.3368 5.89362 30.7013 5.78659 32.0228 6.14337C36.4972 7.3386 39.37 10.068 40.4365 14.5956C40.6232 15.3841 40.6089 16.1262 39.9697 16.7363C39.6932 17.143 39.607 17.5391 40.0056 17.928C40.3647 18.274 40.6376 18.6736 40.7417 19.166C40.2785 19.694 40.1564 20.3933 39.8368 20.982C39.3592 21.8562 39.2802 23.0942 37.9515 23.294C37.6176 23.0871 37.3195 22.8445 37.1938 22.4484C38.5979 19.983 39.3197 17.4213 38.5692 14.5599C37.2118 9.358 31.7679 6.4288 26.5968 8.05574C25.085 8.53026 24.2555 10.0109 22.7114 10.3392C22.5785 10.4355 22.4421 10.5318 22.3056 10.6246Z" fill="#4FC7EB"/>
<path d="M37.9562 23.294C39.2848 23.0942 39.3638 21.8562 39.8414 20.982C40.1646 20.3934 40.2867 19.6941 40.7464 19.166C40.9511 19.4122 41.1557 19.6584 41.3604 19.9081C42.3444 20.7608 41.4717 21.5315 41.2886 22.3557C41.0911 23.2334 39.8127 23.765 40.477 24.9031C40.2185 25.3313 39.7983 25.4204 39.3387 25.4989C38.8647 25.581 38.3225 25.6417 38.247 26.2946C38.0819 26.0234 37.9203 25.7558 37.7551 25.4882C37.7515 25.4026 37.7479 25.317 37.7515 25.2278C38.2973 24.6284 37.9562 23.9434 37.9562 23.294Z" fill="#41C5EB"/>
<path d="M22.3048 10.6246C22.4412 10.5319 22.5777 10.4355 22.7141 10.3428C23.7483 11.0706 24.7861 11.7949 25.8203 12.5227C26.3554 12.9901 26.8904 12.3087 27.4219 12.5263C27.5835 12.7867 27.4219 13.1792 27.7666 13.3683C28.6141 13.6181 28.7865 14.428 29.2066 15.0452C29.4041 15.3378 29.6663 15.5411 29.0702 15.5911C28.4202 15.427 27.684 14.8597 27.4004 16.0692C27.2639 16.6507 26.7683 16.3974 26.3841 16.351C26.1184 15.9407 25.6049 16.1191 25.2673 15.8801C24.6389 15.8765 24.1469 15.509 23.6119 15.2628C23.418 15.0274 23.2492 14.7847 23.3246 14.4529C23.7052 13.8856 23.5472 13.4004 22.8793 13.5003C22.0821 13.6181 21.2203 13.4183 20.4805 13.8749C19.7695 13.8036 19.1339 13.982 18.5773 14.4315C18.4947 14.5207 18.4121 14.6099 18.3331 14.6955C17.8555 14.6634 17.3205 14.931 16.9219 14.4529C17.0547 14.1497 17.2738 13.9213 17.6149 13.9142C18.5414 13.8928 18.8969 13.2648 19.1698 12.5334C20.0963 11.7021 21.0156 10.8637 22.3048 10.6246Z" fill="#E9F5F8"/>
<path d="M19.17 12.5298C18.897 13.2612 18.5415 13.8927 17.6151 13.9106C17.2703 13.9177 17.0549 14.1425 16.922 14.4493C16.843 14.4493 16.7676 14.4458 16.6886 14.4458C16.6599 14.2245 16.6742 13.9427 16.3833 13.9177C15.324 13.8249 15.4246 13.2291 15.8662 12.6262C16.211 12.1552 15.8447 11.513 16.351 11.1312C17.1267 11.1312 17.9023 11.1312 18.66 11.1312C18.8611 11.6842 19.0155 12.1088 19.17 12.5298Z" fill="#3EC5EC"/>
<path d="M16.6839 14.4457C16.7629 14.4493 16.8383 14.4493 16.9173 14.4493C17.3195 14.9274 17.851 14.6634 18.3286 14.6919C18.0988 15.17 17.1651 14.8311 17.2154 15.6873C17.2764 16.6471 17.1436 17.6247 17.28 18.5702C18.2137 25.0601 23.8156 29.6555 30.2686 29.0489C33.1881 28.7742 35.673 27.529 37.7522 25.4775C37.9174 25.7487 38.0826 26.0163 38.2442 26.2838C38.3663 26.4622 38.4884 26.6442 38.6105 26.8226C37.7989 27.397 37.0125 28.0071 36.1722 28.5352C28.3115 33.4909 17.8151 28.8848 16.0914 19.9545C15.9621 19.2837 15.7718 18.6273 15.8221 17.9315C15.8616 17.3393 15.5994 16.9646 14.9638 16.9254C14.8812 16.2725 15.1506 15.7908 15.7251 15.5161C16.2135 15.2878 16.4325 14.8632 16.6839 14.4457Z" fill="#46A6DC"/>
<path d="M19.9967 28.5102C18.5208 28.3282 18.0719 26.9618 17.2783 26.0591C15.2602 23.7757 14.8077 20.8144 14.0859 17.9886C14.3014 17.8209 14.5204 17.6568 14.7359 17.4891C15.2135 18.3882 15.1668 19.3979 15.3679 20.3541C15.9389 23.0478 17.3322 25.3027 19.1887 27.2971C19.5227 27.6575 19.9967 27.9286 19.9967 28.5102Z" fill="#449ED7"/>
<path d="M25.825 12.5227C24.7907 11.7949 23.753 11.0706 22.7188 10.3428C24.2629 10.0109 25.0924 8.53386 26.6042 8.05934C31.7752 6.42883 37.2191 9.3616 38.5765 14.5635C39.3235 17.4249 38.6053 19.9866 37.2012 22.452C37.1222 22.4199 37.0468 22.3949 36.9642 22.3735C36.0521 21.7063 35.8151 20.6859 35.5386 19.6834C36.1957 19.5442 36.544 19.0982 36.6123 18.481C36.72 17.4999 36.8564 16.5401 36.6589 15.5233C35.7827 11.0064 30.4753 8.31979 26.5755 10.4855C26.6832 10.7317 26.7945 10.9743 26.9058 11.224C25.965 11.0777 25.3114 10.2607 24.1946 9.97527C24.7441 11.0385 25.6598 11.406 26.3851 11.9875C26.1445 12.2123 25.9865 12.3657 25.825 12.5227Z" fill="#57C8EB"/>
<path d="M36.9622 22.3699C37.0412 22.3913 37.1202 22.4199 37.1956 22.4484C37.3213 22.8409 37.6194 23.0835 37.9533 23.294C37.9569 23.9469 38.2981 24.6319 37.7486 25.2242C37.6014 24.6855 37.0269 24.6641 36.6965 24.3465C36.5995 24.0754 36.4954 23.8042 36.3984 23.5366C36.5888 23.1477 36.7755 22.7588 36.9622 22.3699Z" fill="#CFEBF2"/>
<path d="M36.7021 24.3465C37.0324 24.6641 37.6106 24.6855 37.7542 25.2242C37.7506 25.3099 37.7542 25.3955 37.7578 25.4847C35.6786 27.5362 33.1937 28.7814 30.2742 29.0561C23.8212 29.6626 18.2193 25.0672 17.2856 18.5773C17.1492 17.6318 17.282 16.6543 17.221 15.6945C17.1671 14.8418 18.1044 15.1807 18.3342 14.6991C18.4168 14.6099 18.4994 14.5207 18.582 14.4351C19.1817 15.063 18.9052 15.8408 18.8728 16.533C18.7076 20.0259 19.9322 22.9479 22.6182 25.1386C24.7549 26.8833 27.2326 27.7859 30.1198 27.4684C32.7089 27.1758 34.8024 26.0056 36.7021 24.3465Z" fill="#48AADF"/>
<path d="M36.7015 24.3466C34.8019 26.0056 32.7083 27.1759 30.112 27.4613C27.2285 27.7753 24.7471 26.8762 22.6105 25.1315C19.928 22.9408 18.7035 20.0188 18.8651 16.5258C18.8974 15.8373 19.1739 15.0559 18.5742 14.428C19.1308 13.9784 19.7664 13.8 20.481 13.8714C21.3321 14.0069 20.8437 14.6242 20.7719 14.9346C20.3553 16.8113 20.4415 18.6344 21.1166 20.4469C22.5315 24.2431 26.1799 25.92 29.2646 25.9735C31.3617 26.0092 33.2218 24.9923 34.9527 23.7793C35.5308 23.3761 35.6027 23.0086 35.5129 22.4485C36.0587 22.609 36.0479 23.2156 36.3999 23.5331C36.5004 23.8078 36.601 24.0754 36.7015 24.3466Z" fill="#4BB1E4"/>
<path d="M26.9046 11.2169C26.7969 10.9707 26.6855 10.7245 26.5742 10.4783C30.4704 8.31263 35.7779 10.9992 36.6577 15.5161C36.8552 16.5294 36.7223 17.4927 36.611 18.4739C36.5428 19.0911 36.1909 19.5371 35.5373 19.6762C34.8012 19.1696 34.794 18.0493 33.8639 17.7032C33.7777 17.2501 33.688 16.797 33.6018 16.3438C33.5766 15.4519 34.5462 14.6812 33.9286 13.6287C33.1709 13.9498 32.3557 13.4289 31.6052 13.8642C30.8044 13.5467 29.9928 13.2684 29.8528 12.2194C29.8097 11.8983 29.447 11.7306 29.0951 11.8591C28.797 11.9697 28.5672 12.1088 28.7073 12.5584C28.9838 13.4396 28.2871 13.3255 27.7664 13.3611C27.4217 13.172 27.5833 12.7796 27.4217 12.5191C27.1667 12.1231 26.8615 11.7413 26.9046 11.2169Z" fill="#64CBEB"/>
<path d="M35.5123 22.452C35.6057 23.0122 35.5303 23.3797 34.9521 23.7828C33.2213 24.9923 31.3611 26.0127 29.264 25.9771C26.1758 25.9235 22.5309 24.2467 21.1161 20.4505C20.441 18.638 20.3548 16.8184 20.7713 14.9381C20.8396 14.6277 21.3315 14.0105 20.4805 13.8749C21.2238 13.4182 22.082 13.618 22.8792 13.5003C23.5436 13.4004 23.7016 13.8856 23.3245 14.4529C23.0696 14.3851 23.0408 13.9392 22.6207 14.0819C22.3119 15.6446 21.8055 17.1395 22.179 18.8628C22.9977 22.6126 27.2854 25.185 30.9949 24.1325C32.6754 23.6544 33.7492 22.3735 35.1999 21.6243C35.3076 21.899 35.4118 22.1737 35.5123 22.452Z" fill="#4BB7E8"/>
<path d="M35.1997 21.6207C33.7526 22.3735 32.6753 23.6544 30.9947 24.1289C27.2816 25.1814 22.994 22.609 22.1788 18.8592C21.8054 17.1395 22.3117 15.6446 22.6205 14.0783C23.0407 13.932 23.0694 14.3816 23.3244 14.4493C23.249 14.7776 23.4141 15.0238 23.6116 15.2592C23.6081 16.1298 23.5865 16.9968 23.6081 17.8673C23.6727 20.3684 25.9853 22.5162 28.4846 22.7589C31.1024 23.0122 32.8261 21.7028 34.4169 19.9688C34.7796 20.4719 35.1854 20.9535 35.1997 21.6207Z" fill="#4CBCEC"/>
<path d="M34.416 19.9652C32.8216 21.6992 31.1015 23.0086 28.4837 22.7553C25.9843 22.5127 23.6717 20.3648 23.6071 17.8638C23.5856 16.9968 23.6071 16.1262 23.6107 15.2557C24.1458 15.5019 24.6377 15.8693 25.2661 15.8729C25.259 16.0085 25.2733 16.1512 25.241 16.2868C24.8029 18.1349 25.5821 19.8974 27.2448 20.8037C28.9325 21.7242 30.5521 21.4209 32.0351 20.0187C32.6061 19.48 32.8252 18.6451 33.5972 18.3062C34.1 18.7522 34.3262 19.323 34.416 19.9652Z" fill="#4CC1EF"/>
<path d="M33.5976 18.3097C32.8219 18.6487 32.6029 19.4871 32.0355 20.0223C30.5488 21.4245 28.9329 21.7277 27.2451 20.8072C25.5825 19.901 24.8033 18.142 25.2414 16.2903C25.2737 16.1583 25.2593 16.0156 25.2665 15.8765C25.6041 16.1191 26.1176 15.9371 26.3833 16.3474C26.43 16.722 26.983 16.5472 27.0333 17.0895C27.1949 18.8592 28.247 19.7012 29.669 19.3801C30.9223 19.0947 31.5579 17.7924 31.1521 16.3546C31.5723 16.194 31.9924 16.037 32.4126 15.88C32.8076 16.0335 33.2062 16.194 33.6012 16.3474C33.6874 16.8005 33.7771 17.2537 33.8633 17.7103C33.7735 17.9066 33.6874 18.1064 33.5976 18.3097Z" fill="#4EC8F4"/>
<path d="M31.1477 16.3546C31.5571 17.7924 30.9179 19.0982 29.6647 19.3801C28.2426 19.7012 27.1905 18.8556 27.0289 17.0895C26.9786 16.5472 26.4292 16.7256 26.3789 16.3474C26.7596 16.3938 27.2587 16.6471 27.3952 16.0656C27.6788 14.8525 28.4186 15.4234 29.0686 15.5875C29.6754 16.0763 30.6163 15.6731 31.1477 16.3546Z" fill="#55C9F3"/>
<path d="M31.1483 16.3546C30.6133 15.6731 29.676 16.0798 29.0692 15.5875C29.6688 15.5375 29.4031 15.3341 29.2056 15.0416C28.7891 14.4243 28.6167 13.6144 27.7656 13.3647C28.2827 13.329 28.983 13.4432 28.7065 12.5619C28.5664 12.116 28.7962 11.9732 29.0943 11.8626C29.4426 11.7306 29.8089 11.9019 29.852 12.223C29.992 13.2719 30.8072 13.5502 31.6044 13.8678C32.2615 14.3851 32.2256 15.1736 32.4088 15.8765C31.9922 16.037 31.5721 16.194 31.1483 16.3546Z" fill="#E4F3F7"/>
<path d="M26.9023 11.2169C26.8592 11.7378 27.1644 12.1231 27.423 12.5263C26.8879 12.3086 26.3529 12.9901 25.8178 12.5227C25.9794 12.3693 26.1374 12.2123 26.378 11.9839C25.6562 11.4024 24.7369 11.0349 24.1875 9.97168C25.3115 10.2535 25.9614 11.0706 26.9023 11.2169Z" fill="#E4F3F7"/>
<path d="M33.5977 18.3098C33.6874 18.11 33.7736 17.9102 33.8598 17.7068C34.7899 18.0529 34.797 19.1732 35.5332 19.6798C35.8061 20.6788 36.0431 21.7028 36.9588 22.37C36.7721 22.7589 36.5854 23.1477 36.3986 23.5366C36.0503 23.2191 36.0611 22.6126 35.5117 22.452C35.4075 22.1737 35.3034 21.899 35.1992 21.6207C35.1813 20.9535 34.7791 20.4683 34.4128 19.9652C34.3266 19.323 34.1004 18.7522 33.5977 18.3098Z" fill="#D4EDF4"/>
<path d="M32.4138 15.88C32.2306 15.1772 32.2629 14.3887 31.6094 13.8713C32.3599 13.4325 33.175 13.957 33.9327 13.6359C34.5504 14.6884 33.5808 15.4555 33.606 16.351C33.2074 16.1904 32.8088 16.037 32.4138 15.88Z" fill="#DAF0F5"/>
</svg>
