<svg width="572" height="197" viewBox="0 0 572 197" fill="none" xmlns="http://www.w3.org/2000/svg">
<path d="M100.212 0C155.229 0 200.042 44.2238 200.051 98.5046C200.051 153.013 155.129 197.036 99.511 197C86.4317 197.052 73.4714 194.517 61.3773 189.541C49.2831 184.566 38.2942 177.248 29.044 168.01C19.7938 158.772 12.4651 147.797 7.48043 135.716C2.49576 123.635 -0.0463468 110.688 0.000639637 97.6217C0.073521 43.6868 44.9411 0 100.212 0ZM100.212 27.3042C60.3099 27.2132 27.7411 58.877 27.5498 97.9403C27.3585 137.231 59.7178 169.514 99.5201 169.714C139.523 169.914 172.119 138.178 172.274 98.8868C172.429 59.596 140.06 27.3861 100.212 27.3042Z" fill="#064C8E"/>
<path d="M100.212 27.3042C140.042 27.3952 172.392 59.5505 172.238 98.8868C172.083 138.223 139.441 169.878 99.4837 169.714C59.7178 169.514 27.3585 137.231 27.5134 97.9403C27.7594 58.8679 60.3282 27.2041 100.212 27.3042ZM97.2517 156.544C111.773 156.462 123.006 153.277 133.018 146.351C147.786 136.148 156.295 122.086 158.354 104.248C159.028 98.4044 155.502 93.9994 150.054 93.3805C144.889 92.8071 140.671 96.3839 139.824 102.054C139.568 103.738 139.386 105.44 139.004 107.096C137.273 114.731 133.324 121.686 127.651 127.086C121.978 132.486 114.835 136.091 107.118 137.449C99.1724 138.859 90.9863 137.856 83.6168 134.571C76.2473 131.286 70.0329 125.868 65.7761 119.019C62.2049 113.331 56.8572 111.62 52.0106 114.596C47.164 117.572 46.2986 123.097 50.0337 128.876C61.6492 146.86 78.3481 155.762 97.2699 156.544H97.2517Z" fill="#FDFDFD"/>
<path d="M97.2699 156.544C78.3755 155.762 61.6492 146.86 50.0337 128.876C46.2986 123.097 47.1458 117.581 52.0106 114.596C56.8755 111.611 62.2049 113.331 65.7761 119.019C70.036 125.867 76.2529 131.281 83.6241 134.563C90.9952 137.845 99.182 138.844 107.127 137.431C114.844 136.073 121.987 132.468 127.66 127.067C133.333 121.667 137.283 114.713 139.013 107.078C139.395 105.422 139.578 103.72 139.833 102.036C140.68 96.3657 144.898 92.7889 150.063 93.3623C155.529 93.9812 159.037 98.3862 158.363 104.229C156.304 122.068 147.795 136.13 133.027 146.332C122.988 153.277 111.792 156.462 97.2699 156.544Z" fill="#E51D3D"/>
<path d="M282.261 176.231C282.261 178.961 280.767 180.9 276.795 184.513L268.268 192.822H282.935V195.107H264.077V192.95L275.647 182.392C278.498 179.662 279.419 178.315 279.419 176.449C279.419 173.182 276.686 171.216 273.397 171.216C269.971 171.216 267.73 172.617 265.671 175.53L263.849 174.055C264.842 172.387 266.266 171.016 267.971 170.086C269.677 169.156 271.601 168.7 273.543 168.767C278.143 168.722 282.261 171.471 282.261 176.231Z" fill="#706F6F"/>
<path d="M309.947 182.11C309.947 190.192 305.583 195.489 298.359 195.489C291.134 195.489 286.761 190.192 286.761 182.11C286.761 174.028 291.125 168.731 298.359 168.731C305.592 168.731 309.947 174.019 309.947 182.11ZM289.586 182.11C289.586 188.745 292.902 193.032 298.359 193.032C303.816 193.032 307.132 188.772 307.132 182.11C307.132 175.448 303.816 171.188 298.359 171.188C292.902 171.188 289.586 175.466 289.586 182.11Z" fill="#706F6F"/>
<path d="M356.254 195.107H353.521V171.871L341.331 192.367H340.111L327.967 171.871V195.107H325.234V168.376H328.951L340.794 188.153L352.564 168.376H356.272L356.254 195.107Z" fill="#706F6F"/>
<path d="M380.086 182.756V195.107H377.508V192.668C375.069 194.575 372.04 195.573 368.944 195.489C365.063 195.489 362.23 193.059 362.23 189.318C362.23 185.578 365.136 183.685 369.755 183.676H377.508V182.938C377.508 179.243 375.075 177.614 371.559 177.614C369.041 177.629 366.594 178.452 364.58 179.962L363.742 178.288C366.204 176.535 369.146 175.581 372.169 175.557C376.715 175.603 380.086 177.732 380.086 182.756ZM364.781 189.127C364.781 192.022 366.949 193.896 369.955 193.896C372.669 193.99 375.333 193.155 377.508 191.53V184.868H370.63C366.976 184.831 364.781 186.26 364.781 189.091V189.127Z" fill="#706F6F"/>
<path d="M397.732 177.723C396.036 177.747 394.362 178.115 392.812 178.807C391.263 179.499 389.872 180.499 388.722 181.746V195.107H386.144V175.994H388.722V179.635C389.876 178.391 391.268 177.392 392.816 176.696C394.364 176 396.036 175.622 397.732 175.584V177.723Z" fill="#706F6F"/>
<path d="M418.677 179.207L416.727 180.363C415.668 179.192 414.277 178.373 412.739 178.015C411.201 177.657 409.59 177.777 408.122 178.36C406.655 178.942 405.4 179.959 404.528 181.274C403.655 182.589 403.206 184.139 403.24 185.716C403.274 187.293 403.79 188.823 404.718 190.099C405.647 191.375 406.944 192.337 408.435 192.855C409.927 193.374 411.541 193.425 413.062 193.001C414.583 192.577 415.938 191.699 416.946 190.483L418.904 191.63C417.935 192.84 416.705 193.815 415.306 194.484C413.907 195.152 412.375 195.496 410.824 195.489C409.491 195.529 408.164 195.302 406.922 194.82C405.679 194.339 404.546 193.613 403.589 192.686C402.632 191.758 401.872 190.649 401.352 189.422C400.833 188.196 400.565 186.878 400.565 185.546C400.565 184.214 400.833 182.896 401.352 181.67C401.872 180.443 402.632 179.333 403.589 178.406C404.546 177.479 405.679 176.753 406.922 176.271C408.164 175.79 409.491 175.562 410.824 175.603C412.316 175.598 413.792 175.917 415.148 176.54C416.504 177.162 417.708 178.072 418.677 179.207Z" fill="#706F6F"/>
<path d="M426.903 178.925C429.401 176.807 432.564 175.634 435.84 175.612C439.967 175.612 442.937 178.087 442.937 182.893V195.143H440.35V183.539C440.35 179.744 438.181 177.723 434.938 177.723C431.967 177.718 429.102 178.829 426.912 180.836V195.107H424.325V168.376H426.912L426.903 178.925Z" fill="#706F6F"/>
<path d="M307.733 81.0572H296.464L289.112 57.5937L281.76 81.0572H270.491L257.09 40.2919H269.37L276.658 63.9556L283.746 40.2919H294.478L301.575 63.9556L308.863 40.2919H321.134L307.733 81.0572Z" fill="#706E6E"/>
<path d="M351.917 66.4949C351.917 74.8773 344.456 81.6396 335.309 81.6396C326.163 81.6396 318.711 74.8773 318.711 66.4949C318.711 58.1125 326.145 51.3502 335.309 51.3502C344.474 51.3502 351.917 58.1034 351.917 66.4949ZM328.777 66.4949C328.77 67.7741 329.143 69.0267 329.849 70.0939C330.555 71.1612 331.562 71.9951 332.743 72.49C333.924 72.985 335.225 73.1187 336.482 72.8742C337.739 72.6297 338.895 72.0181 339.803 71.1167C340.712 70.2154 341.332 69.0649 341.586 67.811C341.839 66.5571 341.715 65.2562 341.228 64.0732C340.74 62.8901 339.913 61.8781 338.85 61.1654C337.786 60.4526 336.535 60.0711 335.255 60.0693C333.545 60.0693 331.904 60.7448 330.691 61.9485C329.477 63.1523 328.79 64.7866 328.777 66.4949Z" fill="#706E6E"/>
<path d="M376.697 59.6324C372.971 59.6324 369.409 61.4527 366.676 64.8111V81.0571H356.381V51.9326H366.658V57.3389C369.536 53.4981 373.244 51.3866 376.679 51.3866L376.697 59.6324Z" fill="#706E6E"/>
<path d="M390.517 81.0025H380.25V40.2646H390.517V81.0025Z" fill="#706E6E"/>
<path d="M426.803 40.2828V81.0572H416.536V77.4894C415.371 78.7824 413.95 79.8192 412.363 80.5337C410.776 81.2482 409.057 81.6249 407.316 81.6396C399.336 81.6396 394.626 74.8773 394.626 66.4949C394.626 58.1125 399.336 51.3502 407.316 51.3502C409.058 51.37 410.777 51.7507 412.364 52.4682C413.951 53.1857 415.371 54.2244 416.536 55.5186V40.2828H426.803ZM404.747 66.4949C404.741 67.3375 404.901 68.1731 405.219 68.9539C405.536 69.7347 406.004 70.4454 406.596 71.0454C407.188 71.6455 407.893 72.1231 408.67 72.4511C409.447 72.7791 410.281 72.9509 411.124 72.9569C412.232 72.9571 413.32 72.6662 414.279 72.1135C415.239 71.5608 416.036 70.7656 416.59 69.8078V63.1729C416.035 62.2168 415.237 61.4235 414.278 60.8723C413.318 60.3212 412.231 60.0318 411.124 60.0329C410.281 60.0388 409.447 60.2107 408.67 60.5387C407.893 60.8667 407.188 61.3443 406.596 61.9444C406.004 62.5444 405.536 63.2551 405.219 64.0359C404.901 64.8167 404.741 65.6523 404.747 66.4949Z" fill="#706E6E"/>
<path d="M489.563 60.67C489.563 72.2561 479.779 81.6032 467.698 81.6032C455.618 81.6032 445.834 72.2197 445.834 60.67C445.834 49.1203 455.618 39.7368 467.698 39.7368C479.779 39.7368 489.563 49.093 489.563 60.67ZM457.295 60.67C457.295 66.5677 461.604 71.3368 467.708 71.3368C473.811 71.3368 478.13 66.5677 478.13 60.67C478.13 54.7723 473.82 50.0031 467.708 50.0031C461.595 50.0031 457.331 54.7814 457.331 60.67H457.295Z" fill="#706E6E"/>
<path d="M515.226 59.6324C511.5 59.6324 507.938 61.4527 505.205 64.8111V81.0571H494.92V51.9326H505.187V57.3389C508.075 53.4981 511.773 51.3866 515.208 51.3866L515.226 59.6324Z" fill="#706E6E"/>
<path d="M545.754 62.2354V81.0572H535.469V77.5895C534.21 78.897 532.694 79.9314 531.017 80.6282C529.34 81.325 527.537 81.6693 525.721 81.6396C520.255 81.6396 516.283 78.0628 516.283 72.5382C516.283 67.0137 520.355 64.0284 526.851 64.0011H535.469V63.2184C535.469 60.4061 533.337 59.232 530.358 59.2502C527.368 59.3759 524.455 60.2355 521.877 61.7531L518.989 55.2182C523.327 52.8092 528.184 51.4852 533.146 51.3593C540.088 51.3137 545.754 54.3354 545.754 62.2354ZM526.413 71.5189C526.381 72.047 526.46 72.576 526.645 73.0719C526.829 73.5678 527.116 74.0196 527.486 74.3984C527.855 74.7772 528.3 75.0746 528.792 75.2715C529.283 75.4684 529.811 75.5604 530.34 75.5417C532.174 75.5938 533.975 75.0545 535.478 74.0036V67.8874H530.85C528.081 67.8874 526.413 69.107 526.413 71.5189Z" fill="#706E6E"/>
<path d="M561.643 81.0025H551.366V40.2646H561.643V81.0025Z" fill="#706E6E"/>
<path d="M298.441 140.207H287.445V124.626H270.837V140.207H259.841V99.442H270.837V114.787H287.445V99.442H298.441V140.207Z" fill="#706E6E"/>
<path d="M334.453 125.654V128.148H313.819C313.946 131.47 316.962 133.418 320.369 133.427C322.723 133.455 325.001 132.593 326.746 131.015L332.094 135.793C328.681 139.019 324.157 140.812 319.458 140.799C315.381 140.855 311.448 139.291 308.525 136.451C305.602 133.611 303.928 129.727 303.87 125.654C303.877 123.657 304.278 121.681 305.05 119.84C305.822 117.998 306.949 116.326 308.368 114.919C309.787 113.513 311.469 112.399 313.319 111.643C315.169 110.886 317.149 110.501 319.148 110.509C328.759 110.509 334.453 117.263 334.453 125.654ZM313.891 123.36H324.869C324.915 122.623 324.807 121.885 324.551 121.192C324.294 120.499 323.896 119.868 323.382 119.337C322.867 118.807 322.248 118.39 321.563 118.112C320.878 117.835 320.142 117.704 319.403 117.727C318.671 117.735 317.948 117.887 317.274 118.175C316.601 118.463 315.991 118.88 315.479 119.403C314.967 119.926 314.564 120.545 314.291 121.224C314.019 121.903 313.883 122.629 313.891 123.36Z" fill="#706E6E"/>
<path d="M366.995 121.395V140.216H356.709V136.749C355.448 138.056 353.931 139.091 352.252 139.788C350.574 140.484 348.77 140.829 346.952 140.799C341.486 140.799 337.514 137.222 337.514 131.697C337.514 126.173 341.595 123.188 348.082 123.16H356.709V122.378C356.709 119.565 354.578 118.391 351.598 118.409C348.608 118.535 345.695 119.395 343.117 120.912L340.22 114.377C344.562 111.971 349.422 110.651 354.386 110.528C361.328 110.473 366.995 113.495 366.995 121.395ZM347.654 130.678C347.616 131.209 347.691 131.741 347.873 132.241C348.056 132.741 348.341 133.197 348.712 133.579C349.082 133.961 349.529 134.261 350.023 134.459C350.518 134.657 351.048 134.749 351.58 134.728C353.411 134.782 355.21 134.242 356.709 133.19V127.047H352.09C349.321 127.047 347.654 128.266 347.654 130.678Z" fill="#706E6E"/>
<path d="M382.883 140.162H372.607V99.3874H382.883V140.162Z" fill="#706E6E"/>
<path d="M400.147 111.092H407.298V118.864H400.137V128.876C400.137 131.37 401.868 132.517 403.982 132.517C405.353 132.471 406.69 132.083 407.872 131.388L409.147 138.341C406.345 139.861 403.225 140.703 400.037 140.799C394.507 140.844 389.888 137.595 389.888 130.642V118.864H386.09V111.092H389.916V103.565H400.183L400.147 111.092Z" fill="#706E6E"/>
<path d="M424.024 114.277C427.067 111.9 430.803 110.577 434.665 110.509C440.331 110.509 444.914 113.567 444.914 120.13V140.216H434.638V123.215C434.638 120.33 432.98 118.792 430.511 118.792C428.148 118.785 425.857 119.595 424.024 121.085V140.198H413.757V99.4238H424.024V114.277Z" fill="#706E6E"/>
<path d="M504.066 119.829C504.066 131.415 494.282 140.216 482.202 140.216H464.719V99.442H482.22C494.282 99.442 504.066 108.252 504.066 119.829ZM475.715 109.217V130.378H481.801C487.896 130.378 492.833 125.827 492.833 119.793C492.833 113.759 487.896 109.217 481.801 109.217H475.715Z" fill="#706E6E"/>
<path d="M536.079 121.395V140.216H525.794V136.749C524.532 138.056 523.015 139.089 521.337 139.786C519.658 140.483 517.854 140.828 516.037 140.799C510.571 140.799 506.599 137.222 506.599 131.697C506.599 126.173 510.68 123.188 517.167 123.16H525.794V122.378C525.794 119.565 523.662 118.391 520.674 118.409C517.687 118.537 514.777 119.396 512.202 120.912L509.305 114.377C513.646 111.968 518.506 110.644 523.471 110.518C530.404 110.473 536.079 113.495 536.079 121.395ZM516.739 130.678C516.701 131.209 516.776 131.741 516.958 132.241C517.14 132.741 517.426 133.197 517.797 133.579C518.167 133.961 518.614 134.261 519.108 134.459C519.602 134.657 520.133 134.749 520.665 134.728C522.496 134.782 524.295 134.242 525.794 133.19V127.047H521.166C518.369 127.047 516.739 128.266 516.739 130.678Z" fill="#706E6E"/>
<path d="M559.848 142.892C557.115 150.064 552.423 152.185 547.494 152.194C544.144 152.096 540.839 151.383 537.747 150.091L540.58 143.411C542.432 144.259 544.456 144.667 546.492 144.603C547.408 144.518 548.286 144.197 549.041 143.673C549.797 143.148 550.403 142.437 550.801 141.609L551.038 141.136L538.548 111.101H549.344L555.566 128.33L561.369 111.101H572.001L559.848 142.892Z" fill="#706E6E"/>
</svg>
