<svg width="636" height="200" viewBox="0 0 636 200" fill="none" xmlns="http://www.w3.org/2000/svg">
<line x1="195" y1="99.5" x2="623" y2="99.5" stroke="#92A985"/>
<rect y="200" width="200" height="200" rx="100" transform="rotate(-90 0 200)" fill="#C19A36"/>
<path d="M60.4574 105.656C60.4574 106.976 60.1094 108.2 59.4134 109.328C58.7414 110.432 57.7334 111.344 56.3894 112.064C55.0694 112.76 53.4974 113.144 51.6734 113.216V116.132H49.3694V113.18C46.8254 112.964 44.7734 112.208 43.2134 110.912C41.6534 109.592 40.8254 107.804 40.7294 105.548H47.2814C47.4254 106.988 48.1214 107.912 49.3694 108.32V102.632C47.4974 102.152 45.9974 101.684 44.8694 101.228C43.7654 100.772 42.7934 100.04 41.9534 99.032C41.1134 98.024 40.6934 96.644 40.6934 94.892C40.6934 92.708 41.4974 90.956 43.1054 89.636C44.7374 88.316 46.8254 87.572 49.3694 87.404V84.488H51.6734V87.404C54.1934 87.596 56.1854 88.328 57.6494 89.6C59.1134 90.872 59.9294 92.636 60.0974 94.892H53.5094C53.3654 93.596 52.7534 92.756 51.6734 92.372V97.952C53.6654 98.504 55.2014 98.996 56.2814 99.428C57.3614 99.86 58.3214 100.58 59.1614 101.588C60.0254 102.572 60.4574 103.928 60.4574 105.656ZM47.2094 94.604C47.2094 95.204 47.3894 95.708 47.7494 96.116C48.1334 96.524 48.6734 96.884 49.3694 97.196V92.192C48.6974 92.312 48.1694 92.576 47.7854 92.984C47.4014 93.368 47.2094 93.908 47.2094 94.604ZM51.6734 108.428C52.3934 108.308 52.9574 108.02 53.3654 107.564C53.7974 107.108 54.0134 106.544 54.0134 105.872C54.0134 105.248 53.8094 104.744 53.4014 104.36C53.0174 103.952 52.4414 103.604 51.6734 103.316V108.428ZM63.7767 92.444V86.72H73.7487V113H67.3407V92.444H63.7767ZM77.9598 99.5C77.9598 95.372 78.7518 92.12 80.3358 89.744C81.9438 87.368 84.5238 86.18 88.0758 86.18C91.6278 86.18 94.1958 87.368 95.7798 89.744C97.3878 92.12 98.1918 95.372 98.1918 99.5C98.1918 103.676 97.3878 106.952 95.7798 109.328C94.1958 111.704 91.6278 112.892 88.0758 112.892C84.5238 112.892 81.9438 111.704 80.3358 109.328C78.7518 106.952 77.9598 103.676 77.9598 99.5ZM92.1438 99.5C92.1438 97.076 91.8798 95.216 91.3518 93.92C90.8238 92.6 89.7318 91.94 88.0758 91.94C86.4198 91.94 85.3278 92.6 84.7998 93.92C84.2718 95.216 84.0078 97.076 84.0078 99.5C84.0078 101.132 84.1038 102.488 84.2958 103.568C84.4878 104.624 84.8718 105.488 85.4478 106.16C86.0478 106.808 86.9238 107.132 88.0758 107.132C89.2278 107.132 90.0918 106.808 90.6678 106.16C91.2678 105.488 91.6638 104.624 91.8558 103.568C92.0478 102.488 92.1438 101.132 92.1438 99.5ZM101.444 99.5C101.444 95.372 102.236 92.12 103.82 89.744C105.428 87.368 108.008 86.18 111.56 86.18C115.112 86.18 117.68 87.368 119.264 89.744C120.872 92.12 121.676 95.372 121.676 99.5C121.676 103.676 120.872 106.952 119.264 109.328C117.68 111.704 115.112 112.892 111.56 112.892C108.008 112.892 105.428 111.704 103.82 109.328C102.236 106.952 101.444 103.676 101.444 99.5ZM115.628 99.5C115.628 97.076 115.364 95.216 114.836 93.92C114.308 92.6 113.216 91.94 111.56 91.94C109.904 91.94 108.812 92.6 108.284 93.92C107.756 95.216 107.492 97.076 107.492 99.5C107.492 101.132 107.588 102.488 107.78 103.568C107.972 104.624 108.356 105.488 108.932 106.16C109.532 106.808 110.408 107.132 111.56 107.132C112.712 107.132 113.576 106.808 114.152 106.16C114.752 105.488 115.148 104.624 115.34 103.568C115.532 102.488 115.628 101.132 115.628 99.5ZM124.929 99.5C124.929 95.372 125.721 92.12 127.305 89.744C128.913 87.368 131.493 86.18 135.045 86.18C138.597 86.18 141.165 87.368 142.749 89.744C144.357 92.12 145.161 95.372 145.161 99.5C145.161 103.676 144.357 106.952 142.749 109.328C141.165 111.704 138.597 112.892 135.045 112.892C131.493 112.892 128.913 111.704 127.305 109.328C125.721 106.952 124.929 103.676 124.929 99.5ZM139.113 99.5C139.113 97.076 138.849 95.216 138.321 93.92C137.793 92.6 136.701 91.94 135.045 91.94C133.389 91.94 132.297 92.6 131.769 93.92C131.241 95.216 130.977 97.076 130.977 99.5C130.977 101.132 131.073 102.488 131.265 103.568C131.457 104.624 131.841 105.488 132.417 106.16C133.017 106.808 133.893 107.132 135.045 107.132C136.197 107.132 137.061 106.808 137.637 106.16C138.237 105.488 138.633 104.624 138.825 103.568C139.017 102.488 139.113 101.132 139.113 99.5ZM157.125 86.828L156.405 104.072H151.185L150.465 86.828H157.125ZM153.885 113.288C152.805 113.288 151.917 112.976 151.221 112.352C150.549 111.704 150.213 110.912 150.213 109.976C150.213 109.016 150.549 108.212 151.221 107.564C151.917 106.916 152.805 106.592 153.885 106.592C154.941 106.592 155.805 106.916 156.477 107.564C157.173 108.212 157.521 109.016 157.521 109.976C157.521 110.912 157.173 111.704 156.477 112.352C155.805 112.976 154.941 113.288 153.885 113.288Z" fill="white"/>
<rect x="223" y="143" width="86" height="86" rx="43" transform="rotate(-90 223 143)" fill="#92A985"/>
<path d="M249.043 103.416C249.043 104.184 248.851 104.92 248.467 105.624C248.083 106.312 247.515 106.888 246.763 107.352C246.027 107.816 245.139 108.08 244.099 108.144V110.088H242.803V108.144C241.347 108.016 240.163 107.552 239.251 106.752C238.339 105.936 237.875 104.904 237.859 103.656H240.187C240.251 104.328 240.499 104.912 240.931 105.408C241.379 105.904 242.003 106.216 242.803 106.344V100.344C241.731 100.072 240.867 99.792 240.211 99.504C239.555 99.216 238.995 98.768 238.531 98.16C238.067 97.552 237.835 96.736 237.835 95.712C237.835 94.416 238.283 93.344 239.179 92.496C240.091 91.648 241.299 91.176 242.803 91.08V89.088H244.099V91.08C245.459 91.192 246.555 91.632 247.387 92.4C248.219 93.152 248.699 94.136 248.827 95.352H246.499C246.419 94.792 246.171 94.288 245.755 93.84C245.339 93.376 244.787 93.072 244.099 92.928V98.784C245.155 99.056 246.011 99.336 246.667 99.624C247.339 99.896 247.899 100.336 248.347 100.944C248.811 101.552 249.043 102.376 249.043 103.416ZM240.067 95.592C240.067 96.376 240.299 96.976 240.763 97.392C241.227 97.808 241.907 98.152 242.803 98.424V92.88C241.971 92.96 241.307 93.232 240.811 93.696C240.315 94.144 240.067 94.776 240.067 95.592ZM244.099 106.368C244.963 106.272 245.635 105.96 246.115 105.432C246.611 104.904 246.859 104.272 246.859 103.536C246.859 102.752 246.619 102.152 246.139 101.736C245.659 101.304 244.979 100.96 244.099 100.704V106.368ZM255.98 98.976C255.084 98.624 254.396 98.112 253.916 97.44C253.436 96.768 253.196 95.952 253.196 94.992C253.196 94.128 253.412 93.352 253.844 92.664C254.276 91.96 254.916 91.408 255.764 91.008C256.628 90.592 257.668 90.384 258.884 90.384C260.1 90.384 261.132 90.592 261.98 91.008C262.844 91.408 263.492 91.96 263.924 92.664C264.372 93.352 264.596 94.128 264.596 94.992C264.596 95.92 264.348 96.736 263.852 97.44C263.356 98.128 262.676 98.64 261.812 98.976C262.804 99.28 263.588 99.816 264.164 100.584C264.756 101.336 265.052 102.248 265.052 103.32C265.052 104.36 264.796 105.272 264.284 106.056C263.772 106.824 263.044 107.424 262.1 107.856C261.172 108.272 260.1 108.48 258.884 108.48C257.668 108.48 256.596 108.272 255.668 107.856C254.756 107.424 254.044 106.824 253.532 106.056C253.02 105.272 252.764 104.36 252.764 103.32C252.764 102.248 253.052 101.328 253.628 100.56C254.204 99.792 254.988 99.264 255.98 98.976ZM262.484 95.256C262.484 94.28 262.164 93.528 261.524 93C260.884 92.472 260.004 92.208 258.884 92.208C257.78 92.208 256.908 92.472 256.268 93C255.628 93.528 255.308 94.288 255.308 95.28C255.308 96.176 255.636 96.896 256.292 97.44C256.964 97.984 257.828 98.256 258.884 98.256C259.956 98.256 260.82 97.984 261.476 97.44C262.148 96.88 262.484 96.152 262.484 95.256ZM258.884 99.936C257.7 99.936 256.732 100.216 255.98 100.776C255.228 101.32 254.852 102.144 254.852 103.248C254.852 104.272 255.212 105.096 255.932 105.72C256.668 106.344 257.652 106.656 258.884 106.656C260.116 106.656 261.092 106.344 261.812 105.72C262.532 105.096 262.892 104.272 262.892 103.248C262.892 102.176 262.524 101.36 261.788 100.8C261.052 100.224 260.084 99.936 258.884 99.936ZM267.953 99.144C267.953 96.392 268.401 94.248 269.297 92.712C270.193 91.16 271.761 90.384 274.001 90.384C276.225 90.384 277.785 91.16 278.681 92.712C279.577 94.248 280.025 96.392 280.025 99.144C280.025 101.944 279.577 104.12 278.681 105.672C277.785 107.224 276.225 108 274.001 108C271.761 108 270.193 107.224 269.297 105.672C268.401 104.12 267.953 101.944 267.953 99.144ZM277.865 99.144C277.865 97.752 277.769 96.576 277.577 95.616C277.401 94.64 277.025 93.856 276.449 93.264C275.889 92.672 275.073 92.376 274.001 92.376C272.913 92.376 272.081 92.672 271.505 93.264C270.945 93.856 270.569 94.64 270.377 95.616C270.201 96.576 270.113 97.752 270.113 99.144C270.113 100.584 270.201 101.792 270.377 102.768C270.569 103.744 270.945 104.528 271.505 105.12C272.081 105.712 272.913 106.008 274.001 106.008C275.073 106.008 275.889 105.712 276.449 105.12C277.025 104.528 277.401 103.744 277.577 102.768C277.769 101.792 277.865 100.584 277.865 99.144ZM283.023 99.144C283.023 96.392 283.471 94.248 284.367 92.712C285.263 91.16 286.831 90.384 289.071 90.384C291.295 90.384 292.855 91.16 293.751 92.712C294.647 94.248 295.095 96.392 295.095 99.144C295.095 101.944 294.647 104.12 293.751 105.672C292.855 107.224 291.295 108 289.071 108C286.831 108 285.263 107.224 284.367 105.672C283.471 104.12 283.023 101.944 283.023 99.144ZM292.935 99.144C292.935 97.752 292.839 96.576 292.647 95.616C292.471 94.64 292.095 93.856 291.519 93.264C290.959 92.672 290.143 92.376 289.071 92.376C287.983 92.376 287.151 92.672 286.575 93.264C286.015 93.856 285.639 94.64 285.447 95.616C285.271 96.576 285.183 97.752 285.183 99.144C285.183 100.584 285.271 101.792 285.447 102.768C285.639 103.744 286.015 104.528 286.575 105.12C287.151 105.712 287.983 106.008 289.071 106.008C290.143 106.008 290.959 105.712 291.519 105.12C292.095 104.528 292.471 103.744 292.647 102.768C292.839 101.792 292.935 100.584 292.935 99.144Z" fill="white"/>
<rect x="332" y="143" width="86" height="86" rx="43" transform="rotate(-90 332 143)" fill="#92A985"/>
<path d="M357.996 103.416C357.996 104.184 357.804 104.92 357.42 105.624C357.036 106.312 356.468 106.888 355.716 107.352C354.98 107.816 354.092 108.08 353.052 108.144V110.088H351.756V108.144C350.3 108.016 349.116 107.552 348.204 106.752C347.292 105.936 346.828 104.904 346.812 103.656H349.14C349.204 104.328 349.452 104.912 349.884 105.408C350.332 105.904 350.956 106.216 351.756 106.344V100.344C350.684 100.072 349.82 99.792 349.164 99.504C348.508 99.216 347.948 98.768 347.484 98.16C347.02 97.552 346.788 96.736 346.788 95.712C346.788 94.416 347.236 93.344 348.132 92.496C349.044 91.648 350.252 91.176 351.756 91.08V89.088H353.052V91.08C354.412 91.192 355.508 91.632 356.34 92.4C357.172 93.152 357.652 94.136 357.78 95.352H355.452C355.372 94.792 355.124 94.288 354.708 93.84C354.292 93.376 353.74 93.072 353.052 92.928V98.784C354.108 99.056 354.964 99.336 355.62 99.624C356.292 99.896 356.852 100.336 357.3 100.944C357.764 101.552 357.996 102.376 357.996 103.416ZM349.02 95.592C349.02 96.376 349.252 96.976 349.716 97.392C350.18 97.808 350.86 98.152 351.756 98.424V92.88C350.924 92.96 350.26 93.232 349.764 93.696C349.268 94.144 349.02 94.776 349.02 95.592ZM353.052 106.368C353.916 106.272 354.588 105.96 355.068 105.432C355.564 104.904 355.812 104.272 355.812 103.536C355.812 102.752 355.572 102.152 355.092 101.736C354.612 101.304 353.932 100.96 353.052 100.704V106.368ZM371.437 94.776C371.085 93 369.989 92.112 368.149 92.112C366.725 92.112 365.661 92.664 364.957 93.768C364.253 94.856 363.909 96.656 363.925 99.168C364.293 98.336 364.901 97.688 365.749 97.224C366.613 96.744 367.573 96.504 368.629 96.504C370.277 96.504 371.589 97.016 372.565 98.04C373.557 99.064 374.053 100.48 374.053 102.288C374.053 103.376 373.837 104.352 373.405 105.216C372.989 106.08 372.349 106.768 371.485 107.28C370.637 107.792 369.605 108.048 368.389 108.048C366.741 108.048 365.453 107.68 364.525 106.944C363.597 106.208 362.949 105.192 362.581 103.896C362.213 102.6 362.029 101 362.029 99.096C362.029 93.224 364.077 90.288 368.173 90.288C369.741 90.288 370.973 90.712 371.869 91.56C372.765 92.408 373.293 93.48 373.453 94.776H371.437ZM368.173 98.352C367.485 98.352 366.837 98.496 366.229 98.784C365.621 99.056 365.125 99.48 364.741 100.056C364.373 100.616 364.189 101.304 364.189 102.12C364.189 103.336 364.541 104.328 365.245 105.096C365.949 105.848 366.957 106.224 368.269 106.224C369.389 106.224 370.277 105.88 370.933 105.192C371.605 104.488 371.941 103.544 371.941 102.36C371.941 101.112 371.621 100.136 370.981 99.432C370.341 98.712 369.405 98.352 368.173 98.352ZM377 99.144C377 96.392 377.448 94.248 378.344 92.712C379.24 91.16 380.808 90.384 383.048 90.384C385.272 90.384 386.832 91.16 387.728 92.712C388.624 94.248 389.072 96.392 389.072 99.144C389.072 101.944 388.624 104.12 387.728 105.672C386.832 107.224 385.272 108 383.048 108C380.808 108 379.24 107.224 378.344 105.672C377.448 104.12 377 101.944 377 99.144ZM386.912 99.144C386.912 97.752 386.816 96.576 386.624 95.616C386.448 94.64 386.072 93.856 385.496 93.264C384.936 92.672 384.12 92.376 383.048 92.376C381.96 92.376 381.128 92.672 380.552 93.264C379.992 93.856 379.616 94.64 379.424 95.616C379.248 96.576 379.16 97.752 379.16 99.144C379.16 100.584 379.248 101.792 379.424 102.768C379.616 103.744 379.992 104.528 380.552 105.12C381.128 105.712 381.96 106.008 383.048 106.008C384.12 106.008 384.936 105.712 385.496 105.12C386.072 104.528 386.448 103.744 386.624 102.768C386.816 101.792 386.912 100.584 386.912 99.144ZM392.07 99.144C392.07 96.392 392.518 94.248 393.414 92.712C394.31 91.16 395.878 90.384 398.118 90.384C400.342 90.384 401.902 91.16 402.798 92.712C403.694 94.248 404.142 96.392 404.142 99.144C404.142 101.944 403.694 104.12 402.798 105.672C401.902 107.224 400.342 108 398.118 108C395.878 108 394.31 107.224 393.414 105.672C392.518 104.12 392.07 101.944 392.07 99.144ZM401.982 99.144C401.982 97.752 401.886 96.576 401.694 95.616C401.518 94.64 401.142 93.856 400.566 93.264C400.006 92.672 399.19 92.376 398.118 92.376C397.03 92.376 396.198 92.672 395.622 93.264C395.062 93.856 394.686 94.64 394.494 95.616C394.318 96.576 394.23 97.752 394.23 99.144C394.23 100.584 394.318 101.792 394.494 102.768C394.686 103.744 395.062 104.528 395.622 105.12C396.198 105.712 397.03 106.008 398.118 106.008C399.19 106.008 400.006 105.712 400.566 105.12C401.142 104.528 401.518 103.744 401.694 102.768C401.886 101.792 401.982 100.584 401.982 99.144Z" fill="white"/>
<rect x="441" y="143" width="86" height="86" rx="43" transform="rotate(-90 441 143)" fill="#92A985"/>
<path d="M467.066 103.416C467.066 104.184 466.874 104.92 466.49 105.624C466.106 106.312 465.538 106.888 464.786 107.352C464.05 107.816 463.162 108.08 462.122 108.144V110.088H460.826V108.144C459.37 108.016 458.186 107.552 457.274 106.752C456.362 105.936 455.898 104.904 455.882 103.656H458.21C458.274 104.328 458.522 104.912 458.954 105.408C459.402 105.904 460.026 106.216 460.826 106.344V100.344C459.754 100.072 458.89 99.792 458.234 99.504C457.578 99.216 457.018 98.768 456.554 98.16C456.09 97.552 455.858 96.736 455.858 95.712C455.858 94.416 456.306 93.344 457.202 92.496C458.114 91.648 459.322 91.176 460.826 91.08V89.088H462.122V91.08C463.482 91.192 464.578 91.632 465.41 92.4C466.242 93.152 466.722 94.136 466.85 95.352H464.522C464.442 94.792 464.194 94.288 463.778 93.84C463.362 93.376 462.81 93.072 462.122 92.928V98.784C463.178 99.056 464.034 99.336 464.69 99.624C465.362 99.896 465.922 100.336 466.37 100.944C466.834 101.552 467.066 102.376 467.066 103.416ZM458.09 95.592C458.09 96.376 458.322 96.976 458.786 97.392C459.25 97.808 459.93 98.152 460.826 98.424V92.88C459.994 92.96 459.33 93.232 458.834 93.696C458.338 94.144 458.09 94.776 458.09 95.592ZM462.122 106.368C462.986 106.272 463.658 105.96 464.138 105.432C464.634 104.904 464.882 104.272 464.882 103.536C464.882 102.752 464.642 102.152 464.162 101.736C463.682 101.304 463.002 100.96 462.122 100.704V106.368ZM470.308 104.136V102.48L478.732 90.816H481.348V102.24H483.748V104.136H481.348V108H479.188V104.136H470.308ZM479.284 93.096L472.828 102.24H479.284V93.096ZM485.929 99.144C485.929 96.392 486.377 94.248 487.273 92.712C488.169 91.16 489.737 90.384 491.977 90.384C494.201 90.384 495.761 91.16 496.657 92.712C497.553 94.248 498.001 96.392 498.001 99.144C498.001 101.944 497.553 104.12 496.657 105.672C495.761 107.224 494.201 108 491.977 108C489.737 108 488.169 107.224 487.273 105.672C486.377 104.12 485.929 101.944 485.929 99.144ZM495.841 99.144C495.841 97.752 495.745 96.576 495.553 95.616C495.377 94.64 495.001 93.856 494.425 93.264C493.865 92.672 493.049 92.376 491.977 92.376C490.889 92.376 490.057 92.672 489.481 93.264C488.921 93.856 488.545 94.64 488.353 95.616C488.177 96.576 488.089 97.752 488.089 99.144C488.089 100.584 488.177 101.792 488.353 102.768C488.545 103.744 488.921 104.528 489.481 105.12C490.057 105.712 490.889 106.008 491.977 106.008C493.049 106.008 493.865 105.712 494.425 105.12C495.001 104.528 495.377 103.744 495.553 102.768C495.745 101.792 495.841 100.584 495.841 99.144ZM501 99.144C501 96.392 501.448 94.248 502.344 92.712C503.24 91.16 504.808 90.384 507.048 90.384C509.272 90.384 510.832 91.16 511.728 92.712C512.624 94.248 513.072 96.392 513.072 99.144C513.072 101.944 512.624 104.12 511.728 105.672C510.832 107.224 509.272 108 507.048 108C504.808 108 503.24 107.224 502.344 105.672C501.448 104.12 501 101.944 501 99.144ZM510.912 99.144C510.912 97.752 510.816 96.576 510.624 95.616C510.448 94.64 510.072 93.856 509.496 93.264C508.936 92.672 508.12 92.376 507.048 92.376C505.96 92.376 505.128 92.672 504.552 93.264C503.992 93.856 503.616 94.64 503.424 95.616C503.248 96.576 503.16 97.752 503.16 99.144C503.16 100.584 503.248 101.792 503.424 102.768C503.616 103.744 503.992 104.528 504.552 105.12C505.128 105.712 505.96 106.008 507.048 106.008C508.12 106.008 508.936 105.712 509.496 105.12C510.072 104.528 510.448 103.744 510.624 102.768C510.816 101.792 510.912 100.584 510.912 99.144Z" fill="white"/>
<rect x="550" y="143" width="86" height="86" rx="43" transform="rotate(-90 550 143)" fill="#92A985"/>
<path d="M576.711 103.416C576.711 104.184 576.519 104.92 576.135 105.624C575.751 106.312 575.183 106.888 574.431 107.352C573.695 107.816 572.807 108.08 571.767 108.144V110.088H570.471V108.144C569.015 108.016 567.831 107.552 566.919 106.752C566.007 105.936 565.543 104.904 565.527 103.656H567.855C567.919 104.328 568.167 104.912 568.599 105.408C569.047 105.904 569.671 106.216 570.471 106.344V100.344C569.399 100.072 568.535 99.792 567.879 99.504C567.223 99.216 566.663 98.768 566.199 98.16C565.735 97.552 565.503 96.736 565.503 95.712C565.503 94.416 565.951 93.344 566.847 92.496C567.759 91.648 568.967 91.176 570.471 91.08V89.088H571.767V91.08C573.127 91.192 574.223 91.632 575.055 92.4C575.887 93.152 576.367 94.136 576.495 95.352H574.167C574.087 94.792 573.839 94.288 573.423 93.84C573.007 93.376 572.455 93.072 571.767 92.928V98.784C572.823 99.056 573.679 99.336 574.335 99.624C575.007 99.896 575.567 100.336 576.015 100.944C576.479 101.552 576.711 102.376 576.711 103.416ZM567.735 95.592C567.735 96.376 567.967 96.976 568.431 97.392C568.895 97.808 569.575 98.152 570.471 98.424V92.88C569.639 92.96 568.975 93.232 568.479 93.696C567.983 94.144 567.735 94.776 567.735 95.592ZM571.767 106.368C572.631 106.272 573.303 105.96 573.783 105.432C574.279 104.904 574.527 104.272 574.527 103.536C574.527 102.752 574.287 102.152 573.807 101.736C573.327 101.304 572.647 100.96 571.767 100.704V106.368ZM580.216 106.248C582.248 104.616 583.84 103.28 584.992 102.24C586.144 101.184 587.112 100.088 587.896 98.952C588.696 97.8 589.096 96.672 589.096 95.568C589.096 94.528 588.84 93.712 588.328 93.12C587.832 92.512 587.024 92.208 585.904 92.208C584.816 92.208 583.968 92.552 583.36 93.24C582.768 93.912 582.448 94.816 582.4 95.952H580.288C580.352 94.16 580.896 92.776 581.92 91.8C582.944 90.824 584.264 90.336 585.88 90.336C587.528 90.336 588.832 90.792 589.792 91.704C590.768 92.616 591.256 93.872 591.256 95.472C591.256 96.8 590.856 98.096 590.056 99.36C589.272 100.608 588.376 101.712 587.368 102.672C586.36 103.616 585.072 104.72 583.504 105.984H591.76V107.808H580.216V106.248ZM594.285 99.144C594.285 96.392 594.733 94.248 595.629 92.712C596.525 91.16 598.093 90.384 600.333 90.384C602.557 90.384 604.117 91.16 605.013 92.712C605.909 94.248 606.357 96.392 606.357 99.144C606.357 101.944 605.909 104.12 605.013 105.672C604.117 107.224 602.557 108 600.333 108C598.093 108 596.525 107.224 595.629 105.672C594.733 104.12 594.285 101.944 594.285 99.144ZM604.197 99.144C604.197 97.752 604.101 96.576 603.909 95.616C603.733 94.64 603.357 93.856 602.781 93.264C602.221 92.672 601.405 92.376 600.333 92.376C599.245 92.376 598.413 92.672 597.837 93.264C597.277 93.856 596.901 94.64 596.709 95.616C596.533 96.576 596.445 97.752 596.445 99.144C596.445 100.584 596.533 101.792 596.709 102.768C596.901 103.744 597.277 104.528 597.837 105.12C598.413 105.712 599.245 106.008 600.333 106.008C601.405 106.008 602.221 105.712 602.781 105.12C603.357 104.528 603.733 103.744 603.909 102.768C604.101 101.792 604.197 100.584 604.197 99.144ZM609.355 99.144C609.355 96.392 609.803 94.248 610.699 92.712C611.595 91.16 613.163 90.384 615.403 90.384C617.627 90.384 619.187 91.16 620.083 92.712C620.979 94.248 621.427 96.392 621.427 99.144C621.427 101.944 620.979 104.12 620.083 105.672C619.187 107.224 617.627 108 615.403 108C613.163 108 611.595 107.224 610.699 105.672C609.803 104.12 609.355 101.944 609.355 99.144ZM619.267 99.144C619.267 97.752 619.171 96.576 618.979 95.616C618.803 94.64 618.427 93.856 617.851 93.264C617.291 92.672 616.475 92.376 615.403 92.376C614.315 92.376 613.483 92.672 612.907 93.264C612.347 93.856 611.971 94.64 611.779 95.616C611.603 96.576 611.515 97.752 611.515 99.144C611.515 100.584 611.603 101.792 611.779 102.768C611.971 103.744 612.347 104.528 612.907 105.12C613.483 105.712 614.315 106.008 615.403 106.008C616.475 106.008 617.291 105.712 617.851 105.12C618.427 104.528 618.803 103.744 618.979 102.768C619.171 101.792 619.267 100.584 619.267 99.144Z" fill="white"/>
</svg>
