<svg width="254" height="99" viewBox="0 0 254 99" fill="none" xmlns="http://www.w3.org/2000/svg">
<g clip-path="url(#clip0_3_4220)">
<path d="M23.8922 77.0493C19.6929 77.0696 15.592 75.7844 12.1615 73.373C8.52023 70.8366 5.5897 67.4166 3.6476 63.4371C1.52821 59.1799 0.449677 54.4842 0.499973 49.7331C0.456938 44.9975 1.53528 40.3184 3.6476 36.0751C5.59141 32.0966 8.5216 28.6771 12.1615 26.1391C15.5901 23.7223 19.6912 22.4317 23.8922 22.4476C25.8558 22.4293 27.8123 22.6866 29.7038 23.2119C31.6977 23.78 33.6606 24.4509 35.5845 25.222C35.7841 25.3213 36.2985 25.5353 37.1199 25.8563C37.8275 26.1408 38.5533 26.3783 39.2925 26.5671C39.8199 26.7011 40.3607 26.7755 40.9047 26.7888C41.2596 26.8023 41.6123 26.7268 41.9302 26.5692C42.2481 26.4116 42.5212 26.177 42.7242 25.8869C43.2021 25.2044 43.51 24.4184 43.6224 23.594V45.0938C42.7112 40.9703 41.157 37.0142 39.0162 33.3694C37.2434 30.3132 34.8449 27.6623 31.9762 25.5888C29.6393 23.8684 26.8213 22.9172 23.9152 22.8679C21.7995 22.9169 19.7742 23.7321 18.2188 25.1608C16.4121 26.6894 14.9483 29.0792 13.8275 32.33C12.603 36.3039 12.0352 40.4495 12.1462 44.6047C12.1137 49.0474 12.9265 53.4561 14.5415 57.5978C15.9178 61.32 18.153 64.6684 21.067 67.3732C23.4637 69.6621 26.644 70.9597 29.9648 71.0037C36.7565 71.0037 42.3045 67.1821 46.6089 59.5391C45.0992 64.5338 42.1462 68.9755 38.1179 72.3106C34.2384 75.4748 29.4965 77.0544 23.8922 77.0493Z" fill="white"/>
<path d="M66.2546 77.0493C64.0744 77.0405 61.9273 76.5166 59.9901 75.5206C57.9158 74.455 56.188 72.825 55.0076 70.8202C53.6274 68.4029 52.9521 65.6501 53.0576 62.8715V51.2999C53.0576 47.8198 51.558 46.0797 48.5588 46.0797L64.1511 38.8342V63.9873C64.1511 66.1274 64.2151 67.9108 64.343 69.3374C64.4933 70.8044 64.9763 72.2183 65.7556 73.4723C66.144 74.13 66.7091 74.6666 67.3873 75.0217C68.0655 75.3769 68.8298 75.5364 69.5942 75.4824C71.5954 75.4824 73.6196 74.2876 75.6668 71.8979V51.2999C75.6668 47.8198 74.1672 46.0797 71.168 46.0797L86.7679 38.8342V70.1705C86.8069 71.3972 87.1956 72.5874 87.8888 73.6023C88.2805 74.2053 88.7979 74.7174 89.4059 75.1038C90.0139 75.4902 90.6983 75.7418 91.4126 75.8417H75.6207V72.5017C72.8263 75.5589 69.7042 77.0875 66.2546 77.0875V77.0493Z" fill="white"/>
<path d="M92.6256 29.6549L108.226 22.417V70.1858C108.265 71.4125 108.653 72.6027 109.346 73.6176C109.738 74.2206 110.255 74.7327 110.863 75.1191C111.472 75.5055 112.156 75.7572 112.87 75.857H92.4951C93.2094 75.7572 93.8938 75.5055 94.5019 75.1191C95.1099 74.7327 95.6273 74.2206 96.0189 73.6176C96.7087 72.6011 97.0971 71.4118 97.1398 70.1858V34.8828C97.1398 31.3975 95.6402 29.6549 92.641 29.6549H92.6256Z" fill="white"/>
<path d="M118.359 73.6175C119.057 72.604 119.451 71.4138 119.496 70.1858V51.2999C119.496 47.8198 117.996 46.0798 114.997 46.0798L130.589 38.8342V70.1705C130.632 71.3965 131.02 72.5858 131.71 73.6023C132.102 74.2053 132.619 74.7174 133.227 75.1038C133.835 75.4902 134.519 75.7419 135.234 75.8417H114.836C115.55 75.7419 116.234 75.4902 116.842 75.1038C117.45 74.7174 117.968 74.2053 118.359 73.6023V73.6175ZM119.296 32.6815C118.691 32.0935 118.21 31.3909 117.882 30.6152C117.554 29.8395 117.385 29.0063 117.385 28.1645C117.385 27.3228 117.554 26.4895 117.882 25.7138C118.21 24.9381 118.691 24.2355 119.296 23.6475C119.889 23.0543 120.594 22.5833 121.37 22.2613C122.146 21.9393 122.979 21.7727 123.82 21.7709C124.66 21.7691 125.493 21.9322 126.271 22.2509C127.048 22.5697 127.755 23.0377 128.351 23.6284C128.947 24.2191 129.42 24.9208 129.744 25.6935C130.067 26.4662 130.234 27.2948 130.236 28.1319C130.238 28.969 130.074 29.7983 129.754 30.5724C129.434 31.3464 128.964 32.0501 128.37 32.6433C127.783 33.2513 127.078 33.735 126.299 34.0654C125.519 34.3957 124.68 34.566 123.833 34.566C122.986 34.566 122.147 34.3957 121.368 34.0654C120.588 33.735 119.883 33.2513 119.296 32.6433V32.6815Z" fill="white"/>
<path d="M139.948 73.6176C140.643 72.6032 141.034 71.4131 141.076 70.1858V34.8828C141.076 31.3975 139.576 29.6549 136.577 29.6549L152.17 22.417V42.4188C153.175 41.4257 154.34 40.6069 155.617 39.9959C157.075 39.2337 158.698 38.835 160.346 38.8342C163.308 38.7824 166.209 39.6712 168.629 41.3717C171.075 43.1253 173.003 45.5011 174.211 48.2504C175.568 51.2785 176.247 54.5648 176.199 57.8806V58.0258C176.245 61.3414 175.567 64.6274 174.211 67.656C173.006 70.4073 171.078 72.7838 168.629 74.5347C166.221 76.2308 163.333 77.1196 160.384 77.0722C158.749 77.0777 157.138 76.6813 155.693 75.9181C154.419 75.2843 153.245 74.468 152.208 73.4953V75.8799H136.424C137.139 75.782 137.824 75.5312 138.432 75.1446C139.04 74.758 139.557 74.2449 139.948 73.6405V73.6176ZM156.446 74.9627C157.914 74.915 159.314 74.33 160.376 73.3195C161.658 72.2265 162.726 70.4075 163.601 67.87C164.569 64.6779 165.012 61.3511 164.914 58.0182V57.8653C165.012 54.5324 164.569 51.2055 163.601 48.0135C162.726 45.476 161.658 43.6646 160.376 42.5716C159.315 41.5593 157.915 40.974 156.446 40.9284C154.841 40.9492 153.308 41.5906 152.17 42.7168V73.1666C153.304 74.2991 154.839 74.9439 156.446 74.9627Z" fill="white"/>
<path d="M183.362 70.1858V51.2999C183.362 47.8198 181.862 46.0798 178.863 46.0798L194.455 38.8342V43.42C195.541 42.1807 196.841 41.1453 198.294 40.3628C199.862 39.3959 201.662 38.8678 203.506 38.8342C205.964 38.7317 208.366 39.5746 210.216 41.1882C211.032 41.8846 211.685 42.7489 212.132 43.7215C212.579 44.6941 212.808 45.7517 212.804 46.8211C212.795 47.711 212.642 48.5938 212.351 49.435C212.059 50.4186 211.456 51.2819 210.631 51.8961C209.794 52.5396 208.763 52.8818 207.706 52.8667C207.053 52.8781 206.405 52.7586 205.799 52.5154C205.194 52.2721 204.644 51.9101 204.182 51.4509C203.72 50.9916 203.355 50.4446 203.11 49.8422C202.865 49.2399 202.744 48.5945 202.754 47.9446C202.717 47.1111 202.91 46.2834 203.315 45.5524C203.8 44.8216 204.367 44.1473 205.004 43.5423C205.42 43.1816 205.798 42.7795 206.132 42.3423C206.371 42.0186 206.5 41.6279 206.501 41.2264C206.492 40.9638 206.424 40.7065 206.302 40.4737C206.179 40.2408 206.006 40.0383 205.794 39.8813C205.119 39.4233 204.305 39.2126 203.491 39.2851C201.657 39.3047 199.865 39.8341 198.317 40.8137C196.863 41.6533 195.548 42.7102 194.417 43.9473V70.1858C194.459 71.4131 194.85 72.6032 195.545 73.6175C195.935 74.222 196.452 74.7351 197.061 75.1217C197.669 75.5082 198.354 75.7591 199.069 75.8569H178.709C179.424 75.7591 180.109 75.5082 180.718 75.1217C181.326 74.7351 181.843 74.222 182.233 73.6175C182.928 72.6032 183.32 71.4131 183.362 70.1858Z" fill="white"/>
<path d="M218.185 48.2427C219.624 45.344 221.868 42.9169 224.651 41.2493C227.434 39.5817 230.638 38.7435 233.885 38.8342C236.699 38.7723 239.488 39.3747 242.023 40.5921C244.213 41.6394 246.071 43.2654 247.397 45.2925C248.617 47.1981 249.257 49.4146 249.239 51.6744C249.248 53.6236 248.735 55.54 247.753 57.226C246.771 58.9121 245.354 60.3068 243.65 61.2664C241.676 62.3754 239.437 62.9302 237.171 62.8714C235.65 62.8753 234.132 62.75 232.634 62.4969C231.16 62.2524 230.33 62.0995 230.046 62.046L228.319 61.7479C229.069 64.0992 230.412 66.22 232.219 67.9082C233.849 69.4081 235.995 70.2287 238.215 70.2011C240.898 70.2379 243.511 69.3404 245.6 67.6636C247.588 66.1606 249.089 64.1087 249.915 61.7632L250.137 62.0613C249.649 64.8338 248.556 67.466 246.936 69.7731C245.377 71.9915 243.325 73.8222 240.94 75.1232C238.59 76.4132 235.947 77.0816 233.263 77.0645C230.183 77.0857 227.167 76.1886 224.603 74.4888C221.945 72.7429 219.788 70.338 218.346 67.5108C216.796 64.5405 216.005 61.2354 216.043 57.8882C215.997 54.5484 216.755 51.2462 218.254 48.258L218.185 48.2427ZM233.885 39.2851C233.205 39.3219 232.544 39.5218 231.959 39.8678C231.373 40.2138 230.88 40.6957 230.522 41.2723C229.37 42.9145 228.554 44.7661 228.119 46.7218C227.495 49.247 227.193 51.8407 227.221 54.4412C227.224 56.768 227.552 59.0832 228.196 61.3199C229.886 61.3294 231.571 61.1422 233.217 60.762C234.93 60.2756 236.434 59.2382 237.493 57.8118C238.791 56.222 239.443 53.7763 239.443 50.4974C239.473 47.8742 239.028 45.2671 238.13 42.8009C237.255 40.457 235.84 39.2851 233.885 39.2851Z" fill="white"/>
<path d="M44.4439 3.43174C43.9024 4.39702 43.4279 5.39804 43.0236 6.4278L43.6915 0.535034H62.5005L63.1684 6.4278C62.7674 5.39666 62.2928 4.39541 61.7482 3.43174C61.2467 2.63018 60.5425 1.97389 59.706 1.52863C58.5504 0.954791 57.2643 0.691333 55.9749 0.764325H55.6064V20.8884C55.6342 21.5262 55.8359 22.1445 56.1899 22.6769C56.3988 22.9989 56.6762 23.2713 57.0026 23.4747C57.3289 23.6781 57.6963 23.8076 58.0785 23.8539H48.1443C48.5211 23.8033 48.8824 23.6719 49.2031 23.4687C49.5239 23.2654 49.7965 22.9953 50.0021 22.6769C50.3597 22.1462 50.5618 21.5269 50.5856 20.8884V0.764325H50.2171C48.9278 0.692043 47.6419 0.955464 46.486 1.52863C45.6512 1.97621 44.9476 2.632 44.4439 3.43174Z" fill="white"/>
<path d="M70.8379 0V9.3627C71.342 8.73806 71.9784 8.23195 72.7016 7.88051C73.4249 7.52907 74.2172 7.34097 75.022 7.32965C75.9944 7.33295 76.9522 7.56609 77.8164 8.00988C78.7412 8.48967 79.5125 9.21779 80.0428 10.1117C80.6544 11.1918 80.9546 12.419 80.9103 13.6581V21.3011C80.9308 21.848 81.1064 22.378 81.417 22.8297C81.5872 23.0946 81.8122 23.3202 82.077 23.4916C82.3417 23.6629 82.6402 23.776 82.9524 23.8233H75.9586V13.1231C75.9586 12.1677 75.9586 11.3728 75.8741 10.7384C75.8123 10.0825 75.5995 9.44962 75.2523 8.88883C75.0801 8.59652 74.8292 8.35792 74.5281 8.19992C74.227 8.04192 73.8875 7.97081 73.548 7.9946C72.7035 7.9946 71.7976 8.52196 70.8379 9.59199V21.324C70.8589 21.8697 71.0317 22.3989 71.3369 22.8526C71.5086 23.1162 71.734 23.3408 71.9985 23.512C72.263 23.6832 72.5607 23.7971 72.8724 23.8462H63.8057C64.1244 23.8031 64.43 23.6921 64.7016 23.5206C64.9732 23.3491 65.2045 23.1213 65.3795 22.8526C65.69 22.401 65.8657 21.871 65.8862 21.324V5.56412C65.8862 4.03551 65.2183 3.27121 63.8748 3.27121L70.8379 0Z" fill="white"/>
<path d="M84.7796 11.5256C85.4216 10.2314 86.4234 9.14791 87.666 8.40406C88.9085 7.66022 90.3395 7.28729 91.7888 7.32962C93.0432 7.2922 94.2883 7.55427 95.4201 8.09393C96.3981 8.55744 97.2274 9.2825 97.8154 10.1881C98.3661 11.0375 98.6568 12.028 98.6522 13.039C98.6561 13.9088 98.427 14.764 97.9884 15.5163C97.5498 16.2686 96.9177 16.8909 96.1571 17.319C95.2763 17.817 94.2754 18.0654 93.2628 18.0375C92.5836 18.0397 91.9055 17.9835 91.2361 17.8693L90.0845 17.6706L89.3168 17.5331C89.6496 18.5827 90.2469 19.53 91.0518 20.2845C91.7795 20.9552 92.7397 21.3195 93.7311 21.3011C94.9305 21.32 96.0987 20.9197 97.0323 20.1699C97.9182 19.4976 98.5857 18.5805 98.9516 17.5331L99.0514 17.6706C98.8253 18.911 98.3301 20.0874 97.6004 21.1176C96.9036 22.1104 95.9902 22.9334 94.9288 23.5252C93.8768 24.0978 92.696 24.3949 91.4971 24.3888C90.1319 24.3926 88.7962 23.9937 87.6585 23.2424C86.4724 22.4604 85.5097 21.3861 84.864 20.124C84.1633 18.8007 83.8045 17.3245 83.82 15.8287C83.7996 14.3361 84.1393 12.8605 84.8103 11.5256H84.7796ZM91.7888 7.52834C91.4925 7.55074 91.2055 7.6419 90.9509 7.79453C90.6962 7.94715 90.481 8.15701 90.3225 8.40729C89.8128 9.14142 89.4504 9.96672 89.2554 10.8378C88.9528 11.9649 88.7954 13.1258 88.7871 14.2924C88.7894 15.3268 88.9367 16.3558 89.2247 17.3496C89.9788 17.3539 90.731 17.2719 91.4664 17.105C92.2369 16.8906 92.9144 16.4284 93.3933 15.7904C94.0436 14.831 94.3493 13.681 94.2609 12.5269C94.2748 11.3574 94.0772 10.1949 93.6774 9.09516C93.5797 8.66346 93.3417 8.27591 93.0002 7.99262C92.6588 7.70933 92.233 7.54613 91.7888 7.52834Z" fill="white"/>
<path d="M163.194 95.8663C161.986 95.8728 160.807 95.5012 159.824 94.804C158.775 94.0753 157.932 93.0911 157.375 91.9455C156.783 90.7222 156.476 89.3821 156.476 88.0246C156.476 86.6671 156.783 85.327 157.375 84.1037C157.932 82.9559 158.775 81.9692 159.824 81.2376C160.809 80.5441 161.987 80.1728 163.194 80.1752C163.756 80.1703 164.317 80.2423 164.86 80.3892C165.433 80.5601 165.997 80.7617 166.549 80.993L166.994 81.1765C167.196 81.2592 167.404 81.3256 167.616 81.3752C167.766 81.4167 167.921 81.4398 168.076 81.444C168.179 81.4456 168.28 81.4221 168.371 81.3754C168.462 81.3287 168.54 81.2604 168.599 81.1765C168.732 80.9792 168.818 80.7545 168.852 80.5192V86.6947C168.588 85.5104 168.137 84.3754 167.516 83.3318C167.013 82.4492 166.328 81.6833 165.505 81.0847C164.834 80.5999 164.03 80.333 163.201 80.3204C162.594 80.3341 162.013 80.5678 161.566 80.9777C160.967 81.5383 160.53 82.2481 160.3 83.0337C159.947 84.1742 159.784 85.3643 159.816 86.5571C159.808 87.8302 160.042 89.0932 160.507 90.2793C160.901 91.3477 161.543 92.3086 162.38 93.0843C163.067 93.7517 163.984 94.1319 164.944 94.1467C166.894 94.1467 168.491 93.0461 169.719 90.8449C169.29 92.2805 168.446 93.5589 167.293 94.5212C166.13 95.4383 164.677 95.9149 163.194 95.8663Z" fill="white"/>
<path d="M174.771 80.1752V86.1979C175.094 85.7964 175.503 85.4711 175.968 85.2452C176.432 85.0192 176.941 84.8983 177.458 84.891C178.086 84.8916 178.706 85.0437 179.262 85.3343C179.857 85.6422 180.352 86.1111 180.69 86.6871C181.09 87.3837 181.284 88.1784 181.25 88.98V93.9097C181.263 94.262 181.374 94.6038 181.573 94.8957C181.685 95.0696 181.834 95.2171 182.009 95.3279C182.184 95.4388 182.381 95.5104 182.586 95.5377H178.072V88.659C178.072 88.0475 178.072 87.5355 178.018 87.1304C177.978 86.7079 177.842 86.3001 177.619 85.9381C177.508 85.7493 177.347 85.595 177.153 85.4924C176.959 85.3898 176.74 85.343 176.521 85.3572C176.175 85.3949 175.841 85.504 175.539 85.6778C175.238 85.8515 174.976 86.0859 174.771 86.3661V93.8868C174.783 94.2391 174.895 94.5809 175.093 94.8728C175.205 95.0466 175.354 95.1941 175.529 95.305C175.704 95.4159 175.901 95.4875 176.107 95.5148H170.249C170.455 95.4875 170.652 95.4159 170.827 95.305C171.002 95.1941 171.151 95.0466 171.263 94.8728C171.461 94.5809 171.573 94.2391 171.585 93.8868V83.7598C171.585 82.7586 171.155 82.2312 170.288 82.2312L174.771 80.1752Z" fill="white"/>
<path d="M194.67 95.5378H192.306C191.813 95.5641 191.326 95.4241 190.924 95.1403C190.573 94.8744 190.331 94.4919 190.24 94.0627C190.032 94.6176 189.621 95.0736 189.089 95.339C188.342 95.7277 187.505 95.9147 186.663 95.8817C185.995 95.906 185.332 95.7697 184.728 95.4843C184.253 95.2641 183.853 94.9108 183.577 94.4677C183.326 94.0691 183.193 93.6082 183.193 93.1379C183.181 92.5394 183.379 91.9554 183.753 91.487C184.121 91.0355 184.575 90.6614 185.089 90.3864C185.611 90.1036 186.294 89.7826 187.162 89.4081C187.845 89.1253 188.39 88.8883 188.782 88.6896C189.15 88.5177 189.483 88.2793 189.764 87.9865C190.017 87.7233 190.154 87.3718 190.148 87.0082C190.159 86.5598 189.99 86.1257 189.68 85.8006C189.455 85.6117 189.195 85.4698 188.914 85.3831C188.633 85.2965 188.337 85.2669 188.045 85.2961C187.486 85.2979 186.937 85.4399 186.448 85.7088C185.964 85.9581 185.588 86.3736 185.388 86.8782C185.516 86.6835 185.69 86.5233 185.895 86.412C186.112 86.2949 186.355 86.2344 186.601 86.2362C186.785 86.2343 186.968 86.2692 187.138 86.3388C187.308 86.4084 187.462 86.5112 187.592 86.6413C187.724 86.7739 187.828 86.9315 187.898 87.1048C187.968 87.278 188.002 87.4635 187.999 87.6502C188.004 87.8371 187.97 88.0231 187.9 88.1966C187.83 88.3701 187.725 88.5275 187.592 88.6591C187.463 88.7906 187.309 88.8944 187.139 88.9641C186.969 89.0337 186.786 89.0678 186.601 89.0641C186.311 89.0676 186.026 88.9812 185.787 88.817C185.548 88.6527 185.366 88.4186 185.266 88.147C185.176 87.9502 185.132 87.7362 185.135 87.5202C185.145 87.0605 185.313 86.6181 185.611 86.2668C185.956 85.8375 186.402 85.499 186.909 85.2808C187.497 85.0263 188.133 84.8987 188.774 84.9063C189.573 84.9025 190.362 85.0857 191.077 85.4413C191.758 85.7845 192.326 86.315 192.712 86.9699C193.12 87.6898 193.324 88.5058 193.304 89.3316V93.9174C193.309 94.2768 193.419 94.6269 193.618 94.9263C193.738 95.0988 193.894 95.2429 194.076 95.3486C194.258 95.4543 194.46 95.5188 194.67 95.5378ZM187.054 94.8346C187.427 95.1461 187.896 95.3191 188.383 95.3238C188.671 95.3181 188.953 95.2335 189.196 95.0792C189.48 94.9096 189.716 94.6701 189.88 94.3837C190.067 94.0641 190.16 93.6986 190.148 93.3289V87.612C190.093 87.8362 189.979 88.0419 189.818 88.2081C189.626 88.4374 189.311 88.7661 188.882 89.1941C188.225 89.8284 187.619 90.5133 187.07 91.2424C186.656 91.7889 186.43 92.4535 186.425 93.1379C186.391 93.4499 186.43 93.7654 186.54 94.0598C186.649 94.3541 186.825 94.6193 187.054 94.8346Z" fill="white"/>
<path d="M199.645 80.1752V93.8944C199.657 94.2468 199.769 94.5885 199.967 94.8804C200.079 95.0543 200.228 95.2018 200.403 95.3126C200.578 95.4235 200.775 95.4951 200.981 95.5224H195.123C195.329 95.4951 195.526 95.4235 195.701 95.3126C195.876 95.2018 196.024 95.0543 196.136 94.8804C196.335 94.5885 196.447 94.2468 196.459 93.8944V83.7598C196.459 82.7586 196.029 82.2312 195.169 82.2312L199.645 80.1752Z" fill="white"/>
<path d="M206.04 80.1752V93.8944C206.052 94.2468 206.164 94.5885 206.362 94.8804C206.474 95.0543 206.623 95.2018 206.798 95.3126C206.973 95.4235 207.17 95.4951 207.376 95.5224H201.518C201.724 95.4951 201.921 95.4235 202.096 95.3126C202.271 95.2018 202.42 95.0543 202.532 94.8804C202.73 94.5885 202.842 94.2468 202.854 93.8944V83.7598C202.854 82.7586 202.424 82.2312 201.564 82.2312L206.04 80.1752Z" fill="white"/>
<path d="M208.55 87.5967C208.953 86.7855 209.575 86.1025 210.347 85.6248C211.159 85.1136 212.103 84.8481 213.065 84.8605C213.861 84.8471 214.65 85.0199 215.368 85.3649C215.996 85.6649 216.528 86.1334 216.903 86.7177C217.259 87.2637 217.449 87.901 217.448 88.552C217.447 89.1106 217.298 89.6589 217.016 90.142C216.735 90.625 216.33 91.0256 215.844 91.3035C215.274 91.6204 214.63 91.7788 213.978 91.7621C213.541 91.7651 213.104 91.7293 212.673 91.6551L211.905 91.5252L211.406 91.4411C211.62 92.1186 212.006 92.7295 212.527 93.2143C212.996 93.641 213.611 93.8733 214.247 93.8639C215.019 93.8739 215.77 93.6173 216.373 93.1379C216.942 92.7033 217.371 92.1139 217.609 91.4411L217.671 91.5252C217.529 92.3269 217.209 93.0869 216.734 93.7493C216.287 94.3838 215.698 94.9069 215.015 95.2779C214.338 95.6496 213.576 95.8417 212.804 95.8358C211.919 95.8352 211.054 95.5688 210.324 95.0715C209.556 94.5738 208.933 93.883 208.52 93.0691C208.072 92.2156 207.842 91.2652 207.852 90.3023C207.84 89.3452 208.059 88.3992 208.489 87.5432L208.55 87.5967ZM213.065 85.021C212.869 85.0307 212.68 85.0873 212.511 85.1857C212.343 85.2842 212.201 85.4217 212.097 85.5866C211.769 86.0465 211.534 86.5657 211.406 87.1152C211.224 87.8397 211.136 88.5847 211.145 89.3316C211.145 89.9991 211.24 90.6631 211.429 91.3035C211.913 91.3069 212.394 91.2531 212.865 91.143C213.357 91.0061 213.789 90.7103 214.093 90.3023C214.514 89.6853 214.712 88.9441 214.654 88.2005C214.663 87.4476 214.536 86.6993 214.278 85.9916C214.024 85.3573 213.625 85.021 213.065 85.021Z" fill="white"/>
<path d="M219.567 94.8804C219.766 94.5885 219.877 94.2468 219.889 93.8944V88.4755C219.889 87.4743 219.46 86.9469 218.592 86.9469L223.076 84.868V86.175C223.399 85.7735 223.808 85.4482 224.272 85.2222C224.737 84.9963 225.246 84.8753 225.763 84.868C226.391 84.8686 227.01 85.0207 227.567 85.3113C228.161 85.6192 228.656 86.0882 228.995 86.6641C229.394 87.3608 229.589 88.1555 229.555 88.9571V93.8868C229.567 94.2391 229.679 94.5809 229.877 94.8727C229.989 95.0466 230.138 95.1941 230.313 95.305C230.488 95.4159 230.685 95.4875 230.891 95.5148H226.369V88.636C226.369 88.0246 226.369 87.5125 226.315 87.1074C226.275 86.685 226.138 86.2772 225.916 85.9151C225.805 85.7264 225.644 85.572 225.45 85.4694C225.256 85.3668 225.037 85.32 224.818 85.3343C224.472 85.3757 224.137 85.4889 223.837 85.6666C223.537 85.8443 223.278 86.0826 223.076 86.3661V93.8868C223.088 94.2391 223.199 94.5809 223.398 94.8727C223.51 95.0466 223.659 95.1941 223.834 95.305C224.009 95.4159 224.206 95.4875 224.411 95.5148H218.531C218.74 95.4915 218.941 95.4226 219.12 95.313C219.299 95.2033 219.452 95.0556 219.567 94.8804Z" fill="white"/>
<path d="M233.171 91.0437C232.752 91.4453 232.507 91.9936 232.488 92.5723C232.485 92.7954 232.531 93.0164 232.623 93.2198C232.715 93.4232 232.851 93.6041 233.02 93.7498C233.19 93.8954 233.39 94.0024 233.606 94.063C233.821 94.1237 234.048 94.1366 234.269 94.1009C234.64 94.1001 235.009 94.0487 235.367 93.948C235.758 93.8487 236.249 93.6958 236.856 93.4818C237.462 93.2678 238.107 93.0767 238.591 92.9544C239.05 92.8348 239.522 92.7732 239.996 92.771C240.668 92.7577 241.326 92.9645 241.869 93.3595C242.13 93.5677 242.336 93.8357 242.469 94.1405C242.603 94.4454 242.661 94.778 242.637 95.1098C242.621 95.8434 242.315 96.5412 241.785 97.0511C241.139 97.6926 240.35 98.172 239.482 98.4498C238.421 98.8057 237.307 98.9814 236.188 98.9695C237.04 98.9925 237.887 98.839 238.675 98.5185C239.263 98.2842 239.789 97.918 240.211 97.4485C240.51 97.1394 240.695 96.7375 240.733 96.3097C240.739 96.1668 240.69 96.027 240.595 95.9199C240.544 95.8704 240.484 95.8319 240.418 95.8069C240.352 95.7819 240.281 95.7709 240.211 95.7747C239.628 95.836 239.056 95.9801 238.514 96.2027C237.823 96.4473 237.209 96.6307 236.664 96.7683C236.079 96.9105 235.478 96.9798 234.875 96.9747C234.434 97.01 233.989 96.9497 233.573 96.798C233.157 96.6463 232.779 96.4067 232.465 96.0957C231.932 95.4525 231.659 94.6354 231.697 93.8028C231.704 93.251 231.835 92.7078 232.081 92.2131C232.319 91.7155 232.656 91.271 233.071 90.9061C232.575 90.3111 232.304 89.5622 232.303 88.789C232.305 88.0816 232.54 87.3943 232.971 86.8324C233.444 86.2132 234.068 85.724 234.783 85.4108C235.558 85.0558 236.402 84.8757 237.255 84.8834C238.133 84.8802 239.001 85.0707 239.796 85.4413C239.812 84.6478 240.137 83.8913 240.702 83.3319C241.411 82.7635 242.313 82.4897 243.22 82.5676L241.846 84.2796C241.373 84.2245 240.893 84.2957 240.457 84.486C240.286 84.5991 240.147 84.7542 240.054 84.9364C239.962 85.1185 239.918 85.3214 239.927 85.5254C240.6 85.835 241.179 86.3146 241.608 86.9165C242.01 87.4649 242.227 88.1255 242.23 88.8043C242.229 89.5189 241.995 90.2138 241.562 90.7838C241.096 91.4105 240.474 91.9057 239.758 92.2207C238.973 92.5774 238.118 92.7575 237.255 92.7481C236.463 92.7522 235.679 92.5935 234.952 92.2818C234.27 92.0118 233.66 91.588 233.171 91.0437ZM235.781 90.8832C235.9 91.359 236.122 91.8027 236.434 92.1825C236.531 92.3051 236.653 92.4064 236.792 92.4801C236.931 92.5537 237.083 92.5981 237.24 92.6105C237.399 92.5984 237.554 92.5542 237.695 92.4806C237.836 92.407 237.961 92.3056 238.061 92.1825C238.378 91.8041 238.606 91.3603 238.729 90.8832C238.914 90.1956 239.002 89.4855 238.99 88.7737C239.005 88.0693 238.917 87.3665 238.729 86.6872C238.607 86.2213 238.378 85.7898 238.061 85.4261C237.958 85.3081 237.832 85.2117 237.691 85.1422C237.55 85.0727 237.397 85.0315 237.24 85.021C237.085 85.0318 236.934 85.0732 236.796 85.1428C236.657 85.2123 236.534 85.3086 236.434 85.4261C236.122 85.7911 235.899 86.2226 235.781 86.6872C235.59 87.3659 235.502 88.0691 235.52 88.7737C235.504 89.4857 235.592 90.1963 235.781 90.8832Z" fill="white"/>
<path d="M244.318 87.5966C244.721 86.7855 245.343 86.1025 246.115 85.6247C246.925 85.1146 247.866 84.8491 248.825 84.8604C249.634 84.8422 250.437 85.015 251.166 85.3649C251.794 85.6649 252.326 86.1334 252.702 86.7177C253.055 87.2644 253.242 87.9016 253.239 88.552C253.242 89.1113 253.095 89.6612 252.812 90.145C252.53 90.6287 252.124 91.0286 251.634 91.3035C251.068 91.6201 250.426 91.7785 249.777 91.7621C249.341 91.7856 248.904 91.7703 248.471 91.7162L247.704 91.5863L247.212 91.5022C247.426 92.1797 247.812 92.7906 248.333 93.2754C248.802 93.7034 249.417 93.936 250.053 93.9251C250.823 93.9364 251.572 93.6796 252.172 93.199C252.745 92.7671 253.177 92.177 253.416 91.5022L253.477 91.5863C253.332 92.387 253.012 93.1462 252.54 93.8104C252.091 94.4433 251.503 94.966 250.821 95.339C250.144 95.7107 249.383 95.9028 248.61 95.897C247.722 95.8964 246.856 95.6301 246.122 95.1327C245.359 94.6322 244.739 93.942 244.326 93.1302C243.878 92.2768 243.648 91.3264 243.658 90.3634C243.646 89.4063 243.865 88.4603 244.295 87.6043L244.318 87.5966ZM248.825 85.0209C248.63 85.0326 248.441 85.0899 248.273 85.1882C248.105 85.2865 247.962 85.423 247.857 85.5865C247.535 86.0487 247.303 86.5673 247.174 87.1151C246.992 87.8397 246.904 88.5847 246.913 89.3316C246.914 89.9984 247.007 90.6619 247.189 91.3035C247.675 91.307 248.16 91.2531 248.633 91.143C249.124 91.0061 249.556 90.7103 249.861 90.3023C250.282 89.6853 250.48 88.9441 250.421 88.2004C250.431 87.4476 250.304 86.6992 250.045 85.9916C249.975 85.7198 249.818 85.478 249.598 85.3029C249.378 85.1277 249.106 85.0288 248.825 85.0209Z" fill="white"/>
</g>
<defs>
<clipPath id="clip0_3_4220">
<rect width="253" height="99" fill="white" transform="translate(0.5)"/>
</clipPath>
</defs>
</svg>
