<svg width="118" height="243" viewBox="0 0 118 243" fill="none" xmlns="http://www.w3.org/2000/svg">
<g clip-path="url(#clip0_9_1406)">
<path d="M31 71.7601C25.9462 71.7838 21.012 70.2242 16.89 67.3001C12.5157 64.237 8.9976 60.1061 6.67 55.3C4.13073 50.1807 2.83562 44.5343 2.89 38.82C2.8372 33.1092 4.13226 27.4664 6.67 22.3501C8.99572 17.5427 12.5142 13.4114 16.89 10.3501C21.0126 7.42603 25.9458 5.86322 31 5.88005C33.3641 5.84753 35.721 6.15055 38 6.78005C40.3754 7.49836 42.7118 8.3395 45 9.30005C45.24 9.42005 45.85 9.68005 46.84 10.0601C47.6877 10.4103 48.5601 10.6977 49.45 10.9201C50.0841 11.0843 50.7351 11.1749 51.39 11.1901C51.8164 11.2007 52.2385 11.1026 52.6164 10.9049C52.9943 10.7072 53.3156 10.4164 53.55 10.0601C54.1194 9.2438 54.4893 8.30531 54.63 7.32005V33.2401C53.5159 28.2686 51.6333 23.5013 49.05 19.1101C46.9378 15.4178 44.0683 12.2143 40.63 9.71005C37.8386 7.6418 34.4734 6.49212 31 6.42005C28.4616 6.47534 26.0302 7.45289 24.16 9.17005C22 10.9967 20.2467 13.8734 18.9 17.8C17.4344 22.5955 16.7589 27.5976 16.9 32.6101C16.8666 37.9485 17.8438 43.245 19.78 48.2201C21.4125 52.7006 24.0739 56.7355 27.55 60C30.4219 62.7962 34.2523 64.3913 38.26 64.46C46.42 64.46 53.0867 59.84 58.26 50.6C56.4472 56.6217 52.9035 61.9772 48.07 66C43.2389 69.8759 37.1917 71.9165 31 71.7601Z" fill="white"/>
<path d="M84.34 71.8799C81.5031 71.8696 78.7094 71.184 76.19 69.8799C73.4895 68.4799 71.2372 66.3488 69.69 63.7299C67.8976 60.5649 67.0183 56.9648 67.15 53.3299V38.1899C67.15 33.6299 65.1967 31.3499 61.29 31.3499L81.61 21.8799V54.7899C81.61 57.5899 81.69 59.9232 81.85 61.7899C82.0345 63.7104 82.6534 65.5639 83.66 67.2099C84.1637 68.073 84.8991 68.7778 85.7828 69.2444C86.6665 69.711 87.6632 69.9207 88.66 69.8499C91.26 69.8499 93.8967 68.2866 96.57 65.1599V38.1899C96.57 33.6299 94.6167 31.3499 90.71 31.3499L111 21.8799V62.8799C111.055 64.4856 111.565 66.0427 112.47 67.3699C112.978 68.1607 113.652 68.8321 114.444 69.3379C115.236 69.8437 116.129 70.1719 117.06 70.2999H96.55V65.8999C92.9033 69.8999 88.8333 71.8999 84.34 71.8999V71.8799Z" fill="white"/>
<path d="M22.14 76.3999V138.9C22.1948 140.506 22.7046 142.063 23.61 143.39C24.1182 144.181 24.7916 144.852 25.5839 145.358C26.3763 145.864 27.2687 146.192 28.2 146.32H1.63C2.56125 146.192 3.45373 145.864 4.24607 145.358C5.03841 144.852 5.71182 144.181 6.22 143.39C7.12544 142.063 7.63523 140.506 7.69 138.9V92.6999C7.69 88.1466 5.73666 85.8699 1.83 85.8699L22.14 76.3999Z" fill="white"/>
<path d="M39.33 138.9V114.19C39.33 109.63 37.3767 107.35 33.47 107.35L53.78 97.88V138.88C53.8348 140.486 54.3446 142.043 55.25 143.37C55.7582 144.161 56.4316 144.832 57.2239 145.338C58.0163 145.844 58.9088 146.172 59.84 146.3H33.27C34.2013 146.172 35.0937 145.844 35.8861 145.338C36.6784 144.832 37.3518 144.161 37.86 143.37C38.7619 142.049 39.2715 140.499 39.33 138.9ZM39.08 89.82C38.3039 89.0439 37.6882 88.1225 37.2682 87.1085C36.8482 86.0944 36.632 85.0076 36.632 83.91C36.632 82.8124 36.8482 81.7256 37.2682 80.7115C37.6882 79.6975 38.3039 78.7761 39.08 78C39.8561 77.2239 40.7775 76.6082 41.7915 76.1882C42.8056 75.7682 43.8924 75.552 44.99 75.552C46.0876 75.552 47.1744 75.7682 48.1885 76.1882C49.2025 76.6082 50.1239 77.2239 50.9 78C52.4674 79.5674 53.348 81.6933 53.348 83.91C53.348 86.1267 52.4674 88.2526 50.9 89.82C49.3326 91.3874 47.2067 92.268 44.99 92.268C42.7733 92.268 40.6474 91.3874 39.08 89.82Z" fill="white"/>
<path d="M68.53 143.39C69.432 142.061 69.9414 140.505 70 138.9V92.6999C70 88.1466 68.0467 85.8699 64.14 85.8699L84.45 76.3999V102.57C85.7572 101.265 87.2751 100.19 88.94 99.3899C90.837 98.3946 92.9478 97.8763 95.09 97.8799C98.9314 97.82 102.692 98.9826 105.83 101.2C109.02 103.493 111.534 106.601 113.11 110.2C114.872 114.164 115.755 118.462 115.7 122.8V123C115.755 127.338 114.872 131.636 113.11 135.6C111.534 139.199 109.02 142.307 105.83 144.6C102.692 146.817 98.9314 147.98 95.09 147.92C92.9633 147.927 90.8678 147.408 88.99 146.41C87.3257 145.584 85.7952 144.512 84.45 143.23V146.36H63.94C64.8705 146.229 65.7619 145.9 66.5539 145.395C67.3459 144.889 68.0198 144.219 68.53 143.43V143.39ZM90 145.15C91.9192 145.089 93.7487 144.323 95.14 143C96.8 141.567 98.2 139.19 99.34 135.87C100.599 131.7 101.176 127.354 101.05 123V122.8C101.178 118.439 100.601 114.086 99.34 109.91C98.2 106.59 96.8 104.22 95.14 102.78C93.7518 101.449 91.9219 100.677 90 100.61C87.9087 100.65 85.9164 101.508 84.45 103V142.8C85.9245 144.273 87.9158 145.113 90 145.14V145.15Z" fill="white"/>
<path d="M8.65 204.34V177.77C8.65 172.88 6.55 170.42 2.35 170.42L24.19 160.24V166.64C25.721 164.894 27.5535 163.438 29.6 162.34C31.7982 161 34.3158 160.275 36.89 160.24C40.3328 160.091 43.7003 161.277 46.29 163.55C47.4336 164.527 48.3501 165.742 48.9753 167.11C49.6006 168.478 49.9196 169.966 49.91 171.47C49.9006 172.723 49.6878 173.966 49.28 175.15C48.7969 176.732 47.7591 178.087 46.3572 178.966C44.9552 179.844 43.2834 180.187 41.6488 179.932C40.0142 179.676 38.5267 178.84 37.4595 177.576C36.3924 176.311 35.8173 174.704 35.84 173.05C35.787 171.879 36.0605 170.715 36.63 169.69C37.3144 168.66 38.1091 167.708 39 166.85C39.5863 166.349 40.1161 165.786 40.58 165.17C40.9183 164.717 41.1007 164.166 41.1 163.6C41.087 163.23 40.9903 162.868 40.8171 162.54C40.6439 162.213 40.3987 161.929 40.1 161.71C39.1568 161.073 38.0244 160.777 36.89 160.87C34.3282 160.882 31.8208 161.61 29.65 162.97C27.6122 164.148 25.7701 165.636 24.19 167.38V204.38C24.2465 206.106 24.7909 207.781 25.76 209.21C26.307 210.061 27.0318 210.783 27.8846 211.327C28.7374 211.871 29.6979 212.223 30.7 212.36H2.14C3.1421 212.223 4.10261 211.871 4.95541 211.327C5.80821 210.783 6.53304 210.061 7.08 209.21C8.05632 207.769 8.601 206.08 8.65 204.34Z" fill="white"/>
<path d="M63.93 173.47C65.9469 169.391 69.0918 165.976 72.9914 163.631C76.8909 161.286 81.3815 160.109 85.93 160.24C89.8688 160.149 93.7727 160.996 97.32 162.71C100.383 164.181 102.982 166.468 104.83 169.32C106.556 172.003 107.466 175.13 107.45 178.32C107.466 181.061 106.75 183.757 105.375 186.129C104 188.5 102.017 190.462 99.63 191.81C96.8644 193.373 93.7256 194.154 90.55 194.07C88.422 194.077 86.2974 193.9 84.2 193.54L80.57 192.91L78.16 192.49C79.2091 195.799 81.089 198.784 83.62 201.16C85.9101 203.258 88.9146 204.402 92.02 204.36C95.778 204.415 99.4365 203.152 102.36 200.79C105.127 198.668 107.213 195.783 108.36 192.49L108.67 192.91C107.963 196.823 106.407 200.534 104.11 203.78C101.918 206.89 99.045 209.459 95.71 211.29C92.427 213.085 88.7419 214.018 85 214C80.6895 214.028 76.469 212.767 72.88 210.38C69.1605 207.916 66.1398 204.533 64.11 200.56C61.918 196.379 60.7914 191.721 60.83 187C60.7705 182.304 61.8333 177.662 63.93 173.46V173.47ZM85.93 160.87C84.1833 160.87 82.6067 161.797 81.2 163.65C79.594 165.965 78.4529 168.57 77.84 171.32C76.964 174.872 76.5407 178.521 76.58 182.18C76.6046 185.45 77.0825 188.701 78 191.84C80.3558 191.855 82.7052 191.593 85 191.06C87.4045 190.38 89.5149 188.92 91 186.91C92.82 184.67 93.73 181.24 93.73 176.62C93.7711 172.932 93.1479 169.267 91.89 165.8C90.63 162.507 88.6433 160.863 85.93 160.87Z" fill="white"/>
<path d="M64 2.5499C63.6143 3.26861 63.2801 4.01382 63 4.7799L63.46 0.399902H77.37L77.87 4.7799C77.5752 4.01015 77.2207 3.26456 76.81 2.5499C76.4422 1.95302 75.9206 1.46602 75.3 1.1399C74.449 0.699942 73.4968 0.492938 72.54 0.539902H72.27V15.5399C72.2915 16.0122 72.4438 16.4692 72.71 16.8599C72.8578 17.0999 73.0576 17.3036 73.2948 17.4559C73.5319 17.6082 73.8003 17.7053 74.08 17.7399H66.75C67.0307 17.704 67.2999 17.6064 67.5385 17.4543C67.777 17.3022 67.979 17.0992 68.13 16.8599C68.3936 16.4686 68.5425 16.0114 68.56 15.5399V0.539902H68.29C67.3332 0.492938 66.381 0.699942 65.53 1.1399C64.902 1.46309 64.3733 1.95034 64 2.5499Z" fill="white"/>
<path d="M83.53 0V7C83.9003 6.53435 84.3699 6.15717 84.9044 5.89595C85.439 5.63473 86.0251 5.49605 86.62 5.49C87.3408 5.49252 88.0505 5.66738 88.69 6C89.3756 6.35473 89.9474 6.89537 90.34 7.56C90.7882 8.34858 91.0161 9.24312 91 10.15V15.84C91.0036 16.2521 91.125 16.6546 91.35 17C91.4806 17.1978 91.6514 17.3659 91.8513 17.4934C92.0511 17.6209 92.2756 17.7049 92.51 17.74H87.32V9.78C87.327 9.18586 87.3037 8.59175 87.25 8C87.2043 7.5123 87.0506 7.0409 86.8 6.62C86.6631 6.41254 86.473 6.2456 86.2497 6.13655C86.0263 6.02751 85.7778 5.98035 85.53 6C85.1327 6.05007 84.75 6.1816 84.4059 6.38636C84.0617 6.59112 83.7635 6.86471 83.53 7.19V15.88C83.547 16.2804 83.6751 16.6682 83.9 17C84.0306 17.1978 84.2014 17.3659 84.4013 17.4934C84.6011 17.6209 84.8256 17.7049 85.06 17.74H78.33C78.5662 17.7062 78.7926 17.6228 78.9942 17.4953C79.1959 17.3678 79.3683 17.199 79.5 17C79.7241 16.6604 79.852 16.2665 79.87 15.86V4.13C79.87 2.98 79.37 2.4 78.38 2.4L83.53 0Z" fill="white"/>
<path d="M93.83 8.56001C94.3069 7.60374 95.0466 6.80326 95.9623 6.25242C96.878 5.70159 97.9317 5.42324 99 5.45001C99.9299 5.42823 100.852 5.62698 101.69 6.03001C102.412 6.3741 103.022 6.9148 103.45 7.59001C103.86 8.21686 104.076 8.95094 104.07 9.70001C104.074 10.3458 103.905 10.981 103.582 11.54C103.259 12.099 102.792 12.5616 102.23 12.88C101.578 13.2487 100.838 13.432 100.09 13.41C99.5876 13.4106 99.0859 13.3705 98.59 13.29L97.74 13.14L97.17 13.04C97.4209 13.8041 97.8612 14.4922 98.45 15.04C98.9943 15.5408 99.7105 15.8129 100.45 15.8C101.333 15.8125 102.193 15.5153 102.88 14.96C103.545 14.4505 104.043 13.7541 104.31 12.96L104.38 13.06C104.215 13.9831 103.846 14.8577 103.3 15.62C102.783 16.3603 102.098 16.967 101.3 17.39C100.526 17.8192 99.655 18.043 98.77 18.04C97.7521 18.0458 96.7559 17.7462 95.91 17.18C95.0596 16.6339 94.3586 15.8847 93.87 15C93.3556 14.0159 93.0912 12.9204 93.1 11.81C93.0863 10.7006 93.3365 9.60374 93.83 8.61001V8.56001ZM99.02 5.56001C98.7956 5.57283 98.5776 5.6395 98.3843 5.75438C98.1911 5.86926 98.0284 6.02897 97.91 6.22001C97.5295 6.76632 97.2579 7.38087 97.11 8.03001C96.9096 8.86837 96.8122 9.72806 96.82 10.59C96.8171 11.3581 96.9249 12.1226 97.14 12.86C97.6984 12.8639 98.2554 12.8035 98.8 12.68C99.3675 12.5116 99.8633 12.1599 100.21 11.68C100.691 10.9688 100.916 10.1158 100.85 9.26001C100.862 8.39099 100.716 7.52698 100.42 6.71001C100.13 6.00001 99.66 5.59001 99 5.59001L99.02 5.56001Z" fill="white"/>
<path d="M7.77 239C6.37507 239.007 5.01364 238.573 3.88 237.76C2.66453 236.918 1.68922 235.774 1.05 234.44C0.359275 233.019 0.000366211 231.46 0.000366211 229.88C0.000366211 228.3 0.359275 226.741 1.05 225.32C1.69306 223.989 2.6676 222.846 3.88 222C5.01667 221.194 6.37679 220.764 7.77 220.77C8.42529 220.76 9.07859 220.844 9.71 221.02C10.28 221.19 10.93 221.42 11.66 221.72L12.17 221.93C12.45 222.04 12.69 222.11 12.89 222.17C13.0676 222.209 13.2483 222.233 13.43 222.24C13.537 222.246 13.6441 222.228 13.7429 222.186C13.8418 222.145 13.9297 222.081 14 222C14.1573 221.773 14.2599 221.513 14.3 221.24V228.42C13.9893 227.041 13.4664 225.719 12.75 224.5C12.1675 223.477 11.373 222.591 10.42 221.9C9.6445 221.323 8.70677 221.004 7.74 220.99C7.03845 221.005 6.36638 221.275 5.85 221.75C5.1605 222.404 4.65669 223.228 4.39 224.14C3.98358 225.468 3.79447 226.852 3.83 228.24C3.82196 229.718 4.0934 231.183 4.63 232.56C5.08258 233.807 5.82656 234.928 6.8 235.83C7.60412 236.611 8.67885 237.052 9.8 237.06C12.06 237.06 13.91 235.78 15.33 233.22C14.8317 234.891 13.8548 236.379 12.52 237.5C11.1611 238.541 9.48011 239.072 7.77 239Z" fill="white"/>
<path d="M21.18 220.79V227.79C21.5515 227.32 22.0238 226.939 22.5621 226.676C23.1004 226.413 23.6909 226.274 24.29 226.27C25.014 226.273 25.727 226.447 26.37 226.78C27.048 227.143 27.6122 227.686 28 228.35C28.46 229.159 28.6851 230.08 28.65 231.01V236.74C28.6633 237.147 28.7916 237.543 29.02 237.88C29.1497 238.082 29.3214 238.253 29.5233 238.383C29.7252 238.512 29.9526 238.596 30.19 238.63H25V230.63C25 229.92 25 229.32 24.94 228.85C24.8859 228.363 24.7291 227.892 24.48 227.47C24.3507 227.249 24.1625 227.069 23.9365 226.948C23.7104 226.828 23.4554 226.774 23.2 226.79C22.8016 226.84 22.4179 226.973 22.0736 227.179C21.7292 227.386 21.4317 227.662 21.2 227.99V236.74C21.2133 237.147 21.3416 237.543 21.57 237.88C21.6997 238.082 21.8714 238.253 22.0733 238.383C22.2752 238.512 22.5026 238.596 22.74 238.63H15.94C16.1778 238.598 16.4057 238.514 16.6078 238.384C16.8099 238.255 16.9813 238.083 17.11 237.88C17.3415 237.543 17.4732 237.148 17.49 236.74V225C17.49 223.84 16.99 223.26 15.99 223.26L21.18 220.79Z" fill="white"/>
<path d="M43 237.91C43.1354 238.108 43.3117 238.275 43.517 238.399C43.7223 238.523 43.9517 238.602 44.19 238.63H41.46C40.8901 238.661 40.3265 238.499 39.86 238.17C39.4583 237.853 39.1763 237.409 39.06 236.91C38.8276 237.559 38.35 238.09 37.73 238.39C36.8712 238.851 35.9039 239.072 34.93 239.03C34.1541 239.058 33.3826 238.901 32.68 238.57C32.1337 238.306 31.6728 237.894 31.35 237.38C31.0657 236.917 30.9167 236.383 30.92 235.84C30.9045 235.145 31.1307 234.467 31.56 233.92C31.9847 233.393 32.512 232.957 33.11 232.64C33.71 232.31 34.5 231.94 35.5 231.5C36.3 231.17 36.92 230.89 37.38 230.67C37.8063 230.473 38.1901 230.194 38.51 229.85C38.8017 229.543 38.963 229.134 38.96 228.71C38.9711 228.188 38.7773 227.681 38.42 227.3C38.1573 227.083 37.8542 226.919 37.5281 226.82C37.2019 226.72 36.8593 226.686 36.52 226.72C35.8748 226.723 35.2411 226.892 34.68 227.21C34.1164 227.488 33.6801 227.971 33.46 228.56C33.6096 228.329 33.8158 228.139 34.059 228.01C34.3023 227.88 34.5745 227.815 34.85 227.82C35.0637 227.815 35.2762 227.854 35.4741 227.935C35.6721 228.016 35.8511 228.137 36 228.29C36.1526 228.444 36.2728 228.627 36.3535 228.827C36.4342 229.028 36.4738 229.244 36.47 229.46C36.4756 229.677 36.4368 229.892 36.3559 230.094C36.2751 230.295 36.154 230.477 36 230.63C35.7296 230.903 35.3709 231.071 34.9881 231.104C34.6052 231.137 34.2231 231.033 33.91 230.81C33.6301 230.623 33.4193 230.349 33.31 230.03C33.2107 229.803 33.1596 229.558 33.16 229.31C33.1725 228.775 33.3664 228.26 33.71 227.85C34.1073 227.351 34.6229 226.959 35.21 226.71C35.8901 226.41 36.6268 226.26 37.37 226.27C38.3067 226.257 39.2327 226.47 40.07 226.89C40.8629 227.295 41.5225 227.92 41.97 228.69C42.4365 229.527 42.6713 230.472 42.65 231.43V236.74C42.6563 237.156 42.7812 237.562 43.01 237.91H43ZM36.91 238.38C37.2413 238.374 37.5639 238.273 37.84 238.09C38.1699 237.895 38.4451 237.62 38.64 237.29C38.8546 236.916 38.9619 236.491 38.95 236.06V229.41C38.8852 229.672 38.7544 229.913 38.57 230.11C38.34 230.38 37.98 230.76 37.48 231.25C36.7281 231.993 36.0297 232.788 35.39 233.63C34.9088 234.267 34.6458 235.042 34.64 235.84C34.5957 236.207 34.6387 236.58 34.7655 236.927C34.8924 237.275 35.0995 237.588 35.37 237.84C35.8084 238.194 36.3563 238.385 36.92 238.38H36.91Z" fill="white"/>
<path d="M50 220.79V236.79C50.0133 237.197 50.1416 237.593 50.37 237.93C50.4997 238.132 50.6714 238.303 50.8733 238.433C51.0752 238.562 51.3026 238.646 51.54 238.68H44.72C44.9574 238.646 45.1848 238.562 45.3867 238.433C45.5886 238.303 45.7603 238.132 45.89 237.93C46.1184 237.593 46.2467 237.197 46.26 236.79V225C46.26 223.84 45.76 223.26 44.77 223.26L50 220.79Z" fill="white"/>
<path d="M57.35 220.79V236.79C57.3633 237.197 57.4916 237.593 57.72 237.93C57.8497 238.132 58.0214 238.303 58.2233 238.433C58.4252 238.562 58.6526 238.646 58.89 238.68H52.11C52.3492 238.648 52.5786 238.564 52.7823 238.434C52.986 238.305 53.1592 238.133 53.29 237.93C53.5141 237.59 53.642 237.197 53.66 236.79V225C53.66 223.84 53.16 223.26 52.16 223.26L57.35 220.79Z" fill="white"/>
<path d="M62.33 227.12C63.2723 226.539 64.3631 226.243 65.47 226.27C66.404 226.25 67.3294 226.452 68.17 226.86C68.9161 227.2 69.5505 227.744 70 228.43C70.4147 229.063 70.6338 229.803 70.63 230.56C70.6303 231.21 70.4583 231.849 70.1316 232.411C69.8049 232.973 69.3351 233.438 68.77 233.76C68.1149 234.129 67.3716 234.312 66.62 234.29C66.1143 234.291 65.6093 234.251 65.11 234.17L64.2 234L63.62 233.9C63.8718 234.686 64.3192 235.394 64.92 235.96C65.466 236.458 66.181 236.73 66.92 236.72C67.8144 236.734 68.6852 236.433 69.38 235.87C70.0416 235.357 70.5387 234.662 70.81 233.87L70.89 233.97C70.7151 234.898 70.3435 235.778 69.8 236.55C69.2802 237.29 68.5955 237.9 67.8 238.33C67.0157 238.76 66.1347 238.984 65.24 238.98C64.2192 238.985 63.22 238.685 62.37 238.12C61.4831 237.541 60.7655 236.737 60.29 235.79C59.7665 234.798 59.4985 233.691 59.51 232.57C59.4978 231.456 59.7515 230.356 60.25 229.36C60.7256 228.437 61.445 227.663 62.33 227.12ZM65.47 226.42C65.2439 226.431 65.0238 226.497 64.8288 226.612C64.6337 226.727 64.4694 226.888 64.35 227.08C63.9654 227.628 63.6934 228.246 63.55 228.9C63.3412 229.744 63.2404 230.611 63.25 231.48C63.2516 232.255 63.3627 233.026 63.58 233.77C64.1391 233.776 64.6967 233.712 65.24 233.58C65.8152 233.416 66.3188 233.064 66.67 232.58C67.1527 231.862 67.3783 231.002 67.31 230.14C67.3213 229.264 67.1757 228.394 66.88 227.57C66.805 227.249 66.626 226.963 66.3709 226.755C66.1158 226.547 65.799 226.429 65.47 226.42Z" fill="white"/>
<path d="M73 237.88C73.2284 237.543 73.3567 237.147 73.37 236.74V230.43C73.37 229.27 72.88 228.69 71.88 228.69L77.06 226.27V227.79C77.4363 227.323 77.9111 226.944 78.4503 226.682C78.9896 226.419 79.5802 226.278 80.18 226.27C80.904 226.272 81.617 226.447 82.26 226.78C82.9463 227.138 83.518 227.682 83.91 228.35C84.37 229.159 84.5951 230.08 84.56 231.01V236.74C84.5768 237.148 84.7086 237.543 84.94 237.88C85.0697 238.082 85.2414 238.253 85.4433 238.383C85.6452 238.512 85.8726 238.596 86.11 238.63H80.86V230.63C80.86 229.92 80.86 229.32 80.8 228.85C80.7554 228.361 80.5979 227.888 80.34 227.47C80.2132 227.249 80.027 227.068 79.8024 226.948C79.5779 226.828 79.3241 226.773 79.07 226.79C78.6721 226.842 78.2891 226.975 77.945 227.182C77.6009 227.388 77.303 227.663 77.07 227.99V236.74C77.0868 237.148 77.2186 237.543 77.45 237.88C77.5787 238.083 77.7501 238.255 77.9522 238.384C78.1543 238.514 78.3822 238.598 78.62 238.63H71.82C72.0592 238.598 72.2886 238.514 72.4923 238.384C72.696 238.255 72.8692 238.083 73 237.88Z" fill="white"/>
<path d="M88.73 233.42C88.243 233.895 87.9597 234.54 87.94 235.22C87.9521 235.662 88.1104 236.087 88.39 236.43C88.5957 236.643 88.8483 236.806 89.1277 236.905C89.4072 237.004 89.7058 237.036 90 237C90.4286 236.994 90.8549 236.937 91.27 236.83C91.71 236.71 92.27 236.53 92.99 236.28C93.71 236.03 94.43 235.81 94.99 235.67C95.5223 235.53 96.0697 235.456 96.62 235.45C97.3998 235.433 98.1631 235.676 98.79 236.14C99.0937 236.374 99.3361 236.678 99.4963 237.027C99.6565 237.375 99.7299 237.757 99.71 238.14C99.7015 238.564 99.6087 238.982 99.437 239.37C99.2653 239.758 99.0182 240.108 98.71 240.4C97.9488 241.146 97.0244 241.704 96.01 242.03C94.7794 242.443 93.488 242.646 92.19 242.63C93.1764 242.656 94.1573 242.475 95.07 242.1C95.7504 241.828 96.3593 241.404 96.85 240.86C97.1968 240.503 97.4089 240.036 97.45 239.54C97.455 239.458 97.4434 239.376 97.4159 239.299C97.3884 239.221 97.3456 239.15 97.29 239.09C97.2339 239.031 97.1653 238.985 97.0892 238.955C97.013 238.926 96.9314 238.914 96.85 238.92C96.1628 238.984 95.4889 239.149 94.85 239.41C94.1485 239.667 93.4343 239.887 92.71 240.07C92.0326 240.236 91.3373 240.316 90.64 240.31C90.1303 240.356 89.6167 240.29 89.135 240.117C88.6532 239.944 88.2148 239.669 87.85 239.31C87.2283 238.556 86.9109 237.596 86.96 236.62C86.9674 235.978 87.1177 235.346 87.4 234.77C87.6745 234.19 88.066 233.672 88.55 233.25C87.9702 232.561 87.6516 231.69 87.65 230.79C87.652 229.968 87.9263 229.17 88.43 228.52C88.9727 227.797 89.6924 227.225 90.52 226.86C91.4165 226.448 92.3933 226.239 93.38 226.25C94.3963 226.244 95.4009 226.466 96.32 226.9C96.3441 225.976 96.7196 225.096 97.37 224.44C98.1895 223.771 99.2357 223.445 100.29 223.53L98.69 225.53C98.1416 225.468 97.5864 225.55 97.08 225.77C96.8843 225.901 96.7255 226.081 96.6188 226.291C96.512 226.501 96.4608 226.735 96.47 226.97C97.2666 227.326 97.9561 227.885 98.47 228.59C98.9354 229.229 99.1873 229.999 99.19 230.79C99.1871 231.619 98.9171 232.426 98.42 233.09C97.8745 233.817 97.1514 234.392 96.32 234.76C95.4136 235.175 94.4266 235.383 93.43 235.37C92.5068 235.376 91.5919 235.196 90.74 234.84C89.9718 234.524 89.2848 234.038 88.73 233.42ZM91.73 233.24C91.8662 233.791 92.1261 234.304 92.49 234.74C92.6005 234.885 92.7407 235.004 92.901 235.09C93.0614 235.177 93.2383 235.228 93.42 235.24C93.6134 235.236 93.8035 235.19 93.9765 235.103C94.1495 235.017 94.301 234.892 94.42 234.74C94.7912 234.308 95.055 233.794 95.19 233.24C95.4055 232.438 95.5065 231.61 95.49 230.78C95.5081 229.96 95.407 229.141 95.19 228.35C95.0534 227.809 94.7894 227.308 94.42 226.89C94.2951 226.747 94.1417 226.631 93.9695 226.55C93.7973 226.469 93.6102 226.425 93.42 226.42C93.2416 226.433 93.0675 226.481 92.9078 226.562C92.7482 226.642 92.6061 226.754 92.49 226.89C92.1279 227.312 91.8679 227.811 91.73 228.35C91.513 229.141 91.4119 229.96 91.43 230.78C91.42 231.611 91.5277 232.439 91.75 233.24H91.73Z" fill="white"/>
<path d="M103.71 227.12C104.652 226.539 105.743 226.243 106.85 226.27C107.784 226.25 108.709 226.452 109.55 226.86C110.278 227.208 110.894 227.751 111.33 228.43C111.745 229.063 111.964 229.803 111.96 230.56C111.96 231.21 111.788 231.849 111.462 232.411C111.135 232.973 110.665 233.438 110.1 233.76C109.441 234.129 108.695 234.312 107.94 234.29C107.438 234.291 106.936 234.25 106.44 234.17L105.58 234.02L105 233.92C105.248 234.708 105.696 235.417 106.3 235.98C106.846 236.478 107.561 236.75 108.3 236.74C109.194 236.754 110.065 236.453 110.76 235.89C111.422 235.377 111.919 234.682 112.19 233.89L112.26 233.99C112.093 234.919 111.724 235.799 111.18 236.57C110.66 237.31 109.976 237.92 109.18 238.35C108.396 238.78 107.515 239.004 106.62 239C105.599 239.005 104.6 238.705 103.75 238.14C102.863 237.557 102.143 236.754 101.66 235.81C101.144 234.816 100.88 233.71 100.89 232.59C100.878 231.476 101.131 230.376 101.63 229.38C102.103 228.45 102.822 227.668 103.71 227.12ZM106.85 226.42C106.624 226.431 106.404 226.497 106.209 226.612C106.014 226.727 105.849 226.888 105.73 227.08C105.345 227.628 105.073 228.246 104.93 228.9C104.721 229.744 104.62 230.611 104.63 231.48C104.633 232.254 104.741 233.024 104.95 233.77C105.512 233.776 106.073 233.712 106.62 233.58C107.193 233.418 107.694 233.065 108.04 232.58C108.531 231.866 108.761 231.004 108.69 230.14C108.701 229.264 108.556 228.394 108.26 227.57C108 226.81 107.5 226.42 106.85 226.42Z" fill="white"/>
</g>
<defs>
<clipPath id="clip0_9_1406">
<rect width="117.06" height="242.67" fill="white"/>
</clipPath>
</defs>
</svg>
