<svg width="1441" height="971" viewBox="0 0 1441 971" fill="none" xmlns="http://www.w3.org/2000/svg">
<path d="M1235.9 544.678L1232.02 559.252L1210.98 566.354L1204.69 558.967L1201.63 559.806L1207.34 581.835L1215.89 582.792L1227.29 587.107V591.422L1232.51 590.465L1240.11 579.938V571.324L1244.4 562.711L1249.15 563.668L1243.44 551.696L1242.57 543.99L1235.9 544.678Z" fill="#3E1893"/>
<path d="M1355.24 584.79L1354.62 625.826L1360.53 625.507L1368.3 616.423L1374.83 616.742L1379.03 620.503L1380.42 632.088L1393.79 639.14L1397.21 637.881V633.65L1386.48 624.717L1381.19 612.494L1385.39 610.462L1382.29 603.73L1376.07 603.578L1374.51 596.375L1358.04 585.26L1355.24 584.79Z" fill="#C6C6C6"/>
<path d="M154.338 378.504L162.447 404.043L158.67 406.158L159.089 411.229L166.225 416.719V426.877L175.039 435.34L171.262 410.389L166.225 393.884L167.484 382.467L171.681 382.887L173.36 386.698L171.681 396.42L193.508 439.134V454.363L211.137 475.082L230.445 483.964L238.42 479.314L249.752 488.615L256.468 481.849L253.53 474.226L263.184 471.271L266.122 472.967L269.06 470.012H273.677L282.072 455.203L277.875 451.391L261.505 455.203L257.727 466.2L248.074 467.896L236.741 463.245L231.704 447.177L235.515 426.911L227.725 422.059L224.014 402.599L220.908 401.272L215.233 407.031L208.719 403.556L206.167 390.577L180.362 387.873L167.031 377.85L154.338 378.504Z" fill="#C6C6C6"/>
<path d="M792.81 241.21L783.407 240.874L777.447 244.518L777.363 247.221L781.225 250.864L793.229 252.896L792.81 241.21Z" fill="#C6C6C6"/>
<path d="M719.12 381.963L712.27 379.663L683.762 385.019L677.549 389.737L681.344 409.331L670.011 409.784L663.194 420.749L646.959 424.644L647.009 432.619L700.484 473.504L709.601 474.276L740.006 450.518L736.967 446.69L731.259 445.917L727.834 440.175V416.417L725.551 414.116L725.937 407.988L719.859 401.859L719.103 395.345L721.756 393.431L720.614 386.53L719.12 381.963Z" fill="#C6C6C6"/>
<path d="M676.156 390.006H656.764L652.969 398.435L644.222 402.649L637.003 422.193L622.933 430.622L603.172 463.178L622.564 462.792L623.319 453.221H628.255V440.192H645.364L645.75 423.335L662.103 419.506L668.953 408.391L679.598 408.005L676.156 390.006Z" fill="#3E1893"/>
<path d="M603.307 464.521L606.967 469.306L606.211 489.992L611.533 486.164L615.328 485.391L620.65 487.306L626.728 495.734L632.436 491.906L660.189 491.52L653.339 445.162L660.693 445.128L646.993 434.634L647.01 441.451L629.666 441.468L629.582 454.48L624.596 454.464L623.958 464.068L603.307 464.521Z" fill="#C6C6C6"/>
<path d="M612.071 487.457L605.456 492.259L603.945 494.945L603.475 497.631L605.909 499.378L614.035 499.26L619.257 497.85L619.844 500.419L619.374 503.81L624.361 506.262L625.402 507.437L632.017 507.672L632.252 504.751L626.208 497.497L619.475 488.38L615.294 486.634L612.071 487.457Z" fill="#C6C6C6"/>
<path d="M606.646 500.922L606.428 502.786L618.046 502.618L618.634 500.889L618.382 499.143L615.041 500.503L606.646 500.922Z" fill="#C6C6C6"/>
<path d="M606.479 504.079L608.56 509.133L609.719 506.01L623.839 507.488L617.727 504.348L606.479 504.079Z" fill="#C6C6C6"/>
<path d="M609.518 511.316L611.868 515.967L618.466 510.292L618.534 508.545L610.76 507.42L609.518 511.316Z" fill="#C6C6C6"/>
<path d="M612.574 517.041L617.678 524.899L624.327 519.123L631.143 518.821L636.818 526.36L641.637 529.533L643.45 526.007L645.062 525.101L644.944 517.344L641.738 508.143L631.899 509.234L619.726 508.26L619.659 511.383L612.574 517.041Z" fill="#C6C6C6"/>
<path d="M618.467 525.755L627.953 534.923L634.719 526.712L630.488 520.08L624.662 520.668L618.467 525.755Z" fill="#C6C6C6"/>
<path d="M628.943 535.93L647.378 548.254L646.942 538.919L641.368 532.354L635.928 527.535L628.943 535.93Z" fill="#C6C6C6"/>
<path d="M648.922 548.624L656.108 543.536L665.04 541.975L674.157 543.939L669.506 536.904L668.146 532.606L669.506 519.896L661.363 520.282L657.67 516.756L649.913 516.957L646.219 517.545L646.606 526.142L644.658 526.931L642.324 531.229L648.335 538.264L648.922 548.624Z" fill="#C6C6C6"/>
<path d="M627.752 496.725L632.923 493.182L661.667 493.015L655.018 446.774L662.607 446.556L699.325 474.579L704.262 475.284L702.398 490.865L679.312 492.964L661.499 506.262L658.258 515.362L645.885 515.883L642.728 506.799L633.242 507.471L633.612 504.499L627.752 496.725Z" fill="#C6C6C6"/>
<path d="M680.018 494.106L686.129 493.619L696.152 507.79L686.851 514.808L680.118 513.079L671.069 513.196L669.608 518.502L662.019 518.871L659.938 516.034L662.624 507.404L680.018 494.106Z" fill="#C6C6C6"/>
<path d="M697.31 507.068L701.591 506.967L705.453 501.174L711.934 500.016L718.834 504.23L733.558 504.65L744.942 500.016L749.223 496.339L749.542 491.503L757.483 483.494L759.582 465.814L754.361 454.867L740.996 451.609L710.07 475.72L705.688 475.3L703.808 492.04L688.025 493.619L697.31 507.068Z" fill="#C6C6C6"/>
<path d="M669.523 532.337L671.404 536.753L676.306 544.443L679.026 544.342L686.447 540.128L685.927 516.135L680.185 514.456L672.143 514.674L669.523 532.337Z" fill="#C6C6C6"/>
<path d="M687.79 539.389L692.289 536.753L692.188 519.375L689.267 514.64L687.387 516.218L687.79 539.389Z" fill="#C6C6C6"/>
<path d="M693.649 536.434H697.208L697.41 526.326L701.909 519.795L701.708 508.428L697.628 508.327L690.627 513.801L693.548 519.375L693.649 536.434Z" fill="#C6C6C6"/>
<path d="M698.451 536.233L705.033 536.552L712.974 545.4L716.836 546.458L719.858 544.98L724.458 544.342L726.019 537.929L732.282 533.815L739.065 533.496L751.489 510.644L751.288 505.49L745.546 501.074L734.062 506.128L718.699 505.909L711.379 501.275L706.158 502.434L703.438 507.169L703.236 520.534L698.854 526.746L698.451 536.233Z" fill="#3E1893"/>
<path d="M720.849 381.694L730.134 377.95L733.19 379.931L733.307 382.349L731.88 384.213L732.098 387.521L733.526 388.293V394.237L731.88 396.99L732.098 398.753L738.327 400.953L733.307 408.76L731.343 408.643L731.007 414.922L728.824 415.258L726.961 413.613L727.397 407.232L721.286 401.289L720.514 396.117L723.469 393.8L720.849 381.694Z" fill="#3E1893"/>
<path d="M729.478 416.451L732.098 416.014L732.87 409.97H734.18L739.535 401.171L752.749 405.016L756.358 410.624L769.353 416.568L776.12 413.714L775.465 410.859L772.51 408.005L772.846 406.024L777.647 401.961H787.15L790.76 406.796L798.399 407.904L799.39 469.844L793.715 469.626L759.431 451.794L755.72 453.893L741.634 450.367L737.806 445.313L732.232 444.541L729.395 439.487L729.478 416.451Z" fill="#C6C6C6"/>
<path d="M799.793 408.105L804.276 408.223L813.006 410.641L817.153 410.758L822.291 406.46H824.692L829.057 408.878H834.581L835.571 408.811L839.064 418.851L840.054 422.092L840.978 426.944L839.332 428.153L836.495 426.726L833.221 416.047L830.266 415.829L830.048 419.456L832.012 425.735L847.744 445.212L848.08 453.574L843.496 458.863L800.448 458.376L799.793 408.105Z" fill="#3E1893"/>
<path d="M750.868 496.994L751.087 492.04L759.045 484.3L761.177 465.294L755.872 455.152L759.582 453.255L795.512 471.976L795.293 490.345L788.964 495.734V505.204L793.111 513.23H785.791L773.669 525.218L773.35 528.845L764.401 528.727L764.283 530.373L759.179 529.701L755.687 523.103L753.068 521.81L753.404 519.795L756.694 517.276V505.49L752.144 504.784L746.654 500.704L750.868 496.994Z" fill="#C6C6C6"/>
<path d="M845.382 521.071L840.44 512.771L839.922 506.733L838.735 506.96L838.414 508.819L831.937 518.28L826.769 515.814L821.615 520.133L810.951 519.52L806.232 515.748L799.46 519.215L799.205 521.523L797.139 522.766L817.824 544.056L829.091 544.695L830.734 547.197L846.855 547.483L846.986 543.872L848.363 541.37L853.738 540.681L847.038 530.961H842.103L840.844 524.058L844.805 522.314L845.382 521.071Z" fill="#C6C6C6"/>
<path d="M850.279 454.362L844.084 460.609L800.766 460.222L801.235 471.254L797.107 471.136L796.805 490.999L790.542 496.39L790.289 504.684L794.808 513.6L799.759 516.522L799.684 517.217L806.433 513.761L811.581 517.873L821.048 518.418L826.518 513.836L831.364 516.145L836.821 508.173L837.28 505.526L841.438 504.736L842.084 512.243L846.242 519.228L856.322 497.548V484.368L863.645 475.737L850.279 454.362Z" fill="#3E1893"/>
<path d="M725.734 544.476L731.141 549.446L730.754 557.136L760.405 556.448L762.822 553.728L754.327 544.577L753.068 541.269L758.474 531.145L754.797 524.429L751.708 522.767V519.358L755.284 517.024L755.485 506.413L752.648 506.094L752.598 511.668L740.14 534.923L732.517 535.309L727.296 538.902L725.734 544.476Z" fill="#C6C6C6"/>
<path d="M858.187 494.811L857.768 484.921L864.416 477.164L866.213 478.541L869.487 489.488L885.202 501.191L882.347 504.7L870.847 494.811H858.187Z" fill="#C6C6C6"/>
<path d="M882.984 506.295L882.027 511.937L888.676 511.836L888.777 503.542L886.342 502.047L882.984 506.295Z" fill="#C6C6C6"/>
<path d="M846.064 523.455L858.287 496.255L870.426 496.322L881.188 505.674L880.432 513.381H888.777L889.633 518.015L903.132 526.091L911.459 526.511L895.627 543.52L873.885 550.219H868.495L858.892 542.025L855.097 540.43L847.743 529.6L842.891 529.668L842.32 524.698L846.064 523.455Z" fill="#C6C6C6"/>
<path d="M890.137 512.172L896.987 516.84L899.018 516.739L916.026 510.896L917.957 517.125L916.597 522.381L912.92 525.302L903.736 524.714L890.59 516.638L890.137 512.172Z" fill="#C6C6C6"/>
<path d="M917.386 510.51L924.723 507.689L927.326 509.25L927.04 515.765L920.274 535.04L883.656 574.263L879.408 571.341L879.123 554.786L884.63 548.456L896.315 544.846L913.458 526.746L917.94 522.75L919.2 516.907L917.386 510.51Z" fill="#C6C6C6"/>
<path d="M755.688 544.091L763.512 552.553L766.601 548.557L771.52 548.758L772.578 544.863L777.413 541.841L787.454 548.758L793.246 543.016L815.727 544.007L794.874 522.481L797.678 520.735L798.064 516.941L793.33 514.708H786.379L775.18 525.806L774.794 530.373L765.913 530.087L765.627 532.035L759.835 531.447L754.613 541.371L755.688 544.091Z" fill="#C6C6C6"/>
<path d="M740.123 558.496L739.922 562.677L730.453 562.476L724.66 573.675L738.276 588.568L741.651 585.747L741.55 582.825L739.233 581.751V579.702L744.455 576.395L749.089 579.904L754.21 580.005L754.109 562.392L746 562.005L745.899 558.312L740.123 558.496Z" fill="#C6C6C6"/>
<path d="M731.058 558.597L730.957 560.931L738.579 561.317L738.479 558.681L731.058 558.597Z" fill="#C6C6C6"/>
<path d="M747.862 558.312L747.762 560.746L755.787 560.948L756.072 581.784L748.735 581.583L744.488 578.275L741.197 580.122L741.046 581.046L742.742 581.868L743.228 586.15L738.695 590.045L739.669 592.094L744.689 588.198H747.107L747.879 590.532L751.069 591.892L761.311 583.228L761.109 576.898L763.242 571.744L769.806 566.875L771.569 550.403L766.902 550.42L761.495 557.825L747.862 558.312Z" fill="#C6C6C6"/>
<path d="M740.393 593.084L743.314 596.879L747.092 593.303L745.984 589.592L745.043 589.525L740.393 593.084Z" fill="#C6C6C6"/>
<path d="M745.143 597.248L762.453 596.946L765.962 601.933L765.827 605.61L767.12 606.785H775.716L778.184 601.933H781.693L783.12 603.377L787.939 603.243L789.366 620.167L797.694 620.436V621.745L820.074 631.836L821.115 633.801H825.799L825.279 626.715L816.817 622.652L817.337 617.279L820.981 608.75L829.308 608.481L822.156 584.74L822.29 574.649L833.606 556.952L833.741 554.467L832.045 553.543L832.112 548.741L830.047 548.556L827.965 545.904L793.798 544.359L787.536 550.454L777.278 543.704L773.668 545.92L771.049 567.966L764.568 572.97L762.62 577.402L762.973 583.967L751.288 593.521L748.181 592.111L748.601 593.941L745.143 597.248Z" fill="#C6C6C6"/>
<path d="M826.472 570.703L831.19 575.052L830.988 579.703L823.668 579.854V574.716L826.472 570.703Z" fill="#3E1893"/>
<path d="M823.769 581.298L830.938 581.146L829.074 587.426L827.261 589.004H825.045L823.467 584.756L823.769 581.298Z" fill="#C6C6C6"/>
<path d="M827.277 569.343L832.365 574.111L835.555 572.08L844.184 570.669L845.662 570.821L846.216 567.546L851.085 557.304L846.988 548.775L833.708 548.859L833.624 552.368L835.403 554.081L835.135 557.59L827.277 569.343Z" fill="#C6C6C6"/>
<path d="M848.314 548.238L852.78 556.952L847.424 568.184L846.719 571.593L873.464 588.131L881.758 575.102L877.561 571.694L877.477 554.534L882.732 548.792L874.354 551.579L868.025 551.663L858.119 543.301L854.996 541.958L849.204 542.495L848.179 544.208L848.314 548.238Z" fill="#C6C6C6"/>
<path d="M847.878 623.626L877.209 620.033L870.611 607.272L870.258 595.049L872.39 589.206L844.486 571.677L835.739 573.121L832.7 575.371L832.431 580.492L830.467 587.594L828.419 590.029L825.48 590.297L831.105 609.791L840.289 614.106L846.618 614.291L847.878 623.626Z" fill="#C6C6C6"/>
<path d="M787.402 645.924L792.725 653.312L800.968 653.815L803.89 655.427L812.519 655.528L819.957 645.101L840.743 635.799L842.556 627.606L840.138 615.869L829.292 609.69L822.056 610.194L818.446 618.186L818.547 621.83L827.076 625.977L827.58 634.993L820.243 635.396L818.429 632.357L798.047 623.66L797.443 630.343L787.805 630.645L787.402 645.924Z" fill="#C6C6C6"/>
<path d="M743.867 598.927L749.592 620.302L749.458 627.051L741.08 636.051L739.82 650.675L772.056 650.961L782.533 654.755L791.179 653.63L786.142 647.317L786.159 629.284L796.065 628.865V621.83L788.023 621.494L786.411 604.838L783.02 604.888L781.19 603.243L779.192 603.343L776.539 608.481H766.331L763.964 606.097L764.669 602.722L761.882 598.642L743.867 598.927Z" fill="#C6C6C6"/>
<path d="M842.153 637.025L847.374 642.482L847.274 649.467L848.281 652.405L855.215 644.916L854.409 635.396L850.699 632.559L847.391 615.852L841.666 615.651L844.268 627.69L842.153 637.025Z" fill="#C6C6C6"/>
<path d="M832.096 693.911L836.612 697.655L847.257 691.174L848.969 681.553V665.669L866.044 651.7L868.965 651.8L879.308 641.877L877.696 621.427L850.279 624.886L851.085 631.064L855.802 634.708L856.911 645.84L847.676 654.856L845.46 649.802L845.863 643.12L840.541 637.344L827.479 643.422L839.634 649.601L840.037 667.617L831.995 679.555L832.096 693.911Z" fill="#C6C6C6"/>
<path d="M804.376 658.684L819.437 675.693L830.988 678.631L838.728 666.492L838.123 650.407L825.565 643.926L820.847 646.058L813.812 656.787L804.074 656.686L804.376 658.684Z" fill="#3E1893"/>
<path d="M757.181 708.484L762.805 708.887L766.113 712.228L773.954 712.329L775.868 690.065V675.491L780.888 674.484L782.802 659.205L795.562 658.802L800.078 655.057L792.439 654.755L782.097 656.166L770.948 652.119H739.619L740.425 661.018L750.868 676.398L749.055 684.289L749.156 688.437L757.181 708.484Z" fill="#C6C6C6"/>
<path d="M777.262 690.469L780.871 691.577L780.368 701.903L784.078 702.406L792.607 694.716L802.849 695.825L805.569 688.941L818.53 677.103L802.966 659.188L802.765 656.25L801.052 655.746L796.335 660.095L784.078 660.397L782.366 675.676L777.547 676.784L777.262 690.469Z" fill="#C6C6C6"/>
<path d="M831.592 695.119L827.378 695.824L825.564 700.777L828.788 703.716H832.7L836.007 698.964L831.592 695.119Z" fill="#C6C6C6"/>
<path d="M808.994 714.244L814.115 710.298L816.533 710.399L819.454 714.042L819.152 717.686L814.233 719.499V720.909L808.81 720.607L807.5 716.661L808.994 714.244Z" fill="#C6C6C6"/>
<path d="M820.326 677.708L807.063 689.965L803.906 697.537L793.396 696.228L784.649 704.002L778.84 703.431L779.31 692.685L777.245 691.963L775.801 713.942L765.492 713.841L762.386 710.18L757.836 710.13L761.983 722.034L769.387 729.036L764.098 735.198L767.523 742.922L775.448 745.944L781.761 740.571L799.843 740.672L801.136 739.06L809.161 737.649L836.31 710.617L836.209 702.104L833.305 705.865H828.956L823.667 701.433L826.354 694.75L830.971 693.81L830.551 680.075L820.326 677.708ZM813.963 708.77L816.498 708.669L820.612 713.136L820.494 718.307L815.676 720.742L815.373 722.454L808.02 722.538L805.72 716.997L807.818 712.934L813.963 708.77Z" fill="#C6C6C6"/>
<path d="M462.66 84.0693L460.377 87.7128L464.49 91.8264L462.66 95.94L468.604 103.697L475.907 101.414L485.494 100.507L496.458 112.378L503.761 132.006L497.834 144.33L506.044 142.953L510.611 145.69L511.064 151.634L501.024 152.087L506.498 157.561L513.348 158.937L498.288 179.019L496.458 191.343L499.648 201.383L497.364 207.327L501.478 220.104L509.234 228.785L511.518 228.332L516.538 226.955L516.991 234.259L520.181 238.826L526.108 238.372L530.675 221.481L544.375 204.59L564.925 196.38L577.702 180.395L583.628 183.132H595.952L605.992 173.092L618.316 168.071L619.692 160.314L611.936 153.464L605.085 151.18L601.425 141.593L610.106 136.573L623.806 143.876L628.372 138.856L621.069 134.742L636.599 113.738L633.863 104.604L626.559 104.15L629.296 95.94L638.429 91.8264L657.15 75.3887L651.676 69.4617L630.673 71.2918L619.709 82.2559L626.106 68.1017L618.802 66.2715L614.689 73.5753L608.762 68.555L592.325 70.3852L596.892 63.0814L623.822 62.1747L616.972 53.0408L587.759 47.5671L575.889 49.3973L576.342 55.341L564.018 51.2274L564.472 47.1138L555.792 48.9439L553.962 53.5109L563.095 56.701L553.508 63.5515L546.658 55.7944L537.071 53.0575L535.695 60.3613H526.108L522.448 52.6042L507.387 50.3207L499.177 54.4343L498.724 59.908L488.231 58.5312L481.834 61.268L482.287 67.6651V70.8553L470.417 73.1388L464.944 69.4953L461.284 75.4223L466.757 81.366L478.174 79.9892L479.08 83.6495L470.4 87.7631L462.66 84.0693Z" fill="#C6C6C6"/>
<path d="M499.195 155.293L501.932 159.407L500.555 164.427H497.818L494.158 160.314L495.065 157.124L499.195 155.293Z" fill="#C6C6C6"/>
<path d="M613.328 143.876L621.085 146.16L620.632 152.557L612.422 148.443L610.592 146.16L613.328 143.876Z" fill="#C6C6C6"/>
<path d="M1201.47 718.592L1200.88 761.206L1194.33 766.008L1193.74 770.206L1202.67 776.2L1224.72 772.002H1236.03L1240.2 765.991L1265.21 761.189L1283.08 766.596L1281.89 773.799L1284.27 781.002L1297.97 778.601L1298.56 782.194L1289.63 788.792L1292.6 791.193L1299.15 788.792L1297.37 808.605L1309.87 818.209L1317.03 815.808L1320.6 819.401L1341.46 816.396L1361.12 784.578L1368.27 782.781L1382.56 756.37L1386.13 733.569L1377.2 722.168L1380.78 719.767L1373.62 697.554L1365.88 692.147L1367.08 662.143L1359.92 656.737L1358.14 639.929H1354.57L1342.65 679.538L1336.1 680.142L1321.21 665.132L1329.55 642.918L1314.07 639.913L1296.8 644.715L1292.03 658.516L1284.29 660.313L1283.7 650.709L1252.14 669.917L1252.72 677.12L1247.96 683.719H1236.03L1210.41 694.515L1201.47 718.592Z" fill="#C6C6C6"/>
<path d="M1309.87 833.236L1306.9 845.241L1307.49 853.637L1316.42 853.032L1326.55 837.434L1309.87 833.236Z" fill="#C6C6C6"/>
<path d="M1438.55 852.445L1443.32 861.444L1430.2 874.054L1429.01 880.653L1420.08 881.845L1405.19 895.646L1391.49 889.048L1390.29 884.246L1415.31 873.45L1438.55 852.445Z" fill="#C6C6C6"/>
<path d="M1232.69 536.031L1227.86 541.891L1231.82 543.134L1234.05 540.011L1232.69 536.031Z" fill="#C6C6C6"/>
<path d="M1401.78 585.982L1400.3 588.081L1408.38 595.234L1409.49 599.431L1411.69 599.18L1411.94 594.865L1409.49 592.648L1401.78 585.982Z" fill="#C6C6C6"/>
<path d="M1405.83 596.107L1404.23 596.476L1403.26 600.791L1400.2 602.773L1391.02 604.385L1391.39 607.843L1401.06 607.356L1407.19 603.528L1406.82 596.863L1405.83 596.107Z" fill="#C6C6C6"/>
<path d="M1416.72 603.629L1418.8 609.421L1422.48 612.998L1423.59 612.007L1423.22 608.179L1419.06 603.125L1416.72 603.629Z" fill="#C6C6C6"/>
<path d="M1426.88 612.259L1427.13 616.087L1429.46 618.304L1431.66 616.944L1429.7 612.864L1426.88 612.259Z" fill="#C6C6C6"/>
<path d="M1429.82 621.763L1427.85 623.861L1429.94 627.69L1432.39 628.428L1432.27 625.843L1429.82 621.763Z" fill="#C6C6C6"/>
<path d="M1434.6 619.546L1436.32 623.743L1439.62 627.689L1441.45 624.734L1439 620.537L1434.6 619.546Z" fill="#C6C6C6"/>
<path d="M1439.62 644.833L1436.69 646.193L1439.25 649.769L1441.45 648.526L1439.62 644.833Z" fill="#C6C6C6"/>
<path d="M1248.81 499.562L1247.37 502.316L1246.56 505.708L1238.54 515.9L1239.02 517.998L1242.4 517.511L1252.82 505.859L1248.81 499.562Z" fill="#C6C6C6"/>
<path d="M1261.81 495.684L1261.64 504.096L1264.69 507.169L1265.82 513.146L1268.87 513.801L1270.32 510.073L1267.92 508.294L1267.28 497.783L1261.81 495.684Z" fill="#C6C6C6"/>
<path d="M1270.49 498.924L1270.32 506.362L1272.08 509.267L1275.14 505.708L1274.33 499.243L1270.49 498.924Z" fill="#C6C6C6"/>
<path d="M1272.4 492.443L1275.46 496.49L1276.9 500.368H1279.64L1279.15 493.736L1276.09 491.637L1272.4 492.443Z" fill="#C6C6C6"/>
<path d="M1278.34 507.655L1278.98 512.508L1273.36 517.041L1268.71 517.528L1263.74 522.867L1263.9 525.302L1268.55 523.841L1271.76 521.742L1274.5 528.694L1279.32 532.085L1281.25 531.43L1283.01 529.332L1279.17 525.453L1281.42 523.673L1283.98 525.772L1285.75 522.867L1283.98 519.308L1283.67 511.383L1278.34 507.655Z" fill="#C6C6C6"/>
<path d="M1252.19 458.325L1247.85 461.398L1247.37 471.103L1254.12 484.199L1256.37 485.979L1259.25 484.031L1264.22 484.837L1265.18 489.203L1268.87 489.522L1270.64 487.104L1268.39 484.031L1265.65 481.445L1259.88 480.807L1256.82 475.787L1260.35 470.448L1260.66 465.763L1258.26 459.786L1252.19 458.325Z" fill="#C6C6C6"/>
<path d="M1254.44 487.272L1255.71 491.805L1257.96 493.266L1259.57 491.167L1257 487.608L1254.44 487.272Z" fill="#C6C6C6"/>
<path d="M1199.22 453.624L1195.2 454.749L1192.31 458.308L1194.72 462.993L1198.24 463.312L1202.25 459.752L1203.21 455.068L1199.22 453.624Z" fill="#C6C6C6"/>
<path d="M1245.6 416.92L1239.66 421.454L1239.34 430.185L1244.48 436.162L1245.76 435.037L1245.6 416.92Z" fill="#3E1893"/>
<path d="M1291.68 276.688L1294.24 274.421L1297.64 278.921L1302.29 281.993L1306.79 282.967L1308.87 280.381L1311.27 278.77L1312.71 281.036L1315.77 286.208L1312.07 287.182L1305.49 292.521L1305.32 297.86L1302.92 295.274L1299.87 294.788L1296.98 298.515L1301.63 302.713L1300.83 304.979L1296.49 306.44L1289.91 297.39L1292.16 292.37L1295.05 291.245L1295.22 283.807L1292.97 281.54L1291.68 276.688Z" fill="#3E1893"/>
<path d="M1280.43 347.526L1272.23 356.912L1273.68 359.179L1277.69 359.666L1285.23 353.839L1290.53 352.866L1295.35 358.524L1299.05 357.231L1300.49 351.724L1307.39 351.556L1314.14 343.463L1310.61 330.031L1309 322.912L1312.53 320.007L1304.5 307.884L1302.42 308.052L1298.09 312.905V316.951L1300.02 319.218L1300.66 329.896L1295.69 336.042L1292.8 334.262L1290.55 339.282L1290.06 343.967L1291.83 346.72L1290.7 348.819L1287.01 345.746H1284.44L1282.19 347.039L1280.43 347.526Z" fill="#3E1893"/>
<path d="M1282.21 362.251L1286.86 357.886L1288.94 358.054L1289.42 363.393L1283.16 368.732L1282.04 367.272L1282.21 362.251Z" fill="#3E1893"/>
<path d="M1269.34 366.13L1272.08 363.376L1277.05 366.13L1281.23 372.107L1279.79 377.614L1276.41 380.687L1274.48 378.588L1272.87 370.176L1270.47 370.008L1269.34 366.13Z" fill="#3E1893"/>
<path d="M55.2811 5.57422L48.75 11.5012L50.7144 15.8835L54.2066 13.4657L56.1709 15.6652L62.6853 13.2642L62.467 9.53673L55.2811 5.57422Z" fill="#C6C6C6"/>
<path d="M917.941 626.145L914.364 634.64L908.236 645.453L897.508 646.226L892.908 651.632L893.68 668.12L887.031 675.844L887.804 688.974L893.428 695.405L900.077 694.632L906.725 689.73L905.197 682.006L920.526 655.477L917.454 652.136L920.526 645.705L923.851 646.729L924.875 644.161L921.802 631.031L920.006 625.624L917.941 626.145Z" fill="#C6C6C6"/>
<path d="M549.143 364.384L546.859 366.684L550.956 368.984L551.409 365.777L549.143 364.384Z" fill="#C6C6C6"/>
<path d="M561.45 363.007L558.713 364.837L560.996 366.667L564.64 365.744L561.45 363.007Z" fill="#C6C6C6"/>
<path d="M563.262 369.438L561.902 373.115L563.716 375.415L565.999 373.585L563.262 369.438Z" fill="#C6C6C6"/>
<path d="M574.194 376.775L573.287 379.075L574.647 380.452L578.29 378.152L574.194 376.775Z" fill="#C6C6C6"/>
<path d="M608.813 396.957L607 399.257L608.813 401.558L611.55 400.181L608.813 396.957Z" fill="#C6C6C6"/>
<path d="M621.303 426.021L618.365 427.717L619.725 429.094L621.303 426.021Z" fill="#C6C6C6"/>
<path d="M611.096 426.34L607.453 427.263L609.266 430.017H612.003L611.096 426.34Z" fill="#C6C6C6"/>
<path d="M602.432 423.586L600.148 425.887L603.338 428.64L605.152 424.51L602.432 423.586Z" fill="#C6C6C6"/>
<path d="M387.897 475.787L385.379 476.828L386.269 479.061L389.224 477.13L388.636 476.526L387.897 475.787Z" fill="#C6C6C6"/>
<path d="M392.044 478.323L390.566 481.463L392.346 483.847L394.562 481.916L392.044 478.323Z" fill="#C6C6C6"/>
<path d="M397.08 486.97L395.301 488.615L396.627 491.302L399.146 490.563L397.08 486.97Z" fill="#C6C6C6"/>
<path d="M396.93 493.686L395.738 496.221L397.669 498.303L400.188 496.96L396.93 493.686Z" fill="#C6C6C6"/>
<path d="M397.081 500.1L395.016 501.594L396.644 504.583L399.314 503.088L397.081 500.1Z" fill="#C6C6C6"/>
<path d="M394.562 505.909L392.631 507.84L393.37 509.032H395.737L396.476 507.085L394.562 505.909Z" fill="#C6C6C6"/>
<path d="M397.367 511.735L395.587 513.381L393.656 513.683V516.067L397.216 519.341L398.693 516.957L399.583 514.271L399.281 512.038L397.367 511.735Z" fill="#C6C6C6"/>
<path d="M378.578 471.909L374.145 470.415L370.586 472.648L372.366 474.73L378.427 475.62L378.578 471.909Z" fill="#C6C6C6"/>
<path d="M344.698 462.372L341.894 465.243L345.101 466.553L345.571 470.566L338.469 471.187L339.191 475.049L341.256 475.2L342.448 473.42L350.742 473.689L352.236 476.56L354.15 474.31L359.741 472.799L364.66 473.84L365.231 470.868L356.366 465.075L350.624 462.926L344.698 462.372Z" fill="#C6C6C6"/>
<path d="M365.247 470.868L356.366 465.059L352.168 463.631L350.758 473.706L352.235 476.543L354.166 474.31L359.791 472.816L364.676 473.857L365.247 470.868Z" fill="#C6C6C6"/>
<path d="M344.681 462.372L350.456 462.976L349.768 470.062L349.197 473.789L342.465 473.42L341.273 475.217L339.207 475.066L338.469 471.187L345.571 470.599L345.134 466.57L341.877 465.226L344.681 462.372Z" fill="#C6C6C6"/>
<path d="M440.531 853.251L436.116 852.764L431.717 855.719L434.907 859.178L440.531 853.251Z" fill="#C6C6C6"/>
<path d="M444.931 851.034L443.47 855.719L439.307 859.413L439.558 860.638L446.66 857.918L449.599 854.224L444.931 851.034Z" fill="#C6C6C6"/>
<path d="M605.757 196.967L602.466 195.104L598.034 197.908L594.223 201.433L594.323 203.398L599.259 204.019L598.957 207.545L597.211 209.308L597.631 210.45L602.567 210.769V216.478L609.669 217.72L613.883 220.104L618.618 220.306L626.744 216.259L633.023 207.965L633.124 202.357L629.313 199.133L626.123 196.43L624.679 197.471L622.513 200.275L620.045 199.956L617.577 197.253L614.387 197.555L609.753 201.4L606.966 204.405L605.421 203.062L605.321 199.738L606.865 198.697L605.757 196.967Z" fill="#C6C6C6"/>
<path d="M1066.09 517.226L1066.51 521.793L1066.93 525.117L1064.46 525.537L1065.71 533.009L1069.42 535.091L1075.17 531.766L1073.53 523.892L1073.95 520.987L1068.59 516.017L1066.09 517.226Z" fill="#C6C6C6"/>
<path d="M294.295 448.167V450.299L303.227 450.467L307.441 448.016L308.096 449.812L316.86 451.945L324.65 458.98L322.871 461.431L323.19 464.219L329.687 465.847L336.185 462.909L339.106 459.971L334.892 457.838L313.149 445.078L305.527 444.255L294.295 448.167Z" fill="#C6C6C6"/>
<path d="M325.793 435.087L323.678 434.433L323.51 438.513L326.112 441.132L327.892 438.513L325.793 435.087Z" fill="#C6C6C6"/>
<path d="M330.007 441.468L327.086 443.096L329.839 447.025L331.3 445.061L330.007 441.468Z" fill="#C6C6C6"/>
<path d="M339.425 444.406L336.336 444.238L336.655 446.203L338.922 449.477L340.869 447.345L339.425 444.406Z" fill="#C6C6C6"/>
<path d="M337.966 440.494L332.929 438.362L331.955 433.291L333.903 432.468L335.85 436.397L337.798 437.875L337.966 440.494Z" fill="#C6C6C6"/>
<path d="M333.097 430.185L330.494 429.53L330.007 426.256L327.254 425.282L329.034 423.485L332.274 424.627L334.708 426.105L333.097 430.185Z" fill="#C6C6C6"/>
<path d="M324.651 469.44L318.809 470.918V472.547L322.217 474.511H325.793L328.06 471.892L324.651 469.44Z" fill="#C6C6C6"/>
<path fill-rule="evenodd" clip-rule="evenodd" d="M1136.51 533.21L1136.04 537.039L1147.44 556.196H1150.76L1174.52 595.939L1184.02 596.896L1188.77 583.011L1181.17 578.225L1179.74 570.569L1136.51 533.21ZM1249.08 586.167L1252.87 590.818L1250.41 597.803V599.129H1256.01L1258 581.667L1259.81 582.171L1263.1 598.122L1266.24 598.961L1269.21 592.144L1266.24 581.835L1263.77 577.352L1271.53 571.694L1269.71 569.192L1262.29 574.011H1260.31L1256.69 568.688L1257.84 566.354L1263.96 563.366L1273.19 566.187L1275.99 566.019L1282.93 559.538L1280.12 556.717L1273.69 561.704H1269.56L1263.3 558.715L1258.85 558.883L1253.9 566.858L1250.76 580.66L1249.08 586.167ZM1287.34 562.56L1290.48 554.92L1291.96 559.739L1295.1 560.897L1297.25 563.231L1296.09 564.725L1293.94 569.041H1292.29L1287.34 562.56ZM1300.22 580.021L1293.45 581.516L1291.47 583.682L1293.12 586.503L1297.57 584.84L1300.37 583.178L1304.5 586.503L1306.31 585.008L1303.02 581.012L1300.22 580.021ZM1183.42 604.787L1188.03 601.631L1203.88 604.955L1217.58 608.28L1222.85 612.763L1228.97 615.584L1225.66 618.572L1222.03 619.412L1218.07 616.087L1209.66 615.416L1206.52 612.091L1199.1 610.765L1184.41 607.44L1183.42 604.787ZM1236.05 616.087L1232.42 618.085L1234.57 620.419L1239.84 618.421L1236.05 616.087ZM1242.97 617.75L1242.31 614.593L1246.59 614.408L1248.24 616.91L1246.76 618.74L1242.97 617.75ZM1251.4 622.904L1246.78 623.576L1250.91 627.068H1254.2L1251.4 622.904ZM1251.71 619.412L1252.71 617.414L1254.37 616.087L1256.35 617.75L1261.62 616.255L1264.91 617.246L1259.14 620.57L1251.71 619.412ZM1276.97 618.589L1268.39 625.742L1269.21 627.572L1272.84 626.9L1277.12 622.904L1285.53 621.745L1283.88 618.925L1276.97 618.589ZM1313.27 570.552L1320.27 569.763L1323.54 570.25L1323.69 582.154L1329.6 585.915L1333.18 583.715L1343.13 576.983L1353.69 584.337L1353.07 625.842L1350.27 625.993L1344.06 619.261L1343.59 607.507L1325.4 592.463L1323.84 584.639H1320.12L1318.1 592.631L1315.77 592.48L1313.43 584.337L1318.25 580.425V579.014L1310.63 577.604L1308.77 573.843L1313.27 570.552Z" fill="#3E1893"/>
<path d="M79.826 75.3719L65.7396 78.7132L68.6442 94.5801L83.973 98.7609L84.7956 102.102L62.0123 109.204L49.1684 130.495L53.7183 153.044L61.1728 158.047L66.982 152.624L68.6442 155.965L61.5926 164.31L34.2425 176.836L16.8318 181.017L16.4121 187.279L56.6061 175.593L73.1773 170.993L88.5061 152.204L105.497 140.938L96.8001 155.546L106.337 156.805L122.505 149.703L125.409 161.389L136.591 163.891L148.193 175.157L149.015 183.502L147.353 185.584L149.418 193.509H152.323L152.743 180.144H156.05L156.873 213.12L165.167 206.017L159.358 171.782H150.661L141.124 159.676L187.95 80.3419L141.544 44.0244L89.7485 54.0482L87.6834 69.9151L98.8652 76.5976L94.7182 87.461L79.826 75.3719Z" fill="#C6C6C6"/>
<path d="M265.552 60.2606L265.921 67.0103L252.523 80.8959L255.881 92.1455L265.552 89.5262L271.143 81.2653L285.28 76.01L296.814 75.2544L287.882 65.4992L283.416 68.8741L280.058 67.7491L278.195 63.6187L274.098 59.4883L265.552 60.2606Z" fill="#C6C6C6"/>
<path d="M283.046 40.3807L280.074 45.6361L294.597 50.8915L299.802 43.0168L302.035 48.2722H305.762L312.83 40.3975L304.268 38.1476L300.91 35.5283L296.444 40.0281L283.046 40.3807Z" fill="#C6C6C6"/>
<path d="M308.364 50.8916L296.83 55.7608V59.505L311.722 65.1298L308.364 68.874L310.597 73.7432L319.899 69.6128H327.723L331.45 75.607L337.78 69.2266L336.285 63.2157L331.081 65.0962L330.342 57.5909L332.944 53.0911H330.342L326.245 55.7104L324.382 57.2048L325.507 62.4601L322.535 64.71L318.069 64.3406L316.944 57.5909L308.364 50.8916Z" fill="#C6C6C6"/>
<path d="M323.627 39.2559L322.502 43.0001L329.57 46.375L334.775 43.3695L334.406 41.1196L323.627 39.2559Z" fill="#C6C6C6"/>
<path d="M329.201 32.8755L323.996 34.756L324.365 37.3753L335.9 36.6197L335.53 34.0004L329.201 32.8755Z" fill="#C6C6C6"/>
<path d="M354.149 39.256L353.411 41.8753L351.547 44.4946V48.2388L358.615 47.1139L366.053 53.4942H368.655V47.1139L361.218 38.853L354.149 39.256Z" fill="#C6C6C6"/>
<path d="M373.139 46.7609L376.11 50.1358L373.508 54.6356L375.372 59.5048L383.565 55.005V51.6301L378.73 46.0054L373.139 46.7609Z" fill="#C6C6C6"/>
<path d="M383.934 38.1308L384.303 44.125H394.36L396.962 46.3749L396.593 48.9942L387.661 50.1191L393.991 58.7494L402.553 60.2437L414.457 54.9883L397.332 29.0977L392.127 32.4725L392.496 36.9723L386.536 34.7224L383.934 38.1308Z" fill="#C6C6C6"/>
<path d="M297.199 80.5264L283.063 84.2706L274.869 91.4065L275.608 99.2812L290.5 103.781L287.142 111.286L276.347 104.537L273.375 110.161L280.443 115.03L280.074 122.905L290.87 125.911L303.898 125.155L306.131 121.025L315.802 131.905L322.501 129.655L323.626 122.15L328.461 125.524L329.2 118.019L323.24 114.275L323.609 90.6509L318.404 86.5205L312.83 94.0258L297.199 80.5264Z" fill="#C6C6C6"/>
<path d="M342.615 97.0312L337.78 94.7813L335.178 98.1561L340.382 106.417L340.752 114.292L351.917 107.542V97.7868L356.013 93.6563L351.917 90.6509H345.218L342.615 97.0312Z" fill="#C6C6C6"/>
<path d="M366.439 93.6562L358.615 100.037L360.479 107.911H365.314L367.547 103.781L370.905 107.156L374.263 106.786L383.195 99.281L366.439 93.6562Z" fill="#C6C6C6"/>
<path d="M365.684 81.2651L363.82 85.0094L372.014 88.0148L374.247 84.64L365.684 81.2651Z" fill="#C6C6C6"/>
<path d="M360.849 67.0103L352.656 68.1352L347.82 72.635L356.752 73.0044L354.15 79.7541L356.014 82.7596L358.616 82.3902L364.946 72.2656L360.849 67.0103Z" fill="#C6C6C6"/>
<path d="M375.003 64.3911L370.537 65.8855L371.276 71.8796L378.714 76.7488L379.083 80.493L376.85 82.7429L377.975 90.2482L406.634 99.6172L414.458 102.237L422.282 95.4868L412.981 87.9815L404.418 90.2314L392.515 89.1065L388.049 84.6067L386.924 72.2322L379.486 68.488L375.003 64.3911Z" fill="#C6C6C6"/>
<path d="M398.44 103.412L390.247 102.656L380.576 106.4L375.371 113.52L376.865 133.03L392.866 133.786L408.127 141.291L418.923 153.665L427.116 153.296L424.883 164.915L417.446 177.289L409.252 181.033L403.292 179.909L400.32 177.289L395.854 183.283L397.718 189.278L404.047 189.647L411.871 185.903L418.57 203.163L435.326 214.043L446.861 199.419L437.19 183.67L442.781 177.289L450.605 190.419L464.741 178.045L462.139 172.42L452.468 175.426L445.769 157.04L452.099 146.546L439.44 133.047L432.371 137.916L425.672 123.292L411.536 125.172L407.808 107.542L396.274 115.417L395.149 125.172H388.819L389.558 116.542L398.44 103.412Z" fill="#C6C6C6"/>
<path d="M415.196 110.161L412.225 113.167L414.827 117.297L427.117 118.791L419.293 110.531L415.196 110.161Z" fill="#C6C6C6"/>
<path d="M403.293 67.7658V71.1406L395.1 73.0211L397.333 76.7654L406.634 80.5096L417.06 81.6346L424.498 86.89L431.936 82.7595L426.731 77.5042H433.43L437.527 73.0044L447.583 71.51V69.2601L441.993 65.5159L442.731 61.3855L458.362 64.0047L481.448 55.0051L472.885 52.3858L475.118 49.3804H492.982L495.954 46.3749L459.84 33.6143L451.277 30.6088L441.976 37.3585L431.55 28.7283L425.959 28.3589L424.834 35.4948L417.765 29.1145L409.572 31.7337L411.066 35.8642L423.356 38.4835L422.618 44.4776L429.317 48.608L445.703 44.4776L446.072 50.1024L432.674 56.4827L424.481 50.1024L417.043 50.8579L424.481 61.3687L420.754 63.2492L415.163 58.38L411.066 60.9993L414.794 68.1184H421.123L419.629 74.8681L414.424 74.1125L407.725 66.9766L403.293 67.7658Z" fill="#C6C6C6"/>
<path d="M370.117 171.009L363.015 179.942L362.578 189.781L368.79 186.205H376.329L381.651 191.124L386.537 187.094L370.117 171.009Z" fill="#C6C6C6"/>
<path d="M456.6 287.198L438.854 304.19L440.633 308.22L462.359 316.262L465.465 310.906L463.685 301.974L456.583 302.864L452.587 298.397L459.236 291.698L456.6 287.198Z" fill="#C6C6C6"/>
<path d="M189.143 81.7017L192.484 86.7555L194.163 93.5053L202.524 95.604L208.384 89.2909L213.404 91.8262L227.625 93.0855L237.665 88.8711L239.344 102.774H245.203V96.8801L251.063 97.2999L265.703 114.577L275.323 120.471L270.303 128.479L272.402 130.578L291.189 134.373L291.609 142.802L296.629 143.641L297.888 130.998L305.83 128.899L311.689 137.748L324.231 143.641L330.51 144.9L334.691 139.847L335.111 131.838L342.632 127.203L345.134 133.953L338.435 145.757L339.275 151.65L343.035 145.757L350.557 139.007L350.977 130.159L346.796 123.409L348.055 117.935L358.096 112.881L362.696 116.256L363.535 145.757L370.637 139.444L374.818 141.979L368.958 152.087L376.48 153.766L387.36 136.908L396.56 146.596L392.799 163.873L383.599 168.927L374.818 164.713L358.935 168.088L360.614 173.562L356.433 180.311L343.472 183.266L328.831 194.65L315.87 211.927L314.191 217.401L322.972 220.776L326.313 229.205L338.435 241.428L357.676 249.857L353.495 269.233L353.075 274.706L358.096 278.081L364.795 269.233L365.634 252.375L376.094 251.956L381.114 242.267L381.953 227.526L395.335 201.4L412.057 207.293L420.838 219.517L417.077 231.74L423.776 235.535L440.078 224.571L444.679 254.491L459.739 272.608L460.159 281.876L443.436 286.09L435.495 294.519L418.773 290.724L410.412 290.305L395.771 301.688L404.552 299.59L415.432 297.491L417.53 300.026L414.609 309.294L415.029 317.723L420.049 321.098L425.069 319.839L427.587 316.044H430.928L425.488 326.152L415.029 326.572L410.428 333.321H404.569L402.89 328.268L411.251 319.839L401.211 323.214L400.758 308.892L397.87 307.212L389.089 311.007L388.249 318.177H368.169L351.027 329.98L328.026 337.569L325.524 334.195L337.109 316.9L330.527 310.571L326.347 302.545L317.834 296.047L308.701 295.291L292.331 283.824L173.613 264.313L171.648 256.271L160.769 246.163V237.734L162.448 230.145L161.608 225.931L157.428 221.716L156.588 214.966L167.468 207.377L160.769 171.144L151.568 170.724L143.207 159.76L189.143 81.7017Z" fill="#C6C6C6"/>
<path d="M173.26 265.858L171.581 272.608L165.721 268.813H162.8L161.121 275.982L140.621 321.921L146.061 361.949L152.76 365.324L154.019 376.288H167.82L181.201 386.396L207.544 388.931L210.465 402.414L214.646 405.369L220.505 399.475L225.106 401.574L229.286 420.95L236.388 425.584L242.248 414.62L260.229 401.557L271.932 407.031L281.972 407.87L282.391 401.557L303.294 401.977L307.475 406.611L308.314 417.139L305.813 423.032L308.734 433.14H315.013L321.293 423.452L318.791 418.818L316.289 408.71L320.05 397.326L337.192 382.584L350.154 378.79L348.475 366.566L366.456 347.173L384.438 344.218L381.516 334.127L399.078 324.02V310.537L397.399 309.697L391.12 311.796L390.281 320.057L369.411 320.309L353.058 331.172L327.387 339.567L323.291 334.547L334.942 316.917L329.184 311.427L325.272 303.972L317.162 297.457L308.348 296.719L291.693 285.351L173.26 265.858Z" fill="#C6C6C6"/>
<path d="M148.194 215.604L145.34 221.078L146.33 224.957L148.194 226.115L147.758 227.694L145.76 228.264L146.33 234.023L148.479 236.189L150.192 234.326L148.043 228.718L149.319 224.251L152.459 220.071L150.175 216.192L148.194 215.604Z" fill="#C6C6C6"/>
<path d="M157.629 248.413L155.061 249.42L159.778 254.894L160.92 261.375L165.638 266.412L169.634 265.69V259.074L164.782 256.052L157.629 248.413Z" fill="#C6C6C6"/>
<path d="M250.693 489.472L260.65 496.759L270.69 484.283L268.977 481.698L265.552 481.58V474.276L262.983 472.715L255.21 475.032L258.181 481.882L250.693 489.472Z" fill="#3E1893"/>
<path d="M271.965 484.871L287.479 484.283L292.079 489.757L289.208 489.102L283.684 489.337L276.465 496.12L273.376 502.988L271.344 501.913L271.327 494.391L266.861 491.402L271.965 484.871Z" fill="#C6C6C6"/>
<path d="M262.061 497.447L269.952 501.376L269.834 495.146L265.788 492.678L262.061 497.447Z" fill="#C6C6C6"/>
<path d="M289.074 490.462L292.751 491.201L292.869 498.74L288.588 510.963L277.053 509.821L274.484 503.928L277.909 496.775L284.407 490.731L289.074 490.462Z" fill="#C6C6C6"/>
<path d="M288.47 512.071L290.804 516.638L292.701 519.157L290.149 526.729L285.28 523.304L277.322 516.017V511.198L288.47 512.071Z" fill="#C6C6C6"/>
<path d="M293.859 519.845L291.408 527.502L299.501 529.6L304.521 530.591L305.377 524.664L310.766 521.944L315.551 524.412L317.432 527.418L319.715 527.149L321.512 521.692L315.535 519.224L311.002 516.756L306.468 519.845L301.079 522.565L295.572 520.349L293.859 519.845Z" fill="#C6C6C6"/>
<path d="M349.499 503.34L346.04 502.988L323.173 521.843L320.755 528.475L317.632 528.828L319.026 543.486L311.051 563.047L319.714 570.384L330.812 571.089L338.434 582.272L349.515 582.624L349.163 591.003H353.31L357.809 575.639L353.646 570.401L354.687 560.629L363.35 559.924L362.309 537.223L342.9 530.944L338.401 518.72L349.499 503.34Z" fill="#C6C6C6"/>
<path d="M344.01 513.65L344.748 517.998L350.205 519.728L351.447 511.719L357.206 505.758L362.965 512.508L376.212 516.118L387.427 513.767L395.066 523.187L400.825 526.797L394.512 536.417L396.628 543.704L393.018 548.171L389.274 551.31L381.165 547.23L379.301 549.111V554.92L385.228 557.741L380.863 562.459L376.497 567.177L370.739 566.707L364.946 560.344L363.721 536.401L343.943 529.651L340.35 519.123L344.01 513.65Z" fill="#C6C6C6"/>
<path d="M402.085 527.435L414.207 538.415L409.388 543.99L409.002 547.297L415.332 553.829L415.181 560.109L404.167 564.306L397.569 555.39L398.979 544.678L396.158 536.703L402.085 527.435Z" fill="#C6C6C6"/>
<path d="M415.651 539.204L419.076 542.344L424.381 539.053L429.216 539.204L428.595 541.085L426.564 545.316L426.245 555.844L416.591 559.773L417.061 553.023L410.832 547.213L411.151 544.225L415.651 539.204Z" fill="#C6C6C6"/>
<path d="M430.761 540.312L440.583 546.441L435.445 556.65L433.582 559L428.125 555.86L428.276 544.863L430.761 540.312Z" fill="#C6C6C6"/>
<path d="M309.994 563.903L302.053 568.839L301.482 576.16L299.887 578.561L304.89 583.363L302.724 585.73L303.228 591.775L312.177 593.907L325.726 577.872L325.692 572.281L319.195 571.861L309.994 563.903Z" fill="#3E1893"/>
<path d="M301.314 586.855L298.057 590.146L298.275 595.402L326.716 647.25L356.249 666.291L360.816 658.634L361.907 641.793L359.523 631.299L351.481 617.733L346.696 619.261L344.53 621.662L334.977 610.715L337.361 597.803L348.442 590.583L347.569 583.8L336.286 583.363L330.427 573.524L327.17 572.433L327.388 578.343L312.848 595.62L301.985 593.001L301.314 586.855Z" fill="#C6C6C6"/>
<path d="M357.861 625.927L371.679 619.899L376.246 620.335L379.285 633.029L400.339 640.031L403.814 650.759L412.494 651.851L416.188 661.035L413.586 669.346L399.466 670.438L394.261 683.786L383.18 683.568L379.704 682.913L373.308 689.125L370.151 688.823L359.288 663.655L362.294 659.155L363.352 641.357L360.665 630.762L357.861 625.927Z" fill="#C6C6C6"/>
<path d="M413.35 670.79L417.044 674.82L416.607 683.349L427.252 682.694L435.294 692.987L434.639 702.171L429.434 710.046L418.79 710.482L418.353 706.1L421.392 698.88L410.966 692.315H402.286L395.771 685.314L400.506 671.781L413.35 670.79Z" fill="#C6C6C6"/>
<path d="M427.789 725.225L424.348 728.902L425.775 748.681L436.587 751.82L450.338 738.036L427.789 725.225Z" fill="#C6C6C6"/>
<path d="M436.368 702.171L439.625 705.227L427.251 723.612L422.902 728.431L424.413 749.436L433.967 761.038L425.941 775.041L419.863 777.661H412.913L414.86 788.591L403.997 792.319L406.6 801.503L400.085 822.289L408.128 828.854L403.779 839.566L396.392 851.169L400.304 859.262L390.75 860.789L382.927 851.169L381.617 821.198L369.461 770.29L373.138 752.492L365.314 729.741L370.519 700.207L375.304 694.515L374.129 690.2L380.274 684.592L393.974 685.532L401.63 693.709L410.478 693.86L419.544 699.401L416.875 705.647L417.513 711.96L430.357 711.356L436.368 702.171Z" fill="#C6C6C6"/>
<path d="M402.068 863.19L394.898 878.94L407.272 880.249L407.491 869.756L402.068 863.19Z" fill="#C6C6C6"/>
<path d="M408.582 871.065L409.019 880.686L416.406 880.031L422.702 875.867L412.057 873.684L408.582 871.065Z" fill="#C6C6C6"/>
<path d="M399.633 860.722L394.244 866.683L393.589 873.684L383.163 867.774L372.082 851.806L368.824 846.115L373.391 840.204L372.955 832.766L367.75 830.583L363.62 827.528L364.493 823.364L369.916 821.836L371.007 797.775L362.545 792.956L357.021 667.717L358.449 665.232L369.261 690.166L372.72 690.233L373.845 694.212L369.244 699.787L363.956 729.791L371.477 752.895L368.002 770.39L380.258 821.836L381.551 851.924L390.332 862.082L399.633 860.722Z" fill="#C6C6C6"/>
<path d="M363.853 797.775L361.688 801.049L362.779 806.741L364.945 806.96L366.036 799.74L363.853 797.775Z" fill="#C6C6C6"/>
<path d="M451.092 736.843L461.585 716.661L461.972 699.703L481.548 687.077H492.512L501.125 672.486L502.686 644.48L499.16 636.991L519.912 618.052L520.701 597.148L492.512 583.346L458.463 572.701L442.412 571.123L446.727 562.056L445.551 548.255L442.043 547.096L436.855 557.405L434.135 560.814L427.15 557.724L403.662 566.002L395.838 556.146L397.097 545.854L389.71 553.376L381.55 548.976L380.727 550.135L380.744 553.711L387.779 557.489L377.218 568.621L370.553 568.554L363.804 561.687L356.164 561.922L355.224 570.082L359.606 575.404L354.435 591.977L348.391 592.447L338.77 598.525L336.42 610.463L344.764 619.395L346.292 617.666L352.152 616.087L357.155 624.516L371.476 618.371L377.034 618.69L380.862 632.24L401.294 638.721L404.82 649.534L413.517 650.575L417.664 660.901L414.86 670.085L418.52 674.887L417.983 682.04L427.788 681.116L436.771 692.467L436.065 700.442L441.388 704.942L428.628 724.267L451.092 736.843Z" fill="#C6C6C6"/>
<path d="M266.945 474.159L266.861 480.287H268.272L273.073 471.321H269.816L266.945 474.159Z" fill="#C6C6C6"/>
<path d="M1296.83 122.452L1299.78 132.66L1305.69 134.356L1311.6 125.004L1308.23 118.624L1309.49 113.1H1318.35L1316.24 117.348L1317.08 132.66L1304.42 164.126L1305.68 170.926L1305.26 182.41L1328.88 216.847L1333.51 218.123L1333.93 190.067L1338.57 185.819L1333.5 174.771L1337.71 170.086L1328.43 157.762L1323.36 158.182L1321.68 137.782L1334.76 134.373L1335.59 128.413L1342.34 126.717L1346.14 130.125L1350.77 111.421L1358.78 97.8206L1365.11 94.4121L1370.6 94.8319V88.4516L1361.74 86.7557L1349.5 76.5472L1355.41 69.7471L1350.34 58.2626L1354.55 54.0146L1359.62 60.8147L1372.28 65.4992L1386.2 66.7753L1387.89 60.8315L1380.72 53.6116L1388.73 42.5636L1370.58 36.1833L1365.95 45.5355L1360.04 37.8791L1326.71 26.3945L1295.06 31.9185L1290.43 34.4707V37.0228L1297.18 40.4312L1296.34 48.5074L1284.1 43.4031L1257.1 54.0314L1252.47 44.2594H1233.9L1225.46 53.1919L1195.5 46.3918L1168.09 51.9158L1164.71 60.4117L1168.93 61.6878L1168.51 68.0681L1141.93 71.04L1143.62 79.5359L1119.14 75.288L1125.05 64.2399L1100.16 62.9639L1102.27 74.4484L1094.26 78.2766L1087.51 71.8963L1060.1 76.5808L1049.55 86.3528L1049.13 92.2965L1042.38 92.7163L1041.54 85.9162L1063.07 67.2118V54.4512L1049.15 50.623L1031 56.5667L1023.41 48.9104H1020.04L1015.82 57.4063L1019.2 61.2345L995.138 74.4149L974.47 90.1474L961.811 107.576V114.796L975.309 120.32L968.56 125.424L954.222 120.32L948.312 125.424L939.447 115.215L937.751 119.044L947.456 149.652L949.991 150.509L956.74 147.1L960.115 149.652V155.176L953.785 152.624L949.991 155.596L952.526 161.12L950.411 175.577L937.332 176.853L936.492 172.168L944.081 167.484L945.777 154.723L937.332 143.675L934.377 124.551L920.878 122.418L919.619 129.218L922.154 132.627L916.664 137.311L918.779 150.072L926.788 153.48L928.484 162.833L920.458 157.728L899.79 153.9L897.255 160.7L880.802 166.644L878.266 162.396L856.742 174.3L856.322 182.377L847.877 183.653L850.413 177.709V171.765L841.967 168.793L836.477 170.926L841.111 179.858L844.486 185.802V190.486L838.156 189.21L836.897 187.934L830.567 194.734L833.942 200.678L819.604 200.258L824.238 206.219L822.979 208.771H815.39L809.9 204.943L808.64 194.315L799.776 190.906V186.658L818.345 190.486L828.469 191.343L832.683 184.962L828.888 178.162L801.891 167.534L792.573 169.851L789.383 172.588L790.373 178.884L794.336 179.573L793.412 189.479L805.635 218.19L796.804 232.194L796.199 235.35L800.682 238.507L796.636 241.176L793.95 241.227L794.453 253.568L798.164 258.823L798.214 263.927L802.966 264.364L810.235 267.134L817.925 277.712L818.009 280.499L815.507 284.781L821.249 284.462L826.84 286.074L834.395 296.769L852.998 298.465L852.192 311.192L845.779 316.682L847.105 318.832L840.775 325.632L839.097 332.012L842.891 337.536L855.13 341.784L860.201 338.812L892.688 351.136L893.948 347.728L887.198 341.347V333.271L882.984 331.995L883.824 325.195L890.573 317.119L878.468 308.052L879.307 295.443L892.252 286.93L907.446 287.786L909.982 292.471L925.596 293.327L936.996 286.947L931.086 280.566L932.345 268.662L961.878 254.206L984.594 264.448L992.183 257.648L1014.55 278.904L1031.42 277.208L1037.33 283.152L1053.36 284.848L1063.91 270.391L1077.41 276.352L1084.58 277.628L1091.74 271.248L1085.41 267L1090.9 258.504L1106.52 263.608L1109.89 270.408L1116.64 270.828L1120.86 267.856L1132.26 267.436L1133.52 270.408L1146.6 271.265L1155.46 261.912L1173.61 264.045L1179.1 261.912L1180.78 251.704L1175.29 239.38L1180.78 234.695H1198.07L1214.53 254.256L1235.61 266.16H1241.94L1242.78 261.056L1250.37 256.372L1251.21 284.008L1244.46 284.428V291.228L1248.26 295.913L1247.55 301.991L1250.35 303.149L1252.05 298.901L1254.59 299.758L1256.26 301.454L1263.85 299.758L1271.44 277.645L1272.28 250.008L1262.58 227.895L1250.34 213.019L1244.43 213.875V218.56L1230.09 213.036L1235.58 201.131L1240.21 169.666L1259.62 163.723L1268.91 157.779H1279.03L1276.5 161.187L1279.03 165.435L1287.9 156.083L1292.97 156.503L1292.13 150.979L1284.1 149.283L1289.59 129.302L1296.83 122.452Z" fill="#3E1893"/>
<path d="M1049.07 285.553L1043.26 300.161L1035.25 299.741L1026.8 318.227L1033.97 327.361L1019.2 347.761L1011.61 346.485L1006.54 352.865L1007.8 356.694L1013.71 357.113L1016.66 363.913L1022.57 365.19L1040.72 388.578V400.483L1049.59 406.007L1059.29 404.311L1071.53 411.531L1086.31 415.779L1093.47 414.922L1101.5 414.066L1118.37 403.018L1123.86 403.874L1125.96 408.861L1130.61 410.255L1136.94 419.607L1132.73 428.959L1135.26 435.339L1142.43 437.892L1143.69 445.548L1152.14 446.404L1153.4 442.576L1165.64 436.196L1173.22 436.616L1182.09 446.387L1188 443.835L1191.79 444.255L1193.49 448.94L1196.44 449.359L1200.66 443.416L1217.53 437.035L1232.73 418.751L1237.8 401.322L1237.38 389.838L1231.05 388.562L1234.84 384.314L1234 377.514L1217.97 361.361V353.285L1222.6 347.341L1227.24 345.209L1227.66 340.525H1215.84L1213.72 346.905L1208.23 345.629L1201.48 338.409L1205.7 327.361L1211.61 320.981L1217.1 321.4L1216.26 331.172L1219.21 333.724L1226.38 326.505L1228.92 326.085L1228.08 320.561L1234.83 312.485L1239.9 312.904L1242.85 303.552L1246.31 301.722L1246.66 295.896L1243.3 292.37L1243.02 283.169L1249.48 282.749L1249.06 259.024L1244.53 261.744L1242.83 267.822L1235.26 267.806L1213.32 255.465L1197.47 236.357L1181.38 236.189L1177.29 239.749L1182.49 251.67L1180.68 262.852L1174.2 265.539L1170.56 265.253L1170.29 276.318L1174.08 277.175L1180.83 274.203L1189.7 278.451V282.699L1183.37 283.118L1178.3 294.166L1173.66 294.586L1157.21 316.263L1139.91 323.919L1128.09 324.775L1120.09 319.251L1108.69 325.212L1096.45 321.384L1093.49 313.307L1072.82 312.031L1061.86 294.183H1057.23L1053.5 285.906L1049.07 285.553Z" fill="#C6C6C6"/>
<path d="M1054.78 285.721L1064.55 272.759L1076.28 278.182L1084.26 280.314L1094.03 271.348L1087.4 266.462L1091.76 260.3L1104.79 264.901L1109.31 272.305L1117.47 272.524L1121.73 269.35L1130.51 268.998L1132.43 272.255L1147.02 272.994L1156.25 263.574L1169.03 264.918L1168.29 277.745L1173.88 279.021L1180.75 275.899L1188.02 279.492L1187.85 281.305L1182.58 281.456L1177.09 292.974L1172.82 293.394L1156.23 315.07L1139.29 322.542L1128.7 323.365L1119.9 317.69L1108.65 323.701L1097.57 320.259L1094.43 312.216L1073.45 310.738L1062.7 292.521L1057.48 292.185L1054.78 285.721Z" fill="#C6C6C6"/>
<path d="M1230.19 326.186L1233.28 327.478L1234.22 338.291L1240.35 338.644L1246.12 331.878L1244.13 330.098L1244.36 322.844L1249.67 316.43L1246.96 311.561L1248.73 309.546L1249.7 304.509L1246.63 303.116L1244.01 304.442L1240.77 314.281L1235.53 313.828L1229.47 320.981L1230.19 326.186Z" fill="#C6C6C6"/>
<path d="M1247.08 332.784L1257.46 341.247L1259.22 349.44L1258.87 353.839L1253.8 359.548L1249.43 359.783L1244.48 349.088L1242.6 343.983L1244.6 342.439L1244.13 340.306L1241.66 339.198L1247.08 332.784Z" fill="#C6C6C6"/>
<path d="M891.732 316.699L898.616 313.761L906.306 313.492L906.843 325.245H902.343L898.901 330.853L903.401 338.325L910.033 342.069L910.637 346.351L913.072 345.545L915.322 342.875L919.032 343.681L920.896 347.425H925.664V342.623L922.742 334.077L921.416 327.143L929.895 323.398L941.295 325.262L948.447 332.465L964.615 330.87L973.631 343.681L984.226 344.218L987.147 339.416L990.857 338.61L991.395 333.271L996.952 333.002L999.873 336.478L1002.79 329.544L1027.96 333.019L1032.19 327.411L1025.04 318.596L1034.58 297.776L1042.27 298.314L1047.57 285.503L1036.98 284.428L1030.88 278.551L1014.09 280.499L992.469 259.595L984.847 266.362L961.728 255.868L933.37 269.753L932.581 279.626L939.213 287.366L926.285 294.67L909.512 294.301L906.003 289.146L892.857 288.424L880.399 296.433L880.131 307.38L891.732 316.699Z" fill="#3E1893"/>
<path d="M920.544 348.55L919.503 352.966H912.535V358.944L920.023 363.88L917.706 370.646V373.769L920.812 374.29L924.942 368.833L934.244 366.751L954.123 374.29L954.374 379.747L965.472 380.788L977.863 367.775L976.318 363.611L968.058 361.798L944.821 346.703L943.78 341.247H934.999L931.121 348.534H927.243L920.544 348.55Z" fill="#C6C6C6"/>
<path d="M979.424 367.809L984.595 368.078V359.229L979.692 356.375L987.953 345.965H991.311L994.669 349.877L1003.45 346.502L991.311 342.338L990.841 339.819L987.953 340.525L985.115 345.461L972.876 345.058L963.893 332.348L948.111 333.909L940.59 326.454L930.18 324.691L922.625 327.764L927.007 342.338L927.057 347.241L930.247 347.308L934.159 339.853L944.569 339.987L946.113 345.713L968.427 360.522L977.056 362.503L979.424 367.809Z" fill="#C6C6C6"/>
<path d="M981.557 355.686L988.457 347.123H991.059L991.966 349.037L988.776 351.354V353.268L990.875 354.779L1000.97 355.384L1004.26 353.974L1005.75 354.276L1006.76 357.499L1012.75 358.104L1015.76 364.451L1014.85 366.365L1013.66 366.465L1012.47 364.048L1009.86 363.846L1005.36 364.451L1005.06 368.682L1000.56 368.38L1000.76 363.04L997.473 359.817L992.47 363.947L992.571 366.667L988.172 368.178H985.569L985.771 358.809L981.557 355.686Z" fill="#C6C6C6"/>
<path d="M992.671 334.48L992.151 338.728L992.57 341.347L1007.18 346.25L994.35 351.422L992.889 350.213L990.119 351.992L990.253 352.966L991.731 353.638L1000.73 353.873L1005.3 352.496L1011.16 345.108L1018.49 346.384L1027.34 334.128L1003.67 330.904L1000.39 338.846L996.264 334.413L992.671 334.48Z" fill="#C6C6C6"/>
<path d="M954.574 381.224L957.244 402.145L963.892 403.606L964.514 407.367L959.745 411.346L968.627 418.516L985.887 412.303L987.263 404.949L998.126 398.166L1002.29 382.45L1005.4 379.109L1002.17 373.501L1012.68 367.003L1011.34 365.122L1006.49 365.425L1006.05 369.891L999.536 369.824L999.419 363.863L997.32 361.361L993.794 364.568L993.895 367.507L988.573 369.521L978.751 368.9L965.991 382.265L954.574 381.224Z" fill="#C6C6C6"/>
<path d="M969.703 419.489L974.068 425.97L973.649 429.312L967.84 431.612L967.42 437.052H974.068L976.352 435.171H989.011L1000.43 445.212L1001.89 440.393H1010.4L1010.6 434.332L1001.89 425.97L1003.75 421.37L1012.68 420.748L1024.72 395.647L1018.07 390.425L1015.59 381.644L1031.77 380.183L1022.22 366.583L1017.13 365.206L1015.05 367.725L1013.49 367.842L1003.94 373.903L1007.06 379.142L1003.53 382.903L999.169 399.005L988.373 405.906L986.912 413.445L969.703 419.489Z" fill="#3E1893"/>
<path d="M1050.04 525.554L1057.73 521.793L1062.3 505.271L1062.1 484.988L1088.25 456.747V450.048L1093.64 447.949L1093.44 440.208L1087.63 428.909L1090.96 422.847L1098.23 429.547L1107.56 429.966V433.727L1104.66 436.867L1105.28 438.546L1110.26 438.748L1111.31 444.389H1112.77L1116.51 437.69L1118.37 420.127L1124.6 415.728L1124.8 409.667L1122.32 404.848L1118.37 404.647L1102.93 414.855L1103.9 421.42L1093.06 421.387L1089.23 416.702L1087.15 416.971L1087.85 423.485L1064.4 421.806L1049.86 415.325L1049.08 407.35L1039.4 401.339L1039.28 388.964L1032.63 381.358L1017.35 382.819L1019.01 389.468L1026.5 395.529L1013.56 422.025L1004.89 422.679L1003.47 425.87L1012 433.761L1011.58 441.736L1002.86 441.602L1001.92 445.565L1009.16 445.246L1009.36 448.385L1004.17 451.105L1007.5 457.385L1013.93 459.484L1017.87 456.562L1019.74 451.34L1022.02 450.299L1024.72 453.019L1023.9 459.719L1022.04 462.859L1022.46 468.299L1050.04 525.554Z" fill="#3E1893"/>
<path d="M1050.39 407.266L1051.16 414.436L1064.73 420.581L1086.47 422.193L1085.65 416.937L1071.13 412.941L1058.8 405.604L1050.39 407.266Z" fill="#C6C6C6"/>
<path d="M1091.04 416.534L1093.64 420.094L1102.44 420.161L1101.55 415.292L1091.04 416.534Z" fill="#C6C6C6"/>
<path d="M1091.32 424.98L1089.12 428.959L1094.83 439.806L1095 448.268L1096.04 450.535L1102.74 450.652L1106.54 447.009L1109.29 448.671L1109.84 453.826L1112.04 452.449L1112.18 445.867L1110.33 445.649L1109.17 440.058L1104.5 439.89L1103.35 436.784L1106.2 432.972L1106.25 431.092H1097.96L1091.32 424.98Z" fill="#C6C6C6"/>
<path d="M1148.19 509.838L1143.54 502.383L1146.92 497.649L1143.73 491.789L1140.72 491.218L1140.15 481.379L1135.65 472.665L1134.34 474.747L1131.34 479.851L1127.57 480.422L1125.69 477.954L1124.75 471.321L1121.93 466.016L1110.45 455.186L1113.27 453.322L1113.79 445.481L1117.99 438.429L1119.8 420.883L1125.88 416.736L1126.08 410.339L1129.72 411.548L1135.47 419.859L1131.2 428.993L1134.07 436.162L1141.17 438.95L1142.47 446.757L1152 448.235L1149.37 452.785L1137.35 457.52L1136.04 465.277L1144.87 476.627L1145.24 482.688L1143.17 484.77L1143.36 486.668L1149.94 496.322L1150.12 506.346L1148.19 509.838Z" fill="#C6C6C6"/>
<path d="M1149.18 454.128L1154.62 461.13V469.642L1156.5 470.582L1165.15 466.418L1166.85 466.989L1177.17 478.91L1176.8 487.054L1173.43 486.483L1170.42 484.586L1168.17 484.77L1164.23 491.386L1164.98 494.979L1168.17 496.675L1167.99 500.654L1165.74 501.796L1158.03 496.49V491.755L1154.84 491.57L1153.53 493.652L1152.86 514.842L1157.85 523.942L1166.68 532.455L1166.31 534.923L1161.61 534.738L1157.29 528.308H1152.78L1147.13 523.757L1145.44 519.023L1147.87 515.043L1148.71 511.45L1151.37 506.749L1151.25 495.936L1144.77 486.567L1144.5 485.425L1146.6 483.31L1146.11 475.871L1137.48 464.941L1138.49 458.645L1149.18 454.128Z" fill="#3E1893"/>
<path fill-rule="evenodd" clip-rule="evenodd" d="M1211.34 564.541L1206.27 558.681L1212.72 559.068L1212.35 553.073L1226.47 542.714L1232.29 544.208L1235.38 539.725L1233.52 534.352L1238.59 525L1240.94 529.114L1251.21 536.602L1243.29 542.344L1234.63 542.966L1230.78 557.808L1211.34 564.541ZM1156.87 536.922L1153.5 529.349L1156.32 529.265L1160.85 535.78L1167.17 536.065L1167.6 534.118L1172.84 545.25L1176.42 553.947L1177.17 560.764L1173.04 560.378L1162.15 553.762L1157.63 546.761L1156.87 536.922Z" fill="#3E1893"/>
<path d="M1166.73 502.82L1173.59 510.157L1186.37 500.688L1187.49 485.744L1180.9 490.294L1177.47 488.38L1172.82 487.759L1170.22 485.929L1168.96 485.996L1165.55 491.587L1166.1 494.173L1169.56 496.104L1169.14 501.359L1166.73 502.82Z" fill="#C6C6C6"/>
<path d="M1158.31 441.468L1154.25 443.533L1150.88 453.372L1156.52 460.558L1155.58 468.5L1156.52 468.886L1165.9 464.336L1178.5 478.406L1178.19 487.272L1180.93 488.749L1187.7 483.259L1187.14 478.91L1167.62 460.357L1167.8 457.519L1170.24 455.824L1168.54 451.089L1160.46 449.762L1158.31 441.468Z" fill="#C6C6C6"/>
<path d="M1174.42 511.181L1176.41 514.321L1176.78 517.914L1182.04 518.485L1188.42 509.972L1194.43 508.277L1197.62 499.579L1196.13 485.576L1189.93 477.063L1183.4 471.842L1175.09 457.57L1181.05 447.596L1172.52 437.808L1165.69 437.505L1159.54 440.813L1161.37 448.721L1169.56 450.165L1171.76 456.26L1168.88 458.141L1169.06 459.652L1188.28 478.457L1189.04 483.981L1187.88 501.443L1174.42 511.181Z" fill="#C6C6C6"/>
<path d="M856.088 342.791L861.578 349.961L868.428 353.117L872.642 353.101L879.879 351.136L881.692 348.299L860.285 340.29L856.088 342.791Z" fill="#C6C6C6"/>
<path d="M880.03 352.412L888.089 362.923L885.721 365.693L880.013 364.703L872.928 358.356L873.314 354.192L880.03 352.412Z" fill="#C6C6C6"/>
<path d="M882.868 348.769L881.172 351.656L889.08 362.033L891.833 361.143L896.366 365.895L898.331 357.567L903.25 358.356L903.049 355.972L894.956 348.886L893.411 353.05L882.868 348.769Z" fill="#C6C6C6"/>
<path d="M879.912 365.945L877.863 368.077L878.065 371.452L880.617 375.028L889.666 384.935L888.29 388.897H886.711L885.922 392.86L891.043 399.408L895.761 399.811L905.213 412.891L910.519 413.294L914.649 416.265L914.851 422.209L931.187 431.729H937.281L941.025 428.556L945.743 428.355L948.497 434.701L966.142 437.153L966.663 430.672L972.506 428.556L972.774 426.239L968.124 419.892L957.764 411.564L963.204 406.611L962.818 404.428L956.001 403.371L953.114 380.368L952.778 375.079L934.293 368.01L926.099 369.857L921.516 375.482L917.453 375.213L916.278 376.204L907.228 375.616L895.811 367.288L891.564 362.637L889.616 363.107L886.107 367.12L879.912 365.945Z" fill="#3E1893"/>
<path d="M861.528 351.237L857.784 355.199L844.017 354.796L835.756 349.843L827.697 349.642L818.446 356.19L809.783 356.593L808.994 361.546H799.155L795.227 365.122V367.104L797.594 369.085V371.268L796.603 373.853L797.594 376.036L800.75 374.458L803.907 377.833L803.118 380.217L801.942 381.812L803.705 383.793L812.369 385.573L818.463 382.987V379.226L821.418 379.814L828.503 383.978L836.176 382.786L839.517 379.612L841.683 380.401V383.978H844.638L847.19 379.025L869.621 376.64L879.409 375.448L876.823 372.057L876.773 367.473L878.737 365.122L871.585 359.38L871.971 354.427H868.043L861.528 351.237Z" fill="#3E1893"/>
<path d="M883.842 485.627L886.259 492.813V499.831L892.069 505.103L933.001 488.431L933.388 483.847L926.823 472.06L910.352 477.315L900.9 486.617L889.936 480.136L883.842 485.627Z" fill="#C6C6C6"/>
<path d="M928.148 471.54L940.556 464.387L942.755 453.893L940.035 452.331L941.16 441.082L943.528 439.705L946.063 443.684L961.156 451.576V455.958L942.873 482.873L934.461 483.158L928.148 471.54Z" fill="#C6C6C6"/>
<path d="M920.812 444.843L922.273 450.686L938.828 452.147L939.986 440.158L943.176 438.412L944.049 434.03L938.828 435.491L933.018 444.272L920.812 444.843Z" fill="#3E1893"/>
<path d="M918.494 434.903L917.621 441.636L920.207 443.601L922.557 443.382L923.43 434.903L921.399 433.442L918.494 434.903Z" fill="#3E1893"/>
<path d="M902.813 415.006L899.035 412.958L896.416 415.594L896.702 420.866L902.796 423.2L902.813 415.006Z" fill="#C6C6C6"/>
<path d="M904.005 425.198L915.775 441.602L919.569 444.625L921.265 451.979L939.381 453.406L941.429 454.481L939.397 463.547L927.494 470.566L910.083 475.838L900.798 484.905L889.768 478.474L883.085 484.317L873.784 469.122L867.404 466.2L865.087 462.691V455.085L841.867 427.012L840.994 422.042H847.676L855.802 415.023L856.088 411.514L853.771 409.18L858.422 405.386L868.294 405.973L885.134 420.01L895.073 419.557L895.711 422.008L904.005 425.198Z" fill="#C6C6C6"/>
<path d="M841.33 384.717L840.742 388.982L845.477 390.963L845.275 402.783L850.01 402.683L854.745 399.106L856.524 398.804L867.27 390.258L869.435 377.85L847.962 380.032L845.695 385.002L841.33 384.717Z" fill="#C6C6C6"/>
<path d="M870.948 377.833L868.328 390.778L857.482 399.811L858.171 404.076L868.765 404.798L885.638 418.533L895.074 418.264L895.326 415.091L898.785 411.38L903.62 414.117L904.258 413.512L894.906 401.071L890.474 400.802L884.581 393.229L885.756 387.655L887.552 387.42L888.174 384.952L880.148 376.506L870.948 377.833Z" fill="#3E1893"/>
<path d="M845.075 404.278L840.944 418.684L840.76 420.883H847.257L854.527 414.469L854.712 412.035L851.74 408.996L857.062 404.58L856.29 400.483L854.829 400.819L850.397 403.992L845.075 404.278Z" fill="#3E1893"/>
<path d="M840.542 390.274L840.642 393.549L839.266 398.518L844 398.921L844.302 391.869L840.542 390.274Z" fill="#3E1893"/>
<path d="M839.063 399.71L836.41 408.156L839.852 418.281L843.798 403.488V400.315L839.063 399.71Z" fill="#3E1893"/>
<path d="M835.521 385.909L837.586 387.403L831.189 393.464L828.134 393.364L825.867 391.769L826.169 388.797L830.803 388.494L835.521 385.909Z" fill="#3E1893"/>
<path d="M788.93 171.496L792.322 169.011L792.02 166.224L789.871 164.982L790.173 161.573H792.02V159.709L784.011 157.543L772.006 158.786L770.781 164.058L768.011 163.135L766.164 160.028L760.304 160.331L759.683 166.224L756.913 167.467L755.368 164.36L743.045 174.283L745.513 177.071L740.896 179.237L730.419 200.023L726.725 202.508L727.027 204.372L730.721 206.235L729.798 210.265L723.636 209.946L721.789 207.78L717.793 212.431L715.325 214.295L714.704 218.643L712.555 219.886L707.014 221.128L704.244 229.826L706.091 244.098L708.24 250.612L710.708 253.097L716.249 252.795L724.257 245.038L727.33 239.766L728.253 247.523L733.491 238.221L733.794 212.146L738.058 209.459L739.334 195.07L752.262 176.449L758.424 174.283L761.194 170.875L770.428 173.041L775.045 175.828L776.59 168.071L784.296 163.42L788.93 171.496Z" fill="#C6C6C6"/>
<path d="M672.512 250.31L669.439 254.961L670.665 256.825H677.75V259.931L675.903 262.416L677.129 268.931L681.125 276.688L684.197 283.824L689.117 285.687L691.266 289.415L690.964 292.823L687.891 294.687L687.589 296.232L689.738 297.474L687.891 299.959L683.576 301.823L675.265 300.9L662.321 306.793L658.006 304.627L670.329 297.491L668.785 296.568L662.321 295.946L666.317 290.053L666.938 285.083L672.176 284.462L671.253 274.841L665.091 274.539L663.244 272.373L663.546 265.237L659.853 265.539L663.546 253.131L670.329 248.161L672.512 250.31Z" fill="#C6C6C6"/>
<path d="M659.585 271.113L654.044 271.735L653.742 276.704L657.436 279.189L661.432 278.266L662.976 275.479L659.585 271.113Z" fill="#C6C6C6"/>
<path d="M661.414 279.643L659.886 289.717L646.337 294.687H642.022L638.949 292.521V290.657L645.732 286.308L643.885 282.581L644.188 277.309L650.047 277.611L652.733 271.298L652.381 276.906L656.931 280.516L661.414 279.643Z" fill="#C6C6C6"/>
<path d="M759.146 175.593L762.437 178.632H768.599L771.99 185.147L772.914 196.313L764.603 202.206V208.099L758.743 216.175L755.352 216.478L750.735 224.235L751.037 231.69L759.046 237.583L758.424 240.992L755.352 245.642L750.735 249.672L751.037 263.02L743.952 265.505L741.484 270.778H738.092L736.245 261.476L728.539 249.655L734.869 239.061L735.305 212.885L739.67 210.484L740.728 195.507L753.169 177.692L759.146 175.593Z" fill="#3E1893"/>
<path d="M774.373 196.346L777.848 197.874L779.998 201.904L777.848 204.691L767.07 216.478L765.223 222.69L767.691 231.69L776.002 237.902L787.083 232.63L796.015 231.387L804.325 218.039L798.164 203.448L792.304 189.479L793.228 180.479L789.534 179.858L788.577 173.293L783.607 165.183L778.1 168.995L775.934 177.843L770.092 174.334L761.966 172.353L760.152 174.468L763.275 177.289L768.967 177.188L773.55 184.593L774.373 196.346Z" fill="#3E1893"/>
<path d="M793.311 254.155L781.811 252.292L782.062 258.722L792.724 265.237L797.089 263.961L796.837 259.058L793.311 254.155Z" fill="#3E1893"/>
<path d="M774.324 247.893L771.722 247.809L770.211 249.337L771.302 250.948L773.905 251.116L775.248 249.169L774.324 247.893Z" fill="#C6C6C6"/>
<path d="M774.071 254.743L771.553 254.491L767.02 259.914V262.449L768.531 263.037L771.469 263.121L776.338 259.142L777.009 257.782L774.071 254.743Z" fill="#C6C6C6"/>
<path d="M781.122 259.746L777.513 259.662L772.56 264.397H768.362L768.614 270.324L766.096 274.975L775.162 275.059L777.764 274.723L780.367 277.863L786.327 277.611L792.035 270.341L791.7 266.026L781.122 259.746Z" fill="#3E1893"/>
<path d="M780.871 279.206L783.389 283.354L782.382 286.661L782.55 289.281L783.473 292.42L788.678 289.465L795.142 289.633L799.675 291.497H811.176L814.534 283.454L816.549 280.415V278.384L809.329 268.226L802.949 265.69L797.745 265.103L793.211 266.547L793.379 271.113L787.083 279.072L780.871 279.206Z" fill="#C6C6C6"/>
<path d="M782.214 293.428L783.641 296.047L783.977 298.834L782.802 301.537L780.115 306.709L777.849 307.733L774.911 306.457L773.148 306.541L768.866 308.153L763.997 306.709L756.106 301.117L748.383 296.97L745.277 292.235L744.689 281.07L750.734 275.814L758.625 273.195L761.563 272.859L760.388 275.227L761.143 276.15L774.424 276.402L777.278 276.318L781.979 283.521L780.804 286.476L781.307 289.952L782.214 293.428Z" fill="#3E1893"/>
<path d="M676.274 344.202H654.884L650.569 342.254L648.487 342.405L645.969 347.644L646.859 353.033L655.035 353.789L656.076 357.231L652.517 377.295L652.668 380.888L658.46 384.028L665.142 384.482L678.507 381.191L685.038 372.963L685.189 364.585L696.774 354.108L697.361 349.474L686.818 349.323L676.274 344.202Z" fill="#C6C6C6"/>
<path d="M647.009 354.679L645.968 369.202L642.996 371.889L643.298 373.534L645.38 376.976L644.037 381.174L646.27 381.929L651.475 381.325L651.173 377.127L654.581 357.667L653.842 354.981L647.009 354.679Z" fill="#3E1893"/>
<path d="M697.662 364.703L694.992 365.609L695.58 368.01H699.441L701.07 366.214L697.662 364.703Z" fill="#C6C6C6"/>
<path d="M725.299 358.272L720.85 360.522L721.437 369.202L724.997 369.807L727.666 367.255V359.028L725.299 358.272Z" fill="#C6C6C6"/>
<path d="M725.752 347.493L722.478 350.784L722.176 353.772L724.845 355.418L725.886 355.267L726.474 350.918L725.752 347.493Z" fill="#C6C6C6"/>
<path d="M696.487 300.043L692.776 300.95L685.355 309.026L683.122 309.177L680.151 307.078L678.22 307.531L676.743 312.166L665.896 312.468L666.199 314.869L673.62 319.805L682.233 326.689L682.082 334.916L677.481 342.993L687.437 347.778L697.545 348.08L700.668 344.487L707.048 344.638L708.827 346.284L715.207 345.83L718.481 341.633L714.317 336.696L714.015 333.556L714.905 330.114L712.823 327.126L709.264 328.167L708.81 325.48L716.685 316.8V311.561L711.48 308.572L708.81 308.119L696.487 300.043Z" fill="#3E1893"/>
<path d="M712.756 282.531L705.151 286.275L706.762 287.736L706.93 291.48L705.318 291.161L703.539 288.391L699.291 295.124L705.822 296.484L708.257 299.052L709.549 299.086L710.406 293.277L714.519 291.547L712.756 282.531Z" fill="#C6C6C6"/>
<path d="M698.52 296.383L697.445 299.069L708.996 306.692L712.321 307.481L712.438 303.871L709.534 300.614H707.754L705.32 297.844L698.52 296.383Z" fill="#C6C6C6"/>
<path d="M714.518 281.876L720.512 280.902V276.671L725.532 275.848L728.286 278.619L731.19 278.938L735.723 276.973L739.77 278.115L743.329 281.204L743.816 292.773L747.375 297.508L742.691 298.162L734.918 303.048L735.572 304.677L742.523 311.192L742.036 314.449L735.572 317.706L729.579 317.874L728.118 320.964H725.045L723.585 317.706L718.246 316.397L718.078 311.024L713.545 307.934L714.031 304.022L710.959 299.791L711.765 294.25L715.962 292.286L714.518 281.876Z" fill="#3E1893"/>
<path d="M723.971 254.374L717.004 262.08L716.752 267.101L719.925 275.378L724.895 274.438L724.274 267.671L727.699 263.843L727.632 260.838L725.214 254.575L723.971 254.374Z" fill="#C6C6C6"/>
<path d="M731.813 268.041L730.251 267.974L728.203 269.854L728.455 272.792L733.307 272.927L733.559 269.602L731.813 268.041Z" fill="#C6C6C6"/>
<path d="M760.439 252.14L756.896 254.944L758.676 259.058L761.816 256.002L760.439 252.14Z" fill="#C6C6C6"/>
<path d="M717.49 317.975L710.17 325.766L710.321 326.555L713.326 325.615L716.029 329.376L720.596 327.764L723.753 330.215L725.045 329.476L728.941 323.365L727.95 322.425L724.105 322.324L722.242 318.512L717.49 317.975Z" fill="#C6C6C6"/>
<path d="M743.548 310.403H748.534H750.985L754.965 313.24L762.335 307.112L755.183 302.008L748.098 298.583L743.246 299.456L736.664 303.687L743.548 310.403Z" fill="#3E1893"/>
<path d="M755.988 314.197L757.147 315.222L757.298 316.968L770.108 316.682L779.578 312.602L779.426 308.455L777.613 309.261L775.011 307.867L773.416 307.8L769.218 309.479L763.51 308.103L755.988 314.197Z" fill="#3E1893"/>
<path d="M730.453 319.218L729.361 321.485L730.302 323.096L734.213 322.29H737.538L741.148 325.346L748.82 323.953L754.462 320.595L755.905 318.328L755.687 315.406L750.617 311.612L743.817 311.679L743.246 315.541L736.094 319.033L730.453 319.218Z" fill="#C6C6C6"/>
<path d="M757.5 318.345L755.553 321.401L755.704 326.068L758.81 327.663L768.363 327.949L781.677 316.733L781.744 314.248L780.3 313.526L770.68 317.891L757.5 318.345Z" fill="#C6C6C6"/>
<path d="M754.242 322.357L749.978 324.91L742.02 326.656L743.615 331.256L749.189 331.323L754.326 327.025L754.242 322.357Z" fill="#3E1893"/>
<path d="M755.62 327.68L749.694 332.566H743.683L742.961 336.797L745.714 337.519L747.091 335.47L749.257 337.368L750.986 343.412L762.856 348.953L764.032 347.61L751.994 335.185L753.219 332.918L764.653 332.482L765.811 328.838L758.357 329.056L755.62 327.68Z" fill="#3E1893"/>
<path d="M754.242 334.027L753.621 335.051L764.887 346.67L769.017 340.592L768.866 338.191L765.256 333.809L754.242 334.027Z" fill="#C6C6C6"/>
<path d="M716.416 330.736L715.375 333.372L715.66 336.243L719.673 340.927L725.986 340.709L739.921 356.895L748.618 359.414L753.756 364.266L754.981 375.331L757.735 373.719L760.119 367.691L759.531 363.359L763.611 362.99L764.199 360.539L752.698 355.031L741.785 344.302L737.436 337.888L736.379 331.794L741.936 330.467L740.509 326.454L737.101 323.583L734.162 323.449L730.066 324.574L726.204 329.98L723.87 331.525L720.261 329.309L716.416 330.736Z" fill="#3E1893"/>
<path d="M750.28 374.458L747.846 373.148L739.535 374.458L739.821 376.707L747.292 380.469L748.417 381.694L750.381 381.98L750.28 374.458Z" fill="#C6C6C6"/>
<path d="M750.566 386.967L747.762 387.538L747.862 390.644L750.381 391.483L751.506 390.543L750.566 386.967Z" fill="#C6C6C6"/>
<path d="M789.115 290.724L784.246 293.461L785.455 298.633L780.955 308.119L780.989 312.3L783.104 313.643L796.67 314.315L800.464 311.175L804.528 312.535L810.353 320.309L806.089 327.965L811.159 329.443L817.791 321.803L821.586 322.492L825.111 324.943L822.005 329.04L826.203 335.588H830.669L832.969 331.223L837.704 330.266L837.838 326.723L829.04 325.363L829.309 321.551H837.838L847.038 314.181L851.101 310.638L851.773 299.455L833.641 297.827L826.203 287.333L821.065 285.57L814.836 285.838L812.032 292.773L799.272 292.941L795.125 291.027L789.115 290.724Z" fill="#3E1893"/>
<path d="M797.812 315.171L803.017 323.18L802.581 327.713L804.444 327.797L808.86 320.326L803.554 313.744L800.549 312.501L797.812 315.171Z" fill="#C6C6C6"/>
<path d="M783.423 314.986L782.987 317.471L773.266 325.564L781.392 337.485L786.596 341.129H795.965L799.054 338.543L803.201 338.006L806.29 339.87L811.764 333.64L810.706 330.517L805.149 329.09L801.354 328.905L801.539 323.566L796.502 315.641L783.423 314.986Z" fill="#3E1893"/>
<path d="M771.204 347.976L771.128 346.406L768.912 343.293L765.324 348.367L766.029 350.498L768.951 351.036L771.204 347.976Z" fill="#C6C6C6"/>
<path d="M772.293 326.637L768.849 329.225H767.17L766.029 332.783L770.092 337.502L770.361 341.247L769.787 342.057L772.535 345.917L772.63 347.963L774.608 349.878L781.055 347.914L780.517 338.745L772.293 326.637Z" fill="#C6C6C6"/>
<path d="M782.182 339.819L782.45 348.181L785.271 354.057L795.865 354.242L800.633 350.867L805.317 349.004L804.176 343.664L805.234 340.81L802.849 339.567L799.576 339.836L797.007 342.422L786.228 342.506L782.182 339.819Z" fill="#C6C6C6"/>
<path d="M769.723 352.194V359.934L771.939 364.115L773.534 363.93L776.271 358.943L774.676 356.71L774.054 351.186L771.939 349.222L769.723 352.194Z" fill="#3E1893"/>
<path d="M781.308 349.255L775.65 351.119L775.919 355.921L777.245 357.617L783.961 354.494L781.308 349.255Z" fill="#C6C6C6"/>
<path d="M774.239 365.358L774.055 367.591L781.828 371.503L785.539 372.93L783.591 374.978L779.259 375.415L778.638 377.379L780.132 380.754L784.985 383.34L787.1 383.525L787.369 377.732L790.542 373.904L781.879 363.662L783.02 360.186L785.052 360.102L788.141 362.587L790.089 361.613L790.71 358.138L799.81 358.222L800.162 352.882L796.368 355.552L785.236 355.283L778 359.028L774.239 365.358Z" fill="#C6C6C6"/>
<path d="M801.622 352.093L801.354 358.054L806.558 356.459L808.942 354.864L808.237 352.278L805.769 350.313L801.622 352.093Z" fill="#C6C6C6"/>
<path d="M791.113 387.168L793.85 387.252L794.992 388.948H798.971L801.623 387.974L802.513 389.049L800.75 391.366L792.977 391.634L791.567 389.77L790.072 388.881L791.113 387.168Z" fill="#C6C6C6"/>
</svg>
