<svg width="50" height="50" viewBox="0 0 50 50" fill="none" xmlns="http://www.w3.org/2000/svg">
<g clip-path="url(#clip0_1190_9035)">
<path d="M27.2933 44.4558C27.3774 44.3782 27.4626 44.3028 27.5467 44.2275C30.489 41.5244 33.2483 38.6661 35.0304 35.0046C37.6418 29.6281 37.2009 24.5211 33.657 19.7133C31.6541 16.9988 29.0991 14.882 26.3974 12.9348C25.1555 12.0374 25.1504 12.0351 23.926 12.9228C20.8777 15.1315 17.9902 17.5092 15.888 20.7083C13.9997 23.5872 13.0401 26.7167 13.5301 30.199C13.683 31.2786 13.9461 32.3392 14.3153 33.3639C15.5239 36.7531 17.7616 39.5612 20.2149 42.266C21.8057 41.4947 22.8941 40.1857 24.2291 39.1011C22.7428 37.602 21.4252 36.0983 20.3617 34.3914C19.6171 33.1966 19.0447 31.9909 18.7167 30.7687C18.124 28.5743 18.3159 26.3314 19.7012 24.0108C21.0092 21.8187 22.8467 20.1289 24.7886 18.5413C25.1075 18.2804 25.3113 18.37 25.5896 18.5984C26.8247 19.6077 27.9882 20.6901 29.0331 21.8986C31.898 25.2096 32.5229 28.8141 30.4884 32.8079C29.4393 34.8676 28.0999 36.7623 26.512 38.4326C24.0073 41.0786 21.2056 43.2981 17.7881 44.6505C16.623 45.1129 15.713 44.836 14.8555 44.0225C13.7897 43.0155 12.9639 41.823 12.226 40.5671C9.50118 35.9259 7.54404 30.9531 6.10003 25.7696C4.9936 21.7924 4.58602 17.7484 5.45536 13.6724C6.02551 10.9893 6.86663 8.38158 9.07836 6.54852C9.60764 6.10224 10.2042 5.74454 10.8453 5.48899C11.9636 5.04942 13.1767 4.97521 14.4581 5.28519C16.0765 5.68137 17.4274 6.64671 18.8415 7.47561C20.4441 8.41811 22.0592 8.28795 23.7002 7.55781C25.3119 6.84366 26.3347 5.47529 27.5586 4.13889C27.063 4.02871 26.8247 4.28503 26.5583 4.41348C25.6669 4.83877 24.7959 4.87816 23.8746 4.47056C22.4577 3.8506 21.1729 2.99201 19.8576 2.20479C18.2076 1.22233 16.4836 0.435099 14.6162 0.143957C12.5022 -0.189208 10.338 0.124921 8.40209 1.04593C6.08027 2.13743 4.07966 4.05954 2.73331 6.61131C-0.197036 12.1596 -0.536869 18.0538 0.61303 24.0976C1.68559 29.7389 3.76975 35.0365 6.30664 40.1492C7.66428 42.8837 9.18562 45.5342 11.4188 47.6715C13.7677 49.9207 16.4311 50.5573 19.5223 49.3841C22.4013 48.2995 24.8789 46.6109 27.151 44.5831C27.1984 44.5386 27.2459 44.4975 27.2933 44.4558Z" fill="#0A4D13"/>
<path d="M48.6871 9.90235C47.5445 6.49713 45.8222 3.46696 42.622 1.62705C39.3202 -0.269938 34.9278 -0.998936 31.0559 2.18765C29.7513 3.25859 28.576 4.44657 27.4696 5.70876C25.9375 7.45504 24.2767 8.97412 21.8008 9.21674C23.4661 10.0382 25.1139 10.4458 26.9152 9.69513C29.1236 8.77774 31.079 7.40652 33.1677 6.2762C34.2109 5.71447 35.2609 5.14246 36.4898 5.10078C39.1644 5.01401 41.1944 6.17002 42.5543 8.46034C45.2317 12.9702 45.4649 17.8916 44.5504 22.8782C43.5343 28.4344 41.432 33.6385 38.8489 38.6341C37.8282 40.607 36.7286 42.5451 35.0695 44.0762C34.7122 44.4056 34.339 44.6471 33.945 44.7766C33.4336 44.9479 32.886 44.9228 32.282 44.6436C31.5645 44.312 30.8244 44.0305 30.1182 43.6783C29.7902 43.5156 29.5661 43.5133 29.2878 43.7673C28.2356 44.7264 27.1675 45.6689 26.0493 46.6645C25.9454 46.7581 25.8393 46.8546 25.7326 46.9499L26.0148 47.1423C27.7416 48.2955 29.5475 49.1563 31.4826 49.7169C32.6636 50.0595 33.827 50.0943 34.9605 49.7991C35.4589 49.6685 35.9411 49.4812 36.3978 49.2408C38.2917 48.2521 39.708 46.7347 40.8421 44.977C45.2408 38.1671 48.2106 30.7664 49.588 22.7337C50.3349 18.382 50.0927 14.0925 48.6871 9.90235Z" fill="#0A4D13"/>
</g>
<defs>
<clipPath id="clip0_1190_9035">
<rect width="50" height="50" fill="white"/>
</clipPath>
</defs>
</svg>
