<svg width="50" height="50" viewBox="0 0 50 50" fill="none" xmlns="http://www.w3.org/2000/svg">
<g clip-path="url(#clip0_1190_9025)">
<path d="M27.2933 44.4557C27.3774 44.3781 27.4626 44.3027 27.5467 44.2274C30.489 41.5243 33.2483 38.666 35.0304 35.0044C37.6418 29.628 37.2009 24.521 33.657 19.7132C31.6541 16.9987 29.0991 14.8819 26.3974 12.9347C25.1555 12.0373 25.1504 12.035 23.926 12.9227C20.8777 15.1314 17.9902 17.5091 15.888 20.7082C13.9997 23.5871 13.0401 26.7166 13.5301 30.1989C13.683 31.2784 13.9461 32.3391 14.3153 33.3638C15.5239 36.753 17.7616 39.5611 20.2149 42.2659C21.8057 41.4946 22.8941 40.1856 24.2291 39.101C22.7428 37.6019 21.4252 36.0982 20.3617 34.3913C19.6171 33.1965 19.0447 31.9908 18.7167 30.7686C18.124 28.5742 18.3159 26.3312 19.7012 24.0107C21.0092 21.8185 22.8467 20.1288 24.7886 18.5412C25.1075 18.2803 25.3113 18.3699 25.5896 18.5983C26.8247 19.6076 27.9882 20.6899 29.0331 21.8985C31.898 25.2095 32.5229 28.8139 30.4884 32.8077C29.4393 34.8675 28.0999 36.7622 26.512 38.4325C24.0073 41.0785 21.2056 43.298 17.7881 44.6504C16.623 45.1128 15.713 44.8359 14.8555 44.0224C13.7897 43.0154 12.9639 41.8229 12.226 40.567C9.50118 35.9258 7.54404 30.953 6.10003 25.7695C4.9936 21.7923 4.58602 17.7482 5.45536 13.6723C6.02551 10.9892 6.86663 8.38145 9.07836 6.5484C9.60764 6.10212 10.2042 5.74441 10.8453 5.48887C11.9636 5.0493 13.1767 4.97509 14.4581 5.28507C16.0765 5.68125 17.4274 6.64659 18.8415 7.47549C20.4441 8.41799 22.0592 8.28783 23.7002 7.55769C25.3119 6.84354 26.3347 5.47517 27.5586 4.13877C27.063 4.02859 26.8247 4.28491 26.5583 4.41335C25.6669 4.83865 24.7959 4.87804 23.8746 4.47044C22.4577 3.85048 21.1729 2.99189 19.8576 2.20467C18.2076 1.2222 16.4836 0.434977 14.6162 0.143835C12.5022 -0.18933 10.338 0.124799 8.40209 1.04581C6.08027 2.1373 4.07966 4.05941 2.73331 6.61119C-0.197036 12.1595 -0.536869 18.0537 0.61303 24.0974C1.68559 29.7387 3.76975 35.0364 6.30664 40.1491C7.66428 42.8835 9.18562 45.5341 11.4188 47.6714C13.7677 49.9206 16.4311 50.5571 19.5223 49.384C22.4013 48.2994 24.8789 46.6107 27.151 44.583C27.1984 44.5385 27.2459 44.4974 27.2933 44.4557Z" fill="#F5F5F5"/>
<path d="M48.6871 9.90235C47.5445 6.49713 45.8222 3.46696 42.622 1.62705C39.3202 -0.269938 34.9278 -0.998936 31.0559 2.18765C29.7513 3.25859 28.576 4.44657 27.4696 5.70876C25.9375 7.45504 24.2767 8.97412 21.8008 9.21674C23.4661 10.0382 25.1139 10.4458 26.9152 9.69513C29.1236 8.77774 31.079 7.40652 33.1677 6.2762C34.2109 5.71447 35.2609 5.14246 36.4898 5.10078C39.1644 5.01401 41.1944 6.17002 42.5543 8.46034C45.2317 12.9702 45.4649 17.8916 44.5504 22.8782C43.5343 28.4344 41.432 33.6385 38.8489 38.6341C37.8282 40.607 36.7286 42.5451 35.0695 44.0762C34.7122 44.4056 34.339 44.6471 33.945 44.7766C33.4336 44.9479 32.886 44.9228 32.282 44.6436C31.5645 44.312 30.8244 44.0305 30.1182 43.6783C29.7902 43.5156 29.5661 43.5133 29.2878 43.7673C28.2356 44.7264 27.1675 45.6689 26.0493 46.6645C25.9454 46.7581 25.8393 46.8546 25.7326 46.9499L26.0148 47.1423C27.7416 48.2955 29.5475 49.1563 31.4826 49.7169C32.6636 50.0595 33.827 50.0943 34.9605 49.7991C35.4589 49.6685 35.9411 49.4812 36.3978 49.2408C38.2917 48.2521 39.708 46.7347 40.8421 44.977C45.2408 38.1671 48.2106 30.7664 49.588 22.7337C50.3349 18.382 50.0927 14.0925 48.6871 9.90235Z" fill="#F5F5F5"/>
</g>
<defs>
<clipPath id="clip0_1190_9025">
<rect width="50" height="50" fill="white"/>
</clipPath>
</defs>
</svg>
