<svg width="544" height="177" viewBox="0 0 544 177" fill="none" xmlns="http://www.w3.org/2000/svg">
<path d="M269.321 60.18H249.629V67.3268H261.484V80.6185C258.537 82.2883 253.915 83.2902 249.16 83.2902C236.233 83.2902 229.401 72.8706 229.401 62.5845C229.401 52.2985 236.166 41.8121 249.16 41.8121C254.853 41.8121 259.475 43.6155 262.891 47.2223L263.828 48.2241L269.321 42.7472L268.383 41.8121C263.56 37.0698 257.063 34.6653 249.093 34.6653C233.286 34.6653 221.297 46.6879 221.297 62.5845C221.297 78.7483 232.951 90.5038 249.093 90.5038C256.327 90.5038 263.092 88.7004 268.718 85.3608L269.388 84.96V60.18H269.321Z" fill="#0B4E14"/>
<path d="M332.682 50.8291C332.682 41.2778 326.051 36.0012 313.995 36.0012H297.719V89.3015H305.555V65.657H312.052L326.118 89.3015H335.562L320.558 64.9223C327.993 63.3193 332.682 58.0427 332.682 50.8291ZM305.555 43.148H313.392C323.639 43.148 324.778 47.5563 324.778 50.8959C324.778 55.9721 320.893 58.577 313.124 58.577H305.488V43.148H305.555Z" fill="#0B4E14"/>
<path d="M366.438 65.1895H391.019V58.0427H366.438V43.2815H392.694V36.0012H358.602V89.3015H393.564V82.0212H366.438V65.1895Z" fill="#0B4E14"/>
<path d="M453.912 82.0212H426.786V65.1895H451.367V58.0427H426.786V43.2815H453.041V36.0012H418.949V89.3015H453.912V82.0212Z" fill="#0B4E14"/>
<path d="M487.133 48.5581L514.729 89.3015H523.235V36.0012H515.398V76.3438L487.736 36.0012H479.297V89.3015H487.133V48.5581Z" fill="#0B4E14"/>
<path d="M237.506 102.46H227.258V132.65H237.506C245.208 132.65 253.379 127.373 253.379 117.555C253.379 107.736 245.208 102.46 237.506 102.46ZM231.477 106.4H236.635C245.074 106.4 248.892 112.011 248.892 117.555C248.892 123.098 245.074 128.709 236.635 128.709H231.477V106.4Z" fill="#71B858"/>
<path d="M273.474 118.891H287.473V115.017H273.474V106.4H288.477V102.46H269.188V132.65H288.946V128.642H273.474V118.891Z" fill="#71B858"/>
<path d="M324.98 125.637L309.106 102.46H304.418V132.65H308.705V109.206L324.579 132.65H329.267V102.46H324.98V125.637Z" fill="#71B858"/>
<path d="M343.266 106.4H352.978V132.65H357.264V106.4H366.909V102.46H343.266V106.4Z" fill="#71B858"/>
<path d="M385.259 102.46H380.973V132.65H385.259V102.46Z" fill="#71B858"/>
<path d="M411.985 115.417L411.449 115.217C407.966 114.081 405.823 113.213 405.823 110.274C405.823 106.801 409.105 105.532 411.315 105.532C413.66 105.532 415.535 106.467 416.741 108.137L417.142 108.738L420.558 106L420.157 105.465C418.817 103.662 415.803 101.658 411.449 101.658C406.694 101.658 401.536 104.33 401.536 110.274C401.536 116.419 406.895 118.089 409.775 118.957H409.842C413.861 120.226 416.339 121.161 416.339 124.501C416.339 127.707 413.392 129.444 410.579 129.444C408.1 129.444 405.823 128.175 404.551 126.104L404.149 125.503L400.465 128.175L400.867 128.709C402.943 131.581 406.56 133.251 410.512 133.251C415.401 133.251 420.625 130.446 420.625 124.301C420.692 118.289 416.071 116.753 411.985 115.417Z" fill="#71B858"/>
<path d="M432.613 106.4H442.258V132.65H446.545V106.4H456.257V102.46H432.613V106.4Z" fill="#71B858"/>
<path d="M490.016 110.809C490.016 105.332 486.333 102.46 479.434 102.46H470.258V132.65H474.544V119.158H478.429L486.467 132.65H491.624L483.051 118.757C487.27 117.889 490.016 114.883 490.016 110.809ZM474.544 106.267H479.099C484.993 106.267 485.73 108.872 485.73 110.742C485.73 113.681 483.453 115.217 479.032 115.217H474.611V106.267H474.544Z" fill="#71B858"/>
<path d="M523.169 102.46L514.729 115.818L506.424 102.46H501.133L512.519 119.692V132.65H516.806V119.692L528.192 102.46H523.169Z" fill="#71B858"/>
<path d="M127.728 113.146C122.437 123.833 114.265 132.182 105.558 140.064C105.29 140.264 105.022 140.531 104.821 140.732C104.687 140.865 104.553 140.999 104.419 141.132C97.7216 147.077 90.3539 151.953 81.8476 155.159C72.6716 158.565 64.8351 156.695 57.8693 150.149C51.2384 143.938 46.7509 136.19 42.7322 128.175C35.2306 113.28 29.0685 97.7841 25.8535 81.3532C22.4376 63.72 23.4423 46.4875 32.1495 30.3237C36.1683 22.843 42.0624 17.2324 48.8942 14.0932C54.5874 11.4215 60.8833 10.4864 67.3133 11.4883C72.8055 12.3566 77.9629 14.6275 82.8523 17.4996C86.7371 19.7705 90.5549 22.3086 94.7745 24.112C97.5206 25.3143 100.066 25.1807 102.745 23.9117C103.549 23.5109 104.218 22.7762 105.692 23.1102C102.075 26.9841 99.0611 30.9917 94.3057 33.0622C89.4832 35.1996 84.6607 35.6003 79.9053 32.7951C75.7526 30.3905 71.7339 27.5853 66.9114 26.383C63.0936 25.4479 59.5438 25.7151 56.1948 26.9841C54.2525 27.7188 52.511 28.7207 50.9035 30.1234C44.3396 35.4668 41.8614 43.0811 40.187 50.8958C37.6418 62.7849 38.8474 74.6071 42.0624 86.229C46.349 101.391 52.1092 115.885 60.2136 129.444C62.4239 133.117 64.8351 136.591 67.9831 139.529C70.5283 141.867 73.2074 142.735 76.6903 141.333C86.8041 137.392 95.1094 130.913 102.477 123.165C107.166 118.289 111.117 112.812 114.265 106.734C120.293 95.0456 118.418 84.5592 109.979 74.8743C106.898 71.3343 103.415 68.1951 99.7979 65.2562C98.9942 64.5883 98.3913 64.3211 97.4537 65.1226C91.6935 69.7313 86.2682 74.6739 82.3835 81.086C78.2978 87.832 77.695 94.3777 79.5034 100.79C80.5081 104.33 82.1825 107.87 84.3928 111.343C87.5408 116.352 91.4256 120.694 95.8462 125.102C91.8944 128.241 88.6795 132.115 83.991 134.32C76.7573 126.438 70.1264 118.223 66.5095 108.337C65.4379 105.398 64.6341 102.326 64.1653 99.12C62.6918 88.9675 65.5718 79.8169 71.1311 71.4011C77.3601 62.0502 85.9333 55.1037 94.9085 48.6917C98.4583 46.0868 98.4583 46.0868 102.142 48.7585C110.113 54.4358 117.681 60.6475 123.642 68.529C134.158 82.5554 135.43 97.4501 127.728 113.146Z" fill="#75AD4B"/>
<path d="M170.795 77.3456C166.71 100.79 157.936 122.364 144.942 142.268C141.593 147.411 137.373 151.819 131.814 154.691C130.407 155.426 129.001 155.96 127.594 156.294C124.245 157.163 120.762 157.029 117.28 156.027C111.519 154.357 106.228 151.886 101.071 148.546C100.803 148.346 100.535 148.146 100.267 148.012C100.602 147.745 100.87 147.478 101.205 147.211C104.487 144.338 107.702 141.533 110.783 138.728C111.586 137.993 112.256 137.993 113.261 138.461C115.337 139.463 117.547 140.331 119.691 141.266C121.499 142.068 123.107 142.134 124.58 141.667C125.719 141.266 126.857 140.598 127.929 139.596C132.819 135.121 136.101 129.444 139.115 123.7C146.75 109.139 152.979 93.9102 155.993 77.6796C158.672 63.1188 158.003 48.7585 150.099 35.6004C146.08 28.9211 140.052 25.5147 132.149 25.7819C128.532 25.9155 125.384 27.5853 122.303 29.1883C116.141 32.4611 110.314 36.4687 103.817 39.1404C98.4586 41.3445 93.6361 40.1422 88.6797 37.7377C95.9804 37.003 100.937 32.5947 105.424 27.5185C108.706 23.8449 112.189 20.3717 116.007 17.2324C127.46 7.94828 140.454 10.0856 150.233 15.5626C159.677 20.906 164.834 29.7894 168.183 39.7415C172.269 52.0981 173.006 64.6551 170.795 77.3456Z" fill="#75AD4B"/>
<path d="M105.558 23.0434C101.942 26.9173 98.9275 30.9249 94.1721 32.9955C89.3496 35.1328 84.5271 35.5336 79.7717 32.7283C75.619 30.3238 71.6003 27.5185 66.7778 26.3162C62.96 25.3811 59.4102 25.6483 56.0612 26.9173C52.6453 23.3106 50.1001 18.8355 48.8945 14.0264C54.5877 11.3547 60.8837 10.4196 67.3136 11.4215C72.8059 12.2898 77.9632 14.5607 82.8527 17.4328C86.7374 19.7038 90.5552 22.2419 94.7749 24.0453C97.521 25.2475 100.066 25.1139 102.745 23.8449C103.415 23.5109 104.085 22.7762 105.558 23.0434Z" fill="url(#paint0_linear_1190_9002)"/>
<path d="M95.7116 125.102C91.7599 128.241 88.5449 132.115 83.8564 134.32C76.6227 126.438 69.9918 118.223 66.375 108.337C67.3127 107.202 68.3174 106.133 69.523 105.198C72.537 102.727 75.9529 101.324 79.4358 100.79C80.4405 104.33 82.115 107.87 84.3253 111.343C87.4063 116.352 91.358 120.761 95.7116 125.102Z" fill="url(#paint1_linear_1190_9002)"/>
<path d="M128.6 153.823C128.332 154.758 127.93 155.56 127.461 156.361C124.112 157.229 120.629 157.096 117.146 156.094C111.386 154.424 106.095 151.953 100.938 148.613C100.938 148.146 101.004 147.678 101.071 147.211C104.353 144.338 107.568 141.533 110.649 138.728C111.453 137.993 112.123 137.993 113.128 138.461C115.204 139.463 117.414 140.331 119.558 141.266C121.366 142.068 122.973 142.134 124.447 141.667C128.131 144.873 129.872 149.482 128.6 153.823Z" fill="url(#paint2_linear_1190_9002)"/>
<defs>
<linearGradient id="paint0_linear_1190_9002" x1="48.8835" y1="22.8955" x2="105.581" y2="22.8955" gradientUnits="userSpaceOnUse">
<stop stop-color="#75AD4B" stop-opacity="0"/>
<stop offset="1" stop-color="#0B4E14"/>
</linearGradient>
<linearGradient id="paint1_linear_1190_9002" x1="69.7938" y1="111.233" x2="95.6158" y2="125.132" gradientUnits="userSpaceOnUse">
<stop stop-color="#75AD4B" stop-opacity="0"/>
<stop offset="1" stop-color="#0B4E14"/>
</linearGradient>
<linearGradient id="paint2_linear_1190_9002" x1="130.475" y1="149.985" x2="102.232" y2="144.944" gradientUnits="userSpaceOnUse">
<stop stop-color="#75AD4B" stop-opacity="0"/>
<stop offset="1" stop-color="#0B4E14"/>
</linearGradient>
</defs>
</svg>
