<svg width="15" height="18" viewBox="0 0 15 18" fill="none" xmlns="http://www.w3.org/2000/svg">
<path d="M9.20927 0.5H2.54102C1.97743 0.5 1.43693 0.723883 1.03841 1.1224C0.639899 1.52091 0.416016 2.06141 0.416016 2.625V17.5H14.5827V5.87342L9.20927 0.5ZM9.62435 2.91825L12.1644 5.45833H9.62435V2.91825ZM1.83268 16.0833V2.625C1.83268 2.43714 1.90731 2.25697 2.04015 2.12413C2.17299 1.99129 2.35315 1.91667 2.54102 1.91667H8.20768V6.875H13.166V16.0833H1.83268ZM8.20768 10.4167H10.3327V11.8333H8.20768V13.9583H6.79102V11.8333H4.66602V10.4167H6.79102V8.29167H8.20768V10.4167Z" fill="#0D7B7D"/>
</svg>
