<svg width="18" height="18" viewBox="0 0 18 18" fill="none" xmlns="http://www.w3.org/2000/svg">
<g clip-path="url(#clip0_510_4950)">
<path d="M2.68578 8.06789C3.19872 4.58217 6.44026 2.17225 9.92598 2.68519C11.1152 2.86019 12.2308 3.36763 13.1443 4.14907L12.322 4.97136C12.0464 5.24704 12.0465 5.69397 12.3222 5.96958C12.4545 6.10186 12.6339 6.17621 12.821 6.17624H16.0581C16.4479 6.17624 16.7639 5.86023 16.7639 5.47041V2.2334C16.7638 1.84357 16.4477 1.52763 16.0579 1.5277C15.8708 1.52773 15.6913 1.60208 15.559 1.73436L14.6414 2.65194C11.1421 -0.467281 5.77681 -0.159247 2.65759 3.33997C1.55254 4.57962 0.83542 6.11622 0.59508 7.75942C0.500321 8.34198 0.895737 8.89105 1.47826 8.98581C1.53073 8.99434 1.58374 8.99894 1.63691 8.9996C2.16986 8.99384 2.61722 8.59644 2.68578 8.06789Z" fill="#0D7B7D"/>
<path d="M16.3623 8.99951C15.8293 9.00527 15.3819 9.40267 15.3134 9.93122C14.8005 13.4169 11.5589 15.8268 8.07319 15.3139C6.88393 15.1389 5.76832 14.6315 4.85487 13.8501L5.67717 13.0278C5.95278 12.7521 5.95271 12.3052 5.677 12.0296C5.54469 11.8973 5.36523 11.8229 5.17813 11.8229H1.94118C1.55136 11.8229 1.23535 12.1389 1.23535 12.5287V15.7657C1.23545 16.1556 1.55153 16.4715 1.94135 16.4714C2.12845 16.4714 2.30791 16.3971 2.44023 16.2648L3.35781 15.3472C6.8562 18.4667 12.2211 18.1597 15.3407 14.6612C16.4464 13.4213 17.1638 11.8842 17.4041 10.2404C17.4992 9.65793 17.1042 9.1086 16.5217 9.01344C16.469 9.00481 16.4157 9.00014 16.3623 8.99951Z" fill="#0D7B7D"/>
</g>
<defs>
<clipPath id="clip0_510_4950">
<rect width="17" height="17" fill="white" transform="translate(0.5 0.5)"/>
</clipPath>
</defs>
</svg>
