<svg width="15" height="15" viewBox="0 0 15 15" fill="none" xmlns="http://www.w3.org/2000/svg">
<path d="M3.94264 0.627774C3.94264 0.281064 3.66158 0 3.31487 0C2.96816 0 2.68709 0.281064 2.68709 0.627774V2.14818C1.43734 2.32487 0.450024 3.31335 0.282888 4.57424L0.210442 5.12078C0.198159 5.21344 0.186414 5.30616 0.175207 5.39892C0.145479 5.64498 0.33934 5.85922 0.58719 5.85922H14.4128C14.6607 5.85922 14.8545 5.64498 14.8248 5.39892C14.8136 5.30616 14.8018 5.21344 14.7896 5.12078L14.7171 4.57424C14.55 3.31336 13.5627 2.32489 12.313 2.14819V0.627774C12.313 0.281064 12.0319 0 11.6852 0C11.3385 0 11.0574 0.281064 11.0574 0.627774V2.02364C8.69051 1.81285 6.30954 1.81284 3.94264 2.02363V0.627774Z" fill="#F5F5F5"/>
<path d="M14.9869 7.51282C14.9796 7.28981 14.7953 7.11477 14.5722 7.11477H0.427834C0.204705 7.11477 0.0204195 7.28981 0.0130916 7.51282C-0.0366268 9.02589 0.0552808 10.5421 0.28859 12.0414C0.465212 13.1765 1.38733 14.0483 2.5305 14.161L3.52909 14.2595C6.16996 14.5199 8.83004 14.5199 11.4709 14.2595L12.4695 14.161C13.6127 14.0483 14.5348 13.1765 14.7114 12.0414C14.9447 10.5421 15.0366 9.02589 14.9869 7.51282Z" fill="#F5F5F5"/>
</svg>
