<svg width="103" height="103" viewBox="0 0 103 103" fill="none" xmlns="http://www.w3.org/2000/svg">
<path d="M93.6652 5.15V84.0094H9.33398V22.2094L31.5434 0H88.6762C91.4121 0 93.6652 2.41406 93.6652 5.15Z" fill="#EAEAEA"/>
<path d="M26.8764 22.2094H9.49512L31.5436 0L31.3826 17.3813C31.5436 20.1172 29.4514 22.2094 26.8764 22.2094Z" fill="#DADEDE"/>
<path d="M59.7082 45.0626C55.041 40.5564 51.6613 35.4064 51.6613 35.4064C52.9488 33.4751 56.0066 22.3704 51.3395 19.1517C46.6723 15.9329 44.2582 21.8876 44.2582 21.8876C42.166 29.2907 47.1551 36.0501 47.1551 36.0501L41.5223 48.4423C40.8785 48.4423 23.0145 55.3626 29.1301 63.8923C35.4066 72.422 44.0973 51.822 44.0973 51.822C47.477 50.6954 57.777 49.247 57.777 49.247C61.8004 54.7189 66.6285 56.4892 66.6285 56.4892C74.0316 58.4204 74.8363 52.3048 74.8363 52.3048C74.9973 44.2579 59.7082 45.0626 59.7082 45.0626ZM32.1879 60.9954C32.027 60.9954 32.027 60.8345 32.027 60.8345C31.0613 58.5814 38.4645 54.236 38.4645 54.236C38.4645 54.236 34.441 61.961 32.1879 60.9954ZM48.9254 22.0485C51.0176 23.9798 49.2473 30.5782 49.2473 30.5782C49.2473 30.5782 46.8332 23.9798 48.9254 22.0485ZM46.9941 46.9939L49.891 39.9126L54.3973 45.3845L46.9941 46.9939ZM70.8129 52.1439C69.5254 54.236 64.2145 49.7298 63.7316 49.247C64.5363 49.247 71.4566 49.7298 70.8129 52.1439ZM93.666 78.8595V97.8501C93.666 100.586 91.4129 103 88.516 103H14.3238C11.5879 103 9.17383 100.747 9.17383 97.8501V78.8595H93.666Z" fill="#F26B6B"/>
<path d="M44.902 87.2282C44.902 88.5157 44.4191 89.4813 43.6145 90.286C42.8098 90.9297 41.5223 91.2516 39.9129 91.2516H38.6254V95.9188H36.5332V83.5266H40.2348C41.8441 83.5266 42.9707 83.8485 43.7754 84.4922C44.5801 85.136 44.902 85.9407 44.902 87.2282ZM38.7863 89.6422H39.9129C40.8785 89.6422 41.6832 89.4813 42.166 89.1594C42.6488 88.8375 42.9707 88.1938 42.9707 87.3891C42.9707 86.7454 42.8098 86.1016 42.327 85.7797C41.8441 85.4579 41.2004 85.2969 40.2348 85.2969H38.7863V89.6422ZM57.616 89.6422C57.616 91.7344 56.9723 93.3438 55.8457 94.3094C54.7191 95.436 53.1098 95.9188 50.8566 95.9188H47.316V83.5266H51.1785C53.1098 83.5266 54.7191 84.0094 55.8457 85.136C56.9723 86.1016 57.616 87.711 57.616 89.6422ZM55.3629 89.6422C55.3629 86.5844 53.9145 85.136 51.1785 85.136H49.4082V94.1485H50.8566C53.9145 94.3094 55.3629 92.7 55.3629 89.6422ZM62.2832 95.9188H60.191V83.5266H67.2723V85.2969H62.2832V89.1594H66.9504V90.9297H62.2832V95.9188Z" fill="#EFF2F3"/>
</svg>
