<svg width="28" height="28" viewBox="0 0 28 28" fill="none" xmlns="http://www.w3.org/2000/svg">
<circle cx="14" cy="14" r="13" stroke="#00467C" stroke-width="2"/>
<path d="M10.487 21.4528C10.1849 21.7361 10.1696 22.2108 10.4528 22.513C10.7361 22.8151 11.2108 22.8305 11.513 22.5472L10.487 21.4528ZM19 14.5L19.513 15.0472L20.0966 14.5L19.513 13.9528L19 14.5ZM11.513 6.45285C11.2108 6.16955 10.7361 6.18486 10.4528 6.48704C10.1695 6.78923 10.1849 7.26386 10.487 7.54715L11.513 6.45285ZM11.513 22.5472L19.513 15.0472L18.487 13.9528L10.487 21.4528L11.513 22.5472ZM19.513 13.9528L11.513 6.45285L10.487 7.54715L18.487 15.0472L19.513 13.9528Z" fill="#00467C"/>
</svg>
