<svg width="100" height="100" viewBox="0 0 100 100" fill="none" xmlns="http://www.w3.org/2000/svg">
<path d="M52.9919 46.9636L52.9919 3.22302C52.9782 2.43524 52.6557 1.68436 52.0937 1.13209C51.5318 0.579823 50.7754 0.270362 49.9875 0.270361C49.1996 0.270361 48.4432 0.579821 47.8813 1.13209C47.3193 1.68436 46.9967 2.43525 46.9831 3.22303L46.9831 46.9636L3.24251 46.9636C2.45473 46.9773 1.70384 47.2998 1.15158 47.8618C0.599309 48.4237 0.28985 49.1801 0.28985 49.968C0.28985 50.7559 0.599309 51.5123 1.15158 52.0742C1.70384 52.6362 2.45473 52.9587 3.24251 52.9724L46.9831 52.9724L46.9831 96.713C46.9832 97.5098 47.2998 98.2739 47.8632 98.8373C48.4266 99.4007 49.1907 99.7173 49.9875 99.7174C50.7843 99.7173 51.5484 99.4007 52.1118 98.8373C52.6752 98.2739 52.9918 97.5098 52.9919 96.713L52.9919 52.9724L96.7325 52.9724C97.5292 52.9723 98.2934 52.6557 98.8568 52.0923C99.4202 51.5289 99.7368 50.7648 99.7369 49.968C99.7368 49.1712 99.4202 48.4071 98.8568 47.8437C98.2934 47.2803 97.5292 46.9637 96.7325 46.9636L52.9919 46.9636Z" fill="#ED8E00"/>
</svg>
