<svg width="138" height="41" viewBox="0 0 138 41" fill="none" xmlns="http://www.w3.org/2000/svg">
<g clip-path="url(#clip0_166_404)">
<path d="M133.83 29.81H45.01V29.06H133.83C134.478 29.06 135.1 28.8032 135.559 28.3459C136.018 27.8886 136.277 27.268 136.28 26.62V3.19998C136.28 2.5502 136.022 1.92705 135.562 1.46759C135.103 1.00813 134.48 0.75 133.83 0.75H45.01V0H133.83C134.679 0 135.493 0.337139 136.093 0.937256C136.693 1.53737 137.03 2.35129 137.03 3.19998V26.62C137.03 27.0397 136.947 27.4554 136.786 27.843C136.625 28.2307 136.389 28.5828 136.092 28.8792C135.795 29.1755 135.442 29.4103 135.054 29.57C134.666 29.7298 134.25 29.8113 133.83 29.81Z" fill="white"/>
<path d="M37.82 29.81H2.92C2.14557 29.81 1.40285 29.5023 0.85524 28.9547C0.307634 28.4071 0 27.6644 0 26.89V2.88998C-4.51577e-06 2.11463 0.307309 1.37088 0.85463 0.821686C1.40195 0.272491 2.14465 -0.0373623 2.92 -0.0400085H37.82C38.5963 -0.0373726 39.34 0.272164 39.8889 0.821075C40.4378 1.36999 40.7474 2.11371 40.75 2.88998V26.89C40.7474 27.6653 40.4375 28.408 39.8883 28.9554C39.3391 29.5027 38.5953 29.81 37.82 29.81ZM2.92 0.709991C2.34356 0.712636 1.79163 0.943477 1.38496 1.35202C0.978295 1.76056 0.749994 2.31354 0.75 2.88998V26.89C0.75 27.4655 0.97862 28.0175 1.38557 28.4244C1.79253 28.8314 2.34448 29.06 2.92 29.06H37.82C38.3964 29.06 38.9494 28.8317 39.358 28.425C39.7665 28.0183 39.9974 27.4664 40 26.89V2.88998C39.9974 2.31262 39.7668 1.75967 39.3586 1.35141C38.9503 0.943149 38.3974 0.712622 37.82 0.709991H2.92Z" fill="white"/>
<path d="M27.52 40.4H13.22C13.0228 40.3974 12.8346 40.3172 12.6961 40.1768C12.5576 40.0364 12.48 39.8472 12.48 39.65L13.24 32.28L13.98 32.36L13.22 39.69H27.52L26.52 32.41L27.26 32.31L28.26 39.64C28.2613 39.7385 28.2432 39.8363 28.2067 39.9278C28.1703 40.0193 28.1161 40.1027 28.0474 40.1732C27.9787 40.2438 27.8967 40.3002 27.8062 40.3391C27.7157 40.378 27.6185 40.3987 27.52 40.4Z" fill="white"/>
<path d="M20.37 17.47L4.37 12.42L20.55 6.60001L35.18 12.43L20.37 17.47ZM6.73999 12.38L20.37 16.71L33.05 12.39L20.56 7.38998L6.73999 12.38Z" fill="white"/>
<path d="M28.99 16.36H28.24V14.13L20.13 12.16L20.3 11.43L28.99 13.54V16.36Z" fill="white"/>
<path d="M19.77 22.6C17.623 22.6294 15.5306 21.9237 13.84 20.6L13.71 20.49V15.32H14.46V20.15C15.24 20.79 19.46 23.81 25.59 20.15V15.35H26.34V20.57L26.17 20.67C24.2625 21.9065 22.043 22.5758 19.77 22.6Z" fill="white"/>
<path d="M17.89 18.76H17.14V21.88H17.89V18.76Z" fill="white"/>
<path d="M19.51 19.48H18.76V22.36H19.51V19.48Z" fill="white"/>
<path d="M28.65 17.71C28.4522 17.71 28.2589 17.6513 28.0945 17.5415C27.93 17.4316 27.8018 17.2754 27.7262 17.0927C27.6505 16.91 27.6307 16.7089 27.6692 16.5149C27.7078 16.3209 27.8031 16.1427 27.9429 16.0029C28.0828 15.863 28.261 15.7678 28.4549 15.7292C28.6489 15.6906 28.85 15.7104 29.0327 15.7861C29.2154 15.8618 29.3716 15.99 29.4815 16.1544C29.5914 16.3189 29.65 16.5122 29.65 16.71C29.65 16.9752 29.5447 17.2295 29.3571 17.4171C29.1696 17.6046 28.9152 17.71 28.65 17.71ZM28.65 16.52C28.5917 16.52 28.5357 16.5432 28.4945 16.5844C28.4532 16.6257 28.43 16.6816 28.43 16.74C28.43 16.98 28.87 16.98 28.87 16.74C28.8714 16.7103 28.8667 16.6806 28.8562 16.6527C28.8458 16.6249 28.8298 16.5994 28.8092 16.5779C28.7887 16.5564 28.764 16.5393 28.7366 16.5276C28.7092 16.516 28.6798 16.5099 28.65 16.51V16.52Z" fill="white"/>
<path d="M28.65 21.76C28.2 21.76 27.98 21.21 27.77 20.35V20.28L28.07 17.35H28.45V17.26L29.2 17.18L29.49 20.18C29.28 21.69 28.85 21.71 28.69 21.71L28.65 21.76ZM28.52 20.24C28.552 20.3822 28.5921 20.5224 28.64 20.66C28.64 20.52 28.71 20.36 28.73 20.21L28.63 19.21L28.52 20.24Z" fill="white"/>
<path d="M52.9 12.46H55.01L57.08 17.58L58.21 9.95999H60.7L58.5 21.04H56.37L53.97 14.96L51.57 21.04H49.44L47.25 9.95999H49.65L50.81 17.58L52.9 12.46Z" fill="white"/>
<path d="M70.96 9.95999V12.17H65.78V14.41H70.36V16.62H65.78V18.83H70.96V21.04H63.41V9.95999H70.96Z" fill="white"/>
<path d="M83.1299 18C83.1299 20.19 81.32 21 79 21H74.0699V9.95999H78.72C81.43 9.95999 82.81 10.96 82.81 12.96C82.8949 13.5287 82.7617 14.1086 82.4372 14.5833C82.1127 15.058 81.6207 15.3926 81.06 15.52C81.6596 15.5833 82.2111 15.8776 82.5975 16.3405C82.9839 16.8035 83.1749 17.3987 83.1299 18ZM76.4299 12V14.56H78.8199C79.8199 14.56 80.4799 14.27 80.4799 13.33C80.4799 12.39 79.88 12 78.72 12H76.4299ZM76.4299 19H79C80.16 19 80.7899 18.65 80.7899 17.68C80.7899 16.9 80.3399 16.36 79.0099 16.36H76.4299V19Z" fill="white"/>
<path d="M86.05 21.04V9.95999H88.4201V21.04H86.05Z" fill="white"/>
<path d="M99.38 9.95999H101.65V21.04H99.55L94.19 14.04V21.04H91.88V9.95999H93.98L99.34 17.01L99.38 9.95999Z" fill="white"/>
<path d="M115.85 21.04H113.35L112.45 18.72H107.65L106.77 21.04H104.28L108.79 9.95999H111.34L115.85 21.04ZM110.05 12.4L108.39 16.64H111.7L110.05 12.4Z" fill="white"/>
<path d="M125 21.04L122.76 17.46H120.76V21.04H118.39V9.95999H122.94C125.77 9.95999 127.36 11.39 127.36 13.74C127.409 14.486 127.204 15.2265 126.779 15.8418C126.355 16.457 125.735 16.9109 125.02 17.13L127.63 21.02L125 21.04ZM120.77 12.09V15.42H122.95C124.21 15.42 125 14.96 125 13.76C125 12.59 124.21 12.11 122.95 12.11L120.77 12.09Z" fill="white"/>
</g>
<defs>
<clipPath id="clip0_166_404">
<rect width="137.04" height="40.39" fill="white"/>
</clipPath>
</defs>
</svg>
