<svg width="520" height="253" viewBox="0 0 520 253" fill="none" xmlns="http://www.w3.org/2000/svg">
<g clip-path="url(#clip0_153_421)">
<path d="M218.02 16.04H65.1599C66.6499 10.6 68.0799 5.36002 69.5499 0.0400162H251.03C250.25 2.98002 249.52 5.82001 248.75 8.66001C248.13 10.96 246.23 12.3 244.58 13.66C239.34 18.06 234.83 23.18 229.93 27.91C222.46 35.12 215.23 42.59 207.6 49.62C201.05 55.62 195.13 62.3 188.52 68.23C182.27 73.85 176.69 80.16 170.52 85.82C166.65 89.35 162.98 93.06 159.22 96.7C158.998 96.9695 158.72 97.1884 158.406 97.3419C158.092 97.4954 157.749 97.58 157.4 97.59C149.86 97.59 142.33 97.59 134.4 97.59C136.53 94.82 139.13 93.04 141.35 90.87C145.72 86.59 149.81 82 154.35 77.94C160.13 72.82 165.18 66.94 170.94 61.88C176.06 57.34 180.56 52.19 185.64 47.64C191.73 42.18 197.2 36.08 203.25 30.59C207.96 26.33 212.25 21.7 216.86 17.31C217.19 16.99 217.47 16.64 218.02 16.04Z" fill="#E3232A"/>
<path d="M0 237.43C0.88 234.17 1.7 231.25 2.43 228.31C2.64354 227.629 3.04995 227.025 3.6 226.57C11.79 218.37 20.21 210.41 28.52 202.34C33.75 197.26 38.75 191.94 44.17 187.07C50.38 181.5 55.91 175.24 62.1 169.67C67.76 164.57 72.88 158.94 78.45 153.77C80.27 152.09 82.16 150.45 84.04 148.77C84.78 149.64 84.43 150.56 84.44 151.36C84.44 157.41 84.44 163.45 84.44 169.5C84.483 170.082 84.3948 170.666 84.1819 171.21C83.9691 171.753 83.6369 172.242 83.21 172.64C72.64 182.82 62.21 193.17 51.5 203.19C46.87 207.53 42.5 212.07 37.89 216.47C36.28 218.02 34.16 219.07 32.82 221.37H192.45C192.14 224.55 190.95 227.28 190.32 230.14C189.89 232.03 189.22 233.87 188.78 235.76C188.48 237.06 187.87 237.71 186.49 237.48C186.157 237.452 185.823 237.452 185.49 237.48H0V237.43Z" fill="#E3232A"/>
<path d="M336.8 180.15C336.375 179.434 336.222 178.589 336.37 177.77C336.37 155.9 336.37 134.03 336.32 112.17C336.32 109.98 336.85 109.48 339.12 109.08C343.81 108.26 345.38 111.72 347.5 114.32C354.74 123.2 361.85 132.2 368.96 141.2C374.9 148.72 380.76 156.31 386.67 163.87C387.2 164.55 387.79 165.18 388.39 165.87C389.18 165.18 388.92 164.5 388.92 163.94C388.92 146.6 388.92 129.27 388.85 111.94C388.85 109.71 389.48 109.09 391.67 109.17C396.36 109.35 396.36 109.24 396.36 113.84V179.96C392.99 180.29 390.36 180.53 388.03 177.31C382.98 170.31 377.41 163.65 372.03 156.89C365.44 148.67 358.78 140.5 352.19 132.28C349.95 129.47 347.85 126.54 345.65 123.69C345.29 123.23 345.01 122.54 343.83 122.69V125.34C343.83 142.68 343.83 160.01 343.89 177.34C343.89 179.53 343.3 180.34 341.1 180.16C339.668 180.081 338.233 180.078 336.8 180.15Z" fill="#4BC3E7"/>
<path d="M106.5 147.64V172.8C107.37 173.46 108.36 173.17 109.28 173.17C122.1 173.17 134.91 173.23 147.73 173.17C149.86 173.17 150.47 173.78 150.38 175.87C150.17 180.62 151.16 180.16 146.03 180.17H99.31C98.61 178.75 99 177.47 98.99 176.23C98.99 154.84 98.99 133.44 98.93 112.05C98.93 109.94 99.37 109.18 101.68 109.19C116.89 109.31 132.09 109.25 147.3 109.26C148.124 109.124 148.969 109.221 149.74 109.54V116.15H106.51V140.65H144.78C145.36 143.06 144.97 145.24 145.12 147.65L106.5 147.64Z" fill="#4BC3E7"/>
<path d="M267.6 147.64V172.8C268.47 173.46 269.45 173.17 270.37 173.17C283.19 173.17 296 173.23 308.82 173.17C310.95 173.17 311.56 173.78 311.47 175.87C311.26 180.62 312.25 180.16 307.12 180.17H260.41C259.7 178.75 260.09 177.47 260.09 176.23C260.09 154.84 260.09 133.44 260.03 112.05C260.03 109.94 260.46 109.18 262.78 109.19C277.98 109.31 293.18 109.25 308.39 109.26C309.214 109.124 310.059 109.221 310.83 109.54V116.15H267.61V140.65H305.9C306.48 143.06 306.09 145.24 306.25 147.65L267.6 147.64Z" fill="#4BC3E7"/>
<path d="M169.27 109.22C171.8 109.22 173.95 109.32 176.09 109.22C176.685 109.157 177.282 109.312 177.771 109.656C178.26 109.999 178.608 110.509 178.75 111.09C182.897 121.157 187.05 131.223 191.21 141.29C195.003 150.53 198.81 159.783 202.63 169.05C202.78 169.4 202.98 169.73 203.22 170.21C205 167.75 205.71 164.96 206.81 162.35C211.95 150.13 217.05 137.893 222.11 125.64C224.11 120.893 226.023 116.123 227.85 111.33C228.4 109.9 229.13 109.1 230.79 109.2C232.69 109.31 234.6 109.2 236.73 109.2C236.2 112.59 234.46 115.35 233.25 118.27C228.25 130.37 223.02 142.4 217.85 154.44C214.36 162.58 210.75 170.67 207.35 178.84C207.212 179.407 206.866 179.903 206.381 180.228C205.897 180.554 205.308 180.686 204.73 180.6C204.58 180.6 204.42 180.6 204.26 180.6C199.83 180.6 199.83 180.6 198.12 176.6C191.94 162.073 185.757 147.543 179.57 133.01C176.22 125.15 172.8 117.36 169.27 109.22Z" fill="#4BC3E7"/>
<path d="M443.5 116.7H419.5C419.5 114.47 419.43 112.36 419.5 110.26C419.55 108.97 420.67 109.26 421.5 109.26H474.5V116.57H450.84V180C448.4 180.255 445.94 180.255 443.5 180V116.7Z" fill="#4BC3E7"/>
<path d="M480.21 236.09V201.48C484.36 200.48 488.39 200.34 492.35 202.27C496.51 204.27 497.79 208.17 498.57 212.21C499.641 217.799 499.175 223.575 497.22 228.92C496.589 230.878 495.421 232.619 493.849 233.947C492.278 235.274 490.366 236.135 488.33 236.43C485.67 236.94 482.9 237.54 480.21 236.09ZM484.41 204.19V233.57C486.097 233.941 487.861 233.716 489.401 232.934C490.941 232.152 492.164 230.861 492.86 229.28C495.64 223.28 495.55 217.08 494.04 210.84C492.71 205.37 490.05 203.59 484.41 204.15V204.19Z" fill="#3870B2"/>
<path d="M302.97 206.98C302.92 216.77 302.36 226.47 301.81 236.16C301.04 236.9 300.17 236.49 298.96 236.59C299.59 233.25 299.01 229.98 299.56 226.87C300.15 223.57 299.98 220.26 300.23 216.98C300.72 212.721 300.944 208.436 300.9 204.15C300.83 202.84 300.64 201.37 302.66 201.15C304.68 200.93 304.94 201.92 305.37 203.54C307.56 211.81 309.79 220.07 311.6 228.44C311.73 229.01 311.6 230.13 312.98 230.29C313.65 227.08 314.25 223.89 314.98 220.74C316.28 215.25 317.69 209.74 319.03 204.29C319.85 200.89 319.83 200.89 323.69 201.36C324.357 212.96 325.023 224.58 325.69 236.22C324.87 236.8 324.03 236.61 322.77 236.29C322.27 226.94 321.77 217.48 321.28 208.03L320.5 207.92L313.23 235.92C311.63 236.37 311.23 235.76 310.82 234.38C308.45 225.59 306.02 216.81 304.21 207.88C304.14 207.56 304.14 207.22 302.97 206.98Z" fill="#9E9E9D"/>
<path d="M463.12 200.83C464.18 200.83 465.05 200.89 465.91 200.83C467.2 200.71 467.74 201.3 468 202.51C470.48 213.9 473 225.27 475.53 236.8C474.283 237.064 473 237.101 471.74 236.91C471.03 233.78 470.24 230.68 469.68 227.54C469.68 227.306 469.628 227.075 469.528 226.863C469.428 226.651 469.283 226.464 469.102 226.315C468.922 226.166 468.71 226.059 468.483 226.001C468.257 225.943 468.02 225.936 467.79 225.98H461.05C460.26 229.64 459.5 233.14 458.72 236.76C457.6 237.33 456.35 236.89 454.89 236.91C457.63 224.88 460.35 212.98 463.12 200.83ZM465.4 206.15C464.22 211.74 462.72 217.15 461.78 222.66H468.7C467.57 216.98 466.48 211.54 465.4 206.15Z" fill="#3870B2"/>
<path d="M233.62 219.62V236.22C232.574 236.688 231.385 236.728 230.31 236.33V201.55C231.26 200.94 232.26 201.19 233.49 201.37V216.26H244.41V201.55C245.492 201.093 246.706 201.061 247.81 201.46V236.24C246.81 236.84 245.81 236.6 244.62 236.43V219.62H233.62Z" fill="#9E9E9D"/>
<path d="M416.11 232.3C414.26 232.06 412.82 232.13 411.72 233.41C413.528 238.399 413.797 243.817 412.49 248.96C411.8 252.07 409.49 252.86 407.23 251.39C406.888 251.195 406.602 250.915 406.401 250.576C406.199 250.238 406.089 249.854 406.08 249.46C405.92 245.926 406.171 242.386 406.83 238.91C407.13 237.45 407.76 235.76 405.71 234.82C405.07 234.53 404.71 233.69 405.54 233.36C409.01 231.96 408.74 228.7 409.42 225.91C409.74 224.63 410.13 223.36 410.35 222.06C410.54 220.99 411.19 220.82 412.07 220.92C412.95 221.02 413.07 221.66 413.07 222.46C413.16 224.46 412.36 226.28 411.93 228.16C411.55 229.83 411.44 230.24 413.53 230.1C416.02 229.94 417.07 229.04 417.8 226.73C418.29 225.21 418.62 222.83 420.96 222.84C423.3 222.85 423.74 225.13 424.55 226.73C425.92 229.44 424.55 235.3 422.15 237.11C421.637 237.551 421.008 237.836 420.338 237.93C419.668 238.024 418.985 237.923 418.37 237.64C416.68 236.91 416.42 235.35 416.08 233.85C416.039 233.334 416.049 232.814 416.11 232.3ZM422.11 226.1C421.116 227.328 420.377 228.74 419.934 230.256C419.491 231.772 419.354 233.361 419.53 234.93C422.11 232.69 422.5 231.43 422.06 226.15L422.11 226.1ZM410.7 236.44C409.57 238.9 408.88 247.77 409.7 249.08C410.11 244.89 411.77 241 410.65 236.44H410.7Z" fill="#E3232A"/>
<path d="M279.95 236.4C278.862 236.702 277.708 236.667 276.64 236.3V202.08C283.17 200.08 288.71 201.35 291.2 205.66C292.66 208.18 292.56 210.87 291.7 213.66C290.84 216.45 288.7 217.95 286.23 219.61C292.75 223.69 290.91 230.61 293.01 236.12C292.577 236.376 292.095 236.537 291.595 236.594C291.095 236.651 290.589 236.602 290.11 236.45C288.89 233.29 288.56 229.92 287.98 226.62C287.23 222.46 285.66 220.93 282.13 220.83C280.48 220.83 279.87 221.26 279.92 222.97C280.02 226.62 279.92 230.28 279.92 233.97L279.95 236.4ZM280.02 211.05C280.115 212.559 280.115 214.071 280.02 215.58C279.74 217.84 280.64 218.58 282.8 218.34C283.907 218.283 284.984 217.961 285.94 217.4C289.15 215.4 290 208.27 287.39 205.46C286.01 203.98 282.48 202.93 280.85 203.84C279.22 204.75 280.29 206.57 280.09 207.96C279.991 208.987 279.968 210.02 280.02 211.05Z" fill="#9E9E9D"/>
<path d="M502.49 235.96C503.29 234.86 502.73 233.59 503.76 232.67C505.76 234.13 508.29 234.05 510.61 233.67C514.93 232.91 516.5 227 513.68 223.47C511.38 220.6 508.18 218.79 505.75 216.08C502.59 212.55 502.33 208.86 504.31 205.08C506.08 201.64 510.85 199.63 514.64 200.55C515.64 200.81 516.72 201.14 517.76 201.43C517.774 202.667 517.519 203.892 517.01 205.02C515.719 204.346 514.275 204.019 512.82 204.07C510.41 204.07 508.54 204.68 507.6 207.18C507.188 208.271 507.081 209.455 507.293 210.602C507.504 211.75 508.026 212.817 508.8 213.69C510.7 215.83 513.25 217.14 515.34 219.05C521.08 224.29 520.08 233.42 513.25 236.58C509.74 238.15 506.26 237.52 502.49 235.96Z" fill="#3870B2"/>
<path d="M381.22 236.31C380.163 236.684 379.014 236.712 377.94 236.39V201.48C378.994 201.049 380.176 201.049 381.23 201.48V218.02C383.17 217.32 383.5 215.74 384.16 214.56C386.26 210.77 388.29 206.93 390.16 203.02C391.03 201.23 392.16 200.8 394.16 201.51C392.61 204.31 391.47 207.34 389.52 209.71C385.83 214.17 386.03 218.34 388.76 223.17C391.07 227.26 392.66 231.75 394.58 236.07C392.05 236.96 391.66 236.86 390.7 234.65C388.7 230.1 386.84 225.52 384.92 220.96C384.65 220.32 384.56 219.53 383.66 219.42C382.76 219.31 382.55 220.15 382.2 220.72C381.505 221.874 381.158 223.204 381.2 224.55C381.27 228.45 381.22 232.33 381.22 236.31Z" fill="#9E9E9D"/>
<path d="M339.24 201.35C342.8 201.02 342.84 201.01 343.61 204.35C345.95 214.417 348.283 224.497 350.61 234.59C350.67 235.135 350.67 235.685 350.61 236.23C350.208 236.469 349.757 236.613 349.291 236.653C348.825 236.693 348.357 236.627 347.92 236.46C347.23 233.46 346.44 230.46 345.92 227.38C345.68 226.07 345.16 225.63 343.92 225.65C341.55 225.7 339.17 225.65 336.61 225.65C335.82 229.25 335.05 232.75 334.25 236.37C333.47 236.85 332.58 236.7 331.4 236.21C333.9 224.61 336.58 213.03 339.24 201.35ZM337.14 223.06C339.55 223.06 341.36 223.06 343.14 223.06C344.42 223.06 344.86 222.5 344.62 221.29C343.62 216.46 342.42 211.67 341.77 206.77C341.72 206.39 341.49 205.85 340.5 205.84C339.43 211.44 338.32 217.08 337.14 223.06Z" fill="#9E9E9D"/>
<path d="M260.04 233.66H269.9C270.162 234.069 270.321 234.536 270.363 235.02C270.405 235.505 270.328 235.992 270.14 236.44H256.59V201.44H269.12C269.66 202.15 269.43 202.99 269.22 204.07H260.09V216.89H268.46C268.713 217.257 268.871 217.682 268.92 218.125C268.968 218.568 268.907 219.016 268.74 219.43H260.04V233.66Z" fill="#9E9E9D"/>
<path d="M206.78 236.45L220.08 203.73H208.42C208.16 202.3 207.78 201.18 209.64 201.18H223.17C223.406 201.57 223.537 202.015 223.549 202.471C223.561 202.927 223.455 203.378 223.24 203.78C219.36 213.113 215.5 222.427 211.66 231.72C211.429 232.058 211.289 232.45 211.252 232.858C211.215 233.265 211.283 233.676 211.45 234.05H223.15C223.395 234.395 223.538 234.803 223.561 235.226C223.584 235.649 223.487 236.07 223.28 236.44L206.78 236.45Z" fill="#9E9E9D"/>
<path d="M449.69 236.91H445.95V201.01C447.178 200.738 448.445 200.691 449.69 200.87V236.91Z" fill="#3870B2"/>
<path d="M370.9 233.89C371.81 235.48 371.9 236.28 369.66 236.74C363.91 237.95 358.74 234.97 356.77 228.53C354.48 221.04 354.65 213.62 358.4 206.53C360.63 202.3 367.14 199.02 371.32 201.62C371.52 203.16 370.88 203.69 369.23 203.71C363.1 203.78 360.05 206.81 359.23 213.07C358.483 217.512 358.585 222.056 359.53 226.46C361.08 232.97 363.98 234.84 370.9 233.89Z" fill="#9E9E9D"/>
<path d="M430.49 227.91C432.34 226.91 433.65 224 436.77 225.91C433.06 228.7 430.37 231.79 429.67 236.26C429.54 237.06 429.12 238.26 427.78 237.93C427.506 237.886 427.243 237.785 427.01 237.634C426.777 237.483 426.578 237.285 426.425 237.052C426.273 236.82 426.171 236.558 426.125 236.284C426.079 236.01 426.091 235.729 426.16 235.46C426.64 231.91 427.1 228.35 427.65 224.8C427.76 224.07 428.06 223.15 429.14 223.37C429.57 223.439 429.965 223.646 430.267 223.96C430.568 224.274 430.759 224.678 430.81 225.11C431.03 226.06 429.9 226.81 430.49 227.91Z" fill="#E3232A"/>
</g>
<defs>
<clipPath id="clip0_153_421">
<rect width="519.08" height="252.11" fill="white"/>
</clipPath>
</defs>
</svg>
