<svg width="287" height="59" viewBox="0 0 287 59" fill="none" xmlns="http://www.w3.org/2000/svg">
<g clip-path="url(#clip0_153_404)">
<path d="M225.038 31.4058C228.03 29.0762 230.824 26.8921 233.621 24.7254C243.747 16.8564 253.878 8.98242 264.015 1.10338C264.778 0.46564 265.749 0.126637 266.747 0.150468C273.075 0.198114 279.386 0.173036 285.707 0.173036H287C286.927 0.624413 286.59 0.749796 286.352 0.925331C273.508 10.9158 260.661 20.8988 247.81 30.8742C247.374 31.2127 246.962 31.4735 246.349 31.471C239.482 31.4485 232.614 31.4585 225.744 31.456C225.595 31.4585 225.445 31.4359 225.038 31.4058Z" fill="#E1011B"/>
<path d="M137.063 31.4108H130.122C131.056 27.7597 131.977 24.1788 132.906 20.5978C133.205 19.4293 133.575 18.2732 133.633 17.0595C133.706 15.4597 132.904 14.5745 131.284 14.414C129.152 14.1983 127.532 15.1161 126.221 16.6709C124.874 18.2808 124.221 20.2117 123.69 22.1877C122.882 25.237 122.082 28.2888 121.265 31.3833H114.336C114.336 30.473 114.713 29.6404 114.929 28.7853C115.749 25.5254 116.614 22.2654 117.46 19.0055C117.53 18.7232 117.58 18.4367 117.612 18.1479C117.971 15.0208 116.23 13.6341 113.167 14.6372C110.562 15.4923 109.167 17.4783 108.471 19.9509C107.489 23.434 106.638 26.9447 105.727 30.4554C105.644 30.7764 105.547 31.0924 105.456 31.4033H98.5051C100.328 24.2364 102.133 17.1498 103.948 10.0256H110.23C110.357 10.9308 109.754 11.7383 109.8 12.8091C112.286 10.2362 115.285 9.48142 118.629 9.69457C121.523 9.88014 123.133 11.0236 124.115 13.6617C124.396 13.7971 124.467 13.5338 124.586 13.4109C127.416 10.166 131.056 9.14791 135.179 9.9002C139.483 10.6851 141.364 13.5839 140.513 17.8344C139.597 22.4034 138.177 26.8494 137.063 31.4108Z" fill="white"/>
<path d="M0 31.4033C0.361984 29.8536 0.711313 28.3941 1.03026 26.9397C1.16443 26.3303 1.55678 25.9191 1.96686 25.4953C8.25981 18.9904 14.5494 12.4831 20.8356 5.97323C21.1469 5.64974 21.4456 5.31622 21.9139 4.81218H6.79163C7.23461 3.11952 7.63963 1.57982 8.0573 0H32.5558C32.2191 1.50459 31.8875 3.00918 31.5584 4.48619C31.442 5.0128 31.0192 5.32124 30.6724 5.67732L11.4341 25.3649C11.1531 25.6508 10.8924 25.9542 10.4697 26.4181H26.3944C25.9692 28.1534 25.5768 29.7558 25.1718 31.4033H0Z" fill="white"/>
<path d="M216.016 9.97042L203.255 19.8957C206.779 25.4125 210.29 30.9294 213.965 36.6744C212.14 36.6744 210.512 36.5139 208.93 36.7145C206.883 36.9653 205.807 36.1854 204.83 34.4275C202.481 30.2047 199.878 26.1197 197.377 21.9796C197.167 21.6335 196.934 21.3 196.618 20.8035C195.674 24.4346 194.78 27.8751 193.866 31.3833H186.882C189.582 20.9765 192.273 10.5881 194.955 0.21817H201.977C200.458 5.98577 198.977 11.6882 197.484 17.4056C197.96 17.5611 198.129 17.21 198.354 17.0295C201.05 14.8954 203.744 12.7664 206.414 10.5948C206.918 10.1591 207.571 9.9304 208.239 9.95538C210.7 9.9955 213.165 9.97042 216.016 9.97042Z" fill="white"/>
<path d="M39.7878 11.7834C42.7217 9.77732 45.9593 9.24068 49.407 9.94031C53.0724 10.6926 55.0266 13.1752 54.9102 16.889C54.7937 20.6028 53.4951 24.0559 52.7357 27.6293C52.4674 28.8831 52.1231 30.1369 51.8042 31.4183H44.7366C45.6302 27.8274 46.5086 24.2966 47.3819 20.7558C47.6251 19.7876 47.8119 18.8063 47.9413 17.8168C48.1616 16.0239 47.1667 14.7074 45.3695 14.429C42.461 13.9801 40.3068 15.2114 38.6943 17.5184C37.5932 19.0907 37.1755 20.9238 36.6844 22.7318C35.9149 25.6207 35.1496 28.5136 34.3885 31.4108H27.407C30.0928 20.9614 32.7608 10.5848 35.4288 0.210632H42.4382L39.5372 11.5703C39.4689 11.7007 39.4107 11.8436 39.5626 11.9414C39.5853 11.9615 39.7094 11.8411 39.7878 11.7834Z" fill="white"/>
<path d="M259.423 0.17301L247.361 9.54661C244.018 12.1445 240.674 14.7433 237.327 17.3429C236.926 17.7056 236.405 17.9107 235.862 17.9197C228.991 17.8971 222.124 17.9046 215.254 17.9021C215.13 17.8919 215.007 17.8718 214.887 17.8419C214.991 17.3404 215.428 17.2 215.735 16.9617C222.654 11.5753 229.573 6.19639 236.492 0.825001C236.915 0.499006 237.297 0.157968 237.927 0.160475C244.969 0.183044 252.007 0.17301 259.423 0.17301Z" fill="#E1011B"/>
<path d="M80.8489 22.471H62.8181C62.9776 25.4175 64.4154 26.9447 67.4024 27.4462C70.5058 27.9477 73.5207 27.5766 76.4773 26.5836C76.9101 26.4381 77.3379 26.2701 77.8948 26.0645C77.9581 27.5967 77.4721 28.9684 77.3304 30.3777C77.2974 30.6886 76.9987 30.7062 76.7557 30.7663C72.3891 31.8095 67.9998 32.5593 63.5496 31.3005C57.4643 29.5802 54.9405 24.8558 57.0238 18.9202C58.9071 13.5237 62.9624 10.645 68.5516 9.71212C70.9659 9.28348 73.4479 9.42089 75.7989 10.1133C80.2212 11.4499 82.145 14.7926 81.3805 19.7778C81.2388 20.6254 81.0413 21.478 80.8489 22.471ZM75.2496 18.4488C75.6445 15.407 74.5332 13.935 71.6247 13.594C70.2842 13.4321 68.9248 13.6431 67.6985 14.2033C65.8304 15.0434 64.6229 16.4602 63.8838 18.4488H75.2496Z" fill="white"/>
<path d="M162.29 31.4208H156.407C156.554 30.5858 156.691 29.8009 156.881 28.7276C153.876 31.3782 150.54 32.0377 146.927 31.7042C145.453 31.5973 144.03 31.12 142.794 30.3175C139.685 28.2336 139.516 23.943 142.48 21.4103C144.773 19.4493 147.606 18.8224 150.509 18.4488C153.317 18.0877 156.131 18.183 158.936 18.4488C159.473 15.6628 158.086 13.9651 155.071 13.7093C152.056 13.4535 149.127 14.0453 146.285 15.0334C145.852 15.1838 145.424 15.3493 144.766 15.5951C145.115 13.9877 145.419 12.5533 145.743 11.1239C145.806 10.8481 146.072 10.7729 146.328 10.7227C150.843 9.81493 155.375 9.10025 159.956 10.1911C164.328 11.2292 166.161 14.1231 165.287 18.4663C164.414 22.8096 162.926 26.9447 162.29 31.4208ZM157.987 21.809C156.769 21.809 155.559 21.7438 154.357 21.8216C152.383 21.952 150.401 22.145 148.659 23.2158C147.692 23.8101 147.14 24.6577 147.373 25.8388C147.606 27.0199 148.431 27.4939 149.484 27.6995C153.342 28.4493 157.296 25.7335 157.997 21.809H157.987Z" fill="white"/>
<path d="M188.907 10.6149L187.221 15.0208C186.001 14.7701 184.87 14.4666 183.721 14.3011C179.296 13.6642 175.506 15.9512 174.241 19.9785C172.99 23.9556 175.03 26.8946 179.23 27.1829C181.242 27.3209 183.154 26.8996 185.217 26.057C185.027 27.6218 184.857 29.0035 184.695 30.3877C184.689 30.5317 184.631 30.6687 184.531 30.7733C184.431 30.8779 184.296 30.9432 184.151 30.957C180.632 31.782 177.104 32.2108 173.545 31.2077C168.353 29.7483 165.715 25.3448 166.895 20.1339C168.12 14.7174 172.446 10.8807 178.362 9.9604C181.979 9.40621 186.123 9.64193 188.907 10.6149Z" fill="white"/>
<path d="M92.554 10.0306C92.3008 11.0537 92.0654 11.9565 91.8351 12.8618C91.8857 12.9746 91.9363 13.09 91.9895 13.2028C94.774 10.3967 97.9609 9.03508 101.986 9.95539L100.642 15.1813C99.8088 15.0885 99.0317 14.9456 98.2521 14.9306C94.8499 14.8603 92.478 16.4527 91.0681 19.4569C89.7821 22.1902 89.3569 25.1818 88.5367 28.0531C88.2304 29.1339 87.9823 30.2272 87.6862 31.3858H80.5984L85.9826 10.0331L92.554 10.0306Z" fill="white"/>
<path d="M0.76709 58.6539C1.77963 53.3879 2.76686 48.3375 3.72878 43.277C3.81485 42.8256 3.89838 42.5247 4.45528 42.4545C6.51327 42.2037 8.5662 42.0533 10.6166 42.4871C14.0744 43.2193 15.9628 45.9276 15.6186 49.6289C15.1123 55.1332 11.6798 58.4057 6.10825 58.7542C4.37174 58.8596 2.67067 58.7317 0.76709 58.6539ZM3.16935 56.9211C8.62695 57.8991 12.4037 55.4466 13.3074 50.494C14.0339 46.5169 12.2544 44.077 8.5257 43.9315C5.72602 43.8237 5.70324 43.8187 5.1514 46.5946C4.473 50.0151 3.83763 53.4305 3.16935 56.9211V56.9211Z" fill="white"/>
<path d="M56.553 58.664H54.6621V56.3118C54.0773 56.9262 53.6976 57.3926 53.2471 57.7838C51.9485 58.9147 50.4398 59.3711 48.8172 58.6539C47.2427 57.9543 46.7921 56.5124 46.8098 54.9226C46.8756 49.0446 52.2522 45.3408 58.1731 47.1739C57.6086 50.9579 56.4391 54.6768 56.553 58.664ZM55.9429 48.5531C55.3229 48.2816 54.6337 48.2054 53.9685 48.3349C50.9916 48.8039 48.7083 51.9259 48.9944 55.1432C49.1741 57.1769 50.7309 57.9016 52.4623 56.7506C53.728 55.9005 54.4874 54.6542 54.8874 53.2399C55.305 51.7153 55.586 50.163 55.9429 48.5531V48.5531Z" fill="white"/>
<path d="M28.9941 47.0385C29.5706 46.9003 30.1713 46.8934 30.7509 47.0184C30.8623 47.6479 30.4522 48.2321 30.6876 48.9418C31.7432 47.688 32.9506 46.7802 34.6188 46.6849C36.6667 46.5821 37.9273 47.688 37.9298 49.7142C37.9298 52.0989 37.1704 54.3809 36.7882 56.7155C36.6818 57.3575 36.6692 58.0371 36.3123 58.6489C35.6946 58.6891 35.0744 58.7643 34.4213 58.5913C34.8719 56.1237 35.3352 53.6813 35.7554 51.2313C35.925 50.2282 36.0085 49.1249 34.9226 48.5807C33.8366 48.0366 32.7912 48.5155 31.9305 49.2829C30.6825 50.3938 30.1256 51.8507 29.8396 53.4405C29.5282 55.1558 29.1941 56.8685 28.8625 58.6289H26.8374C27.5639 54.7545 28.2777 50.9053 28.9941 47.0385Z" fill="white"/>
<path d="M18.3904 53.4556C18.0866 57.029 19.9396 57.9468 24.3365 56.6604C24.9339 57.7236 24.5897 58.2878 23.4227 58.5712C21.3622 59.0727 19.2738 59.4413 17.6006 57.8038C15.8717 56.1162 15.9831 53.9797 16.6412 51.8532C17.6538 48.5531 20.1674 46.5595 23.0734 46.6899C24.6808 46.7626 25.7845 47.5902 26.1338 48.9919C26.4983 50.4464 25.8807 51.7629 24.4606 52.5378C23.3316 53.1521 22.0887 53.3678 20.8255 53.4455C20.0307 53.4957 19.2359 53.4556 18.3904 53.4556ZM18.7068 51.9259C20.2383 52.0036 21.6685 51.9259 23.0101 51.3817C23.8885 51.0206 24.4985 50.3411 24.1568 49.3179C23.8151 48.2948 22.9139 48.1544 21.9849 48.3023C20.418 48.5481 19.1169 49.99 18.7068 51.9259Z" fill="white"/>
<path d="M44.2077 46.9508H47.0605C46.9314 47.5225 46.8226 47.9914 46.7213 48.4353C45.7493 48.7161 44.5367 48.0391 43.9368 48.8164C43.4305 49.4709 43.4913 50.5492 43.3217 51.4445C43.0989 52.6281 42.8812 53.8117 42.6889 55.0003C42.3699 56.9613 42.5294 57.1519 44.6051 57.2823C44.4684 57.9292 44.9772 58.7869 43.7343 58.9423C42.0332 59.1505 40.7979 58.5511 40.5195 57.2672C40.4015 56.6085 40.4188 55.9331 40.5701 55.2812C40.9903 53.087 41.3979 50.8928 41.8054 48.7212C41.2991 48.3249 40.7397 48.6585 40.2866 48.4127C40.1777 47.9112 40.4182 47.4698 40.5397 46.9482H42.0206C42.861 44.5986 42.861 44.5986 44.6026 44.2325C44.7975 44.6914 44.4886 45.1076 44.4709 45.5465C44.4164 46.0201 44.3284 46.4893 44.2077 46.9508V46.9508Z" fill="white"/>
<path d="M61.1803 58.6665C60.4436 58.6865 59.8209 58.7843 59.1375 58.5862C60.231 52.8964 61.322 47.2291 62.4282 41.5117H64.4862C63.38 47.2567 62.2865 52.9139 61.1803 58.6665Z" fill="white"/>
</g>
<defs>
<clipPath id="clip0_153_404">
<rect width="287" height="59" fill="white"/>
</clipPath>
</defs>
</svg>
