<svg width="1440" height="1671" viewBox="0 0 1440 1671" fill="none" xmlns="http://www.w3.org/2000/svg">
<path fill-rule="evenodd" clip-rule="evenodd" d="M54.8905 1668.19L54.2831 1668.79L53.0681 1669.39L52.4607 1670.6H56.1062L54.8913 1668.79L54.2838 1669.39L54.8913 1668.79H55.4988L54.8913 1668.19H54.8905ZM40.3106 1670.6H50.6375V1668.79L48.2069 1667.59L40.3068 1670.6H40.3106ZM-96.9977 1657.37L-90.9223 1670.6L-96.9977 1657.37ZM-96.9977 1657.37L-90.9223 1670.6H-87.2767L-96.9977 1648.35V1657.37ZM92.5556 1637.52L91.3407 1638.73L92.5556 1638.13L105.315 1670.6L92.5571 1637.52H92.5556ZM93.7721 1636.33L91.9497 1636.93L92.5571 1637.52L105.315 1670.6H108.961L95.5945 1636.33L170.323 1615.28L93.7759 1636.33H93.7721ZM502.648 1670.6H503.256L446.755 1613.48L502.648 1670.6ZM746.881 1611.07L749.918 1614.68L805.204 1670.6H810.067L752.348 1612.27L747.488 1611.07H746.881ZM745.665 1610.47L746.273 1611.67L746.881 1611.07H747.488L746.273 1610.47H745.665ZM742.02 1606.87L743.843 1608.67H744.45V1608.06L743.843 1606.26L741.413 1605.66L742.02 1606.87ZM-52.0377 1654.97L-36.2413 1602.66L-52.0377 1654.97ZM1285.16 1604.46L1330.73 1632.72L1281.52 1602.06L1285.16 1604.46ZM-60.5437 1670.6H-56.8959L-52.0354 1654.97L-36.239 1602.66L-38.6689 1600.85L-39.8838 1600.25L-60.5437 1670.6ZM1276.66 1600.85L1205.58 1670.6L1276.66 1600.85ZM1270.58 1600.25L1272.41 1599.65L1200.11 1670.6H1205.58L1276.66 1600.85L1277.88 1599.65L1273.62 1599.05L1272.41 1598.45L1270.58 1600.25ZM1550.05 1581.61V1582.21L1552.49 1581.01L1550.05 1581.61ZM-34.4228 1599.65L-2.22335 1578.6L-34.4228 1599.65ZM314.31 1665.18V1670.6H317.955L317.348 1576.8L320.993 1578.6L319.779 1576.8L317.348 1576.2L313.702 1575L314.31 1665.18ZM37.8785 1556.96L96.8102 1576.8L37.8785 1556.96ZM-2.21951 1578.6L31.8031 1556.36L49.4218 1663.98L-34.4228 1599.65L-2.22335 1578.6H-2.21951ZM-97 1539.52L28.1575 1554.55L-96.9962 1539.52L28.1575 1554.55L-37.457 1597.24L-38.672 1596.64V1597.24L-60.5437 1584.02L-96.9962 1561.17V1565.37L-39.8869 1600.25L-96.9962 1565.37L-39.8869 1600.25L-38.672 1600.85L-40.4943 1599.65L-38.672 1600.85L-36.2421 1602.66L11.1462 1639.33L48.2061 1667.59L50.6367 1668.79L31.8031 1554.55V1553.95L31.1956 1552.75L29.3732 1550.94L-96.9954 1535.91V1539.52H-97ZM48.2061 1464.36H47.5994L48.2069 1465.57L48.8144 1464.97L49.4218 1464.36H48.2061ZM688.557 1463.76L743.843 1606.26L688.557 1463.76ZM687.341 1461.96V1467.37L688.557 1463.76L689.164 1463.16L687.949 1461.36L687.341 1461.96ZM1151.51 1445.73L1150.29 1447.53L1152.11 1446.93V1445.73H1151.51ZM1534.87 1438.51L1535.47 1440.31V1438.51H1534.87ZM1121.12 1565.37L1057.33 1670.6L1121.12 1565.37ZM1017.85 1424.08L1098.04 1480L1147.86 1514.87L1098.04 1480L1147.86 1514.87L1053.08 1670.6H1057.33L1121.12 1565.37L1149.07 1519.68L1148.47 1514.87V1514.27L1147.86 1510.66L1064.02 1452.34L1023.92 1423.48L1018.45 1422.88L1015.42 1422.28L1017.85 1424.08ZM1015.42 1422.28H1014.2L1044.58 1670.6H1047.61L1017.85 1424.08L1015.42 1422.28ZM-89.0976 1333.29L-87.8819 1334.49L-90.3125 1331.49L-89.0976 1333.29ZM-91.5275 1332.09L-90.92 1340.51V1342.91L-89.0976 1333.29L-90.3125 1331.49L-91.5275 1332.09ZM-92.1349 1332.09H-91.5275L-90.3125 1331.49L-90.92 1330.88L-92.1349 1330.28V1332.09ZM747.489 1328.48L704.961 1427.09L748.097 1328.48H747.489ZM-96.9954 1335.09L-92.7424 1333.29L-96.9954 1335.09L-92.7424 1333.29L-96.9954 1347.72V1360.35L-90.92 1340.51L-96.9954 1360.35L-90.92 1340.51L-91.5275 1332.09H-92.1349V1330.28L-93.3506 1329.08L-94.5655 1327.28L-96.9954 1326.67V1335.09ZM684.913 1288.2V1290H685.52V1288.2H684.913ZM-86.0587 1330.88L108.962 1285.19L-86.0587 1330.88ZM1020.27 1419.27L1232.91 1274.97L1020.27 1419.27ZM52.4592 1461.36L256.594 1253.93L52.4592 1461.36ZM1255.4 1254.52H1256L1157.58 1230.48L1255.4 1254.52ZM-96.9962 1225.67L-92.1357 1324.87L-96.9962 1225.06V1225.67ZM690.987 1287.6L934.007 1183.58L690.987 1287.6ZM946.156 1181.78L1012.98 1417.46L946.156 1181.78ZM1221.98 1150.51H1222.58L1221.98 1149.3V1150.51ZM1082.24 1163.73L1221.98 1148.7L1082.24 1163.73ZM-96.9962 1113.23L-94.5663 1112.63L-96.9962 1111.42V1113.23ZM541.531 1080.76V1080.16L541.443 1080.07L541.531 1080.76ZM951.625 1173.96L954.662 1171.55L1058.55 1066.33L951.625 1173.96ZM177.613 1048.3L409.087 1039.88L177.613 1048.3ZM412.732 1039.88L413.947 1040.48L414.554 1038.67L412.732 1039.88ZM-20.4457 984.563L-21.0532 985.158L-24.0905 1044.69L-21.0532 988.17L-18.0159 990.573L-20.4457 984.563ZM1166.09 958.108L1165.48 959.305L1164.87 960.51L1166.09 958.703V958.108ZM1166.09 958.108V958.703L1195.85 1060.32L1166.09 958.108ZM1333.16 1179.37L1432.79 942.474V941.872L1333.16 1179.37ZM1169.12 956.301L1377.51 940.667L1169.12 956.301ZM509.939 989.368L604.718 940.065L509.942 989.368H509.939ZM608.971 938.265H608.364L608.971 938.867L609.579 938.265H608.971ZM612.614 1023.64L725.617 931.05L612.614 1023.64ZM706.176 1136.08L729.262 931.05L706.176 1136.08ZM-96.9962 919.024L-80.5923 934.055L-24.6987 984.563L-80.5923 934.055L-24.6987 984.563V983.961L-27.1286 977.944V977.341L-61.7587 946.684L-96.9962 914.212V919.024ZM-21.0532 985.158L-20.4457 984.563L59.7502 869.721L-21.0532 985.158ZM903.627 853.484L1051.86 875.128L902.415 852.882L903.627 853.484ZM425.491 879.337L432.174 808.391L425.491 879.337ZM1429.76 932.85L1279.09 804.182L1429.76 932.85H1429.76ZM1278.48 803.581H1279.09L1277.88 802.376L1278.48 803.581ZM420.63 805.385L429.136 803.581V802.979L426.098 801.774L420.63 805.381V805.385ZM201.307 750.069L200.7 751.872L202.523 750.069L203.738 748.265L201.307 750.069ZM203.738 748.265L202.523 750.069L203.738 758.487L204.953 748.866L203.738 748.264V748.265ZM1361.1 739.846L1362.32 739.244L1361.72 737.436L1361.1 736.834V739.84V739.846ZM811.885 675.513H811.279L810.673 676.718L811.885 677.923V675.518V675.513ZM900.589 673.109L768.749 735.038L900.589 673.709V673.107V673.109ZM1365.36 737.437L1522.71 655.064L1365.36 737.442V737.437ZM1576.78 653.266L1590.76 683.329L1576.78 653.266ZM1577.39 653.266H1576.78L1590.76 683.329V674.911L1583.46 659.88L1590.76 666.494L1577.39 653.266ZM1565.85 641.841H1565.24V652.062L1567.67 643.645L1565.85 641.837V641.841ZM1565.85 641.837L1567.67 643.645L1576.78 653.265H1577.39L1573.75 649.657L1577.39 653.265L1590.76 666.492V661.682L1582.25 653.265L1590.76 652.662V643.646L1566.45 641.839H1565.85V641.837ZM1528.18 649.054L1526.97 652.662H1527.57L1539.12 646.65L1527.57 652.662H1526.97L1525.75 656.269L1526.97 658.077V656.872L1590.76 742.852V736.839L1528.78 653.264H1576.78L1567.67 643.644L1565.24 652.061V642.444L1527.57 653.266L1565.24 642.444V641.841H1564.63V640.636L1563.41 639.431L1528.18 649.051V649.054ZM764.497 617.19L817.351 511.97L764.497 617.19ZM166.071 480.104L234.115 495.74L166.071 480.104ZM164.249 480.104H164.856L165.464 478.899L164.249 480.104ZM1175.2 469.882L1173.99 474.692L1177.02 471.085V469.278L1175.2 469.88V469.882ZM328.891 454.849L327.676 455.451L327.069 456.054L329.499 456.656L328.891 454.849ZM330.714 453.045L328.891 454.849L331.929 453.644L330.714 453.041V453.045ZM975.923 466.871L977.143 466.268L1002.65 449.434L975.923 466.87V466.871ZM321.601 454.246L290.614 445.829L321.601 454.246ZM267.527 439.816L268.742 441.62V439.816L266.312 438.611L267.527 439.816ZM812.499 413.965V414.567L813.104 413.362L812.499 413.965ZM-24.0913 439.218L-96.9962 547.444V553.457L2.0335 406.149L-24.0905 439.218H-24.0913ZM1.42604 407.354L2.0335 407.956L2.64097 406.149L1.42604 407.354ZM2.0335 406.149L-96.9962 553.457V554.059L1.42604 407.351L2.64097 406.147H2.0335V406.149ZM443.111 388.712L813.107 503.555L443.111 388.712ZM433.999 386.307L364.739 545.04L433.999 386.908V386.305V386.307ZM1553.09 326.781L1553.7 327.383L1554.3 326.781L1552.49 326.178L1553.09 326.781ZM1548.23 329.787L1551.27 327.984L1553.09 326.779L1552.49 326.176L1550.66 325.574L1548.23 329.783V329.787ZM168.5 472.889L254.771 302.729L168.5 472.889ZM6.28651 403.743L253.556 296.719L6.28651 403.743ZM257.809 322.574L265.095 433.205V438.617H266.318L268.749 439.821L290.62 445.834L321.606 454.252L325.251 455.457L323.429 451.248L290.014 441.627L268.75 435.615L260.239 303.332L255.986 294.313L257.809 322.572V322.574ZM1333.77 278.08V278.683L1334.37 279.285V279.887L1334.98 282.292L1335.59 281.087L1336.2 278.683L1334.98 278.08H1333.77ZM874.464 344.821L938.862 273.27L874.464 344.821ZM599.248 216.149V216.752L599.856 216.149L598.64 215.547L599.248 216.149ZM1114.44 359.25L953.443 207.733L1114.44 359.25ZM881.145 286.498L927.318 199.917L881.145 286.498ZM142.375 145.202L303.375 251.024V250.421L142.375 145.202ZM1251.75 109.728L1265.72 85.076L1251.75 109.728ZM240.19 118.145L472.879 70.6457L240.19 118.145ZM1200.11 46.5951L1195.25 199.317L1200.72 46.5951H1200.11ZM1077.38 0.298039L1102.9 99.5062L1077.99 0.298039H1077.38ZM427.921 1644.75L413.34 1670.6L427.921 1644.75ZM577.984 1617.09L562.797 1670.6L577.984 1617.09ZM745.665 1611.67L720.152 1625.51L745.668 1611.67H745.665ZM448.58 1609.87L447.973 1611.07L448.58 1609.87ZM1280.92 1596.64L1280.3 1597.24L1280.92 1596.64ZM433.996 1581.01L438.249 1581.61L433.996 1581.01ZM313.702 1580.4L267.529 1661.58L313.702 1580.4ZM37.8785 1556.96L96.8102 1576.8L93.7721 1612.27L91.9497 1629.71L37.8762 1556.96H37.8785ZM101.061 1576.8L212.244 1531.7L95.5945 1630.91L100.455 1578L102.278 1578.6L101.063 1576.8H101.061ZM1156.37 1538.92L1152.72 1518.48L1265.11 1591.83L1268.76 1594.24L1265.11 1591.83H1263.9L1268.15 1594.24L1169.73 1575.6L1163.65 1574.39L1165.48 1569.58L1162.44 1571.99L1156.37 1538.92ZM41.5233 1514.27L49.4234 1469.18L92.5587 1565.98L95.596 1572.59L92.5587 1565.98L95.596 1572.59L93.7736 1571.99L37.2725 1552.75L38.4875 1552.15H35.4509L41.5263 1514.27H41.5233ZM49.4264 1469.18L41.5263 1514.27L49.4264 1469.18ZM49.4264 1464.36L163.644 1465.57L234.727 1466.77H236.549L235.942 1466.17L235.334 1465.57L235.942 1466.17L236.549 1466.77L243.232 1470.38L317.353 1514.27L424.28 1577.4L317.353 1514.27L424.28 1577.4L429.748 1580.4L426.711 1574.39L429.748 1580.4L430.355 1581.01H428.533L427.926 1582.81L430.355 1581.61L431.57 1584.02L432.178 1581.61L432.786 1579.81L433.394 1579.21L432.786 1579.81L432.178 1581.61L435.216 1584.02H435.823L434.001 1581.61L566.445 1594.24L447.367 1608.67L435.211 1584.02L432.173 1581.61L431.566 1584.02L430.351 1581.61L433.996 1589.43L430.351 1581.61L433.996 1589.43L443.109 1608.06L330.714 1576.2L428.528 1581.01H430.351L429.743 1580.4L424.275 1577.4L318.563 1571.99L319.17 1570.79L317.348 1571.39V1567.18L315.526 1570.79L266.922 1503.45L243.231 1470.38L236.548 1466.77H235.937L237.76 1468.57L281.503 1529.9L311.88 1571.99L281.505 1529.9L309.452 1568.99L232.905 1529.3L226.222 1525.69H226.83L225.615 1525.09L231.69 1519.68L224.399 1522.69L237.766 1468.57L235.942 1466.77H234.727L220.754 1523.29L165.467 1503.45L59.1474 1464.97L163.645 1465.57L49.4272 1464.36L48.8197 1464.97L51.8578 1466.17L200.706 1519.68L51.8517 1466.17L200.7 1519.68L217.103 1525.69L218.318 1526.3L217.103 1525.69L181.258 1540.73L99.8467 1573.19L73.7227 1514.27L51.8509 1466.17L48.8128 1464.97L48.2054 1465.57L47.5979 1464.36H49.4203H49.4264ZM1152.11 1513.67L1155.75 1449.33L1268.75 1590.03L1152.11 1513.67ZM1534.25 1430.09L1534.87 1434.3L1534.25 1430.09ZM1023.31 1421.08L1017.85 1422.28L1023.31 1421.08ZM1533.04 1388L1533.65 1404.84L1533.04 1388ZM1191 1487.21L1156.97 1445.12L1481.4 1340.51L1334.37 1523.29L1277.26 1594.84L1191 1487.21ZM1424.29 1417.46L1486.26 1340.51L1517.24 1400.63L1534.25 1434.3L1517.24 1400.63L1534.25 1434.3L1285.16 1590.63L1424.29 1417.46ZM1486.26 1340.51L1424.29 1417.46L1486.26 1340.51ZM689.165 1290.6L692.81 1292.4L689.165 1290.6ZM1255.4 1259.94L1251.14 1267.75L1153.94 1441.52L1152.72 1439.72L1152.11 1442.12L1020.27 1419.27L1232.91 1274.97L1255.4 1259.94H1255.4ZM52.4592 1461.36L256.594 1253.93L247.48 1348.32L235.331 1461.96L230.471 1458.96L233.509 1463.16L104.097 1461.96L52.4561 1461.36H52.4592ZM1264.51 1253.33L1262.68 1254.52L1264.51 1253.33ZM253.556 1251.52L146.628 1360.95L48.8144 1460.15L47.5994 1456.55L46.992 1458.96L-19.23 1395.22L-86.0595 1330.88L108.962 1285.19L253.557 1251.52H253.556ZM257.81 1249.12L257.202 1248.51V1247.91L256.595 1247.31L257.202 1247.91V1248.51L257.81 1249.12L258.417 1250.32L260.847 1254.52L376.887 1478.79L426.706 1574.39L329.499 1517.27L238.975 1463.76L239.583 1463.16H238.975L259.631 1261.74L260.846 1254.52L258.416 1250.32L257.809 1249.12H257.81ZM1311.89 1226.27L1310.07 1225.67L1311.89 1226.27L1312.51 1226.87L1313.11 1227.47L1313.72 1226.87L1356.25 1243.7L1442.52 1277.97L1356.25 1243.7L1441.91 1277.97L1424.29 1275.57L1265.72 1252.72L1282.73 1243.7L1265.72 1252.72L1282.73 1243.7L1312.51 1226.87L1311.89 1226.27ZM570.086 1221.46L574.339 1224.46L570.086 1221.46L574.339 1224.46L684.911 1288.2H685.519V1290L687.341 1451.74L660.002 1398.82L570.086 1221.46ZM305.197 1332.69L262.061 1249.72L562.795 1219.05L500.218 1388L430.958 1575L305.197 1332.69ZM690.987 1287.6L934.007 1183.58L746.881 1324.27L692.202 1288.79L690.987 1287.6ZM942.513 1181.78L750.525 1325.48L942.512 1181.78H942.513ZM943.724 1178.17L941.898 1178.76L943.724 1178.17ZM1249.93 1173.36L1309.47 1224.46L1280.91 1240.09L1265.11 1249.72L1263.29 1252.72L1262.07 1253.93L1263.29 1252.72L1265.11 1249.72L1265.72 1248.51L1261.47 1250.92L1249.93 1173.36ZM957.093 1176.96L1082.24 1163.73L1221.98 1148.7V1149.3L1222.58 1150.51L1257.83 1251.52L1259.04 1254.52L1262.07 1253.93L1259.04 1254.52L1257.83 1251.52L957.093 1176.96ZM546.392 1086.17L657.572 1247.31L546.392 1086.17L657.572 1247.31L681.266 1281.58L567.655 1216.64L567.048 1218.45L565.833 1221.46L686.734 1458.35L687.949 1461.36L689.164 1463.16L690.987 1466.77L689.165 1463.16L688.558 1463.76L743.844 1606.26L744.451 1608.06V1608.67H743.844L742.021 1606.87L585.882 1592.43L687.341 1464.36V1461.96L683.089 1463.76L581.632 1592.43H581.024L437.643 1578L435.214 1579.21L437.643 1578L683.091 1463.76L687.343 1461.96L687.952 1461.36L686.736 1458.35L523.915 1534.11L434.606 1575.6L516.625 1353.73L433.389 1578.6L516.622 1353.73L565.833 1221.46L567.048 1218.45L567.655 1216.64L568.263 1214.84L567.048 1215.45L546.392 1086.17ZM-25.9137 1057.31L-24.6987 1055.51L-25.9137 1057.31H-25.3062L20.259 1087.97L255.378 1247.91L256.593 1248.51L255.378 1247.91L20.2597 1087.97L254.771 1247.91L-87.2752 1327.28V1326.67L-25.3062 1057.31H-25.9137L-28.9518 1063.33L-25.9137 1057.31ZM263.884 1245.51L412.732 1040.48L467.411 1104.81L562.187 1216.05L462.554 1225.67L263.887 1246.11L265.102 1245.51H263.887L263.28 1246.11L263.887 1245.51H263.884ZM412.735 1040.48L467.414 1104.81L412.735 1040.48ZM257.809 1245.51L27.5508 1088.58L-21.0524 1056.11L177.614 1048.3L409.088 1039.88L259.631 1244.91L258.416 1242.5L257.809 1245.51ZM1225.63 1146.9L1412.74 958.703L1265.11 1143.9L1247.49 1166.75L1225.63 1146.9ZM1169.12 953.898L1168.52 955.698L1169.73 954.501L1168.52 955.698L1169.12 953.898ZM1429.76 936.457L1275.44 1092.18L1223.8 1143.9L1198.89 1056.71L1169.12 956.301L1377.51 940.667L1429.76 936.457ZM613.221 935.855L612.006 936.457L613.221 935.855ZM1436.44 934.658L1438.26 932.85L1438.87 932.248L1438.26 932.85L1436.44 934.658ZM545.784 1078.96L612.614 1023.64L725.617 931.05L686.126 1282.18L545.784 1078.96ZM916.389 1051.9L872.639 878.735H1072.53L964.986 1130.06L947.368 1170.95L916.389 1051.9ZM867.784 876.333L868.39 877.537V878.735L868.996 879.337L943.119 1169.75L944.331 1175.16L944.937 1176.36L944.331 1175.16L943.119 1169.75L850.772 1064.52L731.085 928.038L752.956 920.229L731.085 928.038L752.956 920.229L868.996 879.337L868.39 878.735V877.537L867.784 876.333ZM59.7495 869.721L-24.0913 1045.89V1044.69L-21.054 985.158L59.7495 869.721ZM899.983 850.48V852.882H902.414L901.8 853.484L903.626 855.292V853.484L902.414 852.882L1051.86 875.128L1073.13 878.735L1051.86 875.128H875.07L901.8 853.484L902.414 852.882H899.983V850.48ZM432.173 808.391L432.781 804.784L550.645 894.368L599.856 931.653L550.645 894.368L599.856 931.653L463.767 890.761L425.493 879.337L432.176 808.391H432.173ZM433.392 799.974L432.785 800.576L433.392 799.974ZM214.066 750.066L218.927 751.271L214.066 750.066L218.927 751.271L426.098 801.777L429.136 802.982V803.584L422.453 877.541L299.119 802.384L214.066 750.069V750.066ZM200.092 745.86L194.017 742.253L200.092 745.86L203.738 748.265L204.953 748.868L416.378 878.14V878.735L421.846 881.747V882.35H423.06L425.49 882.944L554.29 921.426L603.5 936.457L608.968 938.265H609.576L617.476 940.667L613.224 937.662L722.581 929.243L725.619 928.641V929.845H726.226L727.441 929.243L726.834 928.038L726.226 927.443L725.012 926.238L726.226 927.443L726.834 928.038L727.441 929.243L729.264 931.05L890.871 1115.63L943.119 1175.16L936.43 1175.76L941.293 1176.96L942.513 1177.57L941.293 1176.96L789.412 1241.9L689.165 1284.58L706.176 1136.08L729.263 931.05L727.441 929.243L726.226 929.845H725.618V928.641L722.58 929.243L548.214 1072.34L565.833 1033.87L609.576 938.265L565.831 1033.87L609.574 938.265L608.967 938.867L608.359 938.265L604.714 940.065L542.745 1074.75L540.315 1071.14L540.922 1075.95L541.442 1080.07L541.53 1080.16V1080.76L541.442 1080.07L540.922 1079.56L538.492 1084.97L542.137 1081.96L562.793 1211.24L418.198 1041.08L457.689 1053.7L418.198 1041.08L457.689 1053.7L540.922 1079.56L541.442 1080.07L540.922 1075.95L416.984 1037.47L415.161 1038.67H414.553L413.945 1040.48L412.731 1039.88L410.301 1041.08L412.731 1039.88L414.553 1038.67H415.161L416.984 1037.47L509.938 989.368L604.718 940.065L608.364 938.265H608.971L603.503 936.457L414.554 1035.06L421.846 930.448L414.554 1035.06L421.846 930.448L425.49 882.944L423.06 882.35H421.846L413.34 1000.79L410.91 1035.06L79.1914 853.484L418.807 882.35H421.846V881.747L416.378 878.735V878.14L212.244 861.301L75.5474 849.877L135.694 801.777L201.309 750.069L135.694 801.777L201.309 750.069L203.739 748.265L200.094 745.86H200.092ZM766.327 739.247L739.59 877.537L766.325 739.247H766.327ZM449.185 813.198L435.211 802.378L760.857 737.442L608.361 934.055L449.185 813.202V813.198ZM764.498 736.238L763.286 735.033L762.067 734.431L763.286 735.033L764.498 736.238L765.104 736.841L765.71 737.443L776.647 747.063L898.761 851.083L870.214 874.534L776.649 747.063L765.712 737.442L765.106 736.84L763.894 737.442V739.848L765.712 738.04L803.379 789.147L867.17 876.329L867.784 876.931L867.17 876.329L730.477 924.427L739.59 877.534L766.325 739.247L803.379 789.151L765.712 738.044L763.894 739.851L762.068 741.655L726.832 923.233V925.636L612.614 934.055L762.068 741.651L611.399 935.26L762.068 741.651L763.894 739.848V737.442L760.247 739.25L763.894 737.442L765.106 736.84L764.5 736.237L764.498 736.238ZM1138.74 890.156L1078.6 876.33L1097.43 853.482L1211.65 718.801L1209.83 726.617L1167.3 896.775L1138.74 890.156ZM1219.55 713.392L1358.68 737.442L1319.19 768.107L1287.59 792.157L1290.03 789.151L1279.69 798.172L1219.55 713.392ZM1204.36 710.386L1212.26 712.19H1214.69L1215.3 712.792L1219.55 713.395L1215.3 712.792L1214.69 712.19L1216.51 715.196L1232.91 738.645L1276.66 801.176L1232.91 738.645L1276.66 801.176L1172.16 893.774L1186.74 834.244L1170.33 899.783L1186.74 834.244L1216.51 715.196L1214.69 712.19H1212.26L1204.36 710.386ZM1211.65 708.579L1212.26 709.181L1211.65 708.579ZM1020.88 808.391L907.883 672.507L1019.67 686.936L1212.26 712.19L1019.67 686.936L1212.26 712.19L1119.91 821.622L1075.56 874.533L1020.88 808.391ZM1475.32 665.292L1511.17 656.874L1412.14 708.582L1364.75 733.835V695.353L1365.36 695.956L1364.75 691.747H1366.57L1475.32 665.292L1364.75 691.747L1475.32 665.292ZM1365.36 737.442L1522.71 655.07L1493.55 744.056L1434.01 928.641L1365.36 737.442ZM359.876 543.837L360.483 546.242L359.876 543.837ZM907.883 668.298L946.762 629.214L1040.32 536.018L1185.53 682.727L1210.43 708.58L1185.53 682.727L1210.43 708.58L910.92 668.894L912.738 668.291H907.883L907.269 668.894L907.883 668.291V668.298ZM1040.32 536.014L946.762 629.216L1040.32 536.02V536.014ZM1043.97 531.811L1042.75 533.619L1043.97 531.811ZM907.883 662.886L953.443 531.811V531.21L978.355 532.415L1036.07 534.82L978.355 532.415L1036.07 534.82L927.924 643.648L907.883 663.489V662.886ZM822.822 505.958L872.033 515.578L822.822 505.958L872.033 515.578L949.799 531.21L932.787 581.114L903.626 665.291L870.821 600.956L822.822 505.957V505.958ZM817.96 504.15L817.354 503.547L816.748 501.142L817.354 503.547L817.96 504.15L820.997 510.764L900.589 668.298L899.377 667.696L899.983 668.298L901.194 670.102L901.8 670.704L902.414 671.306L905.451 674.914L1070.7 873.93H1068.88L1069.48 874.533L1073.13 877.537L1069.48 874.533L903.626 849.877L905.451 704.373V674.911L902.414 671.304L901.8 670.702V674.31L899.983 847.474L789.412 753.075L768.749 735.038L900.589 673.108V673.71L899.377 676.717L901.8 674.312V671.905H895.12L813.71 710.387L771.18 730.228L785.155 710.988L771.18 730.228L785.155 710.988L810.673 676.716L811.279 675.512H811.885L872.639 673.106L810.673 675.512H808.848V669.499L766.325 620.797L762.068 620.194L761.462 620.797L763.894 623.803L781.512 643.645L808.242 673.707L766.931 729.625L765.106 672.505L763.894 623.803L761.462 620.797L760.247 621.399L763.894 730.829L754.779 723.614L762.674 733.233L441.894 797.569L434.604 801.778L441.894 797.569L760.247 621.399L761.462 620.797L762.068 620.194L756.601 618.989L762.068 620.194L766.325 620.797L769.362 621.399L765.106 618.393L766.931 617.791L764.5 617.188L817.354 511.968L809.461 659.276L808.848 669.498V675.511H810.673L872.639 673.106L895.12 671.901H901.194L899.983 671.298L901.194 671.901H901.8V670.696L901.194 670.093L899.983 668.29L868.996 669.495L812.499 671.899L814.922 625.001L812.499 671.899L814.922 625.001L820.997 510.761L817.96 504.147V504.15ZM235.331 495.74L234.724 495.138L232.294 494.535L234.724 495.138L235.331 495.74L238.369 496.945L359.268 546.843H359.876V547.446L360.483 548.048H361.699L442.502 562.479L756.601 618.995L553.682 731.43L432.173 798.774L364.736 549.249H365.344L364.736 548.646L442.502 562.476L361.699 548.046H360.483L361.091 549.85L401.796 698.962L428.528 798.774L401.796 698.962L428.528 798.774L207.382 744.657H206.775L289.405 640.64L361.095 549.85L289.405 640.64L361.095 549.85L360.487 548.046L359.88 547.444V546.841H359.272L206.167 739.247L238.368 496.938L206.167 739.247L238.368 496.938L235.33 495.734L235.331 495.74ZM166.071 480.104L234.115 495.74L232.9 498.145L234.722 497.542L233.507 505.359L203.13 732.634L179.436 569.691L166.071 480.104ZM1194.04 557.67L1181.27 472.889L1310.68 629.817L1359.89 689.342L1310.68 629.817L1359.89 689.342H1359.29L1217.73 708.582L1218.94 703.772L1216.51 706.778L1194.04 557.666L1194.04 557.67ZM828.897 503.553L969.849 469.281L951.625 525.198L951.019 527.603L827.685 503.553H828.897ZM1175.2 469.882L1177.02 469.28V471.087L1187.35 539.631L1212.86 705.578L1187.35 539.631L1212.86 705.578L1116.87 608.173L1044.58 535.421L1043.36 534.216L1175.2 469.882V469.882ZM1180.67 467.476L1180.06 468.079L1180.67 467.476ZM971.674 468.079L971.061 467.476L969.849 466.271L971.061 467.476L971.674 468.079L973.492 469.882L1035.47 531.21L973.492 469.882L1035.47 531.21L970.455 528.805L954.662 528.202L973.492 469.88L954.662 528.202L973.492 469.88L971.674 468.076V468.079ZM443.111 388.712L813.107 503.555L816.75 504.76L813.107 503.555L811.281 504.157L816.75 505.362L761.465 614.792L759.642 613.587V614.792L443.111 388.712ZM433.999 386.307V386.909L754.174 615.39L613.221 589.533L364.736 545.04L433.996 386.307H433.999ZM448.577 386.307L809.461 412.762L448.577 386.307ZM429.136 388.712L433.389 385.706L435.819 383.899L433.389 385.706L441.894 389.915L433.389 385.706L429.136 388.712L397.543 460.863L362.306 541.432L329.499 456.656L327.069 456.054L325.853 456.656L327.676 460.864L360.483 546.244L327.678 460.863L359.27 543.236L302.768 519.786L241.408 494.534L293.654 471.085L241.405 494.535L293.654 471.085L325.853 456.054V456.656L327.069 456.054L327.676 455.451L328.891 454.849L330.714 453.045L429.136 388.711V388.712ZM437.034 379.09L435.819 382.097L437.034 379.09ZM436.426 377.885L435.819 379.693L436.426 377.885ZM1121.13 372.475L1039.71 530.607L976.529 467.475L978.96 466.872L977.143 466.27L975.923 466.872L1002.65 449.436L1121.12 372.472L1121.13 372.475ZM1090.15 439.813L1125.99 371.27L1175.8 465.667L1043.97 529.401L1090.15 439.813ZM1125.99 371.27L1090.15 439.813L1125.99 371.27ZM1129.02 367.662L1129.63 367.059L1129.02 367.662ZM1208 352.631L1129.63 368.264L1208 352.631ZM1208.62 354.434L1212.86 352.029L1208.62 354.434L1194.04 406.143L1177.63 462.059L1135.1 380.898L1130.24 371.278L1136.92 375.487L1129.63 368.272L1208 352.639L1206.79 355.645L1208.62 354.44V354.434ZM1226.84 320.168L1218.33 335.801L1210.43 349.029L1138.74 362.858L1226.84 320.168ZM1228.05 318.365L1232.91 317.16H1233.52L1217.12 345.419L1233.52 317.16H1232.91L1228.05 318.365L1226.23 319.57L1228.05 318.365ZM254.771 302.729L249.303 397.127L248.088 421.178L168.5 472.889L254.771 302.729ZM1248.1 300.327L1239.59 309.947L1248.1 300.327ZM260.846 297.321L424.883 381.5L429.743 383.905L424.883 381.5L417.596 380.898L429.14 384.506L327.678 451.243L260.846 297.321ZM6.28651 403.743L253.556 296.719L163.032 475.895L74.3309 435.009L6.28651 403.743ZM255.986 293.715L255.379 292.51L254.163 289.504L255.379 292.51L255.986 293.715V294.318L260.239 303.336L323.423 451.246L325.246 455.455L321.601 454.25L241.405 490.322L267.53 439.816L266.314 438.611H265.099V438.009L264.492 437.406L240.798 483.102L251.126 425.982L249.911 424.777L247.48 425.982L243.231 450.641L235.937 492.126H235.331L218.928 488.518L168.502 477.094L226.826 439.818L247.482 425.988L249.913 424.783L248.697 423.578L248.089 422.976L248.697 423.578L249.913 424.783L251.127 425.988L264.493 437.412L265.101 438.015V433.204L257.201 425.989L252.34 421.781V419.379L251.733 421.785L252.34 419.379L254.77 371.279L251.733 421.785L254.77 371.279L257.808 322.577L255.986 294.318H255.378V293.715V294.318H255.986V293.715H255.986ZM1239.59 309.949L1248.1 300.329L1303.39 286.5L1278.48 296.121L1238.99 311.152L1239.59 309.947V309.949ZM1332.55 277.479L1333.77 278.082H1334.98L1336.2 278.684L1338.63 279.286L1550.66 325.584L1552.48 326.186L1554.3 326.788H1554.92L1558.56 327.391L1554.92 326.788H1554.3L1553.7 327.391L1553.09 326.788L1551.27 327.993L1537.29 495.138L1524.54 644.848L1403.03 406.148L1338.63 279.282L1336.2 278.68L1335.59 281.084L1522.71 649.657L1523.32 650.259L1522.71 649.657H1522.1L1522.71 650.259L1364.75 688.138L1337.41 285.294L1522.71 649.658L1335.59 281.086L1334.98 282.291L1334.37 279.887L1333.77 281.092L1342.88 415.774L1333.77 281.086L1342.88 415.768L1361.1 685.133L1189.78 477.698L1180.67 466.876L1254.18 377.288L1180.06 466.876L1254.18 377.288L1333.77 281.086L1334.37 279.881V279.279L1327.09 283.488L1182.49 459.059L1195.25 413.364L1182.49 459.059L1195.25 413.364L1213.47 351.434L1327.09 283.492L1334.37 279.283L1333.77 278.68L1316.76 285.294L1217.12 345.42L1233.52 317.16L1265.72 304.537L1316.76 285.296L1333.77 278.683V278.08L1332.56 277.478L1332.55 277.479ZM813.71 412.762L815.536 410.955L874.464 344.817L938.862 273.267L941.899 294.912L942.513 287.096L970.455 463.866L971.061 465.673L970.455 463.866L866.565 428.391L815.536 410.955L813.71 412.762L813.104 413.365L966.205 466.275L970.455 468.082L966.205 466.275L852.59 493.933L821.611 501.148L822.216 495.136L820.997 497.541L814.316 413.966L966.205 466.275L813.104 413.365L812.499 414.57V413.967L810.673 415.771L811.279 419.98L817.96 501.15L811.279 419.98L817.354 501.15L771.786 486.719L448.577 386.307L809.461 412.762L803.379 423.585L810.673 415.768L812.499 413.965L813.104 413.362L813.71 412.76L813.104 413.362L813.71 412.76V412.762ZM944.331 271.464L967.417 283.489L944.331 271.464L967.417 283.489L1121.74 367.065L1113.23 371.274L1117.48 370.671L974.098 463.87L947.974 299.725L944.331 273.27V271.467V271.464ZM260.846 292.51L275.428 279.884L305.805 252.828L386.608 337.004L424.275 377.288L260.846 292.51ZM305.805 252.828L275.428 279.884L305.805 252.828ZM305.805 252.828L386.608 337.004L305.805 252.828ZM-96.9962 229.381L-72.0871 273.873L-96.9962 229.381ZM1213.47 260.644L1201.32 228.176L1241.42 292.51L1245.06 298.523L1241.42 292.51L1245.06 298.523L1232.91 311.751L1213.47 260.644ZM1245.67 292.51L1197.68 216.149L1329.51 275.674L1248.1 296.718L1245.67 292.509V292.51ZM598.033 214.948L596.817 213.743L594.995 211.94L596.817 213.743L598.033 214.948L598.64 215.551L599.856 216.153L661.216 273.873L807.636 409.157L809.461 411.562L807.636 409.157L661.216 273.873L807.03 409.155L683.696 400.136L437.034 382.098L599.248 216.151L598.64 215.548L598.033 214.946V214.948ZM1195.25 211.94L1194.64 213.743L1195.25 211.94ZM944.937 267.862L953.443 207.737L1114.44 359.254L944.937 267.862ZM955.874 201.123L954.056 202.328L955.874 201.123ZM881.145 286.498L927.318 199.917L937.65 268.46L820.997 398.934L881.145 286.501V286.498ZM930.356 195.711L949.799 206.534L941.293 267.862L930.356 195.712V195.711ZM603.5 215.549L926.714 193.303L924.889 196.309L925.502 195.707L926.714 195.104L925.502 195.707L811.885 408.553L603.5 215.549ZM926.107 191.502L927.318 192.104L926.107 191.502ZM488.675 171.658L596.208 214.347L488.675 171.658L596.208 214.347L519.052 293.713L436.426 377.288L488.675 171.658ZM309.45 251.024L484.422 172.259L488.675 170.452L484.422 172.259L467.411 242.005L432.173 380.295L309.453 251.025L309.45 251.024ZM142.375 145.202L303.375 250.422V251.025L276.035 274.474L259.631 288.903V284.694L257.809 288.903L254.771 282.891L255.379 287.701L240.192 268.46L142.375 145.202ZM131.439 130.772L132.048 134.379L131.439 130.772ZM1372.04 163.24L1384.19 122.955L1548.83 321.973L1338.02 275.676L1342.88 269.663L1338.02 272.669L1372.04 163.24ZM1384.8 120.551L1386.02 119.346L1387.84 117.538L1386.02 119.346L1384.8 120.551L1380.55 125.962L1384.8 120.551ZM1104.73 104.918L1149.07 159.633L1192.21 213.145L1194.64 216.752L1192.21 213.145L1192.82 216.752L1229.88 314.757L1171.55 343.019L1130.24 362.86L1128.42 366.467L1127.81 367.07L1128.42 366.467L1130.24 362.86L1130.85 361.655L1129.63 362.258L1150.29 314.759L1192.82 216.753L1150.29 314.757L1192.82 216.752L1192.21 213.145H1190.38L1152.11 302.729L1125.38 364.058L1099.86 340.008L955.268 204.727L1155.75 211.942L955.268 204.727L1155.75 211.942L1190.38 213.147H1192.21L1149.07 159.635L1189.17 210.141L1102.29 206.533L955.874 201.121L1104.11 105.519L1104.73 104.916L1104.11 105.519L1104.73 104.916L933.945 191.502H934.007L1075.56 119.951L1015.42 158.433L950.405 200.521L949.193 198.717V199.922L947.368 198.717L934.007 191.502H933.945L931.575 192.707L933.945 191.502L1104.73 104.918ZM1107.16 103.713L1105.94 104.315L1107.16 103.713ZM1269.98 83.8711L1268.76 83.2686L1269.98 83.8711L1354.42 111.529L1380.55 119.947L1379.94 121.152H1381.15L1357.46 196.91L1334.98 270.861L1269.37 84.475L1270.58 85.0775L1269.98 83.8726V83.8711ZM483.815 113.936L480.17 73.0503L593.78 209.536L595.603 211.941L593.78 209.536L560.972 196.308L489.285 168.05L489.892 166.243L488.677 166.845L483.815 113.936ZM476.524 71.8476L479.562 104.917L485.637 168.05L479.562 104.917L485.637 168.05L358.665 225.17L313.706 245.612L476.524 71.8484V71.8476ZM138.731 138.588L240.19 118.145L472.879 70.6457L394.506 153.622L305.805 248.018L138.731 138.588ZM483.207 64.6332L479.562 68.2412L483.207 64.6332ZM1168.52 178.271L1107.76 103.115L1197.07 47.1968L1191.6 207.131L1168.52 178.272V178.271ZM1219.55 1.50294L1212.86 16.5341L1219.55 1.50294ZM1483.22 0.298039L1411.53 83.8733L1387.23 112.731L1413.36 0.298039H1409.1L1392.09 75.4541L1382.98 115.743L1282.73 4.50768L1279.09 0.298039H1274.22L1378.12 115.743L1304 91.0915L1267.54 79.0665L1264.51 0.298039H1260.86L1263.9 72.4493L1223.2 0.298039H1218.94L1220.16 2.1054L1261.47 76.0565L1264.51 80.8663L1263.3 77.8639L1264.51 80.8701V82.075L1265.72 85.0813L1283.95 136.79L1332.56 273.876L1333.16 276.282L1332.56 275.077L1331.94 273.872L1332.56 275.077L1333.16 276.282L1332.56 273.876L1283.95 136.785L1331.94 273.27L1195.85 211.34L1251.75 109.728L1265.72 85.076L1264.51 82.0697V81.4673H1263.3L1243.85 116.34L1195.25 204.124V199.314L1200.11 46.592L1198.89 45.9896L1200.11 46.592H1200.72L1263.3 81.465H1264.51V80.8626L1261.47 76.0527L1202.54 43.585L1201.32 42.9826L1212.86 16.5274L1219.55 1.49617V2.09862H1220.16L1218.94 0.29126H1215.9L1197.68 41.1767L1197.07 40.5743L1121.12 0.298039H1113.84L1175.8 33.3674L1113.84 0.298039L1175.8 33.3674L1195.25 43.5888L1196.46 44.1913L1195.25 43.5888L1152.72 70.6457L1106.54 100.107L1081.64 0.298039H1077.99L1102.9 99.5062L1103.51 101.912L1010.55 148.809L935.219 186.689L1060.37 0.298039H1056.12L1012.38 65.8359L930.969 186.689V186.086H930.356L890.871 0.298039H887.22L916.389 136.784L887.22 0.298039L916.389 136.784L924.281 174.663L927.318 187.891L924.281 174.663L913.344 148.809L847.735 0.298039H844.091L927.318 189.694L739.59 202.322L602.893 211.34L684.304 89.8866L744.45 0.298039L684.304 89.8866L744.45 0.298039H740.197L653.927 128.968L599.248 210.739L481.385 68.8421H481.992L480.777 68.2397L559.758 29.758L618.689 0.298039L559.758 29.7603L618.689 0.298039H610.789L539.709 35.1718L480.777 64.0323L501.433 0.298039H497.788L478.347 59.8234L474.094 26.754L470.449 0.298039H466.803L475.309 62.8289L402.404 0.298039H396.938L474.098 66.4368L136.908 135.582L139.338 126.563L136.908 135.582L139.338 126.563L177.613 0.298039H173.971L145.413 94.0955L135.084 128.968L121.112 0.298039H117.466L120.504 28.5576L131.439 130.772L111.998 104.918L34.2329 0.298039H29.9807L37.271 10.5194L127.184 130.772L37.271 10.5202L126.58 130.772L125.972 130.17L130.833 136.182L131.439 136.785L132.048 137.989L134.478 140.996L133.263 144.002V147.008L135.085 141.597L254.771 292.511L91.9497 362.858L6.28651 400.135L133.263 143.998L6.28651 400.136L133.263 144L134.478 140.993L132.048 137.987V138.59L129.618 136.782L132.048 138.59V137.987L131.44 136.782L130.833 136.18L8.10891 142.196L-96.9962 147.006V150.613L-53.8609 148.209L131.439 139.791L-53.8609 148.209L131.439 139.791L1.42604 400.136L-96.9962 222.163V229.381L-72.0871 273.873L-2.21951 401.338L-61.7587 381.5L-96.9962 370.076V374.285L-1.00459 404.946L-81.8073 505.356L-96.9939 524.596V530.005L-24.089 439.215L2.03503 406.146H1.42604L-2.21951 407.351L1.42604 406.146L0.818573 405.543L-1.00382 404.941L-2.82621 403.736L-1.00382 404.941L0.818573 405.543L1.42604 406.146H2.64097L88.9108 445.832L159.993 478.3L88.9108 445.832L159.993 478.3L161.816 478.903L159.993 478.3L-78.1602 609.975L-96.9939 620.197V624.406L159.994 481.907L-96.9962 624.406L159.994 481.907L159.387 483.112L163.032 480.707L164.247 480.104L165.462 478.9H166.071L167.894 477.695L166.071 478.9L167.894 477.695L168.502 477.092L167.894 477.695L166.071 478.9H165.464L164.856 480.104H164.249L163.034 480.707L176.399 572.7L201.309 743.458L176.399 572.7L201.309 743.458L192.803 741.65L193.411 742.253L-96.9962 679.722V682.727L31.1956 710.386L199.485 747.06L31.1956 710.386L199.485 747.06L110.783 816.809L70.6854 848.672L-96.9962 721.208V725.417L64.6107 848.672L-96.9962 725.417L64.6107 848.672H62.7876L67.6481 851.685L70.0779 852.882L71.2936 853.484L406.049 1036.27L410.302 1038.67L406.049 1036.27L-23.4838 1052.5L-24.6987 1054.91L-23.4838 1052.5L71.2936 853.484L70.0779 852.882H67.6481L-20.4457 977.944V977.341L-22.2681 980.354L-76.9468 845.668L-75.1244 848.078L-79.3774 840.261L66.4293 852.882H70.0748L67.645 851.685L62.7845 848.672L-81.1998 836.654L-81.8073 835.449L-96.9939 806.587V814.403L-89.7074 828.234L-96.9939 821.02V825.824L-84.8431 837.851L-96.9939 825.824L-84.8431 837.851L-96.9939 847.475V851.685L-83.0199 841.458L-84.2356 839.056V837.851L-84.8431 836.051L-84.2356 837.851V839.056L-83.0199 841.458L-27.1255 977.341V977.944L-24.6957 983.961V991.175L-27.733 1048.9V1052.5L-31.986 1053.11L-29.5562 1054.3L-38.6697 1061.52L-93.9558 1103.61L-66.0094 1058.51L-24.6964 991.175V984.563L-96.9939 1101.81V1110.82L-28.9495 1059.12L-96.9939 1110.82L-28.9495 1059.12L-28.342 1057.91L-28.9495 1059.12L-79.3751 1277.37L-88.4886 1317.06L-96.9939 1154.72V1225.06L-92.1334 1324.87L-96.9939 1319.46V1324.87L-94.564 1327.28L-96.9939 1324.87L-94.564 1327.28L-93.3491 1329.08L-92.1334 1330.28L-90.9185 1330.88L-90.311 1331.49L-87.8804 1334.49L-53.2511 1367.57L43.9539 1461.36L-53.2526 1367.57L43.9539 1461.36L45.7763 1463.16L43.9539 1461.36H37.8785L43.3464 1463.16L45.1688 1463.76L43.3464 1463.16L-16.8002 1483.61L-96.9962 1511.27V1514.87L46.3837 1465.57L32.4105 1549.14L30.5881 1546.73L31.1956 1550.94L28.765 1549.75L29.3724 1550.94L31.1948 1552.75L31.8023 1553.95V1554.55L36.6628 1561.17L90.7363 1634.52L84.0534 1639.93L53.6748 1664.58L36.6636 1561.17L31.8031 1554.55L50.6375 1668.79V1670.6H52.4599L53.0674 1669.39L54.2823 1668.79L54.8898 1668.19L74.3309 1652.56L54.8898 1668.19L74.3309 1652.56L91.3422 1638.73L92.5571 1637.52L91.9497 1636.93L85.8743 1638.73L91.9497 1636.93L93.7721 1636.33L170.323 1615.28L311.88 1576.8L258.418 1670.6H262.671L267.531 1661.58L313.705 1580.4L314.312 1665.18L313.705 1575H312.491L308.847 1573.79L100.455 1630.91L113.821 1619.49L100.455 1630.91L113.821 1619.49L222.571 1528.1L221.356 1527.49L220.141 1526.3L221.356 1527.49L222.571 1528.1L307.627 1571.39H300.341L308.847 1573.79L312.491 1575H313.706L317.352 1576.2L319.782 1576.8L443.72 1611.67L446.758 1612.88L449.188 1613.48L446.758 1612.88L443.72 1611.67L409.087 1670.6H413.34L427.921 1644.75L446.755 1613.48L503.256 1670.6H508.116L449.792 1612.27L465.592 1609.87L579.81 1596.04L465.592 1609.87L579.81 1596.04L559.15 1670.6H562.795L577.981 1617.09L584.057 1596.04L584.664 1592.43L584.057 1596.04L598.638 1593.64L584.057 1596.04L740.803 1609.87L702.53 1630.91L627.191 1670.6H635.091L720.152 1625.51L745.668 1611.67L759.639 1670.6H763.288L749.918 1614.68L805.204 1670.6L749.918 1614.68L746.881 1611.07L746.273 1611.67L745.665 1610.47L742.628 1609.87L745.665 1610.47H746.273L747.488 1611.07L752.348 1612.27L989.898 1670.6H1005.08L926.713 1651.36L751.741 1608.67L752.956 1608.06L751.741 1607.46L751.133 1608.06L751.741 1607.46L1014.2 1423.48L1043.97 1670.6H1044.58L1014.2 1422.28L1008.73 1422.88L747.488 1606.26L691.593 1460.76L982.603 1425.88L690.99 1460.76L982.603 1425.88L1008.73 1422.88L1014.2 1422.28H1015.42L800.341 1346.52L1008.12 1419.87L692.808 1456.55L694.631 1454.15L692.2 1455.34L704.959 1427.09L747.487 1328.48H748.094L746.271 1327.88L744.449 1327.28L690.985 1450.54L689.165 1290.6L706.176 1302.03L743.844 1326.08L706.176 1302.03L743.844 1326.08L743.236 1326.67L744.451 1327.28L746.273 1327.88L748.097 1328.48L800.342 1346.52L1015.42 1422.28L1018.45 1422.88L1023.92 1423.48L1084.07 1433.7L1151.51 1445.73H1152.11L1155.15 1446.33L1155.75 1445.12L1157.58 1441.52L1216.51 1336.3L1261.47 1256.33L1216.51 1336.3L1261.47 1256.33L1256 1254.52H1255.4L1254.79 1255.12H1255.4L1224.41 1276.17L1017.23 1417.46H1016.63L949.194 1178.76L947.974 1178.17L946.157 1181.78L1012.99 1417.46L894.515 1375.98L750.525 1325.48L942.512 1181.78L941.292 1184.18L945.549 1179.97L947.973 1177.57L951.624 1173.96L1058.55 1066.33L1165.48 959.305L1166.08 958.108L1167.3 956.903L1164.26 955.096L952.23 1168.54L1076.17 879.94L1102.9 902.185L1164.26 955.096L1167.3 956.903L1168.52 958.703L1167.3 956.903L1166.08 958.108L1195.85 1060.32L1219.54 1141.49L1218.94 1140.88L1220.76 1145.7V1146.9L1221.37 1148.1H1221.98L1238.99 1163.73L1245.67 1169.75L1247.49 1171.55L1248.71 1170.35L1249.32 1169.75L1249.93 1168.54L1359.89 1030.26L1427.32 945.479L1359.89 1030.26L1427.32 945.479L1432.79 938.867L1433.4 938.265L1432.79 935.26L1431.58 934.658L1429.76 932.85L1170.95 952.693L1279.09 804.182V803.58L1213.47 861.902L1268.15 813.801L1169.12 949.086L1170.33 914.212V901.583L1167.3 900.385H1166.69L1166.09 904.595L1166.69 903.39L1165.48 950.886L1082.24 880.542L1098.65 884.149L1074.95 878.735H1074.34L1076.17 879.94L952.231 1168.54L1076.17 879.94L1074.34 878.735L1073.13 878.14L1074.34 878.735H1074.95L1098.65 884.149L1166.69 900.385H1167.3L1170.33 901.583V899.783L1213.47 861.904L1279.09 803.581H1278.48L1277.88 802.376L1276.66 801.171L1277.88 802.376L1279.09 803.581V804.183L1429.76 932.852L1431.58 934.659L1432.79 935.261L1430.36 928.642L1364.14 872.124L1282.12 801.177L1362.32 739.849L1414.57 885.958L1362.32 739.248L1361.1 739.851V734.439L1297.93 723.617L1226.84 710.99L1257.83 706.781L1226.84 710.99L1257.83 706.781L1361.1 692.351V736.844L1361.72 737.447L1362.32 739.254L1414.57 885.964L1430.36 928.648L1432.79 935.268L1433.4 938.272L1434.01 940.072L1435.23 937.67L1435.83 935.268L1435.23 937.67L1438.26 940.072L1435.23 937.67L1434.01 940.072L1433.4 938.272L1432.79 938.875L1443.13 1098.8L1454.67 1279.18L1314.93 1223.26L1333.16 1179.37L1432.79 941.872V942.474L1443.13 1098.8L1432.79 938.867L1427.33 945.479L1311.89 1221.46L1249.93 1168.54L1249.32 1169.75L1248.71 1170.35L1247.49 1171.55L1245.67 1169.75L1253.57 1219.66L1255.4 1232.88L1232.91 1169.75L1226.84 1152.91L1238.99 1163.73L1221.98 1148.1H1221.37L1220.76 1146.9V1145.7L1063.41 1161.93L952.837 1173.96L959.517 1169.15L954.662 1171.55L951.625 1173.96L947.974 1177.57L945.55 1179.97L946.156 1181.78L947.974 1178.17L949.193 1178.76L1157.58 1230.48L1256 1254.52L1261.47 1256.33L1351.39 1289.4L1480.79 1337.5L1351.39 1289.4L1480.79 1337.5L1483.22 1338.1L1480.79 1337.5L1157.58 1441.52L1155.75 1445.12L1155.15 1446.33L1152.11 1445.73V1446.93L1150.9 1464.97L1148.47 1511.27L1147.86 1510.66L1148.47 1514.27V1514.87L1149.07 1519.68L1153.33 1540.12L1159.4 1575L1057.95 1670.6H1063.41L1156.97 1582.21L1063.41 1670.6L1156.97 1582.21L1124.77 1670.6H1129.02L1162.44 1577.4L1129.02 1670.6L1162.44 1577.4H1160.01L1159.4 1575.6L1160.01 1577.4H1162.44L1272.41 1598.45L1273.62 1599.05L1277.88 1599.65L1285.77 1601.45L1277.88 1599.65L1276.66 1600.85L1307.64 1670.6L1276.66 1600.85L1307.64 1670.6H1311.29L1297.93 1639.33L1281.52 1602.66L1285.77 1605.66L1285.16 1604.46L1281.52 1602.06L1330.73 1632.72L1392.09 1670.6H1398.77L1290.63 1603.85L1317.97 1612.88L1290.63 1603.85L1317.97 1612.88L1469.86 1662.18L1472.89 1670.6L1469.86 1660.97L1469.25 1660.37L1469.86 1660.97L1472.89 1670.6H1476.54L1473.5 1660.97L1492.94 1641.73L1547.02 1586.42L1492.94 1641.73L1547.02 1586.42L1528.78 1634.52L1514.82 1670.6H1519.07L1553.09 1581.61L1562.81 1584.02L1590.76 1590.03L1562.81 1584.02L1590.76 1590.03V1586.42L1559.17 1579.21L1590.76 1570.79L1559.17 1579.21L1553.09 1581.01H1552.48L1550.05 1582.21V1581.61L1545.8 1582.81L1528.78 1599.65L1471.07 1658.57L1286.99 1599.05L1438.87 1588.82L1543.98 1581.61L1438.87 1588.82L1543.98 1581.61L1537.9 1584.61L1545.8 1582.81L1550.05 1581.61L1552.48 1581.01H1553.09L1559.17 1579.21L1590.76 1570.79V1567.18L1565.85 1573.79L1590.76 1559.97L1565.85 1573.79L1590.76 1559.97V1556.36L1579.82 1561.77L1554.92 1575.6L1556.73 1571.99L1553.09 1575.6L1542.15 1466.77L1539.12 1440.31L1535.47 1436.11H1534.87L1535.47 1438.51V1439.72L1542.76 1512.46L1535.47 1439.72L1542.76 1512.46L1550.05 1577.4L1283.95 1595.44L1534.87 1438.51L1283.95 1595.44L1281.52 1597.24L1280.91 1597.85L1281.52 1597.24L1283.95 1595.44L1534.87 1438.51H1535.47L1534.87 1436.11L1534.25 1435.51L1534.87 1436.11H1535.47L1539.12 1440.31L1590.76 1496.23V1491.42L1539.12 1434.9L1590.76 1371.17L1539.12 1434.9L1590.76 1371.17V1365.76L1538.51 1430.09L1536.68 1388L1590.76 1354.33L1536.68 1388L1536.08 1388.61L1534.87 1389.21L1493.55 1347.12L1533.04 1388L1533.65 1404.84L1534.87 1427.09L1493.55 1347.12L1534.87 1389.21L1536.08 1388.61L1536.68 1388L1590.76 1354.33V1350.12L1535.47 1385L1490.51 1339.3L1590.76 1337.5L1489.3 1339.3H1485.04L1484.44 1336.9L1482.61 1333.89L1276.66 1258.13L1288.81 1259.94L1276.66 1258.13L1288.81 1259.94L1454.67 1283.39H1455.28L1453.45 1279.78L1452.84 1278.58L1453.45 1279.78L1455.28 1283.39H1454.67V1283.99H1455.88L1466.21 1303.83L1482.61 1333.89L1484.44 1336.9L1485.04 1339.3H1489.3L1590.76 1337.5V1333.89L1489.91 1335.7L1491.73 1333.89L1487.47 1335.09L1486.87 1333.89L1475.32 1313.45L1460.14 1285.19L1576.78 1323.67L1590.76 1328.48L1576.78 1323.67L1590.76 1328.48V1324.87L1462.57 1281.58L1590.76 1245.51L1462.57 1281.58L1590.76 1245.51V1241.3L1458.31 1279.18L1435.83 938.867L1537.29 1039.88L1590.76 1093.99L1537.29 1039.88L1590.76 1093.99V1088.58L1438.87 936.457L1554.3 944.274L1590.76 946.684L1554.3 944.274L1590.76 946.684V943.077L1520.89 938.265L1441.91 933.453L1529.4 898.578L1590.76 873.93L1529.4 898.578L1590.76 873.93V870.323L1573.14 876.935L1437.66 931.05L1437.05 932.248L1437.66 931.05L1440.69 923.233L1438.87 925.636L1436.44 932.248L1435.83 934.055L1436.44 932.248L1438.87 925.636L1525.75 656.272L1526.97 652.665L1528.18 649.057L1528.78 647.852L1527.57 648.455L1553.09 352.635L1554.92 327.382L1555.52 327.984L1554.92 327.382L1553.09 352.635L1559.77 513.172L1553.09 352.635L1559.77 513.172L1564.63 638.834L1562.2 638.232L1563.41 639.437L1564.63 640.642V641.846H1566.45L1590.76 643.654V640.046L1568.88 638.841L1589.54 561.878L1568.88 638.841L1589.54 561.878L1590.76 557.068V543.837L1578 591.337L1568.28 627.409L1555.52 327.982L1590.76 344.818V340.609L1557.34 324.374L1556.13 324.977L1557.34 324.374L1590.76 306.337V302.128L1559.17 319.564L1556.13 324.374L1559.17 319.564L1569.5 304.537L1590.76 273.271L1569.5 304.537L1590.76 273.271V267.26L1553.7 321.373L1436.44 180.075L1389.05 122.955H1389.66L1387.84 121.148L1426.74 116.385L1387.84 121.148L1390.42 122.549L1670.66 161.584L1671.71 154.393L1397.56 118.145L1387.84 117.543L1440.09 56.8157L1488.08 0.298039H1483.22Z" fill="url(#paint0_linear_62_2333)" fill-opacity="0.05"/>
<defs>
<linearGradient id="paint0_linear_62_2333" x1="810" y1="-241.344" x2="791.019" y2="896.044" gradientUnits="userSpaceOnUse">
<stop stop-color="#E31013" stop-opacity="0"/>
<stop offset="1" stop-color="#E31013"/>
</linearGradient>
</defs>
</svg>
