<svg width="463" height="138" viewBox="0 0 463 138" fill="none" xmlns="http://www.w3.org/2000/svg">
<path d="M159.349 53.438H162.903V69.3422H159.349V53.438Z" fill="#474747"/>
<path d="M166.651 53.438H170.303L174.441 61.3657L175.999 64.8891H176.096C175.999 64.0571 175.902 63.0784 175.804 62.0508C175.707 61.0231 175.658 59.9954 175.658 59.0656V53.438H179.066V69.3422H175.415L171.276 61.4146L169.719 57.9401H169.621C169.719 58.821 169.816 59.7508 169.913 60.7784C170.011 61.8061 170.059 62.7848 170.059 63.7146V69.3422H166.651V53.438Z" fill="#474747"/>
<path d="M185.882 56.472H181.549V53.438H193.866V56.472H189.533V69.3912H185.931V56.472H185.882Z" fill="#474747"/>
<path d="M196.35 53.438H206.281V56.472H199.952V59.6529H205.356V62.638H199.952V66.3082H206.525V69.3422H196.35V53.438Z" fill="#474747"/>
<path d="M218.209 69.3422L215.191 63.6167H213.243V69.3422H209.689V53.438H215.386C216.213 53.438 217.041 53.5359 217.771 53.6827C218.502 53.8295 219.134 54.1231 219.719 54.5146C220.254 54.9061 220.692 55.3954 221.033 56.0316C221.374 56.6678 221.52 57.4508 221.52 58.3805C221.52 59.555 221.277 60.5337 220.741 61.2678C220.254 62.0018 219.524 62.5891 218.696 62.9805L222.299 69.3422H218.209ZM213.243 60.7295H215.094C216.019 60.7295 216.749 60.5337 217.236 60.1422C217.723 59.7508 217.966 59.1635 217.966 58.3805C217.966 57.5976 217.723 57.0593 217.236 56.7656C216.749 56.472 216.019 56.3252 215.094 56.3252H213.243V60.7295Z" fill="#474747"/>
<path d="M224.538 53.438H228.19L232.328 61.3657L233.886 64.8891H233.983C233.886 64.0571 233.788 63.0784 233.691 62.0508C233.594 61.0231 233.545 59.9954 233.545 59.0656V53.438H236.953V69.3422H233.301L229.163 61.4146L227.605 57.9401H227.508C227.605 58.821 227.703 59.7508 227.8 60.7784C227.897 61.8061 227.946 62.7848 227.946 63.7146V69.3422H224.538V53.438Z" fill="#474747"/>
<path d="M248.151 65.5742H243.331L242.357 69.3422H238.706L243.672 53.438H247.956L252.922 69.3422H249.125L248.151 65.5742ZM247.421 62.7359L247.08 61.2678C246.837 60.4848 246.642 59.6039 246.447 58.7231C246.252 57.8422 246.009 56.9614 245.814 56.1295H245.717C245.522 56.9614 245.327 57.8422 245.133 58.7231C244.938 59.6039 244.694 60.4359 244.5 61.2678L244.11 62.7359H247.421Z" fill="#474747"/>
<path d="M255.94 56.472H251.607V53.438H263.876V56.472H259.543V69.3912H255.94V56.472Z" fill="#474747"/>
<path d="M266.359 53.438H269.913V69.3422H266.359V53.438Z" fill="#474747"/>
<path d="M280.137 69.6359C279.066 69.6359 278.092 69.4402 277.216 69.0487C276.34 68.6572 275.561 68.1189 274.928 67.3848C274.295 66.6508 273.808 65.8189 273.467 64.7912C273.126 63.7636 272.932 62.5891 272.932 61.3168C272.932 59.9955 273.126 58.87 273.467 57.8423C273.808 56.8146 274.295 55.9827 274.928 55.2976C275.561 54.6125 276.34 54.0742 277.216 53.7317C278.092 53.3891 279.066 53.1934 280.137 53.1934C281.208 53.1934 282.182 53.3891 283.058 53.7317C283.935 54.0742 284.714 54.6125 285.346 55.3466C285.979 56.0806 286.466 56.9125 286.807 57.9402C287.148 58.9678 287.343 60.0934 287.343 61.4146C287.343 62.7359 287.148 63.8614 286.807 64.8891C286.466 65.9168 285.979 66.7976 285.346 67.4827C284.714 68.1678 283.935 68.7551 283.058 69.1466C282.182 69.538 281.208 69.6359 280.137 69.6359ZM280.137 66.5529C281.208 66.5529 282.085 66.0636 282.717 65.1338C283.35 64.204 283.642 62.9317 283.642 61.3168C283.642 59.7019 283.35 58.4785 282.717 57.5976C282.085 56.7168 281.208 56.2763 280.137 56.2763C279.066 56.2763 278.19 56.7168 277.557 57.5976C276.924 58.4785 276.632 59.7508 276.632 61.3168C276.632 62.9317 276.924 64.204 277.557 65.1338C278.19 66.0636 279.066 66.5529 280.137 66.5529Z" fill="#474747"/>
<path d="M290.312 53.438H293.964L298.102 61.3657L299.66 64.8891H299.758C299.66 64.0571 299.563 63.0784 299.465 62.0508C299.368 61.0231 299.319 59.9954 299.319 59.0656V53.438H302.727V69.3422H299.076L294.938 61.4146L293.38 57.9401H293.282C293.38 58.821 293.477 59.7508 293.574 60.7784C293.672 61.8061 293.72 62.7848 293.72 63.7146V69.3422H290.312V53.438Z" fill="#474747"/>
<path d="M313.925 65.5742H309.106L308.132 69.3422H304.48L309.446 53.438H313.731L318.697 69.3422H314.899L313.925 65.5742ZM313.195 62.7359L312.854 61.2678C312.611 60.4848 312.416 59.6039 312.221 58.7231C312.027 57.8422 311.783 56.9614 311.589 56.1295H311.491C311.296 56.9614 311.102 57.8422 310.907 58.7231C310.712 59.6039 310.469 60.4359 310.274 61.2678L309.885 62.7359H313.195Z" fill="#474747"/>
<path d="M320.4 53.438H323.954V66.3571H330.235V69.3912H320.4V53.438Z" fill="#474747"/>
<path d="M337.83 53.438H342.309C343.526 53.438 344.597 53.5848 345.571 53.8784C346.545 54.172 347.372 54.6614 348.054 55.2976C348.736 55.9337 349.271 56.7656 349.661 57.7444C350.05 58.7231 350.196 59.8976 350.196 61.2678C350.196 62.638 350.001 63.8125 349.661 64.8401C349.271 65.8678 348.784 66.6997 348.103 67.3359C347.421 67.972 346.593 68.5103 345.668 68.804C344.743 69.0976 343.672 69.2933 342.504 69.2933H337.83V53.438ZM342.114 66.455C342.796 66.455 343.429 66.3571 343.964 66.2103C344.5 66.0146 344.987 65.721 345.376 65.3295C345.766 64.938 346.058 64.3997 346.301 63.7635C346.545 63.1274 346.642 62.2954 346.642 61.3657C346.642 60.4359 346.545 59.6039 346.301 58.9678C346.107 58.3316 345.766 57.7933 345.376 57.4508C344.987 57.0593 344.5 56.8146 343.964 56.6188C343.429 56.472 342.796 56.3742 342.114 56.3742H341.433V66.5039H342.114V66.455Z" fill="#474747"/>
<path d="M353.263 53.438H363.195V56.472H356.865V59.6529H362.27V62.638H356.865V66.3082H363.438V69.3422H353.263V53.438Z" fill="#474747"/>
<path d="M366.603 53.438H370.254L374.392 61.3657L375.95 64.8891H376.048C375.95 64.0571 375.853 63.0784 375.755 62.0508C375.658 61.0231 375.609 59.9954 375.609 59.0656V53.438H379.017V69.3422H375.366L371.228 61.4146L369.67 57.9401H369.572C369.67 58.821 369.767 59.7508 369.864 60.7784C369.962 61.8061 370.011 62.7848 370.011 63.7146V69.3422H366.603V53.438Z" fill="#474747"/>
<path d="M385.834 56.472H381.501V53.438H393.818V56.472H389.485V69.3912H385.883V56.472H385.834Z" fill="#474747"/>
<path d="M402.727 65.5742H397.907L396.934 69.3422H393.282L398.248 53.438H402.532L407.498 69.3422H403.701L402.727 65.5742ZM401.997 62.7359L401.656 61.2678C401.413 60.4848 401.218 59.6039 401.023 58.7231C400.829 57.8422 400.585 56.9614 400.39 56.1295H400.293C400.098 56.9614 399.903 57.8422 399.709 58.7231C399.514 59.6039 399.271 60.4359 399.076 61.2678L398.686 62.7359H401.997Z" fill="#474747"/>
<path d="M409.251 53.438H412.805V66.3571H419.085V69.3912H409.251V53.438Z" fill="#474747"/>
<path d="M165.531 93.615C164.557 93.615 163.632 93.4192 162.805 93.0277C161.977 92.6362 161.247 92.0979 160.663 91.3639C160.078 90.6299 159.591 89.749 159.299 88.7214C158.959 87.6937 158.812 86.5192 158.812 85.2469C158.812 83.9745 158.959 82.849 159.299 81.8214C159.64 80.7937 160.078 79.9128 160.711 79.1788C161.295 78.4448 162.026 77.9065 162.853 77.515C163.681 77.1235 164.606 76.9277 165.628 76.9277C166.554 76.9277 167.381 77.1235 168.111 77.515C168.842 77.9065 169.377 78.3469 169.815 78.8362L169.183 79.5703C168.744 79.0809 168.257 78.6405 167.673 78.3469C167.089 78.0533 166.456 77.9065 165.726 77.9065C164.85 77.9065 164.071 78.0533 163.34 78.3958C162.61 78.7384 162.026 79.2277 161.539 79.8639C161.052 80.5001 160.663 81.2341 160.419 82.1639C160.176 83.0448 160.03 84.0724 160.03 85.198C160.03 86.3235 160.176 87.3511 160.419 88.232C160.663 89.1128 161.052 89.8958 161.539 90.532C162.026 91.1682 162.61 91.6575 163.292 92.0001C163.973 92.3426 164.752 92.5384 165.628 92.5384C166.456 92.5384 167.186 92.3916 167.819 92.049C168.452 91.7065 169.085 91.2171 169.669 90.5809L170.302 91.266C169.669 92.0001 168.988 92.5384 168.258 92.9299C167.43 93.4192 166.554 93.615 165.531 93.615Z" fill="#474747"/>
<path d="M182.864 93.615C181.89 93.615 181.014 93.4192 180.235 93.0277C179.407 92.6362 178.725 92.049 178.141 91.315C177.557 90.5809 177.119 89.7001 176.778 88.6724C176.437 87.6448 176.291 86.4703 176.291 85.198C176.291 83.9256 176.437 82.8001 176.778 81.7724C177.119 80.7448 177.557 79.8639 178.141 79.1788C178.725 78.4448 179.407 77.9065 180.235 77.515C181.062 77.1235 181.939 76.9277 182.864 76.9277C183.837 76.9277 184.714 77.1235 185.541 77.515C186.369 77.9065 187.051 78.4448 187.635 79.1788C188.219 79.9128 188.657 80.7937 188.998 81.7724C189.339 82.8001 189.485 83.9256 189.485 85.198C189.485 86.4703 189.339 87.6448 188.998 88.6724C188.657 89.7001 188.219 90.5809 187.635 91.315C187.051 92.049 186.369 92.6362 185.541 93.0277C184.714 93.4192 183.789 93.615 182.864 93.615ZM182.864 92.5873C183.691 92.5873 184.422 92.3916 185.054 92.049C185.736 91.7065 186.272 91.2171 186.758 90.5809C187.245 89.9448 187.586 89.1618 187.878 88.2809C188.122 87.4001 188.268 86.3724 188.268 85.2469C188.268 84.1214 188.122 83.1426 187.878 82.2618C187.635 81.3809 187.245 80.5979 186.758 79.9618C186.272 79.3256 185.687 78.8362 185.054 78.4937C184.373 78.1511 183.643 78.0043 182.864 78.0043C182.036 78.0043 181.306 78.1511 180.624 78.4937C179.942 78.8362 179.358 79.3256 178.92 79.9618C178.433 80.5979 178.092 81.332 177.849 82.2618C177.606 83.1426 177.459 84.1703 177.459 85.2469C177.459 86.3724 177.606 87.4001 177.849 88.2809C178.092 89.1618 178.482 89.9448 178.92 90.5809C179.407 91.2171 179.942 91.7065 180.624 92.049C181.306 92.4405 182.036 92.5873 182.864 92.5873Z" fill="#474747"/>
<path d="M202.775 93.6148C202.094 93.6148 201.412 93.5169 200.779 93.3212C200.146 93.1254 199.562 92.7829 199.075 92.2935C198.588 91.8042 198.15 91.1191 197.858 90.2871C197.566 89.4552 197.42 88.4276 197.42 87.1552V77.2212H198.54V87.0084C198.54 88.085 198.637 88.9659 198.88 89.6999C199.124 90.385 199.416 90.9723 199.806 91.4127C200.195 91.8531 200.633 92.1467 201.169 92.3425C201.656 92.5382 202.24 92.5871 202.775 92.5871C203.36 92.5871 203.895 92.4893 204.431 92.3425C204.966 92.1467 205.404 91.8531 205.794 91.4127C206.183 90.9723 206.524 90.434 206.768 89.6999C207.011 89.0148 207.108 88.085 207.108 87.0084V77.2212H208.131V87.1552C208.131 88.4276 207.985 89.4552 207.693 90.2871C207.4 91.1191 206.962 91.8042 206.475 92.2935C205.989 92.7829 205.404 93.1254 204.771 93.3212C204.139 93.5169 203.457 93.6148 202.775 93.6148Z" fill="#474747"/>
<path d="M226.047 93.3212L221.714 85.9318H218.306V93.3212H217.187V77.2212H221.763C222.542 77.2212 223.272 77.3191 223.905 77.4659C224.538 77.6127 225.122 77.8574 225.56 78.1999C225.999 78.5425 226.388 78.9829 226.632 79.5212C226.875 80.0595 227.021 80.6957 227.021 81.4786C227.021 82.751 226.632 83.7786 225.901 84.5127C225.171 85.2467 224.149 85.6871 222.883 85.834L227.313 93.3212H226.047ZM221.471 85.002C222.883 85.002 224.003 84.7084 224.733 84.1212C225.463 83.534 225.853 82.6531 225.853 81.4786C225.853 80.2552 225.463 79.4233 224.733 78.934C223.954 78.4446 222.883 78.1999 221.471 78.1999H218.306V85.002H221.471Z" fill="#474747"/>
<path d="M252.775 77.2212H261.539V78.1999H253.895V84.268H260.322V85.2467H253.895V92.3425H261.782V93.3212H252.775V77.2212Z" fill="#474747"/>
<path d="M273.808 93.615C272.64 93.615 271.618 93.3703 270.693 92.9299C269.767 92.4894 269.037 91.9022 268.404 91.1682L269.135 90.3852C269.719 91.0703 270.4 91.5596 271.228 91.9511C272.056 92.3426 272.883 92.5384 273.808 92.5384C275.026 92.5384 275.999 92.2448 276.73 91.6575C277.46 91.0703 277.801 90.2873 277.801 89.3086C277.801 88.8192 277.703 88.3788 277.557 88.0362C277.411 87.6937 277.216 87.4001 276.924 87.1554C276.632 86.9107 276.34 86.666 275.999 86.5192C275.658 86.3724 275.269 86.1767 274.879 85.9809L272.445 84.9043C272.104 84.7575 271.764 84.5618 271.374 84.366C270.985 84.1703 270.644 83.8767 270.303 83.5831C270.011 83.2894 269.719 82.8979 269.524 82.4575C269.329 82.0171 269.232 81.5277 269.232 80.8916C269.232 80.3043 269.329 79.766 269.573 79.2767C269.816 78.7873 270.108 78.3958 270.546 78.0533C270.936 77.7107 271.472 77.4171 272.007 77.2214C272.591 77.0256 273.224 76.9277 273.857 76.9277C274.831 76.9277 275.707 77.1235 276.437 77.515C277.168 77.9065 277.801 78.3469 278.287 78.8852L277.655 79.6192C277.168 79.1299 276.632 78.7384 275.999 78.4448C275.366 78.1511 274.636 78.0043 273.857 78.0043C272.786 78.0043 271.91 78.249 271.277 78.7873C270.644 79.3256 270.303 80.0107 270.303 80.8916C270.303 81.3809 270.4 81.7724 270.546 82.066C270.741 82.4086 270.936 82.6533 271.228 82.8979C271.52 83.1426 271.812 83.3384 272.104 83.4852C272.445 83.632 272.737 83.8277 273.029 83.9256L275.464 85.0022C275.902 85.1979 276.34 85.3937 276.73 85.6384C277.119 85.8831 277.508 86.1767 277.801 86.4703C278.093 86.8128 278.336 87.2043 278.531 87.6448C278.726 88.0852 278.823 88.6235 278.823 89.2596C278.823 89.8958 278.677 90.4341 278.482 90.9724C278.239 91.5107 277.898 91.9511 277.46 92.3426C277.022 92.7341 276.486 93.0277 275.853 93.2235C275.22 93.4192 274.587 93.615 273.808 93.615Z" fill="#474747"/>
<path d="M295.765 77.2212H299.806C300.731 77.2212 301.51 77.3191 302.241 77.4659C302.971 77.6127 303.555 77.8574 304.042 78.2488C304.529 78.5914 304.918 79.0808 305.162 79.6191C305.405 80.2063 305.551 80.8914 305.551 81.7233C305.551 83.2893 305.064 84.4637 304.042 85.2467C303.02 86.0297 301.656 86.4212 299.855 86.4212H296.837V93.3212H295.717V77.2212H295.765ZM299.66 85.4425C301.316 85.4425 302.533 85.1489 303.312 84.5616C304.091 83.9744 304.48 83.0446 304.48 81.7233C304.48 80.3531 304.091 79.4233 303.263 78.934C302.435 78.4446 301.218 78.1999 299.563 78.1999H296.934V85.4914H299.66V85.4425Z" fill="#474747"/>
<path d="M322.299 93.3212L317.966 85.9318H314.558V93.3212H313.438V77.2212H318.015C318.794 77.2212 319.524 77.3191 320.157 77.4659C320.79 77.6127 321.374 77.8574 321.812 78.1999C322.251 78.5425 322.64 78.9829 322.883 79.5212C323.127 80.0595 323.273 80.6957 323.273 81.4786C323.273 82.751 322.883 83.7786 322.153 84.5127C321.423 85.2467 320.401 85.6871 319.135 85.834L323.565 93.3212H322.299ZM317.772 85.002C319.183 85.002 320.303 84.7084 321.033 84.1212C321.764 83.534 322.153 82.6531 322.153 81.4786C322.153 80.2552 321.764 79.4233 321.033 78.934C320.254 78.4446 319.183 78.1999 317.772 78.1999H314.607V85.002H317.772Z" fill="#474747"/>
<path d="M336.564 93.615C335.59 93.615 334.714 93.4192 333.935 93.0277C333.107 92.6362 332.425 92.049 331.841 91.315C331.257 90.5809 330.819 89.7001 330.478 88.6724C330.137 87.6448 329.991 86.4703 329.991 85.198C329.991 83.9256 330.137 82.8001 330.478 81.7724C330.819 80.7448 331.257 79.8639 331.841 79.1788C332.425 78.4448 333.107 77.9065 333.935 77.515C334.762 77.1235 335.639 76.9277 336.564 76.9277C337.537 76.9277 338.414 77.1235 339.241 77.515C340.069 77.9065 340.751 78.4448 341.335 79.1788C341.919 79.9128 342.357 80.7937 342.698 81.7724C343.039 82.8001 343.185 83.9256 343.185 85.198C343.185 86.4703 343.039 87.6448 342.698 88.6724C342.357 89.7001 341.919 90.5809 341.335 91.315C340.751 92.049 340.069 92.6362 339.241 93.0277C338.414 93.4192 337.537 93.615 336.564 93.615ZM336.564 92.5873C337.391 92.5873 338.122 92.3916 338.755 92.049C339.436 91.7065 339.972 91.2171 340.459 90.5809C340.945 89.9448 341.286 89.1618 341.578 88.2809C341.822 87.4001 341.968 86.3724 341.968 85.2469C341.968 84.1214 341.822 83.1426 341.578 82.2618C341.335 81.3809 340.945 80.5979 340.459 79.9618C339.972 79.3256 339.388 78.8362 338.755 78.4937C338.122 78.1511 337.343 78.0043 336.564 78.0043C335.736 78.0043 335.006 78.1511 334.324 78.4937C333.643 78.8362 333.058 79.3256 332.62 79.9618C332.133 80.5979 331.793 81.332 331.549 82.2618C331.306 83.1426 331.16 84.1703 331.16 85.2469C331.16 86.3724 331.306 87.4001 331.549 88.2809C331.793 89.1618 332.182 89.9448 332.62 90.5809C333.107 91.2171 333.643 91.7065 334.324 92.049C335.006 92.4405 335.736 92.5873 336.564 92.5873Z" fill="#474747"/>
<path d="M357.012 93.615C355.99 93.615 355.016 93.4192 354.188 93.0277C353.361 92.6362 352.63 92.0979 352.046 91.3639C351.462 90.6299 350.975 89.749 350.634 88.7214C350.294 87.6937 350.147 86.5192 350.147 85.2469C350.147 83.9745 350.294 82.849 350.634 81.8214C350.975 80.7937 351.462 79.9128 352.046 79.1788C352.679 78.4448 353.409 77.9065 354.286 77.515C355.162 77.1235 356.136 76.9277 357.158 76.9277C357.694 76.9277 358.181 76.9767 358.619 77.0745C359.057 77.1724 359.446 77.3192 359.836 77.515C360.177 77.7107 360.517 77.9065 360.81 78.1511C361.102 78.3958 361.345 78.5916 361.54 78.8362L360.907 79.5703C360.469 79.1299 359.982 78.7384 359.398 78.3958C358.813 78.0533 358.083 77.9065 357.207 77.9065C356.282 77.9065 355.454 78.0533 354.724 78.3958C353.994 78.7384 353.361 79.2277 352.874 79.8639C352.387 80.5001 351.949 81.2341 351.705 82.1639C351.413 83.0448 351.316 84.0724 351.316 85.198C351.316 86.3235 351.462 87.3511 351.705 88.232C351.949 89.1128 352.338 89.8958 352.825 90.532C353.312 91.1682 353.945 91.6575 354.627 92.0001C355.357 92.3426 356.184 92.5384 357.061 92.5384C357.791 92.5384 358.473 92.4405 359.106 92.2448C359.739 92.049 360.274 91.7554 360.664 91.3639V86.3724H356.866V85.4426H361.783V91.8043C361.296 92.3426 360.615 92.7831 359.836 93.1256C359.057 93.4682 358.083 93.615 357.012 93.615Z" fill="#474747"/>
<path d="M379.066 93.3212L374.733 85.9318H371.325V93.3212H370.205V77.2212H374.782C375.56 77.2212 376.291 77.3191 376.924 77.4659C377.557 77.6127 378.141 77.8574 378.579 78.1999C379.017 78.5425 379.407 78.9829 379.65 79.5212C379.893 80.0595 380.04 80.6957 380.04 81.4786C380.04 82.751 379.65 83.7786 378.92 84.5127C378.189 85.2467 377.167 85.6871 375.901 85.834L380.332 93.3212H379.066ZM374.489 85.002C375.901 85.002 377.021 84.7084 377.751 84.1212C378.482 83.534 378.871 82.6531 378.871 81.4786C378.871 80.2552 378.482 79.4233 377.751 78.934C376.972 78.4446 375.901 78.1999 374.489 78.1999H371.325V85.002H374.489Z" fill="#474747"/>
<path d="M394.937 87.7914H388.608L386.71 93.3212H385.59L391.237 77.2212H392.357L398.005 93.3212H396.788L394.937 87.7914ZM394.645 86.8616L393.623 83.8765C393.282 82.8978 392.99 82.0169 392.698 81.1361C392.406 80.2552 392.114 79.3254 391.87 78.3467H391.773C391.481 79.3254 391.237 80.2552 390.945 81.1361C390.653 82.0169 390.361 82.9467 390.02 83.8765L388.998 86.8616H394.645Z" fill="#474747"/>
<path d="M404.869 77.2212H406.427L409.786 86.6659C409.981 87.2531 410.225 87.8403 410.419 88.4276C410.614 89.0148 410.857 89.602 411.052 90.2382H411.15C411.344 89.651 411.539 89.0148 411.734 88.4276C411.929 87.8403 412.123 87.2531 412.318 86.6659L415.629 77.2212H417.235V93.3212H416.164V82.751C416.164 82.0659 416.164 81.3808 416.213 80.5978C416.262 79.8148 416.262 79.0808 416.31 78.3957H416.262L415.044 81.968L411.588 91.5595H410.614L407.157 81.968L405.892 78.3957H405.794C405.843 79.0808 405.843 79.8148 405.892 80.5978C405.94 81.3808 405.94 82.1148 405.94 82.751V93.3212H404.918V77.2212H404.869Z" fill="#474747"/>
<path d="M125.755 39.1489C126.728 41.7425 126.826 44.4829 126.631 47.1744C126.242 53.2425 124.294 58.8701 121.616 64.2531C121.47 64.4978 121.373 64.7914 121.227 65.0361C116.991 62.2467 112.366 60.0935 107.498 58.4297C104.187 57.3042 100.876 56.3744 97.4198 55.8361C96.2026 55.6403 94.9368 55.4935 93.7196 55.3957C93.1354 53.634 92.3564 51.9212 91.0906 50.4531C89.9222 49.0829 88.6563 47.7616 87.3418 46.4893C85.6378 44.8255 83.4957 43.6999 81.1101 42.9659C78.3837 42.134 75.6086 41.7425 72.7361 41.5957C67.965 41.3999 63.2911 41.8403 58.666 42.6723C58.9581 39.785 59.7858 36.9957 61.149 34.2552C62.7556 31.0744 65.2873 28.7744 68.3058 27.0616C71.7624 25.1042 75.4625 23.8808 79.3087 22.9999C83.2036 22.1191 87.0984 21.7765 91.0906 21.7276C98.3935 21.5808 105.55 22.5595 112.415 25.251C114.849 26.1808 117.137 27.4042 119.231 29.0191C121.081 30.4382 122.59 32.151 123.613 34.2552C124.392 35.8701 125.122 37.485 125.755 39.1489Z" fill="#87C03F"/>
<path d="M121.228 65.085C122.25 65.7701 123.273 66.5041 124.246 67.2871C125.999 68.6573 127.606 70.2233 128.969 71.936C130.186 73.453 130.965 75.1169 131.306 76.9275C131.549 78.2977 131.793 79.6679 131.89 81.0382C132.085 83.1424 131.452 85.0999 130.624 86.9594C128.823 91.119 125.804 94.4956 122.201 97.4807C115.385 103.157 109.787 108.981 100.731 111.721C98.7837 112.308 93.8178 113.287 91.4322 112.406C89.8255 112.504 87.5373 110.057 86.3689 108.981C85.736 108.442 85.0057 107.464 84.2754 106.436C86.6123 102.717 88.2189 98.9488 89.4847 95.0339C89.5821 95.0828 89.7282 95.1318 89.8255 95.1807C91.4809 95.9637 93.0875 96.0126 94.7915 95.1807C97.031 94.1041 99.0271 92.5871 100.926 90.9722C109.348 83.6807 116.116 75.019 121.228 65.085Z" fill="#F8AB41"/>
<path d="M107.498 58.4787C112.415 60.1425 116.992 62.2957 121.227 65.085C116.115 75.0191 109.348 83.6808 100.925 91.0701C99.0754 92.734 97.0793 94.2021 94.7911 95.2786C93.0871 96.1106 91.4805 96.0616 89.8252 95.2786C89.7278 95.2297 89.5817 95.1808 89.4844 95.1318C91.4318 89.0148 92.4542 82.6042 93.9634 75.9978C95.278 69.9787 95.7648 63.9106 94.4016 57.9893C94.2069 57.1574 94.0121 56.3255 93.72 55.5425C94.9372 55.6404 96.203 55.7872 97.4201 55.9829C100.828 56.4233 104.187 57.3531 107.498 58.4787Z" fill="#83840F"/>
<path d="M93.7198 55.4447C93.9632 56.2766 94.2066 57.0596 94.4014 57.8915C95.7646 63.8127 95.3264 69.8808 93.9632 75.9C92.5026 82.5553 91.4803 88.917 89.4841 95.034C87.5854 94.1042 85.9301 92.8808 84.2748 91.5596C80.4773 88.4276 77.1667 84.9042 74.0995 81.1361V81.0872L74.0508 81.0383C73.9534 80.4021 73.8561 79.717 73.7587 79.0808C73.2718 75.6064 73.2718 72.1319 73.7587 68.7064C74.3916 64.6447 76.193 61.1213 79.5036 58.3808C81.6458 56.6191 84.2748 55.7872 87.2446 55.4447C89.4355 55.2489 91.5776 55.2489 93.7198 55.4447Z" fill="#165A11"/>
<path d="M58.764 42.7212C58.7153 42.7212 58.7153 42.7212 58.6667 42.7212C63.2918 41.8404 67.9656 41.4489 72.7368 41.6446C75.6092 41.7425 78.433 42.1829 81.1107 43.0148C83.4963 43.7489 85.6385 44.9233 87.3425 46.5382C88.657 47.8106 89.9228 49.1318 91.0913 50.5021C92.3571 51.9701 93.1361 53.6829 93.7203 55.4446C91.5781 55.2489 89.436 55.2489 87.2938 55.4936C84.324 55.8361 81.6949 56.668 79.5528 58.4297C76.2422 61.1701 74.4408 64.6936 73.8079 68.7553C73.2723 72.1318 73.321 75.6063 73.8079 79.1297C73.9053 79.7659 74.0026 80.451 74.1 81.0872C73.2723 80.0595 72.4447 79.0318 71.6657 77.9553C68.209 73.3063 65.1905 68.3638 62.8536 63.0787C61.0036 58.8701 59.6891 54.5148 58.9588 50.0127C58.5693 47.517 58.5206 45.1191 58.764 42.7212Z" fill="#27A8E1"/>
<path d="M74.1484 81.1851C77.2156 84.9531 80.5262 88.4766 84.3237 91.6085C85.9303 92.9297 87.6343 94.1531 89.5331 95.0829C88.2673 98.9489 86.6606 102.766 84.3237 106.485C83.35 105.164 82.425 103.745 81.8408 102.913C78.8223 98.7042 78.5301 97.0893 76.6801 92.4404C75.2195 88.7702 74.6353 84.9531 74.1484 81.1851Z" fill="#257339"/>
<path d="M81.7919 102.864C82.3762 103.696 83.3499 105.164 84.2749 106.436C83.3499 105.115 82.4248 103.696 81.7919 102.864C78.7734 98.6554 78.4326 97.0405 76.6313 92.3916C75.1707 88.7213 74.6352 84.9043 74.0996 81.1362L74.1483 81.1852C74.6838 84.9532 75.2194 88.7703 76.6799 92.3916C78.4813 97.0405 78.8221 98.6064 81.7919 102.864Z" fill="#27A8E1"/>
<path d="M83.1553 108.149C81.646 110.351 77.3617 115.294 74.2458 116.174C72.6879 117.496 68.5009 116.664 66.5048 116.468C64.0705 116.223 59.348 114.217 57.1085 113.434C50.7793 111.232 49.2214 109.715 43.8173 106.143C38.8027 102.815 34.7618 98.3128 30.7209 93.9575C27.5563 90.5319 24.8299 86.8128 22.7851 82.7022C20.3021 77.8085 19.4258 72.5724 20.6429 66.9936C21.4219 63.4213 23.4667 60.4362 26.1931 57.7447C29.309 54.7107 32.9117 52.3617 36.7579 50.2575C40.6527 48.1532 44.7423 46.5383 48.978 45.1681C52.1912 44.1405 55.4045 43.2596 58.6664 42.6724C58.423 45.0213 58.5203 47.4192 58.9098 49.866C59.6401 54.3681 60.9546 58.7724 62.8047 62.9319C65.1416 68.266 68.1601 73.1596 71.6168 77.8085C72.3957 78.8851 73.2234 79.9617 74.0997 80.9894C74.6353 84.7575 75.1708 88.6234 76.6314 92.2447C78.4814 96.8936 78.7736 98.4596 81.7921 102.717C82.3763 103.549 83.35 105.017 84.275 106.289C83.9342 107.023 83.5447 107.611 83.1553 108.149Z" fill="#27A8E1"/>
<path d="M74.1488 81.1363C74.1001 81.1363 74.1001 81.1363 74.1488 81.1363C74.1001 81.0874 74.1001 81.0874 74.1488 81.1363C74.1001 81.0874 74.1001 81.0874 74.1488 81.1363Z" fill="#27A8E1"/>
<path d="M71.665 77.955C72.4439 79.0316 73.2716 80.0593 74.0992 81.0869V81.1359C73.2716 80.0593 72.4439 79.0316 71.665 77.955C68.1596 73.3061 65.1411 68.3635 62.8042 63.0784C60.9541 58.8699 59.6396 54.5146 58.9093 50.0125C58.5199 47.5657 58.4225 45.1678 58.6659 42.8188C58.7146 42.8188 58.7146 42.8188 58.7633 42.8188C58.5199 45.1678 58.6172 47.6146 59.0067 50.0614C59.737 54.5635 61.0515 58.9678 62.9016 63.1274C65.1898 68.3635 68.2083 73.2571 71.665 77.955Z" fill="#27A8E1"/>
<path d="M133.447 56.6681C134.762 57.5 135.882 58.4298 136.855 59.6042C137.196 59.9957 137.488 60.4361 137.732 60.9255C137.926 61.317 138.024 61.7574 138.024 62.1489C138.024 62.4425 138.024 62.7851 137.975 63.0787C137.926 63.5681 137.683 63.9596 137.391 64.3021C136.758 65.134 135.93 65.6723 134.957 66.1127C133.107 66.9447 131.549 67.9234 129.358 67.9723C128.871 67.9723 127.703 67.9234 127.216 67.5808C126.826 67.483 126.437 66.8468 126.242 66.5532C125.999 66.2106 125.658 65.3298 125.463 64.9383C124.976 63.8127 124.976 63.4702 124.781 62.3447C124.587 61.317 124.684 60.2893 124.781 59.2617C124.83 58.4787 124.976 57.6957 125.268 56.9617C125.609 56.0808 126.193 55.4447 127.07 55.0042C127.654 54.7596 128.287 54.7106 128.968 54.8085C129.747 54.9064 130.526 55.2 131.257 55.4936C132.036 55.7872 132.717 56.1787 133.447 56.6681Z" fill="#27A8E1"/>
<path d="M41.0421 31.2701C42.0158 30.0956 43.1355 29.068 44.5474 28.3829C45.0343 28.1382 45.5698 27.9425 46.1054 27.8446C46.5922 27.7467 47.0791 27.7467 47.6146 27.8935C48.0041 27.9914 48.3936 28.1382 48.7344 28.285C49.3186 28.5297 49.8055 28.9212 50.2436 29.3127C51.2174 30.2425 51.9476 31.4169 52.4832 32.6403C53.5543 34.9893 54.7227 37.0446 54.8688 39.4914C54.9175 40.0297 54.8201 41.351 54.4306 41.7914C54.3332 42.1829 53.5543 42.4276 53.1648 42.5744C52.7266 42.7701 51.7042 42.819 51.2174 42.9169C49.9028 43.1127 49.416 42.9659 48.0528 42.819C46.787 42.6722 45.5211 42.2318 44.304 41.8403C43.3303 41.4978 42.4053 41.1063 41.5289 40.568C40.5065 39.9318 39.6789 39.051 39.1433 37.9254C38.8025 37.1914 38.7538 36.4573 38.8999 35.7233C39.046 34.8914 39.3381 34.1084 39.6789 33.3744C40.0684 32.5914 40.5065 31.9063 41.0421 31.2701Z" fill="#F8AB41"/>
<path d="M36.1739 65.5742L32.912 68.7061C32.3764 69.1954 32.3764 70.0274 32.8633 70.5657L34.1778 71.9848L32.7659 73.3061C32.5225 73.0614 32.133 73.0614 31.8409 73.3061C31.5975 73.5508 31.5488 73.9422 31.8409 74.2359L32.7172 75.1657C32.9607 75.4103 33.3501 75.4593 33.6423 75.1657C33.8857 74.921 33.8857 74.5295 33.6423 74.2359L35.0541 72.9146L36.3686 74.3337C36.8555 74.872 37.6832 74.872 38.2187 74.3827L38.5595 74.0891L45.6189 86.8614C45.6676 86.9103 45.6676 86.9593 45.7163 87.0082L49.7085 91.2167C50.1954 91.755 51.023 91.755 51.5586 91.2657L54.8205 88.1337C55.356 87.6444 55.356 86.8125 54.8692 86.2742L50.877 82.0657L41.9188 70.8103C42.8438 69.538 42.6978 67.8252 41.6267 66.6997L40.7504 65.7699C39.5332 64.3997 37.4884 64.3508 36.1739 65.5742ZM50.3901 83.338L53.9442 87.1061L50.6822 90.238L47.1282 86.4699L50.3901 83.338Z" fill="white"/>
<path d="M103.213 92.1954C102.726 94.4465 104.138 96.6976 106.329 97.1869C107.4 97.4316 108.52 97.2358 109.445 96.5997L122.298 88.1827L122.444 88.3784C122.639 88.721 122.98 88.9167 123.369 89.0146C124.148 89.2103 124.927 88.672 125.122 87.889C125.219 87.4976 125.122 87.1061 124.927 86.7635L120.253 79.2273C120.059 78.8848 119.718 78.689 119.328 78.5912C118.549 78.3954 117.77 78.9337 117.576 79.7167C117.478 80.1082 117.576 80.4997 117.77 80.8422L117.916 81.038L105.015 89.5529C104.09 90.1401 103.457 91.1188 103.213 92.1954ZM107.059 95.7678C106.427 95.621 106.086 95.0337 106.183 94.3976C106.329 93.7614 106.913 93.3699 107.546 93.5167C108.179 93.6635 108.52 94.2507 108.423 94.8869C108.325 95.5231 107.692 95.9146 107.059 95.7678ZM110.273 91.755C110.419 91.1188 111.003 90.7273 111.636 90.8741C112.269 91.021 112.61 91.6082 112.512 92.2444C112.366 92.8805 111.782 93.272 111.149 93.1252C110.565 92.9784 110.175 92.3912 110.273 91.755ZM106.232 90.8252C106.378 90.189 106.962 89.7976 107.595 89.9444C108.228 90.0912 108.569 90.6784 108.471 91.3146C108.325 91.9507 107.741 92.3422 107.108 92.1954C106.475 92.0976 106.086 91.4614 106.232 90.8252ZM117.819 90.238L108.52 88.1827L110.127 87.1061L110.808 88.1827L111.441 87.7422L110.76 86.6656L111.49 86.1763L112.707 88.1337L113.34 87.6933L112.123 85.7359L112.853 85.2465L113.535 86.3231L114.168 85.8827L113.535 84.8061L114.265 84.3167L115.482 86.2742L116.115 85.8337L114.898 83.8763L115.628 83.3869L116.261 84.4635L116.894 84.0231L116.212 82.9465L116.943 82.4571L118.16 84.4146L118.793 83.9742L117.576 82.0167L118.306 81.5273L121.276 86.2742L121.909 85.8337L118.403 80.255C118.306 80.1082 118.257 79.9124 118.306 79.7167C118.403 79.3252 118.744 79.0805 119.134 79.1784C119.328 79.2273 119.474 79.3252 119.572 79.472L124.245 87.0082C124.343 87.155 124.392 87.3507 124.343 87.5465C124.245 87.938 123.905 88.1827 123.515 88.0848C123.32 88.0359 123.174 87.938 123.077 87.7912L122.541 86.9103L117.819 90.238Z" fill="white"/>
<path d="M129.112 83.6303C129.297 82.7858 128.788 81.9548 127.974 81.7741C127.16 81.5935 126.35 82.1317 126.164 82.9762C125.979 83.8207 126.488 84.6518 127.302 84.8324C128.116 85.0131 128.926 84.4749 129.112 83.6303Z" fill="white"/>
<path d="M123.96 78.9434C124.099 78.31 123.723 77.6879 123.119 77.5539C122.515 77.4199 121.913 77.8247 121.773 78.4581C121.634 79.0915 122.011 79.7136 122.615 79.8476C123.219 79.9817 123.821 79.5768 123.96 78.9434Z" fill="white"/>
<path d="M128.656 78.7564C128.795 78.123 128.418 77.5009 127.814 77.3669C127.21 77.2329 126.608 77.6377 126.469 78.2711C126.33 78.9045 126.706 79.5266 127.31 79.6606C127.914 79.7947 128.516 79.3898 128.656 78.7564Z" fill="white"/>
<path d="M106.232 90.8253C106.086 91.4615 106.475 92.0487 107.108 92.1955C107.741 92.3423 108.325 91.9509 108.471 91.3147C108.617 90.6785 108.228 90.0913 107.595 89.9445C106.962 89.7977 106.378 90.2381 106.232 90.8253ZM106.962 91.0211C107.011 90.8253 107.206 90.6785 107.4 90.7274C107.595 90.7764 107.741 90.9721 107.692 91.1679C107.644 91.3636 107.449 91.5104 107.254 91.4615C107.059 91.4125 106.913 91.2168 106.962 91.0211Z" fill="white"/>
<path d="M110.273 91.7549C110.127 92.3911 110.516 92.9783 111.149 93.1251C111.782 93.272 112.366 92.8805 112.512 92.2443C112.658 91.6081 112.269 91.0209 111.636 90.8741C111.052 90.7273 110.419 91.1188 110.273 91.7549ZM111.052 91.9017C111.101 91.706 111.295 91.5592 111.49 91.6081C111.685 91.6571 111.831 91.8528 111.782 92.0486C111.733 92.2443 111.539 92.3911 111.344 92.3422C111.101 92.3422 111.003 92.0975 111.052 91.9017Z" fill="white"/>
<path d="M106.232 94.3975C106.086 95.0337 106.475 95.6209 107.108 95.7677C107.741 95.9145 108.325 95.523 108.471 94.8869C108.617 94.2507 108.228 93.6635 107.595 93.5167C106.962 93.3699 106.378 93.7613 106.232 94.3975ZM106.962 94.5933C107.011 94.3975 107.206 94.2507 107.4 94.2996C107.595 94.3486 107.741 94.5443 107.692 94.7401C107.644 94.9358 107.449 95.0826 107.254 95.0337C107.059 94.9847 106.913 94.789 106.962 94.5933Z" fill="white"/>
<path d="M107.254 28.8235L107.498 27.4043C107.547 27.0129 107.303 26.6703 106.914 26.6214L102.775 26.2788L106.086 27.0618C106.427 27.1597 106.622 27.4533 106.573 27.7958L106.329 29.215C106.183 30.0469 106.329 30.9277 106.719 31.6618L107.839 33.6682L107.547 33.815C107.157 34.0107 107.011 34.5001 107.157 34.9405C109.007 39.5894 111.49 43.9448 114.46 47.9575L114.655 48.2022C114.898 48.5448 115.385 48.6426 115.774 48.4469L117.284 47.615C117.673 47.4192 117.819 46.9299 117.673 46.4894L117.624 46.3426C115.726 41.6937 113.291 37.3384 110.322 33.3256L110.224 33.1788C109.981 32.8363 109.494 32.7384 109.105 32.9341L108.812 33.1299L107.741 31.2214C107.254 30.5363 107.108 29.6554 107.254 28.8235Z" fill="white"/>
<path d="M89.4842 44.7767C89.4842 44.7767 65.1901 34.1576 56.524 43.798C56.524 43.798 45.9592 52.3619 56.7188 81.2831L64.265 99.0959C64.8006 100.319 65.5309 101.494 66.5046 102.424C67.3322 103.207 68.3546 103.892 69.4257 103.892C72.1034 103.794 75.5601 102.179 77.9457 85.981C77.9457 85.981 78.7247 81.1363 75.6088 78.4938C75.6088 78.4938 83.1064 82.7023 89.0947 100.417C89.4842 101.641 90.1658 102.815 91.1395 103.696C93.0382 105.36 96.9331 106.338 99.1726 97.6278L109.397 61.2193C109.397 61.2193 117.576 33.3257 83.788 40.0789C83.788 40.0789 81.4997 40.6661 83.2524 41.9874C83.2524 42.0363 86.2709 42.9172 89.4842 44.7767Z" fill="white"/>
<path d="M239.728 94.2512C238.56 94.2512 237.537 94.0065 236.612 93.5661C235.687 93.1257 234.957 92.5384 234.324 91.8044L235.055 91.0214C235.639 91.7065 236.32 92.1959 237.148 92.5874C237.976 92.9789 238.803 93.1746 239.728 93.1746C240.945 93.1746 241.919 92.881 242.649 92.2938C243.38 91.7065 243.721 90.9235 243.721 89.9448C243.721 89.4555 243.623 89.015 243.477 88.6725C243.331 88.3299 243.136 88.0363 242.844 87.7916C242.552 87.5469 242.26 87.3023 241.919 87.1555C241.578 87.0086 241.189 86.8129 240.799 86.6172L238.365 85.5406C238.024 85.3938 237.684 85.198 237.294 85.0023C236.905 84.8065 236.564 84.5129 236.223 84.2193C235.931 83.9257 235.639 83.5342 235.444 83.0938C235.249 82.6533 235.152 82.164 235.152 81.5278C235.152 80.9406 235.249 80.4023 235.493 79.9129C235.736 79.4235 236.028 79.0321 236.466 78.6895C236.856 78.3469 237.391 78.0533 237.927 77.8576C238.511 77.6618 239.144 77.564 239.777 77.564C240.751 77.564 241.627 77.7597 242.357 78.1512C243.088 78.5427 243.721 78.9831 244.207 79.5214L243.574 80.2555C243.088 79.7661 242.552 79.3746 241.919 79.081C241.286 78.7874 240.556 78.6406 239.777 78.6406C238.706 78.6406 237.83 78.8852 237.197 79.4235C236.564 79.9618 236.223 80.6469 236.223 81.5278C236.223 82.0172 236.32 82.4086 236.466 82.7023C236.661 83.0448 236.856 83.2895 237.148 83.5342C237.44 83.7789 237.732 83.9746 238.024 84.1214C238.365 84.2682 238.657 84.464 238.949 84.5618L241.384 85.6384C241.822 85.8342 242.26 86.0299 242.649 86.2746C243.039 86.5193 243.428 86.8129 243.721 87.1065C244.013 87.4491 244.256 87.8406 244.451 88.281C244.646 88.7214 244.743 89.2597 244.743 89.8959C244.743 90.532 244.597 91.0703 244.402 91.6086C244.159 92.1469 243.818 92.5874 243.38 92.9789C242.942 93.3703 242.406 93.664 241.773 93.8597C241.14 94.0555 240.507 94.2512 239.728 94.2512Z" fill="#474747"/>
</svg>
