<svg width="430" height="135" viewBox="0 0 430 135" fill="none" xmlns="http://www.w3.org/2000/svg">
<g clip-path="url(#clip0_1171_9056)">
<path d="M141.03 48.3789H144.577V64.0168H141.03V48.3789Z" fill="#B762A5"/>
<path d="M148.292 48.3789H151.935L156.056 56.1522L157.602 59.6065H157.699C157.618 58.7769 157.526 57.8497 157.423 56.8248C157.322 55.8528 157.27 54.8762 157.269 53.899V48.3789H160.651V64.0168H156.974L152.877 56.2099L151.336 52.8036H151.224C151.305 53.6684 151.397 54.5956 151.5 55.5853C151.602 56.5428 151.653 57.505 151.654 58.4679V64.0072H148.272L148.292 48.3789Z" fill="#B762A5"/>
<path d="M167.395 51.3528H163.076V48.3789H175.28V51.3528H170.961V64.0168H167.391L167.395 51.3528Z" fill="#B762A5"/>
<path d="M177.74 48.3789H187.582V51.3528H181.301V54.4947H186.64V57.4446H181.287V61.043H187.823V64.0168H177.74V48.3789Z" fill="#B762A5"/>
<path d="M199.471 64.017L196.456 58.3816H194.524V64.017H190.978V48.3791H196.64C197.431 48.3746 198.22 48.4551 198.993 48.6193C199.684 48.7578 200.341 49.0305 200.926 49.4216C201.48 49.8049 201.928 50.3202 202.23 50.9205C202.574 51.6467 202.74 52.4436 202.713 53.2458C202.755 54.2483 202.491 55.2399 201.955 56.0899C201.452 56.8304 200.744 57.4096 199.916 57.757L203.486 64.0026L199.471 64.017ZM194.504 55.5759H196.336C197.094 55.6275 197.847 55.4208 198.471 54.9898C198.721 54.7769 198.918 54.5088 199.046 54.2068C199.173 53.9048 199.228 53.5774 199.206 53.2506C199.238 52.9423 199.187 52.631 199.058 52.3489C198.929 52.0668 198.726 51.8241 198.471 51.646C197.814 51.3033 197.076 51.1455 196.336 51.1896H194.504V55.5759Z" fill="#B762A5"/>
<path d="M205.743 48.3789H209.386L213.488 56.1474L215.034 59.6017H215.131C215.05 58.7721 214.958 57.8449 214.855 56.82C214.754 55.848 214.702 54.8714 214.701 53.8942V48.3789H218.083V64.0168H214.44L210.323 56.2099L208.777 52.8036H208.681C208.761 53.6684 208.853 54.5956 208.956 55.5853C209.058 56.5428 209.11 57.505 209.111 58.4679V64.0072H205.729L205.743 48.3789Z" fill="#B762A5"/>
<path d="M229.161 60.2983H224.363L223.397 64.0168H219.778L224.697 48.3789H228.968L233.886 64.0168H230.122L229.161 60.2983ZM228.436 57.5406L228.074 56.0994C227.848 55.3147 227.631 54.4835 227.422 53.6059C227.212 52.7284 227.003 51.8812 226.794 51.0645H226.697L226.112 53.6204C225.909 54.4915 225.697 55.3195 225.475 56.1042L225.088 57.5454L228.436 57.5406Z" fill="#B762A5"/>
<path d="M236.906 51.3528H232.587V48.3789H244.791V51.3528H240.472V64.0168H236.901L236.906 51.3528Z" fill="#B762A5"/>
<path d="M247.25 48.3789H250.796V64.0168H247.25V48.3789Z" fill="#B762A5"/>
<path d="M260.899 64.3052C259.905 64.3177 258.918 64.1263 258 63.7431C257.137 63.3771 256.366 62.824 255.744 62.1241C255.094 61.3735 254.601 60.5012 254.295 59.5586C253.934 58.4513 253.759 57.2922 253.778 56.1283C253.759 54.9691 253.933 53.8148 254.295 52.7125C254.598 51.7827 255.091 50.9255 255.744 50.1951C256.371 49.5153 257.142 48.9821 258 48.6337C259.866 47.918 261.933 47.918 263.798 48.6337C264.659 48.9826 265.43 49.5195 266.055 50.2047C266.706 50.9417 267.199 51.8032 267.504 52.7365C267.864 53.8309 268.038 54.9771 268.021 56.1283C268.039 57.2922 267.865 58.4511 267.504 59.5586C267.197 60.501 266.704 61.3732 266.055 62.1241C265.433 62.824 264.662 63.3771 263.798 63.7431C262.881 64.1263 261.894 64.3177 260.899 64.3052ZM260.899 61.2593C261.409 61.2698 261.913 61.1481 262.361 60.9064C262.809 60.6646 263.186 60.3111 263.455 59.8805C264.139 58.7513 264.467 57.4445 264.397 56.1283C264.397 54.5621 264.083 53.3386 263.455 52.4579C263.167 52.0504 262.784 51.718 262.339 51.4885C261.894 51.259 261.4 51.1392 260.899 51.1392C260.398 51.1392 259.904 51.259 259.46 51.4885C259.015 51.718 258.632 52.0504 258.344 52.4579C257.715 53.3386 257.401 54.5621 257.401 56.1283C257.332 57.4445 257.66 58.7513 258.344 59.8805C258.613 60.3111 258.99 60.6646 259.438 60.9064C259.886 61.1481 260.39 61.2698 260.899 61.2593Z" fill="#B762A5"/>
<path d="M271.007 48.3789H274.65L278.752 56.1474L280.298 59.6017H280.394C280.314 58.7721 280.222 57.8449 280.119 56.82C280.018 55.848 279.966 54.8714 279.964 53.8942V48.3789H283.346V64.0168H279.703L275.592 56.2099L274.046 52.8036H273.944C274.025 53.6684 274.117 54.5956 274.22 55.5853C274.323 56.5427 274.377 57.5049 274.379 58.4679V64.0072H270.997L271.007 48.3789Z" fill="#B762A5"/>
<path d="M294.43 60.2983H289.632L288.666 64.0168H285.057L289.975 48.3789H294.236L299.155 64.0168H295.391L294.43 60.2983ZM293.705 57.5406L293.343 56.0994C293.117 55.3147 292.9 54.4835 292.69 53.6059C292.481 52.7284 292.272 51.8812 292.062 51.0645H291.966L291.376 53.6204C291.173 54.4915 290.961 55.3195 290.738 56.1042L290.352 57.5454L293.705 57.5406Z" fill="#B762A5"/>
<path d="M300.864 48.3789H304.411V61.043H310.633V64.0168H300.864V48.3789Z" fill="#B762A5"/>
<path d="M318.186 48.3791H322.626C323.728 48.3646 324.826 48.5185 325.882 48.8355C326.804 49.1152 327.652 49.5943 328.365 50.2384C329.078 50.9033 329.623 51.7264 329.955 52.6405C330.349 53.7573 330.537 54.9356 330.511 56.1188C330.535 57.3097 330.347 58.4956 329.955 59.6211C329.626 60.5489 329.089 61.3901 328.385 62.0809C327.696 62.7327 326.871 63.2249 325.969 63.5222C324.955 63.8541 323.892 64.0164 322.824 64.0026H318.195L318.186 48.3791ZM322.408 61.1633C323.029 61.1709 323.647 61.0817 324.239 60.899C324.769 60.7357 325.25 60.4453 325.64 60.0535C326.055 59.6123 326.364 59.0834 326.544 58.5065C326.779 57.7377 326.888 56.9364 326.868 56.1332C326.888 55.341 326.779 54.5508 326.544 53.7935C326.366 53.2256 326.057 52.7072 325.64 52.2802C325.248 51.9013 324.766 51.6256 324.239 51.4779C323.644 51.3116 323.027 51.2307 322.408 51.2376H321.732V61.1681L322.408 61.1633Z" fill="#B762A5"/>
<path d="M333.501 48.3789H343.343V51.3528H337.062V54.4947H342.415V57.4446H337.042V61.043H343.579V64.0168H333.501V48.3789Z" fill="#B762A5"/>
<path d="M346.716 48.3789H350.359L354.461 56.1474L356.007 59.6017H356.103C356.023 58.7721 355.931 57.8449 355.828 56.82C355.727 55.848 355.675 54.8714 355.673 53.8942V48.3789H359.055V64.0168H355.412L351.301 56.2099L349.755 52.8036H349.658C349.739 53.6684 349.83 54.5956 349.934 55.5853C350.037 56.5427 350.09 57.5049 350.093 58.4679V64.0072H346.711L346.716 48.3789Z" fill="#B762A5"/>
<path d="M365.819 51.3528H361.5V48.3789H373.704V51.3528H369.385V64.0168H365.815L365.819 51.3528Z" fill="#B762A5"/>
<path d="M382.579 60.2983H377.781L376.815 64.0168H373.196L378.115 48.3789H382.386L387.304 64.0168H383.54L382.579 60.2983ZM381.854 57.5406L381.492 56.0994C381.266 55.3147 381.049 54.4835 380.84 53.6059C380.63 52.7284 380.421 51.8812 380.212 51.0645H380.115L379.526 53.6204C379.323 54.4915 379.11 55.3195 378.888 56.1042L378.501 57.5454L381.854 57.5406Z" fill="#B762A5"/>
<path d="M389.02 48.3789H392.566V61.043H398.789V64.0168H389.02V48.3789Z" fill="#B762A5"/>
<path d="M150.316 87.5578L145.997 80.2889H142.615V87.5578H141.504V71.7517H146.065C146.786 71.7442 147.506 71.82 148.21 71.9775C148.801 72.1064 149.358 72.3549 149.848 72.7078C150.3 73.0467 150.661 73.4926 150.896 74.0049C151.161 74.6105 151.288 75.2667 151.268 75.9266C151.299 76.4705 151.218 77.0149 151.029 77.5263C150.841 78.0378 150.549 78.5054 150.172 78.9005C149.354 79.66 148.305 80.1252 147.191 80.2217L151.582 87.5626L150.316 87.5578ZM145.78 79.3905C147.194 79.3905 148.274 79.1071 149.022 78.5402C149.405 78.2278 149.708 77.828 149.903 77.3747C150.098 76.9214 150.18 76.4279 150.143 75.9362C150.143 74.7544 149.764 73.9184 149.007 73.4284C148.021 72.8846 146.9 72.6313 145.775 72.6982H142.625V79.3905H145.78Z" fill="#606060"/>
<path d="M158.037 71.7517H166.734V72.7126H159.144V78.6843H165.511V79.6451H159.144V86.6017H166.98V87.5626H158.037V71.7517Z" fill="#606060"/>
<path d="M178.005 87.8461C176.939 87.8662 175.882 87.641 174.918 87.1879C174.049 86.7712 173.271 86.1884 172.628 85.4728L173.353 84.7041C173.929 85.3595 174.635 85.8908 175.425 86.2655C176.23 86.6495 177.113 86.8466 178.005 86.842C179.045 86.9012 180.073 86.5913 180.904 85.9676C181.247 85.6932 181.522 85.3435 181.706 84.9459C181.891 84.5483 181.98 84.1136 181.967 83.676C181.98 83.2453 181.902 82.8167 181.74 82.4172C181.595 82.0843 181.387 81.7824 181.126 81.5285C180.859 81.2738 180.554 81.0601 180.223 80.8943C179.878 80.7181 179.513 80.542 179.126 80.3658L176.711 79.2849C176.388 79.1407 176.026 78.9646 175.623 78.7564C175.238 78.549 174.885 78.2868 174.575 77.9781C174.254 77.6555 173.99 77.2821 173.792 76.8731C173.572 76.3961 173.464 75.875 173.478 75.3502C173.47 74.8068 173.59 74.269 173.826 73.7792C174.059 73.3081 174.388 72.8908 174.792 72.5541C175.221 72.1993 175.713 71.9272 176.242 71.7518C176.837 71.5558 177.461 71.4584 178.087 71.4635C178.977 71.4459 179.858 71.6386 180.658 72.0256C181.347 72.3583 181.971 72.8087 182.503 73.3564L181.875 74.077C181.404 73.5944 180.85 73.2005 180.237 72.9144C179.565 72.6097 178.832 72.4586 178.092 72.4724C177.177 72.4276 176.274 72.6992 175.536 73.2411C175.223 73.4844 174.972 73.798 174.804 74.1562C174.636 74.5144 174.556 74.9071 174.57 75.3021C174.557 75.7106 174.648 76.1157 174.836 76.4792C175.009 76.7934 175.238 77.0735 175.512 77.3055C175.787 77.5382 176.087 77.7397 176.406 77.906C176.728 78.0726 177.034 78.2199 177.324 78.348L179.74 79.405C180.181 79.5922 180.609 79.8089 181.02 80.0535C181.411 80.2847 181.769 80.5675 182.083 80.8943C182.396 81.2261 182.645 81.612 182.817 82.0329C183.018 82.529 183.118 83.0596 183.112 83.5943C183.117 84.1776 182.994 84.7549 182.75 85.2854C182.511 85.8029 182.162 86.2621 181.726 86.6306C181.252 87.0245 180.708 87.3261 180.122 87.5194C179.44 87.7459 178.724 87.8564 178.005 87.8461Z" fill="#606060"/>
<path d="M189.823 71.7517H198.52V72.7126H190.934V78.6843H197.302V79.6451H190.934V86.6017H198.771V87.5626H189.823V71.7517Z" fill="#606060"/>
<path d="M212.787 82.1529H206.506L204.627 87.5722H203.516L209.11 71.7661H210.222L215.817 87.5722H214.662L212.787 82.1529ZM212.473 81.2161L211.459 78.2663C211.136 77.3247 210.83 76.4214 210.541 75.5567C210.251 74.6919 209.966 73.7679 209.685 72.7846H209.589C209.315 73.7455 209.033 74.6647 208.743 75.5423C208.453 76.4198 208.147 77.3231 207.825 78.2519L206.811 81.2017L212.473 81.2161Z" fill="#606060"/>
<path d="M230.538 87.5578L226.219 80.2889H222.837V87.5578H221.726V71.7517H226.282C227.003 71.7443 227.723 71.82 228.427 71.9775C229.017 72.1065 229.575 72.3551 230.065 72.7078C230.517 73.047 230.877 73.4928 231.113 74.0049C231.378 74.6105 231.505 75.2667 231.485 75.9266C231.516 76.4705 231.435 77.0149 231.246 77.5263C231.057 78.0378 230.766 78.5054 230.388 78.9005C229.571 79.66 228.522 80.1252 227.407 80.2217L231.794 87.5626L230.538 87.5578ZM226.006 79.3905C227.42 79.3905 228.501 79.1071 229.248 78.5402C229.632 78.2278 229.934 77.828 230.129 77.3747C230.324 76.9213 230.407 76.4279 230.369 75.9362C230.369 74.7544 229.991 73.9184 229.234 73.4284C228.248 72.8846 227.127 72.6313 226.001 72.6982H222.842V79.3905H226.006Z" fill="#606060"/>
<path d="M243.897 87.846C242.965 87.8555 242.042 87.6585 241.196 87.2695C240.377 86.8868 239.655 86.3252 239.085 85.6264C238.468 84.8583 238.005 83.9791 237.723 83.0369C237.387 81.9294 237.224 80.7775 237.239 79.6211C237.223 78.4819 237.386 77.3471 237.723 76.2581C238.015 75.3181 238.486 74.4424 239.109 73.6782C239.687 72.9807 240.417 72.4236 241.245 72.0495C242.114 71.6656 243.057 71.4738 244.008 71.4874C244.864 71.4697 245.71 71.668 246.468 72.0639C247.107 72.3961 247.679 72.8442 248.154 73.3851L247.501 74.1298C247.077 73.6416 246.562 73.2388 245.984 72.9431C245.385 72.645 244.722 72.4935 244.052 72.5011C243.241 72.4806 242.436 72.645 241.699 72.9816C241.001 73.3196 240.391 73.8128 239.916 74.4228C239.399 75.0911 239.018 75.8532 238.795 76.6664C238.526 77.6346 238.396 78.6358 238.409 79.6403C238.397 80.6478 238.527 81.6521 238.795 82.6237C239.018 83.4425 239.395 84.2119 239.906 84.8914C240.377 85.5154 240.99 86.0192 241.694 86.3609C242.399 86.7026 243.176 86.8724 243.96 86.8563C244.719 86.873 245.472 86.7083 246.153 86.3759C246.847 86.0101 247.467 85.5216 247.985 84.9346L248.637 85.6312C248.063 86.304 247.369 86.8645 246.588 87.2839C245.752 87.6898 244.827 87.8829 243.897 87.846Z" fill="#606060"/>
<path d="M255.261 71.7517H256.372V78.6843H264.885V71.7517H265.996V87.5578H264.885V79.6451H256.367V87.5578H255.256L255.261 71.7517Z" fill="#606060"/>
<path d="M282.298 71.7518H286.303C287.114 71.7436 287.924 71.8193 288.719 71.9776C289.367 72.1017 289.982 72.3585 290.526 72.7319C291.016 73.0822 291.407 73.5521 291.661 74.0963C291.944 74.7459 292.08 75.4497 292.057 76.1573C292.057 77.7075 291.558 78.8622 290.559 79.6212C289.561 80.3803 288.17 80.7598 286.385 80.7598H283.394V87.5483H282.283L282.298 71.7518ZM286.134 79.8326C287.744 79.8326 288.951 79.5443 289.753 78.9678C290.555 78.3913 290.949 77.4561 290.936 76.1621C290.936 74.8362 290.531 73.925 289.719 73.4285C288.907 72.9321 287.675 72.6854 286.023 72.6887H283.394V79.8374L286.134 79.8326Z" fill="#606060"/>
<path d="M307.764 87.5578L303.416 80.2889H300.034V87.5578H298.923V71.7517H303.479C304.2 71.7443 304.92 71.82 305.624 71.9775C306.215 72.1065 306.772 72.3551 307.262 72.7078C307.714 73.047 308.074 73.4928 308.31 74.0049C308.575 74.6105 308.702 75.2667 308.682 75.9266C308.713 76.4705 308.632 77.0149 308.443 77.5263C308.255 78.0378 307.963 78.5054 307.586 78.9005C306.769 79.66 305.719 80.1252 304.605 80.2217L308.992 87.5626L307.764 87.5578ZM303.233 79.3905C304.647 79.3905 305.727 79.1071 306.474 78.5402C306.858 78.2224 307.158 77.8168 307.349 77.3582C307.54 76.8996 307.616 76.4018 307.571 75.9074C307.571 74.7256 307.193 73.8896 306.436 73.3996C305.45 72.8558 304.329 72.6025 303.204 72.6693H300.034V79.3617L303.233 79.3905Z" fill="#606060"/>
<path d="M320.983 87.8461C320.073 87.8553 319.174 87.6547 318.355 87.26C317.547 86.8652 316.839 86.2956 316.282 85.5929C315.672 84.8162 315.213 83.9331 314.929 82.989C314.595 81.8895 314.432 80.7457 314.446 79.5972C314.432 78.4581 314.595 77.3237 314.929 76.2342C315.216 75.3027 315.674 74.4327 316.282 73.6687C316.839 72.9753 317.548 72.4182 318.355 72.0401C319.178 71.6606 320.076 71.4686 320.983 71.478C321.898 71.4671 322.804 71.6591 323.636 72.0401C324.442 72.4186 325.151 72.9757 325.708 73.6687C326.316 74.4329 326.774 75.3029 327.061 76.2342C327.396 77.3237 327.558 78.4581 327.544 79.5972C327.558 80.7457 327.395 81.8895 327.061 82.989C326.777 83.9329 326.318 84.8159 325.708 85.5929C325.151 86.2953 324.443 86.8649 323.636 87.26C322.809 87.6563 321.901 87.8569 320.983 87.8461ZM320.983 86.8372C321.746 86.8476 322.499 86.671 323.177 86.3232C323.845 85.9762 324.427 85.4835 324.877 84.8819C325.378 84.195 325.75 83.4234 325.974 82.6047C326.242 81.633 326.373 80.6288 326.361 79.6212C326.372 78.6247 326.242 77.6316 325.974 76.6714C325.752 75.8623 325.38 75.1014 324.877 74.4278C324.427 73.8261 323.845 73.3334 323.177 72.9865C322.495 72.6539 321.742 72.4892 320.983 72.5061C320.225 72.4943 319.475 72.6625 318.795 72.9967C318.115 73.3309 317.525 73.8215 317.074 74.4278C316.578 75.1039 316.21 75.8641 315.987 76.6714C315.719 77.6316 315.589 78.6247 315.601 79.6212C315.589 80.6288 315.719 81.633 315.987 82.6047C316.212 83.4216 316.58 84.1926 317.074 84.8819C317.521 85.487 318.103 85.9805 318.775 86.3232C319.458 86.6706 320.216 86.847 320.983 86.8372Z" fill="#606060"/>
<path d="M340.396 87.8462C339.433 87.8592 338.478 87.6625 337.599 87.2697C336.768 86.8899 336.035 86.3282 335.454 85.6266C334.828 84.86 334.358 83.9808 334.067 83.0371C333.728 81.9305 333.565 80.778 333.584 79.6213C333.563 78.4818 333.726 77.3464 334.067 76.2583C334.369 75.3145 334.853 74.4383 335.492 73.6784C336.096 72.9734 336.855 72.4161 337.71 72.0497C338.617 71.6667 339.594 71.4752 340.58 71.4876C341.068 71.4841 341.555 71.5406 342.029 71.6558C342.443 71.7569 342.843 71.9053 343.223 72.0978C343.564 72.2697 343.887 72.474 344.189 72.7079C344.45 72.9141 344.695 73.1389 344.923 73.3805L344.271 74.1252C343.838 73.6649 343.334 73.2757 342.778 72.9722C342.108 72.6309 341.361 72.4656 340.609 72.4917C339.763 72.4701 338.924 72.6341 338.15 72.9722C337.432 73.3066 336.801 73.7995 336.304 74.4134C335.772 75.0789 335.375 75.8409 335.135 76.657C334.849 77.6223 334.71 78.6247 334.724 79.6309C334.712 80.6384 334.842 81.6427 335.111 82.6143C335.334 83.4349 335.714 84.2049 336.231 84.8819C336.714 85.4949 337.332 85.9882 338.038 86.3232C338.794 86.6747 339.62 86.8505 340.454 86.8373C341.146 86.842 341.835 86.7366 342.493 86.525C343.067 86.3526 343.591 86.0481 344.025 85.6362V80.7118H340.213V79.775H345.083V86.0205C344.536 86.582 343.878 87.0238 343.15 87.3177C342.277 87.6763 341.341 87.856 340.396 87.8462Z" fill="#606060"/>
<path d="M361.393 87.5578L357.045 80.2889H353.663V87.5578H352.552V71.7517H357.108C357.829 71.7443 358.549 71.82 359.253 71.9775C359.844 72.1065 360.401 72.3551 360.891 72.7078C361.343 73.047 361.703 73.4928 361.939 74.0049C362.204 74.6105 362.331 75.2667 362.311 75.9266C362.342 76.4705 362.261 77.0149 362.072 77.5263C361.884 78.0378 361.592 78.5054 361.215 78.9005C360.397 79.66 359.348 80.1252 358.234 80.2217L362.621 87.5626L361.393 87.5578ZM356.861 79.3905C358.275 79.3905 359.356 79.1071 360.103 78.5402C360.487 78.2278 360.789 77.828 360.984 77.3747C361.18 76.9213 361.262 76.4279 361.224 75.9362C361.224 74.7544 360.846 73.9184 360.089 73.4284C359.103 72.8846 357.982 72.6313 356.857 72.6982H353.663V79.3905H356.861Z" fill="#606060"/>
<path d="M376.24 82.1529H369.959L368.08 87.5722H366.969L372.564 71.7661H373.675L379.27 87.5577H378.11L376.24 82.1529ZM375.926 81.2161L374.912 78.2663C374.59 77.3247 374.284 76.4214 373.994 75.5567C373.704 74.6919 373.422 73.7727 373.148 72.799H373.052C372.778 73.7599 372.496 74.6791 372.206 75.5567C371.916 76.4343 371.61 77.3375 371.288 78.2663L370.273 81.2161H375.926Z" fill="#606060"/>
<path d="M385.188 71.7517H386.754L390.083 81.0336L390.711 82.7727L391.348 84.5551H391.445C391.654 83.9626 391.856 83.3748 392.049 82.7919C392.242 82.209 392.444 81.6293 392.653 81.0528L395.958 71.7709H397.547V87.577H396.46V77.1709C396.46 76.5304 396.476 75.8225 396.508 75.0474C396.541 74.2723 396.573 73.5565 396.605 72.8999H396.508L395.276 76.4263L391.832 85.8282H390.865L387.416 76.4263L386.159 72.8999H386.063C386.095 73.5725 386.127 74.2884 386.159 75.0474C386.192 75.8065 386.208 76.5143 386.208 77.1709V87.5578H385.169L385.188 71.7517Z" fill="#606060"/>
<path opacity="0.7" d="M93.4886 78.2809C108.541 78.2809 120.743 66.1474 120.743 51.18C120.743 36.2126 108.541 24.0791 93.4886 24.0791C78.4365 24.0791 66.2344 36.2126 66.2344 51.18C66.2344 66.1474 78.4365 78.2809 93.4886 78.2809Z" fill="#3981B7"/>
<path opacity="0.7" d="M64.4273 103.753C82.1104 103.753 96.4454 89.4986 96.4454 71.915C96.4454 54.3315 82.1104 40.0771 64.4273 40.0771C46.7442 40.0771 32.4092 54.3315 32.4092 71.915C32.4092 89.4986 46.7442 103.753 64.4273 103.753Z" fill="#613791"/>
<path opacity="0.7" d="M97.4311 104.733C108.675 104.733 117.791 95.669 117.791 84.4879C117.791 73.3068 108.675 64.2427 97.4311 64.2427C86.1867 64.2427 77.0713 73.3068 77.0713 84.4879C77.0713 95.669 86.1867 104.733 97.4311 104.733Z" fill="#A34089"/>
<path opacity="0.5" d="M63.7703 34.5234C67.4873 34.5234 70.5005 31.5271 70.5005 27.831C70.5005 24.1349 67.4873 21.1387 63.7703 21.1387C60.0533 21.1387 57.04 24.1349 57.04 27.831C57.04 31.5271 60.0533 34.5234 63.7703 34.5234Z" fill="#A34089"/>
<path d="M101.374 62.1192C100.653 57.1648 98.0614 52.6694 94.1267 49.5464C93.9431 49.5817 93.7643 49.6201 93.5904 49.6617C91.2915 50.2144 88.8933 50.2144 86.5945 49.6617C84.2898 49.1093 81.2122 49.1044 78.4873 51.5835C73.3321 56.2724 77.4823 64.6415 78.7288 66.0827C79.9754 67.524 80.0188 69.4457 80.9078 73.3756C81.7968 77.3055 82.9225 81.024 85.1788 80.4667C87.4351 79.9094 88.0391 77.1806 88.6043 73.5342C88.643 73.2843 88.6865 73.0537 88.7251 72.8279C88.7826 72.5083 88.9514 72.219 89.2018 72.0106C89.4522 71.8022 89.7683 71.688 90.0949 71.688C90.4214 71.688 90.7375 71.8022 90.9879 72.0106C91.2384 72.219 91.4071 72.5083 91.4646 72.8279C91.508 73.0489 91.5467 73.3084 91.5854 73.5342C92.0975 76.8251 92.6386 79.3666 94.3973 80.2601C96.2006 78.7758 97.7266 76.9868 98.905 74.9754C99.0355 74.4614 99.1611 73.9329 99.2819 73.3996C100.166 69.4746 100.21 67.5529 101.456 66.1068L101.586 65.9482C101.64 64.6681 101.569 63.3858 101.374 62.1192ZM85.9132 53.3995C85.899 53.5108 85.8626 53.6181 85.806 53.7152C85.7495 53.8123 85.6739 53.8972 85.5839 53.9648C85.4938 54.0324 85.3911 54.0814 85.2817 54.1089C85.1723 54.1364 85.0585 54.1418 84.9469 54.1249C83.8318 54.0042 82.7116 54.3039 81.8081 54.9649C80.9045 55.6259 80.2832 56.5999 80.0672 57.6945C79.9992 57.898 79.8561 58.0682 79.6667 58.1707C79.4773 58.2732 79.2558 58.3004 79.0471 58.2467C78.8383 58.1929 78.6579 58.0623 78.5423 57.8813C78.4267 57.7003 78.3846 57.4824 78.4245 57.2717C79.5599 52.895 83.3332 52.2032 85.1885 52.4674C85.4101 52.4951 85.6119 52.6084 85.7502 52.7828C85.8885 52.9572 85.9523 53.1787 85.9277 53.3995H85.9132Z" fill="white"/>
<path d="M65.4465 77.32C63.7339 74.9105 62.5513 72.169 61.9758 69.2745C61.4004 66.3799 61.4449 63.3972 62.1066 60.5209C62.7683 57.6446 64.0323 54.9393 65.8161 52.5814C67.6 50.2235 69.8636 48.266 72.4594 46.8365C75.0552 45.407 77.9249 44.5376 80.8813 44.2851C83.8377 44.0325 86.8144 44.4025 89.6174 45.3708C92.4203 46.3391 94.9865 47.884 97.1487 49.9048C99.3108 51.9256 101.02 54.3769 102.166 57.0988H103.717C102.558 54.1301 100.777 51.4408 98.4917 49.2097C96.2066 46.9787 93.4698 45.2572 90.4636 44.1598C87.4573 43.0623 84.2504 42.6141 81.0564 42.8449C77.8624 43.0757 74.7544 43.9802 71.9393 45.4983C69.1241 47.0164 66.6664 49.1132 64.7296 51.6493C62.7929 54.1854 61.4215 57.1025 60.7067 60.2066C59.9919 63.3107 59.9501 66.5306 60.5841 69.652C61.2181 72.7734 62.5133 75.7248 64.3836 78.3097L65.4465 77.32Z" fill="white"/>
<path d="M82.6176 86.1118C78.046 86.1184 73.5968 84.6426 69.9447 81.9081L68.877 82.8977C71.5771 84.9572 74.7108 86.3825 78.0434 87.067C81.376 87.7514 84.8212 87.6772 88.1209 86.85C91.4206 86.0228 94.4893 84.464 97.0973 82.2903C99.7052 80.1166 101.785 77.3843 103.18 74.2981H101.591C99.8598 77.8377 97.1631 80.8223 93.8084 82.9112C90.4536 85 86.5758 86.1091 82.6176 86.1118Z" fill="white"/>
<path d="M102.205 62.1481C101.758 59.1136 100.608 56.224 98.8452 53.7075C97.0823 51.191 94.7551 49.1167 92.0474 47.6483C89.3396 46.18 86.3256 45.3578 83.2435 45.2468C80.1613 45.1359 77.0954 45.7391 74.288 47.0089C71.4806 48.2787 69.0086 50.1803 67.0673 52.5634C65.126 54.9464 63.7686 57.7458 63.1023 60.7402C62.436 63.7346 62.4791 66.8421 63.2282 69.8171C63.9773 72.7921 65.4119 75.5531 67.4186 77.882L62.6161 82.6335C62.3374 82.4601 62.0076 82.3861 61.681 82.4237C61.3545 82.4612 61.0504 82.608 60.8188 82.84L53.504 90.1281C53.3666 90.2623 53.2576 90.4223 53.1831 90.5988C53.1087 90.7753 53.0703 90.9648 53.0703 91.1562C53.0703 91.3477 53.1087 91.5372 53.1831 91.7137C53.2576 91.8902 53.3666 92.0502 53.504 92.1844L55.0693 93.7409C55.2043 93.8775 55.3652 93.9859 55.5427 94.06C55.7202 94.134 55.9108 94.1721 56.1033 94.1721C56.2958 94.1721 56.4864 94.134 56.6639 94.06C56.8414 93.9859 57.0023 93.8775 57.1372 93.7409L64.4472 86.4769C64.6611 86.2658 64.8035 85.9936 64.8546 85.6983C64.9057 85.4029 64.8629 85.0991 64.7323 84.829L69.5637 80.0248C72.6374 82.6538 76.4456 84.2861 80.4783 84.703C84.5109 85.1199 88.5754 84.3015 92.1272 82.3573C95.679 80.4132 98.5486 77.4362 100.351 73.8252C102.154 70.2142 102.804 66.1415 102.215 62.1529L102.205 62.1481ZM84.9423 81.4468C81.6817 81.9239 78.3521 81.429 75.3745 80.0245C72.3969 78.62 69.9049 76.3691 68.2137 73.5564C66.5225 70.7437 65.7081 67.4955 65.8734 64.2225C66.0386 60.9495 67.1762 57.7988 69.1422 55.1687C71.1082 52.5385 73.8144 50.5472 76.9186 49.4464C80.0227 48.3455 83.3854 48.1847 86.5815 48.9842C89.7775 49.7837 92.6634 51.5076 94.8742 53.938C97.085 56.3684 98.5214 59.396 99.0018 62.6381C99.3208 64.7911 99.2102 66.9855 98.6763 69.096C98.1424 71.2064 97.1956 73.1917 95.89 74.9383C94.5844 76.6848 92.9456 78.1586 91.0672 79.2753C89.1888 80.3921 87.1075 81.13 84.9423 81.4468Z" fill="white"/>
<path opacity="0.7" d="M52.7688 38.7753C54.5833 38.7753 56.0542 37.3126 56.0542 35.5084C56.0542 33.7041 54.5833 32.2415 52.7688 32.2415C50.9543 32.2415 49.4834 33.7041 49.4834 35.5084C49.4834 37.3126 50.9543 38.7753 52.7688 38.7753Z" fill="#3981B7"/>
<path d="M362.118 0.240234H67.8817C30.5249 0.240234 0.241211 30.3535 0.241211 67.5C0.241211 104.647 30.5249 134.76 67.8817 134.76H362.118C399.474 134.76 429.758 104.647 429.758 67.5C429.758 30.3535 399.474 0.240234 362.118 0.240234Z" stroke="#B762A5" stroke-miterlimit="10"/>
</g>
<defs>
<clipPath id="clip0_1171_9056">
<rect width="430" height="135" fill="white"/>
</clipPath>
</defs>
</svg>
