<svg width="58" height="18" viewBox="0 0 58 18" fill="none" xmlns="http://www.w3.org/2000/svg">
<g clip-path="url(#clip0_500_4442)">
<path d="M47.0528 0.936308C47.0523 0.758518 47.1036 0.584582 47.2001 0.436505C47.2967 0.288428 47.4341 0.172866 47.5951 0.10444C47.7561 0.036014 47.9334 0.0178003 48.1046 0.0521024C48.2758 0.0864045 48.4331 0.17168 48.5567 0.297142C48.6803 0.422603 48.7646 0.582613 48.7989 0.756923C48.8333 0.931232 48.8161 1.11201 48.7497 1.27638C48.6832 1.44075 48.5703 1.58133 48.4254 1.68033C48.2806 1.77933 48.1101 1.8323 47.9357 1.83254C47.8196 1.83417 47.7044 1.81213 47.5968 1.76771C47.4892 1.72329 47.3914 1.65739 47.3091 1.57389C47.2268 1.49039 47.1618 1.39097 47.1178 1.28148C47.0737 1.17199 47.0517 1.05463 47.0528 0.936308ZM48.6434 0.936308C48.6211 0.760793 48.5368 0.59958 48.4063 0.482768C48.2759 0.365957 48.1081 0.301533 47.9345 0.301533C47.7608 0.301533 47.5931 0.365957 47.4627 0.482768C47.3322 0.59958 47.2479 0.760793 47.2255 0.936308C47.2124 1.03906 47.221 1.14348 47.2506 1.24259C47.2803 1.3417 47.3303 1.43324 47.3974 1.51108C47.4645 1.58892 47.5471 1.65128 47.6397 1.69401C47.7323 1.73673 47.8328 1.75883 47.9345 1.75883C48.0362 1.75883 48.1366 1.73673 48.2293 1.69401C48.3219 1.65128 48.4045 1.58892 48.4716 1.51108C48.5387 1.43324 48.5887 1.3417 48.6183 1.24259C48.648 1.14348 48.6565 1.03906 48.6434 0.936308ZM48.3742 1.42207H48.1561L47.9452 1.01039H47.7605V1.42207H47.5758V0.450544H48.0322C48.1225 0.443676 48.213 0.45996 48.2955 0.497908C48.3328 0.527096 48.3621 0.565523 48.3807 0.609528C48.3992 0.653532 48.4064 0.701648 48.4016 0.749292C48.4016 0.924167 48.311 0.999461 48.1418 1.0116L48.3801 1.42329L48.3742 1.42207ZM48.0358 0.86709C48.1418 0.86709 48.2205 0.8428 48.2205 0.721359C48.2205 0.599918 48.0799 0.596275 47.9929 0.596275H47.7546V0.869517L48.0358 0.86709Z" fill="#3A3A3D"/>
<path d="M0.00390625 7.3739L0.281527 6.16435L4.99631 1.13305H1.54452L1.83763 0H7.39599L7.13625 1.14883L2.35474 6.202H5.99359L5.70883 7.3739H0.00390625Z" fill="#3A3A3D"/>
<path d="M6.21973 7.3751L7.76868 1.14882L8.04392 0.0558472H9.63339L8.91848 2.88057C9.2664 2.59275 9.72513 2.27336 10.6259 2.27336C11.8079 2.27336 12.4608 2.95343 12.4608 3.80959C12.4558 4.19473 12.4082 4.57806 12.319 4.95235L11.7507 7.37389H10.1517L10.8165 4.61839C10.8557 4.43936 10.8808 4.25743 10.8916 4.07434C10.8916 3.67237 10.6199 3.35662 10.0576 3.35662C9.71322 3.35662 8.79099 3.50235 8.41686 4.95964L7.80681 7.3751H6.21973Z" fill="#3A3A3D"/>
<path d="M15.4739 7.48075C14.081 7.48075 12.793 6.78975 12.793 5.36282C12.793 3.8023 14.0166 2.2345 16.184 2.2345C17.8092 2.2345 18.4991 3.09309 18.4991 4.12534C18.4857 4.51118 18.431 4.89438 18.3358 5.2681H14.2406C14.2645 5.89716 14.5457 6.48251 15.9088 6.48251C16.531 6.48536 17.1462 6.3481 17.7103 6.08054L17.5352 7.18201C16.8648 7.36713 16.1743 7.46627 15.4798 7.47711L15.4739 7.48075ZM16.0899 3.18174C15.7349 3.16821 15.3854 3.27457 15.0958 3.48429C14.8062 3.69402 14.5927 3.99536 14.4885 4.3415H17.1003C17.1122 4.22006 17.1122 4.0464 17.1122 3.98568C17.1122 3.55456 16.7547 3.18174 16.0934 3.18174H16.0899Z" fill="#3A3A3D"/>
<path d="M18.2852 7.3751L19.5124 2.35351H20.9982L20.7945 3.24124C21.1936 2.72755 21.7739 2.26971 22.5936 2.26971C22.7795 2.27207 22.9647 2.29322 23.1465 2.33286L22.82 3.59221C22.652 3.53095 22.4753 3.49813 22.2969 3.49505C20.9482 3.49505 20.5859 4.57952 20.3905 5.34582L19.8889 7.3751H18.2852Z" fill="#3A3A3D"/>
<path d="M22.3486 7.37514L23.5854 2.35355H25.0355L24.8603 3.07491C25.0823 2.8121 25.3596 2.60368 25.6715 2.46512C25.9834 2.32657 26.3219 2.26145 26.6619 2.27461C27.2838 2.27461 28.0309 2.44341 28.1608 3.30686C28.3931 2.89396 29.058 2.27461 30.2066 2.27461C31.2218 2.27461 31.9295 2.89396 31.9295 3.67969C31.9076 4.04937 31.8477 4.4157 31.7508 4.77266L31.0835 7.37271H29.5179L30.2328 4.51641C30.2787 4.33321 30.309 4.14631 30.3234 3.95778C30.3234 3.54124 30.0422 3.36758 29.6466 3.36758C29.3046 3.36758 28.4884 3.54124 28.0976 5.07747L27.509 7.37271H25.9172L26.5618 4.87102C26.6485 4.57696 26.6989 4.27304 26.7119 3.96628C26.7119 3.58982 26.4438 3.36758 26.0721 3.36758C25.2011 3.36758 24.7233 4.17516 24.5851 4.74472L23.9286 7.37271L22.3486 7.37514Z" fill="#3A3A3D"/>
<path d="M33.6769 7.45042C32.6558 7.45042 31.8516 6.96465 31.8516 6.05263C31.8516 4.75685 33.4863 4.28323 34.9042 4.28323C35.3019 4.27852 35.6996 4.29433 36.0957 4.33059V4.08771C36.0957 3.5558 35.7573 3.20241 34.8684 3.20241C34.1644 3.21866 33.4707 3.37889 32.8286 3.6736L33.0764 2.55027C33.7811 2.37511 34.503 2.28262 35.2283 2.2746C36.67 2.2746 37.5338 2.78586 37.5338 3.85333C37.5257 4.17252 37.4789 4.48946 37.3944 4.79693L36.9989 6.37809C36.9047 6.81285 36.8797 6.93915 36.8142 7.37512H35.4821L35.6084 6.72055C35.2342 7.03873 34.7445 7.4492 33.6805 7.4492L33.6769 7.45042ZM33.4136 5.95426C33.4136 6.29915 33.7008 6.52746 34.1631 6.52746C35.2902 6.52746 35.7597 5.61058 35.8741 5.10539C35.6775 5.10539 35.5774 5.09931 35.4904 5.09931C34.505 5.09931 33.4136 5.2754 33.4136 5.9494V5.95426Z" fill="#3A3A3D"/>
<path d="M40.3231 7.45042C38.9088 7.45042 37.7959 6.65498 37.7959 5.24747C37.7959 4.57955 38.2892 2.2746 41.3704 2.2746C41.8756 2.27844 42.3782 2.34864 42.8657 2.48348L42.4678 3.55458C42.1152 3.40994 41.7386 3.33573 41.3585 3.33599C40.8673 3.32161 40.3907 3.50654 40.0332 3.85015C39.6757 4.19376 39.4667 4.66795 39.4521 5.16854C39.4521 6.10971 40.167 6.38295 40.8545 6.38295C41.2578 6.38041 41.6557 6.28885 42.021 6.11456L41.8935 7.22697C41.3828 7.37218 40.8556 7.44893 40.3255 7.45528L40.3231 7.45042Z" fill="#3A3A3D"/>
<path d="M42.3926 7.37393L44.2299 0.0522461H45.8205L44.7708 4.19339L47.0013 2.35355H48.9935L46.1041 4.66701L48.5312 8.58591H46.7868L44.6052 4.85281L43.9737 7.37393H42.3926Z" fill="#3A3A3D"/>
<path d="M0.387239 8.55432H0.936527C1.22725 8.55432 1.49891 8.65026 1.49891 8.96358C1.49142 9.06869 1.44754 9.16767 1.37508 9.24285C1.30262 9.31804 1.20631 9.36454 1.10333 9.37405C1.19034 9.38207 1.27068 9.42492 1.32674 9.49321C1.3828 9.56151 1.41001 9.64967 1.4024 9.73837C1.4024 10.2326 0.806648 10.2703 0.529028 10.2703H0L0.387239 8.55432ZM0.417026 10.0007H0.544518C0.773286 10.0007 1.02708 9.97761 1.02708 9.70923C1.02708 9.53435 0.849541 9.5052 0.646985 9.5052H0.527835L0.415833 10.0007H0.417026ZM0.586225 9.24775H0.73397C0.922228 9.24775 1.12716 9.19917 1.12716 8.99515C1.12716 8.83364 0.957969 8.82392 0.812606 8.82392H0.686307L0.586225 9.24775Z" fill="#3A3A3D"/>
<path d="M2.22697 8.55432H3.31838L3.26357 8.82392H2.53914L2.43905 9.24654H3.08842L3.02885 9.51856H2.37829L2.27224 10.0007H3.00383L2.94068 10.2703H1.83496L2.22697 8.55432Z" fill="#3A3A3D"/>
<path d="M4.13769 9.55985L3.69922 8.55432H4.09122L4.37004 9.27447L4.97413 8.55432H5.40664L4.50825 9.55985L4.34859 10.2703H3.97326L4.13769 9.55985Z" fill="#3A3A3D"/>
<path d="M7.38365 9.25016C7.38248 9.5357 7.27171 9.80944 7.07505 10.0128C6.96916 10.1114 6.84514 10.1876 6.71015 10.237C6.57516 10.2864 6.4319 10.308 6.28866 10.3006C5.83231 10.3006 5.55469 9.99702 5.55469 9.58655C5.55756 9.30943 5.66361 9.04378 5.85138 8.84333C5.94911 8.73835 6.06737 8.65545 6.19853 8.60001C6.32969 8.54457 6.4708 8.51783 6.61274 8.52151C7.11675 8.52151 7.38365 8.79476 7.38365 9.25016ZM5.94431 9.6072C5.93901 9.66186 5.94524 9.71705 5.96259 9.76906C5.97995 9.82107 6.00803 9.86868 6.04493 9.90872C6.08184 9.94875 6.12672 9.98027 6.17657 10.0012C6.22642 10.022 6.28008 10.0318 6.33394 10.0298C6.76407 10.0298 6.99879 9.55862 6.99879 9.21616C7.00421 9.16101 6.99785 9.10532 6.98014 9.05293C6.96243 9.00053 6.9338 8.95267 6.89621 8.91262C6.85862 8.87258 6.81296 8.8413 6.76238 8.82096C6.7118 8.80061 6.65751 8.79167 6.60322 8.79476C6.16832 8.79476 5.94431 9.25866 5.94431 9.6072Z" fill="#3A3A3D"/>
<path d="M8.09413 8.55432H8.56478L8.96155 9.85738H8.96393L9.26657 8.55432H9.61687L9.21772 10.2703H8.73755L8.35031 8.95386H8.34435L8.05124 10.2703H7.69141L8.09413 8.55432Z" fill="#3A3A3D"/>
<path d="M10.2059 8.5543H10.7612C11.152 8.5543 11.5952 8.69153 11.5952 9.28294C11.5952 9.68127 11.3784 10.2654 10.4442 10.2654H9.82227L10.2119 8.54944L10.2059 8.5543ZM10.2512 10.0007H10.4276C10.959 10.0007 11.2044 9.7092 11.2044 9.2368C11.2044 8.96841 10.978 8.8239 10.6456 8.8239H10.5145L10.2524 10.0007H10.2512Z" fill="#3A3A3D"/>
<path d="M13.1982 8.55432H13.5878L13.1946 10.2703H12.8086L13.1982 8.55432Z" fill="#3A3A3D"/>
<path d="M14.1505 8.55432H14.6223L15.0179 9.85738H15.0203L15.3265 8.55432H15.6768L15.2741 10.2703H14.7974L14.4066 8.95386H14.4043L14.1052 10.2703H13.7549L14.1505 8.55432Z" fill="#3A3A3D"/>
<path d="M16.2566 8.55432H16.7272L17.124 9.85738H17.1264L17.429 8.55432H17.7793L17.3778 10.2703H16.9036L16.5127 8.95386H16.5068L16.2113 10.2703H15.8574L16.2566 8.55432Z" fill="#3A3A3D"/>
<path d="M19.9038 9.2502C19.9043 9.39167 19.8774 9.53186 19.8247 9.66272C19.7719 9.79359 19.6944 9.91257 19.5964 10.0128C19.4906 10.1116 19.3666 10.1878 19.2316 10.2373C19.0966 10.2867 18.9533 10.3082 18.81 10.3007C18.3537 10.3007 18.082 9.99706 18.082 9.58659C18.0816 9.31021 18.1853 9.0442 18.3716 8.84337C18.4696 8.7388 18.5879 8.65619 18.719 8.60079C18.8501 8.54538 18.9911 8.51839 19.1329 8.52155C19.6358 8.52155 19.9038 8.79479 19.9038 9.2502ZM18.4657 9.60723C18.4603 9.66222 18.4667 9.71773 18.4842 9.77C18.5018 9.82228 18.5302 9.87008 18.5675 9.91018C18.6048 9.95027 18.6501 9.98171 18.7004 10.0024C18.7507 10.023 18.8047 10.0324 18.8589 10.0298C19.2819 10.0298 19.5202 9.55866 19.5202 9.21619C19.5252 9.16081 19.5185 9.10497 19.5005 9.05249C19.4824 9 19.4534 8.95212 19.4155 8.9121C19.3776 8.87209 19.3317 8.84089 19.2808 8.82064C19.23 8.80039 19.1755 8.79158 19.121 8.79479C18.6897 8.79479 18.4657 9.2587 18.4657 9.60723Z" fill="#3A3A3D"/>
<path d="M20.4307 8.55432H20.8048L20.9776 9.89139H20.9835L21.7544 8.55432H22.1583L21.1194 10.2703H20.6749L20.4307 8.55432Z" fill="#3A3A3D"/>
<path d="M23.1177 8.55432H23.5348L23.8708 10.2703H23.5014L23.4382 9.87925H22.6459L22.4076 10.2703H21.9941L23.1153 8.55432H23.1177ZM22.8091 9.60722H23.3834L23.2643 8.85914H23.25L22.8056 9.60722H22.8091Z" fill="#3A3A3D"/>
<path d="M24.4989 8.55432H25.9347L25.8679 8.82392H25.3485L25.0089 10.2703H24.6193L24.9612 8.82392H24.4346L24.4989 8.55432Z" fill="#3A3A3D"/>
<path d="M26.3086 8.55432H26.6982L26.3086 10.2703H25.9189L26.3086 8.55432Z" fill="#3A3A3D"/>
<path d="M28.8084 9.25019C28.8111 9.39446 28.7842 9.53772 28.7294 9.67074C28.6745 9.80377 28.593 9.92362 28.4899 10.0226C28.3869 10.1215 28.2647 10.1974 28.1311 10.2453C27.9976 10.2932 27.8557 10.312 27.7146 10.3007C27.2546 10.3007 26.9854 9.99705 26.9854 9.58658C26.9856 9.31079 27.0882 9.04531 27.2725 8.84336C27.3708 8.73916 27.4892 8.65678 27.6202 8.6014C27.7512 8.54602 27.8921 8.51884 28.0339 8.52155C28.5426 8.52155 28.8084 8.79479 28.8084 9.25019ZM27.3785 9.60723C27.373 9.66194 27.3791 9.71721 27.3964 9.7693C27.4137 9.8214 27.4418 9.86911 27.4787 9.90918C27.5157 9.94926 27.5606 9.98077 27.6106 10.0016C27.6605 10.0224 27.7143 10.032 27.7682 10.0298C28.1912 10.0298 28.4271 9.55865 28.4271 9.21619C28.4325 9.16105 28.4261 9.10536 28.4084 9.05296C28.3907 9.00056 28.3621 8.9527 28.3245 8.91265C28.2869 8.87261 28.2412 8.84134 28.1907 8.82099C28.1401 8.80064 28.0858 8.79171 28.0315 8.79479C27.6025 8.79479 27.3785 9.25869 27.3785 9.60723Z" fill="#3A3A3D"/>
<path d="M29.5187 8.55432H29.9894L30.3826 9.85738H30.3885L30.6912 8.55432H31.045L30.6399 10.2703H30.1657L29.7749 8.95386H29.7689L29.4734 10.2703H29.1172L29.5187 8.55432Z" fill="#3A3A3D"/>
<path d="M48.5308 8.58588L31.7568 18H41.2293L57.9997 8.58588H48.5308Z" fill="#EE3224"/>
<path d="M38.132 13.4435L46.787 8.58588H37.3182L28.6631 13.4435H38.132Z" fill="#EE3224"/>
</g>
<defs>
<clipPath id="clip0_500_4442">
<rect width="58" height="18" fill="white"/>
</clipPath>
</defs>
</svg>
