<svg width="56" height="26" viewBox="0 0 56 26" fill="none" xmlns="http://www.w3.org/2000/svg">
<path d="M36.3982 20.5022C33.8613 21.9139 31.0744 22.6478 28.2502 22.6478C25.426 22.6478 22.6391 21.9139 20.1021 20.5022C17.5118 19.0407 15.2017 17.0098 13.3053 14.5269L12.6153 16.5567C14.3432 19.4683 16.6735 21.8522 19.4014 23.4989C22.1293 25.1455 25.171 26.0044 28.2592 26C31.3473 25.9955 34.3871 25.1279 37.1113 23.4734C39.8355 21.8189 42.1606 19.4283 43.882 16.5117L43.2102 14.5407C41.3095 17.0233 38.9953 19.053 36.4012 20.5126L36.3982 20.5022ZM44.8304 9.12903C44.6784 8.90081 44.718 8.43745 44.9368 7.81848L46.2439 4.16344H47.934L48.3656 2.884H46.6786L47.1862 1.33139L44.6176 1.8328L44.265 2.87018H43.1342L42.7239 4.14961H43.8455L42.4959 7.95334C42.1494 8.9181 42.1311 9.62353 42.4412 10.1111C42.7512 10.5987 43.3531 10.8027 44.265 10.8027C44.8676 10.7861 45.4664 10.6898 46.0494 10.5157L46.5935 9.01839C46.205 9.19345 45.7946 9.29732 45.3776 9.32614C45.275 9.34716 45.1694 9.33786 45.071 9.2991C44.9725 9.26035 44.8844 9.19345 44.8152 9.10483L44.8304 9.12903ZM15.5182 6.11371C14.9103 9.54744 13.0864 9.7238 12.7125 9.7238C12.132 9.7238 11.7094 9.55782 11.4632 9.22932C11.217 8.90081 11.1258 8.32334 11.2565 7.59026C11.4967 6.26241 12.5089 4.28101 14.3297 4.28101C14.5097 4.2645 14.6906 4.2938 14.8594 4.36677C15.0282 4.43975 15.1805 4.55456 15.3054 4.70288C15.4321 4.90523 15.5169 5.13763 15.5532 5.38261C15.5895 5.62758 15.5765 5.87874 15.5152 6.11717L15.5182 6.11371ZM17.9895 6.45951C18.4425 4.20493 16.6946 2.93933 14.3783 2.93933C11.9465 2.93933 9.25029 4.6026 8.75785 7.40353C8.23197 10.3981 10.5817 11.0413 12.0772 11.0586C15.4605 11.1035 17.5153 8.80399 17.9895 6.45606V6.45951ZM53.6456 5.98577H50.4752C50.6212 5.45615 50.9157 4.99555 51.3138 4.67454C51.7118 4.35352 52.1914 4.18978 52.679 4.2084C52.8463 4.18723 53.0155 4.21023 53.1737 4.2756C53.3319 4.34097 53.4746 4.44695 53.5909 4.58531C53.7916 4.88269 53.8007 5.3668 53.6183 5.96848L53.6456 5.98577ZM53.0377 2.8183C50.4144 2.8183 48.1741 4.48157 47.6026 6.86063C47.2987 8.06399 47.4628 9.11866 48.0404 9.91053C48.6757 10.7854 49.7943 11.266 51.1835 11.266C52.0807 11.2528 52.9719 11.0969 53.8311 10.8027L54.5545 9.11175C53.7207 9.49363 52.8301 9.68968 51.9312 9.68923C51.6388 9.7103 51.3459 9.65557 51.0747 9.52918C50.8036 9.4028 50.5612 9.20804 50.3658 8.9596C50.2162 8.73121 50.1176 8.46495 50.0785 8.18368C50.0393 7.90241 50.0607 7.61454 50.1408 7.34475H55.6823L55.7096 7.26175C56.1443 5.87858 56.0896 4.69943 55.5546 3.90756C55.0683 3.18485 54.2141 2.81485 53.0377 2.81485V2.8183ZM2.85467 6.14484C3.25288 3.62055 5.39286 1.70485 7.93104 1.70485C8.65424 1.69918 9.37125 1.85668 10.0406 2.16822L10.7823 0.5257C10.0419 0.174227 9.24702 -0.00451617 8.44476 8.66864e-05C4.38974 8.66864e-05 0.599186 2.63158 0.0611526 6.13447C-0.413047 9.22932 1.93667 10.9514 4.81834 10.9514C5.60937 10.9347 6.39636 10.8187 7.16502 10.6056L7.93711 8.6311C7.19304 8.99423 6.39648 9.1982 5.58739 9.23278C3.31063 9.23278 2.61453 7.65942 2.85163 6.12064L2.85467 6.14484ZM25.5494 6.74998C26.1847 5.19045 27.4674 4.47811 28.2851 4.44353C28.5563 4.40364 28.8318 4.42921 29.0937 4.51859C29.3555 4.60796 29.5979 4.75913 29.805 4.96223C28.8475 9.18782 26.9112 9.53361 26.3366 9.53361C24.9262 9.53361 25.0539 7.97409 25.5494 6.76727V6.74998ZM23.2544 10.1802C23.6982 10.7301 24.3669 10.9445 25.1603 10.986C26.3173 11.0762 27.4688 10.7351 28.4402 10.0143C27.8322 12.051 25.7804 12.4729 24.4003 12.4625C23.7206 12.5096 23.0399 12.3917 22.4032 12.1167L21.7953 13.8456C22.5261 14.045 23.2749 14.1471 24.0264 14.15C27.4127 14.15 29.5922 12.7668 30.5011 10.0592L32.8143 3.14335C32.436 3.26093 32.0478 3.3328 31.6562 3.35775C30.416 3.35775 30.3613 2.97045 28.3429 2.97045C25.446 2.97045 23.0629 5.39101 22.7224 8.07783C22.6643 8.45527 22.6817 8.84274 22.7733 9.21149C22.8649 9.58024 23.0282 9.92082 23.2513 10.2079L23.2544 10.1802ZM34.8054 8.36829C34.9148 7.67671 35.389 7.29287 36.6657 7.14072C37.3727 7.05995 38.0845 7.04723 38.7935 7.10269L38.1947 8.84203C37.5719 9.16422 36.8995 9.34398 36.2158 9.37109C35.0273 9.42988 34.6959 8.90773 34.7962 8.33371L34.8054 8.36829ZM35.006 11.0378C36.8724 11.0378 37.3648 10.692 38.5047 10.6713C39.1391 10.6199 39.7765 10.6924 40.3894 10.8857C40.3073 10.4673 40.2222 10.0212 40.6173 8.84549C40.9 8.00521 41.2253 7.00587 41.5566 6.05493C42.3013 3.84877 40.7055 2.87018 38.1065 2.87018C36.9849 2.86553 35.8653 2.98131 34.7628 3.21597L34.1549 5.02102C35.3446 4.62332 36.5811 4.43671 37.8208 4.46774C39.5352 4.46774 39.3802 5.28727 39.2768 5.68147C38.3125 5.60069 37.3443 5.60069 36.3799 5.68147C35.5874 5.72237 34.8051 5.90199 34.0606 6.214C32.9055 6.73614 32.3888 7.65596 32.3189 8.71409C32.2398 9.91745 32.9785 11.0551 34.9999 11.0551L35.006 11.0378ZM20.2268 10.8822L23.8745 0.217938H21.4639L17.8163 10.8822H20.2268Z" fill="#D20512"/>
</svg>
