<svg width="156" height="64" viewBox="0 0 156 64" fill="none" xmlns="http://www.w3.org/2000/svg">
<path d="M101.132 49.7044C94.1097 53.127 86.3957 54.9062 78.5784 54.9062C70.7612 54.9062 63.0472 53.127 56.0251 49.7044C48.8551 46.1613 42.4609 41.2377 37.2117 35.2182L35.3018 40.1391C40.0845 47.1979 46.5349 52.9774 54.0855 56.9695C61.6361 60.9615 70.0556 63.0438 78.6033 63.033C87.1511 63.0222 95.5653 60.9188 103.106 56.9078C110.646 52.8967 117.082 47.1009 121.847 40.0302L119.987 35.2517C114.726 41.2705 108.321 46.1912 101.14 49.7296L101.132 49.7044ZM124.472 22.1319C124.051 21.5787 124.16 20.4553 124.766 18.9547L128.384 10.0936H133.062L134.257 6.99183H129.587L130.993 3.22776L123.883 4.44334L122.907 6.95831H119.777L118.641 10.0601H121.746L118.01 19.2816C117.051 21.6206 117 23.3308 117.859 24.5128C118.717 25.6948 120.383 26.1895 122.907 26.1895C124.575 26.1492 126.232 25.9157 127.846 25.4936L129.352 21.8637C128.277 22.2881 127.141 22.5399 125.986 22.6098C125.702 22.6608 125.41 22.6382 125.138 22.5442C124.865 22.4503 124.621 22.2881 124.43 22.0733L124.472 22.1319ZM43.337 14.8218C41.6542 23.1463 36.6059 23.5739 35.571 23.5739C33.964 23.5739 32.7945 23.1715 32.1129 22.3751C31.4314 21.5787 31.179 20.1787 31.5408 18.4014C32.2055 15.1823 35.0073 10.3787 40.0472 10.3787C40.5454 10.3386 41.0462 10.4097 41.5134 10.5866C41.9805 10.7635 42.4023 11.0418 42.748 11.4014C43.0988 11.892 43.3332 12.4554 43.4338 13.0493C43.5343 13.6432 43.4984 14.2521 43.3286 14.8302L43.337 14.8218ZM50.1775 15.6601C51.4311 10.1942 46.5932 7.12596 40.1818 7.12596C33.4507 7.12596 25.9877 11.1583 24.6246 17.9487C23.169 25.2086 29.6729 26.7679 33.8125 26.8098C43.1771 26.9188 48.8649 21.3439 50.1775 15.6517V15.6601ZM148.872 14.5116H140.096C140.5 13.2276 141.316 12.111 142.417 11.3327C143.519 10.5544 144.847 10.1575 146.196 10.2026C146.659 10.1513 147.128 10.2071 147.566 10.3655C148.003 10.524 148.399 10.781 148.721 11.1164C149.276 11.8373 149.301 13.011 148.796 14.4697L148.872 14.5116ZM147.189 6.83254C139.928 6.83254 133.727 10.8649 132.145 16.6325C131.304 19.5499 131.758 22.1068 133.357 24.0266C135.115 26.1475 138.212 27.3128 142.057 27.3128C144.54 27.2808 147.007 26.9027 149.385 26.1895L151.388 22.09C149.08 23.0159 146.615 23.4912 144.127 23.49C143.317 23.5411 142.506 23.4085 141.756 23.102C141.005 22.7956 140.334 22.3235 139.793 21.7212C139.38 21.1675 139.107 20.522 138.998 19.8401C138.89 19.1582 138.949 18.4603 139.171 17.8062H154.509L154.585 17.605C155.788 14.2517 155.637 11.393 154.156 9.47328C152.81 7.72118 150.445 6.82418 147.189 6.82418V6.83254ZM8.2849 14.8972C9.38712 8.77747 15.3105 4.13314 22.336 4.13314C24.3378 4.1194 26.3225 4.50124 28.1753 5.25652L30.2282 1.27448C28.1789 0.422386 25.9786 -0.0109488 23.758 0.000210158C12.5339 0.000210158 2.04182 6.37987 0.552568 14.8721C-0.759993 22.3751 5.74391 26.5499 13.7202 26.5499C15.9098 26.5095 18.0881 26.2284 20.2157 25.7116L22.3529 20.9248C20.2933 21.8051 18.0885 22.2996 15.8489 22.3835C9.54697 22.3835 7.6202 18.5691 8.27648 14.8385L8.2849 14.8972ZM71.1027 16.3643C72.8612 12.5835 76.4119 10.8565 78.6752 10.7727C79.4257 10.676 80.1883 10.738 80.9132 10.9546C81.6381 11.1713 82.309 11.5378 82.8821 12.0302C80.2318 22.2745 74.8721 23.1128 73.2819 23.1128C69.3779 23.1128 69.7313 19.332 71.1027 16.4062V16.3643ZM64.7503 24.6805C65.9787 26.0134 67.8297 26.5332 70.0258 26.6338C73.2285 26.8527 76.4156 26.0257 79.1043 24.2781C77.4215 29.2158 71.7422 30.2385 67.9223 30.2134C66.0408 30.3276 64.1565 30.0418 62.3944 29.3751L60.7116 33.5667C62.7346 34.05 64.8071 34.2976 66.8874 34.3044C76.2604 34.3044 82.2931 30.9511 84.8089 24.387L91.2119 7.62057C90.1646 7.90563 89.0901 8.07987 88.0062 8.14035C84.5733 8.14035 84.4219 7.20141 78.8351 7.20141C70.8167 7.20141 64.2202 13.0697 63.2779 19.5835C63.1171 20.4985 63.1652 21.4379 63.4187 22.3319C63.6721 23.2258 64.1244 24.0515 64.7419 24.7475L64.7503 24.6805ZM96.7229 20.2876C97.0258 18.611 98.3384 17.6804 101.872 17.3116C103.829 17.1158 105.8 17.0849 107.762 17.2194L106.104 21.4361C104.381 22.2172 102.519 22.6531 100.627 22.7188C97.3371 22.8613 96.42 21.5954 96.6977 20.2038L96.7229 20.2876ZM97.2782 26.7595C102.444 26.7595 103.807 25.9212 106.963 25.8709C108.718 25.7464 110.483 25.9222 112.179 26.3906C111.952 25.3763 111.716 24.2948 112.81 21.4445C113.593 19.4074 114.493 16.9847 115.41 14.6793C117.471 9.33076 113.054 6.95831 105.86 6.95831C102.756 6.94704 99.6569 7.22773 96.6051 7.79663L94.9223 12.1727C98.2154 11.2085 101.638 10.7561 105.069 10.8314C109.815 10.8314 109.386 12.8182 109.1 13.7739C106.43 13.578 103.75 13.578 101.081 13.7739C98.8875 13.873 96.7222 14.3085 94.6615 15.0649C91.4642 16.3308 90.0339 18.5607 89.8404 21.126C89.6216 24.0433 91.6662 26.8014 97.2614 26.8014L97.2782 26.7595ZM56.3701 26.3822L66.4667 0.528358H59.7945L49.6979 26.3822H56.3701Z" fill="#ED1D24"/>
</svg>
