<svg width="156" height="64" viewBox="0 0 156 64" fill="none" xmlns="http://www.w3.org/2000/svg">
<path d="M101.132 49.9776C94.1098 53.4002 86.3958 55.1794 78.5786 55.1794C70.7613 55.1794 63.0473 53.4002 56.0252 49.9776C48.8553 46.4345 42.461 41.5109 37.2118 35.4914L35.3019 40.4123C40.0847 47.4711 46.535 53.2506 54.0856 57.2427C61.6362 61.2347 70.0557 63.3169 78.6035 63.3062C87.1513 63.2954 95.5654 61.192 103.106 57.181C110.646 53.1699 117.082 47.3741 121.847 40.3033L119.987 35.5249C114.726 41.5437 108.321 46.4643 101.14 50.0028L101.132 49.9776ZM124.472 22.4051C124.051 21.8518 124.161 20.7285 124.766 19.2279L128.384 10.3668H133.062L134.257 7.26502H129.588L130.993 3.50095L123.883 4.71653L122.907 7.2315H119.777L118.641 10.3333H121.746L118.01 19.5548C117.051 21.8938 117 23.604 117.859 24.786C118.717 25.968 120.383 26.4626 122.907 26.4626C124.575 26.4224 126.232 26.1889 127.846 25.7668L129.352 22.1369C128.277 22.5613 127.141 22.8131 125.986 22.883C125.703 22.934 125.41 22.9114 125.138 22.8174C124.865 22.7235 124.621 22.5613 124.43 22.3465L124.472 22.4051ZM43.3371 15.095C41.6544 23.4195 36.606 23.8471 35.5711 23.8471C33.9641 23.8471 32.7946 23.4447 32.1131 22.6483C31.4315 21.8519 31.1791 20.4519 31.5409 18.6746C32.2056 15.4555 35.0074 10.6519 40.0473 10.6519C40.5455 10.6118 41.0463 10.6829 41.5135 10.8598C41.9807 11.0367 42.4024 11.315 42.7482 11.6746C43.0989 12.1652 43.3334 12.7286 43.4339 13.3225C43.5345 13.9164 43.4985 14.5253 43.3287 15.1033L43.3371 15.095ZM50.1776 15.9333C51.4313 10.4674 46.5933 7.39915 40.1819 7.39915C33.4509 7.39915 25.9878 11.4315 24.6247 18.2219C23.1691 25.4818 29.673 27.0411 33.8126 27.083C43.1773 27.192 48.865 21.6171 50.1776 15.9249V15.9333ZM148.872 14.7848H140.096C140.5 13.5008 141.316 12.3841 142.418 11.6059C143.519 10.8276 144.847 10.4307 146.196 10.4758C146.659 10.4245 147.128 10.4802 147.566 10.6387C148.004 10.7972 148.399 11.0542 148.721 11.3896C149.276 12.1105 149.301 13.2842 148.796 14.7429L148.872 14.7848ZM147.189 7.10573C139.928 7.10573 133.727 11.1381 132.145 16.9057C131.304 19.8231 131.758 22.38 133.357 24.2998C135.115 26.4207 138.212 27.586 142.057 27.586C144.54 27.554 147.007 27.1759 149.385 26.4626L151.388 22.3632C149.08 23.2891 146.615 23.7644 144.127 23.7632C143.317 23.8143 142.507 23.6816 141.756 23.3752C141.005 23.0688 140.334 22.5967 139.794 21.9944C139.38 21.4407 139.107 20.7952 138.998 20.1133C138.89 19.4314 138.949 18.7335 139.171 18.0794H154.509L154.585 17.8782C155.788 14.5249 155.637 11.6662 154.156 9.74647C152.81 7.99438 150.445 7.09737 147.189 7.09737V7.10573ZM8.28502 15.1704C9.38724 9.05067 15.3106 4.40633 22.3362 4.40633C24.338 4.3926 26.3226 4.77443 28.1754 5.52971L30.2284 1.54767C28.179 0.69558 25.9787 0.262245 23.7581 0.273404C12.534 0.273404 2.04194 6.65306 0.55269 15.1453C-0.759871 22.6483 5.74403 26.8231 13.7204 26.8231C15.9099 26.7827 18.0883 26.5016 20.2159 25.9848L22.353 21.198C20.2934 22.0783 18.0886 22.5728 15.8491 22.6567C9.54709 22.6567 7.62032 18.8423 8.2766 15.1117L8.28502 15.1704ZM71.1029 16.6375C72.8613 12.8567 76.412 11.1297 78.6753 11.0459C79.4259 10.9492 80.1885 11.0111 80.9133 11.2278C81.6382 11.4445 82.3091 11.811 82.8822 12.3034C80.2319 22.5477 74.8723 23.386 73.282 23.386C69.378 23.386 69.7314 19.6051 71.1029 16.6794V16.6375ZM64.7504 24.9536C65.9788 26.2866 67.8299 26.8064 70.0259 26.907C73.2286 27.1259 76.4157 26.2989 79.1044 24.5513C77.4217 29.489 71.7423 30.5117 67.9224 30.4866C66.041 30.6008 64.1567 30.315 62.3945 29.6483L60.7117 33.8399C62.7347 34.3232 64.8072 34.5707 66.8875 34.5776C76.2605 34.5776 82.2933 31.2243 84.809 24.6602L91.212 7.89376C90.1647 8.17883 89.0902 8.35307 88.0063 8.41354C84.5734 8.41354 84.422 7.4746 78.8352 7.4746C70.8168 7.4746 64.2203 13.3429 63.278 19.8567C63.1172 20.7717 63.1654 21.7111 63.4188 22.605C63.6723 23.499 64.1245 24.3247 64.742 25.0207L64.7504 24.9536ZM96.723 20.5608C97.0259 18.8842 98.3385 17.9536 101.872 17.5848C103.829 17.389 105.8 17.3581 107.762 17.4926L106.104 21.7093C104.381 22.4904 102.52 22.9262 100.627 22.992C97.3373 23.1345 96.4201 21.8686 96.6978 20.477L96.723 20.5608ZM97.2783 27.0327C102.444 27.0327 103.807 26.1944 106.963 26.1441C108.719 26.0196 110.483 26.1954 112.179 26.6638C111.952 25.6495 111.717 24.568 112.81 21.7177C113.593 19.6806 114.493 17.2578 115.41 14.9525C117.472 9.60395 113.054 7.2315 105.86 7.2315C102.756 7.22023 99.657 7.50092 96.6052 8.06983L94.9225 12.4459C98.2155 11.4817 101.638 11.0293 105.07 11.1046C109.815 11.1046 109.386 13.0914 109.1 14.0471C106.431 13.8512 103.751 13.8512 101.081 14.0471C98.8876 14.1462 96.7223 14.5817 94.6616 15.3381C91.4644 16.6039 90.034 18.8339 89.8405 21.3992C89.6218 24.3165 91.6663 27.0746 97.2615 27.0746L97.2783 27.0327ZM56.3702 26.6554L66.4668 0.801551H59.7946L49.698 26.6554H56.3702Z" fill="white"/>
</svg>
