<svg width="36" height="36" viewBox="0 0 36 36" fill="none" xmlns="http://www.w3.org/2000/svg">
<path d="M24.7498 34.8751H11.2498C10.6288 34.8751 10.1248 34.3722 10.1248 33.7501C10.1248 33.1279 10.6288 32.6251 11.2498 32.6251H24.7498C25.3719 32.6251 25.8748 33.1279 25.8748 33.7501C25.8748 34.3722 25.3719 34.8751 24.7498 34.8751ZM25.5452 17.2047L18.7952 10.4547C18.6917 10.3512 18.5668 10.2691 18.4295 10.2117C18.1539 10.0981 17.8445 10.0981 17.57 10.2117C17.4328 10.2691 17.3079 10.3512 17.2044 10.4547L10.4544 17.2047C10.0145 17.6446 10.0145 18.3556 10.4544 18.7954C10.6738 19.0148 10.9618 19.1251 11.2498 19.1251C11.5378 19.1251 11.8258 19.0148 12.0452 18.7954L16.8748 13.9658V29.2501C16.8748 29.8722 17.3788 30.3751 17.9998 30.3751C18.6208 30.3751 19.1248 29.8722 19.1248 29.2501V13.9658L23.9544 18.7954C24.1738 19.0148 24.4618 19.1251 24.7498 19.1251C25.0378 19.1251 25.3258 19.0148 25.5452 18.7954C25.985 18.3556 25.985 17.6446 25.5452 17.2047Z" fill="#EB2933"/>
<path d="M27.8674 9.00563C26.8369 4.4505 22.7576 1.125 18 1.125C13.2424 1.125 9.16313 4.4505 8.13263 9.00563C4.24125 9.1665 1.125 12.3818 1.125 16.3125C1.125 20.3445 4.4055 23.625 8.4375 23.625H14.625V19.3973L13.6361 20.3861C12.9994 21.024 12.1511 21.375 11.25 21.375C10.3489 21.375 9.50063 21.0229 8.86388 20.3861C8.226 19.7494 7.875 18.9011 7.875 18C7.875 17.0989 8.226 16.2506 8.86388 15.6139L15.6139 8.86388C15.9266 8.55113 16.2934 8.30475 16.7063 8.13375C17.1225 7.96163 17.5556 7.87612 18 7.87612C18.4444 7.87612 18.8786 7.96163 19.2892 8.1315C19.7055 8.30475 20.0734 8.55113 20.3872 8.86388L27.1361 15.6139C27.7729 16.2506 28.125 17.0989 28.125 18C28.125 18.9011 27.7729 19.7494 27.1361 20.3861C26.4994 21.024 25.6511 21.375 24.75 21.375C23.8489 21.375 23.0006 21.0229 22.3639 20.3861L21.375 19.3973V23.625H27.5625C31.5945 23.625 34.875 20.3445 34.875 16.3125C34.875 12.3818 31.7588 9.1665 27.8674 9.00563Z" fill="#EB2933"/>
</svg>
