<svg width="78" height="78" viewBox="0 0 78 78" fill="none" xmlns="http://www.w3.org/2000/svg">
<path d="M73.125 34.125H43.875V4.875C43.875 3.58207 43.3614 2.3421 42.4471 1.42786C41.5329 0.513616 40.2929 0 39 0C37.7071 0 36.4671 0.513616 35.5529 1.42786C34.6386 2.3421 34.125 3.58207 34.125 4.875V34.125H4.875C3.58207 34.125 2.3421 34.6386 1.42786 35.5529C0.513616 36.4671 0 37.7071 0 39C0 40.2929 0.513616 41.5329 1.42786 42.4471C2.3421 43.3614 3.58207 43.875 4.875 43.875H34.125V73.125C34.125 74.4179 34.6386 75.6579 35.5529 76.5722C36.4671 77.4864 37.7071 78 39 78C40.2929 78 41.5329 77.4864 42.4471 76.5722C43.3614 75.6579 43.875 74.4179 43.875 73.125V43.875H73.125C74.4179 43.875 75.6579 43.3614 76.5722 42.4471C77.4864 41.5329 78 40.2929 78 39C78 37.7071 77.4864 36.4671 76.5722 35.5529C75.6579 34.6386 74.4179 34.125 73.125 34.125Z" fill="#978EAB"/>
</svg>
