<svg width="75" height="75" viewBox="0 0 75 75" fill="none" xmlns="http://www.w3.org/2000/svg">
<rect width="75" height="75" rx="37.5" fill="#EB2933"/>
<path d="M37.1758 33.5352C35.6523 33.5352 34.3047 33.916 33.2061 34.9268L33.9531 30.0635H43.3281V26.3721H31.1553L29.4121 38.6475L31.4922 39.8926C32.3857 38.1934 34.5537 37.124 36.6631 37.124C39.5488 37.124 41.5264 38.9404 41.5264 41.709C41.5264 44.8584 38.9336 46.5137 36.5605 46.5137C34.9492 46.5137 33.0742 45.5322 32.2832 44.0674L28.6211 45.2246C29.9248 48.2422 33.25 50.2051 36.7217 50.2051C41.4971 50.2051 45.3789 46.7334 45.3789 41.709C45.3789 37.0215 42.1709 33.5352 37.1758 33.5352Z" fill="#F1F1F1"/>
</svg>
