<svg width="75" height="75" viewBox="0 0 75 75" fill="none" xmlns="http://www.w3.org/2000/svg">
<rect width="75" height="75" rx="37.5" fill="#EB2933"/>
<path d="M41.1768 36.8311C42.876 36.1426 44.2676 34.4287 44.2676 32.041C44.2676 28.3936 41.1182 25.7129 37.4121 25.7129C33.8965 25.7129 31.2305 28.2031 30.5859 31.0156L34.3799 31.8066C34.6582 30.3711 35.918 29.3457 37.3828 29.3457C39.126 29.3457 40.5469 30.5762 40.5469 32.3193C40.5469 34.5459 38.1006 35.8643 35.3613 35.8643L34.7754 38.0322C38.8477 38.0029 41.748 39.8193 41.748 42.6904C41.748 44.6973 39.9463 46.5576 37.4414 46.5576C35.4053 46.5576 33.5742 45.2393 33.1348 43.4521L29.502 44.375C30.3076 47.627 33.7061 50.2197 37.5293 50.2197C41.9971 50.2197 45.4834 46.8359 45.4834 42.9541C45.4834 39.7168 43.623 37.71 41.1768 36.8311Z" fill="#F1F1F1"/>
</svg>
