<svg width="39" height="112" viewBox="0 0 39 112" fill="none" xmlns="http://www.w3.org/2000/svg">
<path d="M36.7398 58.3968C36.7398 58.7048 36.7398 59.0128 36.7398 59.3194C36.4892 59.3656 36.5018 59.5686 36.471 59.7548C35.8956 63.2646 33.832 65.4864 30.472 66.472C26.7886 67.5514 23.087 67.382 19.4526 66.2284C16.542 65.3058 14.2796 61.8394 14.4098 58.6124C16.724 58.4584 19.0466 58.303 21.3832 58.1462C21.4868 58.5368 21.5596 58.828 21.6422 59.1178C22.2918 61.4068 23.9928 62.5492 26.328 62.2692C27.903 62.0802 29.0188 61.1772 29.142 59.99C29.2666 58.7888 28.3706 57.7206 26.7956 57.2642C25.1002 56.7742 23.3796 56.3654 21.6912 55.8516C18.677 54.9332 16.0646 53.5206 15.247 50.2082C10.8902 50.4602 6.6272 50.3286 2.3656 50.309C2.3628 42.8498 2.3614 35.3906 2.3586 27.93C4.0862 27.9146 5.8124 27.9048 7.54 27.8796C7.869 27.8754 8.3184 28.0322 8.4794 27.6416C8.8882 26.6448 9.4328 25.6816 9.584 24.4706C8.4472 24.4706 7.4602 24.4706 6.5068 24.4706C6.2478 23.9932 6.3514 23.5634 6.3514 23.1518C6.3444 16.9302 6.35 10.7072 6.343 4.4856C6.3416 2.9904 6.2996 1.4952 6.2772 0C8.9694 0 11.6616 0 14.3552 0C14.3552 3.8486 14.3552 7.6972 14.3552 11.5458C15.0244 10.3264 15.5298 9.0944 15.975 7.84C16.1836 7.252 16.4776 6.9986 17.1412 7.0112C19.3322 7.0546 21.5246 7.0546 23.7156 7.0112C24.3848 6.9972 24.6242 7.2632 24.844 7.8526C27.4858 14.9338 30.1682 22.001 32.8142 29.0808C33.0872 29.8102 33.4666 30.5284 33.5044 31.346C30.8864 31.346 28.3244 31.346 25.7806 31.346C25.4208 30.212 25.0484 29.162 24.7656 28.0868C24.6354 27.5912 24.445 27.3854 23.92 27.3896C21.498 27.4106 19.076 27.3966 16.654 27.4008C16.3544 27.4008 16.0142 27.356 15.9456 27.7942C15.8728 28.259 16.255 28.2716 16.5238 28.3486C20.168 29.4014 21.8718 32.095 22.6796 35.5684C23.1528 37.6082 22.9036 39.683 22.9568 41.7522C24.1692 41.7522 25.3144 41.755 26.4596 41.7522C27.6594 41.7494 28.8298 41.9636 29.996 42.2128C33.3084 42.9226 35.701 45.8094 35.6016 49.0686C33.293 49.203 30.976 49.3374 28.701 49.469C27.8778 46.9406 27.1834 46.1762 24.221 46.3666C23.0716 46.4408 22.2274 47.194 22.2428 48.0956C22.2624 49.1778 23.0422 49.5852 23.9564 49.8162C25.8534 50.2978 27.7714 50.7122 29.6446 51.2722C33.209 52.3376 36.2162 54.0092 36.5648 58.2806C36.5634 58.3268 36.6782 58.3604 36.7398 58.3968ZM9.3222 45.2004C10.4142 45.2004 11.376 45.2424 12.3308 45.192C14.1284 45.0954 15.3086 44.1728 15.7062 42.4354C16.2004 40.2738 16.1962 38.0814 15.6642 35.9212C15.3296 34.5604 14.491 33.593 13.091 33.2332C11.8576 32.9154 10.6032 32.9504 9.3222 33.075C9.3222 37.1308 9.3222 41.1138 9.3222 45.2004ZM20.2982 13.377C19.3644 16.4738 18.53 19.2416 17.6816 22.0584C19.517 22.0584 21.183 22.0584 22.9498 22.0584C22.0762 19.1996 21.232 16.4374 20.2982 13.377Z" fill="white"/>
<path d="M2.1234 27.93C2.2018 27.9314 2.2816 27.9314 2.36 27.9328C2.3628 35.392 2.3642 42.8512 2.367 50.3118C2.2858 50.3146 2.2046 50.316 2.1234 50.3188C2.1234 42.8554 2.1234 35.3934 2.1234 27.93Z" fill="#C9DDEF"/>
<path d="M38 92.4284C38 102.922 29.4934 111.428 19 111.428C8.50659 111.428 0 102.922 0 92.4284C0 81.935 8.50659 73.4284 19 73.4284C29.4934 73.4284 38 81.935 38 92.4284Z" fill="#C4C4C4"/>
<path d="M27.413 75.0665C27.049 74.9279 26.664 74.8411 26.3 74.7011C26.0522 74.7614 25.8044 74.8229 25.5552 74.8831C24.4002 74.8075 23.2746 74.9909 22.1532 75.2443C22.135 75.1337 22.1168 75.0231 22.0972 74.9139C22.1084 74.2489 21.225 74.2545 21.1452 73.6077C21.3552 73.5923 21.5638 73.5783 21.7724 73.5643C20.1904 73.2479 18.607 73.2773 17.0222 73.5489C16.899 73.5559 16.7758 73.5615 16.6512 73.5685C16.1374 73.4817 15.6544 73.6609 15.1742 73.7715C11.6938 74.5709 8.576 76.0605 6.0588 78.6631C4.936 79.576 4.0288 80.6791 3.2546 81.8971C2.619 82.8071 2.0772 83.7605 1.6348 84.7601C4.5832 77.9771 11.3452 73.2325 19.216 73.2325C22.1504 73.2311 24.928 73.8891 27.413 75.0665Z" fill="#C4E7F1"/>
<path d="M38.3834 92.3957C38.3834 92.7779 38.3722 93.1573 38.3498 93.5353C38.3386 93.7271 38.3246 93.9203 38.3092 94.1107C38.2714 94.5335 38.221 94.9507 38.1552 95.3651C38.0502 96.0371 37.9116 96.6993 37.738 97.3461C37.6288 97.7633 37.5028 98.1721 37.367 98.5753C37.15 99.2109 36.9008 99.8325 36.6208 100.436C36.3912 100.934 36.1392 101.42 35.8676 101.893C35.6296 102.313 35.3748 102.722 35.1046 103.121C31.6816 108.181 25.9052 111.517 19.3476 111.559C19.3462 111.56 19.3462 111.56 19.3448 111.559C19.3434 111.56 19.342 111.559 19.342 111.559C19.3392 111.56 19.3392 111.56 19.3378 111.559C19.3364 111.56 19.3364 111.559 19.3364 111.559C19.2958 111.56 19.258 111.56 19.2188 111.56C19.0046 111.56 18.7932 111.556 18.5818 111.549H18.5804C18.019 111.531 17.466 111.489 16.9172 111.423C16.7478 111.404 16.5784 111.381 16.4104 111.356C16.4076 111.356 16.4062 111.356 16.4034 111.355C15.9078 111.283 15.4206 111.191 14.9376 111.08C14.9348 111.079 14.932 111.079 14.9292 111.077C14.442 110.967 13.9604 110.835 13.4886 110.688C13.35 110.646 13.2142 110.601 13.0784 110.555C12.9594 110.515 12.8404 110.474 12.7214 110.431C11.8394 110.113 10.9854 109.732 10.1692 109.294C10.0586 109.234 9.948 109.173 9.8374 109.112C9.5882 108.972 9.3432 108.826 9.0996 108.675C9.094 108.672 9.087 108.669 9.0814 108.664C8.8672 108.531 8.6572 108.392 8.4486 108.251C8.4486 108.251 8.4486 108.251 8.4472 108.251C8.2204 108.097 7.9992 107.939 7.7794 107.775C7.7752 107.772 7.7738 107.771 7.7696 107.768C7.7682 107.768 7.7682 107.768 7.7668 107.765C7.5302 107.589 7.3006 107.408 7.0738 107.222C7.0724 107.222 7.071 107.22 7.0696 107.219C6.8232 107.017 6.5824 106.81 6.3458 106.597C6.3444 106.596 6.3416 106.595 6.3416 106.593C6.0896 106.364 5.846 106.131 5.6066 105.889C5.6052 105.888 5.6038 105.886 5.6024 105.885C5.426 105.707 5.2524 105.525 5.0816 105.34C4.803 105.039 4.537 104.727 4.278 104.406C4.2682 104.392 4.2584 104.38 4.2472 104.366C4.0988 104.181 3.9532 103.993 3.8132 103.8C3.8104 103.797 3.809 103.795 3.8062 103.792C3.6116 103.53 3.424 103.264 3.2434 102.992L3.242 102.991C2.9158 102.5 2.612 101.994 2.3306 101.473C2.3264 101.465 2.3194 101.455 2.3152 101.447C2.0044 100.864 1.7216 100.268 1.4696 99.6519C1.3534 99.3663 1.2428 99.0779 1.1406 98.7881C1.0244 98.4591 0.916599 98.1259 0.818599 97.7885C0.817199 97.7843 0.815801 97.7815 0.815801 97.7773C0.744401 97.5309 0.675799 97.2845 0.612799 97.0325C0.612799 97.0325 0.612799 97.0311 0.612799 97.0297C0.528799 96.6951 0.456 96.3577 0.3902 96.0147C0.3902 96.0119 0.390202 96.0105 0.388802 96.0105C0.304802 95.5709 0.234802 95.1243 0.183002 94.6749C0.181602 94.6693 0.1816 94.6637 0.1802 94.6567C0.1004 93.9777 0.0569992 93.2861 0.0485992 92.5875V92.3915C0.0485992 92.1955 0.0514003 92.0009 0.0584003 91.8077C0.0584003 91.7965 0.0584016 91.7839 0.0598016 91.7727C0.0612016 91.6971 0.0640013 91.6229 0.0682013 91.5473C0.101801 90.7815 0.1788 90.0269 0.2992 89.2877C0.3706 88.9517 0.461599 88.6185 0.581999 88.2895C0.570799 88.8243 0.5442 89.3647 1.156 89.6307C1.4192 89.4291 1.3478 89.1365 1.3394 88.8747C1.3212 88.3371 1.5606 88.0837 2.0982 88.1173C2.1626 87.9927 2.2256 87.8653 2.29 87.7407C2.2634 87.4803 2.3782 87.1835 2.101 86.9847C1.8224 87.1849 1.4892 87.0029 1.1826 87.0029C1.1644 87.0029 1.149 87.0043 1.1308 87.0057C1.114 87.0071 1.0972 87.0085 1.0818 87.0113C1.0678 87.0127 1.0552 87.0155 1.0398 87.0197C1.0286 87.0225 1.0188 87.0239 1.0076 87.0281C0.9964 87.0323 0.983799 87.0365 0.971199 87.0421C0.961399 87.0449 0.953001 87.0491 0.943201 87.0547C0.933401 87.0589 0.925001 87.0631 0.916601 87.0673C0.880201 87.0883 0.843801 87.1163 0.807401 87.1513C0.799001 87.1583 0.792001 87.1653 0.785001 87.1737V87.1723C0.908201 86.7089 1.0496 86.2525 1.2106 85.8059C1.2148 85.7947 1.219 85.7807 1.2232 85.7681C1.2652 85.6547 1.3072 85.5399 1.352 85.4279C1.3814 85.3509 1.4122 85.2739 1.4444 85.1983C1.471 85.1311 1.5004 85.0639 1.5284 84.9967C1.5284 84.9939 1.5284 84.9925 1.5312 84.9897C1.5354 84.9757 1.5424 84.9631 1.5494 84.9477C1.576 84.8833 1.6054 84.8175 1.6334 84.7531C2.0758 83.7535 2.6176 82.8001 3.2532 81.8901C4.026 80.6707 4.9332 79.5689 6.0574 78.6561C8.5746 76.0535 11.691 74.5639 15.1728 73.7645C15.653 73.6539 16.1374 73.4747 16.6498 73.5615C16.773 73.5545 16.8962 73.5489 17.0208 73.5419C18.6056 73.2703 20.189 73.2409 21.771 73.5573C21.5624 73.5713 21.3538 73.5853 21.1438 73.6007C21.2236 74.2475 22.107 74.2419 22.0958 74.9069C22.114 75.0161 22.1322 75.1267 22.1518 75.2373C23.2732 74.9839 24.3988 74.8005 25.5538 74.8761C25.803 74.8159 26.0508 74.7543 26.2986 74.6941C26.6626 74.8341 27.0476 74.9223 27.4116 75.0595C27.4144 75.061 27.4158 75.0623 27.4186 75.0637C27.5852 75.1421 27.7504 75.2247 27.9128 75.3073C27.9142 75.3073 27.9156 75.3073 27.9156 75.3087L28.8648 75.8267C28.8662 75.8281 28.8676 75.8281 28.869 75.8295C29.5578 76.2313 30.2186 76.6751 30.85 77.1567C31.487 77.6439 32.0932 78.1717 32.663 78.7331C33.202 79.2637 33.7102 79.8251 34.1834 80.4173C34.6244 80.9675 35.036 81.5429 35.4154 82.1421C35.8018 82.7511 36.1546 83.3839 36.4696 84.0363C36.8238 84.7657 37.1332 85.5189 37.3936 86.2959C37.3936 86.2959 37.3936 86.2959 37.3936 86.2973C37.9452 87.9437 38.2798 89.6895 38.3624 91.5011C38.3764 91.8007 38.3834 92.0975 38.3834 92.3957Z" fill="#365CA8"/>
<path d="M38.3834 92.3957C38.3834 92.7779 38.3722 93.1573 38.3498 93.5353C37.976 93.7775 37.7786 94.1625 37.6036 94.5825C36.0398 98.3205 33.8278 101.588 30.619 104.119C24.8804 108.644 18.411 110.23 11.2178 108.941C10.6634 108.84 10.081 108.466 9.493 108.874C9.36 108.814 9.2298 108.749 9.1024 108.678C9.0968 108.675 9.0898 108.672 9.0842 108.667C8.863 108.545 8.653 108.408 8.4514 108.254C8.4514 108.254 8.4514 108.254 8.45 108.254C8.3436 108.172 8.2386 108.086 8.1378 107.996C8.3786 107.685 8.7034 107.748 9.0002 107.842C12.1474 108.839 15.3464 109.185 18.6336 108.734C21.7752 108.304 24.7404 107.407 27.4354 105.703C28.7584 105.144 29.9078 104.348 30.8374 103.244C31.8188 102.714 32.5748 101.958 33.1054 100.976C34.2072 100.047 35.0052 98.8973 35.5638 97.5743C35.9222 97.4203 35.9866 97.0521 36.156 96.7609C36.947 95.4043 37.3838 93.8951 38.0166 92.4699C38.018 92.3439 38.0208 92.2165 38.0208 92.0891C38.1356 91.8959 38.2504 91.7013 38.3652 91.5067C38.3764 91.8007 38.3834 92.0975 38.3834 92.3957Z" fill="#63CAE8"/>
<path d="M38.3484 93.5353C38.3372 93.7271 38.3232 93.9203 38.3078 94.1107C38.0362 94.3025 37.934 94.6301 37.7968 94.9423C36.0594 98.8917 33.587 102.252 30.1038 104.874C26.839 107.331 23.1878 108.808 19.1964 109.442C17.2196 109.754 15.2148 109.771 13.1974 109.551C12.4204 109.466 11.572 108.916 10.7684 109.539C10.5626 109.469 10.3624 109.389 10.1706 109.295C10.0572 109.239 9.9466 109.179 9.8388 109.113C9.7198 109.04 9.6036 108.961 9.4916 108.872C10.0796 108.465 10.662 108.839 11.2164 108.94C18.4096 110.229 24.8776 108.643 30.6176 104.118C33.8264 101.587 36.0398 98.3191 37.6022 94.5811C37.7772 94.1639 37.9746 93.7775 38.3484 93.5353Z" fill="#5EC9E5"/>
<path d="M38.3078 94.1121C38.27 94.5349 38.2196 94.9521 38.1538 95.3665C37.9522 95.6549 37.7366 95.9321 37.5574 96.2331C36.5186 97.9859 35.5288 99.7527 34.2086 101.338C31.3974 104.707 27.9268 107.079 23.8304 108.554C20.119 109.891 16.2998 110.299 12.3868 109.69C12.09 109.644 11.747 109.576 11.5286 109.911C11.2752 109.788 11.0218 109.663 10.7684 109.54C11.5706 108.917 12.419 109.469 13.1974 109.553C15.2134 109.772 17.2196 109.756 19.1964 109.443C23.1878 108.809 26.839 107.332 30.1038 104.875C33.587 102.253 36.0594 98.8931 37.7968 94.9437C37.9326 94.6301 38.0362 94.3039 38.3078 94.1121Z" fill="#5DC9E5"/>
<path d="M38.3624 91.5067C38.2462 91.6999 38.1328 91.8945 38.018 92.0891C37.9606 92.0247 37.9032 91.9603 37.8458 91.8959C37.8416 91.3947 37.836 90.8935 37.8318 90.3937C37.3558 89.8491 37.521 89.0511 37.0758 88.4953C37.0226 88.0403 36.7468 87.9017 36.3268 87.9675C36.7636 87.6875 37.1836 87.4173 37.1262 86.7775C37.1248 86.7635 37.1248 86.7481 37.1276 86.7341C37.1276 86.7271 37.129 86.7201 37.1318 86.7131C37.136 86.6935 37.143 86.6725 37.1528 86.6501C37.157 86.6403 37.1612 86.6319 37.1654 86.6221C37.1696 86.6123 37.1766 86.6039 37.1822 86.5941C37.1934 86.5759 37.206 86.5563 37.2186 86.5367V86.5353C37.2326 86.5171 37.2466 86.4975 37.2606 86.4793C37.2718 86.4653 37.2816 86.4513 37.2942 86.4373C37.3124 86.4149 37.3292 86.3925 37.346 86.3701C37.3628 86.3491 37.3796 86.3267 37.395 86.3057C37.9452 87.9493 38.2798 89.6951 38.3624 91.5067Z" fill="#3B84C5"/>
<path d="M18.9262 74.5037C18.1576 74.6311 17.4422 74.8915 16.7604 75.2401C16.647 75.2975 16.535 75.3591 16.423 75.4221C16.311 75.4851 16.2004 75.5495 16.0898 75.6153C16.066 75.5971 16.0408 75.5803 16.0184 75.5635C15.9456 75.5131 15.8714 75.4697 15.7972 75.4333C15.114 75.0917 14.3748 75.2863 13.6482 75.3619C12.8264 75.4445 12.0984 76.0353 11.1828 75.7399C10.907 75.6503 10.3456 75.8715 10.3232 76.2761C10.2966 76.7297 10.0194 76.8403 9.745 77.0363C6.098 79.6375 4.5818 83.2747 5.1936 87.5979C5.7662 91.6383 8.1588 94.5153 12.0032 96.0357C13.0504 96.4501 14.1466 96.9667 15.3366 96.4403C15.3996 96.3801 15.4598 96.3185 15.5228 96.2583C15.8546 96.4669 16.129 96.7133 16.1122 97.1529C15.6586 98.0055 14.855 97.6051 14.2838 97.5211C10.144 96.9135 7.1914 94.6273 5.3042 90.9257C4.761 89.8603 4.467 88.7081 4.1814 87.5545C4.117 87.1149 4.05401 86.6781 3.9896 86.2385C4.0008 83.8025 4.6238 81.5415 5.9174 79.4681C6.0616 79.2385 6.4186 78.9991 6.0574 78.6631C8.5746 76.0605 11.691 74.5709 15.1728 73.7715C15.653 73.6609 16.1374 73.4817 16.6498 73.5685C16.6834 74.0627 17.0656 73.9395 17.3498 73.9465C17.6844 73.9521 18.0218 73.8163 18.355 73.9689C18.3214 74.0921 18.089 74.1145 18.1814 74.3105C18.4348 74.3665 18.7344 74.2349 18.9262 74.5037Z" fill="#C4E7F1"/>
<path d="M3.9742 104.006C3.7222 103.627 3.298 103.363 3.2168 102.869C3.6074 102.824 3.9266 102.955 4.2654 103.169C8.2064 105.664 12.4848 106.928 17.1762 106.644C17.6872 106.613 18.2612 106.722 18.5468 106.109C19.1712 105.76 19.9314 106.044 20.553 105.678C22.3758 105.673 23.9326 104.877 25.4768 104.038C25.7148 103.909 25.9416 103.796 25.7288 103.475C26.3364 103.496 26.5744 103.044 26.832 102.614C27.2128 103.088 27.5488 102.641 27.7714 102.476C28.5302 101.917 29.3548 101.415 29.8896 100.597C30.0156 100.724 30.1416 100.852 30.2662 100.979C30.4594 101.72 29.7832 101.969 29.4066 102.264C24.9182 105.769 19.8978 107.528 14.1214 107.057C10.9518 106.798 8.0482 105.857 5.2986 104.346C4.8646 104.107 4.4614 103.947 3.9742 104.006Z" fill="#7CD1EE"/>
<path d="M3.9742 104.006C4.4614 103.947 4.8632 104.105 5.3 104.346C8.0496 105.858 10.9518 106.798 14.1228 107.057C19.8992 107.528 24.9196 105.769 29.408 102.264C29.7846 101.97 30.4608 101.721 30.2676 100.979C30.6652 100.898 30.9172 101.181 31.2112 101.356C30.8892 101.969 30.2676 102.263 29.7734 102.69C26.104 105.861 21.7822 107.443 16.9956 107.765C13.4256 108.006 10.025 107.229 6.7518 105.797C6.3402 105.616 5.8894 105.052 5.3112 105.522C4.7484 105.122 4.3984 104.531 3.9742 104.006Z" fill="#7AD0ED"/>
<path d="M5.3112 105.524C5.8894 105.053 6.3388 105.617 6.7518 105.798C10.025 107.23 13.4256 108.006 16.9956 107.766C21.7822 107.444 26.104 105.862 29.7734 102.691C30.2676 102.264 30.8892 101.97 31.2112 101.357C31.3372 101.419 31.4646 101.482 31.5906 101.543C31.5556 101.87 31.3946 102.105 31.1496 102.336C29.4794 103.921 27.6174 105.207 25.5272 106.19C20.6062 108.506 15.5228 108.949 10.249 107.705C9.045 107.421 7.9418 106.733 6.651 106.81C6.1176 106.474 5.6906 106.023 5.3112 105.524Z" fill="#6FCDEB"/>
<path d="M31.9406 86.4751C31.4268 86.3253 30.864 86.5031 30.3502 86.3365C30.3138 86.3253 30.2774 86.3099 30.241 86.2945C30.1864 86.2707 30.1332 86.2427 30.0814 86.2077C30.1192 86.1797 30.1542 86.1517 30.185 86.1209C30.4062 85.9095 30.4636 85.6407 30.4664 85.3145C30.4734 84.4647 30.402 83.6289 30.2718 82.7903C29.73 79.3155 27.6482 76.9621 24.7278 75.0917C25.054 75.1169 25.3102 75.0161 25.5552 74.8817C25.8044 74.8215 26.0522 74.7599 26.3 74.6997C26.664 74.8397 27.049 74.9279 27.413 75.0651C27.4158 75.0665 27.4172 75.0679 27.42 75.0693C27.5908 75.1337 27.7574 75.2121 27.9142 75.3129C27.9156 75.3129 27.917 75.3129 27.917 75.3143C27.9688 75.3479 28.0192 75.3829 28.0696 75.4221C27.5852 75.7707 28.05 75.9555 28.2208 76.1389C30.7128 78.8297 32.0008 81.9503 31.5654 85.6547C31.5136 86.0943 31.753 86.2329 31.9406 86.4751Z" fill="#38B7E4"/>
<path d="M6.6524 106.812C7.9432 106.735 9.0464 107.422 10.2504 107.706C15.5242 108.951 20.6076 108.507 25.5286 106.191C27.6188 105.209 29.4794 103.922 31.151 102.337C31.3946 102.106 31.5556 101.871 31.592 101.545C31.8006 101.538 32.0232 101.577 32.1604 101.354C34.4144 98.9771 36.051 96.2317 37.08 93.1209C37.234 92.6533 37.2984 92.1199 37.8486 91.8959C37.906 91.9603 37.9634 92.0261 38.0208 92.0905C38.0194 92.2179 38.018 92.3439 38.0166 92.4713C37.8108 92.4867 37.6512 92.5819 37.5938 92.7807C37.1052 94.4593 36.1826 95.9517 35.5638 97.5743C34.6874 98.6663 33.8404 99.7807 33.1068 100.976C32.2738 101.655 31.5178 102.411 30.8388 103.244C29.6432 103.978 28.5288 104.825 27.4368 105.701C24.7418 107.405 21.7766 108.304 18.6364 108.734C15.3492 109.183 12.1502 108.839 9.003 107.842C8.7062 107.748 8.3814 107.685 8.1406 107.996C7.5778 107.681 7.092 107.275 6.6524 106.812Z" fill="#69CCE9"/>
<path d="M35.2614 103.065C32.3774 107.436 28.295 110.04 23.234 111.174C21.8242 111.49 20.392 111.675 18.9374 111.528C20 110.951 21.2194 110.975 22.3506 110.641C26.2608 109.487 29.8042 107.734 32.845 104.965C33.5926 104.286 34.2212 103.394 35.2614 103.065Z" fill="#46C0DB"/>
<path d="M18.5482 106.109C18.2612 106.723 17.6872 106.613 17.1776 106.643C12.4862 106.929 8.2078 105.664 4.2668 103.169C3.928 102.955 3.6088 102.826 3.2182 102.869C3.0978 102.675 2.976 102.481 2.8556 102.287C2.9634 102.159 3.0712 102.032 3.1804 101.905C3.6522 101.66 3.998 101.906 4.369 102.172C6.5796 103.762 9.0254 104.839 11.6896 105.382C13.3024 105.711 14.9432 105.962 16.5938 105.791C17.1062 105.738 17.578 105.697 18.0582 105.872C18.2206 105.952 18.3844 106.03 18.5482 106.109Z" fill="#80D2EF"/>
<path d="M32.7386 85.4797C32.7134 86.0201 32.5916 86.4541 32.1604 86.7831C32.103 86.7887 32.0456 86.7873 31.9882 86.7817C31.9728 86.6795 31.9574 86.5773 31.9406 86.4751C31.753 86.2329 31.5136 86.0957 31.5654 85.6561C31.9994 81.9517 30.7128 78.8311 28.2208 76.1403C28.05 75.9569 27.5852 75.7707 28.0696 75.4235C28.33 75.5677 28.5988 75.7007 28.8662 75.8337C28.8676 75.8351 28.869 75.8351 28.8704 75.8365C29.5592 76.2383 30.22 76.6821 30.8514 77.1637C30.8444 77.1707 30.8388 77.1763 30.8332 77.1819C30.8276 77.1875 30.822 77.1945 30.815 77.2015C30.8108 77.2057 30.8094 77.2071 30.808 77.2099C30.7968 77.2211 30.7884 77.2323 30.7814 77.2435C30.7716 77.2547 30.7632 77.2673 30.7576 77.2785C30.7506 77.2869 30.7464 77.2939 30.7422 77.3023C30.738 77.3121 30.7324 77.3205 30.7282 77.3303C30.7212 77.3429 30.717 77.3569 30.7114 77.3709C30.675 77.4731 30.6918 77.5697 30.7324 77.6593C30.7576 77.7153 30.7926 77.7685 30.8304 77.8203C30.8682 77.8707 30.9088 77.9211 30.948 77.9687C30.9662 77.9939 30.9858 78.0177 31.0026 78.0401C31.0194 78.0639 31.0348 78.0877 31.0474 78.1101C32.3438 80.4033 32.8562 82.8603 32.7386 85.4797Z" fill="#32ADDF"/>
<path d="M36.6194 100.437C36.0972 100.363 35.9236 100.876 35.7108 101.158C33.2734 104.416 30.178 106.854 26.5282 108.606C23.7324 109.949 20.763 110.667 17.6914 110.985C17.3064 111.026 16.941 111.047 16.6652 111.355C16.7492 111.381 16.8332 111.404 16.9172 111.425L18.5804 111.551H18.5818C18.7008 111.546 18.8184 111.538 18.9388 111.53C20.0014 110.953 21.2208 110.977 22.352 110.642C26.2636 109.49 29.807 107.736 32.8478 104.966C32.936 104.887 33.0228 104.803 33.1082 104.717C33.2552 104.572 33.3994 104.422 33.5464 104.273C33.5954 104.224 33.6444 104.174 33.6934 104.126C33.7508 104.069 33.8096 104.012 33.8698 103.957C33.9104 103.916 33.9538 103.879 33.9958 103.841C34.098 103.748 34.2044 103.659 34.315 103.575C34.3654 103.536 34.4172 103.498 34.469 103.461C34.5796 103.386 34.6944 103.316 34.8148 103.254C34.833 103.243 34.8526 103.235 34.8708 103.226C34.882 103.221 34.8946 103.215 34.9058 103.208C34.924 103.198 34.9436 103.19 34.9618 103.181C34.9716 103.177 34.98 103.173 34.9884 103.17C35.0094 103.16 35.029 103.152 35.0514 103.144C35.0682 103.137 35.085 103.131 35.1018 103.124C35.1046 103.123 35.106 103.123 35.1074 103.121C35.1564 103.103 35.2082 103.083 35.2614 103.067L36.6194 100.437Z" fill="#4AC4DE"/>
<path d="M37.7366 97.3475C37.6274 97.7647 37.5014 98.1735 37.3656 98.5767C37.3628 98.5781 37.3614 98.5809 37.3586 98.5809C37.3152 98.6089 37.2732 98.6397 37.234 98.6705C37.1906 98.7027 37.1486 98.7363 37.1094 98.7713C37.0688 98.8063 37.0296 98.8427 36.9918 98.8805C36.9596 98.9099 36.9288 98.9421 36.898 98.9743C36.8784 98.9953 36.8574 99.0177 36.8378 99.0415C36.8168 99.0625 36.7972 99.0849 36.7776 99.1087C36.7468 99.1451 36.716 99.1829 36.6866 99.2207C36.66 99.2543 36.6348 99.2879 36.6096 99.3229C36.604 99.3299 36.5984 99.3369 36.5928 99.3439C36.5872 99.3537 36.5802 99.3621 36.5746 99.3705C36.5718 99.3733 36.5704 99.3761 36.569 99.3789C36.5396 99.4209 36.5116 99.4615 36.4822 99.5035C35.246 101.374 33.7536 103.032 32.0904 104.521C30.4034 106.033 28.5204 107.295 26.4638 108.248C23.0674 109.82 19.5058 110.711 15.7328 110.618C15.3184 110.607 14.9306 110.725 14.5876 110.968C14.2208 110.876 13.8554 110.783 13.4886 110.69C13.3486 110.655 13.2086 110.618 13.07 110.583C13.0728 110.573 13.0742 110.565 13.0784 110.557C13.0896 110.522 13.1008 110.489 13.1148 110.46C13.1148 110.46 13.1148 110.459 13.1162 110.457C13.1218 110.445 13.1274 110.432 13.1344 110.421C13.1848 110.33 13.2492 110.275 13.322 110.244C13.3332 110.24 13.3444 110.235 13.3556 110.232C13.4298 110.207 13.5096 110.204 13.5936 110.208C13.672 110.212 13.7532 110.225 13.8316 110.235C13.8498 110.237 13.8708 110.239 13.889 110.242C13.9268 110.246 13.9646 110.247 13.9996 110.247H14.0108C16.0114 110.222 18.0022 110.236 19.9958 109.89C26.391 108.776 31.4226 105.504 35.3622 100.429C36.0174 99.5847 36.5592 98.6733 37.0842 97.7465C37.2844 97.3965 37.4062 97.2677 37.5686 97.2873C37.577 97.2887 37.5854 97.2901 37.5952 97.2915C37.6064 97.2943 37.6176 97.2971 37.6302 97.3013C37.6428 97.3055 37.6568 97.3111 37.6722 97.3167C37.6778 97.3195 37.6834 97.3209 37.6904 97.3251C37.7058 97.3321 37.7212 97.3391 37.7366 97.3475Z" fill="#55C7E1"/>
<path d="M0.371999 95.5611C0.0177982 94.2437 0.0401993 92.8983 0.0667993 91.5515C0.8452 91.3555 0.792002 92.3439 1.3548 92.4559C1.821 92.6267 2.3558 92.7331 2.4608 93.3337C2.6316 94.3137 3.4212 94.5013 4.187 94.7323C4.992 95.0221 5.5912 95.4757 5.5436 96.4431C5.5226 96.5537 5.503 96.6643 5.482 96.7749C5.3658 96.8547 5.2482 96.9345 5.132 97.0157C3.62 96.1883 2.024 95.5079 0.724802 94.3879C0.268401 94.7967 0.472799 95.2139 0.371999 95.5611Z" fill="#3566AA"/>
<path d="M38.1538 95.3651C38.0488 96.0371 37.9102 96.6993 37.7366 97.3461C37.7212 97.3377 37.7058 97.3307 37.6918 97.3237C37.6848 97.3195 37.6792 97.3181 37.6736 97.3153C37.6596 97.3097 37.6456 97.3041 37.6316 97.2999C37.619 97.2957 37.6064 97.2929 37.5966 97.2901C37.5868 97.2873 37.5784 97.2859 37.57 97.2859C37.4076 97.2663 37.2858 97.3951 37.0856 97.7451C36.5606 98.6719 36.0188 99.5833 35.3636 100.428C31.424 105.503 26.3924 108.774 19.9972 109.889C18.0036 110.236 16.0142 110.222 14.0122 110.246H14.001C13.966 110.246 13.9282 110.243 13.8904 110.24C13.8722 110.237 13.8512 110.236 13.833 110.233C13.7546 110.223 13.6734 110.211 13.595 110.207C13.511 110.202 13.4312 110.205 13.357 110.23C13.3458 110.235 13.3332 110.239 13.3234 110.243C13.2506 110.275 13.1862 110.33 13.1358 110.419C13.1302 110.431 13.1246 110.443 13.1176 110.456C13.1162 110.457 13.1162 110.459 13.1162 110.459C13.1022 110.488 13.0896 110.52 13.0798 110.555C13.0756 110.564 13.0742 110.573 13.0714 110.582C12.9552 110.531 12.839 110.481 12.7228 110.429C12.3252 110.256 11.9276 110.081 11.5286 109.907C11.747 109.572 12.0886 109.641 12.3868 109.686C16.3012 110.295 20.1204 109.887 23.8304 108.55C27.9268 107.075 31.3988 104.703 34.2086 101.333C35.5288 99.7485 36.5186 97.9817 37.5574 96.2289C37.738 95.9307 37.9522 95.6535 38.1538 95.3651Z" fill="#59C8E3"/>
<path d="M37.3642 98.5767C37.1472 99.2123 36.898 99.8339 36.618 100.437C36.0958 100.363 35.9222 100.876 35.7094 101.158C33.272 104.416 30.1766 106.854 26.5268 108.606C23.731 109.949 20.7616 110.667 17.69 110.985C17.305 111.026 16.9396 111.047 16.6638 111.355C16.5784 111.359 16.4944 111.359 16.4104 111.357C16.4076 111.357 16.4062 111.357 16.4034 111.356L14.9376 111.082C14.9348 111.08 14.932 111.08 14.9292 111.079C14.8144 111.044 14.6996 111.006 14.5876 110.968C14.9292 110.725 15.3184 110.607 15.7328 110.618C19.5044 110.711 23.0674 109.82 26.4638 108.248C28.5204 107.295 30.402 106.033 32.0904 104.521C33.7536 103.032 35.246 101.374 36.4822 99.5035C36.5102 99.4615 36.5382 99.4195 36.569 99.3789C36.5718 99.3761 36.5732 99.3733 36.5746 99.3705C36.5858 99.3537 36.5984 99.3383 36.6096 99.3215C36.6348 99.2865 36.6586 99.2515 36.6866 99.2193C36.716 99.1815 36.7468 99.1437 36.7776 99.1073C36.7972 99.0835 36.8168 99.0611 36.8378 99.0401C36.856 99.0163 36.8784 98.9939 36.898 98.9729C36.9288 98.9407 36.9596 98.9085 36.9918 98.8791C37.0296 98.8413 37.0702 98.8063 37.1094 98.7699C37.15 98.7363 37.1906 98.7013 37.234 98.6691C37.2746 98.6383 37.3152 98.6075 37.3586 98.5795C37.36 98.5795 37.3628 98.5781 37.3642 98.5767Z" fill="#50C6DF"/>
<path d="M33.5114 86.0943C33.4092 86.6123 33.2286 87.1905 33.482 87.7421C33.23 87.8849 32.978 87.9563 32.7218 87.7491C32.6616 87.5573 32.6 87.3655 32.5384 87.1737C32.4124 87.0421 32.2864 86.9133 32.159 86.7817C32.5902 86.4527 32.712 86.0187 32.7372 85.4783C32.8548 82.8603 32.3424 80.4019 31.0446 78.1073C31.032 78.0849 31.0166 78.0611 30.9998 78.0373C30.983 78.0149 30.9648 77.9911 30.9452 77.9659C30.906 77.9169 30.8654 77.8679 30.8276 77.8175C30.7898 77.7657 30.7548 77.7125 30.7296 77.6565C30.689 77.5669 30.6722 77.4717 30.7086 77.3681C30.7128 77.3541 30.7184 77.3415 30.7254 77.3275C30.7296 77.3177 30.7352 77.3093 30.7394 77.2995C30.7436 77.2911 30.7478 77.2841 30.7548 77.2757C30.7604 77.2645 30.7688 77.2519 30.7786 77.2407C30.787 77.2295 30.7954 77.2197 30.8052 77.2071C30.8066 77.2043 30.8094 77.2029 30.8122 77.1987C30.8234 77.1861 30.836 77.1721 30.8486 77.1595C31.4856 77.6467 32.0918 78.1745 32.6616 78.7359C32.6 79.2469 32.7554 79.7257 32.8954 80.2059C33.4568 82.1337 33.9174 84.0559 33.5114 86.0943Z" fill="#35A5DD"/>
<path d="M36.4696 84.0419C36.4444 84.1119 36.4206 84.1819 36.3996 84.2519C36.3772 84.3191 36.3576 84.3863 36.338 84.4549C36.3366 84.4577 36.3366 84.4591 36.3352 84.4633C36.3128 84.5417 36.2918 84.6201 36.2736 84.6999C36.247 84.8021 36.2246 84.9057 36.205 85.0093C36.1924 85.0751 36.1784 85.1423 36.1686 85.2081C36.1518 85.2977 36.1378 85.3873 36.1252 85.4769C36.114 85.5539 36.1042 85.6309 36.0944 85.7079C36.0846 85.7877 36.0762 85.8689 36.0678 85.9487C36.0636 85.9949 36.058 86.0425 36.0552 86.0887C36.051 86.1377 36.0468 86.1839 36.044 86.2329C36.037 86.3281 36.03 86.4247 36.0244 86.5213C36.016 86.6795 36.0076 86.8391 36.002 86.9973C35.9992 87.0687 35.9978 87.1429 35.995 87.2157C35.981 87.6581 35.974 88.1019 35.9558 88.5443C35.232 89.4809 35.1928 90.6205 35.022 91.7209C34.9156 91.8777 34.8218 92.0471 34.6132 92.0905C34.3388 91.6159 34.448 90.9999 34.0546 90.5701C34.0504 90.3867 34.0476 90.2033 34.0434 90.0185C35.2012 88.0557 35.351 85.9011 35.253 83.6947C35.2404 83.3979 35.1284 83.0829 35.1284 82.7833C35.1284 82.7553 35.1298 82.7273 35.1326 82.6993C35.1326 82.6909 35.134 82.6811 35.1354 82.6727V82.6671C35.1382 82.6475 35.1396 82.6265 35.1438 82.6083C35.1466 82.5971 35.148 82.5845 35.1508 82.5747C35.155 82.5607 35.1578 82.5481 35.162 82.5341C35.1662 82.5201 35.1704 82.5075 35.1746 82.4935C35.1788 82.4781 35.1858 82.4627 35.1928 82.4459C35.1984 82.4305 35.2054 82.4151 35.2138 82.3997C35.225 82.3787 35.2362 82.3577 35.2502 82.3353C35.2586 82.3227 35.267 82.3087 35.2768 82.2961C35.2866 82.2835 35.295 82.2695 35.3062 82.2569C35.3174 82.2443 35.3272 82.2317 35.3398 82.2191C35.351 82.2079 35.3636 82.1939 35.3748 82.1827C35.3874 82.1701 35.4014 82.1561 35.4154 82.1463C35.8018 82.7567 36.1532 83.3895 36.4696 84.0419Z" fill="#3992CF"/>
<path d="M0.371999 95.5611C0.472799 95.2139 0.268401 94.7967 0.724802 94.3879C2.02401 95.5079 3.62001 96.1883 5.13341 97.0157C4.93461 97.5603 4.83661 98.1189 4.92621 98.6999C4.87721 98.7209 4.83101 98.7433 4.78481 98.7713C4.76241 98.4409 4.74001 98.1105 4.71761 97.7661C4.45021 97.8557 4.65741 98.2463 4.26821 98.2589C3.50661 97.8291 2.57841 97.6233 1.7958 97.0675C1.3982 96.7847 0.825601 96.4809 0.768201 97.4189C0.5064 96.8267 0.370599 96.2079 0.371999 95.5611Z" fill="#365CA8"/>
<path d="M35.4154 82.1477C35.4014 82.1589 35.3888 82.1715 35.3748 82.1841C35.3636 82.1953 35.351 82.2093 35.3398 82.2205C35.3286 82.2331 35.3174 82.2457 35.3062 82.2583C35.295 82.2709 35.2866 82.2849 35.2768 82.2975C35.267 82.3101 35.2586 82.3241 35.2502 82.3367C35.2362 82.3577 35.2236 82.3787 35.2138 82.4011C35.2054 82.4165 35.1984 82.4319 35.1928 82.4473C35.1872 82.4641 35.1802 82.4795 35.1746 82.4949C35.1704 82.5089 35.1648 82.5215 35.162 82.5355C35.1592 82.5495 35.155 82.5621 35.1508 82.5761C35.148 82.5873 35.1466 82.5985 35.1438 82.6097C35.1396 82.6279 35.1382 82.6489 35.1354 82.6685V82.6741C35.134 82.6825 35.1326 82.6923 35.1326 82.7007C35.1298 82.7273 35.1284 82.7567 35.1284 82.7847C35.127 83.0829 35.239 83.3993 35.253 83.6961C35.351 85.9025 35.2012 88.0557 34.0434 90.0199C33.783 89.6895 33.664 89.3101 33.6626 88.8915C33.5282 88.2587 34.1246 87.8737 34.2044 87.3305C34.441 85.7177 34.5306 84.1077 34.3052 82.4725C34.2128 81.8089 33.7774 81.1215 34.182 80.4229C34.6244 80.9731 35.036 81.5485 35.4154 82.1477Z" fill="#3998D4"/>
<path d="M5.92018 79.4667C4.62659 81.5401 4.0036 83.8011 3.9924 86.2372C3.6438 86.3674 3.4884 86.8196 3.0502 86.8C3.018 85.5428 3.032 84.2884 3.3232 83.0578C3.417 82.6602 3.5598 82.2681 3.2574 81.8971C4.0302 80.6777 4.93739 79.5759 6.06158 78.6631C6.42138 78.9991 6.06438 79.2371 5.92018 79.4667Z" fill="#BDE5F0"/>
<path d="M34.2058 87.3305C34.126 87.8751 33.5296 88.2587 33.664 88.8915C33.377 88.5443 33.5324 88.1271 33.4806 87.7435C33.2272 87.1919 33.4078 86.6137 33.51 86.0957C33.916 84.0573 33.4554 82.1351 32.8968 80.2101C32.7582 79.7299 32.6014 79.2511 32.663 78.7401C33.202 79.2707 33.7102 79.8321 34.1834 80.4243C33.7788 81.1229 34.2142 81.8103 34.3066 82.4739C34.532 84.1077 34.4424 85.7177 34.2058 87.3305Z" fill="#369FD9"/>
<path d="M0.7682 97.4175C0.8256 96.4795 1.3996 96.7833 1.7958 97.0661C2.5784 97.6234 3.5066 97.8292 4.2682 98.2576C4.6574 98.245 4.4502 97.8543 4.7176 97.7647C4.7414 98.1092 4.7624 98.4396 4.7848 98.77C4.7498 99.1172 4.7134 99.4644 4.6784 99.8102C4.4474 99.9306 4.3648 100.321 3.9938 100.187C3.3582 99.3496 2.0688 98.8414 1.3212 99.1326C1.0202 98.5992 0.8298 98.0294 0.7682 97.4175Z" fill="#3454A4"/>
<path d="M3.3232 83.0578C3.0334 84.2898 3.0194 85.5442 3.0502 86.8C2.7842 87.108 2.36281 86.6361 2.10521 86.9875C1.82661 87.1877 1.4934 87.0057 1.1868 87.0057C1.1686 87.0057 1.1518 87.0071 1.135 87.0085C1.1182 87.0099 1.1014 87.0113 1.086 87.0141C1.072 87.0155 1.0594 87.0183 1.044 87.0225C1.0328 87.0253 1.023 87.0267 1.0118 87.0309C1.0006 87.0351 0.987999 87.0393 0.975399 87.0449C0.965599 87.0491 0.957202 87.0519 0.947402 87.0575C0.937602 87.0617 0.929201 87.0659 0.920801 87.0701C0.884401 87.0911 0.848001 87.1191 0.811601 87.1541C0.8032 87.1611 0.7962 87.1681 0.7892 87.1765V87.1751C0.912401 86.7117 1.0538 86.2553 1.2148 85.8087C1.219 85.7975 1.2232 85.7835 1.2274 85.7709C1.2694 85.6575 1.3114 85.5427 1.3562 85.4307C1.3856 85.3537 1.4164 85.2767 1.4486 85.2011C1.4752 85.1339 1.5046 85.0667 1.53261 84.9995C1.53261 84.9967 1.5326 84.9953 1.5354 84.9925C1.5396 84.9785 1.5466 84.9659 1.5536 84.9505C1.5802 84.8861 1.60961 84.8203 1.63761 84.7559C2.08001 83.7563 2.62181 82.8029 3.25742 81.8929C3.55982 82.2681 3.417 82.6602 3.3232 83.0578Z" fill="#B4E2EF"/>
<path d="M1.3212 99.1339C2.0688 98.8413 3.3582 99.3495 3.9938 100.188C3.9336 100.208 3.8748 100.229 3.816 100.251C2.9004 100.533 3.6158 101.441 3.179 101.907C3.0712 102.035 2.9634 102.162 2.8542 102.29C2.1934 101.31 1.611 100.293 1.3212 99.1339Z" fill="#334C9F"/>
<path d="M22.0986 74.9125C21.0416 74.7753 19.9846 74.6395 18.9262 74.5037C18.7344 74.2363 18.4348 74.3665 18.1856 74.3091C18.0918 74.1131 18.3242 74.0921 18.3592 73.9675C18.4684 73.8779 18.642 73.8289 18.5384 73.5475H17.025C18.6098 73.276 20.1932 73.2466 21.7752 73.5629C21.5666 73.5769 21.358 73.5909 21.148 73.6063C21.2264 74.2531 22.1084 74.2489 22.0986 74.9125Z" fill="#B9E4EF"/>
<path d="M37.3936 86.3015C37.3768 86.3239 37.36 86.3463 37.3446 86.3673C37.3264 86.3897 37.3096 86.4121 37.2928 86.4345C37.2816 86.4485 37.2704 86.4625 37.2592 86.4765C37.2438 86.4947 37.2298 86.5143 37.2172 86.5325V86.5339C37.2032 86.5521 37.1906 86.5731 37.1808 86.5913C37.1752 86.6011 37.1696 86.6095 37.164 86.6193C37.1584 86.6291 37.1542 86.6375 37.1514 86.6473C37.1416 86.6683 37.1346 86.6893 37.1304 86.7103C37.1276 86.7173 37.1262 86.7243 37.1262 86.7313C37.1234 86.7453 37.1234 86.7607 37.1248 86.7747C37.1822 87.4145 36.7622 87.6847 36.3254 87.9647C36.2022 88.1565 36.079 88.3511 35.9558 88.5443C35.974 88.1019 35.981 87.6581 35.995 87.2157C35.9978 87.1429 35.9992 87.0687 36.002 86.9973C36.0076 86.8377 36.016 86.6781 36.0244 86.5213C36.03 86.4261 36.037 86.3295 36.044 86.2329C36.0482 86.1839 36.051 86.1377 36.0552 86.0887C36.0594 86.0411 36.0636 85.9949 36.0678 85.9487C36.0762 85.8689 36.0846 85.7877 36.0944 85.7079C36.1042 85.6309 36.114 85.5539 36.1252 85.4769C36.1378 85.3873 36.1518 85.2977 36.1686 85.2081C36.1798 85.1423 36.1924 85.0751 36.205 85.0093C36.2246 84.9071 36.247 84.8035 36.2736 84.6999C36.2918 84.6215 36.3142 84.5417 36.3352 84.4633C36.3366 84.4591 36.3366 84.4577 36.338 84.4549C36.3562 84.3863 36.3772 84.3191 36.3996 84.2519C36.4206 84.1805 36.4444 84.1119 36.4696 84.0419C36.8238 84.7713 37.1332 85.5245 37.3936 86.3015Z" fill="#398ACA"/>
<path d="M1.3548 92.4559C0.793406 92.3453 0.845194 91.3597 0.070999 91.5515L0.0667992 91.5529C0.089199 90.7913 0.145199 90.0325 0.303398 89.2919C0.374798 88.9559 0.465795 88.6227 0.586195 88.2937C0.574995 88.8285 0.548396 89.3689 1.16019 89.6349C1.20079 90.2943 1.42339 90.9173 1.72859 91.4773C2.03659 92.0359 1.7608 92.2389 1.3548 92.4559Z" fill="#A4DCEE"/>
<path d="M2.29421 87.7449C2.22981 87.8695 2.16681 87.9969 2.10241 88.1215C1.56481 88.0879 1.32541 88.3413 1.34361 88.8789C1.35201 89.1407 1.42199 89.4333 1.16019 89.6349C0.548389 89.3689 0.573595 88.8285 0.586195 88.2937C0.465794 88.6227 0.373398 88.9559 0.303398 89.2919C0.499399 88.0907 0.806002 86.9259 1.2162 85.8115C1.0552 86.2581 0.912406 86.7145 0.790606 87.1779V87.1793C0.797606 87.1709 0.804606 87.1639 0.813006 87.1569C0.848006 87.1219 0.884406 87.0939 0.922206 87.0729C0.932006 87.0687 0.940407 87.0631 0.948807 87.0603C0.958607 87.0547 0.967004 87.0491 0.976804 87.0477C0.989405 87.0421 1.00201 87.0365 1.01321 87.0337C1.02441 87.0295 1.0342 87.0281 1.0454 87.0253C1.0594 87.0211 1.07201 87.0183 1.08741 87.0169C1.10421 87.0127 1.12101 87.0127 1.13641 87.0113C1.15461 87.0099 1.17001 87.0085 1.18821 87.0085C1.49481 87.0071 1.82801 87.1905 2.10661 86.9903C2.38241 87.1877 2.26761 87.4831 2.29421 87.7449Z" fill="#A6DDEE"/>
<path d="M0.790604 87.1765C0.797603 87.1681 0.804604 87.1611 0.813004 87.1555C0.804604 87.1625 0.797603 87.1695 0.790604 87.1765Z" fill="#9EDBEF"/>
<path d="M18.3578 73.9675C18.0246 73.8149 17.6872 73.9507 17.3526 73.9451C17.0684 73.9395 16.6862 74.0613 16.6526 73.5671C16.7758 73.5601 16.899 73.5545 17.0236 73.5475H18.537C18.6406 73.8289 18.467 73.8779 18.3578 73.9675Z" fill="#7BBACB"/>
<path d="M35.5596 97.5729C36.1784 95.9503 37.101 94.4565 37.5896 92.7793C37.647 92.5805 37.808 92.4853 38.0124 92.4699C37.3796 93.8951 36.9428 95.4043 36.1518 96.7609C35.9838 97.0521 35.9194 97.4203 35.5596 97.5729Z" fill="#69CCE8"/>
<path d="M27.4326 105.7C28.5246 104.824 29.639 103.977 30.8346 103.243C29.905 104.345 28.7556 105.143 27.4326 105.7Z" fill="#69CCE8"/>
<path d="M33.1026 100.975C33.8362 99.7793 34.6832 98.6649 35.5596 97.5729C35.0024 98.8959 34.2044 100.045 33.1026 100.975Z" fill="#69CCE8"/>
<path d="M30.8346 103.243C31.5136 102.41 32.2696 101.654 33.1026 100.975C32.572 101.956 31.816 102.712 30.8346 103.243Z" fill="#69CCE8"/>
<path d="M37.0758 88.4939C37.521 89.0497 37.3544 89.8491 37.8318 90.3923C37.2914 90.0745 37.1668 90.4721 37.0898 90.8557C36.8322 92.1213 36.4346 93.3463 35.9124 94.5195C34.9394 96.7049 33.8166 98.8035 31.9686 100.408C32.0694 99.7821 32.2276 99.1605 32.1604 98.5179C32.5216 98.7755 32.7036 98.5585 32.8912 98.2687C33.3294 97.5911 33.8684 96.9653 34.2142 96.2457C34.8414 94.9395 35.8844 93.7229 35.372 92.0919C35.6688 92.0205 35.6716 92.4083 35.8312 92.4447C36.5256 91.1889 36.3996 89.7231 37.0758 88.4939Z" fill="#79D0ED"/>
<path d="M31.9672 100.408C33.8152 98.8021 34.938 96.7049 35.911 94.5195C36.4332 93.3463 36.8322 92.1213 37.0884 90.8557C37.1668 90.4721 37.29 90.0745 37.8304 90.3923C37.8346 90.8935 37.8402 91.3933 37.8444 91.8945C37.2942 92.1185 37.2312 92.6519 37.0758 93.1195C36.0482 96.2303 34.4102 98.9757 32.1562 101.353C32.0694 101.044 31.5108 100.828 31.9672 100.408Z" fill="#6FCDEB"/>
<path d="M37.0758 88.4939C36.3996 89.7231 36.5256 91.1889 35.8312 92.4447C35.6716 92.4083 35.6688 92.0205 35.372 92.0919C35.2558 91.9687 35.1396 91.8455 35.0234 91.7223C35.1928 90.6219 35.2334 89.4837 35.9558 88.5457C36.079 88.3525 36.2022 88.1593 36.3254 87.9661C36.7454 87.9003 37.0226 88.0389 37.0758 88.4939Z" fill="#7DD1EE"/>
<path d="M15.3366 96.439C14.1466 96.9654 13.0504 96.4488 12.0032 96.0344C8.1588 94.514 5.7662 91.637 5.1936 87.5966C4.5818 83.2734 6.098 79.6361 9.745 77.0349C10.0194 76.8389 10.2966 76.7297 10.3232 76.2747C10.347 75.8687 10.907 75.6475 11.1842 75.7371C12.0998 76.0339 12.8264 75.4431 13.6496 75.3591C14.4812 75.2751 15.3296 75.0315 16.0912 75.6139C15.688 75.6503 15.352 75.8603 15.0006 76.0325C14.3594 76.2775 13.6006 76.2061 13.0714 76.7507C12.881 76.7479 12.6906 76.7451 12.5002 76.7423C12.0648 76.4259 11.6672 76.6359 11.2682 76.8277C6.8372 78.9585 4.6476 84.0672 5.9944 88.662C7.169 92.6688 9.8696 95.1426 13.9856 96.0274C14.442 96.1296 15.03 95.83 15.3366 96.439Z" fill="#CCEAF1"/>
<path d="M4.1828 87.5531C4.4684 88.7067 4.7624 89.8589 5.3056 90.9243C7.1928 94.6273 10.1468 96.9135 14.2852 97.5211C14.8564 97.6051 15.66 98.0055 16.1122 97.1529C16.1584 97.1865 16.2074 97.2159 16.2578 97.2411C16.3292 97.6653 16.4006 98.0895 16.472 98.5137C16.115 98.5725 15.751 98.7097 15.4024 98.6761C11.8786 98.3485 8.7762 97.0871 6.3976 94.3823C4.7764 92.5399 3.634 90.4455 3.4296 87.9339C3.7572 87.9577 3.9224 87.6623 4.1828 87.5531Z" fill="#BEE5F0"/>
<path d="M15.3366 96.439C15.03 95.83 14.442 96.1282 13.9842 96.0302C9.8682 95.1453 7.1676 92.6716 5.993 88.6647C4.6462 84.0699 6.8358 78.9599 11.2668 76.8305C11.6658 76.6387 12.0648 76.4287 12.4988 76.7451C11.9864 76.9649 12.3798 77.2883 12.4036 77.5697C12.1264 77.5613 11.8492 77.5529 11.572 77.5445C10.6368 77.6943 9.9032 78.1941 9.22 78.8241C7.3286 80.5657 6.3038 82.7609 6.1162 85.2683C5.9804 87.0897 6.1638 88.9363 7.47 90.4651C7.652 90.2383 7.5246 89.9584 7.7472 89.8212C8.0734 91.3766 8.8546 92.6198 10.2336 93.4528C10.6816 94.087 11.3074 94.4509 12.0158 94.7491C12.979 95.1537 13.9828 95.3105 14.9992 95.4421C15.1658 95.6591 15.3338 95.8775 15.5004 96.0946C15.5046 96.1492 15.5116 96.2023 15.52 96.2555C15.4598 96.3186 15.3982 96.3788 15.3366 96.439Z" fill="#CDEBF1"/>
<path d="M15.5228 96.2583C15.5144 96.2051 15.5088 96.1505 15.5032 96.0973C15.8742 95.9153 16.2144 96.0931 16.5616 96.1897C18.593 96.7525 20.6356 96.8113 22.6642 96.2191C23.7058 95.9153 24.7152 95.5009 25.7386 95.1369C25.7372 95.1929 25.7316 95.2475 25.7218 95.3021C25.0708 95.6143 24.9994 96.3451 24.6088 96.8449C24.4072 96.6083 24.1846 96.7959 24.011 96.8589C21.848 97.6415 19.6444 97.7479 17.3778 97.4343C17.004 97.3825 16.6666 97.0311 16.255 97.2439C16.2046 97.2187 16.1556 97.1893 16.1094 97.1557C16.129 96.7133 15.8546 96.4669 15.5228 96.2583Z" fill="#3D8FCD"/>
<path d="M14.9992 76.034C15.3506 75.8618 15.6866 75.6517 16.0898 75.6153C16.9704 75.0805 17.9014 74.6731 18.9262 74.5037C19.9846 74.6395 21.0416 74.7767 22.0986 74.9139C22.1168 75.0245 22.135 75.1337 22.1532 75.2443C22.086 75.3158 22.0188 75.3885 21.9502 75.46C21.008 75.9948 19.9818 76.265 18.9164 76.4092C18.1492 76.272 18.6854 75.8128 18.7708 75.3816C18.3298 75.5874 17.998 75.7428 17.669 75.8968C17.9364 76.755 17.4716 77.2198 16.4426 77.1736C16.4454 76.7214 16.402 76.3364 15.7804 76.6304C15.1546 76.9258 15.0454 76.5156 14.9992 76.034Z" fill="#3DC4EA"/>
<path d="M4.1828 87.5531C3.9224 87.6623 3.7558 87.9578 3.4282 87.9354C3.0278 87.9984 2.6722 87.808 2.2928 87.7436C2.2662 87.4832 2.381 87.1864 2.1038 86.9876C2.3614 86.6362 2.7828 87.108 3.0488 86.8C3.487 86.8196 3.6424 86.3673 3.991 86.2371C4.0554 86.6768 4.1198 87.1149 4.1828 87.5531Z" fill="#A6DDEE"/>
<path d="M18.5482 106.109C18.3844 106.03 18.2206 105.952 18.0568 105.875C18.0918 105.322 17.739 104.888 17.5962 104.39C17.9826 104.083 18.3774 104.009 18.887 104.121C19.391 104.231 19.965 104.252 20.4592 104.124C21.0332 103.974 21.4882 104.052 21.946 104.37C21.5078 104.835 21.19 105.426 20.5544 105.679C19.9342 106.043 19.1726 105.759 18.5482 106.109Z" fill="#3463AE"/>
<path d="M20.5544 105.676C21.19 105.423 21.5092 104.832 21.946 104.367C22.24 104.296 22.3464 104.096 22.3268 103.81C22.6376 104.24 22.9974 104.231 23.4538 104.016C24.0866 103.716 24.6536 103.24 25.404 103.228C25.5132 103.31 25.621 103.393 25.7302 103.475C25.943 103.796 25.7162 103.909 25.4782 104.038C23.934 104.875 22.3772 105.673 20.5544 105.676Z" fill="#83D3EF"/>
<path d="M31.9672 100.408C31.5094 100.828 32.0694 101.044 32.1576 101.353C32.0218 101.576 31.7978 101.536 31.5892 101.543C31.4632 101.482 31.3358 101.419 31.2098 101.357C30.9158 101.182 30.6638 100.898 30.2662 100.981C30.1402 100.853 30.0142 100.726 29.8896 100.598C29.8868 100.538 29.8854 100.477 29.8854 100.416C30.3222 99.4237 31.2126 98.8455 31.9658 98.1427C32.0302 98.2673 32.0946 98.3933 32.1604 98.5179C32.2276 99.1619 32.068 99.7821 31.9672 100.408Z" fill="#55C9F3"/>
<path d="M29.8854 100.415C29.8868 100.475 29.8882 100.537 29.8896 100.597C29.3548 101.415 28.5316 101.917 27.7714 102.476C27.5488 102.64 27.2142 103.088 26.832 102.614C26.8572 102.313 26.8544 102.005 27.0686 101.756C27.4312 101.298 27.4046 100.652 27.8204 100.219C28.106 100.03 28.4266 100.013 28.7542 100.026C29.0902 100.279 29.4402 100.486 29.8854 100.415Z" fill="#84D3EE"/>
<path d="M27.07 101.756C26.8558 102.005 26.8586 102.313 26.8334 102.614C26.5758 103.043 26.3392 103.496 25.7302 103.474C25.621 103.391 25.5132 103.309 25.404 103.226C25.5762 102.904 25.3788 102.605 25.3452 102.295C25.4684 102.089 25.6056 101.902 25.88 101.902C26.2636 101.748 26.566 100.929 27.07 101.756Z" fill="#517386"/>
<path d="M30.4678 85.3145C30.4636 85.6407 30.4076 85.9109 30.1864 86.1209C30.157 86.1517 30.122 86.1811 30.0828 86.2077L30.0814 86.2091C29.7566 86.2455 29.5718 85.9837 29.324 85.8535C29.3268 85.7905 29.3268 85.7289 29.3226 85.6645C29.1014 85.4433 29.0104 85.1773 28.9096 84.8721C28.6436 84.0741 28.8816 83.2481 28.6646 82.4585C27.784 79.2455 25.824 77.0461 22.6404 75.9681C22.3772 75.8799 21.974 75.9037 21.953 75.4571C22.0202 75.3857 22.0874 75.3129 22.1546 75.2415H22.156C23.2774 74.9881 24.403 74.8047 25.558 74.8803C25.3144 75.0147 25.0568 75.1155 24.7306 75.0903C27.651 76.9607 29.7342 79.3127 30.2746 82.7889C30.4034 83.6289 30.4748 84.4647 30.4678 85.3145Z" fill="#37C0E9"/>
<path d="M29.324 85.8535C29.5704 85.9837 29.7566 86.2455 30.0814 86.2077C30.661 86.5759 31.3344 86.2973 31.9406 86.4737C31.956 86.5759 31.9714 86.6781 31.9868 86.7803C31.4688 87.0771 32.1324 88.0557 31.214 88.1215C31.3218 88.8075 31.2868 89.4207 30.4538 89.6335C30.2354 89.4725 30.2998 89.2779 30.3558 89.0567C30.4832 88.5541 30.5938 88.0431 30.2872 87.5559C30.3446 86.7104 29.3156 86.6851 29.1308 86.0229C29.1952 85.9683 29.2596 85.9109 29.324 85.8535Z" fill="#A7DDEE"/>
<path d="M17.5976 104.388C17.739 104.887 18.0918 105.321 18.0582 105.874C17.5766 105.699 17.1062 105.739 16.5938 105.792C14.9432 105.963 13.3038 105.713 11.6896 105.384C9.0254 104.84 6.5796 103.764 4.369 102.173C3.9994 101.907 3.6536 101.661 3.1804 101.906C3.6158 101.44 2.9018 100.531 3.8174 100.25C6.8624 103.006 10.5332 104.301 14.5386 104.716C15.4906 104.815 16.549 105.05 17.4324 104.335C17.487 104.353 17.5416 104.371 17.5976 104.388Z" fill="#89D4EE"/>
<path d="M31.214 88.1229C32.1338 88.0571 31.4688 87.0785 31.9868 86.7817C32.0442 86.7887 32.1016 86.7887 32.159 86.7831C32.285 86.9133 32.4124 87.0435 32.5384 87.1751C32.3368 87.3067 32.3032 87.5139 32.2402 87.7309C32.0792 88.2825 31.7502 88.5009 31.214 88.1229Z" fill="#7DD1EB"/>
<path d="M16.6792 99.2795C16.5336 99.5301 16.3908 99.7793 16.2466 100.027C16.0352 99.7009 15.73 99.6477 15.3576 99.6435C12.7536 99.6197 10.3988 98.8133 8.2302 97.3825C7.4644 96.8771 6.7812 96.2625 6.1638 95.7515C5.6738 95.8859 6.2324 96.5929 5.545 96.4417C5.5926 95.4757 4.9934 95.0221 4.1884 94.7323C4.3354 94.6287 4.4852 94.5251 4.6434 94.4131C3.375 92.4867 2.3026 90.4777 2.1038 88.1201C2.1682 87.9955 2.2312 87.8681 2.2956 87.7435C2.675 87.8079 3.0306 87.9969 3.431 87.9353C3.6354 90.4455 4.7778 92.5399 6.399 94.3823C8.7776 97.0871 11.8814 98.3485 15.4038 98.6761C15.7524 98.7083 16.1164 98.5711 16.4734 98.5137C16.5252 98.5319 16.577 98.5501 16.6288 98.5641C16.6442 98.8035 16.661 99.0415 16.6792 99.2795Z" fill="#B4E2EF"/>
<path d="M5.5436 96.4431C6.231 96.5943 5.6724 95.8859 6.1624 95.7529C6.7798 96.2639 7.463 96.8785 8.2288 97.3839C10.3974 98.8134 12.7522 99.6198 15.3562 99.645C15.7272 99.6478 16.0324 99.7038 16.2452 100.029C16.2578 100.093 16.269 100.156 16.2816 100.22C16.206 100.408 16.1304 100.597 16.0548 100.785C15.9778 100.915 15.8994 101.044 15.9554 100.951C11.9234 100.776 8.4332 99.4112 5.482 96.7763C5.503 96.6643 5.524 96.5537 5.5436 96.4431Z" fill="#AFE0EF"/>
<path d="M5.4834 96.7749C8.4346 99.4097 11.9248 100.776 15.9568 100.95C15.9008 101.042 15.9792 100.913 16.0562 100.783C16.073 101.028 16.0912 101.272 16.108 101.517C15.7958 101.818 15.3912 101.958 14.9922 101.902C13.2002 101.653 11.425 101.366 9.72679 100.65C8.07479 99.9529 6.6272 98.9659 5.2006 97.8431C5.0718 98.1749 5.2258 98.5067 4.9556 98.7083L4.92619 98.6985C4.83659 98.1175 4.9346 97.5603 5.1334 97.0143C5.2496 96.9359 5.3658 96.8547 5.4834 96.7749Z" fill="#A5DDEF"/>
<path d="M4.642 94.4132C4.4824 94.5252 4.334 94.6287 4.187 94.7323C3.4212 94.5013 2.6302 94.3138 2.4594 93.3324C2.3558 92.7303 1.8196 92.6254 1.3548 92.4546C1.7608 92.2375 2.0352 92.0346 1.7286 91.4745C1.4234 90.9159 1.1994 90.2915 1.1602 89.6321C1.4234 89.4305 1.352 89.1379 1.3436 88.8761C1.3254 88.3385 1.5648 88.0851 2.1024 88.1187C2.3012 90.4791 3.3736 92.4867 4.642 94.4132Z" fill="#AADFEF"/>
<path d="M31.214 88.1229C31.7502 88.5009 32.0792 88.2825 32.2402 87.7309C32.3032 87.5139 32.3368 87.3067 32.5384 87.1751C32.6 87.3669 32.6602 87.5587 32.7218 87.7519C32.39 88.6073 32.5398 89.6013 31.9672 90.3881C31.8412 90.7675 31.9644 91.2295 31.5864 91.5249C31.4632 91.5879 31.34 91.6509 31.2168 91.7139C30.8668 91.4549 30.4762 91.4493 30.0716 91.5277C30.1612 90.8893 30.5756 90.3167 30.4538 89.6363C31.2868 89.4221 31.3218 88.8075 31.214 88.1229Z" fill="#A1DCEF"/>
<path d="M31.9672 90.3867C32.5398 89.5999 32.39 88.6073 32.7218 87.7505C32.9766 87.9563 33.23 87.8863 33.4806 87.7435C33.5324 88.1271 33.377 88.5443 33.664 88.8915C33.6668 89.3101 33.7844 89.6895 34.0448 90.0199C34.0476 90.2033 34.0518 90.3867 34.0546 90.5701C33.7998 90.8893 33.545 91.2085 33.2902 91.5277C32.6084 91.4283 32.7078 90.4189 31.9672 90.3867Z" fill="#95D8EE"/>
<path d="M32.1604 98.5179C32.096 98.3933 32.0316 98.2673 31.9658 98.1427C31.9042 98.0153 31.8412 97.8894 31.7796 97.762C32.747 96.9094 33.2776 95.8006 33.7914 94.5518C33.2734 94.5518 32.9038 94.5518 32.5328 94.5518C32.2584 94.5518 31.9826 94.5532 31.9672 94.171V94.1695C32.3452 94.1079 32.7022 93.9133 33.1012 93.9791C33.44 94.7687 34.0994 94.1499 34.1288 93.9973C34.2548 93.3505 34.8876 92.8255 34.6146 92.0919C34.8218 92.0485 34.917 91.8791 35.0234 91.7223C35.1396 91.8455 35.2558 91.9687 35.372 92.0919C35.8844 93.7243 34.8414 94.9395 34.2142 96.2457C33.8684 96.9653 33.328 97.5911 32.8912 98.2687C32.7036 98.5585 32.5216 98.7755 32.1604 98.5179Z" fill="#80D2EE"/>
<path d="M34.616 92.0919C34.889 92.8255 34.2562 93.3505 34.1302 93.9973C34.1008 94.1513 33.4414 94.7701 33.1026 93.9791C32.9416 93.7523 33.4694 93.3519 32.9122 93.2245C33.3602 92.9781 33.7088 92.6519 33.7928 92.0933C33.72 91.8371 33.2384 91.9085 33.2916 91.5263C33.5464 91.2071 33.8012 90.8879 34.056 90.5687C34.4494 91.0013 34.3402 91.6173 34.616 92.0919Z" fill="#89D4EE"/>
<path d="M4.6784 99.8115C4.7134 99.4643 4.74981 99.1171 4.78481 98.7713C4.82961 98.7447 4.87721 98.7209 4.92621 98.6999L4.9556 98.7097C4.8688 99.4335 5.5352 98.9995 5.8166 99.2459C7.5162 100.731 9.56161 101.622 11.7246 102.171C13.3332 102.578 14.9824 102.999 16.6652 102.467C16.787 102.668 16.9088 102.869 17.0306 103.069C17.0376 103.306 17.0446 103.544 17.0516 103.781C16.5644 103.6 16.0562 103.604 15.5494 103.624C14.4182 103.669 13.3122 103.527 12.2006 103.306C9.40341 102.75 6.9744 101.431 4.6784 99.8115Z" fill="#98D9EE"/>
<path d="M4.6784 99.8115C6.9744 101.431 9.40341 102.75 12.2006 103.306C13.3122 103.527 14.4182 103.667 15.5494 103.624C16.0576 103.604 16.5644 103.6 17.0516 103.781C17.1776 103.967 17.305 104.152 17.431 104.338C16.5476 105.053 15.4906 104.818 14.5372 104.719C10.5318 104.303 6.861 103.009 3.816 100.253C3.8748 100.23 3.9336 100.209 3.9938 100.19C4.3648 100.321 4.4474 99.9305 4.6784 99.8115Z" fill="#91D7EE"/>
<path d="M14.9992 76.034C15.044 76.5156 15.1546 76.9257 15.7818 76.6289C16.4034 76.3349 16.4468 76.7199 16.444 77.1721C16.2998 77.2659 16.2858 77.4101 16.2886 77.5627C16.269 77.5865 16.2522 77.6187 16.227 77.6313C16.2032 77.6439 16.1654 77.6425 16.1402 77.6327C15.7076 77.4815 16.2438 77.0769 15.8812 76.8151C15.499 77.7419 14.6562 77.9953 13.8386 78.2893C13.5824 77.7769 13.3262 77.2659 13.0714 76.7535C13.6006 76.2075 14.358 76.279 14.9992 76.034Z" fill="#D3EDF3"/>
<path d="M13.07 76.7521C13.3262 77.2645 13.5824 77.7756 13.8372 78.2879C13.707 78.3411 13.5754 78.3929 13.4452 78.4461C13.049 78.4909 12.6528 78.5371 12.2888 78.5791C12.167 78.1689 12.769 78.0219 12.4988 77.6313C12.4666 77.6117 12.4358 77.5907 12.405 77.5683C12.3798 77.2869 11.9878 76.9635 12.4988 76.7437C12.6906 76.7465 12.881 76.7493 13.07 76.7521Z" fill="#3EC5EB"/>
<path d="M16.6274 98.5655C16.5742 98.5515 16.5224 98.5333 16.472 98.5137C16.4006 98.0895 16.3292 97.6653 16.2578 97.2411C16.668 97.0283 17.0068 97.3797 17.3806 97.4315C19.6472 97.7451 21.8508 97.6387 24.0138 96.8561C24.1874 96.7931 24.41 96.6069 24.6116 96.8421C24.6032 97.0241 24.5962 97.2061 24.5878 97.3881C24.4016 97.7661 24.116 98.0027 23.696 98.1077C22.4878 98.4088 21.2726 98.6285 20.0252 98.7237C18.8772 98.8105 17.7712 98.3415 16.6274 98.5655Z" fill="#3C88C8"/>
<path d="M7.7486 89.8225C7.526 89.9597 7.6534 90.2383 7.4714 90.4665C6.1652 88.9363 5.9818 87.0911 6.1176 85.2697C6.3052 82.7623 7.3314 80.5671 9.22141 78.8255C9.90461 78.1969 10.6396 77.6957 11.5734 77.5459C11.3956 77.8301 11.1506 78.0849 11.1884 78.4601C11.0666 78.7555 10.8636 78.9697 10.613 79.1783C9.02821 80.4985 7.8564 82.1127 7.5064 84.1777C7.3244 85.2501 6.658 86.4569 7.9264 87.3669C7.9404 88.0599 7.9558 88.7529 7.9698 89.4445C7.897 89.5691 7.8228 89.6951 7.7486 89.8225Z" fill="#D4EDF3"/>
<path d="M25.74 95.1355C24.7166 95.4995 23.7072 95.914 22.6656 96.2178C20.637 96.81 18.5944 96.7512 16.563 96.1884C16.2144 96.0918 15.8756 95.914 15.5046 96.096C15.338 95.879 15.17 95.6606 15.0034 95.4436C15.1224 95.0824 15.2428 94.7225 15.3632 94.3613C15.4178 94.3613 15.4724 94.3614 15.527 94.3599C15.5144 94.7407 15.6166 94.9872 16.0464 95.1216C19.5604 96.2304 22.8532 95.7767 25.943 93.7831C26.51 93.4177 27.0868 93.0677 27.658 92.7121C27.3276 93.7649 26.4302 94.3683 25.74 95.1355Z" fill="#4195D1"/>
<path d="M15.3604 94.3613C15.24 94.7225 15.121 95.0837 15.0006 95.4435C13.9828 95.3119 12.979 95.1551 12.0172 94.7505C11.3074 94.4523 10.6816 94.0883 10.235 93.4541C10.361 93.3757 10.487 93.2959 10.6144 93.2175C11.1716 93.0873 11.7946 93.5311 12.3084 93.0229C12.748 92.9585 13.119 92.6351 13.5894 92.6883C13.8876 92.8703 13.9898 93.1895 14.113 93.5115C14.9082 93.2791 15.4458 93.3953 15.3604 94.3613Z" fill="#D6EEF4"/>
<path d="M10.6144 93.2175C10.4884 93.2959 10.3624 93.3757 10.235 93.4541C8.856 92.6197 8.0748 91.3779 7.7486 89.8225C7.8228 89.6965 7.897 89.5691 7.9698 89.4431C8.3632 89.0679 7.9922 88.5331 8.1868 88.2055C8.9358 89.9149 9.829 91.5781 11.1324 93.0103C11.0232 93.1041 10.7348 92.9753 10.6144 93.2175Z" fill="#3D8FCD"/>
<path d="M11.1898 78.4587C11.152 78.0835 11.397 77.8287 11.5748 77.5445C11.852 77.5529 12.1278 77.5613 12.4064 77.5697C12.4372 77.5921 12.468 77.6117 12.5002 77.6327C12.0802 77.9365 11.7918 78.4447 11.1898 78.4587Z" fill="#5296B0"/>
<path d="M25.74 95.1355C26.4302 94.3683 27.3276 93.7663 27.6566 92.7135C28.1634 92.2235 28.2012 91.5921 28.1928 90.9453C28.1886 90.8865 28.1872 90.8277 28.1858 90.7689C28.2936 90.9033 28.4 91.0377 28.5176 91.1847C28.7122 90.7409 28.925 90.3237 29.0804 89.8855C29.2344 89.4459 29.0328 89.2289 28.5708 89.2569C29.4878 89.0385 29.7706 88.1789 30.2886 87.5573C30.5938 88.0445 30.4832 88.5555 30.3572 89.0581C30.3012 89.2793 30.2368 89.4725 30.4552 89.6349C30.577 90.3153 30.1626 90.8893 30.073 91.5263C30.08 91.5865 30.0842 91.6467 30.087 91.7069C29.5172 92.7205 28.9474 93.7341 28.3776 94.7477C27.9324 94.6581 27.504 94.4047 26.965 94.6455C27.1722 95.0879 26.986 95.4197 26.573 95.6115C26.2118 95.7795 25.9066 95.6815 25.726 95.3007C25.733 95.2461 25.7386 95.1901 25.74 95.1355Z" fill="#ABDFEF"/>
<path d="M25.7232 95.3007C25.9038 95.6815 26.2104 95.7795 26.5702 95.6115C26.9818 95.4197 27.1694 95.0879 26.9622 94.6455C27.4998 94.4061 27.9296 94.6581 28.3748 94.7477C28.5932 94.9717 28.449 95.4757 28.9432 95.4883C28.5666 95.8341 28.0094 95.4449 27.5824 95.9531C26.7956 96.8897 25.8366 97.6821 24.949 98.5347C24.6172 98.2197 24.5962 97.8067 24.5864 97.3895C24.5948 97.2075 24.6018 97.0255 24.6102 96.8435C25.0022 96.3437 25.0722 95.6115 25.7232 95.3007Z" fill="#79D0ED"/>
<path d="M21.9516 75.4585C21.9726 75.9051 22.3772 75.8813 22.6404 75.9695C25.824 77.0475 27.7854 79.2469 28.666 82.4599C28.8816 83.2495 28.6436 84.0755 28.911 84.8735C29.0132 85.1773 29.1028 85.4433 29.3254 85.6659C28.6982 85.8913 28.2628 85.6001 27.8246 85.1815C27.5586 84.9281 27.469 84.5025 27.0588 84.3947C27.4928 83.9761 27.5026 83.4679 27.3766 82.9275C26.6472 79.8265 24.6928 77.9533 21.6436 77.1329C20.7434 76.8907 19.8166 76.9621 18.9164 76.7745C18.9178 76.6513 18.9192 76.5295 18.9206 76.4063C19.9832 76.2635 21.008 75.9947 21.9516 75.4585Z" fill="#41C5EB"/>
<path d="M18.9178 76.4078C18.9164 76.531 18.915 76.6528 18.9136 76.776C18.726 76.804 18.4446 76.685 18.5062 77.077C18.5496 77.3528 18.3396 77.5208 18.1198 77.4634C17.613 77.3304 17.1566 77.6482 16.6666 77.5586C16.5406 77.56 16.4146 77.5614 16.29 77.5628C16.2858 77.4102 16.3012 77.266 16.4454 77.1722C17.4758 77.217 17.9406 76.7522 17.6718 75.8953C17.9994 75.7413 18.3326 75.5859 18.7736 75.3801C18.6868 75.8113 18.1506 76.2706 18.9178 76.4078Z" fill="#CBEAF1"/>
<path d="M17.431 104.336C17.305 104.152 17.1776 103.965 17.0516 103.779C17.0446 103.543 17.0376 103.305 17.032 103.068C17.0726 102.995 17.13 102.852 17.1496 102.858C18.2514 103.138 19.356 103.162 20.4928 103.092C21.1508 103.051 21.9306 102.724 22.5074 103.401C22.38 103.509 22.2792 103.628 22.3282 103.813C22.3478 104.098 22.2414 104.299 21.9474 104.37C21.491 104.052 21.0346 103.975 20.4606 104.124C19.9664 104.252 19.3924 104.233 18.8884 104.121C18.3788 104.009 17.9826 104.083 17.5976 104.39C17.5416 104.371 17.487 104.353 17.431 104.336Z" fill="#3568B1"/>
<path d="M22.3268 103.81C22.2778 103.625 22.3786 103.506 22.506 103.398C22.877 103.365 23.0842 103.12 23.2522 102.823C24.0068 102.876 24.557 102.112 25.3452 102.295C25.3788 102.605 25.5762 102.904 25.404 103.226C24.655 103.239 24.0866 103.715 23.4538 104.014C22.9974 104.231 22.6376 104.24 22.3268 103.81Z" fill="#89D4EE"/>
<path d="M31.7796 97.762C31.8412 97.8894 31.9042 98.0153 31.9658 98.1427C31.2126 98.8456 30.3222 99.4223 29.8854 100.416C29.4402 100.488 29.0902 100.281 28.7556 100.027C28.6744 99.7836 28.2264 99.9264 28.2712 99.449C29.1406 98.8372 29.6488 97.7997 30.4468 97.0087C30.5336 97.1585 30.6764 97.1935 30.8332 97.1963C31.1482 97.3853 31.4646 97.573 31.7796 97.762Z" fill="#60CBF1"/>
<path d="M30.4454 97.0087C29.6474 97.7983 29.1392 98.8357 28.2698 99.4489C28.225 99.9263 28.673 99.7835 28.7542 100.027C28.4266 100.015 28.106 100.031 27.8204 100.22C27.8246 99.8381 27.889 99.4335 27.3794 99.1339C27.2198 99.8521 26.7438 100.233 26.1908 100.527C25.8422 100.712 25.7288 100.997 25.7288 101.361C25.25 101.249 24.753 101.164 24.5962 100.583C24.7572 100.362 24.7978 100.106 24.8104 99.8409C25.3368 99.8857 25.6602 99.4979 26.0368 99.2417C27.3822 98.3275 28.4812 97.1263 29.6978 96.0637C29.8308 96.2835 30.0534 96.2471 30.2578 96.2583C30.3222 96.5075 30.3838 96.7581 30.4454 97.0087Z" fill="#68CCF0"/>
<path d="M25.7302 101.36C25.7302 100.997 25.8436 100.71 26.1922 100.526C26.7438 100.232 27.2198 99.8507 27.3808 99.1325C27.889 99.4321 27.8246 99.8381 27.8218 100.219C27.4074 100.65 27.434 101.298 27.0714 101.756C26.5674 100.929 26.265 101.748 25.8814 101.902C25.9388 101.692 25.8422 101.524 25.7302 101.36Z" fill="#4F788E"/>
<path d="M25.7302 101.36C25.8422 101.524 25.9388 101.692 25.88 101.903C25.6056 101.903 25.4684 102.091 25.3452 102.297C24.557 102.113 24.0082 102.876 23.2536 102.824C23.3404 102.411 22.9456 102.136 22.9442 101.746C23.6568 101.587 23.9046 100.769 24.5976 100.582C24.7544 101.161 25.2514 101.248 25.7302 101.36Z" fill="#91D7EE"/>
<path d="M27.056 84.3947C27.4662 84.5025 27.5558 84.9281 27.8218 85.1815C28.26 85.6001 28.6954 85.8913 29.3226 85.6659C29.3254 85.729 29.3254 85.7919 29.324 85.8535C29.2596 85.9109 29.1952 85.9669 29.1308 86.0243C28.862 86.4289 28.5274 86.6977 28.001 86.5689C27.861 86.3995 27.7224 86.2301 27.5824 86.0607C27.511 85.7205 27.3248 85.4475 27.0812 85.2109C26.8082 84.9435 26.8684 84.6719 27.056 84.3947Z" fill="#B8E3EF"/>
<path d="M28.001 86.5689C28.5274 86.6977 28.862 86.4289 29.1308 86.0243C29.3156 86.6865 30.3446 86.7117 30.2872 87.5573C29.7692 88.1789 29.4864 89.0385 28.5694 89.2569C28.3496 89.6027 28.0024 89.7497 27.6286 89.8533C27.5516 89.8995 27.476 89.9471 27.399 89.9933C26.9454 89.2149 27.8162 88.8481 27.952 88.2475C28.078 87.6819 28.6702 87.1527 28.001 86.5689Z" fill="#36C2EA"/>
<path d="M16.283 100.22C16.2704 100.156 16.2592 100.093 16.2466 100.029C16.3908 99.7793 16.535 99.5301 16.6792 99.2809C17.0068 99.5441 17.368 99.6393 17.7992 99.6701C19.0116 99.7555 20.2142 99.8759 21.4308 99.6631C22.6334 99.4531 23.8472 99.3173 24.9392 98.7111C25.0134 99.0513 24.9812 99.3705 24.76 99.6547C24.5514 99.8479 24.5388 100.159 24.1272 100.244C22.2568 100.636 20.378 100.94 18.4712 100.762C17.7362 100.694 16.9018 100.831 16.283 100.22Z" fill="#397BBE"/>
<path d="M24.9392 98.7098C23.8472 99.316 22.6334 99.4518 21.4308 99.6618C20.2142 99.8746 19.0116 99.7542 17.7992 99.6688C17.3666 99.638 17.0068 99.5427 16.6792 99.2795C16.6624 99.0415 16.6456 98.8021 16.6288 98.5641C17.7726 98.3401 18.8786 98.8106 20.0266 98.7238C21.274 98.6286 22.4892 98.4088 23.6974 98.1077C24.1174 98.0027 24.403 97.7661 24.5892 97.3881C24.599 97.8053 24.62 98.2184 24.9518 98.5334C24.9588 98.5936 24.9546 98.6524 24.9392 98.7098Z" fill="#3B81C3"/>
<path d="M16.283 100.22C16.9032 100.831 17.7362 100.694 18.4712 100.762C20.378 100.94 22.2568 100.636 24.1272 100.244C24.5402 100.157 24.5528 99.8479 24.76 99.6547C24.7768 99.7163 24.7936 99.7793 24.8118 99.8409C24.7978 100.106 24.7572 100.362 24.5962 100.583C23.9032 100.771 23.6554 101.588 22.9428 101.748C21.4756 101.819 20.014 101.99 18.5384 101.93C17.8468 101.902 17.1468 101.494 16.4566 101.942C16.3404 101.801 16.2242 101.66 16.1066 101.52C16.0898 101.275 16.0716 101.031 16.0548 100.786C16.1318 100.596 16.2074 100.408 16.283 100.22Z" fill="#3876BB"/>
<path d="M16.108 101.518C16.2242 101.66 16.3404 101.801 16.458 101.941C16.528 102.116 16.5966 102.291 16.6666 102.466C14.9838 102.998 13.3346 102.578 11.726 102.169C9.563 101.62 7.5176 100.73 5.818 99.2445C5.5352 98.9981 4.8702 99.4321 4.957 98.7083C5.2272 98.5067 5.0732 98.1749 5.202 97.8431C6.6286 98.9659 8.0762 99.9529 9.7282 100.65C11.4264 101.367 13.2016 101.653 14.9936 101.902C15.3926 101.958 15.7958 101.818 16.108 101.518Z" fill="#9FDBEF"/>
<path d="M30.2592 96.2569C30.0534 96.2457 29.8322 96.2821 29.6992 96.0623C29.6376 95.8733 29.576 95.6829 29.5144 95.4939C29.9554 94.8009 30.3964 94.1065 30.8374 93.4135C31.6508 93.0005 31.3372 92.3355 31.2168 91.7139C31.34 91.6509 31.4632 91.5879 31.5864 91.5249C31.823 92.0779 31.522 92.8101 32.1576 93.2287C31.9784 93.5199 31.949 93.8405 31.9686 94.1709V94.1723C31.088 94.6119 31.0362 95.7319 30.2592 96.2569Z" fill="#98D9EE"/>
<path d="M32.1576 93.2273C31.522 92.8087 31.823 92.0765 31.5864 91.5235C31.9644 91.2295 31.8426 90.7661 31.9672 90.3867C32.7078 90.4189 32.6084 91.4283 33.2916 91.5277C33.2384 91.9099 33.72 91.8385 33.7928 92.0947C33.7088 92.6533 33.3602 92.9781 32.9122 93.2259C32.6602 93.0565 32.4082 93.0523 32.1576 93.2273Z" fill="#69CDEF"/>
<path d="M31.2154 91.7125C31.3358 92.3341 31.6494 92.9991 30.836 93.4121C30.9186 93.0173 30.409 93.2385 30.3698 92.9445C30.4832 92.5833 30.5392 92.1731 30.9172 91.9211C30.6526 91.6523 30.3544 91.7349 30.0842 91.7055C30.0814 91.6453 30.0772 91.5851 30.0702 91.5249C30.4762 91.4465 30.8668 91.4535 31.2154 91.7125Z" fill="#78D0EF"/>
<path d="M31.7796 97.762C31.4632 97.573 31.1482 97.3853 30.8318 97.1963C31.676 96.4935 32.0386 95.4799 32.5314 94.5517C32.9024 94.5517 33.2734 94.5517 33.79 94.5517C33.2776 95.8005 32.7484 96.9094 31.7796 97.762Z" fill="#89D4EE"/>
<path d="M32.5328 94.5518C32.0386 95.4799 31.6774 96.4935 30.8332 97.1963C30.675 97.1935 30.5336 97.1571 30.4468 97.0087C30.3852 96.7581 30.3222 96.5075 30.2606 96.2569C31.0376 95.7319 31.0894 94.6119 31.9686 94.1709C31.9826 94.5545 32.2584 94.5518 32.5328 94.5518Z" fill="#90D7EF"/>
<path d="M32.1576 93.2273C32.4096 93.0523 32.6616 93.0565 32.9136 93.2245C33.4708 93.3519 32.943 93.7523 33.104 93.9791C32.7036 93.9133 32.348 94.1079 31.97 94.1695C31.949 93.8391 31.9784 93.5185 32.1576 93.2273Z" fill="#90D7EF"/>
<path d="M16.6666 102.466C16.5966 102.291 16.528 102.116 16.458 101.941C17.1482 101.493 17.8482 101.9 18.5398 101.928C20.014 101.989 21.4756 101.818 22.9442 101.746C22.9442 102.136 23.3404 102.41 23.2536 102.824C23.087 103.121 22.8784 103.368 22.5074 103.4C21.9306 102.724 21.1508 103.05 20.4928 103.09C19.3574 103.16 18.2514 103.138 17.1496 102.857C17.13 102.851 17.0726 102.994 17.032 103.067C16.9102 102.868 16.7884 102.666 16.6666 102.466Z" fill="#366FB6"/>
<path d="M16.2886 77.5613C16.4146 77.5599 16.5406 77.5585 16.6652 77.5571C16.7884 77.6397 16.9116 77.7209 17.0418 77.8091C15.9218 78.2571 15.1266 79.0719 14.33 80.0883C14.666 80.1457 14.8424 80.1765 15.0188 80.2059C14.1396 80.3697 13.5138 80.9465 12.881 81.5135C12.776 81.2237 12.671 80.9339 12.5338 80.5545C12.0186 80.5545 11.4894 80.5545 10.9616 80.5545C11.355 80.2521 11.8086 80.4481 12.2328 80.4047C12.4456 80.3823 12.692 80.4313 12.8012 80.1779C12.909 79.9259 12.8306 79.7033 12.6794 79.4779C12.566 79.3099 12.2496 79.3421 12.2692 79.0593C12.6444 78.8017 13.3178 79.1531 13.448 78.4489C13.5782 78.3957 13.7098 78.3439 13.84 78.2907C14.6576 77.9967 15.5004 77.7433 15.8826 76.8165C16.2452 77.0783 15.709 77.4829 16.1416 77.6341C16.1682 77.6439 16.2046 77.6439 16.2284 77.6327C16.2536 77.6173 16.269 77.5851 16.2886 77.5613Z" fill="#49C6EC"/>
<path d="M13.4466 78.4461C13.3164 79.1503 12.643 78.7989 12.2678 79.0565C12.2482 79.3393 12.5646 79.3071 12.678 79.4751C12.8306 79.7005 12.9076 79.9231 12.7998 80.1751C12.692 80.4285 12.4442 80.3809 12.2314 80.4019C11.8072 80.4453 11.3536 80.2507 10.9602 80.5517C10.613 80.8121 10.8636 81.2545 10.6298 81.5765C10.3288 81.9895 10.2588 82.3983 10.9812 82.4613C11.1786 82.4781 11.1702 82.6727 11.1898 82.8239C11.0176 83.1081 10.8678 83.3993 10.5388 83.5575C10.1454 83.7465 9.96199 84.0783 10.0194 84.5249C9.96619 84.6523 9.913 84.7797 9.8598 84.9071C9.7128 85.0205 9.56439 85.1353 9.4174 85.2487C8.905 85.3817 8.8266 85.8941 8.5494 86.2343C8.3422 86.6095 8.1336 86.9847 7.9264 87.3599C6.6594 86.4499 7.3258 85.2431 7.5064 84.1707C7.8564 82.1057 9.0268 80.4915 10.613 79.1713C10.8636 78.9627 11.0666 78.7485 11.1884 78.4531C11.7904 78.4405 12.0802 77.9309 12.4974 77.6271C12.7676 78.0177 12.1656 78.1647 12.2874 78.5735C12.6542 78.5371 13.0504 78.4923 13.4466 78.4461Z" fill="#DAF0F5"/>
<path d="M7.9264 87.3641C8.1336 86.9889 8.3422 86.6137 8.5494 86.2385C8.8028 86.5353 8.8574 86.9133 8.9568 87.2689C9.5756 89.4781 10.6998 91.3905 12.3056 93.0215C11.7918 93.5297 11.1688 93.0873 10.6116 93.2161C10.732 92.9739 11.0204 93.1027 11.131 93.0089C9.8262 91.5767 8.933 89.9121 8.1854 88.2041C7.9908 88.5317 8.3618 89.0665 7.9684 89.4417C7.9558 88.7501 7.9418 88.0571 7.9264 87.3641Z" fill="#4094D0"/>
<path d="M9.8598 84.9113C9.913 84.7839 9.9662 84.6565 10.0194 84.5291C10.4534 84.5543 10.6326 84.8119 10.6046 85.2179C10.571 85.6953 10.6998 86.1461 10.788 86.6053C11.964 92.7289 19.1138 95.8887 24.4688 92.4895C25.04 92.1269 25.5762 91.7083 26.1292 91.3149L26.1348 91.3065C26.2244 91.6453 26.6948 91.3947 26.7914 91.7223C24.7208 94.3613 19.9776 95.7459 15.5536 93.9889C15.5438 94.1177 15.534 94.2395 15.5242 94.3599C15.4696 94.3599 15.415 94.3599 15.3604 94.3613C15.4444 93.3967 14.9082 93.2791 14.1116 93.5115C13.9898 93.1895 13.8862 92.8689 13.588 92.6883C13.6244 92.6421 13.6594 92.5973 13.6944 92.5511C13.6104 92.5231 13.5278 92.4951 13.4438 92.4685C13.4438 92.0709 13.1218 91.8847 12.895 91.6383C11.6294 90.2677 10.6774 88.7235 10.291 86.8769C10.1538 86.2203 10.186 85.5273 9.8598 84.9113Z" fill="#459FD8"/>
<path d="M15.5256 94.3599C15.5354 94.2381 15.5452 94.1177 15.555 93.9889C19.9804 95.7459 24.7222 94.3613 26.7928 91.7223C26.6962 91.3947 26.2258 91.6453 26.1362 91.3065C26.8348 91.2575 27.4774 90.8963 28.1928 90.9439C28.2026 91.5907 28.1634 92.2221 27.6566 92.7121C27.084 93.0691 26.5072 93.4191 25.9416 93.7845C22.8504 95.7781 19.559 96.2317 16.045 95.1229C15.6152 94.9871 15.5116 94.7407 15.5256 94.3599Z" fill="#419AD4"/>
<path d="M13.4466 92.4685C13.5306 92.4965 13.6132 92.5245 13.6972 92.5511C13.6622 92.5959 13.6258 92.6421 13.5908 92.6883C13.1204 92.6351 12.748 92.9585 12.3098 93.0229C10.7026 91.3905 9.5798 89.4795 8.961 87.2703C8.8616 86.9161 8.807 86.5367 8.5536 86.2399C8.8294 85.8997 8.9092 85.3873 9.4216 85.2543C9.9144 87.1933 10.2224 89.2219 11.5972 90.7885C12.1348 91.4059 12.44 92.3439 13.4466 92.4685Z" fill="#419AD4"/>
<path d="M30.0856 91.7069C30.3572 91.7363 30.654 91.6537 30.9186 91.9225C30.5406 92.1745 30.4846 92.5833 30.3712 92.9459C30.4104 93.2399 30.92 93.0187 30.8374 93.4135C30.3964 94.1065 29.9554 94.8009 29.5144 95.4939C29.3254 95.4519 29.1378 95.1929 28.9446 95.4883C28.4504 95.4757 28.5946 94.9717 28.3762 94.7477C28.9446 93.7341 29.5158 92.7205 30.0856 91.7069Z" fill="#A1DCEF"/>
<path d="M28.1914 90.9453C27.476 90.8977 26.8334 91.2589 26.1348 91.3079L26.1292 91.3163C26.0452 91.1931 25.9612 91.0699 25.8786 90.9467C25.9318 90.5001 26.3 90.4581 26.6234 90.4021C26.9356 90.3489 27.2226 90.2887 27.399 89.9947C27.476 89.9485 27.5516 89.9009 27.6286 89.8547C27.8456 90.1403 27.756 90.6135 28.1844 90.7703C28.1858 90.8263 28.1886 90.8865 28.1914 90.9453Z" fill="#B8E3EF"/>
<path d="M28.1844 90.7676C27.756 90.6108 27.8456 90.1376 27.6286 89.852C28.0024 89.7497 28.3496 89.6027 28.5694 89.2555C29.0328 89.2275 29.2344 89.4445 29.079 89.8841C28.925 90.3223 28.7122 90.7396 28.5162 91.1834C28.4 91.0364 28.2922 90.902 28.1844 90.7676Z" fill="#B5E2EF"/>
<path d="M28.9432 95.4869C29.1364 95.1915 29.3226 95.4505 29.513 95.4925C29.5746 95.6815 29.6362 95.8719 29.6978 96.0609C28.4812 97.1249 27.3822 98.3247 26.0368 99.2389C25.6602 99.4951 25.3382 99.8815 24.8104 99.8381C24.7936 99.7765 24.7768 99.7135 24.76 99.6519C24.9812 99.3677 25.0134 99.0485 24.9378 98.7083C24.9532 98.6509 24.9574 98.5921 24.949 98.5333C25.8366 97.6807 26.7942 96.8883 27.581 95.9517C28.0108 95.4435 28.5666 95.8341 28.9432 95.4869Z" fill="#6FCEEF"/>
<path d="M15.0188 80.2059C14.8424 80.1751 14.666 80.1457 14.33 80.0883C15.1266 79.0719 15.9218 78.2571 17.0418 77.8091C16.9116 77.7223 16.7884 77.6397 16.6652 77.5571C17.1552 77.6467 17.6116 77.3275 18.1184 77.4619C18.3382 77.5193 18.5482 77.3527 18.5048 77.0755C18.4432 76.6835 18.7246 76.8025 18.9122 76.7745C19.811 76.9621 20.7392 76.8907 21.6394 77.1329C24.6886 77.9519 26.6444 79.8251 27.3724 82.9275C27.4998 83.4679 27.49 83.9761 27.0546 84.3947C26.867 84.6733 26.8068 84.9449 27.0798 85.2109C27.3234 85.4475 27.5096 85.7219 27.581 86.0607C27.266 86.4233 27.182 86.9021 26.9636 87.3067C26.6388 87.9059 26.5856 88.7557 25.6798 88.8929C25.4516 88.7501 25.2486 88.5835 25.1632 88.3133C26.1208 86.6221 26.6108 84.8665 26.1012 82.9051C25.1758 79.3393 21.4672 77.3289 17.9448 78.4461C16.9144 78.7723 16.3502 79.7873 15.2974 80.0127C15.205 80.0757 15.1112 80.1415 15.0188 80.2059Z" fill="#4FC7EB"/>
<path d="M25.6812 88.8929C26.587 88.7557 26.6402 87.9059 26.965 87.3067C27.1848 86.9021 27.2674 86.4233 27.5824 86.0607C27.7224 86.2301 27.861 86.3995 28.001 86.5689C28.6702 87.1527 28.078 87.6819 27.952 88.2475C27.8176 88.8495 26.9454 89.2149 27.399 89.9933C27.2226 90.2873 26.9356 90.3475 26.6234 90.4007C26.3 90.4567 25.9304 90.4987 25.8786 90.9453C25.7666 90.7605 25.656 90.5771 25.544 90.3923C25.5412 90.3335 25.5398 90.2747 25.5412 90.2145C25.9136 89.8085 25.6826 89.3381 25.6812 88.8929Z" fill="#41C5EB"/>
<path d="M15.0188 80.2059C15.1112 80.1415 15.205 80.0771 15.2974 80.0127C16.003 80.5111 16.7086 81.0095 17.4142 81.5079C17.7782 81.8286 18.1436 81.3609 18.5062 81.5107C18.6154 81.6899 18.5062 81.9588 18.7414 82.0876C19.3196 82.2584 19.4372 82.8142 19.7214 83.237C19.8558 83.4372 20.035 83.5771 19.6276 83.6107C19.1852 83.4987 18.6826 83.1082 18.4894 83.9398C18.397 84.3388 18.0582 84.1652 17.7978 84.133C17.6172 83.8516 17.2658 83.9748 17.0362 83.8096C16.6078 83.8068 16.2732 83.5548 15.9078 83.3854C15.7748 83.2243 15.6614 83.0578 15.7132 82.831C15.9722 82.4418 15.8644 82.1085 15.4108 82.1771C14.8676 82.2583 14.281 82.1212 13.7756 82.4348C13.2912 82.3857 12.8572 82.5075 12.4778 82.8155C12.4218 82.8757 12.3658 82.9374 12.3112 82.9976C11.985 82.9766 11.6224 83.16 11.3494 82.831C11.4404 82.6224 11.5888 82.4669 11.8226 82.4613C12.4526 82.4473 12.6962 82.0161 12.8824 81.5135C13.5138 80.9451 14.1396 80.3697 15.0188 80.2059Z" fill="#E9F5F8"/>
<path d="M12.881 81.5121C12.6948 82.0147 12.4526 82.4459 11.8212 82.4599C11.586 82.4655 11.439 82.6195 11.348 82.8295C11.2948 82.8295 11.243 82.8281 11.1898 82.8267C11.1702 82.6755 11.18 82.4809 10.9812 82.4641C10.2588 82.4011 10.3288 81.9923 10.6298 81.5793C10.8636 81.2573 10.6144 80.8149 10.9602 80.5545C11.4894 80.5545 12.0172 80.5545 12.5324 80.5545C12.671 80.9325 12.776 81.2223 12.881 81.5121Z" fill="#3EC5EC"/>
<path d="M11.1898 82.8267C11.243 82.8281 11.2948 82.8295 11.348 82.8295C11.621 83.1585 11.9836 82.9751 12.3098 82.9961C12.153 83.3251 11.516 83.0927 11.5524 83.6779C11.593 84.3359 11.5034 85.0065 11.5972 85.6547C12.2342 90.1053 16.0506 93.2567 20.4466 92.8409C22.436 92.6519 24.1286 91.7979 25.5454 90.3923C25.6574 90.5771 25.7694 90.7605 25.88 90.9453C25.964 91.0685 26.0466 91.1917 26.1306 91.3149C25.5776 91.7083 25.0414 92.1269 24.4702 92.4895C19.1152 95.8887 11.9654 92.7289 10.7894 86.6053C10.7012 86.1447 10.5724 85.6953 10.606 85.2179C10.634 84.8119 10.4548 84.5557 10.0208 84.5291C9.9634 84.0825 10.1468 83.7507 10.5402 83.5617C10.8692 83.4021 11.019 83.1109 11.1898 82.8267Z" fill="#46A6DC"/>
<path d="M13.4466 92.4685C12.4414 92.3439 12.1362 91.4059 11.5944 90.7885C10.2196 89.2219 9.9116 87.1919 9.4188 85.2543C9.5658 85.1395 9.7142 85.0261 9.8612 84.9113C10.1874 85.5273 10.1552 86.2203 10.2924 86.8769C10.6802 88.7235 11.6308 90.2691 12.8964 91.6383C13.1246 91.8847 13.4466 92.0709 13.4466 92.4685Z" fill="#449ED7"/>
<path d="M17.4142 81.5065C16.7086 81.0081 16.003 80.5097 15.2974 80.0113C16.3502 79.7845 16.9144 78.7709 17.9448 78.4447C21.4672 77.3275 25.1758 79.3379 26.1012 82.9037C26.6094 84.8651 26.1208 86.6221 25.1632 88.3119C25.11 88.2909 25.0568 88.2727 25.0022 88.2573C24.3806 87.8009 24.2182 87.1009 24.0306 86.4135C24.4772 86.3183 24.7166 86.0117 24.7628 85.5889C24.837 84.9169 24.928 84.2575 24.7936 83.5617C24.1958 80.4635 20.581 78.6225 17.9252 80.1065C17.9994 80.2745 18.075 80.4425 18.1492 80.6119C17.508 80.5111 17.0642 79.9525 16.3026 79.7565C16.6778 80.4859 17.3008 80.7365 17.795 81.1369C17.634 81.2937 17.5248 81.4001 17.4142 81.5065Z" fill="#57C8EB"/>
<path d="M25.0036 88.2587C25.0582 88.2741 25.1114 88.2923 25.1632 88.3133C25.2486 88.5835 25.4516 88.7487 25.6798 88.8929C25.6826 89.3395 25.9136 89.8099 25.5398 90.2159C25.4404 89.8477 25.047 89.8323 24.823 89.6153C24.7558 89.4305 24.6872 89.2443 24.62 89.0595C24.7488 88.7921 24.8762 88.5247 25.0036 88.2587Z" fill="#CFEBF2"/>
<path d="M24.8244 89.6139C25.0498 89.8309 25.4432 89.8463 25.5412 90.2145C25.5398 90.2733 25.5412 90.3321 25.544 90.3923C24.1272 91.7979 22.4346 92.6533 20.4452 92.8409C16.0492 93.2567 12.2328 90.1053 11.5958 85.6547C11.5034 85.0065 11.593 84.3359 11.551 83.6779C11.5146 83.0927 12.1516 83.3251 12.3084 82.9961C12.3644 82.9359 12.4204 82.8743 12.4764 82.8141C12.8838 83.2439 12.6962 83.7787 12.6738 84.2519C12.5604 86.6459 13.3962 88.6493 15.2246 90.1515C16.6792 91.3471 18.369 91.9659 20.3346 91.7489C22.1042 91.5557 23.5308 90.7521 24.8244 89.6139Z" fill="#48AADF"/>
<path d="M24.8244 89.6139C23.5308 90.7507 22.1042 91.5543 20.3346 91.7489C18.369 91.9645 16.6806 91.3471 15.2246 90.1515C13.3962 88.6493 12.5618 86.6459 12.6738 84.2519C12.6962 83.7787 12.8838 83.2439 12.4764 82.8141C12.8558 82.5061 13.2898 82.3843 13.7756 82.4333C14.3566 82.5271 14.022 82.9485 13.9744 83.1613C13.6916 84.4493 13.749 85.6981 14.2082 86.9399C15.1728 89.5439 17.6564 90.6933 19.7592 90.7297C21.1872 90.7549 22.4542 90.0563 23.6344 89.2261C24.0278 88.9503 24.0782 88.6983 24.0152 88.3147C24.3876 88.4239 24.3806 88.8411 24.6186 89.0581C24.6886 89.2443 24.7558 89.4291 24.8244 89.6139Z" fill="#4BB1E4"/>
<path d="M18.152 80.6119C18.0778 80.4439 18.0022 80.2745 17.928 80.1065C20.5824 78.6225 24.1972 80.4635 24.7964 83.5617C24.9308 84.2575 24.8398 84.9169 24.7656 85.5889C24.7194 86.0117 24.48 86.3183 24.0334 86.4135C23.5308 86.0649 23.5266 85.2977 22.8938 85.0597C22.835 84.7489 22.7748 84.4381 22.716 84.1273C22.6978 83.5155 23.36 82.9877 22.9386 82.2653C22.422 82.4865 21.8676 82.1281 21.3566 82.4277C20.8106 82.2093 20.259 82.0203 20.1624 81.3007C20.133 81.0809 19.8852 80.9647 19.6472 81.0543C19.4442 81.1313 19.2888 81.2265 19.384 81.5331C19.573 82.1379 19.097 82.0581 18.7428 82.0833C18.5076 81.9545 18.6182 81.6857 18.5076 81.5065C18.3298 81.2335 18.1226 80.9703 18.152 80.6119Z" fill="#64CBEB"/>
<path d="M24.0166 88.3147C24.0796 88.6983 24.0292 88.9503 23.6358 89.2261C22.4556 90.0563 21.1886 90.7549 19.7606 90.7297C17.6578 90.6933 15.1742 89.5439 14.2096 86.9399C13.749 85.6981 13.6916 84.4493 13.9758 83.1613C14.0234 82.9485 14.358 82.5257 13.777 82.4333C14.2824 82.1197 14.869 82.2569 15.4122 82.1757C15.8658 82.1071 15.9736 82.4403 15.7146 82.8295C15.541 82.7833 15.5214 82.4767 15.2344 82.5761C15.0244 83.6471 14.6786 84.6733 14.9334 85.8535C15.4906 88.4253 18.411 90.1893 20.9394 89.4669C22.0832 89.1393 22.8168 88.2615 23.8038 87.7463C23.8752 87.9353 23.9466 88.1257 24.0166 88.3147Z" fill="#4BB7E8"/>
<path d="M23.8038 87.7449C22.8182 88.2615 22.0832 89.1393 20.9394 89.4655C18.411 90.1879 15.4892 88.4239 14.9334 85.8521C14.6786 84.6733 15.0244 83.6471 15.2344 82.5747C15.5214 82.4753 15.541 82.7819 15.7146 82.8281C15.6628 83.0536 15.7762 83.2215 15.9092 83.3825C15.9078 83.9789 15.891 84.5739 15.9078 85.1703C15.9526 86.8853 17.5262 88.3581 19.23 88.5233C21.0136 88.6969 22.1868 87.7981 23.2718 86.6095C23.5168 86.9567 23.7926 87.2885 23.8038 87.7449Z" fill="#4CBCEC"/>
<path d="M23.269 86.6109C22.184 87.7995 21.0122 88.6983 19.2272 88.5247C17.5234 88.3581 15.9498 86.8867 15.905 85.1717C15.8896 84.5767 15.905 83.9803 15.9064 83.3839C16.2718 83.5533 16.6064 83.8053 17.0348 83.8081C17.0306 83.9019 17.039 83.9999 17.018 84.0909C16.7198 85.3593 17.2504 86.5675 18.383 87.1877C19.5338 87.8191 20.6356 87.6119 21.6464 86.6501C22.0342 86.2819 22.184 85.7079 22.7104 85.4755C23.0534 85.7779 23.2088 86.1699 23.269 86.6109Z" fill="#4CC1EF"/>
<path d="M22.7118 85.4741C22.184 85.7065 22.0342 86.2805 21.6478 86.6487C20.6356 87.6105 19.5352 87.8177 18.3844 87.1863C17.2518 86.5661 16.7212 85.3579 17.0194 84.0895C17.0404 83.9985 17.0306 83.9019 17.0362 83.8067C17.2658 83.9719 17.6172 83.8487 17.7978 84.1301C17.83 84.3877 18.2066 84.2673 18.2402 84.6383C18.3494 85.8507 19.0662 86.4289 20.035 86.2091C20.8876 86.0145 21.323 85.1199 21.0458 84.1343C21.3328 84.0251 21.6184 83.9173 21.9054 83.8081C22.1756 83.9145 22.4458 84.0223 22.716 84.1287C22.7748 84.4395 22.835 84.7503 22.8938 85.0625C22.8322 85.1997 22.772 85.3369 22.7118 85.4741Z" fill="#4EC8F4"/>
<path d="M21.0444 84.1343C21.323 85.1199 20.8876 86.0145 20.0336 86.2091C19.0648 86.4303 18.348 85.8507 18.2388 84.6383C18.2052 84.2673 17.83 84.3877 17.7964 84.1301C18.0554 84.1623 18.3956 84.3359 18.488 83.9369C18.6812 83.1053 19.1852 83.4959 19.6276 83.6079C20.0406 83.9439 20.6804 83.6667 21.0444 84.1343Z" fill="#55C9F3"/>
<path d="M21.0444 84.1343C20.6804 83.6681 20.0406 83.9453 19.6276 83.6093C20.035 83.5757 19.8558 83.4357 19.7214 83.2355C19.4386 82.8127 19.321 82.2569 18.7414 82.0861C19.0942 82.0609 19.5702 82.1407 19.3826 81.5359C19.2874 81.2293 19.4428 81.1327 19.6458 81.0571C19.8838 80.9675 20.1316 81.0837 20.161 81.3035C20.2576 82.0231 20.8106 82.2135 21.3552 82.4319C21.8018 82.7861 21.7794 83.3279 21.904 83.8095C21.617 83.9173 21.3314 84.0251 21.0444 84.1343Z" fill="#E4F3F7"/>
<path d="M18.152 80.6119C18.1226 80.9689 18.3298 81.2336 18.5076 81.5094C18.1436 81.3596 17.7782 81.8271 17.4142 81.5065C17.5234 81.4001 17.6326 81.2938 17.7964 81.137C17.3036 80.738 16.6792 80.4874 16.304 79.7565C17.067 79.9525 17.5108 80.5125 18.152 80.6119Z" fill="#E4F3F7"/>
<path d="M22.7118 85.4741C22.772 85.3369 22.8322 85.1997 22.891 85.0611C23.5252 85.2977 23.5294 86.0663 24.0306 86.4149C24.2168 87.1009 24.3792 87.8009 25.0022 88.2587C24.8748 88.5247 24.7474 88.7921 24.62 89.0581C24.382 88.8411 24.389 88.4239 24.0166 88.3147C23.9452 88.1243 23.8738 87.9353 23.8038 87.7449C23.7926 87.2885 23.5168 86.9553 23.269 86.6095C23.2088 86.1699 23.0534 85.7779 22.7118 85.4741Z" fill="#D4EDF4"/>
<path d="M21.904 83.8081C21.7794 83.3251 21.8018 82.7847 21.3552 82.4305C21.8662 82.1295 22.4206 82.4893 22.9372 82.2681C23.3585 82.9905 22.6964 83.5169 22.7146 84.1301C22.4444 84.0223 22.1742 83.9159 21.904 83.8081Z" fill="#DAF0F5"/>
<path d="M36.7398 58.3968C36.7398 58.7048 36.7398 59.0128 36.7398 59.3194C36.4892 59.3656 36.5018 59.5686 36.471 59.7548C35.8956 63.2646 33.832 65.4864 30.472 66.472C26.7886 67.5514 23.087 67.382 19.4526 66.2284C16.542 65.3058 14.2796 61.8394 14.4098 58.6124C16.724 58.4584 19.0466 58.303 21.3832 58.1462C21.4868 58.5368 21.5596 58.828 21.6422 59.1178C22.2918 61.4068 23.9928 62.5492 26.328 62.2692C27.903 62.0802 29.0188 61.1772 29.142 59.99C29.2666 58.7888 28.3706 57.7206 26.7956 57.2642C25.1002 56.7742 23.3796 56.3654 21.6912 55.8516C18.677 54.9332 16.0646 53.5206 15.247 50.2082C10.8902 50.4602 6.6272 50.3286 2.3656 50.309C2.3628 42.8498 2.3614 35.3906 2.3586 27.93C4.0862 27.9146 5.8124 27.9048 7.54 27.8796C7.869 27.8754 8.3184 28.0322 8.4794 27.6416C8.8882 26.6448 9.4328 25.6816 9.584 24.4706C8.4472 24.4706 7.4602 24.4706 6.5068 24.4706C6.2478 23.9932 6.3514 23.5634 6.3514 23.1518C6.3444 16.9302 6.35 10.7072 6.343 4.4856C6.3416 2.9904 6.2996 1.4952 6.2772 0C8.9694 0 11.6616 0 14.3552 0C14.3552 3.8486 14.3552 7.6972 14.3552 11.5458C15.0244 10.3264 15.5298 9.0944 15.975 7.84C16.1836 7.252 16.4776 6.9986 17.1412 7.0112C19.3322 7.0546 21.5246 7.0546 23.7156 7.0112C24.3848 6.9972 24.6242 7.2632 24.844 7.8526C27.4858 14.9338 30.1682 22.001 32.8142 29.0808C33.0872 29.8102 33.4666 30.5284 33.5044 31.346C30.8864 31.346 28.3244 31.346 25.7806 31.346C25.4208 30.212 25.0484 29.162 24.7656 28.0868C24.6354 27.5912 24.445 27.3854 23.92 27.3896C21.498 27.4106 19.076 27.3966 16.654 27.4008C16.3544 27.4008 16.0142 27.356 15.9456 27.7942C15.8728 28.259 16.255 28.2716 16.5238 28.3486C20.168 29.4014 21.8718 32.095 22.6796 35.5684C23.1528 37.6082 22.9036 39.683 22.9568 41.7522C24.1692 41.7522 25.3144 41.755 26.4596 41.7522C27.6594 41.7494 28.8298 41.9636 29.996 42.2128C33.3084 42.9226 35.701 45.8094 35.6016 49.0686C33.293 49.203 30.976 49.3374 28.701 49.469C27.8778 46.9406 27.1834 46.1762 24.221 46.3666C23.0716 46.4408 22.2274 47.194 22.2428 48.0956C22.2624 49.1778 23.0422 49.5852 23.9564 49.8162C25.8534 50.2978 27.7714 50.7122 29.6446 51.2722C33.209 52.3376 36.2162 54.0092 36.5648 58.2806C36.5634 58.3268 36.6782 58.3604 36.7398 58.3968ZM9.3222 45.2004C10.4142 45.2004 11.376 45.2424 12.3308 45.192C14.1284 45.0954 15.3086 44.1728 15.7062 42.4354C16.2004 40.2738 16.1962 38.0814 15.6642 35.9212C15.3296 34.5604 14.491 33.593 13.091 33.2332C11.8576 32.9154 10.6032 32.9504 9.3222 33.075C9.3222 37.1308 9.3222 41.1138 9.3222 45.2004ZM20.2982 13.377C19.3644 16.4738 18.53 19.2416 17.6816 22.0584C19.517 22.0584 21.183 22.0584 22.9498 22.0584C22.0762 19.1996 21.232 16.4374 20.2982 13.377Z" fill="white"/>
<path d="M38 92.4284C38 102.922 29.4934 111.428 19 111.428C8.50659 111.428 0 102.922 0 92.4284C0 81.935 8.50659 73.4284 19 73.4284C29.4934 73.4284 38 81.935 38 92.4284Z" fill="white" style="mix-blend-mode:hue"/>
</svg>
