<svg width="62" height="200" viewBox="0 0 62 200" fill="none" xmlns="http://www.w3.org/2000/svg">
<path fill-rule="evenodd" clip-rule="evenodd" d="M31 42C37.0751 42 42 37.0751 42 31C42 24.9249 37.0751 20 31 20C24.9249 20 20 24.9249 20 31C20 37.0751 24.9249 42 31 42ZM31.4818 25C30.6149 24.9998 29.8274 25.3188 29.3038 25.5901C29.0325 25.7307 28.8085 25.8709 28.6507 25.9771C28.5714 26.0304 28.5078 26.0759 28.462 26.1095C28.4391 26.1264 28.4207 26.1403 28.4069 26.1508L28.3897 26.164L28.3839 26.1686L28.3816 26.1704L28.3806 26.1711C28.3806 26.1711 28.3798 26.1718 29 26.9562L28.3798 26.1718C27.9466 26.5143 27.873 27.1432 28.2156 27.5764C28.5574 28.0088 29.1843 28.0829 29.6175 27.7428L29.6209 27.7402C29.6255 27.7367 29.6342 27.7301 29.6469 27.7208C29.6723 27.7021 29.7131 27.6728 29.7671 27.6365C29.8758 27.5633 30.0338 27.4644 30.2239 27.3659C30.6231 27.1591 31.0765 26.9999 31.4814 27C32.3769 27.0002 32.8894 27.489 32.974 28.0596C33.0504 28.5748 32.9484 28.9166 32.8027 29.1614C32.6461 29.4244 32.3957 29.6453 32.0845 29.8261C31.1445 30.372 29.9853 31.4174 29.9853 32.9151V33.1739C29.9853 33.7262 30.433 34.1739 30.9853 34.1739C31.5376 34.1739 31.9853 33.7262 31.9853 33.1739V32.9151C31.9853 32.5131 32.3403 31.9903 33.0889 31.5556C33.5928 31.2629 34.139 30.8265 34.5212 30.1846C34.9141 29.5246 35.0929 28.7142 34.9524 27.7663C34.69 25.9967 33.1299 25.0003 31.4818 25ZM31.9853 36.5217C31.9853 35.9695 31.5376 35.5217 30.9853 35.5217C30.433 35.5217 29.9853 35.9695 29.9853 36.5217V37C29.9853 37.5523 30.433 38 30.9853 38C31.5376 38 31.9853 37.5523 31.9853 37V36.5217Z" fill="#FCFCFC"/>
<rect x="0.5" y="0.5" width="61" height="61" rx="30.5" stroke="white" stroke-opacity="0.5"/>
<line x1="31.5" y1="62" x2="31.5" y2="190" stroke="white" stroke-opacity="0.5"/>
<circle cx="31" cy="194" r="5.5" stroke="white"/>
</svg>
