<svg width="62" height="146" viewBox="0 0 62 146" fill="none" xmlns="http://www.w3.org/2000/svg">
<path d="M25 105V104C24.4997 104 24.0763 104.37 24.0091 104.866L25 105ZM37 105L37.9909 104.866C37.9237 104.37 37.5004 104 37 104V105ZM29 120H30C30 119.624 29.7892 119.28 29.4543 119.109L29 120ZM25 114.25L25.9767 114.035L25 114.25ZM29 125H28C28 125.552 28.4477 126 29 126V125ZM37 114.25L36.0234 114.035L37 114.25ZM33 120L32.5458 119.109C32.2109 119.28 32 119.624 32 120H33ZM33 125V126C33.5523 126 34 125.552 34 125H33ZM41.8369 109.141L42.8269 109.283V109.283L41.8369 109.141ZM41.6403 110.518L40.6504 110.376V110.376L41.6403 110.518ZM36.3896 114.506C35.8407 114.567 35.4451 115.062 35.5061 115.61C35.5671 116.159 36.0615 116.555 36.6104 116.494L36.3896 114.506ZM20.1631 109.141L21.153 109V109L20.1631 109.141ZM20.3597 110.518L19.3697 110.659H19.3697L20.3597 110.518ZM25.3896 116.494C25.9385 116.555 26.4329 116.159 26.4939 115.61C26.5549 115.062 26.1593 114.567 25.6104 114.506L25.3896 116.494ZM25 124C24.4477 124 24 124.448 24 125C24 125.552 24.4477 126 25 126V124ZM37 126C37.5523 126 38 125.552 38 125C38 124.448 37.5523 124 37 124V126ZM25 106H37V104H25V106ZM29 120C29.4543 119.109 29.4547 119.109 29.4551 119.11C29.4552 119.11 29.4556 119.11 29.4558 119.11C29.4563 119.11 29.4567 119.11 29.457 119.111C29.4578 119.111 29.4583 119.111 29.4587 119.111C29.4595 119.112 29.4596 119.112 29.4589 119.112C29.4576 119.111 29.4536 119.109 29.4469 119.105C29.4335 119.098 29.4097 119.084 29.3766 119.065C29.3105 119.025 29.2078 118.961 29.0784 118.87C28.819 118.689 28.4554 118.402 28.0636 117.997C27.2825 117.189 26.3895 115.912 25.9767 114.035L24.0234 114.465C24.5298 116.767 25.6368 118.365 26.626 119.387C27.1192 119.897 27.5832 120.265 27.9302 120.508C28.104 120.63 28.2491 120.721 28.3551 120.784C28.4081 120.816 28.4513 120.84 28.4835 120.858C28.4996 120.867 28.513 120.874 28.5234 120.879C28.5286 120.882 28.5331 120.884 28.5368 120.886C28.5387 120.887 28.5404 120.888 28.5419 120.889C28.5426 120.889 28.5433 120.89 28.544 120.89C28.5443 120.89 28.5447 120.89 28.5449 120.89C28.5453 120.891 28.5458 120.891 29 120ZM25.9767 114.035C25.6191 112.41 25.6114 110.21 25.7076 108.354C25.7551 107.439 25.8263 106.63 25.8857 106.051C25.9153 105.762 25.9419 105.531 25.961 105.373C25.9705 105.294 25.9782 105.233 25.9833 105.193C25.9859 105.172 25.9879 105.157 25.9892 105.148C25.9898 105.143 25.9903 105.139 25.9906 105.137C25.9908 105.136 25.9909 105.135 25.9909 105.135C25.9909 105.134 25.991 105.134 25.991 105.134C25.991 105.134 25.991 105.134 25.991 105.134C25.991 105.134 25.9909 105.134 25 105C24.0091 104.866 24.0091 104.866 24.009 104.866C24.009 104.866 24.009 104.866 24.009 104.866C24.009 104.867 24.0089 104.867 24.0088 104.867C24.0087 104.868 24.0085 104.87 24.0083 104.871C24.0079 104.875 24.0072 104.879 24.0064 104.886C24.0048 104.898 24.0025 104.915 23.9996 104.938C23.9938 104.983 23.9856 105.049 23.9754 105.133C23.955 105.302 23.9271 105.545 23.8961 105.847C23.8342 106.451 23.7599 107.294 23.7103 108.25C23.6125 110.137 23.6048 112.562 24.0234 114.465L25.9767 114.035ZM30 125V120H28V125H30ZM37 105C36.0091 105.134 36.0091 105.134 36.0091 105.134C36.0091 105.134 36.0091 105.134 36.0091 105.134C36.0091 105.134 36.0091 105.134 36.0091 105.135C36.0092 105.135 36.0093 105.136 36.0094 105.137C36.0097 105.139 36.0102 105.143 36.0108 105.148C36.0121 105.157 36.0141 105.172 36.0167 105.193C36.0219 105.233 36.0295 105.294 36.039 105.373C36.0581 105.531 36.0847 105.762 36.1144 106.051C36.1737 106.63 36.2449 107.439 36.2924 108.354C36.3886 110.21 36.3809 112.41 36.0234 114.035L37.9767 114.465C38.3952 112.562 38.3875 110.137 38.2897 108.25C38.2401 107.294 38.1658 106.451 38.1039 105.847C38.073 105.545 38.045 105.302 38.0246 105.133C38.0145 105.049 38.0062 104.983 38.0004 104.938C37.9975 104.915 37.9952 104.898 37.9936 104.886C37.9928 104.879 37.9922 104.875 37.9917 104.871C37.9915 104.87 37.9913 104.868 37.9912 104.867C37.9911 104.867 37.9911 104.867 37.991 104.866C37.991 104.866 37.991 104.866 37.991 104.866C37.991 104.866 37.9909 104.866 37 105ZM36.0234 114.035C35.6105 115.912 34.7175 117.189 33.9365 117.997C33.5446 118.402 33.181 118.689 32.9217 118.87C32.7922 118.961 32.6895 119.025 32.6234 119.065C32.5904 119.084 32.5665 119.098 32.5532 119.105C32.5465 119.109 32.5424 119.111 32.5411 119.112C32.5405 119.112 32.5405 119.112 32.5413 119.111C32.5417 119.111 32.5422 119.111 32.543 119.111C32.5434 119.11 32.5438 119.11 32.5442 119.11C32.5445 119.11 32.5448 119.11 32.545 119.11C32.5454 119.109 32.5458 119.109 33 120C33.4543 120.891 33.4547 120.891 33.4551 120.89C33.4553 120.89 33.4557 120.89 33.4561 120.89C33.4567 120.89 33.4574 120.889 33.4582 120.889C33.4597 120.888 33.4613 120.887 33.4632 120.886C33.4669 120.884 33.4714 120.882 33.4766 120.879C33.4871 120.874 33.5004 120.867 33.5165 120.858C33.5487 120.84 33.592 120.816 33.645 120.784C33.7509 120.721 33.8961 120.63 34.0698 120.508C34.4168 120.265 34.8809 119.897 35.3741 119.387C36.3632 118.365 37.4702 116.767 37.9767 114.465L36.0234 114.035ZM32 120V125H34V120H32ZM33 124H29V126H33V124ZM37.5 109H40.847V107H37.5V109ZM40.847 109L40.6504 110.376L42.6303 110.659L42.8269 109.283L40.847 109ZM40.6504 110.376C40.3379 112.563 38.5854 114.262 36.3896 114.506L36.6104 116.494C39.7127 116.149 42.1888 113.749 42.6303 110.659L40.6504 110.376ZM40.847 109V109L42.8269 109.283C42.999 108.078 42.0641 107 40.847 107V109ZM24.5 107H21.153V109H24.5V107ZM19.1731 109.283L19.3697 110.659L21.3496 110.376L21.153 109L19.1731 109.283ZM19.3697 110.659C19.8112 113.749 22.2873 116.149 25.3896 116.494L25.6104 114.506C23.4146 114.262 21.6621 112.563 21.3496 110.376L19.3697 110.659ZM21.153 107C19.9359 107 19.001 108.078 19.1731 109.283L21.153 109L21.153 109V107ZM25 126H37V124H25V126Z" fill="#14142B"/>
<rect x="0.5" y="84.5" width="61" height="61" rx="30.5" stroke="#202C35" stroke-opacity="0.5"/>
<line x1="31.5" y1="-2.18557e-08" x2="31.5" y2="84" stroke="#202C35" stroke-opacity="0.5"/>
</svg>
