<svg width="62" height="146" viewBox="0 0 62 146" fill="none" xmlns="http://www.w3.org/2000/svg">
<path d="M37.9506 120.38C36.3783 119.567 33.7849 118.5 31 118.5C28.2151 118.5 25.6217 119.567 24.0494 120.38C23.0343 120.905 22.423 121.935 22.2883 123.07L22 125.5H40L39.7117 123.07C39.577 121.935 38.9657 120.905 37.9506 120.38Z" stroke="#C19A36" stroke-width="2" stroke-linecap="round" stroke-linejoin="round"/>
<path d="M31 114C33.4853 114 35.5 111.985 35.5 109.5C35.5 107.015 33.4853 105 31 105C28.5147 105 26.5 107.015 26.5 109.5C26.5 111.985 28.5147 114 31 114Z" stroke="#C19A36" stroke-width="2" stroke-linecap="round" stroke-linejoin="round"/>
<rect x="0.5" y="84.5" width="61" height="61" rx="30.5" stroke="#C19A36" stroke-opacity="0.5"/>
<line x1="31.5" y1="-2.18557e-08" x2="31.5" y2="84" stroke="#C19A36" stroke-opacity="0.5"/>
</svg>
