<svg width="62" height="296" viewBox="0 0 62 296" fill="none" xmlns="http://www.w3.org/2000/svg">
<line x1="31.5" y1="62" x2="31.5" y2="284" stroke="white" stroke-opacity="0.5"/>
<circle cx="31" cy="290" r="5.5" stroke="white"/>
<circle cx="31" cy="124" r="6" fill="white"/>
<path d="M24.9995 21V20C24.4992 20 24.0759 20.3698 24.0086 20.8656L24.9995 21ZM36.9995 21L37.9905 20.8656C37.9232 20.3698 37.4999 20 36.9995 20V21ZM28.9995 36H29.9995C29.9995 35.6241 29.7887 35.2799 29.4538 35.1091L28.9995 36ZM24.9995 30.25L25.9762 30.0352L24.9995 30.25ZM28.9995 41H27.9995C27.9995 41.5523 28.4472 42 28.9995 42V41ZM36.9995 30.25L36.0229 30.0352L36.9995 30.25ZM32.9995 36L32.5453 35.1091C32.2104 35.2799 31.9995 35.6241 31.9995 36H32.9995ZM32.9995 41V42C33.5518 42 33.9995 41.5523 33.9995 41H32.9995ZM41.8365 25.1414L42.8264 25.2828V25.2828L41.8365 25.1414ZM41.6398 26.5178L40.6499 26.3764V26.3764L41.6398 26.5178ZM36.3891 30.5061C35.8402 30.5671 35.4446 31.0615 35.5056 31.6104C35.5666 32.1593 36.061 32.5549 36.61 32.4939L36.3891 30.5061ZM20.1626 25.1414L21.1525 25V25L20.1626 25.1414ZM20.3592 26.5178L19.3693 26.6592H19.3693L20.3592 26.5178ZM25.3891 32.4939C25.938 32.5549 26.4324 32.1593 26.4934 31.6104C26.5544 31.0615 26.1589 30.5671 25.61 30.5061L25.3891 32.4939ZM24.9995 40C24.4472 40 23.9995 40.4477 23.9995 41C23.9995 41.5523 24.4472 42 24.9995 42V40ZM36.9995 42C37.5518 42 37.9995 41.5523 37.9995 41C37.9995 40.4477 37.5518 40 36.9995 40V42ZM24.9995 22H36.9995V20H24.9995V22ZM28.9995 36C29.4538 35.1091 29.4542 35.1093 29.4546 35.1095C29.4547 35.1096 29.4551 35.1098 29.4553 35.1099C29.4558 35.1101 29.4562 35.1104 29.4566 35.1105C29.4573 35.1109 29.4579 35.1112 29.4583 35.1114C29.459 35.1118 29.4591 35.1119 29.4584 35.1115C29.4571 35.1108 29.4531 35.1087 29.4464 35.105C29.433 35.0976 29.4092 35.0843 29.3761 35.0646C29.31 35.0253 29.2073 34.9612 29.0779 34.8705C28.8186 34.6886 28.455 34.4021 28.0631 33.997C27.2821 33.1895 26.389 31.912 25.9762 30.0352L24.0229 30.4648C24.5293 32.7672 25.6363 34.3647 26.6255 35.3874C27.1187 35.8973 27.5827 36.2648 27.9297 36.5081C28.1035 36.6299 28.2487 36.7211 28.3546 36.7841C28.4076 36.8155 28.4508 36.84 28.483 36.8577C28.4991 36.8665 28.5125 36.8737 28.5229 36.8792C28.5281 36.882 28.5326 36.8843 28.5363 36.8863C28.5382 36.8872 28.5399 36.8881 28.5414 36.8889C28.5421 36.8893 28.5428 36.8896 28.5435 36.8899C28.5438 36.8901 28.5443 36.8903 28.5444 36.8904C28.5449 36.8907 28.5453 36.8909 28.9995 36ZM25.9762 30.0352C25.6186 28.4098 25.6109 26.2102 25.7072 24.3538C25.7546 23.4385 25.8258 22.6302 25.8852 22.0511C25.9148 21.7619 25.9414 21.5306 25.9605 21.3725C25.97 21.2935 25.9777 21.2329 25.9829 21.1925C25.9854 21.1724 25.9874 21.1573 25.9887 21.1475C25.9894 21.1426 25.9898 21.1391 25.9901 21.1369C25.9903 21.1358 25.9904 21.135 25.9904 21.1346C25.9905 21.1344 25.9905 21.1343 25.9905 21.1342C25.9905 21.1342 25.9905 21.1343 25.9905 21.1343C25.9905 21.1343 25.9905 21.1344 24.9995 21C24.0086 20.8656 24.0086 20.8657 24.0086 20.8659C24.0086 20.866 24.0085 20.8661 24.0085 20.8663C24.0085 20.8666 24.0084 20.867 24.0084 20.8675C24.0082 20.8685 24.008 20.8698 24.0078 20.8714C24.0074 20.8748 24.0067 20.8795 24.0059 20.8855C24.0044 20.8976 24.0021 20.9151 23.9992 20.9377C23.9934 20.9829 23.9851 21.0486 23.9749 21.133C23.9546 21.3017 23.9266 21.5449 23.8956 21.8472C23.8337 22.4513 23.7594 23.294 23.7098 24.2502C23.6121 26.1368 23.6044 28.5622 24.0229 30.4648L25.9762 30.0352ZM29.9995 41V36H27.9995V41H29.9995ZM36.9995 21C36.0086 21.1344 36.0086 21.1343 36.0086 21.1343C36.0086 21.1343 36.0086 21.1342 36.0086 21.1342C36.0086 21.1343 36.0086 21.1344 36.0086 21.1346C36.0087 21.135 36.0088 21.1358 36.0089 21.1369C36.0092 21.1391 36.0097 21.1426 36.0104 21.1475C36.0116 21.1573 36.0136 21.1724 36.0162 21.1925C36.0214 21.2329 36.029 21.2935 36.0386 21.3725C36.0576 21.5306 36.0842 21.7619 36.1139 22.0511C36.1732 22.6302 36.2445 23.4385 36.2919 24.3538C36.3881 26.2102 36.3804 28.4098 36.0229 30.0352L37.9762 30.4648C38.3947 28.5622 38.387 26.1368 38.2892 24.2502C38.2397 23.294 38.1654 22.4513 38.1035 21.8472C38.0725 21.5449 38.0445 21.3017 38.0242 21.133C38.014 21.0486 38.0057 20.9829 37.9999 20.9377C37.997 20.9151 37.9947 20.8976 37.9931 20.8855C37.9923 20.8795 37.9917 20.8748 37.9912 20.8714C37.991 20.8698 37.9908 20.8685 37.9907 20.8675C37.9907 20.867 37.9906 20.8666 37.9906 20.8663C37.9905 20.8661 37.9905 20.866 37.9905 20.8659C37.9905 20.8657 37.9905 20.8656 36.9995 21ZM36.0229 30.0352C35.61 31.912 34.717 33.1895 33.936 33.997C33.5441 34.4021 33.1805 34.6886 32.9212 34.8705C32.7917 34.9612 32.6891 35.0253 32.6229 35.0646C32.5899 35.0843 32.5661 35.0976 32.5527 35.105C32.546 35.1087 32.5419 35.1108 32.5406 35.1115C32.54 35.1119 32.54 35.1118 32.5408 35.1114C32.5412 35.1112 32.5418 35.1109 32.5425 35.1105C32.5429 35.1104 32.5433 35.1101 32.5438 35.1099C32.544 35.1098 32.5444 35.1096 32.5445 35.1095C32.5449 35.1093 32.5453 35.1091 32.9995 36C33.4538 36.8909 33.4542 36.8907 33.4547 36.8904C33.4548 36.8903 33.4553 36.8901 33.4556 36.8899C33.4562 36.8896 33.4569 36.8893 33.4577 36.8889C33.4592 36.8881 33.4609 36.8872 33.4627 36.8863C33.4665 36.8843 33.4709 36.882 33.4762 36.8792C33.4866 36.8737 33.4999 36.8665 33.516 36.8577C33.5482 36.84 33.5915 36.8155 33.6445 36.7841C33.7504 36.7211 33.8956 36.6299 34.0693 36.5081C34.4164 36.2648 34.8804 35.8973 35.3736 35.3874C36.3627 34.3647 37.4697 32.7672 37.9762 30.4648L36.0229 30.0352ZM31.9995 36V41H33.9995V36H31.9995ZM32.9995 40H28.9995V42H32.9995V40ZM37.4995 25H40.8465V23H37.4995V25ZM40.8465 25L40.6499 26.3764L42.6298 26.6592L42.8264 25.2828L40.8465 25ZM40.6499 26.3764C40.3374 28.5635 38.5849 30.2621 36.3891 30.5061L36.61 32.4939C39.7122 32.1492 42.1884 29.7493 42.6298 26.6592L40.6499 26.3764ZM40.8465 25V25L42.8264 25.2828C42.9985 24.078 42.0636 23 40.8465 23V25ZM24.4995 23H21.1525V25H24.4995V23ZM19.1726 25.2828L19.3693 26.6592L21.3492 26.3764L21.1525 25L19.1726 25.2828ZM19.3693 26.6592C19.8107 29.7493 22.2868 32.1492 25.3891 32.4939L25.61 30.5061C23.4142 30.2621 21.6616 28.5635 21.3492 26.3764L19.3693 26.6592ZM21.1525 23C19.9354 23 19.0005 24.078 19.1726 25.2828L21.1525 25L21.1525 25V23ZM24.9995 42H36.9995V40H24.9995V42Z" fill="#FCFCFC"/>
<rect x="0.5" y="0.5" width="61" height="61" rx="30.5" stroke="white" stroke-opacity="0.5"/>
</svg>
