<svg width="220" height="44" viewBox="0 0 220 44" fill="none" xmlns="http://www.w3.org/2000/svg">
<g clip-path="url(#clip0_602_833)">
<path d="M12.9482 44C22.4054 44 27.189 39.7073 27.189 34.8623C27.189 30.1498 24.7296 28.2339 12.9922 25.5888C5.7932 23.9886 2.20154 22.221 0 20.3271V40.1682C3.92818 42.5923 8.88794 44 12.9482 44Z" fill="white"/>
<path d="M32.5419 27.8803C33.1422 25.8206 33.4451 23.6852 33.4414 21.5392C33.5075 8.85366 23.742 0 9.85347 0H0V3.32683C0 10.9242 2.17324 14.734 15.2724 17.7073C24.3585 19.7747 30.3247 21.7791 32.5419 27.8803Z" fill="white"/>
<path d="M46.2324 36.0837H58.7906C64.9707 36.0837 69.0498 33.2082 69.0498 28.3442V28.2622C69.0498 24.3704 66.3451 22.426 62.9924 21.4128C65.2128 20.4407 67.4741 18.5342 67.4741 14.8475V14.7655C67.4885 13.9254 67.3351 13.091 67.0228 12.3114C66.7106 11.5319 66.246 10.823 65.6563 10.2266C64.0429 8.6484 61.4985 7.70149 58.2654 7.70149H46.2324V36.0711V36.0837ZM64.2442 15.2926C64.2442 18.6163 61.5772 20.3428 57.7433 20.3428H49.3775V10.5896H57.9824C62.0206 10.5896 64.241 12.414 64.241 15.2105V15.2926H64.2442ZM65.8167 28.0602V28.1422C65.8167 31.2986 63.1497 33.1924 58.8693 33.1924H49.3775V23.1962H58.3032C63.2315 23.1962 65.8167 24.9795 65.8167 28.0602ZM75.3871 36.0837H96.025V33.1672H78.5668V23.2372H93.9964V20.3176H78.5668V10.6306H95.8143V7.71411H75.3714V36.0837H75.3871ZM111.291 36.0837H114.512V24.8186L126.265 7.71411H122.547L112.936 21.8989L103.406 7.71411H99.5286L111.282 24.8596V36.0837H111.291ZM142.062 36.5729C150.667 36.5729 156.53 29.7236 156.53 21.8989V21.8168C156.53 13.9953 150.752 7.22803 142.15 7.22803C133.549 7.22803 127.683 14.0774 127.683 21.8989V21.981C127.683 29.8025 133.457 36.5729 142.059 36.5729H142.062ZM142.144 33.6122C135.684 33.6122 130.998 28.3442 130.998 21.8989V21.8168C130.998 15.3747 135.602 10.1856 142.062 10.1856C148.522 10.1856 153.202 15.4662 153.202 21.8989V21.981C153.202 28.4231 148.598 33.6122 142.135 33.6122H142.144ZM163.266 36.0837H166.374V12.8211L184.615 36.0837H187.159V7.71411H184.049V30.4401L166.238 7.71411H163.251V36.0837H163.266ZM195.17 36.0837H204.986C213.87 36.0837 220.009 29.8846 220.009 21.8989V21.8168C220.009 13.8343 213.87 7.71411 204.986 7.71411H195.16V36.0837H195.17ZM204.986 10.6716C212.134 10.6716 216.698 15.6177 216.698 21.8989V21.981C216.698 28.2622 212.134 33.1262 204.986 33.1262H198.353V10.6716H204.986Z" fill="white"/>
</g>
<defs>
<clipPath id="clip0_602_833">
<rect width="220" height="44" fill="white"/>
</clipPath>
</defs>
</svg>
