<svg width="446" height="89" viewBox="0 0 446 89" fill="none" xmlns="http://www.w3.org/2000/svg">
<g clip-path="url(#clip0_601_700)">
<path d="M26.2495 89C45.4219 89 55.1196 80.3171 55.1196 70.5169C55.1196 60.9848 50.1336 57.1094 26.3388 51.7592C11.7444 48.5222 4.46312 44.9469 0 41.1162V81.2492C7.96349 86.1525 18.0183 89 26.2495 89Z" fill="white"/>
<path d="M65.9714 56.3943C67.1882 52.2281 67.8023 47.9086 67.7949 43.5679C67.9287 17.9085 48.1316 0 19.9757 0H0V6.72927C0 22.0968 4.40574 29.8029 30.9613 35.8171C49.3813 39.9989 61.4763 44.0531 65.9714 56.3943Z" fill="white"/>
<path d="M93.7256 72.9877H119.185C131.713 72.9877 139.983 67.1714 139.983 57.3329V57.1669C139.983 49.2948 134.499 45.3619 127.703 43.3125C132.204 41.3461 136.788 37.4898 136.788 30.0327V29.8667C136.817 28.1675 136.506 26.4797 135.873 24.9029C135.24 23.3261 134.299 21.8922 133.103 20.6858C129.832 17.4936 124.674 15.5782 118.12 15.5782H93.7256V72.9621V72.9877ZM130.24 30.933C130.24 37.6558 124.834 41.1482 117.061 41.1482H100.101V21.42H117.546C125.733 21.42 130.234 25.1103 130.234 30.767V30.933H130.24ZM133.428 56.7583V56.9243C133.428 63.3088 128.022 67.1395 119.344 67.1395H100.101V46.9198H118.196C128.187 46.9198 133.428 50.527 133.428 56.7583ZM152.83 72.9877H194.669V67.0884H159.276V47.0028H190.556V41.0971H159.276V21.503H194.242V15.6038H152.798V72.9877H152.83ZM225.617 72.9877H232.146V50.2014L255.973 15.6038H248.437L228.952 44.2957L209.633 15.6038H201.771L225.598 50.2844V72.9877H225.617ZM287.999 73.9773C305.443 73.9773 317.328 60.1229 317.328 44.2957V44.1297C317.328 28.3089 305.616 14.6205 288.178 14.6205C270.739 14.6205 258.848 28.4749 258.848 44.2957V44.4617C258.848 60.2825 270.555 73.9773 287.993 73.9773H287.999ZM288.165 67.9886C275.069 67.9886 265.569 57.3329 265.569 44.2957V44.1297C265.569 31.099 274.903 20.6028 287.999 20.6028C301.095 20.6028 310.582 31.2841 310.582 44.2957V44.4617C310.582 57.4925 301.248 67.9886 288.146 67.9886H288.165ZM330.985 72.9877H337.285V25.9339L374.265 72.9877H379.423V15.6038H373.117V61.5722L337.01 15.6038H330.953V72.9877H330.985ZM395.662 72.9877H415.561C433.573 72.9877 446.019 60.4485 446.019 44.2957V44.1297C446.019 27.9833 433.573 15.6038 415.561 15.6038H395.643V72.9877H395.662ZM415.561 21.586C430.054 21.586 439.305 31.5906 439.305 44.2957V44.4617C439.305 57.1669 430.054 67.0054 415.561 67.0054H402.115V21.586H415.561Z" fill="white"/>
</g>
<defs>
<clipPath id="clip0_601_700">
<rect width="446" height="89" fill="white"/>
</clipPath>
</defs>
</svg>
