<svg width="323" height="79" viewBox="0 0 323 79" fill="none" xmlns="http://www.w3.org/2000/svg">
<g clip-path="url(#clip0_3_716)">
<path d="M14.4788 58.1965C11.8786 58.2064 9.34016 57.4051 7.21801 55.9046C4.96419 54.3298 3.15032 52.2064 1.94825 49.7357C0.661056 47.0877 -0.00772095 44.1826 -0.00772095 41.2392C-0.00772095 38.2957 0.661056 35.3906 1.94825 32.7427C3.15138 30.2726 4.96505 28.1495 7.21801 26.5738C9.34016 25.0732 11.8786 24.2719 14.4788 24.2818C15.6942 24.2705 16.9051 24.4302 18.0759 24.7563C19.311 25.1246 20.5259 25.557 21.7158 26.0518C21.8394 26.1135 22.1577 26.2463 22.6662 26.4456C23.1042 26.6223 23.5534 26.7697 24.0109 26.887C24.3373 26.9701 24.6721 27.0163 25.0088 27.0246C25.2315 27.0294 25.4518 26.9774 25.6488 26.8736C25.8459 26.7698 26.0132 26.6177 26.135 26.4314C26.4308 26.0077 26.6214 25.5197 26.691 25.0078V38.3659C26.1269 35.8057 25.1649 33.3495 23.8399 31.0866C22.7437 29.1856 21.259 27.5364 19.4825 26.2463C18.036 25.1782 16.2917 24.5876 14.493 24.557C13.1835 24.5874 11.9299 25.0935 10.9672 25.9806C9.84893 26.9297 8.94292 28.4134 8.24916 30.4317C7.49126 32.899 7.1398 35.4728 7.20851 38.0527C7.18841 40.811 7.69146 43.5483 8.69107 46.1197C9.54299 48.4307 10.9265 50.5096 12.7301 52.189C14.2112 53.6273 16.1861 54.4471 18.2517 54.481C22.4555 54.481 25.8895 52.1083 28.5537 47.363C27.6304 50.4674 25.8126 53.2318 23.3267 55.3114C20.8969 57.238 17.9476 58.1997 14.4788 58.1965Z" fill="white"/>
<path d="M40.6993 58.1965C39.3498 58.1911 38.0209 57.8659 36.8218 57.2475C35.5379 56.5858 34.4685 55.5738 33.7379 54.3291C32.8836 52.8283 32.4656 51.1191 32.5309 49.394V42.2333C32.5309 40.0726 31.6027 38.9923 29.7464 38.9923L39.3973 34.4937V50.1105C39.3973 51.4392 39.4369 52.5465 39.5161 53.4322C39.6098 54.3414 39.9088 55.2175 40.3904 55.9947C40.6312 56.4027 40.9811 56.7355 41.4008 56.956C41.8204 57.1764 42.2933 57.2757 42.7663 57.2427C44.005 57.2427 45.2579 56.5009 46.525 55.0172V42.2333C46.525 40.0726 45.5968 38.9923 43.7405 38.9923L53.3962 34.4937V53.9495C53.4203 54.7111 53.6609 55.4501 54.0899 56.0801C54.3323 56.4545 54.6526 56.7725 55.0289 57.0124C55.4053 57.2523 55.8289 57.4085 56.271 57.4705H46.4965V55.3873C44.7669 57.2854 42.8345 58.2345 40.6993 58.2345V58.1965Z" fill="white"/>
<path d="M66.687 24.277V53.9353C66.7111 54.6968 66.9517 55.4358 67.3808 56.0659C67.6232 56.4403 67.9434 56.7583 68.3198 56.9982C68.6961 57.2381 69.1197 57.3943 69.5618 57.4563H56.941C57.3832 57.3943 57.8068 57.2381 58.1831 56.9982C58.5594 56.7583 58.8797 56.4403 59.1221 56.0659C59.549 55.4348 59.7895 54.6964 59.8159 53.9353V32.0166C59.8159 29.8528 58.8877 28.7709 57.0313 28.7709L66.687 24.277Z" fill="white"/>
<path d="M72.9499 56.0659C73.3801 55.4361 73.6224 54.6972 73.6484 53.9352V42.2333C73.6484 40.0726 72.7202 38.9923 70.8638 38.9923L80.5148 34.4937V53.9495C80.5412 54.7106 80.7816 55.449 81.2085 56.0801C81.451 56.4545 81.7712 56.7725 82.1475 57.0124C82.5239 57.2523 82.9475 57.4085 83.3896 57.4705H70.7688C71.2109 57.4085 71.6346 57.2523 72.0109 57.0124C72.3872 56.7725 72.7075 56.4545 72.9499 56.0801V56.0659ZM73.5296 30.65C72.904 30.006 72.5204 29.166 72.4439 28.272C72.3673 27.3781 72.6024 26.4852 73.1095 25.7445C73.6165 25.0038 74.3642 24.4609 75.2261 24.2076C76.088 23.9543 77.0111 24.0062 77.8391 24.3545C78.667 24.7029 79.349 25.3263 79.7695 26.1191C80.19 26.912 80.3233 27.8256 80.1466 28.7053C79.97 29.5851 79.4944 30.3768 78.8003 30.9465C78.1063 31.5162 77.2364 31.8289 76.3379 31.8316C75.8138 31.8367 75.2942 31.7346 74.8112 31.5313C74.3282 31.3281 73.892 31.0281 73.5296 30.65Z" fill="white"/>
<path d="M86.312 56.0659C86.7423 55.4361 86.9845 54.6972 87.0105 53.9353V32.0166C87.0105 29.8528 86.0823 28.7709 84.226 28.7709L93.8769 24.277V36.6955C94.4993 36.079 95.2204 35.5706 96.0105 35.1913C96.9134 34.718 97.9178 34.4705 98.9376 34.47C100.773 34.4434 102.569 35.0019 104.065 36.0644C105.579 37.1532 106.772 38.6282 107.519 40.3352C108.36 42.2153 108.78 44.2556 108.75 46.3143V46.4044C108.779 48.463 108.359 50.5032 107.519 52.3835C106.774 54.0917 105.58 55.5673 104.065 56.6543C102.574 57.7074 100.787 58.2592 98.9613 58.2298C97.9492 58.2332 96.952 57.987 96.058 57.5132C95.2692 57.1197 94.5423 56.6129 93.9007 56.009V57.4895H84.1309C84.5734 57.4287 84.9975 57.273 85.374 57.033C85.7505 56.793 86.0705 56.4744 86.312 56.0991V56.0659ZM96.5237 56.9011C97.4327 56.8714 98.2989 56.5082 98.9566 55.8808C99.7501 55.2023 100.411 54.0729 100.952 52.4974C101.551 50.5156 101.826 48.45 101.765 46.3807V46.2858C101.826 44.2165 101.551 42.151 100.952 40.1691C100.411 38.5937 99.7501 37.469 98.9566 36.7904C98.2996 36.1619 97.433 35.7985 96.5237 35.7702C95.5305 35.7831 94.5813 36.1813 93.8769 36.8806V55.7859C94.5791 56.489 95.5293 56.8894 96.5237 56.9011Z" fill="white"/>
<path d="M113.184 53.9352V42.2333C113.184 40.0726 112.255 38.9922 110.399 38.9922L120.05 34.4937V37.3409C120.722 36.5715 121.527 35.9286 122.426 35.4428C123.396 34.8425 124.511 34.5146 125.652 34.4937C127.173 34.43 128.66 34.9534 129.805 35.9552C130.31 36.3876 130.715 36.9242 130.991 37.5281C131.268 38.1319 131.409 38.7886 131.407 39.4525C131.402 40.0051 131.307 40.5531 131.126 41.0754C130.946 41.6861 130.573 42.2221 130.062 42.6034C129.545 42.9914 128.912 43.1953 128.266 43.1824C127.862 43.1894 127.46 43.1152 127.086 42.9642C126.711 42.8132 126.37 42.5884 126.085 42.3033C125.799 42.0182 125.573 41.6785 125.421 41.3045C125.269 40.9305 125.194 40.5299 125.201 40.1264C125.178 39.6089 125.298 39.0949 125.548 38.6411C125.848 38.1874 126.199 37.7687 126.593 37.3931C126.851 37.1691 127.085 36.9195 127.292 36.6481C127.439 36.4471 127.519 36.2045 127.52 35.9552C127.514 35.7922 127.472 35.6324 127.397 35.4879C127.321 35.3433 127.214 35.2176 127.083 35.1201C126.665 34.8357 126.161 34.7049 125.657 34.7499C124.522 34.7621 123.412 35.0908 122.454 35.699C121.555 36.2203 120.741 36.8765 120.04 37.6446V53.959C120.066 54.7209 120.309 55.4598 120.739 56.0896C120.98 56.4649 121.3 56.7835 121.677 57.0235C122.053 57.2635 122.477 57.4192 122.92 57.48H110.304C110.746 57.4192 111.171 57.2635 111.547 57.0235C111.924 56.7835 112.244 56.4649 112.485 56.0896C112.92 55.4531 113.162 54.7053 113.184 53.9352Z" fill="white"/>
<path d="M134.738 40.3352C135.625 38.531 137.013 37.0192 138.735 35.9795C140.458 34.9398 142.443 34.4158 144.455 34.47C146.197 34.4316 147.923 34.8056 149.492 35.5614C150.848 36.2117 151.998 37.2212 152.818 38.4798C153.574 39.6628 153.97 41.0391 153.959 42.4421C153.969 43.6515 153.655 44.8416 153.05 45.8894C152.446 46.9372 151.572 47.8047 150.519 48.4022C149.295 49.09 147.907 49.4344 146.503 49.3987C145.562 49.4011 144.623 49.3233 143.695 49.1662C142.783 49.0144 142.269 48.9194 142.094 48.8862L141.024 48.7012C141.489 50.161 142.32 51.4778 143.438 52.5259C144.448 53.4563 145.776 53.9656 147.15 53.9495C148.811 53.9723 150.427 53.4151 151.721 52.374C152.951 51.4409 153.88 50.1669 154.391 48.7107L154.529 48.8957C154.224 50.6172 153.542 52.2503 152.533 53.679C151.568 55.0563 150.298 56.193 148.822 57.0007C147.367 57.8017 145.731 58.2167 144.07 58.206C142.164 58.2192 140.297 57.6622 138.71 56.6069C137.066 55.5212 135.732 54.0285 134.838 52.2744C133.878 50.4302 133.388 48.3782 133.412 46.3C133.372 44.2347 133.827 42.1898 134.738 40.3352ZM144.455 34.7499C144.034 34.7715 143.624 34.8945 143.261 35.1086C142.898 35.3226 142.592 35.6212 142.369 35.979C141.655 37.0061 141.151 38.164 140.887 39.3861C140.5 40.954 140.313 42.5643 140.331 44.1789C140.332 45.6235 140.535 47.0609 140.934 48.4497C141.98 48.4556 143.023 48.3393 144.042 48.1033C145.103 47.8026 146.034 47.1583 146.689 46.2716C147.492 45.2845 147.896 43.766 147.896 41.7303C147.914 40.1033 147.638 38.4862 147.083 36.9565C146.541 35.4855 145.665 34.7499 144.455 34.7499Z" fill="white"/>
<path d="M27.1994 12.4897C26.8642 13.089 26.5705 13.7105 26.3203 14.3498L26.7337 10.6912H38.3757L38.7891 14.3498C38.5409 13.7096 38.2471 13.088 37.91 12.4897C37.599 11.9937 37.1631 11.588 36.646 11.3128C35.9329 10.9484 35.1368 10.7766 34.3366 10.8146H34.1085V23.328C34.1257 23.724 34.2506 24.1078 34.4697 24.4384C34.6009 24.6348 34.7735 24.8003 34.9754 24.9232C35.1773 25.0461 35.4037 25.1236 35.6386 25.1502H29.4898C29.723 25.1188 29.9466 25.0372 30.1452 24.911C30.3437 24.7848 30.5125 24.6171 30.6397 24.4194C30.861 24.0899 30.9861 23.7054 31.0009 23.309V10.8146H30.7728C29.9727 10.777 29.1766 10.9488 28.4634 11.3128C27.9473 11.5894 27.5118 11.9949 27.1994 12.4897Z" fill="white"/>
<path d="M43.5362 10.359V16.172C43.8481 15.7842 44.242 15.47 44.6897 15.2518C45.1374 15.0336 45.6278 14.9168 46.1259 14.9098C46.7278 14.9118 47.3206 15.0566 47.8556 15.3321C48.428 15.63 48.9053 16.0821 49.2336 16.6371C49.6121 17.3077 49.798 18.0696 49.7705 18.8389V23.5842C49.7832 23.9238 49.8919 24.2529 50.0842 24.5333C50.1895 24.6977 50.3287 24.8378 50.4926 24.9442C50.6565 25.0506 50.8413 25.1208 51.0345 25.1502H46.7056V18.5067C46.7056 17.9136 46.7056 17.4201 46.6533 17.0262C46.6147 16.6197 46.4848 16.2272 46.2732 15.8778C46.165 15.6967 46.0088 15.549 45.8218 15.451C45.6348 15.353 45.4243 15.3086 45.2135 15.3226C44.6908 15.3226 44.1301 15.6501 43.5362 16.3144V23.5747C43.5492 23.9135 43.6561 24.2421 43.845 24.5238C43.9512 24.6874 44.0908 24.8269 44.2545 24.9332C44.4182 25.0395 44.6025 25.1102 44.7954 25.1407H39.1835C39.3808 25.1139 39.5699 25.045 39.738 24.9385C39.9062 24.832 40.0493 24.6906 40.1576 24.5238C40.3498 24.2434 40.4586 23.9143 40.4712 23.5747V13.8136C40.4712 12.8646 40.0578 12.3663 39.2263 12.3663L43.5362 10.359Z" fill="white"/>
<path d="M53.8951 15.6121C54.6285 15.1913 55.4523 14.9523 56.2973 14.9151C57.1423 14.878 57.9839 15.0437 58.7515 15.3985C59.3568 15.6863 59.8701 16.1365 60.234 16.6988C60.5749 17.2261 60.7549 17.8411 60.752 18.4688C60.7544 19.0088 60.6126 19.5398 60.3411 20.0069C60.0697 20.474 59.6784 20.8603 59.2076 21.1261C58.6624 21.4353 58.0429 21.5895 57.4162 21.5722C56.9958 21.5736 56.5761 21.5387 56.1617 21.4678L55.449 21.3444L54.9738 21.259C55.1849 21.914 55.5632 22.5027 56.0714 22.9673C56.5207 23.3826 57.113 23.6087 57.7251 23.5984C58.4675 23.6102 59.1905 23.3617 59.7684 22.8961C60.3167 22.4787 60.7299 21.9093 60.9563 21.259L61.0181 21.3444C60.879 22.1148 60.5725 22.8453 60.12 23.4846C59.6816 24.0979 59.1097 24.6041 58.4474 24.9651C57.7962 25.3206 57.0654 25.5051 56.3233 25.5013C55.4783 25.5037 54.6515 25.256 53.9474 24.7895C53.2132 24.304 52.6174 23.637 52.2177 22.8534C51.7877 22.0306 51.5673 21.1147 51.5762 20.1866C51.5622 19.2603 51.7708 18.3441 52.1845 17.515C52.571 16.7372 53.1624 16.0794 53.8951 15.6121ZM56.5039 15.0332C56.3126 15.0409 56.1261 15.0951 55.9605 15.191C55.7949 15.2869 55.6552 15.4217 55.5535 15.5836C55.2458 16.038 55.0281 16.547 54.912 17.0831C54.7379 17.783 54.6533 18.5021 54.6602 19.2233C54.6616 19.8655 54.7528 20.5043 54.931 21.1214C55.3978 21.1241 55.8634 21.0731 56.3185 20.9695C56.7889 20.8361 57.2027 20.5528 57.497 20.1628C57.8995 19.5671 58.0887 18.8531 58.0339 18.1366C58.0426 17.4105 57.9202 16.6888 57.6728 16.0059C57.6124 15.7379 57.465 15.4973 57.2537 15.3214C57.0423 15.1455 56.7788 15.0442 56.5039 15.0332Z" fill="white"/>
<path d="M100.701 69.8795C99.9531 69.8835 99.2233 69.6528 98.6145 69.2199C97.9655 68.7675 97.4436 68.1564 97.0986 67.4452C96.7326 66.6857 96.5426 65.8537 96.5426 65.0108C96.5426 64.168 96.7326 63.3359 97.0986 62.5765C97.4435 61.8638 97.9654 61.2512 98.6145 60.797C99.2245 60.3664 99.9535 60.1359 100.701 60.1374C101.049 60.1343 101.396 60.179 101.732 60.2703C102.087 60.3763 102.436 60.5015 102.777 60.6451L103.053 60.759C103.177 60.8104 103.306 60.8516 103.438 60.8824C103.53 60.9082 103.626 60.9225 103.723 60.9251C103.791 60.9274 103.859 60.9115 103.919 60.8789C103.979 60.8464 104.029 60.7985 104.065 60.74C104.147 60.6176 104.201 60.4781 104.222 60.3319V64.1662C104.058 63.4309 103.779 62.7261 103.395 62.0782C103.084 61.5303 102.659 61.0547 102.15 60.6831C101.735 60.3821 101.237 60.2164 100.724 60.2086C100.348 60.217 99.9885 60.3621 99.7121 60.6167C99.3414 60.9647 99.0707 61.4054 98.9281 61.8931C98.71 62.6013 98.6088 63.3401 98.6287 64.0807C98.6236 64.8711 98.7688 65.6553 99.0564 66.3917C99.3007 67.055 99.6978 67.6516 100.216 68.1332C100.641 68.5476 101.209 68.7837 101.803 68.7928C103.01 68.7928 103.998 68.1095 104.759 66.7429C104.493 67.6342 103.971 68.4279 103.257 69.0254C102.534 69.6059 101.627 69.9089 100.701 69.8795Z" fill="white"/>
<path d="M107.866 60.1374V63.8767C108.066 63.6274 108.319 63.4254 108.607 63.2851C108.894 63.1449 109.209 63.0698 109.529 63.0652C109.918 63.0656 110.302 63.16 110.646 63.3405C111.014 63.5316 111.32 63.8228 111.53 64.1804C111.777 64.6129 111.898 65.1063 111.877 65.604V68.6647C111.884 68.8834 111.953 69.0956 112.076 69.2769C112.146 69.3848 112.238 69.4764 112.346 69.5452C112.454 69.6141 112.576 69.6585 112.704 69.6755H109.91V65.4047C109.91 65.025 109.91 64.7071 109.876 64.4556C109.851 64.1933 109.767 63.9401 109.629 63.7153C109.561 63.5981 109.461 63.5023 109.341 63.4386C109.221 63.3749 109.085 63.3459 108.95 63.3547C108.735 63.3804 108.528 63.4507 108.342 63.561C108.157 63.6714 107.996 63.8193 107.871 63.9953V68.6647C107.878 68.8834 107.948 69.0956 108.071 69.2769C108.14 69.3848 108.232 69.4764 108.34 69.5452C108.449 69.6141 108.571 69.6585 108.698 69.6755H105.072C105.199 69.6585 105.321 69.6141 105.43 69.5452C105.538 69.4764 105.63 69.3848 105.699 69.2769C105.822 69.0956 105.891 68.8834 105.899 68.6647V62.3629C105.899 61.7413 105.633 61.4139 105.096 61.4139L107.866 60.1374Z" fill="white"/>
<path d="M120.183 69.666H118.719C118.415 69.6823 118.113 69.5954 117.864 69.4192C117.647 69.2541 117.497 69.0166 117.441 68.7501C117.312 69.0947 117.058 69.3778 116.728 69.5426C116.266 69.7839 115.748 69.9 115.227 69.8795C114.814 69.8946 114.403 69.81 114.029 69.6328C113.735 69.496 113.488 69.2767 113.317 69.0016C113.161 68.7541 113.079 68.468 113.079 68.1759C113.071 67.8043 113.194 67.4418 113.426 67.1509C113.655 66.872 113.935 66.6399 114.253 66.4676C114.576 66.2921 114.999 66.0927 115.536 65.8602C115.959 65.6846 116.296 65.5375 116.538 65.4142C116.766 65.3074 116.973 65.1594 117.147 64.9776C117.303 64.8142 117.388 64.596 117.384 64.3702C117.391 64.0918 117.286 63.8223 117.094 63.6204C116.955 63.5032 116.794 63.4151 116.62 63.3613C116.446 63.3075 116.263 63.2891 116.082 63.3072C115.736 63.3077 115.395 63.3976 115.094 63.5682C114.794 63.7197 114.56 63.9766 114.438 64.2895C114.517 64.1686 114.625 64.0692 114.752 64.0001C114.886 63.9274 115.036 63.8898 115.189 63.8909C115.303 63.8897 115.416 63.9114 115.521 63.9546C115.626 63.9978 115.722 64.0617 115.802 64.1424C115.884 64.2248 115.948 64.3226 115.991 64.4302C116.034 64.5378 116.056 64.6529 116.054 64.7688C116.057 64.8849 116.036 65.0003 115.993 65.1081C115.949 65.2158 115.884 65.3135 115.802 65.3952C115.722 65.4768 115.627 65.5413 115.521 65.5846C115.416 65.6278 115.303 65.649 115.189 65.6467C115.009 65.6488 114.833 65.5952 114.685 65.4932C114.537 65.3912 114.424 65.2459 114.362 65.0772C114.307 64.9551 114.279 64.8222 114.281 64.6881C114.287 64.4027 114.391 64.128 114.576 63.9099C114.789 63.6434 115.065 63.4332 115.379 63.2978C115.743 63.1397 116.137 63.0605 116.534 63.0652C117.028 63.0628 117.517 63.1766 117.959 63.3974C118.381 63.6104 118.732 63.9399 118.971 64.3465C119.223 64.7934 119.35 65.3 119.337 65.8128V68.66C119.341 68.8831 119.408 69.1004 119.532 69.2863C119.606 69.3934 119.703 69.4829 119.815 69.5485C119.928 69.6141 120.053 69.6542 120.183 69.666ZM115.469 69.2294C115.7 69.4228 115.99 69.5302 116.291 69.5331C116.47 69.5296 116.644 69.477 116.795 69.3813C116.971 69.276 117.116 69.1273 117.218 68.9494C117.334 68.751 117.391 68.5241 117.384 68.2946V64.7451C117.35 64.8843 117.279 65.012 117.18 65.1152C117.061 65.2576 116.866 65.4616 116.6 65.7274C116.195 66.1223 115.82 66.5474 115.479 66.9991C115.223 67.3384 115.083 67.751 115.08 68.1759C115.059 68.3697 115.083 68.5656 115.151 68.7483C115.218 68.9311 115.327 69.0957 115.469 69.2294Z" fill="white"/>
<path d="M123.262 60.1374V68.6789C123.27 68.8977 123.339 69.1099 123.462 69.2911C123.531 69.399 123.623 69.4906 123.731 69.5595C123.84 69.6283 123.962 69.6727 124.089 69.6897H120.463C120.591 69.6727 120.713 69.6283 120.821 69.5595C120.929 69.4906 121.021 69.399 121.091 69.2911C121.213 69.1099 121.283 68.8977 121.29 68.6789V62.3629C121.29 61.7413 121.024 61.4139 120.492 61.4139L123.262 60.1374Z" fill="white"/>
<path d="M127.22 60.1374V68.6789C127.228 68.8977 127.297 69.1099 127.42 69.2911C127.489 69.399 127.581 69.4906 127.69 69.5595C127.798 69.6283 127.92 69.6727 128.047 69.6897H124.422C124.549 69.6727 124.671 69.6283 124.779 69.5595C124.888 69.4906 124.98 69.399 125.049 69.2911C125.172 69.1099 125.241 68.8977 125.248 68.6789V62.3629C125.248 61.7413 124.982 61.4139 124.45 61.4139L127.22 60.1374Z" fill="white"/>
<path d="M128.774 64.7451C129.023 64.2415 129.408 63.8174 129.886 63.5208C130.389 63.2034 130.973 63.0386 131.568 63.0463C132.061 63.0379 132.55 63.1452 132.994 63.3594C133.383 63.5457 133.712 63.8366 133.944 64.1994C134.165 64.5384 134.282 64.934 134.282 65.3382C134.281 65.685 134.189 66.0255 134.014 66.3254C133.84 66.6253 133.59 66.874 133.288 67.0466C132.936 67.2433 132.537 67.3416 132.134 67.3313C131.863 67.3331 131.593 67.3109 131.326 67.2648L130.851 67.1842L130.542 67.132C130.674 67.5526 130.913 67.9319 131.236 68.2329C131.526 68.4978 131.907 68.6421 132.3 68.6362C132.781 68.6357 133.246 68.4679 133.616 68.1617C133.968 67.8919 134.234 67.526 134.381 67.1082L134.419 67.1604C134.332 67.6582 134.134 68.13 133.84 68.5413C133.563 68.9353 133.198 69.2601 132.775 69.4904C132.356 69.7211 131.885 69.8404 131.407 69.8368C130.859 69.8364 130.324 69.671 129.872 69.3623C129.397 69.0532 129.011 68.6244 128.755 68.119C128.478 67.5891 128.336 66.9991 128.342 66.4012C128.335 65.8069 128.47 65.2196 128.736 64.6881L128.774 64.7451ZM131.568 63.1459C131.448 63.152 131.33 63.1871 131.226 63.2482C131.122 63.3093 131.034 63.3947 130.97 63.4971C130.764 63.7897 130.618 64.1204 130.542 64.4698C130.429 64.9197 130.375 65.3822 130.38 65.846C130.38 66.2604 130.439 66.6727 130.556 67.0703C130.855 67.0724 131.154 67.039 131.445 66.9706C131.749 66.8856 132.017 66.702 132.205 66.4486C132.466 66.0656 132.588 65.6054 132.552 65.1437C132.558 64.6763 132.479 64.2116 132.319 63.7723C132.162 63.3547 131.915 63.1459 131.568 63.1459Z" fill="white"/>
<path d="M135.593 69.2816C135.716 69.1004 135.785 68.8882 135.793 68.6695V65.305C135.793 64.6834 135.527 64.356 134.994 64.356L137.765 63.0652V63.8767C137.965 63.6268 138.219 63.4244 138.507 63.2841C138.796 63.1438 139.112 63.0691 139.433 63.0652C139.82 63.0662 140.201 63.1606 140.544 63.3405C140.914 63.529 141.221 63.8208 141.428 64.1804C141.676 64.6129 141.796 65.1063 141.775 65.604V68.6647C141.783 68.8834 141.852 69.0956 141.975 69.2769C142.044 69.3848 142.136 69.4764 142.244 69.5452C142.353 69.6141 142.475 69.6585 142.602 69.6755H139.803V65.4047C139.803 65.0251 139.803 64.7071 139.77 64.4556C139.745 64.1933 139.661 63.9401 139.523 63.7153C139.455 63.5978 139.355 63.5016 139.235 63.4379C139.115 63.3741 138.979 63.3453 138.843 63.3547C138.629 63.3804 138.422 63.4507 138.236 63.561C138.05 63.6714 137.89 63.8193 137.765 63.9953V68.6647C137.772 68.8834 137.841 69.0956 137.964 69.2769C138.034 69.3848 138.126 69.4764 138.234 69.5452C138.342 69.6141 138.464 69.6585 138.591 69.6755H134.952C135.081 69.661 135.206 69.6183 135.316 69.5502C135.427 69.4821 135.522 69.3904 135.593 69.2816Z" fill="white"/>
<path d="M144.018 66.9089C143.758 67.1581 143.605 67.4983 143.59 67.858C143.596 68.0935 143.679 68.3205 143.828 68.5034C143.938 68.6186 144.074 68.7068 144.224 68.7611C144.374 68.8154 144.534 68.8344 144.693 68.8166C144.924 68.8158 145.154 68.7838 145.377 68.7217C145.615 68.66 145.924 68.5651 146.294 68.4322C146.665 68.2993 147.069 68.1807 147.368 68.1048C147.654 68.0302 147.947 67.9919 148.242 67.9909C148.659 67.9826 149.066 68.111 149.402 68.3563C149.563 68.4852 149.691 68.6516 149.774 68.8409C149.857 69.0303 149.892 69.2369 149.877 69.4429C149.867 69.8974 149.679 70.33 149.354 70.6482C148.954 71.0459 148.466 71.3435 147.929 71.5166C147.272 71.7376 146.583 71.8467 145.89 71.8393C146.417 71.8536 146.942 71.7583 147.43 71.5593C147.794 71.4137 148.119 71.1864 148.38 70.895C148.565 70.7029 148.677 70.4532 148.699 70.188C148.703 70.0992 148.672 70.0124 148.613 69.9459C148.583 69.9153 148.546 69.8914 148.506 69.8759C148.466 69.8603 148.423 69.8535 148.38 69.8558C148.018 69.8934 147.662 69.9829 147.325 70.1215C146.898 70.2734 146.518 70.3873 146.18 70.4727C145.818 70.5609 145.446 70.604 145.073 70.6008C144.8 70.6227 144.525 70.5853 144.267 70.4911C144.01 70.3969 143.775 70.2482 143.581 70.0551C143.253 69.6547 143.084 69.1481 143.106 68.6315C143.11 68.2889 143.191 67.9517 143.343 67.6445C143.491 67.3355 143.699 67.0596 143.956 66.833C143.649 66.4638 143.481 65.9987 143.481 65.5186C143.48 65.0812 143.623 64.6557 143.89 64.3085C144.182 63.9223 144.568 63.6169 145.011 63.4211C145.492 63.2006 146.017 63.0889 146.546 63.0937C147.089 63.0922 147.626 63.2105 148.119 63.4401C148.127 62.9481 148.327 62.4785 148.675 62.1304C149.114 61.7775 149.672 61.6075 150.233 61.6559L149.383 62.7188C149.09 62.6851 148.793 62.7293 148.523 62.847C148.417 62.9172 148.331 63.0135 148.274 63.1266C148.216 63.2397 148.189 63.3656 148.195 63.4923C148.61 63.6862 148.969 63.9836 149.236 64.356C149.484 64.6965 149.619 65.1066 149.62 65.5281C149.62 65.9709 149.477 66.4018 149.212 66.7571C148.922 67.1463 148.535 67.4537 148.09 67.6492C147.606 67.8702 147.079 67.9819 146.546 67.9766C146.056 67.9802 145.57 67.8816 145.12 67.6872C144.696 67.5196 144.318 67.2527 144.018 66.9089ZM145.629 66.8093C145.702 67.1047 145.84 67.3802 146.033 67.616C146.094 67.6927 146.17 67.7559 146.257 67.8017C146.343 67.8474 146.439 67.8747 146.537 67.8817C146.634 67.8741 146.729 67.8466 146.816 67.8009C146.903 67.7552 146.979 67.6923 147.04 67.616C147.24 67.3834 147.381 67.107 147.454 66.8093C147.571 66.3828 147.625 65.9417 147.615 65.4996C147.626 65.0621 147.572 64.6255 147.454 64.2041C147.382 63.9133 147.24 63.6444 147.04 63.4211C146.977 63.3481 146.9 63.2882 146.814 63.2451C146.727 63.2019 146.633 63.1763 146.537 63.1696C146.44 63.1757 146.346 63.2011 146.259 63.2443C146.173 63.2875 146.096 63.3477 146.033 63.4211C145.84 63.6478 145.702 63.9157 145.629 64.2041C145.511 64.6255 145.456 65.0621 145.467 65.4996C145.46 65.9337 145.514 66.3667 145.629 66.7856V66.8093Z" fill="white"/>
<path d="M150.913 64.7451C151.162 64.2415 151.547 63.8174 152.025 63.5208C152.528 63.2034 153.112 63.0386 153.707 63.0462C154.2 63.0385 154.688 63.1457 155.133 63.3594C155.521 63.5457 155.851 63.8366 156.083 64.1994C156.302 64.5388 156.418 64.9344 156.416 65.3382C156.417 65.6848 156.326 66.0255 156.152 66.3257C155.979 66.6258 155.728 66.8745 155.427 67.0465C155.075 67.2426 154.676 67.3409 154.273 67.3313C154.002 67.3333 153.731 67.3111 153.465 67.2648L152.99 67.1842L152.681 67.132C152.813 67.5526 153.052 67.9319 153.374 68.2329C153.664 68.4986 154.045 68.643 154.439 68.6362C154.918 68.6366 155.382 68.4686 155.75 68.1617C156.105 67.8936 156.373 67.5272 156.52 67.1082L156.558 67.1604C156.471 67.6582 156.272 68.13 155.978 68.5413C155.701 68.9353 155.337 69.2601 154.914 69.4904C154.495 69.7211 154.024 69.8404 153.545 69.8368C152.996 69.8359 152.46 69.6706 152.006 69.3623C151.533 69.0516 151.15 68.623 150.894 68.119C150.617 67.5891 150.475 66.999 150.481 66.4012C150.473 65.8069 150.609 65.2196 150.875 64.6881L150.913 64.7451ZM153.707 63.1459C153.586 63.1524 153.468 63.1876 153.363 63.2487C153.258 63.3097 153.169 63.3949 153.104 63.4971C152.901 63.7912 152.758 64.1215 152.681 64.4698C152.568 64.9197 152.513 65.3822 152.519 65.846C152.52 66.26 152.577 66.6719 152.69 67.0703C152.991 67.0725 153.291 67.039 153.583 66.9706C153.888 66.8856 154.155 66.702 154.344 66.4486C154.604 66.0656 154.727 65.6054 154.691 65.1437C154.697 64.6763 154.618 64.2116 154.458 63.7723C154.301 63.3547 154.054 63.1459 153.707 63.1459Z" fill="white"/>
<path d="M185.074 0H184.689V73.2772H185.074V0Z" fill="white"/>
<path d="M213.532 20.5377V9.4242C213.516 9.01631 213.388 8.62073 213.162 8.28058C213.03 8.07637 212.856 7.90312 212.651 7.77284C212.446 7.64256 212.215 7.55836 211.974 7.52608H218.222C219.516 7.47402 220.802 7.74133 221.967 8.30431C222.399 8.50379 222.764 8.82437 223.017 9.22706C223.27 9.62975 223.4 10.0972 223.392 10.5726C223.401 10.9076 223.344 11.2411 223.223 11.5539C223.103 11.8666 222.921 12.1524 222.689 12.3948C222.242 12.8687 221.695 13.2381 221.088 13.4767C220.638 13.6791 220.155 13.7981 219.662 13.8279C220.326 13.8813 220.979 14.0283 221.601 14.2644C222.492 14.5665 223.309 15.0514 224.001 15.688C224.351 15.9967 224.63 16.3786 224.816 16.8067C225.002 17.2347 225.092 17.6985 225.079 18.1651C225.103 18.8118 224.946 19.4524 224.626 20.0154C224.306 20.5783 223.837 21.0417 223.269 21.3539C222.037 22.0847 220.354 22.4501 218.222 22.4501H211.974C212.215 22.4187 212.446 22.3349 212.652 22.2046C212.857 22.0742 213.031 21.9005 213.162 21.6956C213.392 21.352 213.52 20.9508 213.532 20.5377ZM219.173 8.35651C218.459 7.85836 217.6 7.61129 216.73 7.6542V14.0224C217.611 14.061 218.476 13.7776 219.163 13.2252C219.786 12.689 220.114 11.8443 220.114 10.677C220.114 9.5982 219.805 8.82471 219.187 8.35651H219.173ZM217.457 22.303C218.208 22.3073 218.948 22.1246 219.61 21.7715C220.287 21.4221 220.851 20.8898 221.239 20.2353C221.627 19.5809 221.824 18.8306 221.805 18.0702C221.83 17.5426 221.742 17.0159 221.547 16.5249C221.352 16.034 221.054 15.5902 220.674 15.223C219.827 14.4862 218.726 14.1083 217.605 14.1695H216.73V22.303H217.457Z" fill="white"/>
<path d="M226.742 14.5539C227.151 13.7242 227.789 13.0293 228.582 12.5522C229.375 12.0751 230.289 11.836 231.214 11.8633C232.014 11.8459 232.806 12.0166 233.528 12.3615C234.15 12.66 234.676 13.1249 235.049 13.7045C235.401 14.2454 235.587 14.8769 235.586 15.5219C235.587 16.0783 235.441 16.6251 235.161 17.1062C234.881 17.5874 234.478 17.9856 233.994 18.26C233.434 18.5838 232.796 18.7479 232.15 18.7345C231.718 18.7345 231.288 18.698 230.862 18.6254L230.126 18.5067L229.651 18.4213C229.865 19.0933 230.247 19.6994 230.762 20.1818C231.228 20.6064 231.838 20.8372 232.468 20.8272C233.231 20.8397 233.975 20.5844 234.569 20.1059C235.134 19.6762 235.56 19.0905 235.795 18.4213L235.856 18.5067C235.713 19.3011 235.397 20.0543 234.93 20.7133C234.485 21.344 233.901 21.865 233.224 22.2365C232.554 22.6019 231.802 22.7913 231.038 22.787C230.156 22.7928 229.293 22.5314 228.562 22.0372C227.808 21.538 227.194 20.8533 226.78 20.0489C226.337 19.2013 226.11 18.2576 226.12 17.3014C226.108 16.3488 226.323 15.407 226.747 14.5539H226.742ZM231.214 12.0009C231.022 12.0117 230.836 12.0681 230.671 12.1656C230.505 12.263 230.366 12.3985 230.264 12.5608C229.937 13.0309 229.705 13.5594 229.579 14.1173C229.401 14.8391 229.315 15.5805 229.323 16.3239C229.325 16.9854 229.419 17.6434 229.603 18.2789C230.083 18.2822 230.561 18.2296 231.029 18.1224C231.516 17.9825 231.944 17.6855 232.245 17.2777C232.661 16.6629 232.854 15.9244 232.792 15.185C232.798 14.4362 232.671 13.6922 232.416 12.9879C232.352 12.7142 232.2 12.4691 231.983 12.2906C231.765 12.1122 231.495 12.0103 231.214 12.0009Z" fill="white"/>
<path d="M237.653 26.2226C237.526 26.3536 237.374 26.4573 237.205 26.5275C237.037 26.5977 236.856 26.6328 236.674 26.6307C236.446 26.6307 236.332 26.6971 236.332 26.8395C236.336 26.9604 236.366 27.0791 236.419 27.1878C236.472 27.2966 236.548 27.3929 236.64 27.4706C236.867 27.6685 237.162 27.7706 237.463 27.7554C237.78 27.7701 238.097 27.7104 238.387 27.581C238.678 27.4516 238.934 27.2562 239.135 27.0103C239.609 26.3933 239.992 25.7128 240.276 24.9888L241.278 22.6162L237.439 13.8184C237.238 13.4577 236.974 13.1362 236.659 12.8693C236.315 12.538 235.883 12.3123 235.415 12.2192H241.392C241.173 12.235 240.969 12.3347 240.822 12.4974C240.675 12.6601 240.597 12.8733 240.603 13.0923C240.6 13.3507 240.659 13.6061 240.775 13.8373L242.927 18.7582L245.018 13.8373C245.116 13.6163 245.166 13.3769 245.165 13.135C245.168 12.9234 245.105 12.7161 244.985 12.5419C244.911 12.4489 244.819 12.3722 244.715 12.3167C244.61 12.2611 244.495 12.2279 244.376 12.2192H247.151C246.698 12.3056 246.275 12.5103 245.926 12.8124C245.594 13.0843 245.332 13.4306 245.16 13.8231L240.409 25.0031C240.198 25.489 239.963 25.9641 239.705 26.4267C239.484 26.8154 239.187 27.1558 238.831 27.4279C238.441 27.7267 237.959 27.881 237.467 27.8645C237.04 27.8753 236.624 27.7321 236.294 27.4611C235.96 27.1842 235.7 26.8287 235.538 26.4267C235.365 26.0415 235.272 25.6247 235.267 25.2024C235.262 25.014 235.295 24.8265 235.365 24.6515C235.435 24.4764 235.54 24.3173 235.673 24.1841C235.806 24.0508 235.966 23.9462 236.141 23.8765C236.316 23.8068 236.504 23.7735 236.693 23.7788C236.967 23.7888 237.233 23.8778 237.458 24.0351C237.683 24.1925 237.858 24.4114 237.961 24.6655C238.065 24.9197 238.092 25.1983 238.041 25.4678C237.99 25.7373 237.861 25.9863 237.672 26.1847L237.653 26.2226Z" fill="white"/>
<path d="M248.9 22.0372C248.147 21.5377 247.535 20.853 247.123 20.0489C246.68 19.2013 246.453 18.2576 246.462 17.3014C246.454 16.3559 246.681 15.4231 247.123 14.5871C247.54 13.7834 248.157 13.1004 248.914 12.6035C249.647 12.1266 250.502 11.8726 251.376 11.8726C252.25 11.8726 253.105 12.1266 253.837 12.6035C254.604 13.0958 255.228 13.7796 255.648 14.5871C256.09 15.4231 256.317 16.3559 256.308 17.3014C256.318 18.2576 256.091 19.2013 255.648 20.0489C255.235 20.8568 254.617 21.5424 253.856 22.0372C253.123 22.5172 252.265 22.7728 251.388 22.7728C250.511 22.7728 249.653 22.5172 248.919 22.0372H248.9ZM249.917 20.2388C250.022 20.8774 250.243 21.4916 250.568 22.0515C250.829 22.4453 251.095 22.6446 251.366 22.6446C251.637 22.6446 251.903 22.4453 252.174 22.0515C252.507 21.4943 252.731 20.8792 252.835 20.2388C253.021 19.2631 253.107 18.2709 253.091 17.2777C253.107 16.2955 253.021 15.3144 252.835 14.3498C252.734 13.7205 252.51 13.1173 252.174 12.5751C251.903 12.1907 251.637 12.0009 251.366 12.0009C251.095 12.0009 250.829 12.1907 250.568 12.5751C250.242 13.1174 250.021 13.7163 249.917 14.3403C249.73 15.308 249.644 16.2923 249.66 17.2777C249.645 18.2709 249.731 19.2631 249.917 20.2388Z" fill="white"/>
<path d="M257.976 21.7952C258.173 21.5045 258.284 21.1639 258.294 20.8129V15.427C258.294 14.4352 257.872 13.937 257.016 13.937L261.454 11.8633V13.1588C261.775 12.7595 262.181 12.4363 262.642 12.2123C263.103 11.9883 263.608 11.8691 264.12 11.8633C264.739 11.8642 265.349 12.0139 265.897 12.2999C266.49 12.6023 266.984 13.0663 267.323 13.638C267.711 14.3294 267.902 15.1141 267.874 15.9063V20.8129C267.887 21.1642 267.999 21.5048 268.197 21.7952C268.309 21.967 268.456 22.1127 268.629 22.2224C268.802 22.3321 268.997 22.4033 269.2 22.4311H264.719V15.5978C264.719 14.9857 264.719 14.4779 264.667 14.0746C264.625 13.6563 264.49 13.2525 264.272 12.893C264.159 12.7085 263.998 12.5588 263.805 12.4608C263.612 12.3628 263.395 12.3202 263.179 12.3378C262.638 12.3378 262.063 12.6795 261.454 13.3581V20.8129C261.465 21.1639 261.576 21.5045 261.773 21.7952C261.884 21.967 262.032 22.1127 262.205 22.2224C262.378 22.3321 262.572 22.4033 262.775 22.4311H256.973C257.177 22.4033 257.371 22.3321 257.544 22.2224C257.717 22.1127 257.865 21.967 257.976 21.7952Z" fill="white"/>
<path d="M275.539 22.4453C275.129 22.6609 274.672 22.7733 274.208 22.7728C273.369 22.786 272.547 22.5335 271.861 22.0515C271.166 21.5522 270.617 20.8752 270.274 20.0917C269.887 19.2279 269.694 18.2902 269.708 17.3441V17.3014C269.694 16.3553 269.887 15.4175 270.274 14.5539C270.617 13.7703 271.166 13.0934 271.861 12.5941C272.545 12.1066 273.368 11.8505 274.208 11.8633C274.675 11.863 275.135 11.9753 275.548 12.1907C275.921 12.367 276.262 12.6044 276.556 12.893V10.7434C276.556 9.74687 276.128 9.25336 275.273 9.25336L279.711 7.1844V20.8129C279.722 21.1639 279.832 21.5045 280.029 21.7952C280.141 21.967 280.288 22.1127 280.461 22.2224C280.634 22.3321 280.829 22.4033 281.032 22.4311H276.556V21.7525C276.26 22.0302 275.925 22.2635 275.563 22.4453H275.539ZM274.18 21.7098C274.483 22 274.882 22.1689 275.301 22.1843C275.534 22.1854 275.765 22.1403 275.981 22.0515C276.196 21.9627 276.391 21.832 276.556 21.6671V12.9784C276.232 12.6563 275.796 12.4725 275.339 12.4659C274.92 12.4814 274.521 12.6503 274.218 12.9405C273.784 13.3727 273.469 13.9085 273.301 14.4969C273.027 15.4075 272.902 16.356 272.93 17.3062V17.3489C272.902 18.2991 273.027 19.2476 273.301 20.1581C273.458 20.741 273.761 21.2747 274.18 21.7098Z" fill="white"/>
<path d="M296.257 14.5871C296.604 14.3771 296.902 14.0956 297.131 13.7614C297.346 13.4637 297.465 13.108 297.473 12.7412V17.254C297.464 16.8874 297.345 16.5321 297.131 16.2337C296.905 15.8931 296.606 15.6063 296.257 15.3938C295.941 15.1841 295.572 15.0688 295.192 15.0616H294.275V20.5377C294.291 20.9442 294.419 21.3385 294.646 21.6766C294.776 21.8809 294.95 22.0543 295.154 22.1846C295.358 22.315 295.589 22.3991 295.829 22.4311H289.519C289.759 22.4003 289.99 22.3167 290.195 22.1863C290.4 22.0558 290.573 21.8818 290.702 21.6766C290.93 21.3387 291.06 20.9446 291.077 20.5377V9.42419C291.059 9.01592 290.929 8.62043 290.702 8.28057C290.572 8.07605 290.399 7.90248 290.194 7.77212C289.99 7.64176 289.759 7.55776 289.519 7.52606H300.543L300.971 11.2938C300.713 10.6405 300.41 10.0062 300.063 9.39572C299.742 8.8849 299.293 8.46627 298.761 8.18092C298.027 7.80727 297.208 7.63066 296.385 7.66842H294.275V14.9288H295.192C295.572 14.9167 295.941 14.7983 296.257 14.5871Z" fill="white"/>
<path d="M302.624 22.0372C301.869 21.538 301.256 20.8533 300.842 20.0489C300.399 19.2013 300.172 18.2576 300.182 17.3014C300.173 16.3559 300.4 15.4231 300.842 14.5871C301.259 13.7834 301.876 13.1004 302.634 12.6035C303.367 12.1267 304.223 11.8729 305.098 11.8729C305.972 11.8729 306.828 12.1267 307.561 12.6035C308.314 13.1029 308.928 13.7855 309.343 14.5871C309.784 15.4237 310.011 16.3561 310.004 17.3014C310.011 18.2573 309.784 19.2005 309.343 20.0489C308.928 20.8548 308.311 21.5398 307.552 22.0372C306.816 22.5266 305.951 22.7845 305.067 22.7775C304.197 22.7795 303.346 22.5217 302.624 22.0372ZM303.641 20.2388C303.749 20.8768 303.969 21.4906 304.292 22.0515C304.553 22.4453 304.82 22.6446 305.09 22.6446C305.361 22.6446 305.632 22.4453 305.903 22.0515C306.234 21.4935 306.458 20.8787 306.563 20.2388C306.75 19.2631 306.836 18.2709 306.82 17.2777C306.835 16.2955 306.749 15.3144 306.563 14.3498C306.461 13.7211 306.236 13.1183 305.903 12.5751C305.632 12.1907 305.361 12.0009 305.09 12.0009C304.82 12.0009 304.553 12.1907 304.292 12.5751C303.968 13.1184 303.747 13.7169 303.641 14.3403C303.454 15.308 303.368 16.2923 303.384 17.2777C303.369 18.2709 303.455 19.2631 303.641 20.2388Z" fill="white"/>
<path d="M311.719 21.7952C311.916 21.5045 312.027 21.1639 312.038 20.8129V15.427C312.038 14.4352 311.61 13.937 310.759 13.937L315.174 11.8633V13.1588C315.485 12.8049 315.856 12.5092 316.271 12.2856C316.72 12.0165 317.231 11.8708 317.754 11.8633C318.45 11.8353 319.13 12.0748 319.655 12.5324C319.887 12.731 320.073 12.9778 320.201 13.2556C320.328 13.5334 320.393 13.8356 320.391 14.141C320.389 14.3947 320.346 14.6463 320.263 14.886C320.184 15.1648 320.017 15.4109 319.788 15.5884C319.55 15.7722 319.257 15.8694 318.956 15.8636C318.767 15.8702 318.579 15.8379 318.403 15.7687C318.227 15.6995 318.067 15.5949 317.933 15.4614C317.8 15.3278 317.695 15.1682 317.626 14.9925C317.556 14.8168 317.524 14.6287 317.531 14.44C317.518 14.2015 317.574 13.9645 317.692 13.7567C317.829 13.5488 317.989 13.3563 318.167 13.1825C318.285 13.0802 318.392 12.9657 318.486 12.8408C318.556 12.7496 318.594 12.6379 318.595 12.5229C318.592 12.4477 318.572 12.3742 318.536 12.3077C318.501 12.2413 318.451 12.1835 318.391 12.1385C318.198 12.0121 317.969 11.9537 317.74 11.9724C317.219 11.9733 316.709 12.1196 316.267 12.3948C315.854 12.6355 315.481 12.938 315.159 13.2916V20.8129C315.173 21.1635 315.283 21.5035 315.478 21.7952C315.589 21.967 315.737 22.1127 315.91 22.2224C316.083 22.3321 316.277 22.4033 316.481 22.4311H310.683C310.892 22.4079 311.093 22.3389 311.273 22.229C311.452 22.1191 311.604 21.9709 311.719 21.7952Z" fill="white"/>
<path d="M220.294 33.426C220.494 33.5114 220.684 33.5826 220.869 33.649C221.022 33.7054 221.182 33.7374 221.344 33.7439C221.71 33.7439 221.924 33.5257 221.981 33.0843L222.456 37.6398C221.995 36.3183 221.275 35.102 220.337 34.0619C219.968 33.6797 219.525 33.3768 219.035 33.172C218.544 32.9672 218.017 32.8647 217.486 32.8708C216.844 32.8514 216.217 33.0713 215.728 33.4877C215.479 33.7244 215.287 34.0132 215.163 34.3332C215.04 34.6532 214.989 34.9965 215.015 35.3384C215.011 35.8894 215.199 36.4246 215.547 36.8521C215.917 37.3204 216.356 37.73 216.849 38.0669C217.358 38.4228 218.056 38.8452 218.935 39.3434C219.886 39.897 220.643 40.3716 221.207 40.767C221.757 41.1407 222.239 41.6062 222.632 42.1431C223.017 42.655 223.223 43.2781 223.221 43.9179C223.244 44.78 222.986 45.6261 222.485 46.3285C221.995 46.9897 221.34 47.5103 220.584 47.8375C219.837 48.1742 219.028 48.3489 218.208 48.35C217.625 48.3614 217.043 48.2927 216.479 48.146C215.948 47.994 215.429 47.8053 214.925 47.5813C214.625 47.4532 214.388 47.3582 214.207 47.2966C214.055 47.2381 213.895 47.206 213.732 47.2017C213.333 47.2017 213.09 47.4532 213.005 47.9657L212.454 42.7458C212.978 44.2572 213.8 45.6481 214.872 46.8363C215.296 47.2752 215.805 47.6225 216.368 47.8568C216.931 48.0911 217.536 48.2073 218.146 48.1982C218.869 48.2308 219.581 48.0128 220.161 47.5813C220.415 47.382 220.618 47.1254 220.754 46.8326C220.889 46.5397 220.953 46.219 220.94 45.8967C220.94 45.4051 220.773 44.9283 220.465 44.5443C220.133 44.1235 219.737 43.7568 219.292 43.4576C218.826 43.1412 218.192 42.7474 217.391 42.276C216.371 41.6844 215.55 41.1672 214.929 40.7243C214.309 40.2818 213.774 39.7303 213.352 39.0967C212.916 38.4371 212.689 37.6615 212.701 36.8711C212.672 36.0706 212.917 35.2841 213.395 34.6408C213.876 34.0197 214.507 33.5301 215.229 33.2172C215.909 32.9117 216.645 32.7501 217.391 32.7427C217.916 32.7347 218.44 32.7954 218.949 32.923C219.411 33.0532 219.861 33.2214 220.294 33.426Z" fill="white"/>
<path d="M228.867 48.331C228.246 48.3285 227.636 48.1789 227.085 47.8945C226.492 47.5906 225.997 47.1249 225.659 46.5515C225.266 45.8617 225.074 45.0763 225.103 44.2833V40.9853C225.103 39.9888 224.675 39.4953 223.825 39.4953L228.258 37.4263V44.606C228.258 45.2134 228.258 45.7211 228.315 46.1245C228.353 46.5436 228.488 46.9482 228.71 47.306C228.818 47.4938 228.977 47.6476 229.169 47.7499C229.36 47.8522 229.576 47.899 229.793 47.885C230.363 47.885 230.938 47.5433 231.523 46.86V40.9853C231.523 39.9888 231.095 39.4953 230.245 39.4953L234.678 37.4263V46.3712C234.688 46.7208 234.799 47.0601 234.996 47.3488C235.107 47.5214 235.254 47.668 235.428 47.7786C235.601 47.8891 235.796 47.961 235.999 47.9894H231.523V47.0403C231.198 47.4358 230.792 47.7566 230.332 47.981C229.872 48.2054 229.369 48.328 228.857 48.3405L228.867 48.331Z" fill="white"/>
<path d="M242.77 37.9151L243.079 38.0432C243.229 38.109 243.391 38.1461 243.554 38.1523C243.827 38.1523 243.985 37.9942 244.03 37.6778L244.391 40.9995C244.06 40.0396 243.538 39.1566 242.856 38.4038C242.584 38.1267 242.258 37.908 241.899 37.7611C241.539 37.6143 241.153 37.5423 240.765 37.5497C239.972 37.5497 239.572 37.9198 239.572 38.6553C239.6 39.1577 239.817 39.631 240.181 39.9793C240.775 40.5951 241.41 41.1706 242.081 41.7018C242.859 42.3075 243.586 42.974 244.258 43.6949C244.716 44.1596 244.982 44.7797 245.004 45.4316C245.028 46.0335 244.823 46.6222 244.429 47.0783C244.035 47.5184 243.532 47.8459 242.97 48.0273C242.382 48.226 241.766 48.327 241.145 48.3263C240.72 48.3329 240.296 48.2786 239.886 48.165C239.492 48.0502 239.107 47.9042 238.736 47.7284C238.421 47.5721 238.082 47.4709 237.733 47.4294C237.406 47.4294 237.215 47.624 237.158 48.0084L236.731 43.9796C237.129 45.1514 237.765 46.2288 238.598 47.1447C238.928 47.4846 239.325 47.7534 239.763 47.9346C240.201 48.1157 240.671 48.2055 241.145 48.1982C241.48 48.2119 241.806 48.0924 242.053 47.866C242.172 47.749 242.265 47.6082 242.325 47.4528C242.386 47.2974 242.413 47.1309 242.404 46.9644C242.4 46.707 242.345 46.453 242.242 46.2168C242.139 45.9807 241.991 45.7671 241.806 45.5882C241.25 45.0343 240.651 44.525 240.014 44.065C239.387 43.5905 238.888 43.1919 238.513 42.8549C238.142 42.5146 237.822 42.1231 237.562 41.6923C237.295 41.276 237.153 40.7917 237.154 40.2972C237.146 39.9101 237.219 39.5255 237.368 39.1678C237.644 38.4281 238.06 37.7483 238.593 37.1653C239.166 36.5362 239.855 36.0237 240.623 35.6563C241.416 35.2708 242.287 35.0742 243.169 35.0821C244.45 35.0217 245.722 35.3244 246.838 35.9553L249.993 34.4842V37.7632H252.188V37.8913H249.993V44.6439C249.958 45.4881 250.166 46.3247 250.592 47.0545C250.748 47.3417 250.978 47.5815 251.259 47.7485C251.54 47.9156 251.861 48.0037 252.188 48.0036C251.046 48.0455 249.903 47.9127 248.8 47.6097C248.157 47.451 247.597 47.0563 247.232 46.5041C246.947 45.9318 246.812 45.2968 246.838 44.6582V39.0682C246.834 38.1695 246.57 37.2912 246.078 36.5389C245.577 35.767 244.603 35.3811 243.155 35.3811C242.042 35.3652 240.947 35.6682 240 36.2542C239.108 36.7879 238.365 37.5389 237.843 38.4371C238.189 38.0846 238.619 37.8251 239.092 37.6826C239.627 37.5122 240.185 37.4289 240.746 37.4358C241.108 37.4298 241.469 37.4729 241.82 37.5639C242.146 37.655 242.464 37.7724 242.77 37.9151Z" fill="white"/>
<path d="M264.011 47.9894H261.664C261.178 48.0129 260.698 47.8743 260.3 47.5955C259.953 47.3217 259.713 46.9357 259.62 46.5041C259.418 47.0576 259.009 47.5116 258.48 47.7711C257.743 48.1633 256.914 48.3517 256.08 48.3168C255.424 48.3357 254.773 48.2008 254.179 47.9229C253.712 47.7 253.316 47.3497 253.039 46.9122C252.765 46.4585 252.636 45.9324 252.668 45.4036C252.7 44.8748 252.893 44.3683 253.22 43.9511C253.582 43.5011 254.031 43.1283 254.541 42.8549C255.054 42.575 255.733 42.2523 256.589 41.9059C257.273 41.6212 257.805 41.3839 258.199 41.1893C258.557 41.0164 258.88 40.7782 259.15 40.487C259.396 40.2319 259.533 39.892 259.535 39.538C259.541 39.0894 259.371 38.6563 259.06 38.3327C258.835 38.1493 258.576 38.0128 258.298 37.9313C258.019 37.8498 257.727 37.8249 257.439 37.8581C256.887 37.8613 256.344 38.0032 255.862 38.271C255.38 38.5146 255.007 38.9293 254.816 39.4336C254.933 39.239 255.097 39.0761 255.291 38.959C255.504 38.8442 255.743 38.7854 255.985 38.7882C256.168 38.7855 256.35 38.8203 256.519 38.8905C256.688 38.9607 256.841 39.0647 256.969 39.1963C257.233 39.4628 257.381 39.8226 257.381 40.1976C257.381 40.5725 257.233 40.9323 256.969 41.1988C256.735 41.4291 256.427 41.57 256.1 41.5969C255.772 41.6237 255.446 41.5349 255.177 41.3459C254.947 41.1685 254.779 40.9226 254.697 40.6436C254.613 40.449 254.569 40.239 254.569 40.0267C254.581 39.5689 254.749 39.1288 255.044 38.7787C255.386 38.352 255.829 38.0162 256.332 37.8012C256.912 37.5438 257.541 37.4158 258.176 37.4263C258.976 37.4188 259.766 37.6027 260.48 37.9625C261.157 38.3068 261.72 38.839 262.101 39.4953C262.506 40.2091 262.709 41.0192 262.69 41.8394V46.376C262.697 46.732 262.804 47.079 262.999 47.3772C263.114 47.5457 263.264 47.6875 263.438 47.7931C263.613 47.8987 263.808 47.9657 264.011 47.9894ZM256.46 47.2871C256.834 47.5932 257.303 47.7609 257.786 47.7616C258.069 47.7539 258.345 47.6703 258.584 47.5196C258.866 47.3487 259.101 47.1106 259.269 46.8268C259.45 46.5092 259.542 46.1484 259.535 45.7828V40.0884C259.476 40.3111 259.362 40.5152 259.202 40.6816C259.012 40.9094 258.695 41.2368 258.252 41.6639C257.602 42.293 257.003 42.9721 256.46 43.6949C256.046 44.2415 255.821 44.9076 255.819 45.593C255.787 45.9022 255.826 46.2146 255.933 46.5065C256.04 46.7984 256.212 47.0621 256.437 47.2776L256.46 47.2871Z" fill="white"/>
<path d="M265.802 46.3712V40.9853C265.802 39.9888 265.375 39.4953 264.524 39.4953L268.953 37.4263V46.3712C268.965 46.7212 269.077 47.0603 269.276 47.3488C269.387 47.5214 269.534 47.668 269.707 47.7786C269.88 47.8891 270.075 47.961 270.279 47.9894H264.481C264.685 47.961 264.88 47.8891 265.053 47.7786C265.226 47.668 265.373 47.5214 265.484 47.3488C265.682 47.0601 265.792 46.7208 265.802 46.3712ZM265.75 35.6705C265.54 35.4579 265.385 35.1968 265.299 34.9103C265.213 34.6237 265.2 34.3205 265.259 34.0274C265.318 33.7343 265.449 33.4603 265.64 33.2296C265.83 32.9989 266.075 32.8186 266.352 32.7045C266.628 32.5905 266.929 32.5463 267.227 32.5757C267.525 32.6052 267.811 32.7074 268.06 32.8735C268.309 33.0395 268.514 33.2642 268.655 33.5277C268.797 33.7912 268.871 34.0855 268.872 34.3846C268.872 34.6227 268.824 34.8584 268.731 35.0776C268.638 35.2969 268.502 35.4953 268.33 35.661C268.167 35.8358 267.969 35.9748 267.749 36.0696C267.529 36.1643 267.292 36.2126 267.052 36.2115C266.81 36.2154 266.569 36.1694 266.345 36.0763C266.121 35.9832 265.918 35.8451 265.75 35.6705Z" fill="white"/>
<path d="M271.709 47.3488C271.908 47.0603 272.02 46.7212 272.032 46.3712V40.9853C272.032 39.9888 271.604 39.4953 270.749 39.4953L275.187 37.4263V38.7265C275.508 38.3267 275.913 38.0027 276.374 37.7779C276.835 37.5531 277.34 37.433 277.853 37.4263C278.472 37.4294 279.081 37.579 279.63 37.8629C280.223 38.1674 280.717 38.6329 281.056 39.2058C281.448 39.8956 281.641 40.6811 281.612 41.4741V46.3712C281.622 46.7208 281.732 47.0601 281.93 47.3488C282.041 47.5214 282.188 47.668 282.361 47.7786C282.534 47.8891 282.729 47.961 282.933 47.9894H278.456V41.1561C278.456 40.544 278.456 40.0362 278.404 39.6329C278.36 39.2064 278.215 38.7966 277.981 38.4371C277.872 38.2493 277.712 38.0956 277.519 37.9934C277.327 37.8912 277.11 37.8443 276.893 37.8581C276.356 37.8581 275.776 38.1998 275.168 38.8831V46.3712C275.178 46.7208 275.289 47.0601 275.487 47.3488C275.598 47.5214 275.745 47.668 275.918 47.7786C276.091 47.8891 276.286 47.961 276.489 47.9894H270.706C270.91 47.961 271.105 47.8891 271.278 47.7786C271.451 47.668 271.598 47.5214 271.709 47.3488Z" fill="white"/>
<path d="M294.869 47.9894H292.522C292.036 48.0129 291.556 47.8743 291.158 47.5955C290.811 47.3217 290.571 46.9357 290.479 46.5041C290.276 47.0576 289.868 47.5116 289.338 47.7711C288.608 48.1592 287.789 48.3474 286.962 48.3168C286.307 48.3357 285.656 48.2008 285.061 47.9229C284.594 47.7 284.198 47.3497 283.921 46.9122C283.647 46.4585 283.518 45.9324 283.55 45.4036C283.582 44.8748 283.775 44.3683 284.102 43.9511C284.464 43.5011 284.913 43.1283 285.423 42.8549C285.936 42.575 286.615 42.2523 287.471 41.9059C288.155 41.6212 288.687 41.3839 289.082 41.1893C289.439 41.0164 289.762 40.7782 290.032 40.487C290.278 40.2319 290.415 39.892 290.417 39.538C290.423 39.0894 290.253 38.6563 289.942 38.3326C289.717 38.1493 289.458 38.0128 289.18 37.9313C288.901 37.8498 288.609 37.8249 288.321 37.8581C287.769 37.8613 287.226 38.0032 286.744 38.271C286.264 38.4993 285.885 38.8963 285.679 39.3861C285.796 39.1916 285.96 39.0286 286.154 38.9116C286.367 38.7967 286.606 38.7379 286.848 38.7407C287.031 38.738 287.213 38.7728 287.382 38.843C287.552 38.9132 287.704 39.0173 287.832 39.1488C288.096 39.4154 288.244 39.7752 288.244 40.1501C288.244 40.525 288.096 40.8848 287.832 41.1514C287.597 41.3747 287.293 41.51 286.969 41.5342C286.646 41.5584 286.325 41.4701 286.059 41.2842C285.824 41.123 285.644 40.8924 285.546 40.6246C285.461 40.43 285.418 40.22 285.418 40.0077C285.43 39.5499 285.597 39.1098 285.893 38.7597C286.235 38.333 286.678 37.9973 287.181 37.7822C287.762 37.5244 288.393 37.3965 289.029 37.4073C289.832 37.4048 290.625 37.5952 291.339 37.9625C292.015 38.3067 292.578 38.839 292.959 39.4953C293.364 40.2091 293.568 41.0192 293.548 41.8394V46.376C293.555 46.732 293.662 47.079 293.857 47.3772C293.972 47.5457 294.122 47.6875 294.297 47.7931C294.471 47.8987 294.666 47.9657 294.869 47.9894ZM287.323 47.2871C287.695 47.5939 288.162 47.7618 288.644 47.7616C288.927 47.7539 289.203 47.6703 289.443 47.5196C289.725 47.3486 289.96 47.1106 290.127 46.8268C290.309 46.5092 290.401 46.1484 290.393 45.7828V40.0884C290.336 40.3119 290.222 40.5165 290.06 40.6816C289.87 40.9094 289.561 41.2368 289.134 41.6639C288.484 42.293 287.885 42.9721 287.342 43.6949C286.928 44.2415 286.703 44.9076 286.701 45.593C286.668 45.9026 286.708 46.2156 286.816 46.5077C286.923 46.7998 287.097 47.0632 287.323 47.2776V47.2871Z" fill="white"/>
<path d="M296.642 46.3712V36.2969C296.642 35.3051 296.214 34.8069 295.363 34.8069L299.797 32.7427V38.4371C300.088 38.1573 300.423 37.9279 300.79 37.7585C301.204 37.539 301.666 37.4249 302.135 37.4263C302.975 37.4132 303.797 37.6675 304.482 38.1523C305.177 38.652 305.725 39.3288 306.069 40.1121C306.455 40.9764 306.647 41.9138 306.635 42.8597V42.9024C306.647 43.8467 306.454 44.7825 306.069 45.6452C305.727 46.4294 305.178 47.1065 304.482 47.605C303.797 48.0899 302.975 48.3442 302.135 48.331C301.67 48.3332 301.213 48.219 300.804 47.9989C300.441 47.8198 300.106 47.5879 299.811 47.3108V47.9894H295.335C295.538 47.9604 295.732 47.8882 295.904 47.7776C296.076 47.6671 296.222 47.5208 296.333 47.3488C296.527 47.0588 296.634 46.7197 296.642 46.3712ZM301.013 47.7331C301.431 47.717 301.829 47.5481 302.13 47.2586C302.566 46.8281 302.882 46.2917 303.047 45.7021C303.324 44.7923 303.451 43.8435 303.423 42.8929V42.8502C303.451 41.8981 303.325 40.9476 303.047 40.0362C302.883 39.4475 302.567 38.9123 302.13 38.4845C301.829 38.1939 301.432 38.0248 301.013 38.01C300.557 38.0165 300.12 38.2003 299.797 38.5225V47.2064C300.12 47.5286 300.557 47.7124 301.013 47.7189V47.7331Z" fill="white"/>
<path d="M311.42 32.7427V46.3712C311.43 46.7208 311.541 47.0601 311.738 47.3488C311.849 47.5214 311.996 47.668 312.169 47.7786C312.342 47.8891 312.537 47.961 312.741 47.9894H306.967C307.17 47.9604 307.364 47.8882 307.536 47.7776C307.708 47.6671 307.855 47.5208 307.965 47.3488C308.164 47.0603 308.276 46.7212 308.288 46.3712V36.2969C308.288 35.3051 307.861 34.8069 307.01 34.8069L311.42 32.7427Z" fill="white"/>
<path d="M313.905 40.1121C314.315 39.2852 314.953 38.5928 315.745 38.1168C316.537 37.6408 317.448 37.4012 318.372 37.4263C319.172 37.4072 319.966 37.5796 320.686 37.9293C321.308 38.2272 321.835 38.6901 322.211 39.2675C322.561 39.8111 322.745 40.4438 322.743 41.0897C322.747 41.6348 322.607 42.1713 322.339 42.6461C322.057 43.1375 321.648 43.5452 321.156 43.8277C320.596 44.1484 319.959 44.3123 319.313 44.3023C318.88 44.3038 318.447 44.2689 318.02 44.1979L317.284 44.0697L316.808 43.9843C317.021 44.6543 317.403 45.2588 317.916 45.7401C318.381 46.1651 318.991 46.3975 319.621 46.3902C320.379 46.3909 321.114 46.1274 321.698 45.6452C322.265 45.2195 322.692 44.6346 322.924 43.9653L322.99 44.0508C322.839 44.8453 322.514 45.5969 322.04 46.2526C321.596 46.8845 321.013 47.4058 320.334 47.7758C319.665 48.1442 318.913 48.3353 318.148 48.331C317.271 48.3365 316.413 48.0804 315.682 47.5955C314.927 47.0962 314.314 46.4094 313.905 45.6025C313.462 44.7567 313.235 43.8144 313.245 42.8597C313.231 41.907 313.446 40.9649 313.872 40.1121H313.905ZM318.372 37.5544C318.18 37.5665 317.994 37.624 317.828 37.7222C317.663 37.8204 317.524 37.9564 317.421 38.1191C317.094 38.588 316.863 39.117 316.742 39.6756C316.564 40.3958 316.477 41.1356 316.485 41.8774C316.486 42.5403 316.579 43.1998 316.761 43.8372C317.241 43.8412 317.72 43.787 318.186 43.6759C318.674 43.5386 319.102 43.2431 319.403 42.836C319.814 42.2207 320.008 41.4859 319.954 40.748C319.962 40.0011 319.836 39.2587 319.583 38.5557C319.322 37.8866 318.928 37.5544 318.372 37.5544Z" fill="white"/>
<path d="M213.162 72.7884C213.388 72.4503 213.517 72.0561 213.532 71.6495V60.536C213.517 60.1295 213.388 59.7353 213.162 59.3971C213.031 59.1916 212.857 59.0171 212.652 58.8859C212.447 58.7547 212.215 58.6701 211.974 58.6379H218.222C219.487 58.6129 220.733 58.9416 221.82 59.5869C222.863 60.2291 223.705 61.1516 224.248 62.249C224.817 63.4473 225.112 64.757 225.112 66.0833C225.112 67.4095 224.817 68.7192 224.248 69.9175C223.705 71.0149 222.863 71.9374 221.82 72.5796C220.733 73.2249 219.487 73.5537 218.222 73.5287H211.974C212.214 73.4986 212.444 73.4169 212.649 73.2891C212.854 73.1612 213.029 72.9904 213.162 72.7884ZM221.805 66.0738C221.805 63.5429 221.439 61.697 220.708 60.536C220.379 59.973 219.902 59.5106 219.33 59.1986C218.757 58.8866 218.109 58.737 217.457 58.766H216.73V73.4195H217.457C218.109 73.4438 218.756 73.2901 219.327 72.9748C219.898 72.6596 220.372 72.1948 220.698 71.6305C221.436 70.441 221.805 68.5888 221.805 66.0738Z" fill="white"/>
<path d="M226.937 65.6657C227.34 64.8613 227.956 64.1832 228.719 63.7059C229.527 63.2146 230.458 62.9643 231.404 62.9846C232.204 62.9669 232.997 63.1376 233.718 63.4828C234.339 63.7838 234.867 64.2481 235.243 64.8258C235.595 65.3685 235.78 66.0018 235.776 66.648C235.779 67.2034 235.634 67.7497 235.355 68.2303C235.075 68.7108 234.673 69.1082 234.189 69.3813C233.629 69.7039 232.991 69.868 232.345 69.8558C231.912 69.855 231.48 69.8201 231.052 69.7514L230.316 69.6233L229.841 69.5378C230.055 70.2073 230.436 70.8115 230.948 71.2936C231.413 71.7186 232.023 71.951 232.654 71.9437C233.417 71.9553 234.161 71.6983 234.754 71.2177C235.318 70.7889 235.744 70.205 235.98 69.5378L236.047 69.6233C235.895 70.4178 235.57 71.1694 235.096 71.8251C234.65 72.4547 234.067 72.9754 233.39 73.3483C232.721 73.7161 231.968 73.9072 231.204 73.9035C230.327 73.909 229.469 73.6529 228.738 73.168C227.983 72.6687 227.37 71.9819 226.961 71.175C226.515 70.3281 226.287 69.3841 226.296 68.4274C226.285 67.4745 226.502 66.5327 226.928 65.6799L226.937 65.6657ZM231.413 63.1127C231.222 63.1248 231.035 63.1823 230.87 63.2805C230.705 63.3786 230.565 63.5147 230.463 63.6774C230.136 64.1445 229.905 64.672 229.784 65.2291C229.605 65.9509 229.519 66.6923 229.527 67.4357C229.528 68.0985 229.621 68.758 229.803 69.3955C230.282 69.3972 230.761 69.343 231.228 69.2341C231.714 69.0963 232.141 68.8008 232.44 68.3942C232.856 67.7811 233.052 67.045 232.996 66.3063C233.004 65.5593 232.879 64.8168 232.625 64.114C232.364 63.4449 231.96 63.1127 231.413 63.1127Z" fill="white"/>
<path d="M237.843 72.907C238.041 72.6182 238.153 72.2793 238.166 71.9295V66.5388C238.166 65.547 237.738 65.0488 236.883 65.0488L241.321 62.9846V64.2848C241.641 63.8842 242.046 63.5597 242.507 63.3348C242.968 63.1099 243.474 62.9903 243.987 62.9846C244.607 62.9882 245.217 63.1377 245.769 63.4211C246.362 63.725 246.856 64.1907 247.194 64.7641C247.586 65.4525 247.779 66.2362 247.75 67.0276V71.9295C247.761 72.2789 247.872 72.618 248.069 72.907C248.18 73.0796 248.327 73.2263 248.5 73.3368C248.673 73.4474 248.868 73.5193 249.071 73.5476H244.59V66.7096C244.59 66.1022 244.59 65.5945 244.538 65.1864C244.499 64.7676 244.364 64.3633 244.144 64.0048C244.033 63.8183 243.873 63.6659 243.681 63.5646C243.488 63.4633 243.272 63.4169 243.055 63.4306C242.518 63.4306 241.939 63.7723 241.331 64.4556V71.9295C241.342 72.2789 241.452 72.618 241.649 72.907C241.76 73.0796 241.907 73.2263 242.08 73.3368C242.253 73.4474 242.448 73.5193 242.652 73.5476H236.84C237.044 73.5193 237.238 73.4474 237.412 73.3368C237.585 73.2263 237.732 73.0796 237.843 72.907Z" fill="white"/>
<path d="M255.268 63.3262V63.4543H253.072V70.2022C253.036 71.0449 253.244 71.8802 253.671 72.6081C253.826 72.8956 254.057 73.1356 254.338 73.3027C254.619 73.4698 254.94 73.5578 255.268 73.5571C254.125 73.599 252.982 73.4662 251.88 73.1633C251.236 73.0033 250.676 72.6068 250.311 72.0529C250.025 71.4827 249.889 70.8489 249.917 70.2117V63.4543H248.639V63.3262H249.893C249.905 63.1603 249.881 62.9938 249.821 62.8384C249.762 62.683 249.669 62.5425 249.55 62.4267C249.43 62.3109 249.287 62.2227 249.129 62.1682C248.972 62.1137 248.804 62.0944 248.639 62.1114L253.072 60.0472V63.3262H255.268Z" fill="white"/>
<path d="M256.997 71.9295V66.5388C256.997 65.547 256.57 65.0488 255.714 65.0488L260.152 62.9846V71.9295C260.164 72.2789 260.274 72.618 260.471 72.907C260.582 73.0796 260.729 73.2263 260.902 73.3368C261.075 73.4474 261.27 73.5193 261.473 73.5476H255.672C255.875 73.5193 256.07 73.4474 256.243 73.3368C256.416 73.2263 256.563 73.0796 256.674 72.907C256.872 72.6183 256.984 72.2793 256.997 71.9295ZM256.945 61.2146C256.77 61.0482 256.632 60.8479 256.538 60.6258C256.444 60.4038 256.396 60.1649 256.399 59.9238C256.407 59.4407 256.603 58.9798 256.945 58.6381C257.287 58.2964 257.749 58.1007 258.233 58.0922C258.535 58.0899 258.834 58.1624 259.101 58.3032C259.369 58.4439 259.597 58.6486 259.767 58.899C259.936 59.1493 260.04 59.4376 260.071 59.7381C260.102 60.0386 260.058 60.342 259.942 60.6213C259.827 60.9006 259.645 61.1472 259.411 61.3389C259.177 61.5307 258.9 61.6618 258.603 61.7205C258.306 61.7793 258 61.7638 257.71 61.6755C257.421 61.5872 257.158 61.4289 256.945 61.2146Z" fill="white"/>
<path d="M268.15 63.4733L268.459 63.6015C268.609 63.666 268.77 63.7014 268.934 63.7058C269.205 63.7058 269.361 63.554 269.409 63.2313L269.77 66.553C269.436 65.5932 268.914 64.7092 268.235 63.9526C267.963 63.6764 267.637 63.4585 267.278 63.3125C266.918 63.1664 266.533 63.0952 266.145 63.1032C265.346 63.1032 264.952 63.4733 264.952 64.2088C264.976 64.7105 265.194 65.1832 265.56 65.528C266.155 66.1444 266.79 66.7214 267.461 67.2553C268.239 67.8583 268.967 68.5232 269.637 69.2436C270.094 69.7125 270.359 70.3357 270.378 70.9899C270.404 71.5934 270.199 72.184 269.803 72.6413C269.409 73.0805 268.906 73.4079 268.345 73.5903C267.757 73.7885 267.14 73.8894 266.52 73.8893C266.095 73.8935 265.671 73.8392 265.261 73.728C264.867 73.6118 264.482 73.4659 264.111 73.2914C263.796 73.1351 263.457 73.034 263.108 72.9924C262.78 72.9924 262.585 73.1822 262.533 73.5666L262.105 69.5426C262.503 70.7133 263.139 71.7892 263.973 72.703C264.302 73.0448 264.698 73.3153 265.136 73.4974C265.574 73.6795 266.045 73.7693 266.52 73.7612C266.854 73.7723 267.18 73.6532 267.427 73.429C267.547 73.3113 267.64 73.1697 267.701 73.0134C267.761 72.8572 267.788 72.6899 267.779 72.5226C267.77 72.0043 267.554 71.511 267.18 71.1512C266.624 70.5973 266.025 70.088 265.389 69.628C264.762 69.1535 264.263 68.7549 263.887 68.4132C263.51 68.0747 263.182 67.6849 262.913 67.2553C262.651 66.8371 262.511 66.3538 262.509 65.8602C262.502 65.4731 262.575 65.0885 262.723 64.7308C262.998 63.9903 263.414 63.3102 263.949 62.7283C264.518 62.0963 265.206 61.582 265.973 61.2146C266.769 60.8317 267.642 60.6353 268.525 60.6404C269.804 60.5816 271.074 60.8843 272.189 61.5135L275.349 60.0472V63.3262H277.544V63.4543H275.349V70.2022C275.313 71.0443 275.519 71.8789 275.943 72.6081C276.099 72.8956 276.331 73.1356 276.613 73.3026C276.895 73.4697 277.216 73.5576 277.544 73.5571C276.4 73.5986 275.256 73.4658 274.151 73.1633C273.509 73.0018 272.951 72.6055 272.588 72.0529C272.3 71.4832 272.162 70.8494 272.189 70.2117V64.6217C272.195 63.7192 271.936 62.8347 271.443 62.0782C270.949 61.3063 269.976 60.9204 268.525 60.9204C267.41 60.9052 266.314 61.2081 265.365 61.7935C264.472 62.3286 263.731 63.0834 263.213 63.9858C263.558 63.6324 263.988 63.3728 264.462 63.2313C264.997 63.061 265.555 62.9777 266.116 62.9846C266.478 62.9786 266.839 63.0217 267.19 63.1127C267.52 63.2042 267.841 63.3248 268.15 63.4733Z" fill="white"/>
<path d="M279.003 72.907C279.201 72.6182 279.313 72.2793 279.326 71.9295V66.5388C279.326 65.547 278.898 65.0488 278.043 65.0488L282.481 62.9846V64.2848C282.791 63.9296 283.163 63.6337 283.579 63.4116C284.026 63.139 284.538 62.9915 285.062 62.9846C285.758 62.9561 286.438 63.1956 286.962 63.6536C287.195 63.8516 287.382 64.0983 287.509 64.3762C287.637 64.6542 287.701 64.9567 287.699 65.2623C287.697 65.5159 287.653 65.7676 287.57 66.0073C287.492 66.2862 287.325 66.5324 287.095 66.7096C286.858 66.8942 286.565 66.9929 286.264 66.9896C286.075 66.9948 285.887 66.9616 285.712 66.8919C285.537 66.8222 285.377 66.7175 285.244 66.5843C285.111 66.451 285.006 66.292 284.936 66.1169C284.866 65.9418 284.833 65.7544 284.838 65.566C284.826 65.3291 284.882 65.0937 285 64.8874C285.135 64.6778 285.294 64.485 285.475 64.3132C285.592 64.2097 285.698 64.0953 285.793 63.9716C285.862 63.8796 285.898 63.7681 285.898 63.6536C285.896 63.5787 285.877 63.5052 285.842 63.4387C285.807 63.3721 285.758 63.3142 285.698 63.2693C285.507 63.1395 285.277 63.0792 285.047 63.0984C284.526 63.101 284.016 63.249 283.574 63.5255C283.16 63.7619 282.786 64.0631 282.467 64.4176V71.9152C282.478 72.2647 282.588 72.6037 282.785 72.8928C282.896 73.0654 283.043 73.212 283.217 73.3226C283.39 73.4332 283.585 73.5051 283.788 73.5334H277.981C278.185 73.5051 278.38 73.4332 278.553 73.3226C278.726 73.212 278.873 73.0654 278.984 72.8928L279.003 72.907Z" fill="white"/>
<path d="M289.946 77.3486C289.818 77.4787 289.665 77.5814 289.496 77.6508C289.327 77.7201 289.145 77.7545 288.963 77.752C288.735 77.752 288.621 77.8232 288.621 77.9655C288.625 78.0858 288.655 78.2037 288.708 78.3117C288.761 78.4196 288.837 78.5151 288.929 78.5919C289.156 78.7902 289.45 78.8938 289.752 78.8814C290.07 78.8953 290.387 78.8353 290.678 78.706C290.969 78.5768 291.226 78.3817 291.429 78.1364C291.902 77.5176 292.286 76.8355 292.569 76.1101L293.572 73.7375L289.733 64.9444C289.533 64.5832 289.269 64.2616 288.953 63.9953C288.609 63.6621 288.174 63.4362 287.704 63.3452H293.7C293.481 63.361 293.276 63.4605 293.128 63.6231C292.981 63.7857 292.901 63.9989 292.907 64.2184C292.904 64.4767 292.963 64.732 293.078 64.9634L295.235 69.8795L297.321 64.9634C297.42 64.7424 297.472 64.5032 297.473 64.2611C297.477 64.0478 297.414 63.8388 297.293 63.6632C297.219 63.5713 297.126 63.4957 297.022 63.441C296.917 63.3863 296.802 63.3537 296.684 63.3452H299.455C298.995 63.4315 298.568 63.6415 298.219 63.9526C297.885 64.2225 297.621 64.5693 297.449 64.9634L292.698 76.1433C292.441 76.7223 292.222 77.2015 291.99 77.5669C291.767 77.9549 291.47 78.2951 291.115 78.5682C290.725 78.8663 290.243 79.0205 289.752 79.0048C289.324 79.0138 288.907 78.8689 288.578 78.5967C288.247 78.3192 287.987 77.9659 287.822 77.5669C287.653 77.1804 287.563 76.7643 287.556 76.3426C287.557 76.0683 287.639 75.8002 287.791 75.5719C287.944 75.3435 288.16 75.1649 288.413 75.0583C288.666 74.9516 288.945 74.9215 289.215 74.9719C289.485 75.0222 289.735 75.1507 289.932 75.3414C290.195 75.6077 290.342 75.9665 290.342 76.3403C290.342 76.714 290.195 77.0728 289.932 77.3391L289.946 77.3486Z" fill="white"/>
</g>
<defs>
<clipPath id="clip0_3_716">
<rect width="323" height="79" fill="white"/>
</clipPath>
</defs>
</svg>
