<svg width="701" height="140" viewBox="0 0 701 140" fill="none" xmlns="http://www.w3.org/2000/svg">
<g clip-path="url(#clip0_463_44)">
<path d="M41.915 139.7C71.985 139.7 87.195 126.1 87.195 110.75C87.195 95.82 79.375 89.75 42.055 81.37C19.165 76.3 7.745 70.7 0.744995 64.7V127.56C13.235 135.24 29.005 139.7 41.915 139.7Z" fill="white"/>
<path d="M104.215 88.63C106.124 82.1044 107.087 75.3389 107.075 68.54C107.285 28.35 76.235 0.300003 32.075 0.300003H0.744995V10.84C0.744995 34.91 7.65499 46.98 49.305 56.4C78.195 62.95 97.165 69.3 104.215 88.63Z" fill="white"/>
<path d="M147.745 114.62H187.675C207.325 114.62 220.295 105.51 220.295 90.1V89.84C220.295 77.51 211.695 71.35 201.035 68.14C208.095 65.06 215.285 59.02 215.285 47.34V47.08C215.331 44.4186 214.843 41.7749 213.85 39.3052C212.857 36.8354 211.38 34.5895 209.505 32.7C204.375 27.7 196.285 24.7 186.005 24.7H147.745V114.58V114.62ZM205.015 48.75C205.015 59.28 196.535 64.75 184.345 64.75H157.745V33.85H185.105C197.945 33.85 205.005 39.63 205.005 48.49V48.75H205.015ZM210.015 89.2V89.46C210.015 99.46 201.535 105.46 187.925 105.46H157.745V73.79H186.125C201.795 73.79 210.015 79.44 210.015 89.2ZM240.445 114.62H306.065V105.38H250.555V73.92H299.615V64.67H250.555V33.98H305.395V24.74H240.395V114.62H240.445ZM354.605 114.62H364.845V78.93L402.215 24.74H390.395L359.835 69.68L329.535 24.74H317.205L354.575 79.06V114.62H354.605ZM452.445 116.17C479.805 116.17 498.445 94.47 498.445 69.68V69.42C498.445 44.64 480.075 23.2 452.725 23.2C425.375 23.2 406.725 44.9 406.725 69.68V69.94C406.725 94.72 425.085 116.17 452.435 116.17H452.445ZM452.705 106.79C432.165 106.79 417.265 90.1 417.265 69.68V69.42C417.265 49.01 431.905 32.57 452.445 32.57C472.985 32.57 487.865 49.3 487.865 69.68V69.94C487.865 90.35 473.225 106.79 452.675 106.79H452.705ZM519.865 114.62H529.745V40.92L587.745 114.62H595.835V24.74H585.945V96.74L529.315 24.74H519.815V114.62H519.865ZM621.305 114.62H652.515C680.765 114.62 700.285 94.98 700.285 69.68V69.42C700.285 44.13 680.765 24.74 652.515 24.74H621.275V114.62H621.305ZM652.515 34.11C675.245 34.11 689.755 49.78 689.755 69.68V69.94C689.755 89.84 675.245 105.25 652.515 105.25H631.425V34.11H652.515Z" fill="white"/>
</g>
<defs>
<clipPath id="clip0_463_44">
<rect width="699.51" height="139.4" fill="white" transform="translate(0.744995 0.300003)"/>
</clipPath>
</defs>
</svg>
