<svg width="959" height="115" viewBox="0 0 959 115" fill="none" xmlns="http://www.w3.org/2000/svg">
<circle cx="5.15639" cy="18.9069" r="5.15639" fill="white"/>
<line y1="18.477" x2="191.8" y2="18.477" stroke="white" stroke-width="0.859399"/>
<rect x="55.6497" width="80.5008" height="34.4692" rx="17.2346" fill="white"/>
<path d="M71.8946 14.1989V16.154H74.5201V17.3941H71.8946V19.461H74.8553V20.7346H70.3305V12.9253H74.8553V14.1989H71.8946ZM76.0893 17.6176C76.0893 16.9919 76.2122 16.4371 76.458 15.9529C76.7112 15.4688 77.0501 15.0964 77.4747 14.8357C77.9067 14.575 78.3871 14.4447 78.9159 14.4447C79.3777 14.4447 79.7799 14.5378 80.1225 14.724C80.4725 14.9102 80.7519 15.1448 80.9604 15.4278V14.5452H82.5357V20.7346H80.9604V19.8297C80.7593 20.1201 80.48 20.3622 80.1225 20.5559C79.7724 20.7421 79.3665 20.8352 78.9047 20.8352C78.3833 20.8352 77.9067 20.7011 77.4747 20.433C77.0501 20.1648 76.7112 19.7887 76.458 19.3046C76.2122 18.813 76.0893 18.2507 76.0893 17.6176ZM80.9604 17.6399C80.9604 17.2601 80.8859 16.9361 80.737 16.6679C80.588 16.3924 80.3869 16.1838 80.1337 16.0423C79.8804 15.8933 79.6086 15.8189 79.3181 15.8189C79.0276 15.8189 78.7595 15.8896 78.5137 16.0311C78.2679 16.1726 78.0668 16.3812 77.9104 16.6568C77.7614 16.9249 77.6869 17.2452 77.6869 17.6176C77.6869 17.99 77.7614 18.3177 77.9104 18.6007C78.0668 18.8763 78.2679 19.0886 78.5137 19.2375C78.7669 19.3865 79.0351 19.461 79.3181 19.461C79.6086 19.461 79.8804 19.3902 80.1337 19.2487C80.3869 19.0998 80.588 18.8912 80.737 18.6231C80.8859 18.3475 80.9604 18.0198 80.9604 17.6399ZM85.8423 15.506C86.0434 15.1783 86.304 14.9214 86.6243 14.7352C86.952 14.549 87.3244 14.4559 87.7415 14.4559V16.0982H87.3282C86.8366 16.0982 86.4642 16.2136 86.2109 16.4445C85.9651 16.6754 85.8423 17.0776 85.8423 17.6511V20.7346H84.2781V14.5452H85.8423V15.506ZM90.574 12.4672V20.7346H89.0099V12.4672H90.574ZM98.2554 14.5452L94.4234 23.6617H92.7587L94.0994 20.5782L91.6192 14.5452H93.3732L94.9708 18.8689L96.5908 14.5452H98.2554ZM107.006 12.9364V14.1989H103.755V16.1987H106.246V17.4388H103.755V20.7346H102.19V12.9364H107.006ZM114.083 17.5059C114.083 17.7293 114.068 17.9304 114.039 18.1092H109.514C109.551 18.556 109.707 18.9061 109.983 19.1593C110.259 19.4126 110.598 19.5392 111 19.5392C111.581 19.5392 111.994 19.2897 112.24 18.7907H113.927C113.748 19.3865 113.405 19.8781 112.899 20.2654C112.393 20.6452 111.771 20.8352 111.033 20.8352C110.437 20.8352 109.901 20.7048 109.424 20.4441C108.955 20.176 108.587 19.7999 108.318 19.3158C108.058 18.8316 107.927 18.273 107.927 17.6399C107.927 16.9994 108.058 16.4371 108.318 15.9529C108.579 15.4688 108.944 15.0964 109.413 14.8357C109.882 14.575 110.422 14.4447 111.033 14.4447C111.622 14.4447 112.147 14.5713 112.609 14.8245C113.078 15.0778 113.439 15.439 113.692 15.9082C113.953 16.37 114.083 16.9026 114.083 17.5059ZM112.463 17.059C112.456 16.6568 112.311 16.3365 112.028 16.0982C111.745 15.8524 111.398 15.7295 110.989 15.7295C110.601 15.7295 110.274 15.8487 110.005 16.087C109.745 16.3179 109.585 16.6419 109.525 17.059H112.463ZM117.004 15.4502C117.205 15.1523 117.481 14.9102 117.831 14.724C118.188 14.5378 118.594 14.4447 119.048 14.4447C119.577 14.4447 120.054 14.575 120.478 14.8357C120.91 15.0964 121.249 15.4688 121.495 15.9529C121.748 16.4296 121.875 16.9845 121.875 17.6176C121.875 18.2507 121.748 18.813 121.495 19.3046C121.249 19.7887 120.91 20.1648 120.478 20.433C120.054 20.7011 119.577 20.8352 119.048 20.8352C118.587 20.8352 118.181 20.7458 117.831 20.567C117.488 20.3808 117.212 20.1425 117.004 19.852V20.7346H115.44V12.4672H117.004V15.4502ZM120.277 17.6176C120.277 17.2452 120.199 16.9249 120.043 16.6568C119.894 16.3812 119.693 16.1726 119.439 16.0311C119.194 15.8896 118.925 15.8189 118.635 15.8189C118.352 15.8189 118.084 15.8933 117.831 16.0423C117.585 16.1838 117.384 16.3924 117.227 16.6679C117.078 16.9435 117.004 17.2675 117.004 17.6399C117.004 18.0123 117.078 18.3363 117.227 18.6119C117.384 18.8875 117.585 19.0998 117.831 19.2487C118.084 19.3902 118.352 19.461 118.635 19.461C118.925 19.461 119.194 19.3865 119.439 19.2375C119.693 19.0886 119.894 18.8763 120.043 18.6007C120.199 18.3252 120.277 17.9974 120.277 17.6176Z" fill="#393858"/>
<path d="M35.0773 71.8365C35.0773 71.0045 35.2573 70.2645 35.6173 69.6165C35.9773 68.9605 36.4773 68.4525 37.1173 68.0925C37.7653 67.7245 38.4973 67.5405 39.3133 67.5405C40.3133 67.5405 41.1693 67.8045 41.8813 68.3325C42.5933 68.8605 43.0693 69.5805 43.3093 70.4925H41.0533C40.8853 70.1405 40.6453 69.8725 40.3333 69.6885C40.0293 69.5045 39.6813 69.4125 39.2893 69.4125C38.6573 69.4125 38.1453 69.6325 37.7533 70.0725C37.3613 70.5125 37.1653 71.1005 37.1653 71.8365C37.1653 72.5725 37.3613 73.1605 37.7533 73.6005C38.1453 74.0405 38.6573 74.2605 39.2893 74.2605C39.6813 74.2605 40.0293 74.1685 40.3333 73.9845C40.6453 73.8005 40.8853 73.5325 41.0533 73.1805H43.3093C43.0693 74.0925 42.5933 74.8125 41.8813 75.3405C41.1693 75.8605 40.3133 76.1205 39.3133 76.1205C38.4973 76.1205 37.7653 75.9405 37.1173 75.5805C36.4773 75.2125 35.9773 74.7045 35.6173 74.0565C35.2573 73.4085 35.0773 72.6685 35.0773 71.8365ZM44.158 72.7005C44.158 72.0125 44.286 71.4085 44.542 70.8885C44.806 70.3685 45.162 69.9685 45.61 69.6885C46.058 69.4085 46.558 69.2685 47.11 69.2685C47.582 69.2685 47.994 69.3645 48.346 69.5565C48.706 69.7485 48.982 70.0005 49.174 70.3125V69.3645H51.226V76.0605H49.174V75.1125C48.974 75.4245 48.694 75.6765 48.334 75.8685C47.982 76.0605 47.57 76.1565 47.098 76.1565C46.554 76.1565 46.058 76.0165 45.61 75.7365C45.162 75.4485 44.806 75.0445 44.542 74.5245C44.286 73.9965 44.158 73.3885 44.158 72.7005ZM49.174 72.7125C49.174 72.2005 49.03 71.7965 48.742 71.5005C48.462 71.2045 48.118 71.0565 47.71 71.0565C47.302 71.0565 46.954 71.2045 46.666 71.5005C46.386 71.7885 46.246 72.1885 46.246 72.7005C46.246 73.2125 46.386 73.6205 46.666 73.9245C46.954 74.2205 47.302 74.3685 47.71 74.3685C48.118 74.3685 48.462 74.2205 48.742 73.9245C49.03 73.6285 49.174 73.2245 49.174 72.7125ZM54.7625 67.1805V76.0605H52.7105V67.1805H54.7625ZM58.3016 67.1805V76.0605H56.2496V67.1805H58.3016ZM65.6916 71.0685H64.5876V76.0605H62.5356V71.0685H61.7916V69.3645H62.5356V69.1725C62.5356 68.3485 62.7716 67.7245 63.2436 67.3005C63.7156 66.8685 64.4076 66.6525 65.3196 66.6525C65.4716 66.6525 65.5836 66.6565 65.6556 66.6645V68.4045C65.2636 68.3805 64.9876 68.4365 64.8276 68.5725C64.6676 68.7085 64.5876 68.9525 64.5876 69.3045V69.3645H65.6916V71.0685ZM69.7038 76.1565C69.0478 76.1565 68.4558 76.0165 67.9278 75.7365C67.4078 75.4565 66.9958 75.0565 66.6918 74.5365C66.3958 74.0165 66.2478 73.4085 66.2478 72.7125C66.2478 72.0245 66.3998 71.4205 66.7038 70.9005C67.0078 70.3725 67.4238 69.9685 67.9518 69.6885C68.4798 69.4085 69.0718 69.2685 69.7278 69.2685C70.3838 69.2685 70.9758 69.4085 71.5038 69.6885C72.0318 69.9685 72.4478 70.3725 72.7518 70.9005C73.0558 71.4205 73.2078 72.0245 73.2078 72.7125C73.2078 73.4005 73.0518 74.0085 72.7398 74.5365C72.4358 75.0565 72.0158 75.4565 71.4798 75.7365C70.9518 76.0165 70.3598 76.1565 69.7038 76.1565ZM69.7038 74.3805C70.0958 74.3805 70.4278 74.2365 70.6998 73.9485C70.9798 73.6605 71.1198 73.2485 71.1198 72.7125C71.1198 72.1765 70.9838 71.7645 70.7118 71.4765C70.4478 71.1885 70.1198 71.0445 69.7278 71.0445C69.3278 71.0445 68.9958 71.1885 68.7318 71.4765C68.4678 71.7565 68.3358 72.1685 68.3358 72.7125C68.3358 73.2485 68.4638 73.6605 68.7198 73.9485C68.9838 74.2365 69.3118 74.3805 69.7038 74.3805ZM76.3484 70.4805C76.5884 70.1125 76.8884 69.8245 77.2484 69.6165C77.6084 69.4005 78.0084 69.2925 78.4484 69.2925V71.4645H77.8844C77.3724 71.4645 76.9884 71.5765 76.7324 71.8005C76.4764 72.0165 76.3484 72.4005 76.3484 72.9525V76.0605H74.2964V69.3645H76.3484V70.4805ZM86.2682 76.0605L84.5162 72.8805H84.0242V76.0605H81.9722V67.6365H85.4162C86.0802 67.6365 86.6442 67.7525 87.1082 67.9845C87.5802 68.2165 87.9322 68.5365 88.1642 68.9445C88.3962 69.3445 88.5122 69.7925 88.5122 70.2885C88.5122 70.8485 88.3522 71.3485 88.0322 71.7885C87.7202 72.2285 87.2562 72.5405 86.6402 72.7245L88.5842 76.0605H86.2682ZM84.0242 71.4285H85.2962C85.6722 71.4285 85.9522 71.3365 86.1362 71.1525C86.3282 70.9685 86.4242 70.7085 86.4242 70.3725C86.4242 70.0525 86.3282 69.8005 86.1362 69.6165C85.9522 69.4325 85.6722 69.3405 85.2962 69.3405H84.0242V71.4285ZM96.1123 72.6045C96.1123 72.7965 96.1003 72.9965 96.0763 73.2045H91.4323C91.4643 73.6205 91.5963 73.9405 91.8283 74.1645C92.0683 74.3805 92.3603 74.4885 92.7043 74.4885C93.2163 74.4885 93.5723 74.2725 93.7723 73.8405H95.9563C95.8443 74.2805 95.6403 74.6765 95.3443 75.0285C95.0563 75.3805 94.6923 75.6565 94.2523 75.8565C93.8123 76.0565 93.3203 76.1565 92.7763 76.1565C92.1203 76.1565 91.5363 76.0165 91.0243 75.7365C90.5123 75.4565 90.1123 75.0565 89.8243 74.5365C89.5363 74.0165 89.3923 73.4085 89.3923 72.7125C89.3923 72.0165 89.5323 71.4085 89.8123 70.8885C90.1003 70.3685 90.5003 69.9685 91.0123 69.6885C91.5243 69.4085 92.1123 69.2685 92.7763 69.2685C93.4243 69.2685 94.0003 69.4045 94.5043 69.6765C95.0083 69.9485 95.4003 70.3365 95.6803 70.8405C95.9683 71.3445 96.1123 71.9325 96.1123 72.6045ZM94.0123 72.0645C94.0123 71.7125 93.8923 71.4325 93.6523 71.2245C93.4123 71.0165 93.1123 70.9125 92.7523 70.9125C92.4083 70.9125 92.1163 71.0125 91.8763 71.2125C91.6443 71.4125 91.5003 71.6965 91.4443 72.0645H94.0123ZM99.7389 69.2685C100.211 69.2685 100.623 69.3645 100.975 69.5565C101.335 69.7485 101.611 70.0005 101.803 70.3125V69.3645H103.855V76.0485C103.855 76.6645 103.731 77.2205 103.483 77.7165C103.243 78.2205 102.871 78.6205 102.367 78.9165C101.871 79.2125 101.251 79.3605 100.507 79.3605C99.5149 79.3605 98.7109 79.1245 98.0949 78.6525C97.4789 78.1885 97.1269 77.5565 97.0389 76.7565H99.0669C99.1309 77.0125 99.2829 77.2125 99.5229 77.3565C99.7629 77.5085 100.059 77.5845 100.411 77.5845C100.835 77.5845 101.171 77.4605 101.419 77.2125C101.675 76.9725 101.803 76.5845 101.803 76.0485V75.1005C101.603 75.4125 101.327 75.6685 100.975 75.8685C100.623 76.0605 100.211 76.1565 99.7389 76.1565C99.1869 76.1565 98.6869 76.0165 98.2389 75.7365C97.7909 75.4485 97.4349 75.0445 97.1709 74.5245C96.9149 73.9965 96.7869 73.3885 96.7869 72.7005C96.7869 72.0125 96.9149 71.4085 97.1709 70.8885C97.4349 70.3685 97.7909 69.9685 98.2389 69.6885C98.6869 69.4085 99.1869 69.2685 99.7389 69.2685ZM101.803 72.7125C101.803 72.2005 101.659 71.7965 101.371 71.5005C101.091 71.2045 100.747 71.0565 100.339 71.0565C99.9309 71.0565 99.5829 71.2045 99.2949 71.5005C99.0149 71.7885 98.8749 72.1885 98.8749 72.7005C98.8749 73.2125 99.0149 73.6205 99.2949 73.9245C99.5829 74.2205 99.9309 74.3685 100.339 74.3685C100.747 74.3685 101.091 74.2205 101.371 73.9245C101.659 73.6285 101.803 73.2245 101.803 72.7125ZM106.371 68.6685C106.011 68.6685 105.715 68.5645 105.483 68.3565C105.259 68.1405 105.147 67.8765 105.147 67.5645C105.147 67.2445 105.259 66.9805 105.483 66.7725C105.715 66.5565 106.011 66.4485 106.371 66.4485C106.723 66.4485 107.011 66.5565 107.235 66.7725C107.467 66.9805 107.583 67.2445 107.583 67.5645C107.583 67.8765 107.467 68.1405 107.235 68.3565C107.011 68.5645 106.723 68.6685 106.371 68.6685ZM107.391 69.3645V76.0605H105.339V69.3645H107.391ZM111.602 76.1565C111.018 76.1565 110.498 76.0565 110.042 75.8565C109.586 75.6565 109.226 75.3845 108.962 75.0405C108.698 74.6885 108.55 74.2965 108.518 73.8645H110.546C110.57 74.0965 110.678 74.2845 110.87 74.4285C111.062 74.5725 111.298 74.6445 111.578 74.6445C111.834 74.6445 112.03 74.5965 112.166 74.5005C112.31 74.3965 112.382 74.2645 112.382 74.1045C112.382 73.9125 112.282 73.7725 112.082 73.6845C111.882 73.5885 111.558 73.4845 111.11 73.3725C110.63 73.2605 110.23 73.1445 109.91 73.0245C109.59 72.8965 109.314 72.7005 109.082 72.4365C108.85 72.1645 108.734 71.8005 108.734 71.3445C108.734 70.9605 108.838 70.6125 109.046 70.3005C109.262 69.9805 109.574 69.7285 109.982 69.5445C110.398 69.3605 110.89 69.2685 111.458 69.2685C112.298 69.2685 112.958 69.4765 113.438 69.8925C113.926 70.3085 114.206 70.8605 114.278 71.5485H112.382C112.35 71.3165 112.246 71.1325 112.07 70.9965C111.902 70.8605 111.678 70.7925 111.398 70.7925C111.158 70.7925 110.974 70.8405 110.846 70.9365C110.718 71.0245 110.654 71.1485 110.654 71.3085C110.654 71.5005 110.754 71.6445 110.954 71.7405C111.162 71.8365 111.482 71.9325 111.914 72.0285C112.41 72.1565 112.814 72.2845 113.126 72.4125C113.438 72.5325 113.71 72.7325 113.942 73.0125C114.182 73.2845 114.306 73.6525 114.314 74.1165C114.314 74.5085 114.202 74.8605 113.978 75.1725C113.762 75.4765 113.446 75.7165 113.03 75.8925C112.622 76.0685 112.146 76.1565 111.602 76.1565ZM119.302 74.3205V76.0605H118.258C117.514 76.0605 116.934 75.8805 116.518 75.5205C116.102 75.1525 115.894 74.5565 115.894 73.7325V71.0685H115.078V69.3645H115.894V67.7325H117.946V69.3645H119.29V71.0685H117.946V73.7565C117.946 73.9565 117.994 74.1005 118.09 74.1885C118.186 74.2765 118.346 74.3205 118.57 74.3205H119.302ZM122.497 70.4805C122.737 70.1125 123.037 69.8245 123.397 69.6165C123.757 69.4005 124.157 69.2925 124.597 69.2925V71.4645H124.033C123.521 71.4645 123.137 71.5765 122.881 71.8005C122.625 72.0165 122.497 72.4005 122.497 72.9525V76.0605H120.445V69.3645H122.497V70.4805ZM125.17 72.7005C125.17 72.0125 125.298 71.4085 125.554 70.8885C125.818 70.3685 126.174 69.9685 126.622 69.6885C127.07 69.4085 127.57 69.2685 128.122 69.2685C128.594 69.2685 129.006 69.3645 129.358 69.5565C129.718 69.7485 129.994 70.0005 130.186 70.3125V69.3645H132.238V76.0605H130.186V75.1125C129.986 75.4245 129.706 75.6765 129.346 75.8685C128.994 76.0605 128.582 76.1565 128.11 76.1565C127.566 76.1565 127.07 76.0165 126.622 75.7365C126.174 75.4485 125.818 75.0445 125.554 74.5245C125.298 73.9965 125.17 73.3885 125.17 72.7005ZM130.186 72.7125C130.186 72.2005 130.042 71.7965 129.754 71.5005C129.474 71.2045 129.13 71.0565 128.722 71.0565C128.314 71.0565 127.966 71.2045 127.678 71.5005C127.398 71.7885 127.258 72.1885 127.258 72.7005C127.258 73.2125 127.398 73.6205 127.678 73.9245C127.966 74.2205 128.314 74.3685 128.722 74.3685C129.13 74.3685 129.474 74.2205 129.754 73.9245C130.042 73.6285 130.186 73.2245 130.186 72.7125ZM137.454 74.3205V76.0605H136.41C135.666 76.0605 135.086 75.8805 134.67 75.5205C134.254 75.1525 134.046 74.5565 134.046 73.7325V71.0685H133.23V69.3645H134.046V67.7325H136.098V69.3645H137.442V71.0685H136.098V73.7565C136.098 73.9565 136.146 74.1005 136.242 74.1885C136.338 74.2765 136.498 74.3205 136.722 74.3205H137.454ZM139.629 68.6685C139.269 68.6685 138.973 68.5645 138.741 68.3565C138.517 68.1405 138.405 67.8765 138.405 67.5645C138.405 67.2445 138.517 66.9805 138.741 66.7725C138.973 66.5565 139.269 66.4485 139.629 66.4485C139.981 66.4485 140.269 66.5565 140.493 66.7725C140.725 66.9805 140.841 67.2445 140.841 67.5645C140.841 67.8765 140.725 68.1405 140.493 68.3565C140.269 68.5645 139.981 68.6685 139.629 68.6685ZM140.649 69.3645V76.0605H138.597V69.3645H140.649ZM145.184 76.1565C144.528 76.1565 143.936 76.0165 143.408 75.7365C142.888 75.4565 142.476 75.0565 142.172 74.5365C141.876 74.0165 141.728 73.4085 141.728 72.7125C141.728 72.0245 141.88 71.4205 142.184 70.9005C142.488 70.3725 142.904 69.9685 143.432 69.6885C143.96 69.4085 144.552 69.2685 145.208 69.2685C145.864 69.2685 146.456 69.4085 146.984 69.6885C147.512 69.9685 147.928 70.3725 148.232 70.9005C148.536 71.4205 148.688 72.0245 148.688 72.7125C148.688 73.4005 148.532 74.0085 148.22 74.5365C147.916 75.0565 147.496 75.4565 146.96 75.7365C146.432 76.0165 145.84 76.1565 145.184 76.1565ZM145.184 74.3805C145.576 74.3805 145.908 74.2365 146.18 73.9485C146.46 73.6605 146.6 73.2485 146.6 72.7125C146.6 72.1765 146.464 71.7645 146.192 71.4765C145.928 71.1885 145.6 71.0445 145.208 71.0445C144.808 71.0445 144.476 71.1885 144.212 71.4765C143.948 71.7565 143.816 72.1685 143.816 72.7125C143.816 73.2485 143.944 73.6605 144.2 73.9485C144.464 74.2365 144.792 74.3805 145.184 74.3805ZM153.857 69.2925C154.641 69.2925 155.265 69.5485 155.729 70.0605C156.201 70.5645 156.437 71.2605 156.437 72.1485V76.0605H154.397V72.4245C154.397 71.9765 154.281 71.6285 154.049 71.3805C153.817 71.1325 153.505 71.0085 153.113 71.0085C152.721 71.0085 152.409 71.1325 152.177 71.3805C151.945 71.6285 151.829 71.9765 151.829 72.4245V76.0605H149.777V69.3645H151.829V70.2525C152.037 69.9565 152.317 69.7245 152.669 69.5565C153.021 69.3805 153.417 69.2925 153.857 69.2925Z" fill="white"/>
<circle cx="196.956" cy="18.9069" r="5.15639" fill="white"/>
<line x1="191.8" y1="18.477" x2="383.6" y2="18.477" stroke="white" stroke-width="0.859399"/>
<rect x="216.95" width="141.501" height="34.4692" rx="17.2346" fill="white"/>
<path d="M233.104 14.1989V16.154H235.73V17.3941H233.104V19.461H236.065V20.7346H231.54V12.9253H236.065V14.1989H233.104ZM237.299 17.6176C237.299 16.9919 237.422 16.4371 237.668 15.9529C237.921 15.4688 238.26 15.0964 238.684 14.8357C239.116 14.575 239.597 14.4447 240.125 14.4447C240.587 14.4447 240.989 14.5378 241.332 14.724C241.682 14.9102 241.961 15.1448 242.17 15.4278V14.5452H243.745V20.7346H242.17V19.8297C241.969 20.1201 241.69 20.3622 241.332 20.5559C240.982 20.7421 240.576 20.8352 240.114 20.8352C239.593 20.8352 239.116 20.7011 238.684 20.433C238.26 20.1648 237.921 19.7887 237.668 19.3046C237.422 18.813 237.299 18.2507 237.299 17.6176ZM242.17 17.6399C242.17 17.2601 242.095 16.9361 241.947 16.6679C241.798 16.3924 241.596 16.1838 241.343 16.0423C241.09 15.8933 240.818 15.8189 240.528 15.8189C240.237 15.8189 239.969 15.8896 239.723 16.0311C239.477 16.1726 239.276 16.3812 239.12 16.6568C238.971 16.9249 238.897 17.2452 238.897 17.6176C238.897 17.99 238.971 18.3177 239.12 18.6007C239.276 18.8763 239.477 19.0886 239.723 19.2375C239.976 19.3865 240.245 19.461 240.528 19.461C240.818 19.461 241.09 19.3902 241.343 19.2487C241.596 19.0998 241.798 18.8912 241.947 18.6231C242.095 18.3475 242.17 18.0198 242.17 17.6399ZM247.052 15.506C247.253 15.1783 247.514 14.9214 247.834 14.7352C248.162 14.549 248.534 14.4559 248.951 14.4559V16.0982H248.538C248.046 16.0982 247.674 16.2136 247.421 16.4445C247.175 16.6754 247.052 17.0776 247.052 17.6511V20.7346H245.488V14.5452H247.052V15.506ZM251.784 12.4672V20.7346H250.219V12.4672H251.784ZM259.465 14.5452L255.633 23.6617H253.968L255.309 20.5782L252.829 14.5452H254.583L256.18 18.8689L257.8 14.5452H259.465ZM268.215 12.9364V14.1989H264.964V16.1987H267.455V17.4388H264.964V20.7346H263.4V12.9364H268.215ZM275.293 17.5059C275.293 17.7293 275.278 17.9304 275.248 18.1092H270.723C270.761 18.556 270.917 18.9061 271.193 19.1593C271.468 19.4126 271.807 19.5392 272.209 19.5392C272.79 19.5392 273.204 19.2897 273.449 18.7907H275.136C274.958 19.3865 274.615 19.8781 274.109 20.2654C273.602 20.6452 272.98 20.8352 272.243 20.8352C271.647 20.8352 271.111 20.7048 270.634 20.4441C270.165 20.176 269.796 19.7999 269.528 19.3158C269.267 18.8316 269.137 18.273 269.137 17.6399C269.137 16.9994 269.267 16.4371 269.528 15.9529C269.789 15.4688 270.154 15.0964 270.623 14.8357C271.092 14.575 271.632 14.4447 272.243 14.4447C272.831 14.4447 273.356 14.5713 273.818 14.8245C274.287 15.0778 274.649 15.439 274.902 15.9082C275.162 16.37 275.293 16.9026 275.293 17.5059ZM273.673 17.059C273.665 16.6568 273.52 16.3365 273.237 16.0982C272.954 15.8524 272.608 15.7295 272.198 15.7295C271.811 15.7295 271.483 15.8487 271.215 16.087C270.954 16.3179 270.794 16.6419 270.735 17.059H273.673ZM278.213 15.4502C278.415 15.1523 278.69 14.9102 279.04 14.724C279.398 14.5378 279.804 14.4447 280.258 14.4447C280.787 14.4447 281.263 14.575 281.688 14.8357C282.12 15.0964 282.459 15.4688 282.705 15.9529C282.958 16.4296 283.084 16.9845 283.084 17.6176C283.084 18.2507 282.958 18.813 282.705 19.3046C282.459 19.7887 282.12 20.1648 281.688 20.433C281.263 20.7011 280.787 20.8352 280.258 20.8352C279.796 20.8352 279.39 20.7458 279.04 20.567C278.698 20.3808 278.422 20.1425 278.213 19.852V20.7346H276.649V12.4672H278.213V15.4502ZM281.487 17.6176C281.487 17.2452 281.409 16.9249 281.252 16.6568C281.103 16.3812 280.902 16.1726 280.649 16.0311C280.403 15.8896 280.135 15.8189 279.845 15.8189C279.562 15.8189 279.293 15.8933 279.04 16.0423C278.794 16.1838 278.593 16.3924 278.437 16.6679C278.288 16.9435 278.213 17.2675 278.213 17.6399C278.213 18.0123 278.288 18.3363 278.437 18.6119C278.593 18.8875 278.794 19.0998 279.04 19.2487C279.293 19.3902 279.562 19.461 279.845 19.461C280.135 19.461 280.403 19.3865 280.649 19.2375C280.902 19.0886 281.103 18.8763 281.252 18.6007C281.409 18.3252 281.487 17.9974 281.487 17.6176ZM292.072 16.087V17.4053H287.335V16.087H292.072ZM298.482 19.4945H301.052V20.7346H296.918V12.9364H298.482V19.4945ZM301.859 17.6176C301.859 16.9919 301.982 16.4371 302.227 15.9529C302.481 15.4688 302.82 15.0964 303.244 14.8357C303.676 14.575 304.156 14.4447 304.685 14.4447C305.147 14.4447 305.549 14.5378 305.892 14.724C306.242 14.9102 306.521 15.1448 306.73 15.4278V14.5452H308.305V20.7346H306.73V19.8297C306.529 20.1201 306.249 20.3622 305.892 20.5559C305.542 20.7421 305.136 20.8352 304.674 20.8352C304.153 20.8352 303.676 20.7011 303.244 20.433C302.82 20.1648 302.481 19.7887 302.227 19.3046C301.982 18.813 301.859 18.2507 301.859 17.6176ZM306.73 17.6399C306.73 17.2601 306.655 16.9361 306.506 16.6679C306.357 16.3924 306.156 16.1838 305.903 16.0423C305.65 15.8933 305.378 15.8189 305.087 15.8189C304.797 15.8189 304.529 15.8896 304.283 16.0311C304.037 16.1726 303.836 16.3812 303.68 16.6568C303.531 16.9249 303.456 17.2452 303.456 17.6176C303.456 17.99 303.531 18.3177 303.68 18.6007C303.836 18.8763 304.037 19.0886 304.283 19.2375C304.536 19.3865 304.804 19.461 305.087 19.461C305.378 19.461 305.65 19.3902 305.903 19.2487C306.156 19.0998 306.357 18.8912 306.506 18.6231C306.655 18.3475 306.73 18.0198 306.73 17.6399ZM311.869 15.83V18.8242C311.869 19.0327 311.917 19.1854 312.014 19.2822C312.118 19.3716 312.289 19.4163 312.528 19.4163H313.254V20.7346H312.271C310.952 20.7346 310.293 20.0941 310.293 18.813V15.83H309.556V14.5452H310.293V13.0146H311.869V14.5452H313.254V15.83H311.869ZM320.347 17.5059C320.347 17.7293 320.333 17.9304 320.303 18.1092H315.778C315.815 18.556 315.972 18.9061 316.247 19.1593C316.523 19.4126 316.862 19.5392 317.264 19.5392C317.845 19.5392 318.258 19.2897 318.504 18.7907H320.191C320.012 19.3865 319.67 19.8781 319.163 20.2654C318.657 20.6452 318.035 20.8352 317.297 20.8352C316.702 20.8352 316.165 20.7048 315.689 20.4441C315.219 20.176 314.851 19.7999 314.583 19.3158C314.322 18.8316 314.192 18.273 314.192 17.6399C314.192 16.9994 314.322 16.4371 314.583 15.9529C314.843 15.4688 315.208 15.0964 315.677 14.8357C316.147 14.575 316.687 14.4447 317.297 14.4447C317.886 14.4447 318.411 14.5713 318.873 14.8245C319.342 15.0778 319.703 15.439 319.956 15.9082C320.217 16.37 320.347 16.9026 320.347 17.5059ZM318.727 17.059C318.72 16.6568 318.575 16.3365 318.292 16.0982C318.009 15.8524 317.662 15.7295 317.253 15.7295C316.865 15.7295 316.538 15.8487 316.27 16.087C316.009 16.3179 315.849 16.6419 315.789 17.059H318.727ZM329.396 12.9364V14.1989H326.145V16.1987H328.636V17.4388H326.145V20.7346H324.581V12.9364H329.396ZM336.474 17.5059C336.474 17.7293 336.459 17.9304 336.429 18.1092H331.904C331.942 18.556 332.098 18.9061 332.374 19.1593C332.649 19.4126 332.988 19.5392 333.39 19.5392C333.971 19.5392 334.385 19.2897 334.63 18.7907H336.317C336.139 19.3865 335.796 19.8781 335.29 20.2654C334.783 20.6452 334.161 20.8352 333.424 20.8352C332.828 20.8352 332.292 20.7048 331.815 20.4441C331.346 20.176 330.977 19.7999 330.709 19.3158C330.448 18.8316 330.318 18.273 330.318 17.6399C330.318 16.9994 330.448 16.4371 330.709 15.9529C330.97 15.4688 331.335 15.0964 331.804 14.8357C332.273 14.575 332.813 14.4447 333.424 14.4447C334.012 14.4447 334.537 14.5713 334.999 14.8245C335.468 15.0778 335.829 15.439 336.083 15.9082C336.343 16.37 336.474 16.9026 336.474 17.5059ZM334.854 17.059C334.846 16.6568 334.701 16.3365 334.418 16.0982C334.135 15.8524 333.789 15.7295 333.379 15.7295C332.992 15.7295 332.664 15.8487 332.396 16.087C332.135 16.3179 331.975 16.6419 331.916 17.059H334.854ZM339.394 15.4502C339.595 15.1523 339.871 14.9102 340.221 14.724C340.579 14.5378 340.985 14.4447 341.439 14.4447C341.968 14.4447 342.444 14.575 342.869 14.8357C343.301 15.0964 343.64 15.4688 343.886 15.9529C344.139 16.4296 344.265 16.9845 344.265 17.6176C344.265 18.2507 344.139 18.813 343.886 19.3046C343.64 19.7887 343.301 20.1648 342.869 20.433C342.444 20.7011 341.968 20.8352 341.439 20.8352C340.977 20.8352 340.571 20.7458 340.221 20.567C339.879 20.3808 339.603 20.1425 339.394 19.852V20.7346H337.83V12.4672H339.394V15.4502ZM342.668 17.6176C342.668 17.2452 342.59 16.9249 342.433 16.6568C342.284 16.3812 342.083 16.1726 341.83 16.0311C341.584 15.8896 341.316 15.8189 341.026 15.8189C340.742 15.8189 340.474 15.8933 340.221 16.0423C339.975 16.1838 339.774 16.3924 339.618 16.6679C339.469 16.9435 339.394 17.2675 339.394 17.6399C339.394 18.0123 339.469 18.3363 339.618 18.6119C339.774 18.8875 339.975 19.0998 340.221 19.2487C340.474 19.3902 340.742 19.461 341.026 19.461C341.316 19.461 341.584 19.3865 341.83 19.2375C342.083 19.0886 342.284 18.8763 342.433 18.6007C342.59 18.3252 342.668 17.9974 342.668 17.6176Z" fill="#393858"/>
<path d="M220.379 67.7205C221.267 67.7205 222.043 67.8925 222.707 68.2365C223.379 68.5725 223.895 69.0605 224.255 69.7005C224.623 70.3325 224.807 71.0725 224.807 71.9205C224.807 72.7685 224.623 73.5045 224.255 74.1285C223.895 74.7525 223.379 75.2325 222.707 75.5685C222.043 75.8965 221.267 76.0605 220.379 76.0605H217.655V67.7205H220.379ZM220.379 74.9445C221.355 74.9445 222.103 74.6805 222.623 74.1525C223.143 73.6245 223.403 72.8805 223.403 71.9205C223.403 70.9525 223.143 70.1965 222.623 69.6525C222.103 69.1085 221.355 68.8365 220.379 68.8365H219.023V74.9445H220.379ZM228.911 76.1445C228.351 76.1445 227.847 76.0485 227.399 75.8565C226.951 75.6565 226.599 75.3765 226.343 75.0165C226.087 74.6565 225.959 74.2365 225.959 73.7565H227.423C227.455 74.1165 227.595 74.4125 227.843 74.6445C228.099 74.8765 228.455 74.9925 228.911 74.9925C229.383 74.9925 229.751 74.8805 230.015 74.6565C230.279 74.4245 230.411 74.1285 230.411 73.7685C230.411 73.4885 230.327 73.2605 230.159 73.0845C229.999 72.9085 229.795 72.7725 229.547 72.6765C229.307 72.5805 228.971 72.4765 228.539 72.3645C227.995 72.2205 227.551 72.0765 227.207 71.9325C226.871 71.7805 226.583 71.5485 226.343 71.2365C226.103 70.9245 225.983 70.5085 225.983 69.9885C225.983 69.5085 226.103 69.0885 226.343 68.7285C226.583 68.3685 226.919 68.0925 227.351 67.9005C227.783 67.7085 228.283 67.6125 228.851 67.6125C229.659 67.6125 230.319 67.8165 230.831 68.2245C231.351 68.6245 231.639 69.1765 231.695 69.8805H230.183C230.159 69.5765 230.015 69.3165 229.751 69.1005C229.487 68.8845 229.139 68.7765 228.707 68.7765C228.315 68.7765 227.995 68.8765 227.747 69.0765C227.499 69.2765 227.375 69.5645 227.375 69.9405C227.375 70.1965 227.451 70.4085 227.603 70.5765C227.763 70.7365 227.963 70.8645 228.203 70.9605C228.443 71.0565 228.771 71.1605 229.187 71.2725C229.739 71.4245 230.187 71.5765 230.531 71.7285C230.883 71.8805 231.179 72.1165 231.419 72.4365C231.667 72.7485 231.791 73.1685 231.791 73.6965C231.791 74.1205 231.675 74.5205 231.443 74.8965C231.219 75.2725 230.887 75.5765 230.447 75.8085C230.015 76.0325 229.503 76.1445 228.911 76.1445ZM236.066 71.8725C236.066 71.0565 236.254 70.3245 236.63 69.6765C237.014 69.0285 237.53 68.5245 238.178 68.1645C238.834 67.7965 239.55 67.6125 240.326 67.6125C241.214 67.6125 242.002 67.8325 242.69 68.2725C243.386 68.7045 243.89 69.3205 244.202 70.1205H242.558C242.342 69.6805 242.042 69.3525 241.658 69.1365C241.274 68.9205 240.83 68.8125 240.326 68.8125C239.774 68.8125 239.282 68.9365 238.85 69.1845C238.418 69.4325 238.078 69.7885 237.83 70.2525C237.59 70.7165 237.47 71.2565 237.47 71.8725C237.47 72.4885 237.59 73.0285 237.83 73.4925C238.078 73.9565 238.418 74.3165 238.85 74.5725C239.282 74.8205 239.774 74.9445 240.326 74.9445C240.83 74.9445 241.274 74.8365 241.658 74.6205C242.042 74.4045 242.342 74.0765 242.558 73.6365H244.202C243.89 74.4365 243.386 75.0525 242.69 75.4845C242.002 75.9165 241.214 76.1325 240.326 76.1325C239.542 76.1325 238.826 75.9525 238.178 75.5925C237.53 75.2245 237.014 74.7165 236.63 74.0685C236.254 73.4205 236.066 72.6885 236.066 71.8725ZM251.791 69.4485V76.0605H250.423V75.2805C250.207 75.5525 249.923 75.7685 249.571 75.9285C249.227 76.0805 248.859 76.1565 248.467 76.1565C247.947 76.1565 247.479 76.0485 247.063 75.8325C246.655 75.6165 246.331 75.2965 246.091 74.8725C245.859 74.4485 245.743 73.9365 245.743 73.3365V69.4485H247.099V73.1325C247.099 73.7245 247.247 74.1805 247.543 74.5005C247.839 74.8125 248.243 74.9685 248.755 74.9685C249.267 74.9685 249.671 74.8125 249.967 74.5005C250.271 74.1805 250.423 73.7245 250.423 73.1325V69.4485H251.791ZM254.964 70.4085C255.164 70.0725 255.428 69.8125 255.756 69.6285C256.092 69.4365 256.488 69.3405 256.944 69.3405V70.7565H256.596C256.06 70.7565 255.652 70.8925 255.372 71.1645C255.1 71.4365 254.964 71.9085 254.964 72.5805V76.0605H253.596V69.4485H254.964V70.4085ZM259.57 70.4085C259.77 70.0725 260.034 69.8125 260.362 69.6285C260.698 69.4365 261.094 69.3405 261.55 69.3405V70.7565H261.202C260.666 70.7565 260.258 70.8925 259.978 71.1645C259.706 71.4365 259.57 71.9085 259.57 72.5805V76.0605H258.202V69.4485H259.57V70.4085ZM263.503 68.5725C263.255 68.5725 263.047 68.4885 262.879 68.3205C262.711 68.1525 262.627 67.9445 262.627 67.6965C262.627 67.4485 262.711 67.2405 262.879 67.0725C263.047 66.9045 263.255 66.8205 263.503 66.8205C263.743 66.8205 263.947 66.9045 264.115 67.0725C264.283 67.2405 264.367 67.4485 264.367 67.6965C264.367 67.9445 264.283 68.1525 264.115 68.3205C263.947 68.4885 263.743 68.5725 263.503 68.5725ZM264.175 69.4485V76.0605H262.807V69.4485H264.175ZM265.515 72.7485C265.515 72.0685 265.651 71.4725 265.923 70.9605C266.203 70.4405 266.587 70.0405 267.075 69.7605C267.563 69.4805 268.123 69.3405 268.755 69.3405C269.555 69.3405 270.215 69.5325 270.735 69.9165C271.263 70.2925 271.619 70.8325 271.803 71.5365H270.327C270.207 71.2085 270.015 70.9525 269.751 70.7685C269.487 70.5845 269.155 70.4925 268.755 70.4925C268.195 70.4925 267.747 70.6925 267.411 71.0925C267.083 71.4845 266.919 72.0365 266.919 72.7485C266.919 73.4605 267.083 74.0165 267.411 74.4165C267.747 74.8165 268.195 75.0165 268.755 75.0165C269.547 75.0165 270.071 74.6685 270.327 73.9725H271.803C271.611 74.6445 271.251 75.1805 270.723 75.5805C270.195 75.9725 269.539 76.1685 268.755 76.1685C268.123 76.1685 267.563 76.0285 267.075 75.7485C266.587 75.4605 266.203 75.0605 265.923 74.5485C265.651 74.0285 265.515 73.4285 265.515 72.7485ZM279.155 69.4485V76.0605H277.787V75.2805C277.571 75.5525 277.287 75.7685 276.935 75.9285C276.591 76.0805 276.223 76.1565 275.831 76.1565C275.311 76.1565 274.843 76.0485 274.427 75.8325C274.019 75.6165 273.695 75.2965 273.455 74.8725C273.223 74.4485 273.107 73.9365 273.107 73.3365V69.4485H274.463V73.1325C274.463 73.7245 274.611 74.1805 274.907 74.5005C275.203 74.8125 275.607 74.9685 276.119 74.9685C276.631 74.9685 277.035 74.8125 277.331 74.5005C277.635 74.1805 277.787 73.7245 277.787 73.1325V69.4485H279.155ZM282.328 67.1805V76.0605H280.96V67.1805H282.328ZM290.112 69.4485V76.0605H288.744V75.2805C288.528 75.5525 288.244 75.7685 287.892 75.9285C287.548 76.0805 287.18 76.1565 286.788 76.1565C286.268 76.1565 285.8 76.0485 285.384 75.8325C284.976 75.6165 284.652 75.2965 284.412 74.8725C284.18 74.4485 284.064 73.9365 284.064 73.3365V69.4485H285.42V73.1325C285.42 73.7245 285.568 74.1805 285.864 74.5005C286.16 74.8125 286.564 74.9685 287.076 74.9685C287.588 74.9685 287.992 74.8125 288.288 74.5005C288.592 74.1805 288.744 73.7245 288.744 73.1325V69.4485H290.112ZM299.921 69.3405C300.441 69.3405 300.905 69.4485 301.313 69.6645C301.729 69.8805 302.053 70.2005 302.285 70.6245C302.525 71.0485 302.645 71.5605 302.645 72.1605V76.0605H301.289V72.3645C301.289 71.7725 301.141 71.3205 300.845 71.0085C300.549 70.6885 300.145 70.5285 299.633 70.5285C299.121 70.5285 298.713 70.6885 298.409 71.0085C298.113 71.3205 297.965 71.7725 297.965 72.3645V76.0605H296.609V72.3645C296.609 71.7725 296.461 71.3205 296.165 71.0085C295.869 70.6885 295.465 70.5285 294.953 70.5285C294.441 70.5285 294.033 70.6885 293.729 71.0085C293.433 71.3205 293.285 71.7725 293.285 72.3645V76.0605H291.917V69.4485H293.285V70.2045C293.509 69.9325 293.793 69.7205 294.137 69.5685C294.481 69.4165 294.849 69.3405 295.241 69.3405C295.769 69.3405 296.241 69.4525 296.657 69.6765C297.073 69.9005 297.393 70.2245 297.617 70.6485C297.817 70.2485 298.129 69.9325 298.553 69.7005C298.977 69.4605 299.433 69.3405 299.921 69.3405ZM316.286 67.7205V76.0605H314.918V70.3485L312.374 76.0605H311.426L308.87 70.3485V76.0605H307.502V67.7205H308.978L311.906 74.2605L314.822 67.7205H316.286ZM320.953 76.1685C320.329 76.1685 319.765 76.0285 319.261 75.7485C318.757 75.4605 318.361 75.0605 318.073 74.5485C317.785 74.0285 317.641 73.4285 317.641 72.7485C317.641 72.0765 317.789 71.4805 318.085 70.9605C318.381 70.4405 318.785 70.0405 319.297 69.7605C319.809 69.4805 320.381 69.3405 321.013 69.3405C321.645 69.3405 322.217 69.4805 322.729 69.7605C323.241 70.0405 323.645 70.4405 323.941 70.9605C324.237 71.4805 324.385 72.0765 324.385 72.7485C324.385 73.4205 324.233 74.0165 323.929 74.5365C323.625 75.0565 323.209 75.4605 322.681 75.7485C322.161 76.0285 321.585 76.1685 320.953 76.1685ZM320.953 74.9805C321.305 74.9805 321.633 74.8965 321.937 74.7285C322.249 74.5605 322.501 74.3085 322.693 73.9725C322.885 73.6365 322.981 73.2285 322.981 72.7485C322.981 72.2685 322.889 71.8645 322.705 71.5365C322.521 71.2005 322.277 70.9485 321.973 70.7805C321.669 70.6125 321.341 70.5285 320.989 70.5285C320.637 70.5285 320.309 70.6125 320.005 70.7805C319.709 70.9485 319.473 71.2005 319.297 71.5365C319.121 71.8645 319.033 72.2685 319.033 72.7485C319.033 73.4605 319.213 74.0125 319.573 74.4045C319.941 74.7885 320.401 74.9805 320.953 74.9805ZM325.281 72.7245C325.281 72.0605 325.417 71.4725 325.689 70.9605C325.969 70.4485 326.345 70.0525 326.817 69.7725C327.297 69.4845 327.829 69.3405 328.413 69.3405C328.845 69.3405 329.269 69.4365 329.685 69.6285C330.109 69.8125 330.445 70.0605 330.693 70.3725V67.1805H332.073V76.0605H330.693V75.0645C330.469 75.3845 330.157 75.6485 329.757 75.8565C329.365 76.0645 328.913 76.1685 328.401 76.1685C327.825 76.1685 327.297 76.0245 326.817 75.7365C326.345 75.4405 325.969 75.0325 325.689 74.5125C325.417 73.9845 325.281 73.3885 325.281 72.7245ZM330.693 72.7485C330.693 72.2925 330.597 71.8965 330.405 71.5605C330.221 71.2245 329.977 70.9685 329.673 70.7925C329.369 70.6165 329.041 70.5285 328.689 70.5285C328.337 70.5285 328.009 70.6165 327.705 70.7925C327.401 70.9605 327.153 71.2125 326.961 71.5485C326.777 71.8765 326.685 72.2685 326.685 72.7245C326.685 73.1805 326.777 73.5805 326.961 73.9245C327.153 74.2685 327.401 74.5325 327.705 74.7165C328.017 74.8925 328.345 74.9805 328.689 74.9805C329.041 74.9805 329.369 74.8925 329.673 74.7165C329.977 74.5405 330.221 74.2845 330.405 73.9485C330.597 73.6045 330.693 73.2045 330.693 72.7485ZM339.858 69.4485V76.0605H338.49V75.2805C338.274 75.5525 337.99 75.7685 337.638 75.9285C337.294 76.0805 336.926 76.1565 336.534 76.1565C336.014 76.1565 335.546 76.0485 335.13 75.8325C334.722 75.6165 334.398 75.2965 334.158 74.8725C333.926 74.4485 333.81 73.9365 333.81 73.3365V69.4485H335.166V73.1325C335.166 73.7245 335.314 74.1805 335.61 74.5005C335.906 74.8125 336.31 74.9685 336.822 74.9685C337.334 74.9685 337.738 74.8125 338.034 74.5005C338.338 74.1805 338.49 73.7245 338.49 73.1325V69.4485H339.858ZM343.031 67.1805V76.0605H341.663V67.1805H343.031ZM350.887 72.5925C350.887 72.8405 350.871 73.0645 350.839 73.2645H345.787C345.827 73.7925 346.023 74.2165 346.375 74.5365C346.727 74.8565 347.159 75.0165 347.671 75.0165C348.407 75.0165 348.927 74.7085 349.231 74.0925H350.707C350.507 74.7005 350.143 75.2005 349.615 75.5925C349.095 75.9765 348.447 76.1685 347.671 76.1685C347.039 76.1685 346.471 76.0285 345.967 75.7485C345.471 75.4605 345.079 75.0605 344.791 74.5485C344.511 74.0285 344.371 73.4285 344.371 72.7485C344.371 72.0685 344.507 71.4725 344.779 70.9605C345.059 70.4405 345.447 70.0405 345.943 69.7605C346.447 69.4805 347.023 69.3405 347.671 69.3405C348.295 69.3405 348.851 69.4765 349.339 69.7485C349.827 70.0205 350.207 70.4045 350.479 70.9005C350.751 71.3885 350.887 71.9525 350.887 72.5925ZM349.459 72.1605C349.451 71.6565 349.271 71.2525 348.919 70.9485C348.567 70.6445 348.131 70.4925 347.611 70.4925C347.139 70.4925 346.735 70.6445 346.399 70.9485C346.063 71.2445 345.863 71.6485 345.799 72.1605H349.459ZM354.99 68.5605V67.3125H357.486V76.0605H356.106V68.5605H354.99ZM218.077 96.2925C217.293 95.5405 216.689 94.5845 216.265 93.4245C215.849 92.2645 215.641 91.0205 215.641 89.6925C215.641 88.3325 215.865 87.0485 216.313 85.8405C216.769 84.6325 217.437 83.6365 218.317 82.8525H219.733V82.9845C218.813 83.8325 218.121 84.8485 217.657 86.0325C217.193 87.2165 216.961 88.4365 216.961 89.6925C216.961 90.9005 217.177 92.0685 217.609 93.1965C218.041 94.3245 218.669 95.3125 219.493 96.1605V96.2925H218.077ZM220.504 89.8725C220.504 89.0565 220.692 88.3245 221.068 87.6765C221.452 87.0285 221.968 86.5245 222.616 86.1645C223.272 85.7965 223.988 85.6125 224.764 85.6125C225.652 85.6125 226.44 85.8325 227.128 86.2725C227.824 86.7045 228.328 87.3205 228.64 88.1205H226.996C226.78 87.6805 226.48 87.3525 226.096 87.1365C225.712 86.9205 225.268 86.8125 224.764 86.8125C224.212 86.8125 223.72 86.9365 223.288 87.1845C222.856 87.4325 222.516 87.7885 222.268 88.2525C222.028 88.7165 221.908 89.2565 221.908 89.8725C221.908 90.4885 222.028 91.0285 222.268 91.4925C222.516 91.9565 222.856 92.3165 223.288 92.5725C223.72 92.8205 224.212 92.9445 224.764 92.9445C225.268 92.9445 225.712 92.8365 226.096 92.6205C226.48 92.4045 226.78 92.0765 226.996 91.6365H228.64C228.328 92.4365 227.824 93.0525 227.128 93.4845C226.44 93.9165 225.652 94.1325 224.764 94.1325C223.98 94.1325 223.264 93.9525 222.616 93.5925C221.968 93.2245 221.452 92.7165 221.068 92.0685C220.692 91.4205 220.504 90.6885 220.504 89.8725ZM229.785 90.7245C229.785 90.0605 229.921 89.4725 230.193 88.9605C230.473 88.4485 230.849 88.0525 231.321 87.7725C231.801 87.4845 232.329 87.3405 232.905 87.3405C233.425 87.3405 233.877 87.4445 234.261 87.6525C234.653 87.8525 234.965 88.1045 235.197 88.4085V87.4485H236.577V94.0605H235.197V93.0765C234.965 93.3885 234.649 93.6485 234.249 93.8565C233.849 94.0645 233.393 94.1685 232.881 94.1685C232.313 94.1685 231.793 94.0245 231.321 93.7365C230.849 93.4405 230.473 93.0325 230.193 92.5125C229.921 91.9845 229.785 91.3885 229.785 90.7245ZM235.197 90.7485C235.197 90.2925 235.101 89.8965 234.909 89.5605C234.725 89.2245 234.481 88.9685 234.177 88.7925C233.873 88.6165 233.545 88.5285 233.193 88.5285C232.841 88.5285 232.513 88.6165 232.209 88.7925C231.905 88.9605 231.657 89.2125 231.465 89.5485C231.281 89.8765 231.189 90.2685 231.189 90.7245C231.189 91.1805 231.281 91.5805 231.465 91.9245C231.657 92.2685 231.905 92.5325 232.209 92.7165C232.521 92.8925 232.849 92.9805 233.193 92.9805C233.545 92.9805 233.873 92.8925 234.177 92.7165C234.481 92.5405 234.725 92.2845 234.909 91.9485C235.101 91.6045 235.197 91.2045 235.197 90.7485ZM239.742 85.1805V94.0605H238.374V85.1805H239.742ZM242.906 85.1805V94.0605H241.538V85.1805H242.906ZM249.187 88.4085C249.387 88.0725 249.651 87.8125 249.979 87.6285C250.315 87.4365 250.711 87.3405 251.167 87.3405V88.7565H250.819C250.283 88.7565 249.875 88.8925 249.595 89.1645C249.323 89.4365 249.187 89.9085 249.187 90.5805V94.0605H247.819V87.4485H249.187V88.4085ZM258.484 90.5925C258.484 90.8405 258.468 91.0645 258.436 91.2645H253.384C253.424 91.7925 253.62 92.2165 253.972 92.5365C254.324 92.8565 254.756 93.0165 255.268 93.0165C256.004 93.0165 256.524 92.7085 256.828 92.0925H258.304C258.104 92.7005 257.74 93.2005 257.212 93.5925C256.692 93.9765 256.044 94.1685 255.268 94.1685C254.636 94.1685 254.068 94.0285 253.564 93.7485C253.068 93.4605 252.676 93.0605 252.388 92.5485C252.108 92.0285 251.968 91.4285 251.968 90.7485C251.968 90.0685 252.104 89.4725 252.376 88.9605C252.656 88.4405 253.044 88.0405 253.54 87.7605C254.044 87.4805 254.62 87.3405 255.268 87.3405C255.892 87.3405 256.448 87.4765 256.936 87.7485C257.424 88.0205 257.804 88.4045 258.076 88.9005C258.348 89.3885 258.484 89.9525 258.484 90.5925ZM257.056 90.1605C257.048 89.6565 256.868 89.2525 256.516 88.9485C256.164 88.6445 255.728 88.4925 255.208 88.4925C254.736 88.4925 254.332 88.6445 253.996 88.9485C253.66 89.2445 253.46 89.6485 253.396 90.1605H257.056ZM267.835 87.3405C268.355 87.3405 268.819 87.4485 269.227 87.6645C269.643 87.8805 269.967 88.2005 270.199 88.6245C270.439 89.0485 270.559 89.5605 270.559 90.1605V94.0605H269.203V90.3645C269.203 89.7725 269.055 89.3205 268.759 89.0085C268.463 88.6885 268.059 88.5285 267.547 88.5285C267.035 88.5285 266.627 88.6885 266.323 89.0085C266.027 89.3205 265.879 89.7725 265.879 90.3645V94.0605H264.523V90.3645C264.523 89.7725 264.375 89.3205 264.079 89.0085C263.783 88.6885 263.379 88.5285 262.867 88.5285C262.355 88.5285 261.947 88.6885 261.643 89.0085C261.347 89.3205 261.199 89.7725 261.199 90.3645V94.0605H259.831V87.4485H261.199V88.2045C261.423 87.9325 261.707 87.7205 262.051 87.5685C262.395 87.4165 262.763 87.3405 263.155 87.3405C263.683 87.3405 264.155 87.4525 264.571 87.6765C264.987 87.9005 265.307 88.2245 265.531 88.6485C265.731 88.2485 266.043 87.9325 266.467 87.7005C266.891 87.4605 267.347 87.3405 267.835 87.3405ZM271.843 90.7245C271.843 90.0605 271.979 89.4725 272.251 88.9605C272.531 88.4485 272.907 88.0525 273.379 87.7725C273.859 87.4845 274.387 87.3405 274.963 87.3405C275.483 87.3405 275.935 87.4445 276.319 87.6525C276.711 87.8525 277.023 88.1045 277.255 88.4085V87.4485H278.635V94.0605H277.255V93.0765C277.023 93.3885 276.707 93.6485 276.307 93.8565C275.907 94.0645 275.451 94.1685 274.939 94.1685C274.371 94.1685 273.851 94.0245 273.379 93.7365C272.907 93.4405 272.531 93.0325 272.251 92.5125C271.979 91.9845 271.843 91.3885 271.843 90.7245ZM277.255 90.7485C277.255 90.2925 277.159 89.8965 276.967 89.5605C276.783 89.2245 276.539 88.9685 276.235 88.7925C275.931 88.6165 275.603 88.5285 275.251 88.5285C274.899 88.5285 274.571 88.6165 274.267 88.7925C273.963 88.9605 273.715 89.2125 273.523 89.5485C273.339 89.8765 273.247 90.2685 273.247 90.7245C273.247 91.1805 273.339 91.5805 273.523 91.9245C273.715 92.2685 273.963 92.5325 274.267 92.7165C274.579 92.8925 274.907 92.9805 275.251 92.9805C275.603 92.9805 275.931 92.8925 276.235 92.7165C276.539 92.5405 276.783 92.2845 276.967 91.9485C277.159 91.6045 277.255 91.2045 277.255 90.7485ZM281.128 86.5725C280.88 86.5725 280.672 86.4885 280.504 86.3205C280.336 86.1525 280.252 85.9445 280.252 85.6965C280.252 85.4485 280.336 85.2405 280.504 85.0725C280.672 84.9045 280.88 84.8205 281.128 84.8205C281.368 84.8205 281.572 84.9045 281.74 85.0725C281.908 85.2405 281.992 85.4485 281.992 85.6965C281.992 85.9445 281.908 86.1525 281.74 86.3205C281.572 86.4885 281.368 86.5725 281.128 86.5725ZM281.8 87.4485V94.0605H280.432V87.4485H281.8ZM286.932 87.3405C287.452 87.3405 287.916 87.4485 288.324 87.6645C288.74 87.8805 289.064 88.2005 289.296 88.6245C289.528 89.0485 289.644 89.5605 289.644 90.1605V94.0605H288.288V90.3645C288.288 89.7725 288.14 89.3205 287.844 89.0085C287.548 88.6885 287.144 88.5285 286.632 88.5285C286.12 88.5285 285.712 88.6885 285.408 89.0085C285.112 89.3205 284.964 89.7725 284.964 90.3645V94.0605H283.596V87.4485H284.964V88.2045C285.188 87.9325 285.472 87.7205 285.816 87.5685C286.168 87.4165 286.54 87.3405 286.932 87.3405ZM293.789 94.1685C293.269 94.1685 292.801 94.0765 292.385 93.8925C291.977 93.7005 291.653 93.4445 291.413 93.1245C291.173 92.7965 291.045 92.4325 291.029 92.0325H292.445C292.469 92.3125 292.601 92.5485 292.841 92.7405C293.089 92.9245 293.397 93.0165 293.765 93.0165C294.149 93.0165 294.445 92.9445 294.653 92.8005C294.869 92.6485 294.977 92.4565 294.977 92.2245C294.977 91.9765 294.857 91.7925 294.617 91.6725C294.385 91.5525 294.013 91.4205 293.501 91.2765C293.005 91.1405 292.601 91.0085 292.289 90.8805C291.977 90.7525 291.705 90.5565 291.473 90.2925C291.249 90.0285 291.137 89.6805 291.137 89.2485C291.137 88.8965 291.241 88.5765 291.449 88.2885C291.657 87.9925 291.953 87.7605 292.337 87.5925C292.729 87.4245 293.177 87.3405 293.681 87.3405C294.433 87.3405 295.037 87.5325 295.493 87.9165C295.957 88.2925 296.205 88.8085 296.237 89.4645H294.869C294.845 89.1685 294.725 88.9325 294.509 88.7565C294.293 88.5805 294.001 88.4925 293.633 88.4925C293.273 88.4925 292.997 88.5605 292.805 88.6965C292.613 88.8325 292.517 89.0125 292.517 89.2365C292.517 89.4125 292.581 89.5605 292.709 89.6805C292.837 89.8005 292.993 89.8965 293.177 89.9685C293.361 90.0325 293.633 90.1165 293.993 90.2205C294.473 90.3485 294.865 90.4805 295.169 90.6165C295.481 90.7445 295.749 90.9365 295.973 91.1925C296.197 91.4485 296.313 91.7885 296.321 92.2125C296.321 92.5885 296.217 92.9245 296.009 93.2205C295.801 93.5165 295.505 93.7485 295.121 93.9165C294.745 94.0845 294.301 94.1685 293.789 94.1685ZM303.785 94.1685C303.161 94.1685 302.597 94.0285 302.093 93.7485C301.589 93.4605 301.193 93.0605 300.905 92.5485C300.617 92.0285 300.473 91.4285 300.473 90.7485C300.473 90.0765 300.621 89.4805 300.917 88.9605C301.213 88.4405 301.617 88.0405 302.129 87.7605C302.641 87.4805 303.213 87.3405 303.845 87.3405C304.477 87.3405 305.049 87.4805 305.561 87.7605C306.073 88.0405 306.477 88.4405 306.773 88.9605C307.069 89.4805 307.217 90.0765 307.217 90.7485C307.217 91.4205 307.065 92.0165 306.761 92.5365C306.457 93.0565 306.041 93.4605 305.513 93.7485C304.993 94.0285 304.417 94.1685 303.785 94.1685ZM303.785 92.9805C304.137 92.9805 304.465 92.8965 304.769 92.7285C305.081 92.5605 305.333 92.3085 305.525 91.9725C305.717 91.6365 305.813 91.2285 305.813 90.7485C305.813 90.2685 305.721 89.8645 305.537 89.5365C305.353 89.2005 305.109 88.9485 304.805 88.7805C304.501 88.6125 304.173 88.5285 303.821 88.5285C303.469 88.5285 303.141 88.6125 302.837 88.7805C302.541 88.9485 302.305 89.2005 302.129 89.5365C301.953 89.8645 301.865 90.2685 301.865 90.7485C301.865 91.4605 302.045 92.0125 302.405 92.4045C302.773 92.7885 303.233 92.9805 303.785 92.9805ZM309.937 88.4205C310.169 88.1165 310.485 87.8605 310.885 87.6525C311.285 87.4445 311.737 87.3405 312.241 87.3405C312.817 87.3405 313.341 87.4845 313.813 87.7725C314.293 88.0525 314.669 88.4485 314.941 88.9605C315.213 89.4725 315.349 90.0605 315.349 90.7245C315.349 91.3885 315.213 91.9845 314.941 92.5125C314.669 93.0325 314.293 93.4405 313.813 93.7365C313.341 94.0245 312.817 94.1685 312.241 94.1685C311.737 94.1685 311.289 94.0685 310.897 93.8685C310.505 93.6605 310.185 93.4045 309.937 93.1005V97.2045H308.569V87.4485H309.937V88.4205ZM313.957 90.7245C313.957 90.2685 313.861 89.8765 313.669 89.5485C313.485 89.2125 313.237 88.9605 312.925 88.7925C312.621 88.6165 312.293 88.5285 311.941 88.5285C311.597 88.5285 311.269 88.6165 310.957 88.7925C310.653 88.9685 310.405 89.2245 310.213 89.5605C310.029 89.8965 309.937 90.2925 309.937 90.7485C309.937 91.2045 310.029 91.6045 310.213 91.9485C310.405 92.2845 310.653 92.5405 310.957 92.7165C311.269 92.8925 311.597 92.9805 311.941 92.9805C312.293 92.9805 312.621 92.8925 312.925 92.7165C313.237 92.5325 313.485 92.2685 313.669 91.9245C313.861 91.5805 313.957 91.1805 313.957 90.7245ZM322.762 90.5925C322.762 90.8405 322.746 91.0645 322.714 91.2645H317.662C317.702 91.7925 317.898 92.2165 318.25 92.5365C318.602 92.8565 319.034 93.0165 319.546 93.0165C320.282 93.0165 320.802 92.7085 321.106 92.0925H322.582C322.382 92.7005 322.018 93.2005 321.49 93.5925C320.97 93.9765 320.322 94.1685 319.546 94.1685C318.914 94.1685 318.346 94.0285 317.842 93.7485C317.346 93.4605 316.954 93.0605 316.666 92.5485C316.386 92.0285 316.246 91.4285 316.246 90.7485C316.246 90.0685 316.382 89.4725 316.654 88.9605C316.934 88.4405 317.322 88.0405 317.818 87.7605C318.322 87.4805 318.898 87.3405 319.546 87.3405C320.17 87.3405 320.726 87.4765 321.214 87.7485C321.702 88.0205 322.082 88.4045 322.354 88.9005C322.626 89.3885 322.762 89.9525 322.762 90.5925ZM321.334 90.1605C321.326 89.6565 321.146 89.2525 320.794 88.9485C320.442 88.6445 320.006 88.4925 319.486 88.4925C319.014 88.4925 318.61 88.6445 318.274 88.9485C317.938 89.2445 317.738 89.6485 317.674 90.1605H321.334ZM327.444 87.3405C327.964 87.3405 328.428 87.4485 328.836 87.6645C329.252 87.8805 329.576 88.2005 329.808 88.6245C330.04 89.0485 330.156 89.5605 330.156 90.1605V94.0605H328.8V90.3645C328.8 89.7725 328.652 89.3205 328.356 89.0085C328.06 88.6885 327.656 88.5285 327.144 88.5285C326.632 88.5285 326.224 88.6885 325.92 89.0085C325.624 89.3205 325.476 89.7725 325.476 90.3645V94.0605H324.108V87.4485H325.476V88.2045C325.7 87.9325 325.984 87.7205 326.328 87.5685C326.68 87.4165 327.052 87.3405 327.444 87.3405ZM340.97 87.4485L336.914 97.1685H335.498L336.842 93.9525L334.238 87.4485H335.762L337.622 92.4885L339.554 87.4485H340.97ZM348.062 90.5925C348.062 90.8405 348.046 91.0645 348.014 91.2645H342.962C343.002 91.7925 343.198 92.2165 343.55 92.5365C343.902 92.8565 344.334 93.0165 344.846 93.0165C345.582 93.0165 346.102 92.7085 346.406 92.0925H347.882C347.682 92.7005 347.318 93.2005 346.79 93.5925C346.27 93.9765 345.622 94.1685 344.846 94.1685C344.214 94.1685 343.646 94.0285 343.142 93.7485C342.646 93.4605 342.254 93.0605 341.966 92.5485C341.686 92.0285 341.546 91.4285 341.546 90.7485C341.546 90.0685 341.682 89.4725 341.954 88.9605C342.234 88.4405 342.622 88.0405 343.118 87.7605C343.622 87.4805 344.198 87.3405 344.846 87.3405C345.47 87.3405 346.026 87.4765 346.514 87.7485C347.002 88.0205 347.382 88.4045 347.654 88.9005C347.926 89.3885 348.062 89.9525 348.062 90.5925ZM346.634 90.1605C346.626 89.6565 346.446 89.2525 346.094 88.9485C345.742 88.6445 345.306 88.4925 344.786 88.4925C344.314 88.4925 343.91 88.6445 343.574 88.9485C343.238 89.2445 343.038 89.6485 342.974 90.1605H346.634ZM348.953 90.7245C348.953 90.0605 349.089 89.4725 349.361 88.9605C349.641 88.4485 350.017 88.0525 350.489 87.7725C350.969 87.4845 351.497 87.3405 352.073 87.3405C352.593 87.3405 353.045 87.4445 353.429 87.6525C353.821 87.8525 354.133 88.1045 354.365 88.4085V87.4485H355.745V94.0605H354.365V93.0765C354.133 93.3885 353.817 93.6485 353.417 93.8565C353.017 94.0645 352.561 94.1685 352.049 94.1685C351.481 94.1685 350.961 94.0245 350.489 93.7365C350.017 93.4405 349.641 93.0325 349.361 92.5125C349.089 91.9845 348.953 91.3885 348.953 90.7245ZM354.365 90.7485C354.365 90.2925 354.269 89.8965 354.077 89.5605C353.893 89.2245 353.649 88.9685 353.345 88.7925C353.041 88.6165 352.713 88.5285 352.361 88.5285C352.009 88.5285 351.681 88.6165 351.377 88.7925C351.073 88.9605 350.825 89.2125 350.633 89.5485C350.449 89.8765 350.357 90.2685 350.357 90.7245C350.357 91.1805 350.449 91.5805 350.633 91.9245C350.825 92.2685 351.073 92.5325 351.377 92.7165C351.689 92.8925 352.017 92.9805 352.361 92.9805C352.713 92.9805 353.041 92.8925 353.345 92.7165C353.649 92.5405 353.893 92.2845 354.077 91.9485C354.269 91.6045 354.365 91.2045 354.365 90.7485ZM358.91 88.4085C359.11 88.0725 359.374 87.8125 359.702 87.6285C360.038 87.4365 360.434 87.3405 360.89 87.3405V88.7565H360.542C360.006 88.7565 359.598 88.8925 359.318 89.1645C359.046 89.4365 358.91 89.9085 358.91 90.5805V94.0605H357.542V87.4485H358.91V88.4085ZM269.027 106.409C269.227 106.073 269.491 105.813 269.819 105.629C270.155 105.437 270.551 105.341 271.007 105.341V106.757H270.659C270.123 106.757 269.715 106.893 269.435 107.165C269.163 107.437 269.027 107.909 269.027 108.581V112.061H267.659V105.449H269.027V106.409ZM275.132 112.169C274.508 112.169 273.944 112.029 273.44 111.749C272.936 111.461 272.54 111.061 272.252 110.549C271.964 110.029 271.82 109.429 271.82 108.749C271.82 108.077 271.968 107.481 272.264 106.961C272.56 106.441 272.964 106.041 273.476 105.761C273.988 105.481 274.56 105.341 275.192 105.341C275.824 105.341 276.396 105.481 276.908 105.761C277.42 106.041 277.824 106.441 278.12 106.961C278.416 107.481 278.564 108.077 278.564 108.749C278.564 109.421 278.412 110.017 278.108 110.537C277.804 111.057 277.388 111.461 276.86 111.749C276.34 112.029 275.764 112.169 275.132 112.169ZM275.132 110.981C275.484 110.981 275.812 110.897 276.116 110.729C276.428 110.561 276.68 110.309 276.872 109.973C277.064 109.637 277.16 109.229 277.16 108.749C277.16 108.269 277.068 107.865 276.884 107.537C276.7 107.201 276.456 106.949 276.152 106.781C275.848 106.613 275.52 106.529 275.168 106.529C274.816 106.529 274.488 106.613 274.184 106.781C273.888 106.949 273.652 107.201 273.476 107.537C273.3 107.865 273.212 108.269 273.212 108.749C273.212 109.461 273.392 110.013 273.752 110.405C274.12 110.789 274.58 110.981 275.132 110.981ZM285.905 105.449V112.061H284.537V111.281C284.321 111.553 284.037 111.769 283.685 111.929C283.341 112.081 282.973 112.157 282.581 112.157C282.061 112.157 281.593 112.049 281.177 111.833C280.769 111.617 280.445 111.297 280.205 110.873C279.973 110.449 279.857 109.937 279.857 109.337V105.449H281.213V109.133C281.213 109.725 281.361 110.181 281.657 110.501C281.953 110.813 282.357 110.969 282.869 110.969C283.381 110.969 283.785 110.813 284.081 110.501C284.385 110.181 284.537 109.725 284.537 109.133V105.449H285.905ZM291.046 105.341C291.566 105.341 292.03 105.449 292.438 105.665C292.854 105.881 293.178 106.201 293.41 106.625C293.642 107.049 293.758 107.561 293.758 108.161V112.061H292.402V108.365C292.402 107.773 292.254 107.321 291.958 107.009C291.662 106.689 291.258 106.529 290.746 106.529C290.234 106.529 289.826 106.689 289.522 107.009C289.226 107.321 289.078 107.773 289.078 108.365V112.061H287.71V105.449H289.078V106.205C289.302 105.933 289.586 105.721 289.93 105.569C290.282 105.417 290.654 105.341 291.046 105.341ZM295.046 108.725C295.046 108.061 295.182 107.473 295.454 106.961C295.734 106.449 296.11 106.053 296.582 105.773C297.062 105.485 297.594 105.341 298.178 105.341C298.61 105.341 299.034 105.437 299.45 105.629C299.874 105.813 300.21 106.061 300.458 106.373V103.181H301.838V112.061H300.458V111.065C300.234 111.385 299.922 111.649 299.522 111.857C299.13 112.065 298.678 112.169 298.166 112.169C297.59 112.169 297.062 112.025 296.582 111.737C296.11 111.441 295.734 111.033 295.454 110.513C295.182 109.985 295.046 109.389 295.046 108.725ZM300.458 108.749C300.458 108.293 300.362 107.897 300.17 107.561C299.986 107.225 299.742 106.969 299.438 106.793C299.134 106.617 298.806 106.529 298.454 106.529C298.102 106.529 297.774 106.617 297.47 106.793C297.166 106.961 296.918 107.213 296.726 107.549C296.542 107.877 296.45 108.269 296.45 108.725C296.45 109.181 296.542 109.581 296.726 109.925C296.918 110.269 297.166 110.533 297.47 110.717C297.782 110.893 298.11 110.981 298.454 110.981C298.806 110.981 299.134 110.893 299.438 110.717C299.742 110.541 299.986 110.285 300.17 109.949C300.362 109.605 300.458 109.205 300.458 108.749ZM303.299 114.293V114.161C304.123 113.313 304.751 112.325 305.183 111.197C305.615 110.069 305.831 108.901 305.831 107.693C305.831 106.437 305.599 105.217 305.135 104.033C304.671 102.849 303.979 101.833 303.059 100.985V100.853H304.475C305.355 101.637 306.019 102.633 306.467 103.841C306.923 105.049 307.151 106.333 307.151 107.693C307.151 109.021 306.939 110.265 306.515 111.425C306.099 112.585 305.499 113.541 304.715 114.293H303.299Z" fill="white"/>
<circle cx="388.757" cy="18.9069" r="5.15639" fill="white"/>
<line x1="383.6" y1="18.477" x2="575.4" y2="18.477" stroke="white" stroke-width="0.859399"/>
<rect x="431.25" width="96.5008" height="34.4692" rx="17.2346" fill="white"/>
<path d="M447.354 14.1989V16.154H449.979V17.3941H447.354V19.461H450.314V20.7346H445.789V12.9253H450.314V14.1989H447.354ZM451.548 17.6176C451.548 16.9919 451.671 16.4371 451.917 15.9529C452.17 15.4688 452.509 15.0964 452.934 14.8357C453.366 14.575 453.846 14.4447 454.375 14.4447C454.837 14.4447 455.239 14.5378 455.581 14.724C455.931 14.9102 456.211 15.1448 456.419 15.4278V14.5452H457.995V20.7346H456.419V19.8297C456.218 20.1201 455.939 20.3622 455.581 20.5559C455.231 20.7421 454.825 20.8352 454.364 20.8352C453.842 20.8352 453.366 20.7011 452.934 20.433C452.509 20.1648 452.17 19.7887 451.917 19.3046C451.671 18.813 451.548 18.2507 451.548 17.6176ZM456.419 17.6399C456.419 17.2601 456.345 16.9361 456.196 16.6679C456.047 16.3924 455.846 16.1838 455.593 16.0423C455.339 15.8933 455.067 15.8189 454.777 15.8189C454.487 15.8189 454.218 15.8896 453.973 16.0311C453.727 16.1726 453.526 16.3812 453.369 16.6568C453.22 16.9249 453.146 17.2452 453.146 17.6176C453.146 17.99 453.22 18.3177 453.369 18.6007C453.526 18.8763 453.727 19.0886 453.973 19.2375C454.226 19.3865 454.494 19.461 454.777 19.461C455.067 19.461 455.339 19.3902 455.593 19.2487C455.846 19.0998 456.047 18.8912 456.196 18.6231C456.345 18.3475 456.419 18.0198 456.419 17.6399ZM461.301 15.506C461.502 15.1783 461.763 14.9214 462.083 14.7352C462.411 14.549 462.783 14.4559 463.2 14.4559V16.0982H462.787C462.295 16.0982 461.923 16.2136 461.67 16.4445C461.424 16.6754 461.301 17.0776 461.301 17.6511V20.7346H459.737V14.5452H461.301V15.506ZM466.033 12.4672V20.7346H464.469V12.4672H466.033ZM473.714 14.5452L469.882 23.6617H468.218L469.558 20.5782L467.078 14.5452H468.832L470.43 18.8689L472.05 14.5452H473.714ZM486.151 12.9364V20.7346H484.587V15.6624L482.498 20.7346H481.314L479.213 15.6624V20.7346H477.649V12.9364H479.426L481.906 18.7348L484.386 12.9364H486.151ZM487.51 17.6176C487.51 16.9919 487.633 16.4371 487.879 15.9529C488.132 15.4688 488.471 15.0964 488.896 14.8357C489.328 14.575 489.808 14.4447 490.337 14.4447C490.799 14.4447 491.201 14.5378 491.544 14.724C491.894 14.9102 492.173 15.1448 492.381 15.4278V14.5452H493.957V20.7346H492.381V19.8297C492.18 20.1201 491.901 20.3622 491.544 20.5559C491.193 20.7421 490.788 20.8352 490.326 20.8352C489.804 20.8352 489.328 20.7011 488.896 20.433C488.471 20.1648 488.132 19.7887 487.879 19.3046C487.633 18.813 487.51 18.2507 487.51 17.6176ZM492.381 17.6399C492.381 17.2601 492.307 16.9361 492.158 16.6679C492.009 16.3924 491.808 16.1838 491.555 16.0423C491.301 15.8933 491.03 15.8189 490.739 15.8189C490.449 15.8189 490.181 15.8896 489.935 16.0311C489.689 16.1726 489.488 16.3812 489.331 16.6568C489.182 16.9249 489.108 17.2452 489.108 17.6176C489.108 17.99 489.182 18.3177 489.331 18.6007C489.488 18.8763 489.689 19.0886 489.935 19.2375C490.188 19.3865 490.456 19.461 490.739 19.461C491.03 19.461 491.301 19.3902 491.555 19.2487C491.808 19.0998 492.009 18.8912 492.158 18.6231C492.307 18.3475 492.381 18.0198 492.381 17.6399ZM497.263 15.506C497.464 15.1783 497.725 14.9214 498.045 14.7352C498.373 14.549 498.745 14.4559 499.163 14.4559V16.0982H498.749C498.258 16.0982 497.885 16.2136 497.632 16.4445C497.386 16.6754 497.263 17.0776 497.263 17.6511V20.7346H495.699V14.5452H497.263V15.506ZM500.029 17.6399C500.029 16.9994 500.159 16.4408 500.42 15.9641C500.68 15.48 501.042 15.1076 501.503 14.8469C501.965 14.5787 502.494 14.4447 503.09 14.4447C503.857 14.4447 504.49 14.6383 504.989 15.0256C505.496 15.4055 505.835 15.9418 506.006 16.6344H504.319C504.229 16.3663 504.077 16.1577 503.861 16.0088C503.652 15.8524 503.392 15.7742 503.079 15.7742C502.632 15.7742 502.278 15.938 502.017 16.2657C501.757 16.586 501.626 17.0441 501.626 17.6399C501.626 18.2283 501.757 18.6864 502.017 19.0141C502.278 19.3344 502.632 19.4945 503.079 19.4945C503.712 19.4945 504.125 19.2115 504.319 18.6454H506.006C505.835 19.3158 505.496 19.8483 504.989 20.243C504.483 20.6378 503.85 20.8352 503.09 20.8352C502.494 20.8352 501.965 20.7048 501.503 20.4441C501.042 20.176 500.68 19.8036 500.42 19.3269C500.159 18.8428 500.029 18.2805 500.029 17.6399ZM510.852 14.4559C511.321 14.4559 511.739 14.5601 512.104 14.7687C512.468 14.9698 512.752 15.2714 512.953 15.6736C513.161 16.0684 513.265 16.5451 513.265 17.1037V20.7346H511.701V17.3159C511.701 16.8244 511.578 16.4482 511.333 16.1875C511.087 15.9194 510.752 15.7853 510.327 15.7853C509.895 15.7853 509.553 15.9194 509.299 16.1875C509.054 16.4482 508.931 16.8244 508.931 17.3159V20.7346H507.367V12.4672H508.931V15.3161C509.132 15.048 509.4 14.8394 509.735 14.6905C510.07 14.5341 510.443 14.4559 510.852 14.4559Z" fill="#393858"/>
<path d="M418.948 71.8725C418.948 71.0565 419.136 70.3245 419.512 69.6765C419.896 69.0285 420.412 68.5245 421.06 68.1645C421.716 67.7965 422.432 67.6125 423.208 67.6125C424.096 67.6125 424.884 67.8325 425.572 68.2725C426.268 68.7045 426.772 69.3205 427.084 70.1205H425.44C425.224 69.6805 424.924 69.3525 424.54 69.1365C424.156 68.9205 423.712 68.8125 423.208 68.8125C422.656 68.8125 422.164 68.9365 421.732 69.1845C421.3 69.4325 420.96 69.7885 420.712 70.2525C420.472 70.7165 420.352 71.2565 420.352 71.8725C420.352 72.4885 420.472 73.0285 420.712 73.4925C420.96 73.9565 421.3 74.3165 421.732 74.5725C422.164 74.8205 422.656 74.9445 423.208 74.9445C423.712 74.9445 424.156 74.8365 424.54 74.6205C424.924 74.4045 425.224 74.0765 425.44 73.6365H427.084C426.772 74.4365 426.268 75.0525 425.572 75.4845C424.884 75.9165 424.096 76.1325 423.208 76.1325C422.424 76.1325 421.708 75.9525 421.06 75.5925C420.412 75.2245 419.896 74.7165 419.512 74.0685C419.136 73.4205 418.948 72.6885 418.948 71.8725ZM428.229 72.7245C428.229 72.0605 428.365 71.4725 428.637 70.9605C428.917 70.4485 429.293 70.0525 429.765 69.7725C430.245 69.4845 430.773 69.3405 431.349 69.3405C431.869 69.3405 432.321 69.4445 432.705 69.6525C433.097 69.8525 433.409 70.1045 433.641 70.4085V69.4485H435.021V76.0605H433.641V75.0765C433.409 75.3885 433.093 75.6485 432.693 75.8565C432.293 76.0645 431.837 76.1685 431.325 76.1685C430.757 76.1685 430.237 76.0245 429.765 75.7365C429.293 75.4405 428.917 75.0325 428.637 74.5125C428.365 73.9845 428.229 73.3885 428.229 72.7245ZM433.641 72.7485C433.641 72.2925 433.545 71.8965 433.353 71.5605C433.169 71.2245 432.925 70.9685 432.621 70.7925C432.317 70.6165 431.989 70.5285 431.637 70.5285C431.285 70.5285 430.957 70.6165 430.653 70.7925C430.349 70.9605 430.101 71.2125 429.909 71.5485C429.725 71.8765 429.633 72.2685 429.633 72.7245C429.633 73.1805 429.725 73.5805 429.909 73.9245C430.101 74.2685 430.349 74.5325 430.653 74.7165C430.965 74.8925 431.293 74.9805 431.637 74.9805C431.989 74.9805 432.317 74.8925 432.621 74.7165C432.925 74.5405 433.169 74.2845 433.353 73.9485C433.545 73.6045 433.641 73.2045 433.641 72.7485ZM438.186 67.1805V76.0605H436.818V67.1805H438.186ZM441.35 67.1805V76.0605H439.982V67.1805H441.35ZM449.035 70.5645H447.811V76.0605H446.431V70.5645H445.651V69.4485H446.431V68.9805C446.431 68.2205 446.631 67.6685 447.031 67.3245C447.439 66.9725 448.075 66.7965 448.939 66.7965V67.9365C448.523 67.9365 448.231 68.0165 448.063 68.1765C447.895 68.3285 447.811 68.5965 447.811 68.9805V69.4485H449.035V70.5645ZM453.116 76.1685C452.492 76.1685 451.928 76.0285 451.424 75.7485C450.92 75.4605 450.524 75.0605 450.236 74.5485C449.948 74.0285 449.804 73.4285 449.804 72.7485C449.804 72.0765 449.952 71.4805 450.248 70.9605C450.544 70.4405 450.948 70.0405 451.46 69.7605C451.972 69.4805 452.544 69.3405 453.176 69.3405C453.808 69.3405 454.38 69.4805 454.892 69.7605C455.404 70.0405 455.808 70.4405 456.104 70.9605C456.4 71.4805 456.548 72.0765 456.548 72.7485C456.548 73.4205 456.396 74.0165 456.092 74.5365C455.788 75.0565 455.372 75.4605 454.844 75.7485C454.324 76.0285 453.748 76.1685 453.116 76.1685ZM453.116 74.9805C453.468 74.9805 453.796 74.8965 454.1 74.7285C454.412 74.5605 454.664 74.3085 454.856 73.9725C455.048 73.6365 455.144 73.2285 455.144 72.7485C455.144 72.2685 455.052 71.8645 454.868 71.5365C454.684 71.2005 454.44 70.9485 454.136 70.7805C453.832 70.6125 453.504 70.5285 453.152 70.5285C452.8 70.5285 452.472 70.6125 452.168 70.7805C451.872 70.9485 451.636 71.2005 451.46 71.5365C451.284 71.8645 451.196 72.2685 451.196 72.7485C451.196 73.4605 451.376 74.0125 451.736 74.4045C452.104 74.7885 452.564 74.9805 453.116 74.9805ZM459.268 70.4085C459.468 70.0725 459.732 69.8125 460.06 69.6285C460.396 69.4365 460.792 69.3405 461.248 69.3405V70.7565H460.9C460.364 70.7565 459.956 70.8925 459.676 71.1645C459.404 71.4365 459.268 71.9085 459.268 72.5805V76.0605H457.9V69.4485H459.268V70.4085ZM470.651 74.3565H467.159L466.559 76.0605H465.131L468.119 67.7085H469.703L472.691 76.0605H471.251L470.651 74.3565ZM470.267 73.2405L468.911 69.3645L467.543 73.2405H470.267ZM475.358 70.4205C475.59 70.1165 475.906 69.8605 476.306 69.6525C476.706 69.4445 477.158 69.3405 477.662 69.3405C478.238 69.3405 478.762 69.4845 479.234 69.7725C479.714 70.0525 480.09 70.4485 480.362 70.9605C480.634 71.4725 480.77 72.0605 480.77 72.7245C480.77 73.3885 480.634 73.9845 480.362 74.5125C480.09 75.0325 479.714 75.4405 479.234 75.7365C478.762 76.0245 478.238 76.1685 477.662 76.1685C477.158 76.1685 476.71 76.0685 476.318 75.8685C475.926 75.6605 475.606 75.4045 475.358 75.1005V79.2045H473.99V69.4485H475.358V70.4205ZM479.378 72.7245C479.378 72.2685 479.282 71.8765 479.09 71.5485C478.906 71.2125 478.658 70.9605 478.346 70.7925C478.042 70.6165 477.714 70.5285 477.362 70.5285C477.018 70.5285 476.69 70.6165 476.378 70.7925C476.074 70.9685 475.826 71.2245 475.634 71.5605C475.45 71.8965 475.358 72.2925 475.358 72.7485C475.358 73.2045 475.45 73.6045 475.634 73.9485C475.826 74.2845 476.074 74.5405 476.378 74.7165C476.69 74.8925 477.018 74.9805 477.362 74.9805C477.714 74.9805 478.042 74.8925 478.346 74.7165C478.658 74.5325 478.906 74.2685 479.09 73.9245C479.282 73.5805 479.378 73.1805 479.378 72.7245ZM483.491 70.4205C483.723 70.1165 484.039 69.8605 484.439 69.6525C484.839 69.4445 485.291 69.3405 485.795 69.3405C486.371 69.3405 486.895 69.4845 487.367 69.7725C487.847 70.0525 488.223 70.4485 488.495 70.9605C488.767 71.4725 488.903 72.0605 488.903 72.7245C488.903 73.3885 488.767 73.9845 488.495 74.5125C488.223 75.0325 487.847 75.4405 487.367 75.7365C486.895 76.0245 486.371 76.1685 485.795 76.1685C485.291 76.1685 484.843 76.0685 484.451 75.8685C484.059 75.6605 483.739 75.4045 483.491 75.1005V79.2045H482.123V69.4485H483.491V70.4205ZM487.511 72.7245C487.511 72.2685 487.415 71.8765 487.223 71.5485C487.039 71.2125 486.791 70.9605 486.479 70.7925C486.175 70.6165 485.847 70.5285 485.495 70.5285C485.151 70.5285 484.823 70.6165 484.511 70.7925C484.207 70.9685 483.959 71.2245 483.767 71.5605C483.583 71.8965 483.491 72.2925 483.491 72.7485C483.491 73.2045 483.583 73.6045 483.767 73.9485C483.959 74.2845 484.207 74.5405 484.511 74.7165C484.823 74.8925 485.151 74.9805 485.495 74.9805C485.847 74.9805 486.175 74.8925 486.479 74.7165C486.791 74.5325 487.039 74.2685 487.223 73.9245C487.415 73.5805 487.511 73.1805 487.511 72.7245ZM491.624 67.1805V76.0605H490.256V67.1805H491.624ZM494.116 68.5725C493.868 68.5725 493.66 68.4885 493.492 68.3205C493.324 68.1525 493.24 67.9445 493.24 67.6965C493.24 67.4485 493.324 67.2405 493.492 67.0725C493.66 66.9045 493.868 66.8205 494.116 66.8205C494.356 66.8205 494.56 66.9045 494.728 67.0725C494.896 67.2405 494.98 67.4485 494.98 67.6965C494.98 67.9445 494.896 68.1525 494.728 68.3205C494.56 68.4885 494.356 68.5725 494.116 68.5725ZM494.788 69.4485V76.0605H493.42V69.4485H494.788ZM496.128 72.7485C496.128 72.0685 496.264 71.4725 496.536 70.9605C496.816 70.4405 497.2 70.0405 497.688 69.7605C498.176 69.4805 498.736 69.3405 499.368 69.3405C500.168 69.3405 500.828 69.5325 501.348 69.9165C501.876 70.2925 502.232 70.8325 502.416 71.5365H500.94C500.82 71.2085 500.628 70.9525 500.364 70.7685C500.1 70.5845 499.768 70.4925 499.368 70.4925C498.808 70.4925 498.36 70.6925 498.024 71.0925C497.696 71.4845 497.532 72.0365 497.532 72.7485C497.532 73.4605 497.696 74.0165 498.024 74.4165C498.36 74.8165 498.808 75.0165 499.368 75.0165C500.16 75.0165 500.684 74.6685 500.94 73.9725H502.416C502.224 74.6445 501.864 75.1805 501.336 75.5805C500.808 75.9725 500.152 76.1685 499.368 76.1685C498.736 76.1685 498.176 76.0285 497.688 75.7485C497.2 75.4605 496.816 75.0605 496.536 74.5485C496.264 74.0285 496.128 73.4285 496.128 72.7485ZM503.323 72.7245C503.323 72.0605 503.459 71.4725 503.731 70.9605C504.011 70.4485 504.387 70.0525 504.859 69.7725C505.339 69.4845 505.867 69.3405 506.443 69.3405C506.963 69.3405 507.415 69.4445 507.799 69.6525C508.191 69.8525 508.503 70.1045 508.735 70.4085V69.4485H510.115V76.0605H508.735V75.0765C508.503 75.3885 508.187 75.6485 507.787 75.8565C507.387 76.0645 506.931 76.1685 506.419 76.1685C505.851 76.1685 505.331 76.0245 504.859 75.7365C504.387 75.4405 504.011 75.0325 503.731 74.5125C503.459 73.9845 503.323 73.3885 503.323 72.7245ZM508.735 72.7485C508.735 72.2925 508.639 71.8965 508.447 71.5605C508.263 71.2245 508.019 70.9685 507.715 70.7925C507.411 70.6165 507.083 70.5285 506.731 70.5285C506.379 70.5285 506.051 70.6165 505.747 70.7925C505.443 70.9605 505.195 71.2125 505.003 71.5485C504.819 71.8765 504.727 72.2685 504.727 72.7245C504.727 73.1805 504.819 73.5805 505.003 73.9245C505.195 74.2685 505.443 74.5325 505.747 74.7165C506.059 74.8925 506.387 74.9805 506.731 74.9805C507.083 74.9805 507.411 74.8925 507.715 74.7165C508.019 74.5405 508.263 74.2845 508.447 73.9485C508.639 73.6045 508.735 73.2045 508.735 72.7485ZM513.508 70.5645V74.2245C513.508 74.4725 513.564 74.6525 513.676 74.7645C513.796 74.8685 513.996 74.9205 514.276 74.9205H515.116V76.0605H514.036C513.42 76.0605 512.948 75.9165 512.62 75.6285C512.292 75.3405 512.128 74.8725 512.128 74.2245V70.5645H511.348V69.4485H512.128V67.8045H513.508V69.4485H515.116V70.5645H513.508ZM517.073 68.5725C516.825 68.5725 516.617 68.4885 516.449 68.3205C516.281 68.1525 516.197 67.9445 516.197 67.6965C516.197 67.4485 516.281 67.2405 516.449 67.0725C516.617 66.9045 516.825 66.8205 517.073 66.8205C517.313 66.8205 517.517 66.9045 517.685 67.0725C517.853 67.2405 517.937 67.4485 517.937 67.6965C517.937 67.9445 517.853 68.1525 517.685 68.3205C517.517 68.4885 517.313 68.5725 517.073 68.5725ZM517.745 69.4485V76.0605H516.377V69.4485H517.745ZM522.409 76.1685C521.785 76.1685 521.221 76.0285 520.717 75.7485C520.213 75.4605 519.817 75.0605 519.529 74.5485C519.241 74.0285 519.097 73.4285 519.097 72.7485C519.097 72.0765 519.245 71.4805 519.541 70.9605C519.837 70.4405 520.241 70.0405 520.753 69.7605C521.265 69.4805 521.837 69.3405 522.469 69.3405C523.101 69.3405 523.673 69.4805 524.185 69.7605C524.697 70.0405 525.101 70.4405 525.397 70.9605C525.693 71.4805 525.841 72.0765 525.841 72.7485C525.841 73.4205 525.689 74.0165 525.385 74.5365C525.081 75.0565 524.665 75.4605 524.137 75.7485C523.617 76.0285 523.041 76.1685 522.409 76.1685ZM522.409 74.9805C522.761 74.9805 523.089 74.8965 523.393 74.7285C523.705 74.5605 523.957 74.3085 524.149 73.9725C524.341 73.6365 524.437 73.2285 524.437 72.7485C524.437 72.2685 524.345 71.8645 524.161 71.5365C523.977 71.2005 523.733 70.9485 523.429 70.7805C523.125 70.6125 522.797 70.5285 522.445 70.5285C522.093 70.5285 521.765 70.6125 521.461 70.7805C521.165 70.9485 520.929 71.2005 520.753 71.5365C520.577 71.8645 520.489 72.2685 520.489 72.7485C520.489 73.4605 520.669 74.0125 521.029 74.4045C521.397 74.7885 521.857 74.9805 522.409 74.9805ZM530.529 69.3405C531.049 69.3405 531.513 69.4485 531.921 69.6645C532.337 69.8805 532.661 70.2005 532.893 70.6245C533.125 71.0485 533.241 71.5605 533.241 72.1605V76.0605H531.885V72.3645C531.885 71.7725 531.737 71.3205 531.441 71.0085C531.145 70.6885 530.741 70.5285 530.229 70.5285C529.717 70.5285 529.309 70.6885 529.005 71.0085C528.709 71.3205 528.561 71.7725 528.561 72.3645V76.0605H527.193V69.4485H528.561V70.2045C528.785 69.9325 529.069 69.7205 529.413 69.5685C529.765 69.4165 530.137 69.3405 530.529 69.3405ZM537.386 76.1685C536.866 76.1685 536.398 76.0765 535.982 75.8925C535.574 75.7005 535.25 75.4445 535.01 75.1245C534.77 74.7965 534.642 74.4325 534.626 74.0325H536.042C536.066 74.3125 536.198 74.5485 536.438 74.7405C536.686 74.9245 536.994 75.0165 537.362 75.0165C537.746 75.0165 538.042 74.9445 538.25 74.8005C538.466 74.6485 538.574 74.4565 538.574 74.2245C538.574 73.9765 538.454 73.7925 538.214 73.6725C537.982 73.5525 537.61 73.4205 537.098 73.2765C536.602 73.1405 536.198 73.0085 535.886 72.8805C535.574 72.7525 535.302 72.5565 535.07 72.2925C534.846 72.0285 534.734 71.6805 534.734 71.2485C534.734 70.8965 534.838 70.5765 535.046 70.2885C535.254 69.9925 535.55 69.7605 535.934 69.5925C536.326 69.4245 536.774 69.3405 537.278 69.3405C538.03 69.3405 538.634 69.5325 539.09 69.9165C539.554 70.2925 539.802 70.8085 539.834 71.4645H538.466C538.442 71.1685 538.322 70.9325 538.106 70.7565C537.89 70.5805 537.598 70.4925 537.23 70.4925C536.87 70.4925 536.594 70.5605 536.402 70.6965C536.21 70.8325 536.114 71.0125 536.114 71.2365C536.114 71.4125 536.178 71.5605 536.306 71.6805C536.434 71.8005 536.59 71.8965 536.774 71.9685C536.958 72.0325 537.23 72.1165 537.59 72.2205C538.07 72.3485 538.462 72.4805 538.766 72.6165C539.078 72.7445 539.346 72.9365 539.57 73.1925C539.794 73.4485 539.91 73.7885 539.918 74.2125C539.918 74.5885 539.814 74.9245 539.606 75.2205C539.398 75.5165 539.102 75.7485 538.718 75.9165C538.342 76.0845 537.898 76.1685 537.386 76.1685Z" fill="white"/>
</svg>
