<svg width="960" height="104" viewBox="0 0 960 104" fill="none" xmlns="http://www.w3.org/2000/svg">
<circle cx="5.15639" cy="18.9069" r="5.15639" fill="white"/>
<line y1="18.477" x2="191.8" y2="18.477" stroke="white" stroke-width="0.859399"/>
<rect x="54.6496" width="82.5008" height="34.4692" rx="17.2346" fill="white"/>
<path d="M72.0355 20.8128C71.4918 20.8128 71.0002 20.7197 70.5608 20.5335C70.1288 20.3473 69.7862 20.0792 69.5329 19.7291C69.2797 19.3791 69.1494 18.9657 69.1419 18.489H70.8177C70.8401 18.8093 70.9518 19.0625 71.1529 19.2487C71.3614 19.4349 71.6445 19.528 72.002 19.528C72.3669 19.528 72.6537 19.4424 72.8622 19.2711C73.0708 19.0923 73.1751 18.8614 73.1751 18.5784C73.1751 18.3475 73.1043 18.1576 72.9628 18.0086C72.8213 17.8596 72.6425 17.7442 72.4265 17.6623C72.218 17.5729 71.9275 17.4761 71.5551 17.3718C71.0486 17.2228 70.6353 17.0776 70.315 16.9361C70.0022 16.7871 69.7303 16.5674 69.4994 16.2769C69.276 15.979 69.1643 15.5842 69.1643 15.0927C69.1643 14.6309 69.2797 14.2287 69.5106 13.8861C69.7415 13.5435 70.0655 13.2828 70.4826 13.104C70.8997 12.9178 71.3763 12.8247 71.9126 12.8247C72.717 12.8247 73.3687 13.0221 73.8677 13.4168C74.3742 13.8041 74.6535 14.3479 74.7057 15.048H72.9851C72.9702 14.7798 72.8548 14.5601 72.6388 14.3888C72.4303 14.2101 72.1509 14.1207 71.8009 14.1207C71.4955 14.1207 71.2497 14.1989 71.0635 14.3553C70.8848 14.5117 70.7954 14.7389 70.7954 15.0368C70.7954 15.2454 70.8624 15.4204 70.9965 15.5619C71.138 15.696 71.3093 15.8077 71.5104 15.8971C71.719 15.979 72.0094 16.0758 72.3818 16.1875C72.8883 16.3365 73.3017 16.4855 73.622 16.6344C73.9422 16.7834 74.2178 17.0068 74.4487 17.3048C74.6796 17.6027 74.795 17.9937 74.795 18.4778C74.795 18.8949 74.687 19.2822 74.471 19.6397C74.255 19.9973 73.9385 20.284 73.5214 20.5C73.1043 20.7086 72.609 20.8128 72.0355 20.8128ZM82.1196 17.5059C82.1196 17.7293 82.1047 17.9304 82.0749 18.1092H77.5502C77.5874 18.556 77.7438 18.9061 78.0194 19.1593C78.295 19.4126 78.6339 19.5392 79.0361 19.5392C79.617 19.5392 80.0304 19.2897 80.2762 18.7907H81.9632C81.7844 19.3865 81.4418 19.8781 80.9353 20.2654C80.4289 20.6452 79.8069 20.8352 79.0696 20.8352C78.4737 20.8352 77.9375 20.7048 77.4608 20.4441C76.9915 20.176 76.6229 19.7999 76.3547 19.3158C76.094 18.8316 75.9637 18.273 75.9637 17.6399C75.9637 16.9994 76.094 16.4371 76.3547 15.9529C76.6154 15.4688 76.9804 15.0964 77.4496 14.8357C77.9188 14.575 78.4588 14.4447 79.0696 14.4447C79.658 14.4447 80.1831 14.5713 80.6448 14.8245C81.1141 15.0778 81.4753 15.439 81.7286 15.9082C81.9892 16.37 82.1196 16.9026 82.1196 17.5059ZM80.4996 17.059C80.4922 16.6568 80.3469 16.3365 80.0639 16.0982C79.7809 15.8524 79.4345 15.7295 79.0249 15.7295C78.6376 15.7295 78.3099 15.8487 78.0417 16.087C77.781 16.3179 77.6209 16.6419 77.5613 17.059H80.4996ZM85.0402 15.439C85.2413 15.156 85.5169 14.9214 85.8669 14.7352C86.2244 14.5415 86.6304 14.4447 87.0847 14.4447C87.6135 14.4447 88.0902 14.575 88.5147 14.8357C88.9467 15.0964 89.2856 15.4688 89.5314 15.9529C89.7846 16.4296 89.9113 16.9845 89.9113 17.6176C89.9113 18.2507 89.7846 18.813 89.5314 19.3046C89.2856 19.7887 88.9467 20.1648 88.5147 20.433C88.0902 20.7011 87.6135 20.8352 87.0847 20.8352C86.6304 20.8352 86.2282 20.7421 85.8781 20.5559C85.5355 20.3697 85.2562 20.135 85.0402 19.852V23.6841H83.4761V14.5452H85.0402V15.439ZM88.3136 17.6176C88.3136 17.2452 88.2354 16.9249 88.079 16.6568C87.9301 16.3812 87.729 16.1726 87.4757 16.0311C87.2299 15.8896 86.9618 15.8189 86.6713 15.8189C86.3883 15.8189 86.1202 15.8933 85.8669 16.0423C85.6211 16.1838 85.42 16.3924 85.2636 16.6679C85.1147 16.9435 85.0402 17.2675 85.0402 17.6399C85.0402 18.0123 85.1147 18.3363 85.2636 18.6119C85.42 18.8875 85.6211 19.0998 85.8669 19.2487C86.1202 19.3902 86.3883 19.461 86.6713 19.461C86.9618 19.461 87.2299 19.3865 87.4757 19.2375C87.729 19.0886 87.9301 18.8763 88.079 18.6007C88.2354 18.3252 88.3136 17.9974 88.3136 17.6176ZM98.899 16.087V17.4053H94.162V16.087H98.899ZM107.365 20.8128C106.635 20.8128 105.965 20.6415 105.354 20.2989C104.743 19.9563 104.259 19.4833 103.901 18.88C103.544 18.2693 103.365 17.5803 103.365 16.8132C103.365 16.0535 103.544 15.372 103.901 14.7687C104.259 14.1579 104.743 13.6812 105.354 13.3386C105.965 12.996 106.635 12.8247 107.365 12.8247C108.102 12.8247 108.772 12.996 109.376 13.3386C109.986 13.6812 110.467 14.1579 110.817 14.7687C111.174 15.372 111.353 16.0535 111.353 16.8132C111.353 17.5803 111.174 18.2693 110.817 18.88C110.467 19.4833 109.986 19.9563 109.376 20.2989C108.765 20.6415 108.095 20.8128 107.365 20.8128ZM107.365 19.4163C107.834 19.4163 108.247 19.312 108.605 19.1035C108.962 18.8875 109.242 18.5821 109.443 18.1874C109.644 17.7926 109.744 17.3346 109.744 16.8132C109.744 16.2918 109.644 15.8375 109.443 15.4502C109.242 15.0554 108.962 14.7538 108.605 14.5452C108.247 14.3367 107.834 14.2324 107.365 14.2324C106.896 14.2324 106.478 14.3367 106.113 14.5452C105.756 14.7538 105.477 15.0554 105.276 15.4502C105.074 15.8375 104.974 16.2918 104.974 16.8132C104.974 17.3346 105.074 17.7926 105.276 18.1874C105.477 18.5821 105.756 18.8875 106.113 19.1035C106.478 19.312 106.896 19.4163 107.365 19.4163ZM112.33 17.6399C112.33 16.9994 112.46 16.4408 112.721 15.9641C112.981 15.48 113.342 15.1076 113.804 14.8469C114.266 14.5787 114.795 14.4447 115.391 14.4447C116.158 14.4447 116.791 14.6383 117.29 15.0256C117.796 15.4055 118.135 15.9418 118.307 16.6344H116.62C116.53 16.3663 116.378 16.1577 116.162 16.0088C115.953 15.8524 115.692 15.7742 115.38 15.7742C114.933 15.7742 114.579 15.938 114.318 16.2657C114.057 16.586 113.927 17.0441 113.927 17.6399C113.927 18.2283 114.057 18.6864 114.318 19.0141C114.579 19.3344 114.933 19.4945 115.38 19.4945C116.013 19.4945 116.426 19.2115 116.62 18.6454H118.307C118.135 19.3158 117.796 19.8483 117.29 20.243C116.784 20.6378 116.15 20.8352 115.391 20.8352C114.795 20.8352 114.266 20.7048 113.804 20.4441C113.342 20.176 112.981 19.8036 112.721 19.3269C112.46 18.8428 112.33 18.2805 112.33 17.6399ZM121.488 15.83V18.8242C121.488 19.0327 121.537 19.1854 121.634 19.2822C121.738 19.3716 121.909 19.4163 122.148 19.4163H122.874V20.7346H121.891C120.572 20.7346 119.913 20.0941 119.913 18.813V15.83H119.176V14.5452H119.913V13.0146H121.488V14.5452H122.874V15.83H121.488Z" fill="#393858"/>
<path d="M46.5389 74.3565H43.0469L42.4469 76.0605H41.0189L44.0069 67.7085H45.5909L48.5789 76.0605H47.1389L46.5389 74.3565ZM46.1549 73.2405L44.7989 69.3645L43.4309 73.2405H46.1549ZM51.2461 70.4205C51.4781 70.1165 51.7941 69.8605 52.1941 69.6525C52.5941 69.4445 53.0461 69.3405 53.5501 69.3405C54.1261 69.3405 54.6501 69.4845 55.1221 69.7725C55.6021 70.0525 55.9781 70.4485 56.2501 70.9605C56.5221 71.4725 56.6581 72.0605 56.6581 72.7245C56.6581 73.3885 56.5221 73.9845 56.2501 74.5125C55.9781 75.0325 55.6021 75.4405 55.1221 75.7365C54.6501 76.0245 54.1261 76.1685 53.5501 76.1685C53.0461 76.1685 52.5981 76.0685 52.2061 75.8685C51.8141 75.6605 51.4941 75.4045 51.2461 75.1005V79.2045H49.8781V69.4485H51.2461V70.4205ZM55.2661 72.7245C55.2661 72.2685 55.1701 71.8765 54.9781 71.5485C54.7941 71.2125 54.5461 70.9605 54.2341 70.7925C53.9301 70.6165 53.6021 70.5285 53.2501 70.5285C52.9061 70.5285 52.5781 70.6165 52.2661 70.7925C51.9621 70.9685 51.7141 71.2245 51.5221 71.5605C51.3381 71.8965 51.2461 72.2925 51.2461 72.7485C51.2461 73.2045 51.3381 73.6045 51.5221 73.9485C51.7141 74.2845 51.9621 74.5405 52.2661 74.7165C52.5781 74.8925 52.9061 74.9805 53.2501 74.9805C53.6021 74.9805 53.9301 74.8925 54.2341 74.7165C54.5461 74.5325 54.7941 74.2685 54.9781 73.9245C55.1701 73.5805 55.2661 73.1805 55.2661 72.7245ZM59.3789 70.4205C59.6109 70.1165 59.9269 69.8605 60.3269 69.6525C60.7269 69.4445 61.1789 69.3405 61.6829 69.3405C62.2589 69.3405 62.7829 69.4845 63.2549 69.7725C63.7349 70.0525 64.1109 70.4485 64.3829 70.9605C64.6549 71.4725 64.7909 72.0605 64.7909 72.7245C64.7909 73.3885 64.6549 73.9845 64.3829 74.5125C64.1109 75.0325 63.7349 75.4405 63.2549 75.7365C62.7829 76.0245 62.2589 76.1685 61.6829 76.1685C61.1789 76.1685 60.7309 76.0685 60.3389 75.8685C59.9469 75.6605 59.6269 75.4045 59.3789 75.1005V79.2045H58.0109V69.4485H59.3789V70.4205ZM63.3989 72.7245C63.3989 72.2685 63.3029 71.8765 63.1109 71.5485C62.9269 71.2125 62.6789 70.9605 62.3669 70.7925C62.0629 70.6165 61.7349 70.5285 61.3829 70.5285C61.0389 70.5285 60.7109 70.6165 60.3989 70.7925C60.0949 70.9685 59.8469 71.2245 59.6549 71.5605C59.4709 71.8965 59.3789 72.2925 59.3789 72.7485C59.3789 73.2045 59.4709 73.6045 59.6549 73.9485C59.8469 74.2845 60.0949 74.5405 60.3989 74.7165C60.7109 74.8925 61.0389 74.9805 61.3829 74.9805C61.7349 74.9805 62.0629 74.8925 62.3669 74.7165C62.6789 74.5325 62.9269 74.2685 63.1109 73.9245C63.3029 73.5805 63.3989 73.1805 63.3989 72.7245ZM67.5117 67.1805V76.0605H66.1437V67.1805H67.5117ZM70.0038 68.5725C69.7558 68.5725 69.5478 68.4885 69.3798 68.3205C69.2118 68.1525 69.1278 67.9445 69.1278 67.6965C69.1278 67.4485 69.2118 67.2405 69.3798 67.0725C69.5478 66.9045 69.7558 66.8205 70.0038 66.8205C70.2438 66.8205 70.4478 66.9045 70.6158 67.0725C70.7838 67.2405 70.8678 67.4485 70.8678 67.6965C70.8678 67.9445 70.7838 68.1525 70.6158 68.3205C70.4478 68.4885 70.2438 68.5725 70.0038 68.5725ZM70.6758 69.4485V76.0605H69.3078V69.4485H70.6758ZM72.0159 72.7485C72.0159 72.0685 72.1519 71.4725 72.4239 70.9605C72.7039 70.4405 73.0879 70.0405 73.5759 69.7605C74.0639 69.4805 74.6239 69.3405 75.2559 69.3405C76.0559 69.3405 76.7159 69.5325 77.2359 69.9165C77.7639 70.2925 78.1199 70.8325 78.3039 71.5365H76.8279C76.7079 71.2085 76.5159 70.9525 76.2519 70.7685C75.9879 70.5845 75.6559 70.4925 75.2559 70.4925C74.6959 70.4925 74.2479 70.6925 73.9119 71.0925C73.5839 71.4845 73.4199 72.0365 73.4199 72.7485C73.4199 73.4605 73.5839 74.0165 73.9119 74.4165C74.2479 74.8165 74.6959 75.0165 75.2559 75.0165C76.0479 75.0165 76.5719 74.6685 76.8279 73.9725H78.3039C78.1119 74.6445 77.7519 75.1805 77.2239 75.5805C76.6959 75.9725 76.0399 76.1685 75.2559 76.1685C74.6239 76.1685 74.0639 76.0285 73.5759 75.7485C73.0879 75.4605 72.7039 75.0605 72.4239 74.5485C72.1519 74.0285 72.0159 73.4285 72.0159 72.7485ZM79.2112 72.7245C79.2112 72.0605 79.3472 71.4725 79.6192 70.9605C79.8992 70.4485 80.2752 70.0525 80.7472 69.7725C81.2272 69.4845 81.7552 69.3405 82.3312 69.3405C82.8512 69.3405 83.3032 69.4445 83.6872 69.6525C84.0792 69.8525 84.3912 70.1045 84.6232 70.4085V69.4485H86.0032V76.0605H84.6232V75.0765C84.3912 75.3885 84.0752 75.6485 83.6752 75.8565C83.2752 76.0645 82.8192 76.1685 82.3072 76.1685C81.7392 76.1685 81.2192 76.0245 80.7472 75.7365C80.2752 75.4405 79.8992 75.0325 79.6192 74.5125C79.3472 73.9845 79.2112 73.3885 79.2112 72.7245ZM84.6232 72.7485C84.6232 72.2925 84.5272 71.8965 84.3352 71.5605C84.1512 71.2245 83.9072 70.9685 83.6032 70.7925C83.2992 70.6165 82.9712 70.5285 82.6192 70.5285C82.2672 70.5285 81.9392 70.6165 81.6352 70.7925C81.3312 70.9605 81.0832 71.2125 80.8912 71.5485C80.7072 71.8765 80.6152 72.2685 80.6152 72.7245C80.6152 73.1805 80.7072 73.5805 80.8912 73.9245C81.0832 74.2685 81.3312 74.5325 81.6352 74.7165C81.9472 74.8925 82.2752 74.9805 82.6192 74.9805C82.9712 74.9805 83.2992 74.8925 83.6032 74.7165C83.9072 74.5405 84.1512 74.2845 84.3352 73.9485C84.5272 73.6045 84.6232 73.2045 84.6232 72.7485ZM89.396 70.5645V74.2245C89.396 74.4725 89.452 74.6525 89.564 74.7645C89.684 74.8685 89.884 74.9205 90.164 74.9205H91.004V76.0605H89.924C89.308 76.0605 88.836 75.9165 88.508 75.6285C88.18 75.3405 88.016 74.8725 88.016 74.2245V70.5645H87.236V69.4485H88.016V67.8045H89.396V69.4485H91.004V70.5645H89.396ZM92.9608 68.5725C92.7128 68.5725 92.5048 68.4885 92.3368 68.3205C92.1688 68.1525 92.0848 67.9445 92.0848 67.6965C92.0848 67.4485 92.1688 67.2405 92.3368 67.0725C92.5048 66.9045 92.7128 66.8205 92.9608 66.8205C93.2008 66.8205 93.4048 66.9045 93.5728 67.0725C93.7408 67.2405 93.8248 67.4485 93.8248 67.6965C93.8248 67.9445 93.7408 68.1525 93.5728 68.3205C93.4048 68.4885 93.2008 68.5725 92.9608 68.5725ZM93.6328 69.4485V76.0605H92.2648V69.4485H93.6328ZM98.2969 76.1685C97.6729 76.1685 97.1089 76.0285 96.6049 75.7485C96.1009 75.4605 95.7049 75.0605 95.4169 74.5485C95.1289 74.0285 94.9849 73.4285 94.9849 72.7485C94.9849 72.0765 95.1329 71.4805 95.4289 70.9605C95.7249 70.4405 96.1289 70.0405 96.6409 69.7605C97.1529 69.4805 97.7249 69.3405 98.3569 69.3405C98.9889 69.3405 99.5609 69.4805 100.073 69.7605C100.585 70.0405 100.989 70.4405 101.285 70.9605C101.581 71.4805 101.729 72.0765 101.729 72.7485C101.729 73.4205 101.577 74.0165 101.273 74.5365C100.969 75.0565 100.553 75.4605 100.025 75.7485C99.5049 76.0285 98.9289 76.1685 98.2969 76.1685ZM98.2969 74.9805C98.6489 74.9805 98.9769 74.8965 99.2809 74.7285C99.5929 74.5605 99.8449 74.3085 100.037 73.9725C100.229 73.6365 100.325 73.2285 100.325 72.7485C100.325 72.2685 100.233 71.8645 100.049 71.5365C99.8649 71.2005 99.6209 70.9485 99.3169 70.7805C99.0129 70.6125 98.6849 70.5285 98.3329 70.5285C97.9809 70.5285 97.6529 70.6125 97.3489 70.7805C97.0529 70.9485 96.8169 71.2005 96.6409 71.5365C96.4649 71.8645 96.3769 72.2685 96.3769 72.7485C96.3769 73.4605 96.5569 74.0125 96.9169 74.4045C97.2849 74.7885 97.7449 74.9805 98.2969 74.9805ZM106.417 69.3405C106.937 69.3405 107.401 69.4485 107.809 69.6645C108.225 69.8805 108.549 70.2005 108.781 70.6245C109.013 71.0485 109.129 71.5605 109.129 72.1605V76.0605H107.773V72.3645C107.773 71.7725 107.625 71.3205 107.329 71.0085C107.033 70.6885 106.629 70.5285 106.117 70.5285C105.605 70.5285 105.197 70.6885 104.893 71.0085C104.597 71.3205 104.449 71.7725 104.449 72.3645V76.0605H103.081V69.4485H104.449V70.2045C104.673 69.9325 104.957 69.7205 105.301 69.5685C105.653 69.4165 106.025 69.3405 106.417 69.3405ZM119.823 70.2045C119.823 70.6285 119.723 71.0285 119.523 71.4045C119.323 71.7805 119.003 72.0885 118.563 72.3285C118.123 72.5605 117.559 72.6765 116.871 72.6765H115.359V76.0605H113.991V67.7205H116.871C117.511 67.7205 118.051 67.8325 118.491 68.0565C118.939 68.2725 119.271 68.5685 119.487 68.9445C119.711 69.3205 119.823 69.7405 119.823 70.2045ZM116.871 71.5605C117.391 71.5605 117.779 71.4445 118.035 71.2125C118.291 70.9725 118.419 70.6365 118.419 70.2045C118.419 69.2925 117.903 68.8365 116.871 68.8365H115.359V71.5605H116.871ZM127.188 72.5925C127.188 72.8405 127.172 73.0645 127.14 73.2645H122.088C122.128 73.7925 122.324 74.2165 122.676 74.5365C123.028 74.8565 123.46 75.0165 123.972 75.0165C124.708 75.0165 125.228 74.7085 125.532 74.0925H127.008C126.808 74.7005 126.444 75.2005 125.916 75.5925C125.396 75.9765 124.748 76.1685 123.972 76.1685C123.34 76.1685 122.772 76.0285 122.268 75.7485C121.772 75.4605 121.38 75.0605 121.092 74.5485C120.812 74.0285 120.672 73.4285 120.672 72.7485C120.672 72.0685 120.808 71.4725 121.08 70.9605C121.36 70.4405 121.748 70.0405 122.244 69.7605C122.748 69.4805 123.324 69.3405 123.972 69.3405C124.596 69.3405 125.152 69.4765 125.64 69.7485C126.128 70.0205 126.508 70.4045 126.78 70.9005C127.052 71.3885 127.188 71.9525 127.188 72.5925ZM125.76 72.1605C125.752 71.6565 125.572 71.2525 125.22 70.9485C124.868 70.6445 124.432 70.4925 123.912 70.4925C123.44 70.4925 123.036 70.6445 122.7 70.9485C122.364 71.2445 122.164 71.6485 122.1 72.1605H125.76ZM129.902 70.4085C130.102 70.0725 130.366 69.8125 130.694 69.6285C131.03 69.4365 131.426 69.3405 131.882 69.3405V70.7565H131.534C130.998 70.7565 130.59 70.8925 130.31 71.1645C130.038 71.4365 129.902 71.9085 129.902 72.5805V76.0605H128.534V69.4485H129.902V70.4085ZM133.836 68.5725C133.588 68.5725 133.38 68.4885 133.212 68.3205C133.044 68.1525 132.96 67.9445 132.96 67.6965C132.96 67.4485 133.044 67.2405 133.212 67.0725C133.38 66.9045 133.588 66.8205 133.836 66.8205C134.076 66.8205 134.28 66.9045 134.448 67.0725C134.616 67.2405 134.7 67.4485 134.7 67.6965C134.7 67.9445 134.616 68.1525 134.448 68.3205C134.28 68.4885 134.076 68.5725 133.836 68.5725ZM134.508 69.4485V76.0605H133.14V69.4485H134.508ZM139.172 76.1685C138.548 76.1685 137.984 76.0285 137.48 75.7485C136.976 75.4605 136.58 75.0605 136.292 74.5485C136.004 74.0285 135.86 73.4285 135.86 72.7485C135.86 72.0765 136.008 71.4805 136.304 70.9605C136.6 70.4405 137.004 70.0405 137.516 69.7605C138.028 69.4805 138.6 69.3405 139.232 69.3405C139.864 69.3405 140.436 69.4805 140.948 69.7605C141.46 70.0405 141.864 70.4405 142.16 70.9605C142.456 71.4805 142.604 72.0765 142.604 72.7485C142.604 73.4205 142.452 74.0165 142.148 74.5365C141.844 75.0565 141.428 75.4605 140.9 75.7485C140.38 76.0285 139.804 76.1685 139.172 76.1685ZM139.172 74.9805C139.524 74.9805 139.852 74.8965 140.156 74.7285C140.468 74.5605 140.72 74.3085 140.912 73.9725C141.104 73.6365 141.2 73.2285 141.2 72.7485C141.2 72.2685 141.108 71.8645 140.924 71.5365C140.74 71.2005 140.496 70.9485 140.192 70.7805C139.888 70.6125 139.56 70.5285 139.208 70.5285C138.856 70.5285 138.528 70.6125 138.224 70.7805C137.928 70.9485 137.692 71.2005 137.516 71.5365C137.34 71.8645 137.252 72.2685 137.252 72.7485C137.252 73.4605 137.432 74.0125 137.792 74.4045C138.16 74.7885 138.62 74.9805 139.172 74.9805ZM143.5 72.7245C143.5 72.0605 143.636 71.4725 143.908 70.9605C144.188 70.4485 144.564 70.0525 145.036 69.7725C145.516 69.4845 146.048 69.3405 146.632 69.3405C147.064 69.3405 147.488 69.4365 147.904 69.6285C148.328 69.8125 148.664 70.0605 148.912 70.3725V67.1805H150.292V76.0605H148.912V75.0645C148.688 75.3845 148.376 75.6485 147.976 75.8565C147.584 76.0645 147.132 76.1685 146.62 76.1685C146.044 76.1685 145.516 76.0245 145.036 75.7365C144.564 75.4405 144.188 75.0325 143.908 74.5125C143.636 73.9845 143.5 73.3885 143.5 72.7245ZM148.912 72.7485C148.912 72.2925 148.816 71.8965 148.624 71.5605C148.44 71.2245 148.196 70.9685 147.892 70.7925C147.588 70.6165 147.26 70.5285 146.908 70.5285C146.556 70.5285 146.228 70.6165 145.924 70.7925C145.62 70.9605 145.372 71.2125 145.18 71.5485C144.996 71.8765 144.904 72.2685 144.904 72.7245C144.904 73.1805 144.996 73.5805 145.18 73.9245C145.372 74.2685 145.62 74.5325 145.924 74.7165C146.236 74.8925 146.564 74.9805 146.908 74.9805C147.26 74.9805 147.588 74.8925 147.892 74.7165C148.196 74.5405 148.44 74.2845 148.624 73.9485C148.816 73.6045 148.912 73.2045 148.912 72.7485Z" fill="white"/>
<circle cx="196.956" cy="18.9069" r="5.15639" fill="white"/>
<line x1="191.8" y1="18.477" x2="383.6" y2="18.477" stroke="white" stroke-width="0.859399"/>
<rect x="247.45" width="80.5008" height="34.4692" rx="17.2346" fill="white"/>
<path d="M263.978 14.1989V16.154H266.604V17.3941H263.978V19.461H266.939V20.7346H262.414V12.9253H266.939V14.1989H263.978ZM268.173 17.6176C268.173 16.9919 268.296 16.4371 268.541 15.9529C268.795 15.4688 269.134 15.0964 269.558 14.8357C269.99 14.575 270.471 14.4447 270.999 14.4447C271.461 14.4447 271.863 14.5378 272.206 14.724C272.556 14.9102 272.835 15.1448 273.044 15.4278V14.5452H274.619V20.7346H273.044V19.8297C272.843 20.1201 272.563 20.3622 272.206 20.5559C271.856 20.7421 271.45 20.8352 270.988 20.8352C270.467 20.8352 269.99 20.7011 269.558 20.433C269.134 20.1648 268.795 19.7887 268.541 19.3046C268.296 18.813 268.173 18.2507 268.173 17.6176ZM273.044 17.6399C273.044 17.2601 272.969 16.9361 272.82 16.6679C272.671 16.3924 272.47 16.1838 272.217 16.0423C271.964 15.8933 271.692 15.8189 271.402 15.8189C271.111 15.8189 270.843 15.8896 270.597 16.0311C270.351 16.1726 270.15 16.3812 269.994 16.6568C269.845 16.9249 269.77 17.2452 269.77 17.6176C269.77 17.99 269.845 18.3177 269.994 18.6007C270.15 18.8763 270.351 19.0886 270.597 19.2375C270.85 19.3865 271.119 19.461 271.402 19.461C271.692 19.461 271.964 19.3902 272.217 19.2487C272.47 19.0998 272.671 18.8912 272.82 18.6231C272.969 18.3475 273.044 18.0198 273.044 17.6399ZM277.926 15.506C278.127 15.1783 278.388 14.9214 278.708 14.7352C279.035 14.549 279.408 14.4559 279.825 14.4559V16.0982H279.412C278.92 16.0982 278.548 16.2136 278.294 16.4445C278.049 16.6754 277.926 17.0776 277.926 17.6511V20.7346H276.362V14.5452H277.926V15.506ZM282.657 12.4672V20.7346H281.093V12.4672H282.657ZM290.339 14.5452L286.507 23.6617H284.842L286.183 20.5782L283.703 14.5452H285.457L287.054 18.8689L288.674 14.5452H290.339ZM297.894 20.8128C297.164 20.8128 296.493 20.6415 295.883 20.2989C295.272 19.9563 294.788 19.4833 294.43 18.88C294.073 18.2693 293.894 17.5803 293.894 16.8132C293.894 16.0535 294.073 15.372 294.43 14.7687C294.788 14.1579 295.272 13.6812 295.883 13.3386C296.493 12.996 297.164 12.8247 297.894 12.8247C298.631 12.8247 299.301 12.996 299.905 13.3386C300.515 13.6812 300.996 14.1579 301.346 14.7687C301.703 15.372 301.882 16.0535 301.882 16.8132C301.882 17.5803 301.703 18.2693 301.346 18.88C300.996 19.4833 300.515 19.9563 299.905 20.2989C299.294 20.6415 298.624 20.8128 297.894 20.8128ZM297.894 19.4163C298.363 19.4163 298.776 19.312 299.134 19.1035C299.491 18.8875 299.771 18.5821 299.972 18.1874C300.173 17.7926 300.273 17.3346 300.273 16.8132C300.273 16.2918 300.173 15.8375 299.972 15.4502C299.771 15.0554 299.491 14.7538 299.134 14.5452C298.776 14.3367 298.363 14.2324 297.894 14.2324C297.424 14.2324 297.007 14.3367 296.642 14.5452C296.285 14.7538 296.006 15.0554 295.804 15.4502C295.603 15.8375 295.503 16.2918 295.503 16.8132C295.503 17.3346 295.603 17.7926 295.804 18.1874C296.006 18.5821 296.285 18.8875 296.642 19.1035C297.007 19.312 297.424 19.4163 297.894 19.4163ZM302.858 17.6399C302.858 16.9994 302.989 16.4408 303.249 15.9641C303.51 15.48 303.871 15.1076 304.333 14.8469C304.795 14.5787 305.324 14.4447 305.92 14.4447C306.687 14.4447 307.32 14.6383 307.819 15.0256C308.325 15.4055 308.664 15.9418 308.836 16.6344H307.149C307.059 16.3663 306.906 16.1577 306.69 16.0088C306.482 15.8524 306.221 15.7742 305.908 15.7742C305.462 15.7742 305.108 15.938 304.847 16.2657C304.586 16.586 304.456 17.0441 304.456 17.6399C304.456 18.2283 304.586 18.6864 304.847 19.0141C305.108 19.3344 305.462 19.4945 305.908 19.4945C306.542 19.4945 306.955 19.2115 307.149 18.6454H308.836C308.664 19.3158 308.325 19.8483 307.819 20.243C307.312 20.6378 306.679 20.8352 305.92 20.8352C305.324 20.8352 304.795 20.7048 304.333 20.4441C303.871 20.176 303.51 19.8036 303.249 19.3269C302.989 18.8428 302.858 18.2805 302.858 17.6399ZM312.017 15.83V18.8242C312.017 19.0327 312.066 19.1854 312.163 19.2822C312.267 19.3716 312.438 19.4163 312.676 19.4163H313.403V20.7346H312.42C311.101 20.7346 310.442 20.0941 310.442 18.813V15.83H309.705V14.5452H310.442V13.0146H312.017V14.5452H313.403V15.83H312.017Z" fill="#393858"/>
<path d="M255.929 76.1445C255.153 76.1445 254.437 75.9645 253.781 75.6045C253.133 75.2365 252.617 74.7285 252.233 74.0805C251.857 73.4245 251.669 72.6885 251.669 71.8725C251.669 71.0565 251.857 70.3245 252.233 69.6765C252.617 69.0285 253.133 68.5245 253.781 68.1645C254.437 67.7965 255.153 67.6125 255.929 67.6125C256.713 67.6125 257.429 67.7965 258.077 68.1645C258.733 68.5245 259.249 69.0285 259.625 69.6765C260.001 70.3245 260.189 71.0565 260.189 71.8725C260.189 72.6885 260.001 73.4245 259.625 74.0805C259.249 74.7285 258.733 75.2365 258.077 75.6045C257.429 75.9645 256.713 76.1445 255.929 76.1445ZM255.929 74.9565C256.481 74.9565 256.973 74.8325 257.405 74.5845C257.837 74.3285 258.173 73.9685 258.413 73.5045C258.661 73.0325 258.785 72.4885 258.785 71.8725C258.785 71.2565 258.661 70.7165 258.413 70.2525C258.173 69.7885 257.837 69.4325 257.405 69.1845C256.973 68.9365 256.481 68.8125 255.929 68.8125C255.377 68.8125 254.885 68.9365 254.453 69.1845C254.021 69.4325 253.681 69.7885 253.433 70.2525C253.193 70.7165 253.073 71.2565 253.073 71.8725C253.073 72.4885 253.193 73.0325 253.433 73.5045C253.681 73.9685 254.021 74.3285 254.453 74.5845C254.885 74.8325 255.377 74.9565 255.929 74.9565ZM264.872 69.3405C265.392 69.3405 265.856 69.4485 266.264 69.6645C266.68 69.8805 267.004 70.2005 267.236 70.6245C267.468 71.0485 267.584 71.5605 267.584 72.1605V76.0605H266.228V72.3645C266.228 71.7725 266.08 71.3205 265.784 71.0085C265.488 70.6885 265.084 70.5285 264.572 70.5285C264.06 70.5285 263.652 70.6885 263.348 71.0085C263.052 71.3205 262.904 71.7725 262.904 72.3645V76.0605H261.536V69.4485H262.904V70.2045C263.128 69.9325 263.412 69.7205 263.756 69.5685C264.108 69.4165 264.48 69.3405 264.872 69.3405ZM270.697 70.4325C270.929 70.1125 271.245 69.8525 271.645 69.6525C272.053 69.4445 272.505 69.3405 273.001 69.3405C273.585 69.3405 274.113 69.4805 274.585 69.7605C275.057 70.0405 275.429 70.4405 275.701 70.9605C275.973 71.4725 276.109 72.0605 276.109 72.7245C276.109 73.3885 275.973 73.9845 275.701 74.5125C275.429 75.0325 275.053 75.4405 274.573 75.7365C274.101 76.0245 273.577 76.1685 273.001 76.1685C272.489 76.1685 272.033 76.0685 271.633 75.8685C271.241 75.6685 270.929 75.4125 270.697 75.1005V76.0605H269.329V67.1805H270.697V70.4325ZM274.717 72.7245C274.717 72.2685 274.621 71.8765 274.429 71.5485C274.245 71.2125 273.997 70.9605 273.685 70.7925C273.381 70.6165 273.053 70.5285 272.701 70.5285C272.357 70.5285 272.029 70.6165 271.717 70.7925C271.413 70.9685 271.165 71.2245 270.973 71.5605C270.789 71.8965 270.697 72.2925 270.697 72.7485C270.697 73.2045 270.789 73.6045 270.973 73.9485C271.165 74.2845 271.413 74.5405 271.717 74.7165C272.029 74.8925 272.357 74.9805 272.701 74.9805C273.053 74.9805 273.381 74.8925 273.685 74.7165C273.997 74.5325 274.245 74.2685 274.429 73.9245C274.621 73.5805 274.717 73.1805 274.717 72.7245ZM280.329 76.1685C279.705 76.1685 279.141 76.0285 278.637 75.7485C278.133 75.4605 277.737 75.0605 277.449 74.5485C277.161 74.0285 277.017 73.4285 277.017 72.7485C277.017 72.0765 277.165 71.4805 277.461 70.9605C277.757 70.4405 278.161 70.0405 278.673 69.7605C279.185 69.4805 279.757 69.3405 280.389 69.3405C281.021 69.3405 281.593 69.4805 282.105 69.7605C282.617 70.0405 283.021 70.4405 283.317 70.9605C283.613 71.4805 283.761 72.0765 283.761 72.7485C283.761 73.4205 283.609 74.0165 283.305 74.5365C283.001 75.0565 282.585 75.4605 282.057 75.7485C281.537 76.0285 280.961 76.1685 280.329 76.1685ZM280.329 74.9805C280.681 74.9805 281.009 74.8965 281.313 74.7285C281.625 74.5605 281.877 74.3085 282.069 73.9725C282.261 73.6365 282.357 73.2285 282.357 72.7485C282.357 72.2685 282.265 71.8645 282.081 71.5365C281.897 71.2005 281.653 70.9485 281.349 70.7805C281.045 70.6125 280.717 70.5285 280.365 70.5285C280.013 70.5285 279.685 70.6125 279.381 70.7805C279.085 70.9485 278.849 71.2005 278.673 71.5365C278.497 71.8645 278.409 72.2685 278.409 72.7485C278.409 73.4605 278.589 74.0125 278.949 74.4045C279.317 74.7885 279.777 74.9805 280.329 74.9805ZM284.658 72.7245C284.658 72.0605 284.794 71.4725 285.066 70.9605C285.346 70.4485 285.722 70.0525 286.194 69.7725C286.674 69.4845 287.202 69.3405 287.778 69.3405C288.298 69.3405 288.75 69.4445 289.134 69.6525C289.526 69.8525 289.838 70.1045 290.07 70.4085V69.4485H291.45V76.0605H290.07V75.0765C289.838 75.3885 289.522 75.6485 289.122 75.8565C288.722 76.0645 288.266 76.1685 287.754 76.1685C287.186 76.1685 286.666 76.0245 286.194 75.7365C285.722 75.4405 285.346 75.0325 285.066 74.5125C284.794 73.9845 284.658 73.3885 284.658 72.7245ZM290.07 72.7485C290.07 72.2925 289.974 71.8965 289.782 71.5605C289.598 71.2245 289.354 70.9685 289.05 70.7925C288.746 70.6165 288.418 70.5285 288.066 70.5285C287.714 70.5285 287.386 70.6165 287.082 70.7925C286.778 70.9605 286.53 71.2125 286.338 71.5485C286.154 71.8765 286.062 72.2685 286.062 72.7245C286.062 73.1805 286.154 73.5805 286.338 73.9245C286.53 74.2685 286.778 74.5325 287.082 74.7165C287.394 74.8925 287.722 74.9805 288.066 74.9805C288.418 74.9805 288.746 74.8925 289.05 74.7165C289.354 74.5405 289.598 74.2845 289.782 73.9485C289.974 73.6045 290.07 73.2045 290.07 72.7485ZM294.614 70.4085C294.814 70.0725 295.078 69.8125 295.406 69.6285C295.742 69.4365 296.138 69.3405 296.594 69.3405V70.7565H296.246C295.71 70.7565 295.302 70.8925 295.022 71.1645C294.75 71.4365 294.614 71.9085 294.614 72.5805V76.0605H293.246V69.4485H294.614V70.4085ZM297.396 72.7245C297.396 72.0605 297.532 71.4725 297.804 70.9605C298.084 70.4485 298.46 70.0525 298.932 69.7725C299.412 69.4845 299.944 69.3405 300.528 69.3405C300.96 69.3405 301.384 69.4365 301.8 69.6285C302.224 69.8125 302.56 70.0605 302.808 70.3725V67.1805H304.188V76.0605H302.808V75.0645C302.584 75.3845 302.272 75.6485 301.872 75.8565C301.48 76.0645 301.028 76.1685 300.516 76.1685C299.94 76.1685 299.412 76.0245 298.932 75.7365C298.46 75.4405 298.084 75.0325 297.804 74.5125C297.532 73.9845 297.396 73.3885 297.396 72.7245ZM302.808 72.7485C302.808 72.2925 302.712 71.8965 302.52 71.5605C302.336 71.2245 302.092 70.9685 301.788 70.7925C301.484 70.6165 301.156 70.5285 300.804 70.5285C300.452 70.5285 300.124 70.6165 299.82 70.7925C299.516 70.9605 299.268 71.2125 299.076 71.5485C298.892 71.8765 298.8 72.2685 298.8 72.7245C298.8 73.1805 298.892 73.5805 299.076 73.9245C299.268 74.2685 299.516 74.5325 299.82 74.7165C300.132 74.8925 300.46 74.9805 300.804 74.9805C301.156 74.9805 301.484 74.8925 301.788 74.7165C302.092 74.5405 302.336 74.2845 302.52 73.9485C302.712 73.6045 302.808 73.2045 302.808 72.7485ZM306.681 68.5725C306.433 68.5725 306.225 68.4885 306.057 68.3205C305.889 68.1525 305.805 67.9445 305.805 67.6965C305.805 67.4485 305.889 67.2405 306.057 67.0725C306.225 66.9045 306.433 66.8205 306.681 66.8205C306.921 66.8205 307.125 66.9045 307.293 67.0725C307.461 67.2405 307.545 67.4485 307.545 67.6965C307.545 67.9445 307.461 68.1525 307.293 68.3205C307.125 68.4885 306.921 68.5725 306.681 68.5725ZM307.353 69.4485V76.0605H305.985V69.4485H307.353ZM312.485 69.3405C313.005 69.3405 313.469 69.4485 313.877 69.6645C314.293 69.8805 314.617 70.2005 314.849 70.6245C315.081 71.0485 315.197 71.5605 315.197 72.1605V76.0605H313.841V72.3645C313.841 71.7725 313.693 71.3205 313.397 71.0085C313.101 70.6885 312.697 70.5285 312.185 70.5285C311.673 70.5285 311.265 70.6885 310.961 71.0085C310.665 71.3205 310.517 71.7725 310.517 72.3645V76.0605H309.149V69.4485H310.517V70.2045C310.741 69.9325 311.025 69.7205 311.369 69.5685C311.721 69.4165 312.093 69.3405 312.485 69.3405ZM319.606 69.3405C320.118 69.3405 320.57 69.4445 320.962 69.6525C321.362 69.8525 321.674 70.1045 321.898 70.4085V69.4485H323.278V76.1685C323.278 76.7765 323.15 77.3165 322.894 77.7885C322.638 78.2685 322.266 78.6445 321.778 78.9165C321.298 79.1885 320.722 79.3245 320.05 79.3245C319.154 79.3245 318.41 79.1125 317.818 78.6885C317.226 78.2725 316.89 77.7045 316.81 76.9845H318.166C318.27 77.3285 318.49 77.6045 318.826 77.8125C319.17 78.0285 319.578 78.1365 320.05 78.1365C320.602 78.1365 321.046 77.9685 321.382 77.6325C321.726 77.2965 321.898 76.8085 321.898 76.1685V75.0645C321.666 75.3765 321.35 75.6405 320.95 75.8565C320.558 76.0645 320.11 76.1685 319.606 76.1685C319.03 76.1685 318.502 76.0245 318.022 75.7365C317.55 75.4405 317.174 75.0325 316.894 74.5125C316.622 73.9845 316.486 73.3885 316.486 72.7245C316.486 72.0605 316.622 71.4725 316.894 70.9605C317.174 70.4485 317.55 70.0525 318.022 69.7725C318.502 69.4845 319.03 69.3405 319.606 69.3405ZM321.898 72.7485C321.898 72.2925 321.802 71.8965 321.61 71.5605C321.426 71.2245 321.182 70.9685 320.878 70.7925C320.574 70.6165 320.246 70.5285 319.894 70.5285C319.542 70.5285 319.214 70.6165 318.91 70.7925C318.606 70.9605 318.358 71.2125 318.166 71.5485C317.982 71.8765 317.89 72.2685 317.89 72.7245C317.89 73.1805 317.982 73.5805 318.166 73.9245C318.358 74.2685 318.606 74.5325 318.91 74.7165C319.222 74.8925 319.55 74.9805 319.894 74.9805C320.246 74.9805 320.574 74.8925 320.878 74.7165C321.182 74.5405 321.426 74.2845 321.61 73.9485C321.802 73.6045 321.898 73.2045 321.898 72.7485Z" fill="white"/>
<circle cx="388.756" cy="18.9069" r="5.15639" fill="white"/>
<line x1="383.6" y1="18.477" x2="575.4" y2="18.477" stroke="white" stroke-width="0.859399"/>
<rect x="423.75" width="111.501" height="34.4692" rx="17.2346" fill="white"/>
<path d="M442.355 20.8128C441.625 20.8128 440.955 20.6415 440.344 20.2989C439.733 19.9563 439.249 19.4833 438.892 18.88C438.534 18.2693 438.355 17.5803 438.355 16.8132C438.355 16.0535 438.534 15.372 438.892 14.7687C439.249 14.1579 439.733 13.6812 440.344 13.3386C440.955 12.996 441.625 12.8247 442.355 12.8247C443.092 12.8247 443.763 12.996 444.366 13.3386C444.977 13.6812 445.457 14.1579 445.807 14.7687C446.165 15.372 446.343 16.0535 446.343 16.8132C446.343 17.5803 446.165 18.2693 445.807 18.88C445.457 19.4833 444.977 19.9563 444.366 20.2989C443.755 20.6415 443.085 20.8128 442.355 20.8128ZM442.355 19.4163C442.824 19.4163 443.238 19.312 443.595 19.1035C443.953 18.8875 444.232 18.5821 444.433 18.1874C444.634 17.7926 444.735 17.3346 444.735 16.8132C444.735 16.2918 444.634 15.8375 444.433 15.4502C444.232 15.0554 443.953 14.7538 443.595 14.5452C443.238 14.3367 442.824 14.2324 442.355 14.2324C441.886 14.2324 441.469 14.3367 441.104 14.5452C440.746 14.7538 440.467 15.0554 440.266 15.4502C440.065 15.8375 439.964 16.2918 439.964 16.8132C439.964 17.3346 440.065 17.7926 440.266 18.1874C440.467 18.5821 440.746 18.8875 441.104 19.1035C441.469 19.312 441.886 19.4163 442.355 19.4163ZM447.32 17.6399C447.32 16.9994 447.45 16.4408 447.711 15.9641C447.971 15.48 448.333 15.1076 448.794 14.8469C449.256 14.5787 449.785 14.4447 450.381 14.4447C451.148 14.4447 451.781 14.6383 452.28 15.0256C452.787 15.4055 453.126 15.9418 453.297 16.6344H451.61C451.52 16.3663 451.368 16.1577 451.152 16.0088C450.943 15.8524 450.683 15.7742 450.37 15.7742C449.923 15.7742 449.569 15.938 449.308 16.2657C449.048 16.586 448.917 17.0441 448.917 17.6399C448.917 18.2283 449.048 18.6864 449.308 19.0141C449.569 19.3344 449.923 19.4945 450.37 19.4945C451.003 19.4945 451.416 19.2115 451.61 18.6454H453.297C453.126 19.3158 452.787 19.8483 452.28 20.243C451.774 20.6378 451.141 20.8352 450.381 20.8352C449.785 20.8352 449.256 20.7048 448.794 20.4441C448.333 20.176 447.971 19.8036 447.711 19.3269C447.45 18.8428 447.32 18.2805 447.32 17.6399ZM456.479 15.83V18.8242C456.479 19.0327 456.527 19.1854 456.624 19.2822C456.728 19.3716 456.899 19.4163 457.138 19.4163H457.864V20.7346H456.881C455.563 20.7346 454.903 20.0941 454.903 18.813V15.83H454.166V14.5452H454.903V13.0146H456.479V14.5452H457.864V15.83H456.479ZM466.84 16.087V17.4053H462.103V16.087H466.84ZM473.25 19.4945H475.82V20.7346H471.686V12.9364H473.25V19.4945ZM476.627 17.6176C476.627 16.9919 476.749 16.4371 476.995 15.9529C477.248 15.4688 477.587 15.0964 478.012 14.8357C478.444 14.575 478.924 14.4447 479.453 14.4447C479.915 14.4447 480.317 14.5378 480.66 14.724C481.01 14.9102 481.289 15.1448 481.498 15.4278V14.5452H483.073V20.7346H481.498V19.8297C481.297 20.1201 481.017 20.3622 480.66 20.5559C480.31 20.7421 479.904 20.8352 479.442 20.8352C478.921 20.8352 478.444 20.7011 478.012 20.433C477.587 20.1648 477.248 19.7887 476.995 19.3046C476.749 18.813 476.627 18.2507 476.627 17.6176ZM481.498 17.6399C481.498 17.2601 481.423 16.9361 481.274 16.6679C481.125 16.3924 480.924 16.1838 480.671 16.0423C480.418 15.8933 480.146 15.8189 479.855 15.8189C479.565 15.8189 479.297 15.8896 479.051 16.0311C478.805 16.1726 478.604 16.3812 478.448 16.6568C478.299 16.9249 478.224 17.2452 478.224 17.6176C478.224 17.99 478.299 18.3177 478.448 18.6007C478.604 18.8763 478.805 19.0886 479.051 19.2375C479.304 19.3865 479.572 19.461 479.855 19.461C480.146 19.461 480.418 19.3902 480.671 19.2487C480.924 19.0998 481.125 18.8912 481.274 18.6231C481.423 18.3475 481.498 18.0198 481.498 17.6399ZM486.636 15.83V18.8242C486.636 19.0327 486.685 19.1854 486.782 19.2822C486.886 19.3716 487.057 19.4163 487.296 19.4163H488.022V20.7346H487.039C485.72 20.7346 485.061 20.0941 485.061 18.813V15.83H484.324V14.5452H485.061V13.0146H486.636V14.5452H488.022V15.83H486.636ZM495.115 17.5059C495.115 17.7293 495.1 17.9304 495.071 18.1092H490.546C490.583 18.556 490.74 18.9061 491.015 19.1593C491.291 19.4126 491.63 19.5392 492.032 19.5392C492.613 19.5392 493.026 19.2897 493.272 18.7907H494.959C494.78 19.3865 494.438 19.8781 493.931 20.2654C493.425 20.6452 492.803 20.8352 492.065 20.8352C491.469 20.8352 490.933 20.7048 490.457 20.4441C489.987 20.176 489.619 19.7999 489.35 19.3158C489.09 18.8316 488.959 18.273 488.959 17.6399C488.959 16.9994 489.09 16.4371 489.35 15.9529C489.611 15.4688 489.976 15.0964 490.445 14.8357C490.915 14.575 491.455 14.4447 492.065 14.4447C492.654 14.4447 493.179 14.5713 493.641 14.8245C494.11 15.0778 494.471 15.439 494.724 15.9082C494.985 16.37 495.115 16.9026 495.115 17.5059ZM493.495 17.059C493.488 16.6568 493.343 16.3365 493.06 16.0982C492.777 15.8524 492.43 15.7295 492.021 15.7295C491.633 15.7295 491.306 15.8487 491.037 16.087C490.777 16.3179 490.617 16.6419 490.557 17.059H493.495ZM506.019 20.7346H504.454L500.913 15.3831V20.7346H499.349V12.9253H500.913L504.454 18.2879V12.9253H506.019V20.7346ZM510.527 20.8352C509.932 20.8352 509.395 20.7048 508.919 20.4441C508.442 20.176 508.066 19.7999 507.79 19.3158C507.522 18.8316 507.388 18.273 507.388 17.6399C507.388 17.0068 507.526 16.4482 507.801 15.9641C508.085 15.48 508.468 15.1076 508.952 14.8469C509.436 14.5787 509.976 14.4447 510.572 14.4447C511.168 14.4447 511.708 14.5787 512.192 14.8469C512.676 15.1076 513.056 15.48 513.332 15.9641C513.615 16.4482 513.756 17.0068 513.756 17.6399C513.756 18.273 513.611 18.8316 513.321 19.3158C513.038 19.7999 512.65 20.176 512.159 20.4441C511.675 20.7048 511.131 20.8352 510.527 20.8352ZM510.527 19.4722C510.811 19.4722 511.075 19.4051 511.321 19.2711C511.574 19.1295 511.775 18.921 511.924 18.6454C512.073 18.3698 512.147 18.0347 512.147 17.6399C512.147 17.0515 511.991 16.6009 511.678 16.2881C511.373 15.9678 510.997 15.8077 510.55 15.8077C510.103 15.8077 509.727 15.9678 509.421 16.2881C509.124 16.6009 508.975 17.0515 508.975 17.6399C508.975 18.2283 509.12 18.6827 509.41 19.0029C509.708 19.3158 510.081 19.4722 510.527 19.4722ZM517.699 19.2934L519.263 14.5452H520.928L518.638 20.7346H516.738L514.459 14.5452H516.135L517.699 19.2934Z" fill="#393858"/>
<path d="M412.179 67.7205C413.067 67.7205 413.843 67.8925 414.507 68.2365C415.179 68.5725 415.695 69.0605 416.055 69.7005C416.423 70.3325 416.607 71.0725 416.607 71.9205C416.607 72.7685 416.423 73.5045 416.055 74.1285C415.695 74.7525 415.179 75.2325 414.507 75.5685C413.843 75.8965 413.067 76.0605 412.179 76.0605H409.455V67.7205H412.179ZM412.179 74.9445C413.155 74.9445 413.903 74.6805 414.423 74.1525C414.943 73.6245 415.203 72.8805 415.203 71.9205C415.203 70.9525 414.943 70.1965 414.423 69.6525C413.903 69.1085 413.155 68.8365 412.179 68.8365H410.823V74.9445H412.179ZM420.711 76.1445C420.151 76.1445 419.647 76.0485 419.199 75.8565C418.751 75.6565 418.399 75.3765 418.143 75.0165C417.887 74.6565 417.759 74.2365 417.759 73.7565H419.223C419.255 74.1165 419.395 74.4125 419.643 74.6445C419.899 74.8765 420.255 74.9925 420.711 74.9925C421.183 74.9925 421.551 74.8805 421.815 74.6565C422.079 74.4245 422.211 74.1285 422.211 73.7685C422.211 73.4885 422.127 73.2605 421.959 73.0845C421.799 72.9085 421.595 72.7725 421.347 72.6765C421.107 72.5805 420.771 72.4765 420.339 72.3645C419.795 72.2205 419.351 72.0765 419.007 71.9325C418.671 71.7805 418.383 71.5485 418.143 71.2365C417.903 70.9245 417.783 70.5085 417.783 69.9885C417.783 69.5085 417.903 69.0885 418.143 68.7285C418.383 68.3685 418.719 68.0925 419.151 67.9005C419.583 67.7085 420.083 67.6125 420.651 67.6125C421.459 67.6125 422.119 67.8165 422.631 68.2245C423.151 68.6245 423.439 69.1765 423.495 69.8805H421.983C421.959 69.5765 421.815 69.3165 421.551 69.1005C421.287 68.8845 420.939 68.7765 420.507 68.7765C420.115 68.7765 419.795 68.8765 419.547 69.0765C419.299 69.2765 419.175 69.5645 419.175 69.9405C419.175 70.1965 419.251 70.4085 419.403 70.5765C419.563 70.7365 419.763 70.8645 420.003 70.9605C420.243 71.0565 420.571 71.1605 420.987 71.2725C421.539 71.4245 421.987 71.5765 422.331 71.7285C422.683 71.8805 422.979 72.1165 423.219 72.4365C423.467 72.7485 423.591 73.1685 423.591 73.6965C423.591 74.1205 423.475 74.5205 423.243 74.8965C423.019 75.2725 422.687 75.5765 422.247 75.8085C421.815 76.0325 421.303 76.1445 420.711 76.1445ZM427.866 71.8725C427.866 71.0565 428.054 70.3245 428.43 69.6765C428.814 69.0285 429.33 68.5245 429.978 68.1645C430.634 67.7965 431.35 67.6125 432.126 67.6125C433.014 67.6125 433.802 67.8325 434.49 68.2725C435.186 68.7045 435.69 69.3205 436.002 70.1205H434.358C434.142 69.6805 433.842 69.3525 433.458 69.1365C433.074 68.9205 432.63 68.8125 432.126 68.8125C431.574 68.8125 431.082 68.9365 430.65 69.1845C430.218 69.4325 429.878 69.7885 429.63 70.2525C429.39 70.7165 429.27 71.2565 429.27 71.8725C429.27 72.4885 429.39 73.0285 429.63 73.4925C429.878 73.9565 430.218 74.3165 430.65 74.5725C431.082 74.8205 431.574 74.9445 432.126 74.9445C432.63 74.9445 433.074 74.8365 433.458 74.6205C433.842 74.4045 434.142 74.0765 434.358 73.6365H436.002C435.69 74.4365 435.186 75.0525 434.49 75.4845C433.802 75.9165 433.014 76.1325 432.126 76.1325C431.342 76.1325 430.626 75.9525 429.978 75.5925C429.33 75.2245 428.814 74.7165 428.43 74.0685C428.054 73.4205 427.866 72.6885 427.866 71.8725ZM443.591 69.4485V76.0605H442.223V75.2805C442.007 75.5525 441.723 75.7685 441.371 75.9285C441.027 76.0805 440.659 76.1565 440.267 76.1565C439.747 76.1565 439.279 76.0485 438.863 75.8325C438.455 75.6165 438.131 75.2965 437.891 74.8725C437.659 74.4485 437.543 73.9365 437.543 73.3365V69.4485H438.899V73.1325C438.899 73.7245 439.047 74.1805 439.343 74.5005C439.639 74.8125 440.043 74.9685 440.555 74.9685C441.067 74.9685 441.471 74.8125 441.767 74.5005C442.071 74.1805 442.223 73.7245 442.223 73.1325V69.4485H443.591ZM446.764 70.4085C446.964 70.0725 447.228 69.8125 447.556 69.6285C447.892 69.4365 448.288 69.3405 448.744 69.3405V70.7565H448.396C447.86 70.7565 447.452 70.8925 447.172 71.1645C446.9 71.4365 446.764 71.9085 446.764 72.5805V76.0605H445.396V69.4485H446.764V70.4085ZM451.37 70.4085C451.57 70.0725 451.834 69.8125 452.162 69.6285C452.498 69.4365 452.894 69.3405 453.35 69.3405V70.7565H453.002C452.466 70.7565 452.058 70.8925 451.778 71.1645C451.506 71.4365 451.37 71.9085 451.37 72.5805V76.0605H450.002V69.4485H451.37V70.4085ZM455.303 68.5725C455.055 68.5725 454.847 68.4885 454.679 68.3205C454.511 68.1525 454.427 67.9445 454.427 67.6965C454.427 67.4485 454.511 67.2405 454.679 67.0725C454.847 66.9045 455.055 66.8205 455.303 66.8205C455.543 66.8205 455.747 66.9045 455.915 67.0725C456.083 67.2405 456.167 67.4485 456.167 67.6965C456.167 67.9445 456.083 68.1525 455.915 68.3205C455.747 68.4885 455.543 68.5725 455.303 68.5725ZM455.975 69.4485V76.0605H454.607V69.4485H455.975ZM457.315 72.7485C457.315 72.0685 457.451 71.4725 457.723 70.9605C458.003 70.4405 458.387 70.0405 458.875 69.7605C459.363 69.4805 459.923 69.3405 460.555 69.3405C461.355 69.3405 462.015 69.5325 462.535 69.9165C463.063 70.2925 463.419 70.8325 463.603 71.5365H462.127C462.007 71.2085 461.815 70.9525 461.551 70.7685C461.287 70.5845 460.955 70.4925 460.555 70.4925C459.995 70.4925 459.547 70.6925 459.211 71.0925C458.883 71.4845 458.719 72.0365 458.719 72.7485C458.719 73.4605 458.883 74.0165 459.211 74.4165C459.547 74.8165 459.995 75.0165 460.555 75.0165C461.347 75.0165 461.871 74.6685 462.127 73.9725H463.603C463.411 74.6445 463.051 75.1805 462.523 75.5805C461.995 75.9725 461.339 76.1685 460.555 76.1685C459.923 76.1685 459.363 76.0285 458.875 75.7485C458.387 75.4605 458.003 75.0605 457.723 74.5485C457.451 74.0285 457.315 73.4285 457.315 72.7485ZM470.954 69.4485V76.0605H469.586V75.2805C469.37 75.5525 469.086 75.7685 468.734 75.9285C468.39 76.0805 468.022 76.1565 467.63 76.1565C467.11 76.1565 466.642 76.0485 466.226 75.8325C465.818 75.6165 465.494 75.2965 465.254 74.8725C465.022 74.4485 464.906 73.9365 464.906 73.3365V69.4485H466.262V73.1325C466.262 73.7245 466.41 74.1805 466.706 74.5005C467.002 74.8125 467.406 74.9685 467.918 74.9685C468.43 74.9685 468.834 74.8125 469.13 74.5005C469.434 74.1805 469.586 73.7245 469.586 73.1325V69.4485H470.954ZM474.127 67.1805V76.0605H472.759V67.1805H474.127ZM481.911 69.4485V76.0605H480.543V75.2805C480.327 75.5525 480.043 75.7685 479.691 75.9285C479.347 76.0805 478.979 76.1565 478.587 76.1565C478.067 76.1565 477.599 76.0485 477.183 75.8325C476.775 75.6165 476.451 75.2965 476.211 74.8725C475.979 74.4485 475.863 73.9365 475.863 73.3365V69.4485H477.219V73.1325C477.219 73.7245 477.367 74.1805 477.663 74.5005C477.959 74.8125 478.363 74.9685 478.875 74.9685C479.387 74.9685 479.791 74.8125 480.087 74.5005C480.391 74.1805 480.543 73.7245 480.543 73.1325V69.4485H481.911ZM491.72 69.3405C492.24 69.3405 492.704 69.4485 493.112 69.6645C493.528 69.8805 493.852 70.2005 494.084 70.6245C494.324 71.0485 494.444 71.5605 494.444 72.1605V76.0605H493.088V72.3645C493.088 71.7725 492.94 71.3205 492.644 71.0085C492.348 70.6885 491.944 70.5285 491.432 70.5285C490.92 70.5285 490.512 70.6885 490.208 71.0085C489.912 71.3205 489.764 71.7725 489.764 72.3645V76.0605H488.408V72.3645C488.408 71.7725 488.26 71.3205 487.964 71.0085C487.668 70.6885 487.264 70.5285 486.752 70.5285C486.24 70.5285 485.832 70.6885 485.528 71.0085C485.232 71.3205 485.084 71.7725 485.084 72.3645V76.0605H483.716V69.4485H485.084V70.2045C485.308 69.9325 485.592 69.7205 485.936 69.5685C486.28 69.4165 486.648 69.3405 487.04 69.3405C487.568 69.3405 488.04 69.4525 488.456 69.6765C488.872 69.9005 489.192 70.2245 489.416 70.6485C489.616 70.2485 489.928 69.9325 490.352 69.7005C490.776 69.4605 491.232 69.3405 491.72 69.3405ZM508.086 67.7205V76.0605H506.718V70.3485L504.174 76.0605H503.226L500.67 70.3485V76.0605H499.302V67.7205H500.778L503.706 74.2605L506.622 67.7205H508.086ZM512.752 76.1685C512.128 76.1685 511.564 76.0285 511.06 75.7485C510.556 75.4605 510.16 75.0605 509.872 74.5485C509.584 74.0285 509.44 73.4285 509.44 72.7485C509.44 72.0765 509.588 71.4805 509.884 70.9605C510.18 70.4405 510.584 70.0405 511.096 69.7605C511.608 69.4805 512.18 69.3405 512.812 69.3405C513.444 69.3405 514.016 69.4805 514.528 69.7605C515.04 70.0405 515.444 70.4405 515.74 70.9605C516.036 71.4805 516.184 72.0765 516.184 72.7485C516.184 73.4205 516.032 74.0165 515.728 74.5365C515.424 75.0565 515.008 75.4605 514.48 75.7485C513.96 76.0285 513.384 76.1685 512.752 76.1685ZM512.752 74.9805C513.104 74.9805 513.432 74.8965 513.736 74.7285C514.048 74.5605 514.3 74.3085 514.492 73.9725C514.684 73.6365 514.78 73.2285 514.78 72.7485C514.78 72.2685 514.688 71.8645 514.504 71.5365C514.32 71.2005 514.076 70.9485 513.772 70.7805C513.468 70.6125 513.14 70.5285 512.788 70.5285C512.436 70.5285 512.108 70.6125 511.804 70.7805C511.508 70.9485 511.272 71.2005 511.096 71.5365C510.92 71.8645 510.832 72.2685 510.832 72.7485C510.832 73.4605 511.012 74.0125 511.372 74.4045C511.74 74.7885 512.2 74.9805 512.752 74.9805ZM517.081 72.7245C517.081 72.0605 517.217 71.4725 517.489 70.9605C517.769 70.4485 518.145 70.0525 518.617 69.7725C519.097 69.4845 519.629 69.3405 520.213 69.3405C520.645 69.3405 521.069 69.4365 521.485 69.6285C521.909 69.8125 522.245 70.0605 522.493 70.3725V67.1805H523.873V76.0605H522.493V75.0645C522.269 75.3845 521.957 75.6485 521.557 75.8565C521.165 76.0645 520.713 76.1685 520.201 76.1685C519.625 76.1685 519.097 76.0245 518.617 75.7365C518.145 75.4405 517.769 75.0325 517.489 74.5125C517.217 73.9845 517.081 73.3885 517.081 72.7245ZM522.493 72.7485C522.493 72.2925 522.397 71.8965 522.205 71.5605C522.021 71.2245 521.777 70.9685 521.473 70.7925C521.169 70.6165 520.841 70.5285 520.489 70.5285C520.137 70.5285 519.809 70.6165 519.505 70.7925C519.201 70.9605 518.953 71.2125 518.761 71.5485C518.577 71.8765 518.485 72.2685 518.485 72.7245C518.485 73.1805 518.577 73.5805 518.761 73.9245C518.953 74.2685 519.201 74.5325 519.505 74.7165C519.817 74.8925 520.145 74.9805 520.489 74.9805C520.841 74.9805 521.169 74.8925 521.473 74.7165C521.777 74.5405 522.021 74.2845 522.205 73.9485C522.397 73.6045 522.493 73.2045 522.493 72.7485ZM531.658 69.4485V76.0605H530.29V75.2805C530.074 75.5525 529.79 75.7685 529.438 75.9285C529.094 76.0805 528.726 76.1565 528.334 76.1565C527.814 76.1565 527.346 76.0485 526.93 75.8325C526.522 75.6165 526.198 75.2965 525.958 74.8725C525.726 74.4485 525.61 73.9365 525.61 73.3365V69.4485H526.966V73.1325C526.966 73.7245 527.114 74.1805 527.41 74.5005C527.706 74.8125 528.11 74.9685 528.622 74.9685C529.134 74.9685 529.538 74.8125 529.834 74.5005C530.138 74.1805 530.29 73.7245 530.29 73.1325V69.4485H531.658ZM534.831 67.1805V76.0605H533.463V67.1805H534.831ZM542.687 72.5925C542.687 72.8405 542.671 73.0645 542.639 73.2645H537.587C537.627 73.7925 537.823 74.2165 538.175 74.5365C538.527 74.8565 538.959 75.0165 539.471 75.0165C540.207 75.0165 540.727 74.7085 541.031 74.0925H542.507C542.307 74.7005 541.943 75.2005 541.415 75.5925C540.895 75.9765 540.247 76.1685 539.471 76.1685C538.839 76.1685 538.271 76.0285 537.767 75.7485C537.271 75.4605 536.879 75.0605 536.591 74.5485C536.311 74.0285 536.171 73.4285 536.171 72.7485C536.171 72.0685 536.307 71.4725 536.579 70.9605C536.859 70.4405 537.247 70.0405 537.743 69.7605C538.247 69.4805 538.823 69.3405 539.471 69.3405C540.095 69.3405 540.651 69.4765 541.139 69.7485C541.627 70.0205 542.007 70.4045 542.279 70.9005C542.551 71.3885 542.687 71.9525 542.687 72.5925ZM541.259 72.1605C541.251 71.6565 541.071 71.2525 540.719 70.9485C540.367 70.6445 539.931 70.4925 539.411 70.4925C538.939 70.4925 538.535 70.6445 538.199 70.9485C537.863 71.2445 537.663 71.6485 537.599 72.1605H541.259ZM546.79 68.5605V67.3125H549.286V76.0605H547.906V68.5605H546.79Z" fill="white"/>
<circle cx="580.556" cy="18.9069" r="5.15639" fill="white"/>
<line x1="575.4" y1="18.477" x2="767.2" y2="18.477" stroke="white" stroke-width="0.859399"/>
<rect x="630.55" width="81.5008" height="34.4692" rx="17.2346" fill="white"/>
<path d="M646.678 14.1989V16.154H649.303V17.3941H646.678V19.461H649.639V20.7346H645.114V12.9253H649.639V14.1989H646.678ZM650.873 17.6176C650.873 16.9919 650.996 16.4371 651.241 15.9529C651.495 15.4688 651.833 15.0964 652.258 14.8357C652.69 14.575 653.17 14.4447 653.699 14.4447C654.161 14.4447 654.563 14.5378 654.906 14.724C655.256 14.9102 655.535 15.1448 655.744 15.4278V14.5452H657.319V20.7346H655.744V19.8297C655.543 20.1201 655.263 20.3622 654.906 20.5559C654.556 20.7421 654.15 20.8352 653.688 20.8352C653.167 20.8352 652.69 20.7011 652.258 20.433C651.833 20.1648 651.495 19.7887 651.241 19.3046C650.996 18.813 650.873 18.2507 650.873 17.6176ZM655.744 17.6399C655.744 17.2601 655.669 16.9361 655.52 16.6679C655.371 16.3924 655.17 16.1838 654.917 16.0423C654.664 15.8933 654.392 15.8189 654.101 15.8189C653.811 15.8189 653.543 15.8896 653.297 16.0311C653.051 16.1726 652.85 16.3812 652.694 16.6568C652.545 16.9249 652.47 17.2452 652.47 17.6176C652.47 17.99 652.545 18.3177 652.694 18.6007C652.85 18.8763 653.051 19.0886 653.297 19.2375C653.55 19.3865 653.818 19.461 654.101 19.461C654.392 19.461 654.664 19.3902 654.917 19.2487C655.17 19.0998 655.371 18.8912 655.52 18.6231C655.669 18.3475 655.744 18.0198 655.744 17.6399ZM660.626 15.506C660.827 15.1783 661.087 14.9214 661.408 14.7352C661.735 14.549 662.108 14.4559 662.525 14.4559V16.0982H662.111C661.62 16.0982 661.248 16.2136 660.994 16.4445C660.748 16.6754 660.626 17.0776 660.626 17.6511V20.7346H659.061V14.5452H660.626V15.506ZM665.357 12.4672V20.7346H663.793V12.4672H665.357ZM673.039 14.5452L669.207 23.6617H667.542L668.883 20.5782L666.402 14.5452H668.157L669.754 18.8689L671.374 14.5452H673.039ZM679.7 12.9364C680.519 12.9364 681.238 13.0966 681.856 13.4168C682.482 13.7371 682.962 14.1952 683.297 14.791C683.64 15.3794 683.811 16.0646 683.811 16.8467C683.811 17.6288 683.64 18.314 683.297 18.9024C682.962 19.4833 682.482 19.9339 681.856 20.2542C681.238 20.5745 680.519 20.7346 679.7 20.7346H676.974V12.9364H679.7ZM679.644 19.4051C680.463 19.4051 681.096 19.1817 681.543 18.7348C681.99 18.2879 682.213 17.6585 682.213 16.8467C682.213 16.0349 681.99 15.4018 681.543 14.9474C681.096 14.4856 680.463 14.2548 679.644 14.2548H678.538V19.4051H679.644ZM690.95 17.5059C690.95 17.7293 690.936 17.9304 690.906 18.1092H686.381C686.418 18.556 686.575 18.9061 686.85 19.1593C687.126 19.4126 687.465 19.5392 687.867 19.5392C688.448 19.5392 688.861 19.2897 689.107 18.7907H690.794C690.615 19.3865 690.273 19.8781 689.766 20.2654C689.26 20.6452 688.638 20.8352 687.9 20.8352C687.305 20.8352 686.768 20.7048 686.292 20.4441C685.822 20.176 685.454 19.7999 685.186 19.3158C684.925 18.8316 684.795 18.273 684.795 17.6399C684.795 16.9994 684.925 16.4371 685.186 15.9529C685.446 15.4688 685.811 15.0964 686.28 14.8357C686.75 14.575 687.29 14.4447 687.9 14.4447C688.489 14.4447 689.014 14.5713 689.476 14.8245C689.945 15.0778 690.306 15.439 690.559 15.9082C690.82 16.37 690.95 16.9026 690.95 17.5059ZM689.33 17.059C689.323 16.6568 689.178 16.3365 688.895 16.0982C688.612 15.8524 688.265 15.7295 687.856 15.7295C687.468 15.7295 687.141 15.8487 686.873 16.087C686.612 16.3179 686.452 16.6419 686.392 17.059H689.33ZM691.905 17.6399C691.905 16.9994 692.035 16.4408 692.296 15.9641C692.556 15.48 692.918 15.1076 693.379 14.8469C693.841 14.5787 694.37 14.4447 694.966 14.4447C695.733 14.4447 696.366 14.6383 696.865 15.0256C697.372 15.4055 697.711 15.9418 697.882 16.6344H696.195C696.106 16.3663 695.953 16.1577 695.737 16.0088C695.528 15.8524 695.268 15.7742 694.955 15.7742C694.508 15.7742 694.154 15.938 693.893 16.2657C693.633 16.586 693.502 17.0441 693.502 17.6399C693.502 18.2283 693.633 18.6864 693.893 19.0141C694.154 19.3344 694.508 19.4945 694.955 19.4945C695.588 19.4945 696.001 19.2115 696.195 18.6454H697.882C697.711 19.3158 697.372 19.8483 696.865 20.243C696.359 20.6378 695.726 20.8352 694.966 20.8352C694.37 20.8352 693.841 20.7048 693.379 20.4441C692.918 20.176 692.556 19.8036 692.296 19.3269C692.035 18.8428 691.905 18.2805 691.905 17.6399Z" fill="#393858"/>
<path d="M605.247 76.0605L603.327 72.7245H602.283V76.0605H600.915V67.7205H603.795C604.435 67.7205 604.975 67.8325 605.415 68.0565C605.863 68.2805 606.195 68.5805 606.411 68.9565C606.635 69.3325 606.747 69.7525 606.747 70.2165C606.747 70.7605 606.587 71.2565 606.267 71.7045C605.955 72.1445 605.471 72.4445 604.815 72.6045L606.879 76.0605H605.247ZM602.283 71.6325H603.795C604.307 71.6325 604.691 71.5045 604.947 71.2485C605.211 70.9925 605.343 70.6485 605.343 70.2165C605.343 69.7845 605.215 69.4485 604.959 69.2085C604.703 68.9605 604.315 68.8365 603.795 68.8365H602.283V71.6325ZM614.557 72.5925C614.557 72.8405 614.541 73.0645 614.509 73.2645H609.457C609.497 73.7925 609.693 74.2165 610.045 74.5365C610.397 74.8565 610.829 75.0165 611.341 75.0165C612.077 75.0165 612.597 74.7085 612.901 74.0925H614.377C614.177 74.7005 613.813 75.2005 613.285 75.5925C612.765 75.9765 612.117 76.1685 611.341 76.1685C610.709 76.1685 610.141 76.0285 609.637 75.7485C609.141 75.4605 608.749 75.0605 608.461 74.5485C608.181 74.0285 608.041 73.4285 608.041 72.7485C608.041 72.0685 608.177 71.4725 608.449 70.9605C608.729 70.4405 609.117 70.0405 609.613 69.7605C610.117 69.4805 610.693 69.3405 611.341 69.3405C611.965 69.3405 612.521 69.4765 613.009 69.7485C613.497 70.0205 613.877 70.4045 614.149 70.9005C614.421 71.3885 614.557 71.9525 614.557 72.5925ZM613.129 72.1605C613.121 71.6565 612.941 71.2525 612.589 70.9485C612.237 70.6445 611.801 70.4925 611.281 70.4925C610.809 70.4925 610.405 70.6445 610.069 70.9485C609.733 71.2445 609.533 71.6485 609.469 72.1605H613.129ZM618.567 69.3405C619.079 69.3405 619.531 69.4445 619.923 69.6525C620.323 69.8525 620.635 70.1045 620.859 70.4085V69.4485H622.239V76.1685C622.239 76.7765 622.111 77.3165 621.855 77.7885C621.599 78.2685 621.227 78.6445 620.739 78.9165C620.259 79.1885 619.683 79.3245 619.011 79.3245C618.115 79.3245 617.371 79.1125 616.779 78.6885C616.187 78.2725 615.851 77.7045 615.771 76.9845H617.127C617.231 77.3285 617.451 77.6045 617.787 77.8125C618.131 78.0285 618.539 78.1365 619.011 78.1365C619.563 78.1365 620.007 77.9685 620.343 77.6325C620.687 77.2965 620.859 76.8085 620.859 76.1685V75.0645C620.627 75.3765 620.311 75.6405 619.911 75.8565C619.519 76.0645 619.071 76.1685 618.567 76.1685C617.991 76.1685 617.463 76.0245 616.983 75.7365C616.511 75.4405 616.135 75.0325 615.855 74.5125C615.583 73.9845 615.447 73.3885 615.447 72.7245C615.447 72.0605 615.583 71.4725 615.855 70.9605C616.135 70.4485 616.511 70.0525 616.983 69.7725C617.463 69.4845 617.991 69.3405 618.567 69.3405ZM620.859 72.7485C620.859 72.2925 620.763 71.8965 620.571 71.5605C620.387 71.2245 620.143 70.9685 619.839 70.7925C619.535 70.6165 619.207 70.5285 618.855 70.5285C618.503 70.5285 618.175 70.6165 617.871 70.7925C617.567 70.9605 617.319 71.2125 617.127 71.5485C616.943 71.8765 616.851 72.2685 616.851 72.7245C616.851 73.1805 616.943 73.5805 617.127 73.9245C617.319 74.2685 617.567 74.5325 617.871 74.7165C618.183 74.8925 618.511 74.9805 618.855 74.9805C619.207 74.9805 619.535 74.8925 619.839 74.7165C620.143 74.5405 620.387 74.2845 620.571 73.9485C620.763 73.6045 620.859 73.2045 620.859 72.7485ZM624.732 68.5725C624.484 68.5725 624.276 68.4885 624.108 68.3205C623.94 68.1525 623.856 67.9445 623.856 67.6965C623.856 67.4485 623.94 67.2405 624.108 67.0725C624.276 66.9045 624.484 66.8205 624.732 66.8205C624.972 66.8205 625.176 66.9045 625.344 67.0725C625.512 67.2405 625.596 67.4485 625.596 67.6965C625.596 67.9445 625.512 68.1525 625.344 68.3205C625.176 68.4885 624.972 68.5725 624.732 68.5725ZM625.404 69.4485V76.0605H624.036V69.4485H625.404ZM630.068 76.1685C629.444 76.1685 628.88 76.0285 628.376 75.7485C627.872 75.4605 627.476 75.0605 627.188 74.5485C626.9 74.0285 626.756 73.4285 626.756 72.7485C626.756 72.0765 626.904 71.4805 627.2 70.9605C627.496 70.4405 627.9 70.0405 628.412 69.7605C628.924 69.4805 629.496 69.3405 630.128 69.3405C630.76 69.3405 631.332 69.4805 631.844 69.7605C632.356 70.0405 632.76 70.4405 633.056 70.9605C633.352 71.4805 633.5 72.0765 633.5 72.7485C633.5 73.4205 633.348 74.0165 633.044 74.5365C632.74 75.0565 632.324 75.4605 631.796 75.7485C631.276 76.0285 630.7 76.1685 630.068 76.1685ZM630.068 74.9805C630.42 74.9805 630.748 74.8965 631.052 74.7285C631.364 74.5605 631.616 74.3085 631.808 73.9725C632 73.6365 632.096 73.2285 632.096 72.7485C632.096 72.2685 632.004 71.8645 631.82 71.5365C631.636 71.2005 631.392 70.9485 631.088 70.7805C630.784 70.6125 630.456 70.5285 630.104 70.5285C629.752 70.5285 629.424 70.6125 629.12 70.7805C628.824 70.9485 628.588 71.2005 628.412 71.5365C628.236 71.8645 628.148 72.2685 628.148 72.7485C628.148 73.4605 628.328 74.0125 628.688 74.4045C629.056 74.7885 629.516 74.9805 630.068 74.9805ZM638.188 69.3405C638.708 69.3405 639.172 69.4485 639.58 69.6645C639.996 69.8805 640.32 70.2005 640.552 70.6245C640.784 71.0485 640.9 71.5605 640.9 72.1605V76.0605H639.544V72.3645C639.544 71.7725 639.396 71.3205 639.1 71.0085C638.804 70.6885 638.4 70.5285 637.888 70.5285C637.376 70.5285 636.968 70.6885 636.664 71.0085C636.368 71.3205 636.22 71.7725 636.22 72.3645V76.0605H634.852V69.4485H636.22V70.2045C636.444 69.9325 636.728 69.7205 637.072 69.5685C637.424 69.4165 637.796 69.3405 638.188 69.3405ZM647.721 71.1405V72.2925H642.789V71.1405H647.721ZM652.065 76.1685C651.545 76.1685 651.077 76.0765 650.661 75.8925C650.253 75.7005 649.929 75.4445 649.689 75.1245C649.449 74.7965 649.321 74.4325 649.305 74.0325H650.721C650.745 74.3125 650.877 74.5485 651.117 74.7405C651.365 74.9245 651.673 75.0165 652.041 75.0165C652.425 75.0165 652.721 74.9445 652.929 74.8005C653.145 74.6485 653.253 74.4565 653.253 74.2245C653.253 73.9765 653.133 73.7925 652.893 73.6725C652.661 73.5525 652.289 73.4205 651.777 73.2765C651.281 73.1405 650.877 73.0085 650.565 72.8805C650.253 72.7525 649.981 72.5565 649.749 72.2925C649.525 72.0285 649.413 71.6805 649.413 71.2485C649.413 70.8965 649.517 70.5765 649.725 70.2885C649.933 69.9925 650.229 69.7605 650.613 69.5925C651.005 69.4245 651.453 69.3405 651.957 69.3405C652.709 69.3405 653.313 69.5325 653.769 69.9165C654.233 70.2925 654.481 70.8085 654.513 71.4645H653.145C653.121 71.1685 653.001 70.9325 652.785 70.7565C652.569 70.5805 652.277 70.4925 651.909 70.4925C651.549 70.4925 651.273 70.5605 651.081 70.6965C650.889 70.8325 650.793 71.0125 650.793 71.2365C650.793 71.4125 650.857 71.5605 650.985 71.6805C651.113 71.8005 651.269 71.8965 651.453 71.9685C651.637 72.0325 651.909 72.1165 652.269 72.2205C652.749 72.3485 653.141 72.4805 653.445 72.6165C653.757 72.7445 654.025 72.9365 654.249 73.1925C654.473 73.4485 654.589 73.7885 654.597 74.2125C654.597 74.5885 654.493 74.9245 654.285 75.2205C654.077 75.5165 653.781 75.7485 653.397 75.9165C653.021 76.0845 652.577 76.1685 652.065 76.1685ZM657.443 70.4205C657.675 70.1165 657.991 69.8605 658.391 69.6525C658.791 69.4445 659.243 69.3405 659.747 69.3405C660.323 69.3405 660.847 69.4845 661.319 69.7725C661.799 70.0525 662.175 70.4485 662.447 70.9605C662.719 71.4725 662.855 72.0605 662.855 72.7245C662.855 73.3885 662.719 73.9845 662.447 74.5125C662.175 75.0325 661.799 75.4405 661.319 75.7365C660.847 76.0245 660.323 76.1685 659.747 76.1685C659.243 76.1685 658.795 76.0685 658.403 75.8685C658.011 75.6605 657.691 75.4045 657.443 75.1005V79.2045H656.075V69.4485H657.443V70.4205ZM661.463 72.7245C661.463 72.2685 661.367 71.8765 661.175 71.5485C660.991 71.2125 660.743 70.9605 660.431 70.7925C660.127 70.6165 659.799 70.5285 659.447 70.5285C659.103 70.5285 658.775 70.6165 658.463 70.7925C658.159 70.9685 657.911 71.2245 657.719 71.5605C657.535 71.8965 657.443 72.2925 657.443 72.7485C657.443 73.2045 657.535 73.6045 657.719 73.9485C657.911 74.2845 658.159 74.5405 658.463 74.7165C658.775 74.8925 659.103 74.9805 659.447 74.9805C659.799 74.9805 660.127 74.8925 660.431 74.7165C660.743 74.5325 660.991 74.2685 661.175 73.9245C661.367 73.5805 661.463 73.1805 661.463 72.7245ZM670.268 72.5925C670.268 72.8405 670.252 73.0645 670.22 73.2645H665.168C665.208 73.7925 665.404 74.2165 665.756 74.5365C666.108 74.8565 666.54 75.0165 667.052 75.0165C667.788 75.0165 668.308 74.7085 668.612 74.0925H670.088C669.888 74.7005 669.524 75.2005 668.996 75.5925C668.476 75.9765 667.828 76.1685 667.052 76.1685C666.42 76.1685 665.852 76.0285 665.348 75.7485C664.852 75.4605 664.46 75.0605 664.172 74.5485C663.892 74.0285 663.752 73.4285 663.752 72.7485C663.752 72.0685 663.888 71.4725 664.16 70.9605C664.44 70.4405 664.828 70.0405 665.324 69.7605C665.828 69.4805 666.404 69.3405 667.052 69.3405C667.676 69.3405 668.232 69.4765 668.72 69.7485C669.208 70.0205 669.588 70.4045 669.86 70.9005C670.132 71.3885 670.268 71.9525 670.268 72.5925ZM668.84 72.1605C668.832 71.6565 668.652 71.2525 668.3 70.9485C667.948 70.6445 667.512 70.4925 666.992 70.4925C666.52 70.4925 666.116 70.6445 665.78 70.9485C665.444 71.2445 665.244 71.6485 665.18 72.1605H668.84ZM671.158 72.7485C671.158 72.0685 671.294 71.4725 671.566 70.9605C671.846 70.4405 672.23 70.0405 672.718 69.7605C673.206 69.4805 673.766 69.3405 674.398 69.3405C675.198 69.3405 675.858 69.5325 676.378 69.9165C676.906 70.2925 677.262 70.8325 677.446 71.5365H675.97C675.85 71.2085 675.658 70.9525 675.394 70.7685C675.13 70.5845 674.798 70.4925 674.398 70.4925C673.838 70.4925 673.39 70.6925 673.054 71.0925C672.726 71.4845 672.562 72.0365 672.562 72.7485C672.562 73.4605 672.726 74.0165 673.054 74.4165C673.39 74.8165 673.838 75.0165 674.398 75.0165C675.19 75.0165 675.714 74.6685 675.97 73.9725H677.446C677.254 74.6445 676.894 75.1805 676.366 75.5805C675.838 75.9725 675.182 76.1685 674.398 76.1685C673.766 76.1685 673.206 76.0285 672.718 75.7485C672.23 75.4605 671.846 75.0605 671.566 74.5485C671.294 74.0285 671.158 73.4285 671.158 72.7485ZM679.505 68.5725C679.257 68.5725 679.049 68.4885 678.881 68.3205C678.713 68.1525 678.629 67.9445 678.629 67.6965C678.629 67.4485 678.713 67.2405 678.881 67.0725C679.049 66.9045 679.257 66.8205 679.505 66.8205C679.745 66.8205 679.949 66.9045 680.117 67.0725C680.285 67.2405 680.369 67.4485 680.369 67.6965C680.369 67.9445 680.285 68.1525 680.117 68.3205C679.949 68.4885 679.745 68.5725 679.505 68.5725ZM680.177 69.4485V76.0605H678.809V69.4485H680.177ZM684.745 70.5645H683.521V76.0605H682.141V70.5645H681.361V69.4485H682.141V68.9805C682.141 68.2205 682.341 67.6685 682.741 67.3245C683.149 66.9725 683.785 66.7965 684.649 66.7965V67.9365C684.233 67.9365 683.941 68.0165 683.773 68.1765C683.605 68.3285 683.521 68.5965 683.521 68.9805V69.4485H684.745V70.5645ZM686.654 68.5725C686.406 68.5725 686.198 68.4885 686.03 68.3205C685.862 68.1525 685.778 67.9445 685.778 67.6965C685.778 67.4485 685.862 67.2405 686.03 67.0725C686.198 66.9045 686.406 66.8205 686.654 66.8205C686.894 66.8205 687.098 66.9045 687.266 67.0725C687.434 67.2405 687.518 67.4485 687.518 67.6965C687.518 67.9445 687.434 68.1525 687.266 68.3205C687.098 68.4885 686.894 68.5725 686.654 68.5725ZM687.326 69.4485V76.0605H685.958V69.4485H687.326ZM688.666 72.7485C688.666 72.0685 688.802 71.4725 689.074 70.9605C689.354 70.4405 689.738 70.0405 690.226 69.7605C690.714 69.4805 691.274 69.3405 691.906 69.3405C692.706 69.3405 693.366 69.5325 693.886 69.9165C694.414 70.2925 694.77 70.8325 694.954 71.5365H693.478C693.358 71.2085 693.166 70.9525 692.902 70.7685C692.638 70.5845 692.306 70.4925 691.906 70.4925C691.346 70.4925 690.898 70.6925 690.562 71.0925C690.234 71.4845 690.07 72.0365 690.07 72.7485C690.07 73.4605 690.234 74.0165 690.562 74.4165C690.898 74.8165 691.346 75.0165 691.906 75.0165C692.698 75.0165 693.222 74.6685 693.478 73.9725H694.954C694.762 74.6445 694.402 75.1805 693.874 75.5805C693.346 75.9725 692.69 76.1685 691.906 76.1685C691.274 76.1685 690.714 76.0285 690.226 75.7485C689.738 75.4605 689.354 75.0605 689.074 74.5485C688.802 74.0285 688.666 73.4285 688.666 72.7485ZM702.158 67.7205C703.046 67.7205 703.822 67.8925 704.486 68.2365C705.158 68.5725 705.674 69.0605 706.034 69.7005C706.402 70.3325 706.586 71.0725 706.586 71.9205C706.586 72.7685 706.402 73.5045 706.034 74.1285C705.674 74.7525 705.158 75.2325 704.486 75.5685C703.822 75.8965 703.046 76.0605 702.158 76.0605H699.434V67.7205H702.158ZM702.158 74.9445C703.134 74.9445 703.882 74.6805 704.402 74.1525C704.922 73.6245 705.182 72.8805 705.182 71.9205C705.182 70.9525 704.922 70.1965 704.402 69.6525C703.882 69.1085 703.134 68.8365 702.158 68.8365H700.802V74.9445H702.158ZM714.002 72.5925C714.002 72.8405 713.986 73.0645 713.954 73.2645H708.902C708.942 73.7925 709.138 74.2165 709.49 74.5365C709.842 74.8565 710.274 75.0165 710.786 75.0165C711.522 75.0165 712.042 74.7085 712.346 74.0925H713.822C713.622 74.7005 713.258 75.2005 712.73 75.5925C712.21 75.9765 711.562 76.1685 710.786 76.1685C710.154 76.1685 709.586 76.0285 709.082 75.7485C708.586 75.4605 708.194 75.0605 707.906 74.5485C707.626 74.0285 707.486 73.4285 707.486 72.7485C707.486 72.0685 707.622 71.4725 707.894 70.9605C708.174 70.4405 708.562 70.0405 709.058 69.7605C709.562 69.4805 710.138 69.3405 710.786 69.3405C711.41 69.3405 711.966 69.4765 712.454 69.7485C712.942 70.0205 713.322 70.4045 713.594 70.9005C713.866 71.3885 714.002 71.9525 714.002 72.5925ZM712.574 72.1605C712.566 71.6565 712.386 71.2525 712.034 70.9485C711.682 70.6445 711.246 70.4925 710.726 70.4925C710.254 70.4925 709.85 70.6445 709.514 70.9485C709.178 71.2445 708.978 71.6485 708.914 72.1605H712.574ZM716.716 70.4325C716.948 70.1125 717.264 69.8525 717.664 69.6525C718.072 69.4445 718.524 69.3405 719.02 69.3405C719.604 69.3405 720.132 69.4805 720.604 69.7605C721.076 70.0405 721.448 70.4405 721.72 70.9605C721.992 71.4725 722.128 72.0605 722.128 72.7245C722.128 73.3885 721.992 73.9845 721.72 74.5125C721.448 75.0325 721.072 75.4405 720.592 75.7365C720.12 76.0245 719.596 76.1685 719.02 76.1685C718.508 76.1685 718.052 76.0685 717.652 75.8685C717.26 75.6685 716.948 75.4125 716.716 75.1005V76.0605H715.348V67.1805H716.716V70.4325ZM720.736 72.7245C720.736 72.2685 720.64 71.8765 720.448 71.5485C720.264 71.2125 720.016 70.9605 719.704 70.7925C719.4 70.6165 719.072 70.5285 718.72 70.5285C718.376 70.5285 718.048 70.6165 717.736 70.7925C717.432 70.9685 717.184 71.2245 716.992 71.5605C716.808 71.8965 716.716 72.2925 716.716 72.7485C716.716 73.2045 716.808 73.6045 716.992 73.9485C717.184 74.2845 717.432 74.5405 717.736 74.7165C718.048 74.8925 718.376 74.9805 718.72 74.9805C719.072 74.9805 719.4 74.8925 719.704 74.7165C720.016 74.5325 720.264 74.2685 720.448 73.9245C720.64 73.5805 720.736 73.1805 720.736 72.7245ZM723.025 72.7245C723.025 72.0605 723.161 71.4725 723.433 70.9605C723.713 70.4485 724.089 70.0525 724.561 69.7725C725.041 69.4845 725.569 69.3405 726.145 69.3405C726.665 69.3405 727.117 69.4445 727.501 69.6525C727.893 69.8525 728.205 70.1045 728.437 70.4085V69.4485H729.817V76.0605H728.437V75.0765C728.205 75.3885 727.889 75.6485 727.489 75.8565C727.089 76.0645 726.633 76.1685 726.121 76.1685C725.553 76.1685 725.033 76.0245 724.561 75.7365C724.089 75.4405 723.713 75.0325 723.433 74.5125C723.161 73.9845 723.025 73.3885 723.025 72.7245ZM728.437 72.7485C728.437 72.2925 728.341 71.8965 728.149 71.5605C727.965 71.2245 727.721 70.9685 727.417 70.7925C727.113 70.6165 726.785 70.5285 726.433 70.5285C726.081 70.5285 725.753 70.6165 725.449 70.7925C725.145 70.9605 724.897 71.2125 724.705 71.5485C724.521 71.8765 724.429 72.2685 724.429 72.7245C724.429 73.1805 724.521 73.5805 724.705 73.9245C724.897 74.2685 725.145 74.5325 725.449 74.7165C725.761 74.8925 726.089 74.9805 726.433 74.9805C726.785 74.9805 727.113 74.8925 727.417 74.7165C727.721 74.5405 727.965 74.2845 728.149 73.9485C728.341 73.6045 728.437 73.2045 728.437 72.7485ZM733.21 70.5645V74.2245C733.21 74.4725 733.266 74.6525 733.378 74.7645C733.498 74.8685 733.698 74.9205 733.978 74.9205H734.818V76.0605H733.738C733.122 76.0605 732.65 75.9165 732.322 75.6285C731.994 75.3405 731.83 74.8725 731.83 74.2245V70.5645H731.05V69.4485H731.83V67.8045H733.21V69.4485H734.818V70.5645H733.21ZM742.139 72.5925C742.139 72.8405 742.123 73.0645 742.091 73.2645H737.039C737.079 73.7925 737.275 74.2165 737.627 74.5365C737.979 74.8565 738.411 75.0165 738.923 75.0165C739.659 75.0165 740.179 74.7085 740.483 74.0925H741.959C741.759 74.7005 741.395 75.2005 740.867 75.5925C740.347 75.9765 739.699 76.1685 738.923 76.1685C738.291 76.1685 737.723 76.0285 737.219 75.7485C736.723 75.4605 736.331 75.0605 736.043 74.5485C735.763 74.0285 735.623 73.4285 735.623 72.7485C735.623 72.0685 735.759 71.4725 736.031 70.9605C736.311 70.4405 736.699 70.0405 737.195 69.7605C737.699 69.4805 738.275 69.3405 738.923 69.3405C739.547 69.3405 740.103 69.4765 740.591 69.7485C741.079 70.0205 741.459 70.4045 741.731 70.9005C742.003 71.3885 742.139 71.9525 742.139 72.5925ZM740.711 72.1605C740.703 71.6565 740.523 71.2525 740.171 70.9485C739.819 70.6445 739.383 70.4925 738.863 70.4925C738.391 70.4925 737.987 70.6445 737.651 70.9485C737.315 71.2445 737.115 71.6485 737.051 72.1605H740.711ZM622.516 85.7205V86.8365H620.296V94.0605H618.928V86.8365H616.696V85.7205H622.516ZM626.769 94.1685C626.145 94.1685 625.581 94.0285 625.077 93.7485C624.573 93.4605 624.177 93.0605 623.889 92.5485C623.601 92.0285 623.457 91.4285 623.457 90.7485C623.457 90.0765 623.605 89.4805 623.901 88.9605C624.197 88.4405 624.601 88.0405 625.113 87.7605C625.625 87.4805 626.197 87.3405 626.829 87.3405C627.461 87.3405 628.033 87.4805 628.545 87.7605C629.057 88.0405 629.461 88.4405 629.757 88.9605C630.053 89.4805 630.201 90.0765 630.201 90.7485C630.201 91.4205 630.049 92.0165 629.745 92.5365C629.441 93.0565 629.025 93.4605 628.497 93.7485C627.977 94.0285 627.401 94.1685 626.769 94.1685ZM626.769 92.9805C627.121 92.9805 627.449 92.8965 627.753 92.7285C628.065 92.5605 628.317 92.3085 628.509 91.9725C628.701 91.6365 628.797 91.2285 628.797 90.7485C628.797 90.2685 628.705 89.8645 628.521 89.5365C628.337 89.2005 628.093 88.9485 627.789 88.7805C627.485 88.6125 627.157 88.5285 626.805 88.5285C626.453 88.5285 626.125 88.6125 625.821 88.7805C625.525 88.9485 625.289 89.2005 625.113 89.5365C624.937 89.8645 624.849 90.2685 624.849 90.7485C624.849 91.4605 625.029 92.0125 625.389 92.4045C625.757 92.7885 626.217 92.9805 626.769 92.9805ZM632.922 88.4205C633.154 88.1165 633.47 87.8605 633.87 87.6525C634.27 87.4445 634.722 87.3405 635.226 87.3405C635.802 87.3405 636.326 87.4845 636.798 87.7725C637.278 88.0525 637.654 88.4485 637.926 88.9605C638.198 89.4725 638.334 90.0605 638.334 90.7245C638.334 91.3885 638.198 91.9845 637.926 92.5125C637.654 93.0325 637.278 93.4405 636.798 93.7365C636.326 94.0245 635.802 94.1685 635.226 94.1685C634.722 94.1685 634.274 94.0685 633.882 93.8685C633.49 93.6605 633.17 93.4045 632.922 93.1005V97.2045H631.554V87.4485H632.922V88.4205ZM636.942 90.7245C636.942 90.2685 636.846 89.8765 636.654 89.5485C636.47 89.2125 636.222 88.9605 635.91 88.7925C635.606 88.6165 635.278 88.5285 634.926 88.5285C634.582 88.5285 634.254 88.6165 633.942 88.7925C633.638 88.9685 633.39 89.2245 633.198 89.5605C633.014 89.8965 632.922 90.2925 632.922 90.7485C632.922 91.2045 633.014 91.6045 633.198 91.9485C633.39 92.2845 633.638 92.5405 633.942 92.7165C634.254 92.8925 634.582 92.9805 634.926 92.9805C635.278 92.9805 635.606 92.8925 635.91 92.7165C636.222 92.5325 636.47 92.2685 636.654 91.9245C636.846 91.5805 636.942 91.1805 636.942 90.7245ZM640.382 86.5725C640.134 86.5725 639.926 86.4885 639.758 86.3205C639.59 86.1525 639.506 85.9445 639.506 85.6965C639.506 85.4485 639.59 85.2405 639.758 85.0725C639.926 84.9045 640.134 84.8205 640.382 84.8205C640.622 84.8205 640.826 84.9045 640.994 85.0725C641.162 85.2405 641.246 85.4485 641.246 85.6965C641.246 85.9445 641.162 86.1525 640.994 86.3205C640.826 86.4885 640.622 86.5725 640.382 86.5725ZM641.054 87.4485V94.0605H639.686V87.4485H641.054ZM642.394 90.7485C642.394 90.0685 642.53 89.4725 642.802 88.9605C643.082 88.4405 643.466 88.0405 643.954 87.7605C644.442 87.4805 645.002 87.3405 645.634 87.3405C646.434 87.3405 647.094 87.5325 647.614 87.9165C648.142 88.2925 648.498 88.8325 648.682 89.5365H647.206C647.086 89.2085 646.894 88.9525 646.63 88.7685C646.366 88.5845 646.034 88.4925 645.634 88.4925C645.074 88.4925 644.626 88.6925 644.29 89.0925C643.962 89.4845 643.798 90.0365 643.798 90.7485C643.798 91.4605 643.962 92.0165 644.29 92.4165C644.626 92.8165 645.074 93.0165 645.634 93.0165C646.426 93.0165 646.95 92.6685 647.206 91.9725H648.682C648.49 92.6445 648.13 93.1805 647.602 93.5805C647.074 93.9725 646.418 94.1685 645.634 94.1685C645.002 94.1685 644.442 94.0285 643.954 93.7485C643.466 93.4605 643.082 93.0605 642.802 92.5485C642.53 92.0285 642.394 91.4285 642.394 90.7485ZM652.446 94.1685C651.926 94.1685 651.458 94.0765 651.042 93.8925C650.634 93.7005 650.31 93.4445 650.07 93.1245C649.83 92.7965 649.702 92.4325 649.686 92.0325H651.102C651.126 92.3125 651.258 92.5485 651.498 92.7405C651.746 92.9245 652.054 93.0165 652.422 93.0165C652.806 93.0165 653.102 92.9445 653.31 92.8005C653.526 92.6485 653.634 92.4565 653.634 92.2245C653.634 91.9765 653.514 91.7925 653.274 91.6725C653.042 91.5525 652.67 91.4205 652.158 91.2765C651.662 91.1405 651.258 91.0085 650.946 90.8805C650.634 90.7525 650.362 90.5565 650.13 90.2925C649.906 90.0285 649.794 89.6805 649.794 89.2485C649.794 88.8965 649.898 88.5765 650.106 88.2885C650.314 87.9925 650.61 87.7605 650.994 87.5925C651.386 87.4245 651.834 87.3405 652.338 87.3405C653.09 87.3405 653.694 87.5325 654.15 87.9165C654.614 88.2925 654.862 88.8085 654.894 89.4645H653.526C653.502 89.1685 653.382 88.9325 653.166 88.7565C652.95 88.5805 652.658 88.4925 652.29 88.4925C651.93 88.4925 651.654 88.5605 651.462 88.6965C651.27 88.8325 651.174 89.0125 651.174 89.2365C651.174 89.4125 651.238 89.5605 651.366 89.6805C651.494 89.8005 651.65 89.8965 651.834 89.9685C652.018 90.0325 652.29 90.1165 652.65 90.2205C653.13 90.3485 653.522 90.4805 653.826 90.6165C654.138 90.7445 654.406 90.9365 654.63 91.1925C654.854 91.4485 654.97 91.7885 654.978 92.2125C654.978 92.5885 654.874 92.9245 654.666 93.2205C654.458 93.5165 654.162 93.7485 653.778 93.9165C653.402 94.0845 652.958 94.1685 652.446 94.1685ZM665.609 88.1205C665.393 87.7045 665.093 87.3925 664.709 87.1845C664.325 86.9685 663.881 86.8605 663.377 86.8605C662.825 86.8605 662.333 86.9845 661.901 87.2325C661.469 87.4805 661.129 87.8325 660.881 88.2885C660.641 88.7445 660.521 89.2725 660.521 89.8725C660.521 90.4725 660.641 91.0045 660.881 91.4685C661.129 91.9245 661.469 92.2765 661.901 92.5245C662.333 92.7725 662.825 92.8965 663.377 92.8965C664.121 92.8965 664.725 92.6885 665.189 92.2725C665.653 91.8565 665.937 91.2925 666.041 90.5805H662.909V89.4885H667.505V90.5565C667.417 91.2045 667.185 91.8005 666.809 92.3445C666.441 92.8885 665.957 93.3245 665.357 93.6525C664.765 93.9725 664.105 94.1325 663.377 94.1325C662.593 94.1325 661.877 93.9525 661.229 93.5925C660.581 93.2245 660.065 92.7165 659.681 92.0685C659.305 91.4205 659.117 90.6885 659.117 89.8725C659.117 89.0565 659.305 88.3245 659.681 87.6765C660.065 87.0285 660.581 86.5245 661.229 86.1645C661.885 85.7965 662.601 85.6125 663.377 85.6125C664.265 85.6125 665.053 85.8325 665.741 86.2725C666.437 86.7045 666.941 87.3205 667.253 88.1205H665.609ZM674.914 90.5925C674.914 90.8405 674.898 91.0645 674.866 91.2645H669.814C669.854 91.7925 670.05 92.2165 670.402 92.5365C670.754 92.8565 671.186 93.0165 671.698 93.0165C672.434 93.0165 672.954 92.7085 673.258 92.0925H674.734C674.534 92.7005 674.17 93.2005 673.642 93.5925C673.122 93.9765 672.474 94.1685 671.698 94.1685C671.066 94.1685 670.498 94.0285 669.994 93.7485C669.498 93.4605 669.106 93.0605 668.818 92.5485C668.538 92.0285 668.398 91.4285 668.398 90.7485C668.398 90.0685 668.534 89.4725 668.806 88.9605C669.086 88.4405 669.474 88.0405 669.97 87.7605C670.474 87.4805 671.05 87.3405 671.698 87.3405C672.322 87.3405 672.878 87.4765 673.366 87.7485C673.854 88.0205 674.234 88.4045 674.506 88.9005C674.778 89.3885 674.914 89.9525 674.914 90.5925ZM673.486 90.1605C673.478 89.6565 673.298 89.2525 672.946 88.9485C672.594 88.6445 672.158 88.4925 671.638 88.4925C671.166 88.4925 670.762 88.6445 670.426 88.9485C670.09 89.2445 669.89 89.6485 669.826 90.1605H673.486ZM679.597 87.3405C680.117 87.3405 680.581 87.4485 680.989 87.6645C681.405 87.8805 681.729 88.2005 681.961 88.6245C682.193 89.0485 682.309 89.5605 682.309 90.1605V94.0605H680.953V90.3645C680.953 89.7725 680.805 89.3205 680.509 89.0085C680.213 88.6885 679.809 88.5285 679.297 88.5285C678.785 88.5285 678.377 88.6885 678.073 89.0085C677.777 89.3205 677.629 89.7725 677.629 90.3645V94.0605H676.261V87.4485H677.629V88.2045C677.853 87.9325 678.137 87.7205 678.481 87.5685C678.833 87.4165 679.205 87.3405 679.597 87.3405ZM690.114 90.5925C690.114 90.8405 690.098 91.0645 690.066 91.2645H685.014C685.054 91.7925 685.25 92.2165 685.602 92.5365C685.954 92.8565 686.386 93.0165 686.898 93.0165C687.634 93.0165 688.154 92.7085 688.458 92.0925H689.934C689.734 92.7005 689.37 93.2005 688.842 93.5925C688.322 93.9765 687.674 94.1685 686.898 94.1685C686.266 94.1685 685.698 94.0285 685.194 93.7485C684.698 93.4605 684.306 93.0605 684.018 92.5485C683.738 92.0285 683.598 91.4285 683.598 90.7485C683.598 90.0685 683.734 89.4725 684.006 88.9605C684.286 88.4405 684.674 88.0405 685.17 87.7605C685.674 87.4805 686.25 87.3405 686.898 87.3405C687.522 87.3405 688.078 87.4765 688.566 87.7485C689.054 88.0205 689.434 88.4045 689.706 88.9005C689.978 89.3885 690.114 89.9525 690.114 90.5925ZM688.686 90.1605C688.678 89.6565 688.498 89.2525 688.146 88.9485C687.794 88.6445 687.358 88.4925 686.838 88.4925C686.366 88.4925 685.962 88.6445 685.626 88.9485C685.29 89.2445 685.09 89.6485 685.026 90.1605H688.686ZM692.828 88.4085C693.028 88.0725 693.292 87.8125 693.62 87.6285C693.956 87.4365 694.352 87.3405 694.808 87.3405V88.7565H694.46C693.924 88.7565 693.516 88.8925 693.236 89.1645C692.964 89.4365 692.828 89.9085 692.828 90.5805V94.0605H691.46V87.4485H692.828V88.4085ZM695.609 90.7245C695.609 90.0605 695.745 89.4725 696.017 88.9605C696.297 88.4485 696.673 88.0525 697.145 87.7725C697.625 87.4845 698.153 87.3405 698.729 87.3405C699.249 87.3405 699.701 87.4445 700.085 87.6525C700.477 87.8525 700.789 88.1045 701.021 88.4085V87.4485H702.401V94.0605H701.021V93.0765C700.789 93.3885 700.473 93.6485 700.073 93.8565C699.673 94.0645 699.217 94.1685 698.705 94.1685C698.137 94.1685 697.617 94.0245 697.145 93.7365C696.673 93.4405 696.297 93.0325 696.017 92.5125C695.745 91.9845 695.609 91.3885 695.609 90.7245ZM701.021 90.7485C701.021 90.2925 700.925 89.8965 700.733 89.5605C700.549 89.2245 700.305 88.9685 700.001 88.7925C699.697 88.6165 699.369 88.5285 699.017 88.5285C698.665 88.5285 698.337 88.6165 698.033 88.7925C697.729 88.9605 697.481 89.2125 697.289 89.5485C697.105 89.8765 697.013 90.2685 697.013 90.7245C697.013 91.1805 697.105 91.5805 697.289 91.9245C697.481 92.2685 697.729 92.5325 698.033 92.7165C698.345 92.8925 698.673 92.9805 699.017 92.9805C699.369 92.9805 699.697 92.8925 700.001 92.7165C700.305 92.5405 700.549 92.2845 700.733 91.9485C700.925 91.6045 701.021 91.2045 701.021 90.7485ZM705.794 88.5645V92.2245C705.794 92.4725 705.85 92.6525 705.962 92.7645C706.082 92.8685 706.282 92.9205 706.562 92.9205H707.402V94.0605H706.322C705.706 94.0605 705.234 93.9165 704.906 93.6285C704.578 93.3405 704.414 92.8725 704.414 92.2245V88.5645H703.634V87.4485H704.414V85.8045H705.794V87.4485H707.402V88.5645H705.794ZM709.359 86.5725C709.111 86.5725 708.903 86.4885 708.735 86.3205C708.567 86.1525 708.483 85.9445 708.483 85.6965C708.483 85.4485 708.567 85.2405 708.735 85.0725C708.903 84.9045 709.111 84.8205 709.359 84.8205C709.599 84.8205 709.803 84.9045 709.971 85.0725C710.139 85.2405 710.223 85.4485 710.223 85.6965C710.223 85.9445 710.139 86.1525 709.971 86.3205C709.803 86.4885 709.599 86.5725 709.359 86.5725ZM710.031 87.4485V94.0605H708.663V87.4485H710.031ZM714.695 94.1685C714.071 94.1685 713.507 94.0285 713.003 93.7485C712.499 93.4605 712.103 93.0605 711.815 92.5485C711.527 92.0285 711.383 91.4285 711.383 90.7485C711.383 90.0765 711.531 89.4805 711.827 88.9605C712.123 88.4405 712.527 88.0405 713.039 87.7605C713.551 87.4805 714.123 87.3405 714.755 87.3405C715.387 87.3405 715.959 87.4805 716.471 87.7605C716.983 88.0405 717.387 88.4405 717.683 88.9605C717.979 89.4805 718.127 90.0765 718.127 90.7485C718.127 91.4205 717.975 92.0165 717.671 92.5365C717.367 93.0565 716.951 93.4605 716.423 93.7485C715.903 94.0285 715.327 94.1685 714.695 94.1685ZM714.695 92.9805C715.047 92.9805 715.375 92.8965 715.679 92.7285C715.991 92.5605 716.243 92.3085 716.435 91.9725C716.627 91.6365 716.723 91.2285 716.723 90.7485C716.723 90.2685 716.631 89.8645 716.447 89.5365C716.263 89.2005 716.019 88.9485 715.715 88.7805C715.411 88.6125 715.083 88.5285 714.731 88.5285C714.379 88.5285 714.051 88.6125 713.747 88.7805C713.451 88.9485 713.215 89.2005 713.039 89.5365C712.863 89.8645 712.775 90.2685 712.775 90.7485C712.775 91.4605 712.955 92.0125 713.315 92.4045C713.683 92.7885 714.143 92.9805 714.695 92.9805ZM722.815 87.3405C723.335 87.3405 723.799 87.4485 724.207 87.6645C724.623 87.8805 724.947 88.2005 725.179 88.6245C725.411 89.0485 725.527 89.5605 725.527 90.1605V94.0605H724.171V90.3645C724.171 89.7725 724.023 89.3205 723.727 89.0085C723.431 88.6885 723.027 88.5285 722.515 88.5285C722.003 88.5285 721.595 88.6885 721.291 89.0085C720.995 89.3205 720.847 89.7725 720.847 90.3645V94.0605H719.479V87.4485H720.847V88.2045C721.071 87.9325 721.355 87.7205 721.699 87.5685C722.051 87.4165 722.423 87.3405 722.815 87.3405Z" fill="white"/>
<circle cx="772.356" cy="18.9069" r="5.15639" fill="white"/>
<circle cx="954.156" cy="18.9069" r="5.15639" fill="white"/>
<line x1="767.2" y1="18.477" x2="959" y2="18.477" stroke="white" stroke-width="0.859399"/>
<rect x="824.35" width="77.5008" height="34.4692" rx="17.2346" fill="white"/>
<path d="M840.577 19.4945H843.146V20.7346H839.012V12.9364H840.577V19.4945ZM843.953 17.6176C843.953 16.9919 844.076 16.4371 844.322 15.9529C844.575 15.4688 844.914 15.0964 845.338 14.8357C845.77 14.575 846.251 14.4447 846.78 14.4447C847.241 14.4447 847.644 14.5378 847.986 14.724C848.336 14.9102 848.616 15.1448 848.824 15.4278V14.5452H850.399V20.7346H848.824V19.8297C848.623 20.1201 848.344 20.3622 847.986 20.5559C847.636 20.7421 847.23 20.8352 846.768 20.8352C846.247 20.8352 845.77 20.7011 845.338 20.433C844.914 20.1648 844.575 19.7887 844.322 19.3046C844.076 18.813 843.953 18.2507 843.953 17.6176ZM848.824 17.6399C848.824 17.2601 848.75 16.9361 848.601 16.6679C848.452 16.3924 848.251 16.1838 847.997 16.0423C847.744 15.8933 847.472 15.8189 847.182 15.8189C846.891 15.8189 846.623 15.8896 846.377 16.0311C846.132 16.1726 845.93 16.3812 845.774 16.6568C845.625 16.9249 845.551 17.2452 845.551 17.6176C845.551 17.99 845.625 18.3177 845.774 18.6007C845.93 18.8763 846.132 19.0886 846.377 19.2375C846.631 19.3865 846.899 19.461 847.182 19.461C847.472 19.461 847.744 19.3902 847.997 19.2487C848.251 19.0998 848.452 18.8912 848.601 18.6231C848.75 18.3475 848.824 18.0198 848.824 17.6399ZM853.963 15.83V18.8242C853.963 19.0327 854.011 19.1854 854.108 19.2822C854.212 19.3716 854.384 19.4163 854.622 19.4163H855.348V20.7346H854.365C853.047 20.7346 852.388 20.0941 852.388 18.813V15.83H851.65V14.5452H852.388V13.0146H853.963V14.5452H855.348V15.83H853.963ZM862.442 17.5059C862.442 17.7293 862.427 17.9304 862.397 18.1092H857.872C857.91 18.556 858.066 18.9061 858.342 19.1593C858.617 19.4126 858.956 19.5392 859.358 19.5392C859.939 19.5392 860.353 19.2897 860.598 18.7907H862.285C862.107 19.3865 861.764 19.8781 861.258 20.2654C860.751 20.6452 860.129 20.8352 859.392 20.8352C858.796 20.8352 858.26 20.7048 857.783 20.4441C857.314 20.176 856.945 19.7999 856.677 19.3158C856.416 18.8316 856.286 18.273 856.286 17.6399C856.286 16.9994 856.416 16.4371 856.677 15.9529C856.938 15.4688 857.303 15.0964 857.772 14.8357C858.241 14.575 858.781 14.4447 859.392 14.4447C859.98 14.4447 860.505 14.5713 860.967 14.8245C861.436 15.0778 861.797 15.439 862.051 15.9082C862.311 16.37 862.442 16.9026 862.442 17.5059ZM860.822 17.059C860.814 16.6568 860.669 16.3365 860.386 16.0982C860.103 15.8524 859.757 15.7295 859.347 15.7295C858.96 15.7295 858.632 15.8487 858.364 16.087C858.103 16.3179 857.943 16.6419 857.884 17.059H860.822ZM869.401 12.9364C870.221 12.9364 870.939 13.0966 871.557 13.4168C872.183 13.7371 872.664 14.1952 872.999 14.791C873.341 15.3794 873.513 16.0646 873.513 16.8467C873.513 17.6288 873.341 18.314 872.999 18.9024C872.664 19.4833 872.183 19.9339 871.557 20.2542C870.939 20.5745 870.221 20.7346 869.401 20.7346H866.675V12.9364H869.401ZM869.345 19.4051C870.165 19.4051 870.798 19.1817 871.245 18.7348C871.692 18.2879 871.915 17.6585 871.915 16.8467C871.915 16.0349 871.692 15.4018 871.245 14.9474C870.798 14.4856 870.165 14.2548 869.345 14.2548H868.239V19.4051H869.345ZM880.652 17.5059C880.652 17.7293 880.637 17.9304 880.607 18.1092H876.083C876.12 18.556 876.276 18.9061 876.552 19.1593C876.827 19.4126 877.166 19.5392 877.568 19.5392C878.149 19.5392 878.563 19.2897 878.809 18.7907H880.496C880.317 19.3865 879.974 19.8781 879.468 20.2654C878.961 20.6452 878.339 20.8352 877.602 20.8352C877.006 20.8352 876.47 20.7048 875.993 20.4441C875.524 20.176 875.155 19.7999 874.887 19.3158C874.626 18.8316 874.496 18.273 874.496 17.6399C874.496 16.9994 874.626 16.4371 874.887 15.9529C875.148 15.4688 875.513 15.0964 875.982 14.8357C876.451 14.575 876.991 14.4447 877.602 14.4447C878.19 14.4447 878.715 14.5713 879.177 14.8245C879.646 15.0778 880.008 15.439 880.261 15.9082C880.522 16.37 880.652 16.9026 880.652 17.5059ZM879.032 17.059C879.025 16.6568 878.879 16.3365 878.596 16.0982C878.313 15.8524 877.967 15.7295 877.557 15.7295C877.17 15.7295 876.842 15.8487 876.574 16.087C876.313 16.3179 876.153 16.6419 876.094 17.059H879.032ZM881.606 17.6399C881.606 16.9994 881.737 16.4408 881.997 15.9641C882.258 15.48 882.619 15.1076 883.081 14.8469C883.543 14.5787 884.072 14.4447 884.667 14.4447C885.435 14.4447 886.068 14.6383 886.567 15.0256C887.073 15.4055 887.412 15.9418 887.583 16.6344H885.896C885.807 16.3663 885.654 16.1577 885.438 16.0088C885.23 15.8524 884.969 15.7742 884.656 15.7742C884.209 15.7742 883.856 15.938 883.595 16.2657C883.334 16.586 883.204 17.0441 883.204 17.6399C883.204 18.2283 883.334 18.6864 883.595 19.0141C883.856 19.3344 884.209 19.4945 884.656 19.4945C885.289 19.4945 885.703 19.2115 885.896 18.6454H887.583C887.412 19.3158 887.073 19.8483 886.567 20.243C886.06 20.6378 885.427 20.8352 884.667 20.8352C884.072 20.8352 883.543 20.7048 883.081 20.4441C882.619 20.176 882.258 19.8036 881.997 19.3269C881.737 18.8428 881.606 18.2805 881.606 17.6399Z" fill="#393858"/>
<path d="M820.767 67.7205V68.8365H818.547V76.0605H817.179V68.8365H814.947V67.7205H820.767ZM828.212 72.5925C828.212 72.8405 828.196 73.0645 828.164 73.2645H823.112C823.152 73.7925 823.348 74.2165 823.7 74.5365C824.052 74.8565 824.484 75.0165 824.996 75.0165C825.732 75.0165 826.252 74.7085 826.556 74.0925H828.032C827.832 74.7005 827.468 75.2005 826.94 75.5925C826.42 75.9765 825.772 76.1685 824.996 76.1685C824.364 76.1685 823.796 76.0285 823.292 75.7485C822.796 75.4605 822.404 75.0605 822.116 74.5485C821.836 74.0285 821.696 73.4285 821.696 72.7485C821.696 72.0685 821.832 71.4725 822.104 70.9605C822.384 70.4405 822.772 70.0405 823.268 69.7605C823.772 69.4805 824.348 69.3405 824.996 69.3405C825.62 69.3405 826.176 69.4765 826.664 69.7485C827.152 70.0205 827.532 70.4045 827.804 70.9005C828.076 71.3885 828.212 71.9525 828.212 72.5925ZM826.784 72.1605C826.776 71.6565 826.596 71.2525 826.244 70.9485C825.892 70.6445 825.456 70.4925 824.936 70.4925C824.464 70.4925 824.06 70.6445 823.724 70.9485C823.388 71.2445 823.188 71.6485 823.124 72.1605H826.784ZM829.103 72.7245C829.103 72.0605 829.239 71.4725 829.511 70.9605C829.791 70.4485 830.167 70.0525 830.639 69.7725C831.119 69.4845 831.647 69.3405 832.223 69.3405C832.743 69.3405 833.195 69.4445 833.579 69.6525C833.971 69.8525 834.283 70.1045 834.515 70.4085V69.4485H835.895V76.0605H834.515V75.0765C834.283 75.3885 833.967 75.6485 833.567 75.8565C833.167 76.0645 832.711 76.1685 832.199 76.1685C831.631 76.1685 831.111 76.0245 830.639 75.7365C830.167 75.4405 829.791 75.0325 829.511 74.5125C829.239 73.9845 829.103 73.3885 829.103 72.7245ZM834.515 72.7485C834.515 72.2925 834.419 71.8965 834.227 71.5605C834.043 71.2245 833.799 70.9685 833.495 70.7925C833.191 70.6165 832.863 70.5285 832.511 70.5285C832.159 70.5285 831.831 70.6165 831.527 70.7925C831.223 70.9605 830.975 71.2125 830.783 71.5485C830.599 71.8765 830.507 72.2685 830.507 72.7245C830.507 73.1805 830.599 73.5805 830.783 73.9245C830.975 74.2685 831.223 74.5325 831.527 74.7165C831.839 74.8925 832.167 74.9805 832.511 74.9805C832.863 74.9805 833.191 74.8925 833.495 74.7165C833.799 74.5405 834.043 74.2845 834.227 73.9485C834.419 73.6045 834.515 73.2045 834.515 72.7485ZM845.695 69.3405C846.215 69.3405 846.679 69.4485 847.087 69.6645C847.503 69.8805 847.827 70.2005 848.059 70.6245C848.299 71.0485 848.419 71.5605 848.419 72.1605V76.0605H847.063V72.3645C847.063 71.7725 846.915 71.3205 846.619 71.0085C846.323 70.6885 845.919 70.5285 845.407 70.5285C844.895 70.5285 844.487 70.6885 844.183 71.0085C843.887 71.3205 843.739 71.7725 843.739 72.3645V76.0605H842.383V72.3645C842.383 71.7725 842.235 71.3205 841.939 71.0085C841.643 70.6885 841.239 70.5285 840.727 70.5285C840.215 70.5285 839.807 70.6885 839.503 71.0085C839.207 71.3205 839.059 71.7725 839.059 72.3645V76.0605H837.691V69.4485H839.059V70.2045C839.283 69.9325 839.567 69.7205 839.911 69.5685C840.255 69.4165 840.623 69.3405 841.015 69.3405C841.543 69.3405 842.015 69.4525 842.431 69.6765C842.847 69.9005 843.167 70.2245 843.391 70.6485C843.591 70.2485 843.903 69.9325 844.327 69.7005C844.751 69.4605 845.207 69.3405 845.695 69.3405ZM858.305 74.3565H854.813L854.213 76.0605H852.785L855.773 67.7085H857.357L860.345 76.0605H858.905L858.305 74.3565ZM857.921 73.2405L856.565 69.3645L855.197 73.2405H857.921ZM864.044 76.1685C863.524 76.1685 863.056 76.0765 862.64 75.8925C862.232 75.7005 861.908 75.4445 861.668 75.1245C861.428 74.7965 861.3 74.4325 861.284 74.0325H862.7C862.724 74.3125 862.856 74.5485 863.096 74.7405C863.344 74.9245 863.652 75.0165 864.02 75.0165C864.404 75.0165 864.7 74.9445 864.908 74.8005C865.124 74.6485 865.232 74.4565 865.232 74.2245C865.232 73.9765 865.112 73.7925 864.872 73.6725C864.64 73.5525 864.268 73.4205 863.756 73.2765C863.26 73.1405 862.856 73.0085 862.544 72.8805C862.232 72.7525 861.96 72.5565 861.728 72.2925C861.504 72.0285 861.392 71.6805 861.392 71.2485C861.392 70.8965 861.496 70.5765 861.704 70.2885C861.912 69.9925 862.208 69.7605 862.592 69.5925C862.984 69.4245 863.432 69.3405 863.936 69.3405C864.688 69.3405 865.292 69.5325 865.748 69.9165C866.212 70.2925 866.46 70.8085 866.492 71.4645H865.124C865.1 71.1685 864.98 70.9325 864.764 70.7565C864.548 70.5805 864.256 70.4925 863.888 70.4925C863.528 70.4925 863.252 70.5605 863.06 70.6965C862.868 70.8325 862.772 71.0125 862.772 71.2365C862.772 71.4125 862.836 71.5605 862.964 71.6805C863.092 71.8005 863.248 71.8965 863.432 71.9685C863.616 72.0325 863.888 72.1165 864.248 72.2205C864.728 72.3485 865.12 72.4805 865.424 72.6165C865.736 72.7445 866.004 72.9365 866.228 73.1925C866.452 73.4485 866.568 73.7885 866.576 74.2125C866.576 74.5885 866.472 74.9245 866.264 75.2205C866.056 75.5165 865.76 75.7485 865.376 75.9165C865 76.0845 864.556 76.1685 864.044 76.1685ZM870.455 76.1685C869.935 76.1685 869.467 76.0765 869.051 75.8925C868.643 75.7005 868.319 75.4445 868.079 75.1245C867.839 74.7965 867.711 74.4325 867.695 74.0325H869.111C869.135 74.3125 869.267 74.5485 869.507 74.7405C869.755 74.9245 870.063 75.0165 870.431 75.0165C870.815 75.0165 871.111 74.9445 871.319 74.8005C871.535 74.6485 871.643 74.4565 871.643 74.2245C871.643 73.9765 871.523 73.7925 871.283 73.6725C871.051 73.5525 870.679 73.4205 870.167 73.2765C869.671 73.1405 869.267 73.0085 868.955 72.8805C868.643 72.7525 868.371 72.5565 868.139 72.2925C867.915 72.0285 867.803 71.6805 867.803 71.2485C867.803 70.8965 867.907 70.5765 868.115 70.2885C868.323 69.9925 868.619 69.7605 869.003 69.5925C869.395 69.4245 869.843 69.3405 870.347 69.3405C871.099 69.3405 871.703 69.5325 872.159 69.9165C872.623 70.2925 872.871 70.8085 872.903 71.4645H871.535C871.511 71.1685 871.391 70.9325 871.175 70.7565C870.959 70.5805 870.667 70.4925 870.299 70.4925C869.939 70.4925 869.663 70.5605 869.471 70.6965C869.279 70.8325 869.183 71.0125 869.183 71.2365C869.183 71.4125 869.247 71.5605 869.375 71.6805C869.503 71.8005 869.659 71.8965 869.843 71.9685C870.027 72.0325 870.299 72.1165 870.659 72.2205C871.139 72.3485 871.531 72.4805 871.835 72.6165C872.147 72.7445 872.415 72.9365 872.639 73.1925C872.863 73.4485 872.979 73.7885 872.987 74.2125C872.987 74.5885 872.883 74.9245 872.675 75.2205C872.467 75.5165 872.171 75.7485 871.787 75.9165C871.411 76.0845 870.967 76.1685 870.455 76.1685ZM880.525 72.5925C880.525 72.8405 880.509 73.0645 880.477 73.2645H875.425C875.465 73.7925 875.661 74.2165 876.013 74.5365C876.365 74.8565 876.797 75.0165 877.309 75.0165C878.045 75.0165 878.565 74.7085 878.869 74.0925H880.345C880.145 74.7005 879.781 75.2005 879.253 75.5925C878.733 75.9765 878.085 76.1685 877.309 76.1685C876.677 76.1685 876.109 76.0285 875.605 75.7485C875.109 75.4605 874.717 75.0605 874.429 74.5485C874.149 74.0285 874.009 73.4285 874.009 72.7485C874.009 72.0685 874.145 71.4725 874.417 70.9605C874.697 70.4405 875.085 70.0405 875.581 69.7605C876.085 69.4805 876.661 69.3405 877.309 69.3405C877.933 69.3405 878.489 69.4765 878.977 69.7485C879.465 70.0205 879.845 70.4045 880.117 70.9005C880.389 71.3885 880.525 71.9525 880.525 72.5925ZM879.097 72.1605C879.089 71.6565 878.909 71.2525 878.557 70.9485C878.205 70.6445 877.769 70.4925 877.249 70.4925C876.777 70.4925 876.373 70.6445 876.037 70.9485C875.701 71.2445 875.501 71.6485 875.437 72.1605H879.097ZM889.875 69.3405C890.395 69.3405 890.859 69.4485 891.267 69.6645C891.683 69.8805 892.007 70.2005 892.239 70.6245C892.479 71.0485 892.599 71.5605 892.599 72.1605V76.0605H891.243V72.3645C891.243 71.7725 891.095 71.3205 890.799 71.0085C890.503 70.6885 890.099 70.5285 889.587 70.5285C889.075 70.5285 888.667 70.6885 888.363 71.0085C888.067 71.3205 887.919 71.7725 887.919 72.3645V76.0605H886.563V72.3645C886.563 71.7725 886.415 71.3205 886.119 71.0085C885.823 70.6885 885.419 70.5285 884.907 70.5285C884.395 70.5285 883.987 70.6885 883.683 71.0085C883.387 71.3205 883.239 71.7725 883.239 72.3645V76.0605H881.871V69.4485H883.239V70.2045C883.463 69.9325 883.747 69.7205 884.091 69.5685C884.435 69.4165 884.803 69.3405 885.195 69.3405C885.723 69.3405 886.195 69.4525 886.611 69.6765C887.027 69.9005 887.347 70.2245 887.571 70.6485C887.771 70.2485 888.083 69.9325 888.507 69.7005C888.931 69.4605 889.387 69.3405 889.875 69.3405ZM895.708 70.4325C895.94 70.1125 896.256 69.8525 896.656 69.6525C897.064 69.4445 897.516 69.3405 898.012 69.3405C898.596 69.3405 899.124 69.4805 899.596 69.7605C900.068 70.0405 900.44 70.4405 900.712 70.9605C900.984 71.4725 901.12 72.0605 901.12 72.7245C901.12 73.3885 900.984 73.9845 900.712 74.5125C900.44 75.0325 900.064 75.4405 899.584 75.7365C899.112 76.0245 898.588 76.1685 898.012 76.1685C897.5 76.1685 897.044 76.0685 896.644 75.8685C896.252 75.6685 895.94 75.4125 895.708 75.1005V76.0605H894.34V67.1805H895.708V70.4325ZM899.728 72.7245C899.728 72.2685 899.632 71.8765 899.44 71.5485C899.256 71.2125 899.008 70.9605 898.696 70.7925C898.392 70.6165 898.064 70.5285 897.712 70.5285C897.368 70.5285 897.04 70.6165 896.728 70.7925C896.424 70.9685 896.176 71.2245 895.984 71.5605C895.8 71.8965 895.708 72.2925 895.708 72.7485C895.708 73.2045 895.8 73.6045 895.984 73.9485C896.176 74.2845 896.424 74.5405 896.728 74.7165C897.04 74.8925 897.368 74.9805 897.712 74.9805C898.064 74.9805 898.392 74.8925 898.696 74.7165C899.008 74.5325 899.256 74.2685 899.44 73.9245C899.632 73.5805 899.728 73.1805 899.728 72.7245ZM903.841 67.1805V76.0605H902.473V67.1805H903.841ZM911.589 69.4485L907.533 79.1685H906.117L907.461 75.9525L904.857 69.4485H906.381L908.241 74.4885L910.173 69.4485H911.589Z" fill="white"/>
</svg>
