<svg width="959" height="104" viewBox="0 0 959 104" fill="none" xmlns="http://www.w3.org/2000/svg">
<circle cx="5.15639" cy="18.9069" r="5.15639" fill="white"/>
<line y1="18.477" x2="191.8" y2="18.477" stroke="white" stroke-width="0.859399"/>
<rect x="50.1497" width="91.5008" height="34.4692" rx="17.2346" fill="white"/>
<path d="M65.1206 18.9694C65.8357 18.3736 66.4054 17.8783 66.83 17.4835C67.2545 17.0813 67.6083 16.6642 67.8913 16.2322C68.1744 15.8002 68.3159 15.3757 68.3159 14.9586C68.3159 14.5787 68.2265 14.2808 68.0477 14.0648C67.869 13.8488 67.5934 13.7408 67.221 13.7408C66.8486 13.7408 66.5618 13.8675 66.3607 14.1207C66.1597 14.3665 66.0554 14.7054 66.0479 15.1374H64.5285C64.5583 14.2436 64.8227 13.5658 65.3217 13.104C65.8282 12.6422 66.4687 12.4113 67.2434 12.4113C68.0924 12.4113 68.7441 12.6385 69.1985 13.0928C69.6528 13.5397 69.88 14.1319 69.88 14.8692C69.88 15.4502 69.7236 16.0051 69.4108 16.5339C69.0979 17.0627 68.7404 17.5245 68.3382 17.9192C67.936 18.3065 67.4109 18.7758 66.7629 19.3269H70.0587V20.6229H64.5397V19.461L65.1206 18.9694ZM75.4823 14.6234C75.4078 14.3106 75.2774 14.076 75.0912 13.9196C74.9125 13.7632 74.6518 13.685 74.3092 13.685C73.7953 13.685 73.4154 13.8935 73.1696 14.3106C72.9313 14.7203 72.8084 15.3906 72.8009 16.3216C72.9797 16.0237 73.2404 15.7928 73.583 15.6289C73.9256 15.4576 74.298 15.372 74.7002 15.372C75.1843 15.372 75.6126 15.4762 75.985 15.6848C76.3574 15.8933 76.6479 16.1987 76.8565 16.6009C77.065 16.9957 77.1693 17.4723 77.1693 18.031C77.1693 18.5598 77.0613 19.0327 76.8453 19.4498C76.6367 19.8595 76.3276 20.1797 75.918 20.4106C75.5083 20.6415 75.0205 20.757 74.4544 20.757C73.6798 20.757 73.0691 20.5857 72.6222 20.243C72.1828 19.9004 71.8737 19.4237 71.6949 18.813C71.5236 18.1948 71.4379 17.4351 71.4379 16.5339C71.4379 15.1709 71.6726 14.143 72.1418 13.4504C72.611 12.7502 73.3521 12.4002 74.3651 12.4002C75.1471 12.4002 75.7541 12.6124 76.1861 13.037C76.6181 13.4615 76.8676 13.9903 76.9347 14.6234H75.4823ZM74.3427 16.6568C73.948 16.6568 73.6165 16.7722 73.3484 17.0031C73.0803 17.234 72.9462 17.5692 72.9462 18.0086C72.9462 18.448 73.0691 18.7944 73.3149 19.0476C73.5681 19.3009 73.9219 19.4275 74.3762 19.4275C74.7784 19.4275 75.095 19.3046 75.3259 19.0588C75.5642 18.813 75.6834 18.4816 75.6834 18.0645C75.6834 17.6325 75.5679 17.2899 75.337 17.0366C75.1136 16.7834 74.7821 16.6568 74.3427 16.6568ZM83.5584 16.087V17.4053H78.8214V16.087H83.5584ZM85.8402 18.9694C86.5552 18.3736 87.125 17.8783 87.5495 17.4835C87.9741 17.0813 88.3279 16.6642 88.6109 16.2322C88.8939 15.8002 89.0354 15.3757 89.0354 14.9586C89.0354 14.5787 88.9461 14.2808 88.7673 14.0648C88.5886 13.8488 88.313 13.7408 87.9406 13.7408C87.5682 13.7408 87.2814 13.8675 87.0803 14.1207C86.8792 14.3665 86.7749 14.7054 86.7675 15.1374H85.2481C85.2779 14.2436 85.5423 13.5658 86.0413 13.104C86.5478 12.6422 87.1883 12.4113 87.9629 12.4113C88.812 12.4113 89.4637 12.6385 89.918 13.0928C90.3724 13.5397 90.5996 14.1319 90.5996 14.8692C90.5996 15.4502 90.4431 16.0051 90.1303 16.5339C89.8175 17.0627 89.46 17.5245 89.0578 17.9192C88.6556 18.3065 88.1305 18.7758 87.4825 19.3269H90.7783V20.6229H85.2592V19.461L85.8402 18.9694ZM97.1626 13.7743L94.1908 20.7346H92.6044L95.5985 13.9531H91.7777V12.6124H97.1626V13.7743ZM106.152 19.2487H103.046L102.532 20.7346H100.89L103.694 12.9253H105.515L108.319 20.7346H106.666L106.152 19.2487ZM105.727 17.9974L104.599 14.7352L103.47 17.9974H105.727ZM111.146 15.439C111.347 15.156 111.623 14.9214 111.973 14.7352C112.331 14.5415 112.736 14.4447 113.191 14.4447C113.72 14.4447 114.196 14.575 114.621 14.8357C115.053 15.0964 115.392 15.4688 115.637 15.9529C115.891 16.4296 116.017 16.9845 116.017 17.6176C116.017 18.2507 115.891 18.813 115.637 19.3046C115.392 19.7887 115.053 20.1648 114.621 20.433C114.196 20.7011 113.72 20.8352 113.191 20.8352C112.736 20.8352 112.334 20.7421 111.984 20.5559C111.642 20.3697 111.362 20.135 111.146 19.852V23.6841H109.582V14.5452H111.146V15.439ZM114.42 17.6176C114.42 17.2452 114.342 16.9249 114.185 16.6568C114.036 16.3812 113.835 16.1726 113.582 16.0311C113.336 15.8896 113.068 15.8189 112.777 15.8189C112.494 15.8189 112.226 15.8933 111.973 16.0423C111.727 16.1838 111.526 16.3924 111.37 16.6679C111.221 16.9435 111.146 17.2675 111.146 17.6399C111.146 18.0123 111.221 18.3363 111.37 18.6119C111.526 18.8875 111.727 19.0998 111.973 19.2487C112.226 19.3902 112.494 19.461 112.777 19.461C113.068 19.461 113.336 19.3865 113.582 19.2375C113.835 19.0886 114.036 18.8763 114.185 18.6007C114.342 18.3252 114.42 17.9974 114.42 17.6176ZM118.933 15.506C119.134 15.1783 119.395 14.9214 119.715 14.7352C120.043 14.549 120.415 14.4559 120.832 14.4559V16.0982H120.419C119.927 16.0982 119.555 16.2136 119.302 16.4445C119.056 16.6754 118.933 17.0776 118.933 17.6511V20.7346H117.369V14.5452H118.933V15.506ZM122.894 13.8079C122.618 13.8079 122.387 13.7222 122.201 13.5509C122.022 13.3722 121.933 13.1524 121.933 12.8917C121.933 12.6311 122.022 12.4151 122.201 12.2438C122.387 12.065 122.618 11.9756 122.894 11.9756C123.169 11.9756 123.396 12.065 123.575 12.2438C123.761 12.4151 123.855 12.6311 123.855 12.8917C123.855 13.1524 123.761 13.3722 123.575 13.5509C123.396 13.7222 123.169 13.8079 122.894 13.8079ZM123.665 14.5452V20.7346H122.101V14.5452H123.665ZM126.989 12.4672V20.7346H125.425V12.4672H126.989Z" fill="#393858"/>
<path d="M31.9044 68.8245V71.2725H34.7844V72.3885H31.9044V74.9445H35.1444V76.0605H30.5364V67.7085H35.1444V68.8245H31.9044ZM39.3854 74.8365L41.2574 69.4485H42.7094L40.1894 76.0605H38.5574L36.0494 69.4485H37.5134L39.3854 74.8365ZM49.8034 72.5925C49.8034 72.8405 49.7874 73.0645 49.7554 73.2645H44.7034C44.7434 73.7925 44.9394 74.2165 45.2914 74.5365C45.6434 74.8565 46.0754 75.0165 46.5874 75.0165C47.3234 75.0165 47.8434 74.7085 48.1474 74.0925H49.6234C49.4234 74.7005 49.0594 75.2005 48.5314 75.5925C48.0114 75.9765 47.3634 76.1685 46.5874 76.1685C45.9554 76.1685 45.3874 76.0285 44.8834 75.7485C44.3874 75.4605 43.9954 75.0605 43.7074 74.5485C43.4274 74.0285 43.2874 73.4285 43.2874 72.7485C43.2874 72.0685 43.4234 71.4725 43.6954 70.9605C43.9754 70.4405 44.3634 70.0405 44.8594 69.7605C45.3634 69.4805 45.9394 69.3405 46.5874 69.3405C47.2114 69.3405 47.7674 69.4765 48.2554 69.7485C48.7434 70.0205 49.1234 70.4045 49.3954 70.9005C49.6674 71.3885 49.8034 71.9525 49.8034 72.5925ZM48.3754 72.1605C48.3674 71.6565 48.1874 71.2525 47.8354 70.9485C47.4834 70.6445 47.0474 70.4925 46.5274 70.4925C46.0554 70.4925 45.6514 70.6445 45.3154 70.9485C44.9794 71.2445 44.7794 71.6485 44.7154 72.1605H48.3754ZM54.4857 69.3405C55.0057 69.3405 55.4697 69.4485 55.8777 69.6645C56.2937 69.8805 56.6177 70.2005 56.8497 70.6245C57.0817 71.0485 57.1977 71.5605 57.1977 72.1605V76.0605H55.8417V72.3645C55.8417 71.7725 55.6937 71.3205 55.3977 71.0085C55.1017 70.6885 54.6977 70.5285 54.1857 70.5285C53.6737 70.5285 53.2657 70.6885 52.9617 71.0085C52.6657 71.3205 52.5177 71.7725 52.5177 72.3645V76.0605H51.1497V69.4485H52.5177V70.2045C52.7417 69.9325 53.0257 69.7205 53.3697 69.5685C53.7217 69.4165 54.0937 69.3405 54.4857 69.3405ZM60.5387 70.5645V74.2245C60.5387 74.4725 60.5947 74.6525 60.7067 74.7645C60.8267 74.8685 61.0267 74.9205 61.3067 74.9205H62.1467V76.0605H61.0667C60.4507 76.0605 59.9787 75.9165 59.6507 75.6285C59.3227 75.3405 59.1587 74.8725 59.1587 74.2245V70.5645H58.3787V69.4485H59.1587V67.8045H60.5387V69.4485H62.1467V70.5645H60.5387ZM66.0687 72.7245C66.0687 72.0605 66.2047 71.4725 66.4767 70.9605C66.7567 70.4485 67.1327 70.0525 67.6047 69.7725C68.0847 69.4845 68.6167 69.3405 69.2007 69.3405C69.6327 69.3405 70.0567 69.4365 70.4727 69.6285C70.8967 69.8125 71.2327 70.0605 71.4807 70.3725V67.1805H72.8607V76.0605H71.4807V75.0645C71.2567 75.3845 70.9447 75.6485 70.5447 75.8565C70.1527 76.0645 69.7007 76.1685 69.1887 76.1685C68.6127 76.1685 68.0847 76.0245 67.6047 75.7365C67.1327 75.4405 66.7567 75.0325 66.4767 74.5125C66.2047 73.9845 66.0687 73.3885 66.0687 72.7245ZM71.4807 72.7485C71.4807 72.2925 71.3847 71.8965 71.1927 71.5605C71.0087 71.2245 70.7647 70.9685 70.4607 70.7925C70.1567 70.6165 69.8287 70.5285 69.4767 70.5285C69.1247 70.5285 68.7967 70.6165 68.4927 70.7925C68.1887 70.9605 67.9407 71.2125 67.7487 71.5485C67.5647 71.8765 67.4727 72.2685 67.4727 72.7245C67.4727 73.1805 67.5647 73.5805 67.7487 73.9245C67.9407 74.2685 68.1887 74.5325 68.4927 74.7165C68.8047 74.8925 69.1327 74.9805 69.4767 74.9805C69.8287 74.9805 70.1567 74.8925 70.4607 74.7165C70.7647 74.5405 71.0087 74.2845 71.1927 73.9485C71.3847 73.6045 71.4807 73.2045 71.4807 72.7485ZM74.2015 72.7245C74.2015 72.0605 74.3375 71.4725 74.6095 70.9605C74.8895 70.4485 75.2655 70.0525 75.7375 69.7725C76.2175 69.4845 76.7455 69.3405 77.3215 69.3405C77.8415 69.3405 78.2935 69.4445 78.6775 69.6525C79.0695 69.8525 79.3815 70.1045 79.6135 70.4085V69.4485H80.9935V76.0605H79.6135V75.0765C79.3815 75.3885 79.0655 75.6485 78.6655 75.8565C78.2655 76.0645 77.8095 76.1685 77.2975 76.1685C76.7295 76.1685 76.2095 76.0245 75.7375 75.7365C75.2655 75.4405 74.8895 75.0325 74.6095 74.5125C74.3375 73.9845 74.2015 73.3885 74.2015 72.7245ZM79.6135 72.7485C79.6135 72.2925 79.5175 71.8965 79.3255 71.5605C79.1415 71.2245 78.8975 70.9685 78.5935 70.7925C78.2895 70.6165 77.9615 70.5285 77.6095 70.5285C77.2575 70.5285 76.9295 70.6165 76.6255 70.7925C76.3215 70.9605 76.0735 71.2125 75.8815 71.5485C75.6975 71.8765 75.6055 72.2685 75.6055 72.7245C75.6055 73.1805 75.6975 73.5805 75.8815 73.9245C76.0735 74.2685 76.3215 74.5325 76.6255 74.7165C76.9375 74.8925 77.2655 74.9805 77.6095 74.9805C77.9615 74.9805 78.2895 74.8925 78.5935 74.7165C78.8975 74.5405 79.1415 74.2845 79.3255 73.9485C79.5175 73.6045 79.6135 73.2045 79.6135 72.7485ZM88.7423 69.4485L84.6863 79.1685H83.2703L84.6143 75.9525L82.0103 69.4485H83.5343L85.3943 74.4885L87.3263 69.4485H88.7423ZM94.8507 71.1405V72.2925H89.9187V71.1405H94.8507ZM99.6622 76.1685C99.0382 76.1685 98.4742 76.0285 97.9702 75.7485C97.4662 75.4605 97.0702 75.0605 96.7822 74.5485C96.4942 74.0285 96.3502 73.4285 96.3502 72.7485C96.3502 72.0765 96.4982 71.4805 96.7942 70.9605C97.0902 70.4405 97.4942 70.0405 98.0062 69.7605C98.5182 69.4805 99.0902 69.3405 99.7222 69.3405C100.354 69.3405 100.926 69.4805 101.438 69.7605C101.95 70.0405 102.354 70.4405 102.65 70.9605C102.946 71.4805 103.094 72.0765 103.094 72.7485C103.094 73.4205 102.942 74.0165 102.638 74.5365C102.334 75.0565 101.918 75.4605 101.39 75.7485C100.87 76.0285 100.294 76.1685 99.6622 76.1685ZM99.6622 74.9805C100.014 74.9805 100.342 74.8965 100.646 74.7285C100.958 74.5605 101.21 74.3085 101.402 73.9725C101.594 73.6365 101.69 73.2285 101.69 72.7485C101.69 72.2685 101.598 71.8645 101.414 71.5365C101.23 71.2005 100.986 70.9485 100.682 70.7805C100.378 70.6125 100.05 70.5285 99.6982 70.5285C99.3462 70.5285 99.0182 70.6125 98.7142 70.7805C98.4182 70.9485 98.1822 71.2005 98.0062 71.5365C97.8302 71.8645 97.7422 72.2685 97.7422 72.7485C97.7422 73.4605 97.9222 74.0125 98.2822 74.4045C98.6502 74.7885 99.1102 74.9805 99.6622 74.9805ZM107.219 70.5645H105.995V76.0605H104.615V70.5645H103.835V69.4485H104.615V68.9805C104.615 68.2205 104.815 67.6685 105.215 67.3245C105.623 66.9725 106.259 66.7965 107.123 66.7965V67.9365C106.707 67.9365 106.415 68.0165 106.247 68.1765C106.079 68.3285 105.995 68.5965 105.995 68.9805V69.4485H107.219V70.5645ZM114.572 78.2925C113.788 77.5405 113.184 76.5845 112.76 75.4245C112.344 74.2645 112.136 73.0205 112.136 71.6925C112.136 70.3325 112.36 69.0485 112.808 67.8405C113.264 66.6325 113.932 65.6365 114.812 64.8525H116.228V64.9845C115.308 65.8325 114.616 66.8485 114.152 68.0325C113.688 69.2165 113.456 70.4365 113.456 71.6925C113.456 72.9005 113.672 74.0685 114.104 75.1965C114.536 76.3245 115.164 77.3125 115.988 78.1605V78.2925H114.572ZM118.03 74.2005C118.798 73.5365 119.402 72.9925 119.842 72.5685C120.29 72.1365 120.662 71.6885 120.958 71.2245C121.254 70.7605 121.402 70.2965 121.402 69.8325C121.402 69.3525 121.286 68.9765 121.054 68.7045C120.83 68.4325 120.474 68.2965 119.986 68.2965C119.514 68.2965 119.146 68.4485 118.882 68.7525C118.626 69.0485 118.49 69.4485 118.474 69.9525H117.154C117.178 69.0405 117.45 68.3445 117.97 67.8645C118.498 67.3765 119.166 67.1325 119.974 67.1325C120.846 67.1325 121.526 67.3725 122.014 67.8525C122.51 68.3325 122.758 68.9725 122.758 69.7725C122.758 70.3485 122.61 70.9045 122.314 71.4405C122.026 71.9685 121.678 72.4445 121.27 72.8685C120.87 73.2845 120.358 73.7685 119.734 74.3205L119.194 74.8005H122.998V75.9405H117.166V74.9445L118.03 74.2005ZM127.041 72.7245C127.041 72.0605 127.177 71.4725 127.449 70.9605C127.729 70.4485 128.105 70.0525 128.577 69.7725C129.057 69.4845 129.589 69.3405 130.173 69.3405C130.605 69.3405 131.029 69.4365 131.445 69.6285C131.869 69.8125 132.205 70.0605 132.453 70.3725V67.1805H133.833V76.0605H132.453V75.0645C132.229 75.3845 131.917 75.6485 131.517 75.8565C131.125 76.0645 130.673 76.1685 130.161 76.1685C129.585 76.1685 129.057 76.0245 128.577 75.7365C128.105 75.4405 127.729 75.0325 127.449 74.5125C127.177 73.9845 127.041 73.3885 127.041 72.7245ZM132.453 72.7485C132.453 72.2925 132.357 71.8965 132.165 71.5605C131.981 71.2245 131.737 70.9685 131.433 70.7925C131.129 70.6165 130.801 70.5285 130.449 70.5285C130.097 70.5285 129.769 70.6165 129.465 70.7925C129.161 70.9605 128.913 71.2125 128.721 71.5485C128.537 71.8765 128.445 72.2685 128.445 72.7245C128.445 73.1805 128.537 73.5805 128.721 73.9245C128.913 74.2685 129.161 74.5325 129.465 74.7165C129.777 74.8925 130.105 74.9805 130.449 74.9805C130.801 74.9805 131.129 74.8925 131.433 74.7165C131.737 74.5405 131.981 74.2845 132.165 73.9485C132.357 73.6045 132.453 73.2045 132.453 72.7485ZM135.174 72.7245C135.174 72.0605 135.31 71.4725 135.582 70.9605C135.862 70.4485 136.238 70.0525 136.71 69.7725C137.19 69.4845 137.718 69.3405 138.294 69.3405C138.814 69.3405 139.266 69.4445 139.65 69.6525C140.042 69.8525 140.354 70.1045 140.586 70.4085V69.4485H141.966V76.0605H140.586V75.0765C140.354 75.3885 140.038 75.6485 139.638 75.8565C139.238 76.0645 138.782 76.1685 138.27 76.1685C137.702 76.1685 137.182 76.0245 136.71 75.7365C136.238 75.4405 135.862 75.0325 135.582 74.5125C135.31 73.9845 135.174 73.3885 135.174 72.7245ZM140.586 72.7485C140.586 72.2925 140.49 71.8965 140.298 71.5605C140.114 71.2245 139.87 70.9685 139.566 70.7925C139.262 70.6165 138.934 70.5285 138.582 70.5285C138.23 70.5285 137.902 70.6165 137.598 70.7925C137.294 70.9605 137.046 71.2125 136.854 71.5485C136.67 71.8765 136.578 72.2685 136.578 72.7245C136.578 73.1805 136.67 73.5805 136.854 73.9245C137.046 74.2685 137.294 74.5325 137.598 74.7165C137.91 74.8925 138.238 74.9805 138.582 74.9805C138.934 74.9805 139.262 74.8925 139.566 74.7165C139.87 74.5405 140.114 74.2845 140.298 73.9485C140.49 73.6045 140.586 73.2045 140.586 72.7485ZM149.715 69.4485L145.659 79.1685H144.243L145.587 75.9525L142.983 69.4485H144.507L146.367 74.4885L148.299 69.4485H149.715ZM153.147 76.1685C152.627 76.1685 152.159 76.0765 151.743 75.8925C151.335 75.7005 151.011 75.4445 150.771 75.1245C150.531 74.7965 150.403 74.4325 150.387 74.0325H151.803C151.827 74.3125 151.959 74.5485 152.199 74.7405C152.447 74.9245 152.755 75.0165 153.123 75.0165C153.507 75.0165 153.803 74.9445 154.011 74.8005C154.227 74.6485 154.335 74.4565 154.335 74.2245C154.335 73.9765 154.215 73.7925 153.975 73.6725C153.743 73.5525 153.371 73.4205 152.859 73.2765C152.363 73.1405 151.959 73.0085 151.647 72.8805C151.335 72.7525 151.063 72.5565 150.831 72.2925C150.607 72.0285 150.495 71.6805 150.495 71.2485C150.495 70.8965 150.599 70.5765 150.807 70.2885C151.015 69.9925 151.311 69.7605 151.695 69.5925C152.087 69.4245 152.535 69.3405 153.039 69.3405C153.791 69.3405 154.395 69.5325 154.851 69.9165C155.315 70.2925 155.563 70.8085 155.595 71.4645H154.227C154.203 71.1685 154.083 70.9325 153.867 70.7565C153.651 70.5805 153.359 70.4925 152.991 70.4925C152.631 70.4925 152.355 70.5605 152.163 70.6965C151.971 70.8325 151.875 71.0125 151.875 71.2365C151.875 71.4125 151.939 71.5605 152.067 71.6805C152.195 71.8005 152.351 71.8965 152.535 71.9685C152.719 72.0325 152.991 72.1165 153.351 72.2205C153.831 72.3485 154.223 72.4805 154.527 72.6165C154.839 72.7445 155.107 72.9365 155.331 73.1925C155.555 73.4485 155.671 73.7885 155.679 74.2125C155.679 74.5885 155.575 74.9245 155.367 75.2205C155.159 75.5165 154.863 75.7485 154.479 75.9165C154.103 76.0845 153.659 76.1685 153.147 76.1685ZM156.822 78.2925V78.1605C157.646 77.3125 158.274 76.3245 158.706 75.1965C159.138 74.0685 159.354 72.9005 159.354 71.6925C159.354 70.4365 159.122 69.2165 158.658 68.0325C158.194 66.8485 157.502 65.8325 156.582 64.9845V64.8525H157.998C158.878 65.6365 159.542 66.6325 159.99 67.8405C160.446 69.0485 160.674 70.3325 160.674 71.6925C160.674 73.0205 160.462 74.2645 160.038 75.4245C159.622 76.5845 159.022 77.5405 158.238 78.2925H156.822Z" fill="white"/>
<circle cx="196.956" cy="18.9069" r="5.15639" fill="white"/>
<line x1="191.8" y1="18.477" x2="383.6" y2="18.477" stroke="white" stroke-width="0.859399"/>
<rect x="245.45" width="84.5008" height="34.4692" rx="17.2346" fill="white"/>
<path d="M261.698 14.1989V16.154H264.324V17.3941H261.698V19.461H264.659V20.7346H260.134V12.9253H264.659V14.1989H261.698ZM265.893 17.6176C265.893 16.9919 266.016 16.4371 266.261 15.9529C266.515 15.4688 266.854 15.0964 267.278 14.8357C267.71 14.575 268.191 14.4447 268.719 14.4447C269.181 14.4447 269.583 14.5378 269.926 14.724C270.276 14.9102 270.555 15.1448 270.764 15.4278V14.5452H272.339V20.7346H270.764V19.8297C270.563 20.1201 270.283 20.3622 269.926 20.5559C269.576 20.7421 269.17 20.8352 268.708 20.8352C268.187 20.8352 267.71 20.7011 267.278 20.433C266.854 20.1648 266.515 19.7887 266.261 19.3046C266.016 18.813 265.893 18.2507 265.893 17.6176ZM270.764 17.6399C270.764 17.2601 270.689 16.9361 270.54 16.6679C270.391 16.3924 270.19 16.1838 269.937 16.0423C269.684 15.8933 269.412 15.8189 269.122 15.8189C268.831 15.8189 268.563 15.8896 268.317 16.0311C268.071 16.1726 267.87 16.3812 267.714 16.6568C267.565 16.9249 267.49 17.2452 267.49 17.6176C267.49 17.99 267.565 18.3177 267.714 18.6007C267.87 18.8763 268.071 19.0886 268.317 19.2375C268.57 19.3865 268.839 19.461 269.122 19.461C269.412 19.461 269.684 19.3902 269.937 19.2487C270.19 19.0998 270.391 18.8912 270.54 18.6231C270.689 18.3475 270.764 18.0198 270.764 17.6399ZM275.646 15.506C275.847 15.1783 276.107 14.9214 276.428 14.7352C276.755 14.549 277.128 14.4559 277.545 14.4559V16.0982H277.132C276.64 16.0982 276.268 16.2136 276.014 16.4445C275.769 16.6754 275.646 17.0776 275.646 17.6511V20.7346H274.082V14.5452H275.646V15.506ZM280.377 12.4672V20.7346H278.813V12.4672H280.377ZM288.059 14.5452L284.227 23.6617H282.562L283.903 20.5782L281.423 14.5452H283.177L284.774 18.8689L286.394 14.5452H288.059ZM300.496 12.9364V20.7346H298.932V15.6624L296.843 20.7346H295.658L293.558 15.6624V20.7346H291.994V12.9364H293.77L296.25 18.7348L298.731 12.9364H300.496ZM301.855 17.6176C301.855 16.9919 301.978 16.4371 302.224 15.9529C302.477 15.4688 302.816 15.0964 303.24 14.8357C303.672 14.575 304.153 14.4447 304.681 14.4447C305.143 14.4447 305.545 14.5378 305.888 14.724C306.238 14.9102 306.517 15.1448 306.726 15.4278V14.5452H308.301V20.7346H306.726V19.8297C306.525 20.1201 306.246 20.3622 305.888 20.5559C305.538 20.7421 305.132 20.8352 304.67 20.8352C304.149 20.8352 303.672 20.7011 303.24 20.433C302.816 20.1648 302.477 19.7887 302.224 19.3046C301.978 18.813 301.855 18.2507 301.855 17.6176ZM306.726 17.6399C306.726 17.2601 306.652 16.9361 306.503 16.6679C306.354 16.3924 306.152 16.1838 305.899 16.0423C305.646 15.8933 305.374 15.8189 305.084 15.8189C304.793 15.8189 304.525 15.8896 304.279 16.0311C304.034 16.1726 303.832 16.3812 303.676 16.6568C303.527 16.9249 303.453 17.2452 303.453 17.6176C303.453 17.99 303.527 18.3177 303.676 18.6007C303.832 18.8763 304.034 19.0886 304.279 19.2375C304.533 19.3865 304.801 19.461 305.084 19.461C305.374 19.461 305.646 19.3902 305.899 19.2487C306.152 19.0998 306.354 18.8912 306.503 18.6231C306.652 18.3475 306.726 18.0198 306.726 17.6399ZM315.965 14.5452L312.133 23.6617H310.468L311.809 20.5782L309.329 14.5452H311.083L312.68 18.8689L314.3 14.5452H315.965Z" fill="#393858"/>
<path d="M213.29 74.3565H209.798L209.198 76.0605H207.77L210.758 67.7085H212.342L215.33 76.0605H213.89L213.29 74.3565ZM212.906 73.2405L211.55 69.3645L210.182 73.2405H212.906ZM219.965 69.3405C220.485 69.3405 220.949 69.4485 221.357 69.6645C221.773 69.8805 222.097 70.2005 222.329 70.6245C222.561 71.0485 222.677 71.5605 222.677 72.1605V76.0605H221.321V72.3645C221.321 71.7725 221.173 71.3205 220.877 71.0085C220.581 70.6885 220.177 70.5285 219.665 70.5285C219.153 70.5285 218.745 70.6885 218.441 71.0085C218.145 71.3205 217.997 71.7725 217.997 72.3645V76.0605H216.629V69.4485H217.997V70.2045C218.221 69.9325 218.505 69.7205 218.849 69.5685C219.201 69.4165 219.573 69.3405 219.965 69.3405ZM227.758 69.3405C228.278 69.3405 228.742 69.4485 229.15 69.6645C229.566 69.8805 229.89 70.2005 230.122 70.6245C230.354 71.0485 230.47 71.5605 230.47 72.1605V76.0605H229.114V72.3645C229.114 71.7725 228.966 71.3205 228.67 71.0085C228.374 70.6885 227.97 70.5285 227.458 70.5285C226.946 70.5285 226.538 70.6885 226.234 71.0085C225.938 71.3205 225.79 71.7725 225.79 72.3645V76.0605H224.422V69.4485H225.79V70.2045C226.014 69.9325 226.298 69.7205 226.642 69.5685C226.994 69.4165 227.366 69.3405 227.758 69.3405ZM235.083 76.1685C234.459 76.1685 233.895 76.0285 233.391 75.7485C232.887 75.4605 232.491 75.0605 232.203 74.5485C231.915 74.0285 231.771 73.4285 231.771 72.7485C231.771 72.0765 231.919 71.4805 232.215 70.9605C232.511 70.4405 232.915 70.0405 233.427 69.7605C233.939 69.4805 234.511 69.3405 235.143 69.3405C235.775 69.3405 236.347 69.4805 236.859 69.7605C237.371 70.0405 237.775 70.4405 238.071 70.9605C238.367 71.4805 238.515 72.0765 238.515 72.7485C238.515 73.4205 238.363 74.0165 238.059 74.5365C237.755 75.0565 237.339 75.4605 236.811 75.7485C236.291 76.0285 235.715 76.1685 235.083 76.1685ZM235.083 74.9805C235.435 74.9805 235.763 74.8965 236.067 74.7285C236.379 74.5605 236.631 74.3085 236.823 73.9725C237.015 73.6365 237.111 73.2285 237.111 72.7485C237.111 72.2685 237.019 71.8645 236.835 71.5365C236.651 71.2005 236.407 70.9485 236.103 70.7805C235.799 70.6125 235.471 70.5285 235.119 70.5285C234.767 70.5285 234.439 70.6125 234.135 70.7805C233.839 70.9485 233.603 71.2005 233.427 71.5365C233.251 71.8645 233.163 72.2685 233.163 72.7485C233.163 73.4605 233.343 74.0125 233.703 74.4045C234.071 74.7885 234.531 74.9805 235.083 74.9805ZM245.856 69.4485V76.0605H244.488V75.2805C244.272 75.5525 243.988 75.7685 243.636 75.9285C243.292 76.0805 242.924 76.1565 242.532 76.1565C242.012 76.1565 241.544 76.0485 241.128 75.8325C240.72 75.6165 240.396 75.2965 240.156 74.8725C239.924 74.4485 239.808 73.9365 239.808 73.3365V69.4485H241.164V73.1325C241.164 73.7245 241.312 74.1805 241.608 74.5005C241.904 74.8125 242.308 74.9685 242.82 74.9685C243.332 74.9685 243.736 74.8125 244.032 74.5005C244.336 74.1805 244.488 73.7245 244.488 73.1325V69.4485H245.856ZM250.997 69.3405C251.517 69.3405 251.981 69.4485 252.389 69.6645C252.805 69.8805 253.129 70.2005 253.361 70.6245C253.593 71.0485 253.709 71.5605 253.709 72.1605V76.0605H252.353V72.3645C252.353 71.7725 252.205 71.3205 251.909 71.0085C251.613 70.6885 251.209 70.5285 250.697 70.5285C250.185 70.5285 249.777 70.6885 249.473 71.0085C249.177 71.3205 249.029 71.7725 249.029 72.3645V76.0605H247.661V69.4485H249.029V70.2045C249.253 69.9325 249.537 69.7205 249.881 69.5685C250.233 69.4165 250.605 69.3405 250.997 69.3405ZM254.998 72.7485C254.998 72.0685 255.134 71.4725 255.406 70.9605C255.686 70.4405 256.07 70.0405 256.558 69.7605C257.046 69.4805 257.606 69.3405 258.238 69.3405C259.038 69.3405 259.698 69.5325 260.218 69.9165C260.746 70.2925 261.102 70.8325 261.286 71.5365H259.81C259.69 71.2085 259.498 70.9525 259.234 70.7685C258.97 70.5845 258.638 70.4925 258.238 70.4925C257.678 70.4925 257.23 70.6925 256.894 71.0925C256.566 71.4845 256.402 72.0365 256.402 72.7485C256.402 73.4605 256.566 74.0165 256.894 74.4165C257.23 74.8165 257.678 75.0165 258.238 75.0165C259.03 75.0165 259.554 74.6685 259.81 73.9725H261.286C261.094 74.6445 260.734 75.1805 260.206 75.5805C259.678 75.9725 259.022 76.1685 258.238 76.1685C257.606 76.1685 257.046 76.0285 256.558 75.7485C256.07 75.4605 255.686 75.0605 255.406 74.5485C255.134 74.0285 254.998 73.4285 254.998 72.7485ZM268.709 72.5925C268.709 72.8405 268.693 73.0645 268.661 73.2645H263.609C263.649 73.7925 263.845 74.2165 264.197 74.5365C264.549 74.8565 264.981 75.0165 265.493 75.0165C266.229 75.0165 266.749 74.7085 267.053 74.0925H268.529C268.329 74.7005 267.965 75.2005 267.437 75.5925C266.917 75.9765 266.269 76.1685 265.493 76.1685C264.861 76.1685 264.293 76.0285 263.789 75.7485C263.293 75.4605 262.901 75.0605 262.613 74.5485C262.333 74.0285 262.193 73.4285 262.193 72.7485C262.193 72.0685 262.329 71.4725 262.601 70.9605C262.881 70.4405 263.269 70.0405 263.765 69.7605C264.269 69.4805 264.845 69.3405 265.493 69.3405C266.117 69.3405 266.673 69.4765 267.161 69.7485C267.649 70.0205 268.029 70.4045 268.301 70.9005C268.573 71.3885 268.709 71.9525 268.709 72.5925ZM267.281 72.1605C267.273 71.6565 267.093 71.2525 266.741 70.9485C266.389 70.6445 265.953 70.4925 265.433 70.4925C264.961 70.4925 264.557 70.6445 264.221 70.9485C263.885 71.2445 263.685 71.6485 263.621 72.1605H267.281ZM278.059 69.3405C278.579 69.3405 279.043 69.4485 279.451 69.6645C279.867 69.8805 280.191 70.2005 280.423 70.6245C280.663 71.0485 280.783 71.5605 280.783 72.1605V76.0605H279.427V72.3645C279.427 71.7725 279.279 71.3205 278.983 71.0085C278.687 70.6885 278.283 70.5285 277.771 70.5285C277.259 70.5285 276.851 70.6885 276.547 71.0085C276.251 71.3205 276.103 71.7725 276.103 72.3645V76.0605H274.747V72.3645C274.747 71.7725 274.599 71.3205 274.303 71.0085C274.007 70.6885 273.603 70.5285 273.091 70.5285C272.579 70.5285 272.171 70.6885 271.867 71.0085C271.571 71.3205 271.423 71.7725 271.423 72.3645V76.0605H270.055V69.4485H271.423V70.2045C271.647 69.9325 271.931 69.7205 272.275 69.5685C272.619 69.4165 272.987 69.3405 273.379 69.3405C273.907 69.3405 274.379 69.4525 274.795 69.6765C275.211 69.9005 275.531 70.2245 275.755 70.6485C275.955 70.2485 276.267 69.9325 276.691 69.7005C277.115 69.4605 277.571 69.3405 278.059 69.3405ZM288.584 72.5925C288.584 72.8405 288.568 73.0645 288.536 73.2645H283.484C283.524 73.7925 283.72 74.2165 284.072 74.5365C284.424 74.8565 284.856 75.0165 285.368 75.0165C286.104 75.0165 286.624 74.7085 286.928 74.0925H288.404C288.204 74.7005 287.84 75.2005 287.312 75.5925C286.792 75.9765 286.144 76.1685 285.368 76.1685C284.736 76.1685 284.168 76.0285 283.664 75.7485C283.168 75.4605 282.776 75.0605 282.488 74.5485C282.208 74.0285 282.068 73.4285 282.068 72.7485C282.068 72.0685 282.204 71.4725 282.476 70.9605C282.756 70.4405 283.144 70.0405 283.64 69.7605C284.144 69.4805 284.72 69.3405 285.368 69.3405C285.992 69.3405 286.548 69.4765 287.036 69.7485C287.524 70.0205 287.904 70.4045 288.176 70.9005C288.448 71.3885 288.584 71.9525 288.584 72.5925ZM287.156 72.1605C287.148 71.6565 286.968 71.2525 286.616 70.9485C286.264 70.6445 285.828 70.4925 285.308 70.4925C284.836 70.4925 284.432 70.6445 284.096 70.9485C283.76 71.2445 283.56 71.6485 283.496 72.1605H287.156ZM293.266 69.3405C293.786 69.3405 294.25 69.4485 294.658 69.6645C295.074 69.8805 295.398 70.2005 295.63 70.6245C295.862 71.0485 295.978 71.5605 295.978 72.1605V76.0605H294.622V72.3645C294.622 71.7725 294.474 71.3205 294.178 71.0085C293.882 70.6885 293.478 70.5285 292.966 70.5285C292.454 70.5285 292.046 70.6885 291.742 71.0085C291.446 71.3205 291.298 71.7725 291.298 72.3645V76.0605H289.93V69.4485H291.298V70.2045C291.522 69.9325 291.806 69.7205 292.15 69.5685C292.502 69.4165 292.874 69.3405 293.266 69.3405ZM299.319 70.5645V74.2245C299.319 74.4725 299.375 74.6525 299.487 74.7645C299.607 74.8685 299.807 74.9205 300.087 74.9205H300.927V76.0605H299.847C299.231 76.0605 298.759 75.9165 298.431 75.6285C298.103 75.3405 297.939 74.8725 297.939 74.2245V70.5645H297.159V69.4485H297.939V67.8045H299.319V69.4485H300.927V70.5645H299.319ZM308.173 76.1685C307.549 76.1685 306.985 76.0285 306.481 75.7485C305.977 75.4605 305.581 75.0605 305.293 74.5485C305.005 74.0285 304.861 73.4285 304.861 72.7485C304.861 72.0765 305.009 71.4805 305.305 70.9605C305.601 70.4405 306.005 70.0405 306.517 69.7605C307.029 69.4805 307.601 69.3405 308.233 69.3405C308.865 69.3405 309.437 69.4805 309.949 69.7605C310.461 70.0405 310.865 70.4405 311.161 70.9605C311.457 71.4805 311.605 72.0765 311.605 72.7485C311.605 73.4205 311.453 74.0165 311.149 74.5365C310.845 75.0565 310.429 75.4605 309.901 75.7485C309.381 76.0285 308.805 76.1685 308.173 76.1685ZM308.173 74.9805C308.525 74.9805 308.853 74.8965 309.157 74.7285C309.469 74.5605 309.721 74.3085 309.913 73.9725C310.105 73.6365 310.201 73.2285 310.201 72.7485C310.201 72.2685 310.109 71.8645 309.925 71.5365C309.741 71.2005 309.497 70.9485 309.193 70.7805C308.889 70.6125 308.561 70.5285 308.209 70.5285C307.857 70.5285 307.529 70.6125 307.225 70.7805C306.929 70.9485 306.693 71.2005 306.517 71.5365C306.341 71.8645 306.253 72.2685 306.253 72.7485C306.253 73.4605 306.433 74.0125 306.793 74.4045C307.161 74.7885 307.621 74.9805 308.173 74.9805ZM315.73 70.5645H314.506V76.0605H313.126V70.5645H312.346V69.4485H313.126V68.9805C313.126 68.2205 313.326 67.6685 313.726 67.3245C314.134 66.9725 314.77 66.7965 315.634 66.7965V67.9365C315.218 67.9365 314.926 68.0165 314.758 68.1765C314.59 68.3285 314.506 68.5965 314.506 68.9805V69.4485H315.73V70.5645ZM324.967 67.7205V68.8365H321.427V71.2965H324.187V72.4125H321.427V76.0605H320.059V67.7205H324.967ZM326.931 68.5725C326.683 68.5725 326.475 68.4885 326.307 68.3205C326.139 68.1525 326.055 67.9445 326.055 67.6965C326.055 67.4485 326.139 67.2405 326.307 67.0725C326.475 66.9045 326.683 66.8205 326.931 66.8205C327.171 66.8205 327.375 66.9045 327.543 67.0725C327.711 67.2405 327.795 67.4485 327.795 67.6965C327.795 67.9445 327.711 68.1525 327.543 68.3205C327.375 68.4885 327.171 68.5725 326.931 68.5725ZM327.603 69.4485V76.0605H326.235V69.4485H327.603ZM332.735 69.3405C333.255 69.3405 333.719 69.4485 334.127 69.6645C334.543 69.8805 334.867 70.2005 335.099 70.6245C335.331 71.0485 335.447 71.5605 335.447 72.1605V76.0605H334.091V72.3645C334.091 71.7725 333.943 71.3205 333.647 71.0085C333.351 70.6885 332.947 70.5285 332.435 70.5285C331.923 70.5285 331.515 70.6885 331.211 71.0085C330.915 71.3205 330.767 71.7725 330.767 72.3645V76.0605H329.399V69.4485H330.767V70.2045C330.991 69.9325 331.275 69.7205 331.619 69.5685C331.971 69.4165 332.343 69.3405 332.735 69.3405ZM336.736 72.7245C336.736 72.0605 336.872 71.4725 337.144 70.9605C337.424 70.4485 337.8 70.0525 338.272 69.7725C338.752 69.4845 339.28 69.3405 339.856 69.3405C340.376 69.3405 340.828 69.4445 341.212 69.6525C341.604 69.8525 341.916 70.1045 342.148 70.4085V69.4485H343.528V76.0605H342.148V75.0765C341.916 75.3885 341.6 75.6485 341.2 75.8565C340.8 76.0645 340.344 76.1685 339.832 76.1685C339.264 76.1685 338.744 76.0245 338.272 75.7365C337.8 75.4405 337.424 75.0325 337.144 74.5125C336.872 73.9845 336.736 73.3885 336.736 72.7245ZM342.148 72.7485C342.148 72.2925 342.052 71.8965 341.86 71.5605C341.676 71.2245 341.432 70.9685 341.128 70.7925C340.824 70.6165 340.496 70.5285 340.144 70.5285C339.792 70.5285 339.464 70.6165 339.16 70.7925C338.856 70.9605 338.608 71.2125 338.416 71.5485C338.232 71.8765 338.14 72.2685 338.14 72.7245C338.14 73.1805 338.232 73.5805 338.416 73.9245C338.608 74.2685 338.856 74.5325 339.16 74.7165C339.472 74.8925 339.8 74.9805 340.144 74.9805C340.496 74.9805 340.824 74.8925 341.128 74.7165C341.432 74.5405 341.676 74.2845 341.86 73.9485C342.052 73.6045 342.148 73.2045 342.148 72.7485ZM346.693 67.1805V76.0605H345.325V67.1805H346.693ZM349.185 68.5725C348.937 68.5725 348.729 68.4885 348.561 68.3205C348.393 68.1525 348.309 67.9445 348.309 67.6965C348.309 67.4485 348.393 67.2405 348.561 67.0725C348.729 66.9045 348.937 66.8205 349.185 66.8205C349.425 66.8205 349.629 66.9045 349.797 67.0725C349.965 67.2405 350.049 67.4485 350.049 67.6965C350.049 67.9445 349.965 68.1525 349.797 68.3205C349.629 68.4885 349.425 68.5725 349.185 68.5725ZM349.857 69.4485V76.0605H348.489V69.4485H349.857ZM354.053 76.1685C353.533 76.1685 353.065 76.0765 352.649 75.8925C352.241 75.7005 351.917 75.4445 351.677 75.1245C351.437 74.7965 351.309 74.4325 351.293 74.0325H352.709C352.733 74.3125 352.865 74.5485 353.105 74.7405C353.353 74.9245 353.661 75.0165 354.029 75.0165C354.413 75.0165 354.709 74.9445 354.917 74.8005C355.133 74.6485 355.241 74.4565 355.241 74.2245C355.241 73.9765 355.121 73.7925 354.881 73.6725C354.649 73.5525 354.277 73.4205 353.765 73.2765C353.269 73.1405 352.865 73.0085 352.553 72.8805C352.241 72.7525 351.969 72.5565 351.737 72.2925C351.513 72.0285 351.401 71.6805 351.401 71.2485C351.401 70.8965 351.505 70.5765 351.713 70.2885C351.921 69.9925 352.217 69.7605 352.601 69.5925C352.993 69.4245 353.441 69.3405 353.945 69.3405C354.697 69.3405 355.301 69.5325 355.757 69.9165C356.221 70.2925 356.469 70.8085 356.501 71.4645H355.133C355.109 71.1685 354.989 70.9325 354.773 70.7565C354.557 70.5805 354.265 70.4925 353.897 70.4925C353.537 70.4925 353.261 70.5605 353.069 70.6965C352.877 70.8325 352.781 71.0125 352.781 71.2365C352.781 71.4125 352.845 71.5605 352.973 71.6805C353.101 71.8005 353.257 71.8965 353.441 71.9685C353.625 72.0325 353.897 72.1165 354.257 72.2205C354.737 72.3485 355.129 72.4805 355.433 72.6165C355.745 72.7445 356.013 72.9365 356.237 73.1925C356.461 73.4485 356.577 73.7885 356.585 74.2125C356.585 74.5885 356.481 74.9245 356.273 75.2205C356.065 75.5165 355.769 75.7485 355.385 75.9165C355.009 76.0845 354.565 76.1685 354.053 76.1685ZM359.659 70.5645V74.2245C359.659 74.4725 359.715 74.6525 359.827 74.7645C359.947 74.8685 360.147 74.9205 360.427 74.9205H361.267V76.0605H360.187C359.571 76.0605 359.099 75.9165 358.771 75.6285C358.443 75.3405 358.279 74.8725 358.279 74.2245V70.5645H357.499V69.4485H358.279V67.8045H359.659V69.4485H361.267V70.5645H359.659ZM364.928 76.1685C364.408 76.1685 363.94 76.0765 363.524 75.8925C363.116 75.7005 362.792 75.4445 362.552 75.1245C362.312 74.7965 362.184 74.4325 362.168 74.0325H363.584C363.608 74.3125 363.74 74.5485 363.98 74.7405C364.228 74.9245 364.536 75.0165 364.904 75.0165C365.288 75.0165 365.584 74.9445 365.792 74.8005C366.008 74.6485 366.116 74.4565 366.116 74.2245C366.116 73.9765 365.996 73.7925 365.756 73.6725C365.524 73.5525 365.152 73.4205 364.64 73.2765C364.144 73.1405 363.74 73.0085 363.428 72.8805C363.116 72.7525 362.844 72.5565 362.612 72.2925C362.388 72.0285 362.276 71.6805 362.276 71.2485C362.276 70.8965 362.38 70.5765 362.588 70.2885C362.796 69.9925 363.092 69.7605 363.476 69.5925C363.868 69.4245 364.316 69.3405 364.82 69.3405C365.572 69.3405 366.176 69.5325 366.632 69.9165C367.096 70.2925 367.344 70.8085 367.376 71.4645H366.008C365.984 71.1685 365.864 70.9325 365.648 70.7565C365.432 70.5805 365.14 70.4925 364.772 70.4925C364.412 70.4925 364.136 70.5605 363.944 70.6965C363.752 70.8325 363.656 71.0125 363.656 71.2365C363.656 71.4125 363.72 71.5605 363.848 71.6805C363.976 71.8005 364.132 71.8965 364.316 71.9685C364.5 72.0325 364.772 72.1165 365.132 72.2205C365.612 72.3485 366.004 72.4805 366.308 72.6165C366.62 72.7445 366.888 72.9365 367.112 73.1925C367.336 73.4485 367.452 73.7885 367.46 74.2125C367.46 74.5885 367.356 74.9245 367.148 75.2205C366.94 75.5165 366.644 75.7485 366.26 75.9165C365.884 76.0845 365.44 76.1685 364.928 76.1685Z" fill="white"/>
</svg>
