<svg width="959" height="104" viewBox="0 0 959 104" fill="none" xmlns="http://www.w3.org/2000/svg">
<circle cx="5.15639" cy="18.9069" r="5.15639" fill="white"/>
<line y1="18.477" x2="191.8" y2="18.477" stroke="white" stroke-width="0.859399"/>
<rect x="40.6497" width="110.501" height="34.4692" rx="17.2346" fill="white"/>
<path d="M63.8774 12.9364V20.7346H62.3133V15.6624L60.2241 20.7346H59.0399L56.9395 15.6624V20.7346H55.3754V12.9364H57.1518L59.632 18.7348L62.1122 12.9364H63.8774ZM66.4319 13.8079C66.1563 13.8079 65.9254 13.7222 65.7392 13.5509C65.5605 13.3722 65.4711 13.1524 65.4711 12.8917C65.4711 12.6311 65.5605 12.4151 65.7392 12.2438C65.9254 12.065 66.1563 11.9756 66.4319 11.9756C66.7075 11.9756 66.9347 12.065 67.1134 12.2438C67.2996 12.4151 67.3927 12.6311 67.3927 12.8917C67.3927 13.1524 67.2996 13.3722 67.1134 13.5509C66.9347 13.7222 66.7075 13.8079 66.4319 13.8079ZM67.2028 14.5452V20.7346H65.6387V14.5452H67.2028ZM68.5608 17.6176C68.5608 16.9919 68.6837 16.4371 68.9295 15.9529C69.1827 15.4688 69.5253 15.0964 69.9573 14.8357C70.3893 14.575 70.8697 14.4447 71.3985 14.4447C71.8007 14.4447 72.1843 14.5341 72.5492 14.7128C72.9142 14.8841 73.2047 15.115 73.4207 15.4055V12.4672H75.0071V20.7346H73.4207V19.8185C73.227 20.1239 72.9552 20.3697 72.6051 20.5559C72.255 20.7421 71.8491 20.8352 71.3873 20.8352C70.866 20.8352 70.3893 20.7011 69.9573 20.433C69.5253 20.1648 69.1827 19.7887 68.9295 19.3046C68.6837 18.813 68.5608 18.2507 68.5608 17.6176ZM73.4319 17.6399C73.4319 17.2601 73.3574 16.9361 73.2084 16.6679C73.0594 16.3924 72.8583 16.1838 72.6051 16.0423C72.3519 15.8933 72.08 15.8189 71.7895 15.8189C71.4991 15.8189 71.2309 15.8896 70.9851 16.0311C70.7394 16.1726 70.5383 16.3812 70.3818 16.6568C70.2329 16.9249 70.1584 17.2452 70.1584 17.6176C70.1584 17.99 70.2329 18.3177 70.3818 18.6007C70.5383 18.8763 70.7394 19.0886 70.9851 19.2375C71.2384 19.3865 71.5065 19.461 71.7895 19.461C72.08 19.461 72.3519 19.3902 72.6051 19.2487C72.8583 19.0998 73.0594 18.8912 73.2084 18.6231C73.3574 18.3475 73.4319 18.0198 73.4319 17.6399ZM84.4083 19.2487H81.3024L80.7885 20.7346H79.1462L81.9504 12.9253H83.7715L86.5757 20.7346H84.9222L84.4083 19.2487ZM83.9837 17.9974L82.8553 14.7352L81.7269 17.9974H83.9837ZM89.4028 15.439C89.6039 15.156 89.8795 14.9214 90.2295 14.7352C90.5871 14.5415 90.993 14.4447 91.4473 14.4447C91.9761 14.4447 92.4528 14.575 92.8773 14.8357C93.3093 15.0964 93.6482 15.4688 93.894 15.9529C94.1473 16.4296 94.2739 16.9845 94.2739 17.6176C94.2739 18.2507 94.1473 18.813 93.894 19.3046C93.6482 19.7887 93.3093 20.1648 92.8773 20.433C92.4528 20.7011 91.9761 20.8352 91.4473 20.8352C90.993 20.8352 90.5908 20.7421 90.2407 20.5559C89.8981 20.3697 89.6188 20.135 89.4028 19.852V23.6841H87.8387V14.5452H89.4028V15.439ZM92.6762 17.6176C92.6762 17.2452 92.598 16.9249 92.4416 16.6568C92.2927 16.3812 92.0916 16.1726 91.8383 16.0311C91.5925 15.8896 91.3244 15.8189 91.0339 15.8189C90.7509 15.8189 90.4828 15.8933 90.2295 16.0423C89.9838 16.1838 89.7827 16.3924 89.6262 16.6679C89.4773 16.9435 89.4028 17.2675 89.4028 17.6399C89.4028 18.0123 89.4773 18.3363 89.6262 18.6119C89.7827 18.8875 89.9838 19.0998 90.2295 19.2487C90.4828 19.3902 90.7509 19.461 91.0339 19.461C91.3244 19.461 91.5925 19.3865 91.8383 19.2375C92.0916 19.0886 92.2927 18.8763 92.4416 18.6007C92.598 18.3252 92.6762 17.9974 92.6762 17.6176ZM97.1894 15.506C97.3905 15.1783 97.6512 14.9214 97.9715 14.7352C98.2992 14.549 98.6716 14.4559 99.0887 14.4559V16.0982H98.6753C98.1837 16.0982 97.8113 16.2136 97.5581 16.4445C97.3123 16.6754 97.1894 17.0776 97.1894 17.6511V20.7346H95.6253V14.5452H97.1894V15.506ZM101.15 13.8079C100.875 13.8079 100.644 13.7222 100.458 13.5509C100.279 13.3722 100.189 13.1524 100.189 12.8917C100.189 12.6311 100.279 12.4151 100.458 12.2438C100.644 12.065 100.875 11.9756 101.15 11.9756C101.426 11.9756 101.653 12.065 101.832 12.2438C102.018 12.4151 102.111 12.6311 102.111 12.8917C102.111 13.1524 102.018 13.3722 101.832 13.5509C101.653 13.7222 101.426 13.8079 101.15 13.8079ZM101.921 14.5452V20.7346H100.357V14.5452H101.921ZM105.245 12.4672V20.7346H103.681V12.4672H105.245ZM110.195 18.9694C110.91 18.3736 111.48 17.8783 111.905 17.4835C112.329 17.0813 112.683 16.6642 112.966 16.2322C113.249 15.8002 113.391 15.3757 113.391 14.9586C113.391 14.5787 113.301 14.2808 113.123 14.0648C112.944 13.8488 112.668 13.7408 112.296 13.7408C111.923 13.7408 111.637 13.8675 111.436 14.1207C111.234 14.3665 111.13 14.7054 111.123 15.1374H109.603C109.633 14.2436 109.898 13.5658 110.397 13.104C110.903 12.6422 111.544 12.4113 112.318 12.4113C113.167 12.4113 113.819 12.6385 114.273 13.0928C114.728 13.5397 114.955 14.1319 114.955 14.8692C114.955 15.4502 114.798 16.0051 114.486 16.5339C114.173 17.0627 113.815 17.5245 113.413 17.9192C113.011 18.3065 112.486 18.7758 111.838 19.3269H115.134V20.6229H109.614V19.461L110.195 18.9694ZM116.334 16.5562C116.334 15.2677 116.565 14.2585 117.027 13.5286C117.496 12.7986 118.27 12.4337 119.35 12.4337C120.43 12.4337 121.201 12.7986 121.663 13.5286C122.132 14.2585 122.367 15.2677 122.367 16.5562C122.367 17.8522 122.132 18.8689 121.663 19.6062C121.201 20.3436 120.43 20.7123 119.35 20.7123C118.27 20.7123 117.496 20.3436 117.027 19.6062C116.565 18.8689 116.334 17.8522 116.334 16.5562ZM120.825 16.5562C120.825 16.0051 120.788 15.5433 120.713 15.1709C120.646 14.791 120.505 14.4819 120.289 14.2436C120.08 14.0052 119.768 13.8861 119.35 13.8861C118.933 13.8861 118.617 14.0052 118.401 14.2436C118.192 14.4819 118.051 14.791 117.976 15.1709C117.909 15.5433 117.876 16.0051 117.876 16.5562C117.876 17.1223 117.909 17.599 117.976 17.9863C118.043 18.3661 118.185 18.6752 118.401 18.9136C118.617 19.1444 118.933 19.2599 119.35 19.2599C119.768 19.2599 120.084 19.1444 120.3 18.9136C120.516 18.6752 120.658 18.3661 120.725 17.9863C120.792 17.599 120.825 17.1223 120.825 16.5562ZM124.263 18.9694C124.978 18.3736 125.548 17.8783 125.972 17.4835C126.397 17.0813 126.751 16.6642 127.034 16.2322C127.317 15.8002 127.458 15.3757 127.458 14.9586C127.458 14.5787 127.369 14.2808 127.19 14.0648C127.011 13.8488 126.736 13.7408 126.363 13.7408C125.991 13.7408 125.704 13.8675 125.503 14.1207C125.302 14.3665 125.198 14.7054 125.19 15.1374H123.671C123.701 14.2436 123.965 13.5658 124.464 13.104C124.971 12.6422 125.611 12.4113 126.386 12.4113C127.235 12.4113 127.887 12.6385 128.341 13.0928C128.795 13.5397 129.022 14.1319 129.022 14.8692C129.022 15.4502 128.866 16.0051 128.553 16.5339C128.24 17.0627 127.883 17.5245 127.481 17.9192C127.078 18.3065 126.553 18.7758 125.905 19.3269H129.201V20.6229H123.682V19.461L124.263 18.9694ZM130.335 19.1482V17.9192L133.988 12.6906H135.809V17.7852H136.792V19.1482H135.809V20.7346H134.245V19.1482H130.335ZM134.345 14.3665L132.055 17.7852H134.345V14.3665Z" fill="#393858"/>
<path d="M18.0802 70.1205C17.8642 69.7045 17.5642 69.3925 17.1802 69.1845C16.7962 68.9685 16.3522 68.8605 15.8482 68.8605C15.2962 68.8605 14.8042 68.9845 14.3722 69.2325C13.9402 69.4805 13.6002 69.8325 13.3522 70.2885C13.1122 70.7445 12.9922 71.2725 12.9922 71.8725C12.9922 72.4725 13.1122 73.0045 13.3522 73.4685C13.6002 73.9245 13.9402 74.2765 14.3722 74.5245C14.8042 74.7725 15.2962 74.8965 15.8482 74.8965C16.5922 74.8965 17.1962 74.6885 17.6602 74.2725C18.1242 73.8565 18.4082 73.2925 18.5122 72.5805H15.3802V71.4885H19.9762V72.5565C19.8882 73.2045 19.6562 73.8005 19.2802 74.3445C18.9122 74.8885 18.4282 75.3245 17.8282 75.6525C17.2362 75.9725 16.5762 76.1325 15.8482 76.1325C15.0642 76.1325 14.3482 75.9525 13.7002 75.5925C13.0522 75.2245 12.5362 74.7165 12.1522 74.0685C11.7762 73.4205 11.5882 72.6885 11.5882 71.8725C11.5882 71.0565 11.7762 70.3245 12.1522 69.6765C12.5362 69.0285 13.0522 68.5245 13.7002 68.1645C14.3562 67.7965 15.0722 67.6125 15.8482 67.6125C16.7362 67.6125 17.5242 67.8325 18.2122 68.2725C18.9082 68.7045 19.4122 69.3205 19.7242 70.1205H18.0802ZM27.3855 72.5925C27.3855 72.8405 27.3695 73.0645 27.3375 73.2645H22.2855C22.3255 73.7925 22.5215 74.2165 22.8735 74.5365C23.2255 74.8565 23.6575 75.0165 24.1695 75.0165C24.9055 75.0165 25.4255 74.7085 25.7295 74.0925H27.2055C27.0055 74.7005 26.6415 75.2005 26.1135 75.5925C25.5935 75.9765 24.9455 76.1685 24.1695 76.1685C23.5375 76.1685 22.9695 76.0285 22.4655 75.7485C21.9695 75.4605 21.5775 75.0605 21.2895 74.5485C21.0095 74.0285 20.8695 73.4285 20.8695 72.7485C20.8695 72.0685 21.0055 71.4725 21.2775 70.9605C21.5575 70.4405 21.9455 70.0405 22.4415 69.7605C22.9455 69.4805 23.5215 69.3405 24.1695 69.3405C24.7935 69.3405 25.3495 69.4765 25.8375 69.7485C26.3255 70.0205 26.7055 70.4045 26.9775 70.9005C27.2495 71.3885 27.3855 71.9525 27.3855 72.5925ZM25.9575 72.1605C25.9495 71.6565 25.7695 71.2525 25.4175 70.9485C25.0655 70.6445 24.6295 70.4925 24.1095 70.4925C23.6375 70.4925 23.2335 70.6445 22.8975 70.9485C22.5615 71.2445 22.3615 71.6485 22.2975 72.1605H25.9575ZM32.0677 69.3405C32.5877 69.3405 33.0517 69.4485 33.4597 69.6645C33.8757 69.8805 34.1997 70.2005 34.4317 70.6245C34.6637 71.0485 34.7797 71.5605 34.7797 72.1605V76.0605H33.4237V72.3645C33.4237 71.7725 33.2757 71.3205 32.9797 71.0085C32.6837 70.6885 32.2797 70.5285 31.7677 70.5285C31.2557 70.5285 30.8477 70.6885 30.5437 71.0085C30.2477 71.3205 30.0997 71.7725 30.0997 72.3645V76.0605H28.7317V69.4485H30.0997V70.2045C30.3237 69.9325 30.6077 69.7205 30.9517 69.5685C31.3037 69.4165 31.6757 69.3405 32.0677 69.3405ZM42.5847 72.5925C42.5847 72.8405 42.5687 73.0645 42.5367 73.2645H37.4847C37.5247 73.7925 37.7207 74.2165 38.0727 74.5365C38.4247 74.8565 38.8567 75.0165 39.3687 75.0165C40.1047 75.0165 40.6247 74.7085 40.9287 74.0925H42.4047C42.2047 74.7005 41.8407 75.2005 41.3127 75.5925C40.7927 75.9765 40.1447 76.1685 39.3687 76.1685C38.7367 76.1685 38.1687 76.0285 37.6647 75.7485C37.1687 75.4605 36.7767 75.0605 36.4887 74.5485C36.2087 74.0285 36.0687 73.4285 36.0687 72.7485C36.0687 72.0685 36.2047 71.4725 36.4767 70.9605C36.7567 70.4405 37.1447 70.0405 37.6407 69.7605C38.1447 69.4805 38.7207 69.3405 39.3687 69.3405C39.9927 69.3405 40.5487 69.4765 41.0367 69.7485C41.5247 70.0205 41.9047 70.4045 42.1767 70.9005C42.4487 71.3885 42.5847 71.9525 42.5847 72.5925ZM41.1567 72.1605C41.1487 71.6565 40.9687 71.2525 40.6167 70.9485C40.2647 70.6445 39.8287 70.4925 39.3087 70.4925C38.8367 70.4925 38.4327 70.6445 38.0967 70.9485C37.7607 71.2445 37.5607 71.6485 37.4967 72.1605H41.1567ZM46.4869 74.8365L48.3589 69.4485H49.8109L47.2909 76.0605H45.6589L43.1509 69.4485H44.6149L46.4869 74.8365ZM50.389 72.7245C50.389 72.0605 50.525 71.4725 50.797 70.9605C51.077 70.4485 51.453 70.0525 51.925 69.7725C52.405 69.4845 52.933 69.3405 53.509 69.3405C54.029 69.3405 54.481 69.4445 54.865 69.6525C55.257 69.8525 55.569 70.1045 55.801 70.4085V69.4485H57.181V76.0605H55.801V75.0765C55.569 75.3885 55.253 75.6485 54.853 75.8565C54.453 76.0645 53.997 76.1685 53.485 76.1685C52.917 76.1685 52.397 76.0245 51.925 75.7365C51.453 75.4405 51.077 75.0325 50.797 74.5125C50.525 73.9845 50.389 73.3885 50.389 72.7245ZM55.801 72.7485C55.801 72.2925 55.705 71.8965 55.513 71.5605C55.329 71.2245 55.085 70.9685 54.781 70.7925C54.477 70.6165 54.149 70.5285 53.797 70.5285C53.445 70.5285 53.117 70.6165 52.813 70.7925C52.509 70.9605 52.261 71.2125 52.069 71.5485C51.885 71.8765 51.793 72.2685 51.793 72.7245C51.793 73.1805 51.885 73.5805 52.069 73.9245C52.261 74.2685 52.509 74.5325 52.813 74.7165C53.125 74.8925 53.453 74.9805 53.797 74.9805C54.149 74.9805 54.477 74.8925 54.781 74.7165C55.085 74.5405 55.329 74.2845 55.513 73.9485C55.705 73.6045 55.801 73.2045 55.801 72.7485ZM63.463 68.8245V71.2725H66.343V72.3885H63.463V74.9445H66.703V76.0605H62.095V67.7085H66.703V68.8245H63.463ZM70.944 74.8365L72.816 69.4485H74.268L71.748 76.0605H70.116L67.608 69.4485H69.072L70.944 74.8365ZM81.362 72.5925C81.362 72.8405 81.346 73.0645 81.314 73.2645H76.262C76.302 73.7925 76.498 74.2165 76.85 74.5365C77.202 74.8565 77.634 75.0165 78.146 75.0165C78.882 75.0165 79.402 74.7085 79.706 74.0925H81.182C80.982 74.7005 80.618 75.2005 80.09 75.5925C79.57 75.9765 78.922 76.1685 78.146 76.1685C77.514 76.1685 76.946 76.0285 76.442 75.7485C75.946 75.4605 75.554 75.0605 75.266 74.5485C74.986 74.0285 74.846 73.4285 74.846 72.7485C74.846 72.0685 74.982 71.4725 75.254 70.9605C75.534 70.4405 75.922 70.0405 76.418 69.7605C76.922 69.4805 77.498 69.3405 78.146 69.3405C78.77 69.3405 79.326 69.4765 79.814 69.7485C80.302 70.0205 80.682 70.4045 80.954 70.9005C81.226 71.3885 81.362 71.9525 81.362 72.5925ZM79.934 72.1605C79.926 71.6565 79.746 71.2525 79.394 70.9485C79.042 70.6445 78.606 70.4925 78.086 70.4925C77.614 70.4925 77.21 70.6445 76.874 70.9485C76.538 71.2445 76.338 71.6485 76.274 72.1605H79.934ZM86.0443 69.3405C86.5643 69.3405 87.0283 69.4485 87.4363 69.6645C87.8523 69.8805 88.1763 70.2005 88.4083 70.6245C88.6403 71.0485 88.7563 71.5605 88.7563 72.1605V76.0605H87.4003V72.3645C87.4003 71.7725 87.2523 71.3205 86.9563 71.0085C86.6603 70.6885 86.2563 70.5285 85.7443 70.5285C85.2323 70.5285 84.8243 70.6885 84.5203 71.0085C84.2243 71.3205 84.0763 71.7725 84.0763 72.3645V76.0605H82.7083V69.4485H84.0763V70.2045C84.3003 69.9325 84.5843 69.7205 84.9283 69.5685C85.2803 69.4165 85.6523 69.3405 86.0443 69.3405ZM92.0973 70.5645V74.2245C92.0973 74.4725 92.1533 74.6525 92.2653 74.7645C92.3853 74.8685 92.5853 74.9205 92.8653 74.9205H93.7053V76.0605H92.6253C92.0093 76.0605 91.5373 75.9165 91.2093 75.6285C90.8813 75.3405 90.7173 74.8725 90.7173 74.2245V70.5645H89.9373V69.4485H90.7173V67.8045H92.0973V69.4485H93.7053V70.5645H92.0973ZM103.915 70.2045C103.915 70.6285 103.815 71.0285 103.615 71.4045C103.415 71.7805 103.095 72.0885 102.655 72.3285C102.215 72.5605 101.651 72.6765 100.963 72.6765H99.4513V76.0605H98.0833V67.7205H100.963C101.603 67.7205 102.143 67.8325 102.583 68.0565C103.031 68.2725 103.363 68.5685 103.579 68.9445C103.803 69.3205 103.915 69.7405 103.915 70.2045ZM100.963 71.5605C101.483 71.5605 101.871 71.4445 102.127 71.2125C102.383 70.9725 102.511 70.6365 102.511 70.2045C102.511 69.2925 101.995 68.8365 100.963 68.8365H99.4513V71.5605H100.963ZM106.588 70.4085C106.788 70.0725 107.052 69.8125 107.38 69.6285C107.716 69.4365 108.112 69.3405 108.568 69.3405V70.7565H108.22C107.684 70.7565 107.276 70.8925 106.996 71.1645C106.724 71.4365 106.588 71.9085 106.588 72.5805V76.0605H105.22V69.4485H106.588V70.4085ZM115.885 72.5925C115.885 72.8405 115.869 73.0645 115.837 73.2645H110.785C110.825 73.7925 111.021 74.2165 111.373 74.5365C111.725 74.8565 112.157 75.0165 112.669 75.0165C113.405 75.0165 113.925 74.7085 114.229 74.0925H115.705C115.505 74.7005 115.141 75.2005 114.613 75.5925C114.093 75.9765 113.445 76.1685 112.669 76.1685C112.037 76.1685 111.469 76.0285 110.965 75.7485C110.469 75.4605 110.077 75.0605 109.789 74.5485C109.509 74.0285 109.369 73.4285 109.369 72.7485C109.369 72.0685 109.505 71.4725 109.777 70.9605C110.057 70.4405 110.445 70.0405 110.941 69.7605C111.445 69.4805 112.021 69.3405 112.669 69.3405C113.293 69.3405 113.849 69.4765 114.337 69.7485C114.825 70.0205 115.205 70.4045 115.477 70.9005C115.749 71.3885 115.885 71.9525 115.885 72.5925ZM114.457 72.1605C114.449 71.6565 114.269 71.2525 113.917 70.9485C113.565 70.6445 113.129 70.4925 112.609 70.4925C112.137 70.4925 111.733 70.6445 111.397 70.9485C111.061 71.2445 110.861 71.6485 110.797 72.1605H114.457ZM118.6 70.4205C118.832 70.1165 119.148 69.8605 119.548 69.6525C119.948 69.4445 120.4 69.3405 120.904 69.3405C121.48 69.3405 122.004 69.4845 122.476 69.7725C122.956 70.0525 123.332 70.4485 123.604 70.9605C123.876 71.4725 124.012 72.0605 124.012 72.7245C124.012 73.3885 123.876 73.9845 123.604 74.5125C123.332 75.0325 122.956 75.4405 122.476 75.7365C122.004 76.0245 121.48 76.1685 120.904 76.1685C120.4 76.1685 119.952 76.0685 119.56 75.8685C119.168 75.6605 118.848 75.4045 118.6 75.1005V79.2045H117.232V69.4485H118.6V70.4205ZM122.62 72.7245C122.62 72.2685 122.524 71.8765 122.332 71.5485C122.148 71.2125 121.9 70.9605 121.588 70.7925C121.284 70.6165 120.956 70.5285 120.604 70.5285C120.26 70.5285 119.932 70.6165 119.62 70.7925C119.316 70.9685 119.068 71.2245 118.876 71.5605C118.692 71.8965 118.6 72.2925 118.6 72.7485C118.6 73.2045 118.692 73.6045 118.876 73.9485C119.068 74.2845 119.316 74.5405 119.62 74.7165C119.932 74.8925 120.26 74.9805 120.604 74.9805C120.956 74.9805 121.284 74.8925 121.588 74.7165C121.9 74.5325 122.148 74.2685 122.332 73.9245C122.524 73.5805 122.62 73.1805 122.62 72.7245ZM124.909 72.7245C124.909 72.0605 125.045 71.4725 125.317 70.9605C125.597 70.4485 125.973 70.0525 126.445 69.7725C126.925 69.4845 127.453 69.3405 128.029 69.3405C128.549 69.3405 129.001 69.4445 129.385 69.6525C129.777 69.8525 130.089 70.1045 130.321 70.4085V69.4485H131.701V76.0605H130.321V75.0765C130.089 75.3885 129.773 75.6485 129.373 75.8565C128.973 76.0645 128.517 76.1685 128.005 76.1685C127.437 76.1685 126.917 76.0245 126.445 75.7365C125.973 75.4405 125.597 75.0325 125.317 74.5125C125.045 73.9845 124.909 73.3885 124.909 72.7245ZM130.321 72.7485C130.321 72.2925 130.225 71.8965 130.033 71.5605C129.849 71.2245 129.605 70.9685 129.301 70.7925C128.997 70.6165 128.669 70.5285 128.317 70.5285C127.965 70.5285 127.637 70.6165 127.333 70.7925C127.029 70.9605 126.781 71.2125 126.589 71.5485C126.405 71.8765 126.313 72.2685 126.313 72.7245C126.313 73.1805 126.405 73.5805 126.589 73.9245C126.781 74.2685 127.029 74.5325 127.333 74.7165C127.645 74.8925 127.973 74.9805 128.317 74.9805C128.669 74.9805 128.997 74.8925 129.301 74.7165C129.605 74.5405 129.849 74.2845 130.033 73.9485C130.225 73.6045 130.321 73.2045 130.321 72.7485ZM134.865 70.4085C135.065 70.0725 135.329 69.8125 135.657 69.6285C135.993 69.4365 136.389 69.3405 136.845 69.3405V70.7565H136.497C135.961 70.7565 135.553 70.8925 135.273 71.1645C135.001 71.4365 134.865 71.9085 134.865 72.5805V76.0605H133.497V69.4485H134.865V70.4085ZM137.647 72.7245C137.647 72.0605 137.783 71.4725 138.055 70.9605C138.335 70.4485 138.711 70.0525 139.183 69.7725C139.663 69.4845 140.191 69.3405 140.767 69.3405C141.287 69.3405 141.739 69.4445 142.123 69.6525C142.515 69.8525 142.827 70.1045 143.059 70.4085V69.4485H144.439V76.0605H143.059V75.0765C142.827 75.3885 142.511 75.6485 142.111 75.8565C141.711 76.0645 141.255 76.1685 140.743 76.1685C140.175 76.1685 139.655 76.0245 139.183 75.7365C138.711 75.4405 138.335 75.0325 138.055 74.5125C137.783 73.9845 137.647 73.3885 137.647 72.7245ZM143.059 72.7485C143.059 72.2925 142.963 71.8965 142.771 71.5605C142.587 71.2245 142.343 70.9685 142.039 70.7925C141.735 70.6165 141.407 70.5285 141.055 70.5285C140.703 70.5285 140.375 70.6165 140.071 70.7925C139.767 70.9605 139.519 71.2125 139.327 71.5485C139.143 71.8765 139.051 72.2685 139.051 72.7245C139.051 73.1805 139.143 73.5805 139.327 73.9245C139.519 74.2685 139.767 74.5325 140.071 74.7165C140.383 74.8925 140.711 74.9805 141.055 74.9805C141.407 74.9805 141.735 74.8925 142.039 74.7165C142.343 74.5405 142.587 74.2845 142.771 73.9485C142.963 73.6045 143.059 73.2045 143.059 72.7485ZM147.832 70.5645V74.2245C147.832 74.4725 147.888 74.6525 148 74.7645C148.12 74.8685 148.32 74.9205 148.6 74.9205H149.44V76.0605H148.36C147.744 76.0605 147.272 75.9165 146.944 75.6285C146.616 75.3405 146.452 74.8725 146.452 74.2245V70.5645H145.672V69.4485H146.452V67.8045H147.832V69.4485H149.44V70.5645H147.832ZM151.396 68.5725C151.148 68.5725 150.94 68.4885 150.772 68.3205C150.604 68.1525 150.52 67.9445 150.52 67.6965C150.52 67.4485 150.604 67.2405 150.772 67.0725C150.94 66.9045 151.148 66.8205 151.396 66.8205C151.636 66.8205 151.84 66.9045 152.008 67.0725C152.176 67.2405 152.26 67.4485 152.26 67.6965C152.26 67.9445 152.176 68.1525 152.008 68.3205C151.84 68.4885 151.636 68.5725 151.396 68.5725ZM152.068 69.4485V76.0605H150.7V69.4485H152.068ZM156.733 76.1685C156.109 76.1685 155.545 76.0285 155.041 75.7485C154.537 75.4605 154.141 75.0605 153.853 74.5485C153.565 74.0285 153.421 73.4285 153.421 72.7485C153.421 72.0765 153.569 71.4805 153.865 70.9605C154.161 70.4405 154.565 70.0405 155.077 69.7605C155.589 69.4805 156.161 69.3405 156.793 69.3405C157.425 69.3405 157.997 69.4805 158.509 69.7605C159.021 70.0405 159.425 70.4405 159.721 70.9605C160.017 71.4805 160.165 72.0765 160.165 72.7485C160.165 73.4205 160.013 74.0165 159.709 74.5365C159.405 75.0565 158.989 75.4605 158.461 75.7485C157.941 76.0285 157.365 76.1685 156.733 76.1685ZM156.733 74.9805C157.085 74.9805 157.413 74.8965 157.717 74.7285C158.029 74.5605 158.281 74.3085 158.473 73.9725C158.665 73.6365 158.761 73.2285 158.761 72.7485C158.761 72.2685 158.669 71.8645 158.485 71.5365C158.301 71.2005 158.057 70.9485 157.753 70.7805C157.449 70.6125 157.121 70.5285 156.769 70.5285C156.417 70.5285 156.089 70.6125 155.785 70.7805C155.489 70.9485 155.253 71.2005 155.077 71.5365C154.901 71.8645 154.813 72.2685 154.813 72.7485C154.813 73.4605 154.993 74.0125 155.353 74.4045C155.721 74.7885 156.181 74.9805 156.733 74.9805ZM164.853 69.3405C165.373 69.3405 165.837 69.4485 166.245 69.6645C166.661 69.8805 166.985 70.2005 167.217 70.6245C167.449 71.0485 167.565 71.5605 167.565 72.1605V76.0605H166.209V72.3645C166.209 71.7725 166.061 71.3205 165.765 71.0085C165.469 70.6885 165.065 70.5285 164.553 70.5285C164.041 70.5285 163.633 70.6885 163.329 71.0085C163.033 71.3205 162.885 71.7725 162.885 72.3645V76.0605H161.517V69.4485H162.885V70.2045C163.109 69.9325 163.393 69.7205 163.737 69.5685C164.089 69.4165 164.461 69.3405 164.853 69.3405ZM178.871 76.0605L177.839 75.0285C177.439 75.4285 177.003 75.7285 176.531 75.9285C176.059 76.1205 175.531 76.2165 174.947 76.2165C174.355 76.2165 173.831 76.1125 173.375 75.9045C172.919 75.6965 172.567 75.4005 172.319 75.0165C172.071 74.6245 171.947 74.1725 171.947 73.6605C171.947 73.0845 172.111 72.5725 172.439 72.1245C172.767 71.6685 173.255 71.3085 173.903 71.0445C173.671 70.7645 173.507 70.5045 173.411 70.2645C173.315 70.0165 173.267 69.7445 173.267 69.4485C173.267 69.0805 173.359 68.7525 173.543 68.4645C173.735 68.1765 174.007 67.9485 174.359 67.7805C174.711 67.6125 175.119 67.5285 175.583 67.5285C176.055 67.5285 176.455 67.6205 176.783 67.8045C177.119 67.9805 177.367 68.2245 177.527 68.5365C177.695 68.8485 177.763 69.1965 177.731 69.5805H176.363C176.371 69.2845 176.299 69.0565 176.147 68.8965C175.995 68.7285 175.787 68.6445 175.523 68.6445C175.259 68.6445 175.043 68.7245 174.875 68.8845C174.715 69.0365 174.635 69.2245 174.635 69.4485C174.635 69.6645 174.695 69.8805 174.815 70.0965C174.943 70.3045 175.163 70.5765 175.475 70.9125L177.683 73.1085L178.535 71.7045H180.011L178.931 73.5525L178.631 74.0445L180.659 76.0605H178.871ZM174.947 75.0525C175.699 75.0525 176.363 74.7445 176.939 74.1285L174.731 71.9085C173.787 72.2845 173.315 72.8525 173.315 73.6125C173.315 74.0205 173.467 74.3645 173.771 74.6445C174.075 74.9165 174.467 75.0525 174.947 75.0525ZM76.9653 89.7765C77.4133 89.8565 77.7933 90.0925 78.1053 90.4845C78.4173 90.8765 78.5733 91.3205 78.5733 91.8165C78.5733 92.2405 78.4613 92.6245 78.2373 92.9685C78.0213 93.3045 77.7053 93.5725 77.2893 93.7725C76.8733 93.9645 76.3893 94.0605 75.8373 94.0605H72.5013V85.7205H75.6813C76.2493 85.7205 76.7373 85.8165 77.1453 86.0085C77.5533 86.2005 77.8613 86.4605 78.0693 86.7885C78.2773 87.1085 78.3813 87.4685 78.3813 87.8685C78.3813 88.3485 78.2533 88.7485 77.9973 89.0685C77.7413 89.3885 77.3973 89.6245 76.9653 89.7765ZM73.8693 89.2245H75.5613C76.0093 89.2245 76.3573 89.1245 76.6053 88.9245C76.8613 88.7165 76.9893 88.4205 76.9893 88.0365C76.9893 87.6605 76.8613 87.3685 76.6053 87.1605C76.3573 86.9445 76.0093 86.8365 75.5613 86.8365H73.8693V89.2245ZM75.7173 92.9445C76.1813 92.9445 76.5453 92.8325 76.8093 92.6085C77.0733 92.3845 77.2053 92.0725 77.2053 91.6725C77.2053 91.2645 77.0653 90.9405 76.7853 90.7005C76.5053 90.4605 76.1333 90.3405 75.6693 90.3405H73.8693V92.9445H75.7173ZM82.9279 94.1685C82.3039 94.1685 81.7399 94.0285 81.2359 93.7485C80.7319 93.4605 80.3359 93.0605 80.0479 92.5485C79.7599 92.0285 79.6159 91.4285 79.6159 90.7485C79.6159 90.0765 79.7639 89.4805 80.0599 88.9605C80.3559 88.4405 80.7599 88.0405 81.2719 87.7605C81.7839 87.4805 82.3559 87.3405 82.9879 87.3405C83.6199 87.3405 84.1919 87.4805 84.7039 87.7605C85.2159 88.0405 85.6199 88.4405 85.9159 88.9605C86.2119 89.4805 86.3599 90.0765 86.3599 90.7485C86.3599 91.4205 86.2079 92.0165 85.9039 92.5365C85.5999 93.0565 85.1839 93.4605 84.6559 93.7485C84.1359 94.0285 83.5599 94.1685 82.9279 94.1685ZM82.9279 92.9805C83.2799 92.9805 83.6079 92.8965 83.9119 92.7285C84.2239 92.5605 84.4759 92.3085 84.6679 91.9725C84.8599 91.6365 84.9559 91.2285 84.9559 90.7485C84.9559 90.2685 84.8639 89.8645 84.6799 89.5365C84.4959 89.2005 84.2519 88.9485 83.9479 88.7805C83.6439 88.6125 83.3159 88.5285 82.9639 88.5285C82.6119 88.5285 82.2839 88.6125 81.9799 88.7805C81.6839 88.9485 81.4479 89.2005 81.2719 89.5365C81.0959 89.8645 81.0079 90.2685 81.0079 90.7485C81.0079 91.4605 81.1879 92.0125 81.5479 92.4045C81.9159 92.7885 82.3759 92.9805 82.9279 92.9805ZM90.5802 94.1685C89.9562 94.1685 89.3922 94.0285 88.8882 93.7485C88.3842 93.4605 87.9882 93.0605 87.7002 92.5485C87.4122 92.0285 87.2682 91.4285 87.2682 90.7485C87.2682 90.0765 87.4162 89.4805 87.7122 88.9605C88.0082 88.4405 88.4122 88.0405 88.9242 87.7605C89.4362 87.4805 90.0082 87.3405 90.6402 87.3405C91.2722 87.3405 91.8442 87.4805 92.3562 87.7605C92.8682 88.0405 93.2722 88.4405 93.5682 88.9605C93.8642 89.4805 94.0122 90.0765 94.0122 90.7485C94.0122 91.4205 93.8602 92.0165 93.5562 92.5365C93.2522 93.0565 92.8362 93.4605 92.3082 93.7485C91.7882 94.0285 91.2122 94.1685 90.5802 94.1685ZM90.5802 92.9805C90.9322 92.9805 91.2602 92.8965 91.5642 92.7285C91.8762 92.5605 92.1282 92.3085 92.3202 91.9725C92.5122 91.6365 92.6082 91.2285 92.6082 90.7485C92.6082 90.2685 92.5162 89.8645 92.3322 89.5365C92.1482 89.2005 91.9042 88.9485 91.6002 88.7805C91.2962 88.6125 90.9682 88.5285 90.6162 88.5285C90.2642 88.5285 89.9362 88.6125 89.6322 88.7805C89.3362 88.9485 89.1002 89.2005 88.9242 89.5365C88.7482 89.8645 88.6602 90.2685 88.6602 90.7485C88.6602 91.4605 88.8402 92.0125 89.2002 92.4045C89.5682 92.7885 90.0282 92.9805 90.5802 92.9805ZM97.9805 90.7605L101.029 94.0605H99.1805L96.7325 91.2165V94.0605H95.3645V85.1805H96.7325V90.3405L99.1325 87.4485H101.029L97.9805 90.7605ZM102.705 86.5725C102.457 86.5725 102.249 86.4885 102.081 86.3205C101.913 86.1525 101.829 85.9445 101.829 85.6965C101.829 85.4485 101.913 85.2405 102.081 85.0725C102.249 84.9045 102.457 84.8205 102.705 84.8205C102.945 84.8205 103.149 84.9045 103.317 85.0725C103.485 85.2405 103.569 85.4485 103.569 85.6965C103.569 85.9445 103.485 86.1525 103.317 86.3205C103.149 86.4885 102.945 86.5725 102.705 86.5725ZM103.377 87.4485V94.0605H102.009V87.4485H103.377ZM108.509 87.3405C109.029 87.3405 109.493 87.4485 109.901 87.6645C110.317 87.8805 110.641 88.2005 110.873 88.6245C111.105 89.0485 111.221 89.5605 111.221 90.1605V94.0605H109.865V90.3645C109.865 89.7725 109.717 89.3205 109.421 89.0085C109.125 88.6885 108.721 88.5285 108.209 88.5285C107.697 88.5285 107.289 88.6885 106.985 89.0085C106.689 89.3205 106.541 89.7725 106.541 90.3645V94.0605H105.173V87.4485H106.541V88.2045C106.765 87.9325 107.049 87.7205 107.393 87.5685C107.745 87.4165 108.117 87.3405 108.509 87.3405ZM115.63 87.3405C116.142 87.3405 116.594 87.4445 116.986 87.6525C117.386 87.8525 117.698 88.1045 117.922 88.4085V87.4485H119.302V94.1685C119.302 94.7765 119.174 95.3165 118.918 95.7885C118.662 96.2685 118.29 96.6445 117.802 96.9165C117.322 97.1885 116.746 97.3245 116.074 97.3245C115.178 97.3245 114.434 97.1125 113.842 96.6885C113.25 96.2725 112.914 95.7045 112.834 94.9845H114.19C114.294 95.3285 114.514 95.6045 114.85 95.8125C115.194 96.0285 115.602 96.1365 116.074 96.1365C116.626 96.1365 117.07 95.9685 117.406 95.6325C117.75 95.2965 117.922 94.8085 117.922 94.1685V93.0645C117.69 93.3765 117.374 93.6405 116.974 93.8565C116.582 94.0645 116.134 94.1685 115.63 94.1685C115.054 94.1685 114.526 94.0245 114.046 93.7365C113.574 93.4405 113.198 93.0325 112.918 92.5125C112.646 91.9845 112.51 91.3885 112.51 90.7245C112.51 90.0605 112.646 89.4725 112.918 88.9605C113.198 88.4485 113.574 88.0525 114.046 87.7725C114.526 87.4845 115.054 87.3405 115.63 87.3405ZM117.922 90.7485C117.922 90.2925 117.826 89.8965 117.634 89.5605C117.45 89.2245 117.206 88.9685 116.902 88.7925C116.598 88.6165 116.27 88.5285 115.918 88.5285C115.566 88.5285 115.238 88.6165 114.934 88.7925C114.63 88.9605 114.382 89.2125 114.19 89.5485C114.006 89.8765 113.914 90.2685 113.914 90.7245C113.914 91.1805 114.006 91.5805 114.19 91.9245C114.382 92.2685 114.63 92.5325 114.934 92.7165C115.246 92.8925 115.574 92.9805 115.918 92.9805C116.27 92.9805 116.598 92.8925 116.902 92.7165C117.206 92.5405 117.45 92.2845 117.634 91.9485C117.826 91.6045 117.922 91.2045 117.922 90.7485Z" fill="white"/>
<circle cx="196.956" cy="18.9069" r="5.15639" fill="white"/>
<line x1="191.8" y1="18.477" x2="383.6" y2="18.477" stroke="white" stroke-width="0.859399"/>
<rect x="233.45" width="108.501" height="34.4692" rx="17.2346" fill="white"/>
<path d="M256.852 12.9364V20.7346H255.288V15.6624L253.199 20.7346H252.015L249.915 15.6624V20.7346H248.35V12.9364H250.127L252.607 18.7348L255.087 12.9364H256.852ZM259.407 13.8079C259.131 13.8079 258.9 13.7222 258.714 13.5509C258.535 13.3722 258.446 13.1524 258.446 12.8917C258.446 12.6311 258.535 12.4151 258.714 12.2438C258.9 12.065 259.131 11.9756 259.407 11.9756C259.682 11.9756 259.91 12.065 260.088 12.2438C260.275 12.4151 260.368 12.6311 260.368 12.8917C260.368 13.1524 260.275 13.3722 260.088 13.5509C259.91 13.7222 259.682 13.8079 259.407 13.8079ZM260.178 14.5452V20.7346H258.614V14.5452H260.178ZM261.536 17.6176C261.536 16.9919 261.659 16.4371 261.904 15.9529C262.158 15.4688 262.5 15.0964 262.932 14.8357C263.364 14.575 263.845 14.4447 264.374 14.4447C264.776 14.4447 265.159 14.5341 265.524 14.7128C265.889 14.8841 266.18 15.115 266.396 15.4055V12.4672H267.982V20.7346H266.396V19.8185C266.202 20.1239 265.93 20.3697 265.58 20.5559C265.23 20.7421 264.824 20.8352 264.362 20.8352C263.841 20.8352 263.364 20.7011 262.932 20.433C262.5 20.1648 262.158 19.7887 261.904 19.3046C261.659 18.813 261.536 18.2507 261.536 17.6176ZM266.407 17.6399C266.407 17.2601 266.332 16.9361 266.183 16.6679C266.034 16.3924 265.833 16.1838 265.58 16.0423C265.327 15.8933 265.055 15.8189 264.765 15.8189C264.474 15.8189 264.206 15.8896 263.96 16.0311C263.714 16.1726 263.513 16.3812 263.357 16.6568C263.208 16.9249 263.133 17.2452 263.133 17.6176C263.133 17.99 263.208 18.3177 263.357 18.6007C263.513 18.8763 263.714 19.0886 263.96 19.2375C264.213 19.3865 264.482 19.461 264.765 19.461C265.055 19.461 265.327 19.3902 265.58 19.2487C265.833 19.0998 266.034 18.8912 266.183 18.6231C266.332 18.3475 266.407 18.0198 266.407 17.6399ZM281.104 12.9364V20.7346H279.54V15.6624L277.45 20.7346H276.266L274.166 15.6624V20.7346H272.602V12.9364H274.378L276.858 18.7348L279.338 12.9364H281.104ZM282.463 17.6176C282.463 16.9919 282.586 16.4371 282.831 15.9529C283.085 15.4688 283.423 15.0964 283.848 14.8357C284.28 14.575 284.76 14.4447 285.289 14.4447C285.751 14.4447 286.153 14.5378 286.496 14.724C286.846 14.9102 287.125 15.1448 287.334 15.4278V14.5452H288.909V20.7346H287.334V19.8297C287.133 20.1201 286.853 20.3622 286.496 20.5559C286.146 20.7421 285.74 20.8352 285.278 20.8352C284.757 20.8352 284.28 20.7011 283.848 20.433C283.423 20.1648 283.085 19.7887 282.831 19.3046C282.586 18.813 282.463 18.2507 282.463 17.6176ZM287.334 17.6399C287.334 17.2601 287.259 16.9361 287.11 16.6679C286.961 16.3924 286.76 16.1838 286.507 16.0423C286.254 15.8933 285.982 15.8189 285.691 15.8189C285.401 15.8189 285.133 15.8896 284.887 16.0311C284.641 16.1726 284.44 16.3812 284.284 16.6568C284.135 16.9249 284.06 17.2452 284.06 17.6176C284.06 17.99 284.135 18.3177 284.284 18.6007C284.44 18.8763 284.641 19.0886 284.887 19.2375C285.14 19.3865 285.408 19.461 285.691 19.461C285.982 19.461 286.254 19.3902 286.507 19.2487C286.76 19.0998 286.961 18.8912 287.11 18.6231C287.259 18.3475 287.334 18.0198 287.334 17.6399ZM296.573 14.5452L292.741 23.6617H291.076L292.417 20.5782L289.936 14.5452H291.69L293.288 18.8689L294.908 14.5452H296.573ZM300.821 18.9694C301.536 18.3736 302.105 17.8783 302.53 17.4835C302.954 17.0813 303.308 16.6642 303.591 16.2322C303.874 15.8002 304.016 15.3757 304.016 14.9586C304.016 14.5787 303.926 14.2808 303.748 14.0648C303.569 13.8488 303.293 13.7408 302.921 13.7408C302.548 13.7408 302.262 13.8675 302.061 14.1207C301.86 14.3665 301.755 14.7054 301.748 15.1374H300.228C300.258 14.2436 300.523 13.5658 301.022 13.104C301.528 12.6422 302.169 12.4113 302.943 12.4113C303.792 12.4113 304.444 12.6385 304.898 13.0928C305.353 13.5397 305.58 14.1319 305.58 14.8692C305.58 15.4502 305.423 16.0051 305.111 16.5339C304.798 17.0627 304.44 17.5245 304.038 17.9192C303.636 18.3065 303.111 18.7758 302.463 19.3269H305.759V20.6229H300.24V19.461L300.821 18.9694ZM306.959 16.5562C306.959 15.2677 307.19 14.2585 307.652 13.5286C308.121 12.7986 308.896 12.4337 309.976 12.4337C311.056 12.4337 311.826 12.7986 312.288 13.5286C312.757 14.2585 312.992 15.2677 312.992 16.5562C312.992 17.8522 312.757 18.8689 312.288 19.6062C311.826 20.3436 311.056 20.7123 309.976 20.7123C308.896 20.7123 308.121 20.3436 307.652 19.6062C307.19 18.8689 306.959 17.8522 306.959 16.5562ZM311.45 16.5562C311.45 16.0051 311.413 15.5433 311.339 15.1709C311.272 14.791 311.13 14.4819 310.914 14.2436C310.705 14.0052 310.393 13.8861 309.976 13.8861C309.558 13.8861 309.242 14.0052 309.026 14.2436C308.817 14.4819 308.676 14.791 308.601 15.1709C308.534 15.5433 308.501 16.0051 308.501 16.5562C308.501 17.1223 308.534 17.599 308.601 17.9863C308.668 18.3661 308.81 18.6752 309.026 18.9136C309.242 19.1444 309.558 19.2599 309.976 19.2599C310.393 19.2599 310.709 19.1444 310.925 18.9136C311.141 18.6752 311.283 18.3661 311.35 17.9863C311.417 17.599 311.45 17.1223 311.45 16.5562ZM314.888 18.9694C315.603 18.3736 316.173 17.8783 316.597 17.4835C317.022 17.0813 317.376 16.6642 317.659 16.2322C317.942 15.8002 318.083 15.3757 318.083 14.9586C318.083 14.5787 317.994 14.2808 317.815 14.0648C317.636 13.8488 317.361 13.7408 316.989 13.7408C316.616 13.7408 316.329 13.8675 316.128 14.1207C315.927 14.3665 315.823 14.7054 315.815 15.1374H314.296C314.326 14.2436 314.59 13.5658 315.089 13.104C315.596 12.6422 316.236 12.4113 317.011 12.4113C317.86 12.4113 318.512 12.6385 318.966 13.0928C319.42 13.5397 319.647 14.1319 319.647 14.8692C319.647 15.4502 319.491 16.0051 319.178 16.5339C318.865 17.0627 318.508 17.5245 318.106 17.9192C317.704 18.3065 317.178 18.7758 316.53 19.3269H319.826V20.6229H314.307V19.461L314.888 18.9694ZM320.96 19.1482V17.9192L324.613 12.6906H326.434V17.7852H327.417V19.1482H326.434V20.7346H324.87V19.1482H320.96ZM324.97 14.3665L322.68 17.7852H324.97V14.3665Z" fill="#393858"/>
<path d="M224.054 70.1205C223.838 69.7045 223.538 69.3925 223.154 69.1845C222.77 68.9685 222.326 68.8605 221.822 68.8605C221.27 68.8605 220.778 68.9845 220.346 69.2325C219.914 69.4805 219.574 69.8325 219.326 70.2885C219.086 70.7445 218.966 71.2725 218.966 71.8725C218.966 72.4725 219.086 73.0045 219.326 73.4685C219.574 73.9245 219.914 74.2765 220.346 74.5245C220.778 74.7725 221.27 74.8965 221.822 74.8965C222.566 74.8965 223.17 74.6885 223.634 74.2725C224.098 73.8565 224.382 73.2925 224.486 72.5805H221.354V71.4885H225.95V72.5565C225.862 73.2045 225.63 73.8005 225.254 74.3445C224.886 74.8885 224.402 75.3245 223.802 75.6525C223.21 75.9725 222.55 76.1325 221.822 76.1325C221.038 76.1325 220.322 75.9525 219.674 75.5925C219.026 75.2245 218.51 74.7165 218.126 74.0685C217.75 73.4205 217.562 72.6885 217.562 71.8725C217.562 71.0565 217.75 70.3245 218.126 69.6765C218.51 69.0285 219.026 68.5245 219.674 68.1645C220.33 67.7965 221.046 67.6125 221.822 67.6125C222.71 67.6125 223.498 67.8325 224.186 68.2725C224.882 68.7045 225.386 69.3205 225.698 70.1205H224.054ZM233.359 72.5925C233.359 72.8405 233.343 73.0645 233.311 73.2645H228.259C228.299 73.7925 228.495 74.2165 228.847 74.5365C229.199 74.8565 229.631 75.0165 230.143 75.0165C230.879 75.0165 231.399 74.7085 231.703 74.0925H233.179C232.979 74.7005 232.615 75.2005 232.087 75.5925C231.567 75.9765 230.919 76.1685 230.143 76.1685C229.511 76.1685 228.943 76.0285 228.439 75.7485C227.943 75.4605 227.551 75.0605 227.263 74.5485C226.983 74.0285 226.843 73.4285 226.843 72.7485C226.843 72.0685 226.979 71.4725 227.251 70.9605C227.531 70.4405 227.919 70.0405 228.415 69.7605C228.919 69.4805 229.495 69.3405 230.143 69.3405C230.767 69.3405 231.323 69.4765 231.811 69.7485C232.299 70.0205 232.679 70.4045 232.951 70.9005C233.223 71.3885 233.359 71.9525 233.359 72.5925ZM231.931 72.1605C231.923 71.6565 231.743 71.2525 231.391 70.9485C231.039 70.6445 230.603 70.4925 230.083 70.4925C229.611 70.4925 229.207 70.6445 228.871 70.9485C228.535 71.2445 228.335 71.6485 228.271 72.1605H231.931ZM238.042 69.3405C238.562 69.3405 239.026 69.4485 239.434 69.6645C239.85 69.8805 240.174 70.2005 240.406 70.6245C240.638 71.0485 240.754 71.5605 240.754 72.1605V76.0605H239.398V72.3645C239.398 71.7725 239.25 71.3205 238.954 71.0085C238.658 70.6885 238.254 70.5285 237.742 70.5285C237.23 70.5285 236.822 70.6885 236.518 71.0085C236.222 71.3205 236.074 71.7725 236.074 72.3645V76.0605H234.706V69.4485H236.074V70.2045C236.298 69.9325 236.582 69.7205 236.926 69.5685C237.278 69.4165 237.65 69.3405 238.042 69.3405ZM248.559 72.5925C248.559 72.8405 248.543 73.0645 248.511 73.2645H243.459C243.499 73.7925 243.695 74.2165 244.047 74.5365C244.399 74.8565 244.831 75.0165 245.343 75.0165C246.079 75.0165 246.599 74.7085 246.903 74.0925H248.379C248.179 74.7005 247.815 75.2005 247.287 75.5925C246.767 75.9765 246.119 76.1685 245.343 76.1685C244.711 76.1685 244.143 76.0285 243.639 75.7485C243.143 75.4605 242.751 75.0605 242.463 74.5485C242.183 74.0285 242.043 73.4285 242.043 72.7485C242.043 72.0685 242.179 71.4725 242.451 70.9605C242.731 70.4405 243.119 70.0405 243.615 69.7605C244.119 69.4805 244.695 69.3405 245.343 69.3405C245.967 69.3405 246.523 69.4765 247.011 69.7485C247.499 70.0205 247.879 70.4045 248.151 70.9005C248.423 71.3885 248.559 71.9525 248.559 72.5925ZM247.131 72.1605C247.123 71.6565 246.943 71.2525 246.591 70.9485C246.239 70.6445 245.803 70.4925 245.283 70.4925C244.811 70.4925 244.407 70.6445 244.071 70.9485C243.735 71.2445 243.535 71.6485 243.471 72.1605H247.131ZM252.461 74.8365L254.333 69.4485H255.785L253.265 76.0605H251.633L249.125 69.4485H250.589L252.461 74.8365ZM256.363 72.7245C256.363 72.0605 256.499 71.4725 256.771 70.9605C257.051 70.4485 257.427 70.0525 257.899 69.7725C258.379 69.4845 258.907 69.3405 259.483 69.3405C260.003 69.3405 260.455 69.4445 260.839 69.6525C261.231 69.8525 261.543 70.1045 261.775 70.4085V69.4485H263.155V76.0605H261.775V75.0765C261.543 75.3885 261.227 75.6485 260.827 75.8565C260.427 76.0645 259.971 76.1685 259.459 76.1685C258.891 76.1685 258.371 76.0245 257.899 75.7365C257.427 75.4405 257.051 75.0325 256.771 74.5125C256.499 73.9845 256.363 73.3885 256.363 72.7245ZM261.775 72.7485C261.775 72.2925 261.679 71.8965 261.487 71.5605C261.303 71.2245 261.059 70.9685 260.755 70.7925C260.451 70.6165 260.123 70.5285 259.771 70.5285C259.419 70.5285 259.091 70.6165 258.787 70.7925C258.483 70.9605 258.235 71.2125 258.043 71.5485C257.859 71.8765 257.767 72.2685 257.767 72.7245C257.767 73.1805 257.859 73.5805 258.043 73.9245C258.235 74.2685 258.483 74.5325 258.787 74.7165C259.099 74.8925 259.427 74.9805 259.771 74.9805C260.123 74.9805 260.451 74.8925 260.755 74.7165C261.059 74.5405 261.303 74.2845 261.487 73.9485C261.679 73.6045 261.775 73.2045 261.775 72.7485ZM269.437 68.8245V71.2725H272.317V72.3885H269.437V74.9445H272.677V76.0605H268.069V67.7085H272.677V68.8245H269.437ZM276.918 74.8365L278.79 69.4485H280.242L277.722 76.0605H276.09L273.582 69.4485H275.046L276.918 74.8365ZM287.336 72.5925C287.336 72.8405 287.32 73.0645 287.288 73.2645H282.236C282.276 73.7925 282.472 74.2165 282.824 74.5365C283.176 74.8565 283.608 75.0165 284.12 75.0165C284.856 75.0165 285.376 74.7085 285.68 74.0925H287.156C286.956 74.7005 286.592 75.2005 286.064 75.5925C285.544 75.9765 284.896 76.1685 284.12 76.1685C283.488 76.1685 282.92 76.0285 282.416 75.7485C281.92 75.4605 281.528 75.0605 281.24 74.5485C280.96 74.0285 280.82 73.4285 280.82 72.7485C280.82 72.0685 280.956 71.4725 281.228 70.9605C281.508 70.4405 281.896 70.0405 282.392 69.7605C282.896 69.4805 283.472 69.3405 284.12 69.3405C284.744 69.3405 285.3 69.4765 285.788 69.7485C286.276 70.0205 286.656 70.4045 286.928 70.9005C287.2 71.3885 287.336 71.9525 287.336 72.5925ZM285.908 72.1605C285.9 71.6565 285.72 71.2525 285.368 70.9485C285.016 70.6445 284.58 70.4925 284.06 70.4925C283.588 70.4925 283.184 70.6445 282.848 70.9485C282.512 71.2445 282.312 71.6485 282.248 72.1605H285.908ZM292.018 69.3405C292.538 69.3405 293.002 69.4485 293.41 69.6645C293.826 69.8805 294.15 70.2005 294.382 70.6245C294.614 71.0485 294.73 71.5605 294.73 72.1605V76.0605H293.374V72.3645C293.374 71.7725 293.226 71.3205 292.93 71.0085C292.634 70.6885 292.23 70.5285 291.718 70.5285C291.206 70.5285 290.798 70.6885 290.494 71.0085C290.198 71.3205 290.05 71.7725 290.05 72.3645V76.0605H288.682V69.4485H290.05V70.2045C290.274 69.9325 290.558 69.7205 290.902 69.5685C291.254 69.4165 291.626 69.3405 292.018 69.3405ZM298.071 70.5645V74.2245C298.071 74.4725 298.127 74.6525 298.239 74.7645C298.359 74.8685 298.559 74.9205 298.839 74.9205H299.679V76.0605H298.599C297.983 76.0605 297.511 75.9165 297.183 75.6285C296.855 75.3405 296.691 74.8725 296.691 74.2245V70.5645H295.911V69.4485H296.691V67.8045H298.071V69.4485H299.679V70.5645H298.071ZM303.601 72.7245C303.601 72.0605 303.737 71.4725 304.009 70.9605C304.289 70.4485 304.665 70.0525 305.137 69.7725C305.617 69.4845 306.149 69.3405 306.733 69.3405C307.165 69.3405 307.589 69.4365 308.005 69.6285C308.429 69.8125 308.765 70.0605 309.013 70.3725V67.1805H310.393V76.0605H309.013V75.0645C308.789 75.3845 308.477 75.6485 308.077 75.8565C307.685 76.0645 307.233 76.1685 306.721 76.1685C306.145 76.1685 305.617 76.0245 305.137 75.7365C304.665 75.4405 304.289 75.0325 304.009 74.5125C303.737 73.9845 303.601 73.3885 303.601 72.7245ZM309.013 72.7485C309.013 72.2925 308.917 71.8965 308.725 71.5605C308.541 71.2245 308.297 70.9685 307.993 70.7925C307.689 70.6165 307.361 70.5285 307.009 70.5285C306.657 70.5285 306.329 70.6165 306.025 70.7925C305.721 70.9605 305.473 71.2125 305.281 71.5485C305.097 71.8765 305.005 72.2685 305.005 72.7245C305.005 73.1805 305.097 73.5805 305.281 73.9245C305.473 74.2685 305.721 74.5325 306.025 74.7165C306.337 74.8925 306.665 74.9805 307.009 74.9805C307.361 74.9805 307.689 74.8925 307.993 74.7165C308.297 74.5405 308.541 74.2845 308.725 73.9485C308.917 73.6045 309.013 73.2045 309.013 72.7485ZM311.734 72.7245C311.734 72.0605 311.87 71.4725 312.142 70.9605C312.422 70.4485 312.798 70.0525 313.27 69.7725C313.75 69.4845 314.278 69.3405 314.854 69.3405C315.374 69.3405 315.826 69.4445 316.21 69.6525C316.602 69.8525 316.914 70.1045 317.146 70.4085V69.4485H318.526V76.0605H317.146V75.0765C316.914 75.3885 316.598 75.6485 316.198 75.8565C315.798 76.0645 315.342 76.1685 314.83 76.1685C314.262 76.1685 313.742 76.0245 313.27 75.7365C312.798 75.4405 312.422 75.0325 312.142 74.5125C311.87 73.9845 311.734 73.3885 311.734 72.7245ZM317.146 72.7485C317.146 72.2925 317.05 71.8965 316.858 71.5605C316.674 71.2245 316.43 70.9685 316.126 70.7925C315.822 70.6165 315.494 70.5285 315.142 70.5285C314.79 70.5285 314.462 70.6165 314.158 70.7925C313.854 70.9605 313.606 71.2125 313.414 71.5485C313.23 71.8765 313.138 72.2685 313.138 72.7245C313.138 73.1805 313.23 73.5805 313.414 73.9245C313.606 74.2685 313.854 74.5325 314.158 74.7165C314.47 74.8925 314.798 74.9805 315.142 74.9805C315.494 74.9805 315.822 74.8925 316.126 74.7165C316.43 74.5405 316.674 74.2845 316.858 73.9485C317.05 73.6045 317.146 73.2045 317.146 72.7485ZM326.275 69.4485L322.219 79.1685H320.803L322.147 75.9525L319.543 69.4485H321.067L322.927 74.4885L324.859 69.4485H326.275ZM332.383 71.1405V72.2925H327.451V71.1405H332.383ZM337.195 76.1685C336.571 76.1685 336.007 76.0285 335.503 75.7485C334.999 75.4605 334.603 75.0605 334.315 74.5485C334.027 74.0285 333.883 73.4285 333.883 72.7485C333.883 72.0765 334.031 71.4805 334.327 70.9605C334.623 70.4405 335.027 70.0405 335.539 69.7605C336.051 69.4805 336.623 69.3405 337.255 69.3405C337.887 69.3405 338.459 69.4805 338.971 69.7605C339.483 70.0405 339.887 70.4405 340.183 70.9605C340.479 71.4805 340.627 72.0765 340.627 72.7485C340.627 73.4205 340.475 74.0165 340.171 74.5365C339.867 75.0565 339.451 75.4605 338.923 75.7485C338.403 76.0285 337.827 76.1685 337.195 76.1685ZM337.195 74.9805C337.547 74.9805 337.875 74.8965 338.179 74.7285C338.491 74.5605 338.743 74.3085 338.935 73.9725C339.127 73.6365 339.223 73.2285 339.223 72.7485C339.223 72.2685 339.131 71.8645 338.947 71.5365C338.763 71.2005 338.519 70.9485 338.215 70.7805C337.911 70.6125 337.583 70.5285 337.231 70.5285C336.879 70.5285 336.551 70.6125 336.247 70.7805C335.951 70.9485 335.715 71.2005 335.539 71.5365C335.363 71.8645 335.275 72.2685 335.275 72.7485C335.275 73.4605 335.455 74.0125 335.815 74.4045C336.183 74.7885 336.643 74.9805 337.195 74.9805ZM344.751 70.5645H343.527V76.0605H342.147V70.5645H341.367V69.4485H342.147V68.9805C342.147 68.2205 342.347 67.6685 342.747 67.3245C343.155 66.9725 343.791 66.7965 344.655 66.7965V67.9365C344.239 67.9365 343.947 68.0165 343.779 68.1765C343.611 68.3285 343.527 68.5965 343.527 68.9805V69.4485H344.751V70.5645ZM352.105 78.2925C351.321 77.5405 350.717 76.5845 350.293 75.4245C349.877 74.2645 349.669 73.0205 349.669 71.6925C349.669 70.3325 349.893 69.0485 350.341 67.8405C350.797 66.6325 351.465 65.6365 352.345 64.8525H353.761V64.9845C352.841 65.8325 352.149 66.8485 351.685 68.0325C351.221 69.2165 350.989 70.4365 350.989 71.6925C350.989 72.9005 351.205 74.0685 351.637 75.1965C352.069 76.3245 352.697 77.3125 353.521 78.1605V78.2925H352.105ZM354.627 68.5605V67.3125H357.123V76.0605H355.743V68.5605H354.627ZM278.847 87.4485L276.795 94.0605H275.355L274.023 89.1765L272.691 94.0605H271.251L269.187 87.4485H270.579L271.959 92.7645L273.363 87.4485H274.791L276.135 92.7405L277.503 87.4485H278.847ZM285.93 90.5925C285.93 90.8405 285.914 91.0645 285.882 91.2645H280.83C280.87 91.7925 281.066 92.2165 281.418 92.5365C281.77 92.8565 282.202 93.0165 282.714 93.0165C283.45 93.0165 283.97 92.7085 284.274 92.0925H285.75C285.55 92.7005 285.186 93.2005 284.658 93.5925C284.138 93.9765 283.49 94.1685 282.714 94.1685C282.082 94.1685 281.514 94.0285 281.01 93.7485C280.514 93.4605 280.122 93.0605 279.834 92.5485C279.554 92.0285 279.414 91.4285 279.414 90.7485C279.414 90.0685 279.55 89.4725 279.822 88.9605C280.102 88.4405 280.49 88.0405 280.986 87.7605C281.49 87.4805 282.066 87.3405 282.714 87.3405C283.338 87.3405 283.894 87.4765 284.382 87.7485C284.87 88.0205 285.25 88.4045 285.522 88.9005C285.794 89.3885 285.93 89.9525 285.93 90.5925ZM284.502 90.1605C284.494 89.6565 284.314 89.2525 283.962 88.9485C283.61 88.6445 283.174 88.4925 282.654 88.4925C282.182 88.4925 281.778 88.6445 281.442 88.9485C281.106 89.2445 280.906 89.6485 280.842 90.1605H284.502ZM293.336 90.5925C293.336 90.8405 293.32 91.0645 293.288 91.2645H288.236C288.276 91.7925 288.472 92.2165 288.824 92.5365C289.176 92.8565 289.608 93.0165 290.12 93.0165C290.856 93.0165 291.376 92.7085 291.68 92.0925H293.156C292.956 92.7005 292.592 93.2005 292.064 93.5925C291.544 93.9765 290.896 94.1685 290.12 94.1685C289.488 94.1685 288.92 94.0285 288.416 93.7485C287.92 93.4605 287.528 93.0605 287.24 92.5485C286.96 92.0285 286.82 91.4285 286.82 90.7485C286.82 90.0685 286.956 89.4725 287.228 88.9605C287.508 88.4405 287.896 88.0405 288.392 87.7605C288.896 87.4805 289.472 87.3405 290.12 87.3405C290.744 87.3405 291.3 87.4765 291.788 87.7485C292.276 88.0205 292.656 88.4045 292.928 88.9005C293.2 89.3885 293.336 89.9525 293.336 90.5925ZM291.908 90.1605C291.9 89.6565 291.72 89.2525 291.368 88.9485C291.016 88.6445 290.58 88.4925 290.06 88.4925C289.588 88.4925 289.184 88.6445 288.848 88.9485C288.512 89.2445 288.312 89.6485 288.248 90.1605H291.908ZM297.298 90.7605L300.346 94.0605H298.498L296.05 91.2165V94.0605H294.682V85.1805H296.05V90.3405L298.45 87.4485H300.346L297.298 90.7605ZM300.991 96.2925V96.1605C301.815 95.3125 302.443 94.3245 302.875 93.1965C303.307 92.0685 303.523 90.9005 303.523 89.6925C303.523 88.4365 303.291 87.2165 302.827 86.0325C302.363 84.8485 301.671 83.8325 300.751 82.9845V82.8525H302.167C303.047 83.6365 303.711 84.6325 304.159 85.8405C304.615 87.0485 304.843 88.3325 304.843 89.6925C304.843 91.0205 304.631 92.2645 304.207 93.4245C303.791 94.5845 303.191 95.5405 302.407 96.2925H300.991Z" fill="white"/>
<circle cx="388.757" cy="18.9069" r="5.15639" fill="white"/>
<line x1="383.6" y1="18.477" x2="575.4" y2="18.477" stroke="white" stroke-width="0.859399"/>
<rect x="423.75" width="111.501" height="34.4692" rx="17.2346" fill="white"/>
<path d="M440.009 19.4945H442.578V20.7346H438.445V12.9364H440.009V19.4945ZM443.385 17.6176C443.385 16.9919 443.508 16.4371 443.754 15.9529C444.007 15.4688 444.346 15.0964 444.771 14.8357C445.203 14.575 445.683 14.4447 446.212 14.4447C446.674 14.4447 447.076 14.5378 447.418 14.724C447.768 14.9102 448.048 15.1448 448.256 15.4278V14.5452H449.832V20.7346H448.256V19.8297C448.055 20.1201 447.776 20.3622 447.418 20.5559C447.068 20.7421 446.662 20.8352 446.201 20.8352C445.679 20.8352 445.203 20.7011 444.771 20.433C444.346 20.1648 444.007 19.7887 443.754 19.3046C443.508 18.813 443.385 18.2507 443.385 17.6176ZM448.256 17.6399C448.256 17.2601 448.182 16.9361 448.033 16.6679C447.884 16.3924 447.683 16.1838 447.43 16.0423C447.176 15.8933 446.904 15.8189 446.614 15.8189C446.323 15.8189 446.055 15.8896 445.81 16.0311C445.564 16.1726 445.363 16.3812 445.206 16.6568C445.057 16.9249 444.983 17.2452 444.983 17.6176C444.983 17.99 445.057 18.3177 445.206 18.6007C445.363 18.8763 445.564 19.0886 445.81 19.2375C446.063 19.3865 446.331 19.461 446.614 19.461C446.904 19.461 447.176 19.3902 447.43 19.2487C447.683 19.0998 447.884 18.8912 448.033 18.6231C448.182 18.3475 448.256 18.0198 448.256 17.6399ZM453.395 15.83V18.8242C453.395 19.0327 453.443 19.1854 453.54 19.2822C453.645 19.3716 453.816 19.4163 454.054 19.4163H454.78V20.7346H453.797C452.479 20.7346 451.82 20.0941 451.82 18.813V15.83H451.082V14.5452H451.82V13.0146H453.395V14.5452H454.78V15.83H453.395ZM461.874 17.5059C461.874 17.7293 461.859 17.9304 461.829 18.1092H457.305C457.342 18.556 457.498 18.9061 457.774 19.1593C458.049 19.4126 458.388 19.5392 458.79 19.5392C459.371 19.5392 459.785 19.2897 460.031 18.7907H461.718C461.539 19.3865 461.196 19.8781 460.69 20.2654C460.183 20.6452 459.561 20.8352 458.824 20.8352C458.228 20.8352 457.692 20.7048 457.215 20.4441C456.746 20.176 456.377 19.7999 456.109 19.3158C455.848 18.8316 455.718 18.273 455.718 17.6399C455.718 16.9994 455.848 16.4371 456.109 15.9529C456.37 15.4688 456.735 15.0964 457.204 14.8357C457.673 14.575 458.213 14.4447 458.824 14.4447C459.412 14.4447 459.937 14.5713 460.399 14.8245C460.868 15.0778 461.23 15.439 461.483 15.9082C461.744 16.37 461.874 16.9026 461.874 17.5059ZM460.254 17.059C460.247 16.6568 460.101 16.3365 459.818 16.0982C459.535 15.8524 459.189 15.7295 458.779 15.7295C458.392 15.7295 458.064 15.8487 457.796 16.087C457.535 16.3179 457.375 16.6419 457.316 17.059H460.254ZM474.609 12.9364V20.7346H473.045V15.6624L470.956 20.7346H469.772L467.672 15.6624V20.7346H466.107V12.9364H467.884L470.364 18.7348L472.844 12.9364H474.609ZM475.968 17.6176C475.968 16.9919 476.091 16.4371 476.337 15.9529C476.59 15.4688 476.929 15.0964 477.354 14.8357C477.786 14.575 478.266 14.4447 478.795 14.4447C479.257 14.4447 479.659 14.5378 480.002 14.724C480.352 14.9102 480.631 15.1448 480.84 15.4278V14.5452H482.415V20.7346H480.84V19.8297C480.638 20.1201 480.359 20.3622 480.002 20.5559C479.652 20.7421 479.246 20.8352 478.784 20.8352C478.263 20.8352 477.786 20.7011 477.354 20.433C476.929 20.1648 476.59 19.7887 476.337 19.3046C476.091 18.813 475.968 18.2507 475.968 17.6176ZM480.84 17.6399C480.84 17.2601 480.765 16.9361 480.616 16.6679C480.467 16.3924 480.266 16.1838 480.013 16.0423C479.76 15.8933 479.488 15.8189 479.197 15.8189C478.907 15.8189 478.639 15.8896 478.393 16.0311C478.147 16.1726 477.946 16.3812 477.79 16.6568C477.641 16.9249 477.566 17.2452 477.566 17.6176C477.566 17.99 477.641 18.3177 477.79 18.6007C477.946 18.8763 478.147 19.0886 478.393 19.2375C478.646 19.3865 478.914 19.461 479.197 19.461C479.488 19.461 479.76 19.3902 480.013 19.2487C480.266 19.0998 480.467 18.8912 480.616 18.6231C480.765 18.3475 480.84 18.0198 480.84 17.6399ZM490.079 14.5452L486.246 23.6617H484.582L485.923 20.5782L483.442 14.5452H485.196L486.794 18.8689L488.414 14.5452H490.079ZM494.326 18.9694C495.041 18.3736 495.611 17.8783 496.036 17.4835C496.46 17.0813 496.814 16.6642 497.097 16.2322C497.38 15.8002 497.522 15.3757 497.522 14.9586C497.522 14.5787 497.432 14.2808 497.253 14.0648C497.075 13.8488 496.799 13.7408 496.427 13.7408C496.054 13.7408 495.768 13.8675 495.566 14.1207C495.365 14.3665 495.261 14.7054 495.254 15.1374H493.734C493.764 14.2436 494.028 13.5658 494.527 13.104C495.034 12.6422 495.674 12.4113 496.449 12.4113C497.298 12.4113 497.95 12.6385 498.404 13.0928C498.859 13.5397 499.086 14.1319 499.086 14.8692C499.086 15.4502 498.929 16.0051 498.616 16.5339C498.304 17.0627 497.946 17.5245 497.544 17.9192C497.142 18.3065 496.617 18.7758 495.969 19.3269H499.264V20.6229H493.745V19.461L494.326 18.9694ZM500.465 16.5562C500.465 15.2677 500.696 14.2585 501.158 13.5286C501.627 12.7986 502.401 12.4337 503.481 12.4337C504.561 12.4337 505.332 12.7986 505.794 13.5286C506.263 14.2585 506.498 15.2677 506.498 16.5562C506.498 17.8522 506.263 18.8689 505.794 19.6062C505.332 20.3436 504.561 20.7123 503.481 20.7123C502.401 20.7123 501.627 20.3436 501.158 19.6062C500.696 18.8689 500.465 17.8522 500.465 16.5562ZM504.956 16.5562C504.956 16.0051 504.919 15.5433 504.844 15.1709C504.777 14.791 504.636 14.4819 504.42 14.2436C504.211 14.0052 503.898 13.8861 503.481 13.8861C503.064 13.8861 502.748 14.0052 502.532 14.2436C502.323 14.4819 502.182 14.791 502.107 15.1709C502.04 15.5433 502.007 16.0051 502.007 16.5562C502.007 17.1223 502.04 17.599 502.107 17.9863C502.174 18.3661 502.316 18.6752 502.532 18.9136C502.748 19.1444 503.064 19.2599 503.481 19.2599C503.898 19.2599 504.215 19.1444 504.431 18.9136C504.647 18.6752 504.789 18.3661 504.856 17.9863C504.923 17.599 504.956 17.1223 504.956 16.5562ZM508.394 18.9694C509.109 18.3736 509.679 17.8783 510.103 17.4835C510.528 17.0813 510.882 16.6642 511.165 16.2322C511.448 15.8002 511.589 15.3757 511.589 14.9586C511.589 14.5787 511.5 14.2808 511.321 14.0648C511.142 13.8488 510.867 13.7408 510.494 13.7408C510.122 13.7408 509.835 13.8675 509.634 14.1207C509.433 14.3665 509.329 14.7054 509.321 15.1374H507.802C507.832 14.2436 508.096 13.5658 508.595 13.104C509.102 12.6422 509.742 12.4113 510.517 12.4113C511.366 12.4113 512.017 12.6385 512.472 13.0928C512.926 13.5397 513.153 14.1319 513.153 14.8692C513.153 15.4502 512.997 16.0051 512.684 16.5339C512.371 17.0627 512.014 17.5245 511.612 17.9192C511.209 18.3065 510.684 18.7758 510.036 19.3269H513.332V20.6229H507.813V19.461L508.394 18.9694ZM514.465 19.1482V17.9192L518.119 12.6906H519.94V17.7852H520.923V19.1482H519.94V20.7346H518.376V19.1482H514.465ZM518.476 14.3665L516.186 17.7852H518.476V14.3665Z" fill="#393858"/>
<path d="M410.089 71.8725C410.089 71.0565 410.277 70.3245 410.653 69.6765C411.037 69.0285 411.553 68.5245 412.201 68.1645C412.857 67.7965 413.573 67.6125 414.349 67.6125C415.237 67.6125 416.025 67.8325 416.713 68.2725C417.409 68.7045 417.913 69.3205 418.225 70.1205H416.581C416.365 69.6805 416.065 69.3525 415.681 69.1365C415.297 68.9205 414.853 68.8125 414.349 68.8125C413.797 68.8125 413.305 68.9365 412.873 69.1845C412.441 69.4325 412.101 69.7885 411.853 70.2525C411.613 70.7165 411.493 71.2565 411.493 71.8725C411.493 72.4885 411.613 73.0285 411.853 73.4925C412.101 73.9565 412.441 74.3165 412.873 74.5725C413.305 74.8205 413.797 74.9445 414.349 74.9445C414.853 74.9445 415.297 74.8365 415.681 74.6205C416.065 74.4045 416.365 74.0765 416.581 73.6365H418.225C417.913 74.4365 417.409 75.0525 416.713 75.4845C416.025 75.9165 415.237 76.1325 414.349 76.1325C413.565 76.1325 412.849 75.9525 412.201 75.5925C411.553 75.2245 411.037 74.7165 410.653 74.0685C410.277 73.4205 410.089 72.6885 410.089 71.8725ZM421.194 67.1805V76.0605H419.826V67.1805H421.194ZM425.858 76.1685C425.234 76.1685 424.67 76.0285 424.166 75.7485C423.662 75.4605 423.266 75.0605 422.978 74.5485C422.69 74.0285 422.546 73.4285 422.546 72.7485C422.546 72.0765 422.694 71.4805 422.99 70.9605C423.286 70.4405 423.69 70.0405 424.202 69.7605C424.714 69.4805 425.286 69.3405 425.918 69.3405C426.55 69.3405 427.122 69.4805 427.634 69.7605C428.146 70.0405 428.55 70.4405 428.846 70.9605C429.142 71.4805 429.29 72.0765 429.29 72.7485C429.29 73.4205 429.138 74.0165 428.834 74.5365C428.53 75.0565 428.114 75.4605 427.586 75.7485C427.066 76.0285 426.49 76.1685 425.858 76.1685ZM425.858 74.9805C426.21 74.9805 426.538 74.8965 426.842 74.7285C427.154 74.5605 427.406 74.3085 427.598 73.9725C427.79 73.6365 427.886 73.2285 427.886 72.7485C427.886 72.2685 427.794 71.8645 427.61 71.5365C427.426 71.2005 427.182 70.9485 426.878 70.7805C426.574 70.6125 426.246 70.5285 425.894 70.5285C425.542 70.5285 425.214 70.6125 424.91 70.7805C424.614 70.9485 424.378 71.2005 424.202 71.5365C424.026 71.8645 423.938 72.2685 423.938 72.7485C423.938 73.4605 424.118 74.0125 424.478 74.4045C424.846 74.7885 425.306 74.9805 425.858 74.9805ZM433.042 76.1685C432.522 76.1685 432.054 76.0765 431.638 75.8925C431.23 75.7005 430.906 75.4445 430.666 75.1245C430.426 74.7965 430.298 74.4325 430.282 74.0325H431.698C431.722 74.3125 431.854 74.5485 432.094 74.7405C432.342 74.9245 432.65 75.0165 433.018 75.0165C433.402 75.0165 433.698 74.9445 433.906 74.8005C434.122 74.6485 434.23 74.4565 434.23 74.2245C434.23 73.9765 434.11 73.7925 433.87 73.6725C433.638 73.5525 433.266 73.4205 432.754 73.2765C432.258 73.1405 431.854 73.0085 431.542 72.8805C431.23 72.7525 430.958 72.5565 430.726 72.2925C430.502 72.0285 430.39 71.6805 430.39 71.2485C430.39 70.8965 430.494 70.5765 430.702 70.2885C430.91 69.9925 431.206 69.7605 431.59 69.5925C431.982 69.4245 432.43 69.3405 432.934 69.3405C433.686 69.3405 434.29 69.5325 434.746 69.9165C435.21 70.2925 435.458 70.8085 435.49 71.4645H434.122C434.098 71.1685 433.978 70.9325 433.762 70.7565C433.546 70.5805 433.254 70.4925 432.886 70.4925C432.526 70.4925 432.25 70.5605 432.058 70.6965C431.866 70.8325 431.77 71.0125 431.77 71.2365C431.77 71.4125 431.834 71.5605 431.962 71.6805C432.09 71.8005 432.246 71.8965 432.43 71.9685C432.614 72.0325 432.886 72.1165 433.246 72.2205C433.726 72.3485 434.118 72.4805 434.422 72.6165C434.734 72.7445 435.002 72.9365 435.226 73.1925C435.45 73.4485 435.566 73.7885 435.574 74.2125C435.574 74.5885 435.47 74.9245 435.262 75.2205C435.054 75.5165 434.758 75.7485 434.374 75.9165C433.998 76.0845 433.554 76.1685 433.042 76.1685ZM443.113 72.5925C443.113 72.8405 443.097 73.0645 443.065 73.2645H438.013C438.053 73.7925 438.249 74.2165 438.601 74.5365C438.953 74.8565 439.385 75.0165 439.897 75.0165C440.633 75.0165 441.153 74.7085 441.457 74.0925H442.933C442.733 74.7005 442.369 75.2005 441.841 75.5925C441.321 75.9765 440.673 76.1685 439.897 76.1685C439.265 76.1685 438.697 76.0285 438.193 75.7485C437.697 75.4605 437.305 75.0605 437.017 74.5485C436.737 74.0285 436.597 73.4285 436.597 72.7485C436.597 72.0685 436.733 71.4725 437.005 70.9605C437.285 70.4405 437.673 70.0405 438.169 69.7605C438.673 69.4805 439.249 69.3405 439.897 69.3405C440.521 69.3405 441.077 69.4765 441.565 69.7485C442.053 70.0205 442.433 70.4045 442.705 70.9005C442.977 71.3885 443.113 71.9525 443.113 72.5925ZM441.685 72.1605C441.677 71.6565 441.497 71.2525 441.145 70.9485C440.793 70.6445 440.357 70.4925 439.837 70.4925C439.365 70.4925 438.961 70.6445 438.625 70.9485C438.289 71.2445 438.089 71.6485 438.025 72.1605H441.685ZM449.535 71.1405V72.2925H444.603V71.1405H449.535ZM454.346 76.1685C453.722 76.1685 453.158 76.0285 452.654 75.7485C452.15 75.4605 451.754 75.0605 451.466 74.5485C451.178 74.0285 451.034 73.4285 451.034 72.7485C451.034 72.0765 451.182 71.4805 451.478 70.9605C451.774 70.4405 452.178 70.0405 452.69 69.7605C453.202 69.4805 453.774 69.3405 454.406 69.3405C455.038 69.3405 455.61 69.4805 456.122 69.7605C456.634 70.0405 457.038 70.4405 457.334 70.9605C457.63 71.4805 457.778 72.0765 457.778 72.7485C457.778 73.4205 457.626 74.0165 457.322 74.5365C457.018 75.0565 456.602 75.4605 456.074 75.7485C455.554 76.0285 454.978 76.1685 454.346 76.1685ZM454.346 74.9805C454.698 74.9805 455.026 74.8965 455.33 74.7285C455.642 74.5605 455.894 74.3085 456.086 73.9725C456.278 73.6365 456.374 73.2285 456.374 72.7485C456.374 72.2685 456.282 71.8645 456.098 71.5365C455.914 71.2005 455.67 70.9485 455.366 70.7805C455.062 70.6125 454.734 70.5285 454.382 70.5285C454.03 70.5285 453.702 70.6125 453.398 70.7805C453.102 70.9485 452.866 71.2005 452.69 71.5365C452.514 71.8645 452.426 72.2685 452.426 72.7485C452.426 73.4605 452.606 74.0125 452.966 74.4045C453.334 74.7885 453.794 74.9805 454.346 74.9805ZM465.119 69.4485V76.0605H463.751V75.2805C463.535 75.5525 463.251 75.7685 462.899 75.9285C462.555 76.0805 462.187 76.1565 461.795 76.1565C461.275 76.1565 460.807 76.0485 460.391 75.8325C459.983 75.6165 459.659 75.2965 459.419 74.8725C459.187 74.4485 459.071 73.9365 459.071 73.3365V69.4485H460.427V73.1325C460.427 73.7245 460.575 74.1805 460.871 74.5005C461.167 74.8125 461.571 74.9685 462.083 74.9685C462.595 74.9685 462.999 74.8125 463.295 74.5005C463.599 74.1805 463.751 73.7245 463.751 73.1325V69.4485H465.119ZM468.52 70.5645V74.2245C468.52 74.4725 468.576 74.6525 468.688 74.7645C468.808 74.8685 469.008 74.9205 469.288 74.9205H470.128V76.0605H469.048C468.432 76.0605 467.96 75.9165 467.632 75.6285C467.304 75.3405 467.14 74.8725 467.14 74.2245V70.5645H466.36V69.4485H467.14V67.8045H468.52V69.4485H470.128V70.5645H468.52ZM480.95 76.0605L479.918 75.0285C479.518 75.4285 479.082 75.7285 478.61 75.9285C478.138 76.1205 477.61 76.2165 477.026 76.2165C476.434 76.2165 475.91 76.1125 475.454 75.9045C474.998 75.6965 474.646 75.4005 474.398 75.0165C474.15 74.6245 474.026 74.1725 474.026 73.6605C474.026 73.0845 474.19 72.5725 474.518 72.1245C474.846 71.6685 475.334 71.3085 475.982 71.0445C475.75 70.7645 475.586 70.5045 475.49 70.2645C475.394 70.0165 475.346 69.7445 475.346 69.4485C475.346 69.0805 475.438 68.7525 475.622 68.4645C475.814 68.1765 476.086 67.9485 476.438 67.7805C476.79 67.6125 477.198 67.5285 477.662 67.5285C478.134 67.5285 478.534 67.6205 478.862 67.8045C479.198 67.9805 479.446 68.2245 479.606 68.5365C479.774 68.8485 479.842 69.1965 479.81 69.5805H478.442C478.45 69.2845 478.378 69.0565 478.226 68.8965C478.074 68.7285 477.866 68.6445 477.602 68.6445C477.338 68.6445 477.122 68.7245 476.954 68.8845C476.794 69.0365 476.714 69.2245 476.714 69.4485C476.714 69.6645 476.774 69.8805 476.894 70.0965C477.022 70.3045 477.242 70.5765 477.554 70.9125L479.762 73.1085L480.614 71.7045H482.09L481.01 73.5525L480.71 74.0445L482.738 76.0605H480.95ZM477.026 75.0525C477.778 75.0525 478.442 74.7445 479.018 74.1285L476.81 71.9085C475.866 72.2845 475.394 72.8525 475.394 73.6125C475.394 74.0205 475.546 74.3645 475.85 74.6445C476.154 74.9165 476.546 75.0525 477.026 75.0525ZM488.12 68.8245V71.2725H491V72.3885H488.12V74.9445H491.36V76.0605H486.752V67.7085H491.36V68.8245H488.12ZM495.601 74.8365L497.473 69.4485H498.925L496.405 76.0605H494.773L492.265 69.4485H493.729L495.601 74.8365ZM499.503 72.7245C499.503 72.0605 499.639 71.4725 499.911 70.9605C500.191 70.4485 500.567 70.0525 501.039 69.7725C501.519 69.4845 502.047 69.3405 502.623 69.3405C503.143 69.3405 503.595 69.4445 503.979 69.6525C504.371 69.8525 504.683 70.1045 504.915 70.4085V69.4485H506.295V76.0605H504.915V75.0765C504.683 75.3885 504.367 75.6485 503.967 75.8565C503.567 76.0645 503.111 76.1685 502.599 76.1685C502.031 76.1685 501.511 76.0245 501.039 75.7365C500.567 75.4405 500.191 75.0325 499.911 74.5125C499.639 73.9845 499.503 73.3885 499.503 72.7245ZM504.915 72.7485C504.915 72.2925 504.819 71.8965 504.627 71.5605C504.443 71.2245 504.199 70.9685 503.895 70.7925C503.591 70.6165 503.263 70.5285 502.911 70.5285C502.559 70.5285 502.231 70.6165 501.927 70.7925C501.623 70.9605 501.375 71.2125 501.183 71.5485C500.999 71.8765 500.907 72.2685 500.907 72.7245C500.907 73.1805 500.999 73.5805 501.183 73.9245C501.375 74.2685 501.623 74.5325 501.927 74.7165C502.239 74.8925 502.567 74.9805 502.911 74.9805C503.263 74.9805 503.591 74.8925 503.895 74.7165C504.199 74.5405 504.443 74.2845 504.627 73.9485C504.819 73.6045 504.915 73.2045 504.915 72.7485ZM509.46 67.1805V76.0605H508.092V67.1805H509.46ZM517.244 69.4485V76.0605H515.876V75.2805C515.66 75.5525 515.376 75.7685 515.024 75.9285C514.68 76.0805 514.312 76.1565 513.92 76.1565C513.4 76.1565 512.932 76.0485 512.516 75.8325C512.108 75.6165 511.784 75.2965 511.544 74.8725C511.312 74.4485 511.196 73.9365 511.196 73.3365V69.4485H512.552V73.1325C512.552 73.7245 512.7 74.1805 512.996 74.5005C513.292 74.8125 513.696 74.9685 514.208 74.9685C514.72 74.9685 515.124 74.8125 515.42 74.5005C515.724 74.1805 515.876 73.7245 515.876 73.1325V69.4485H517.244ZM518.593 72.7245C518.593 72.0605 518.729 71.4725 519.001 70.9605C519.281 70.4485 519.657 70.0525 520.129 69.7725C520.609 69.4845 521.137 69.3405 521.713 69.3405C522.233 69.3405 522.685 69.4445 523.069 69.6525C523.461 69.8525 523.773 70.1045 524.005 70.4085V69.4485H525.385V76.0605H524.005V75.0765C523.773 75.3885 523.457 75.6485 523.057 75.8565C522.657 76.0645 522.201 76.1685 521.689 76.1685C521.121 76.1685 520.601 76.0245 520.129 75.7365C519.657 75.4405 519.281 75.0325 519.001 74.5125C518.729 73.9845 518.593 73.3885 518.593 72.7245ZM524.005 72.7485C524.005 72.2925 523.909 71.8965 523.717 71.5605C523.533 71.2245 523.289 70.9685 522.985 70.7925C522.681 70.6165 522.353 70.5285 522.001 70.5285C521.649 70.5285 521.321 70.6165 521.017 70.7925C520.713 70.9605 520.465 71.2125 520.273 71.5485C520.089 71.8765 519.997 72.2685 519.997 72.7245C519.997 73.1805 520.089 73.5805 520.273 73.9245C520.465 74.2685 520.713 74.5325 521.017 74.7165C521.329 74.8925 521.657 74.9805 522.001 74.9805C522.353 74.9805 522.681 74.8925 522.985 74.7165C523.289 74.5405 523.533 74.2845 523.717 73.9485C523.909 73.6045 524.005 73.2045 524.005 72.7485ZM528.777 70.5645V74.2245C528.777 74.4725 528.833 74.6525 528.945 74.7645C529.065 74.8685 529.265 74.9205 529.545 74.9205H530.385V76.0605H529.305C528.689 76.0605 528.217 75.9165 527.889 75.6285C527.561 75.3405 527.397 74.8725 527.397 74.2245V70.5645H526.617V69.4485H527.397V67.8045H528.777V69.4485H530.385V70.5645H528.777ZM532.342 68.5725C532.094 68.5725 531.886 68.4885 531.718 68.3205C531.55 68.1525 531.466 67.9445 531.466 67.6965C531.466 67.4485 531.55 67.2405 531.718 67.0725C531.886 66.9045 532.094 66.8205 532.342 66.8205C532.582 66.8205 532.786 66.9045 532.954 67.0725C533.122 67.2405 533.206 67.4485 533.206 67.6965C533.206 67.9445 533.122 68.1525 532.954 68.3205C532.786 68.4885 532.582 68.5725 532.342 68.5725ZM533.014 69.4485V76.0605H531.646V69.4485H533.014ZM537.678 76.1685C537.054 76.1685 536.49 76.0285 535.986 75.7485C535.482 75.4605 535.086 75.0605 534.798 74.5485C534.51 74.0285 534.366 73.4285 534.366 72.7485C534.366 72.0765 534.514 71.4805 534.81 70.9605C535.106 70.4405 535.51 70.0405 536.022 69.7605C536.534 69.4805 537.106 69.3405 537.738 69.3405C538.37 69.3405 538.942 69.4805 539.454 69.7605C539.966 70.0405 540.37 70.4405 540.666 70.9605C540.962 71.4805 541.11 72.0765 541.11 72.7485C541.11 73.4205 540.958 74.0165 540.654 74.5365C540.35 75.0565 539.934 75.4605 539.406 75.7485C538.886 76.0285 538.31 76.1685 537.678 76.1685ZM537.678 74.9805C538.03 74.9805 538.358 74.8965 538.662 74.7285C538.974 74.5605 539.226 74.3085 539.418 73.9725C539.61 73.6365 539.706 73.2285 539.706 72.7485C539.706 72.2685 539.614 71.8645 539.43 71.5365C539.246 71.2005 539.002 70.9485 538.698 70.7805C538.394 70.6125 538.066 70.5285 537.714 70.5285C537.362 70.5285 537.034 70.6125 536.73 70.7805C536.434 70.9485 536.198 71.2005 536.022 71.5365C535.846 71.8645 535.758 72.2685 535.758 72.7485C535.758 73.4605 535.938 74.0125 536.298 74.4045C536.666 74.7885 537.126 74.9805 537.678 74.9805ZM545.799 69.3405C546.319 69.3405 546.783 69.4485 547.191 69.6645C547.607 69.8805 547.931 70.2005 548.163 70.6245C548.395 71.0485 548.511 71.5605 548.511 72.1605V76.0605H547.155V72.3645C547.155 71.7725 547.007 71.3205 546.711 71.0085C546.415 70.6885 546.011 70.5285 545.499 70.5285C544.987 70.5285 544.579 70.6885 544.275 71.0085C543.979 71.3205 543.831 71.7725 543.831 72.3645V76.0605H542.463V69.4485H543.831V70.2045C544.055 69.9325 544.339 69.7205 544.683 69.5685C545.035 69.4165 545.407 69.3405 545.799 69.3405Z" fill="white"/>
<circle cx="580.556" cy="18.9069" r="5.15639" fill="white"/>
<circle cx="762.156" cy="18.9069" r="5.15639" fill="white"/>
<line x1="575.4" y1="18.477" x2="767.2" y2="18.477" stroke="white" stroke-width="0.859399"/>
<rect x="611.549" width="119.501" height="34.4692" rx="17.2346" fill="white"/>
<path d="M627.775 14.1989V16.154H630.4V17.3941H627.775V19.461H630.736V20.7346H626.211V12.9253H630.736V14.1989H627.775ZM631.97 17.6176C631.97 16.9919 632.092 16.4371 632.338 15.9529C632.591 15.4688 632.93 15.0964 633.355 14.8357C633.787 14.575 634.267 14.4447 634.796 14.4447C635.258 14.4447 635.66 14.5378 636.003 14.724C636.353 14.9102 636.632 15.1448 636.841 15.4278V14.5452H638.416V20.7346H636.841V19.8297C636.64 20.1201 636.36 20.3622 636.003 20.5559C635.653 20.7421 635.247 20.8352 634.785 20.8352C634.264 20.8352 633.787 20.7011 633.355 20.433C632.93 20.1648 632.591 19.7887 632.338 19.3046C632.092 18.813 631.97 18.2507 631.97 17.6176ZM636.841 17.6399C636.841 17.2601 636.766 16.9361 636.617 16.6679C636.468 16.3924 636.267 16.1838 636.014 16.0423C635.761 15.8933 635.489 15.8189 635.198 15.8189C634.908 15.8189 634.64 15.8896 634.394 16.0311C634.148 16.1726 633.947 16.3812 633.791 16.6568C633.642 16.9249 633.567 17.2452 633.567 17.6176C633.567 17.99 633.642 18.3177 633.791 18.6007C633.947 18.8763 634.148 19.0886 634.394 19.2375C634.647 19.3865 634.915 19.461 635.198 19.461C635.489 19.461 635.761 19.3902 636.014 19.2487C636.267 19.0998 636.468 18.8912 636.617 18.6231C636.766 18.3475 636.841 18.0198 636.841 17.6399ZM641.722 15.506C641.924 15.1783 642.184 14.9214 642.505 14.7352C642.832 14.549 643.205 14.4559 643.622 14.4559V16.0982H643.208C642.717 16.0982 642.344 16.2136 642.091 16.4445C641.845 16.6754 641.722 17.0776 641.722 17.6511V20.7346H640.158V14.5452H641.722V15.506ZM646.454 12.4672V20.7346H644.89V12.4672H646.454ZM654.136 14.5452L650.304 23.6617H648.639L649.98 20.5782L647.499 14.5452H649.253L650.851 18.8689L652.471 14.5452H654.136ZM662.618 12.9364V18.4108C662.618 19.1705 662.398 19.7626 661.959 20.1872C661.519 20.6043 660.931 20.8128 660.193 20.8128C659.449 20.8128 658.845 20.5968 658.383 20.1648C657.929 19.7328 657.702 19.1295 657.702 18.3549H659.266C659.274 18.6901 659.352 18.9508 659.501 19.137C659.657 19.3232 659.881 19.4163 660.171 19.4163C660.454 19.4163 660.67 19.3269 660.819 19.1482C660.968 18.9694 661.042 18.7236 661.042 18.4108V12.9364H662.618ZM670.5 14.5452V20.7346H668.925V19.9526C668.724 20.2207 668.459 20.433 668.132 20.5894C667.811 20.7383 667.461 20.8128 667.081 20.8128C666.597 20.8128 666.169 20.7123 665.797 20.5112C665.424 20.3026 665.13 20.001 664.914 19.6062C664.706 19.204 664.601 18.7274 664.601 18.1762V14.5452H666.165V17.9527C666.165 18.4443 666.288 18.8242 666.534 19.0923C666.78 19.353 667.115 19.4833 667.54 19.4833C667.972 19.4833 668.31 19.353 668.556 19.0923C668.802 18.8242 668.925 18.4443 668.925 17.9527V14.5452H670.5ZM675.688 14.4559C676.425 14.4559 677.021 14.6905 677.476 15.1597C677.93 15.6215 678.157 16.2695 678.157 17.1037V20.7346H676.593V17.3159C676.593 16.8244 676.47 16.4482 676.224 16.1875C675.979 15.9194 675.643 15.7853 675.219 15.7853C674.787 15.7853 674.444 15.9194 674.191 16.1875C673.945 16.4482 673.822 16.8244 673.822 17.3159V20.7346H672.258V14.5452H673.822V15.3161C674.031 15.048 674.295 14.8394 674.616 14.6905C674.943 14.5341 675.301 14.4559 675.688 14.4559ZM685.613 17.5059C685.613 17.7293 685.598 17.9304 685.568 18.1092H681.044C681.081 18.556 681.237 18.9061 681.513 19.1593C681.788 19.4126 682.127 19.5392 682.53 19.5392C683.111 19.5392 683.524 19.2897 683.77 18.7907H685.457C685.278 19.3865 684.935 19.8781 684.429 20.2654C683.922 20.6452 683.3 20.8352 682.563 20.8352C681.967 20.8352 681.431 20.7048 680.954 20.4441C680.485 20.176 680.116 19.7999 679.848 19.3158C679.588 18.8316 679.457 18.273 679.457 17.6399C679.457 16.9994 679.588 16.4371 679.848 15.9529C680.109 15.4688 680.474 15.0964 680.943 14.8357C681.412 14.575 681.952 14.4447 682.563 14.4447C683.151 14.4447 683.677 14.5713 684.138 14.8245C684.608 15.0778 684.969 15.439 685.222 15.9082C685.483 16.37 685.613 16.9026 685.613 17.5059ZM683.993 17.059C683.986 16.6568 683.84 16.3365 683.557 16.0982C683.274 15.8524 682.928 15.7295 682.518 15.7295C682.131 15.7295 681.803 15.8487 681.535 16.087C681.275 16.3179 681.114 16.6419 681.055 17.059H683.993ZM690.159 18.9694C690.874 18.3736 691.444 17.8783 691.869 17.4835C692.293 17.0813 692.647 16.6642 692.93 16.2322C693.213 15.8002 693.355 15.3757 693.355 14.9586C693.355 14.5787 693.265 14.2808 693.086 14.0648C692.908 13.8488 692.632 13.7408 692.26 13.7408C691.887 13.7408 691.601 13.8675 691.399 14.1207C691.198 14.3665 691.094 14.7054 691.087 15.1374H689.567C689.597 14.2436 689.861 13.5658 690.36 13.104C690.867 12.6422 691.507 12.4113 692.282 12.4113C693.131 12.4113 693.783 12.6385 694.237 13.0928C694.692 13.5397 694.919 14.1319 694.919 14.8692C694.919 15.4502 694.762 16.0051 694.449 16.5339C694.137 17.0627 693.779 17.5245 693.377 17.9192C692.975 18.3065 692.45 18.7758 691.802 19.3269H695.097V20.6229H689.578V19.461L690.159 18.9694ZM696.298 16.5562C696.298 15.2677 696.529 14.2585 696.991 13.5286C697.46 12.7986 698.234 12.4337 699.314 12.4337C700.394 12.4337 701.165 12.7986 701.627 13.5286C702.096 14.2585 702.331 15.2677 702.331 16.5562C702.331 17.8522 702.096 18.8689 701.627 19.6062C701.165 20.3436 700.394 20.7123 699.314 20.7123C698.234 20.7123 697.46 20.3436 696.991 19.6062C696.529 18.8689 696.298 17.8522 696.298 16.5562ZM700.789 16.5562C700.789 16.0051 700.752 15.5433 700.677 15.1709C700.61 14.791 700.469 14.4819 700.253 14.2436C700.044 14.0052 699.732 13.8861 699.314 13.8861C698.897 13.8861 698.581 14.0052 698.365 14.2436C698.156 14.4819 698.015 14.791 697.94 15.1709C697.873 15.5433 697.84 16.0051 697.84 16.5562C697.84 17.1223 697.873 17.599 697.94 17.9863C698.007 18.3661 698.149 18.6752 698.365 18.9136C698.581 19.1444 698.897 19.2599 699.314 19.2599C699.732 19.2599 700.048 19.1444 700.264 18.9136C700.48 18.6752 700.622 18.3661 700.689 17.9863C700.756 17.599 700.789 17.1223 700.789 16.5562ZM704.227 18.9694C704.942 18.3736 705.512 17.8783 705.936 17.4835C706.361 17.0813 706.715 16.6642 706.998 16.2322C707.281 15.8002 707.422 15.3757 707.422 14.9586C707.422 14.5787 707.333 14.2808 707.154 14.0648C706.975 13.8488 706.7 13.7408 706.327 13.7408C705.955 13.7408 705.668 13.8675 705.467 14.1207C705.266 14.3665 705.162 14.7054 705.154 15.1374H703.635C703.665 14.2436 703.929 13.5658 704.428 13.104C704.935 12.6422 705.575 12.4113 706.35 12.4113C707.199 12.4113 707.851 12.6385 708.305 13.0928C708.759 13.5397 708.986 14.1319 708.986 14.8692C708.986 15.4502 708.83 16.0051 708.517 16.5339C708.204 17.0627 707.847 17.5245 707.445 17.9192C707.042 18.3065 706.517 18.7758 705.869 19.3269H709.165V20.6229H703.646V19.461L704.227 18.9694ZM710.299 19.1482V17.9192L713.952 12.6906H715.773V17.7852H716.756V19.1482H715.773V20.7346H714.209V19.1482H710.299ZM714.309 14.3665L712.019 17.7852H714.309V14.3665Z" fill="#393858"/>
<path d="M592.139 76.0605L590.219 72.7245H589.175V76.0605H587.807V67.7205H590.687C591.327 67.7205 591.867 67.8325 592.307 68.0565C592.755 68.2805 593.087 68.5805 593.303 68.9565C593.527 69.3325 593.639 69.7525 593.639 70.2165C593.639 70.7605 593.479 71.2565 593.159 71.7045C592.847 72.1445 592.363 72.4445 591.707 72.6045L593.771 76.0605H592.139ZM589.175 71.6325H590.687C591.199 71.6325 591.583 71.5045 591.839 71.2485C592.103 70.9925 592.235 70.6485 592.235 70.2165C592.235 69.7845 592.107 69.4485 591.851 69.2085C591.595 68.9605 591.207 68.8365 590.687 68.8365H589.175V71.6325ZM601.449 72.5925C601.449 72.8405 601.433 73.0645 601.401 73.2645H596.349C596.389 73.7925 596.585 74.2165 596.937 74.5365C597.289 74.8565 597.721 75.0165 598.233 75.0165C598.969 75.0165 599.489 74.7085 599.793 74.0925H601.269C601.069 74.7005 600.705 75.2005 600.177 75.5925C599.657 75.9765 599.009 76.1685 598.233 76.1685C597.601 76.1685 597.033 76.0285 596.529 75.7485C596.033 75.4605 595.641 75.0605 595.353 74.5485C595.073 74.0285 594.933 73.4285 594.933 72.7485C594.933 72.0685 595.069 71.4725 595.341 70.9605C595.621 70.4405 596.009 70.0405 596.505 69.7605C597.009 69.4805 597.585 69.3405 598.233 69.3405C598.857 69.3405 599.413 69.4765 599.901 69.7485C600.389 70.0205 600.769 70.4045 601.041 70.9005C601.313 71.3885 601.449 71.9525 601.449 72.5925ZM600.021 72.1605C600.013 71.6565 599.833 71.2525 599.481 70.9485C599.129 70.6445 598.693 70.4925 598.173 70.4925C597.701 70.4925 597.297 70.6445 596.961 70.9485C596.625 71.2445 596.425 71.6485 596.361 72.1605H600.021ZM604.164 70.4205C604.396 70.1165 604.712 69.8605 605.112 69.6525C605.512 69.4445 605.964 69.3405 606.468 69.3405C607.044 69.3405 607.568 69.4845 608.04 69.7725C608.52 70.0525 608.896 70.4485 609.168 70.9605C609.44 71.4725 609.576 72.0605 609.576 72.7245C609.576 73.3885 609.44 73.9845 609.168 74.5125C608.896 75.0325 608.52 75.4405 608.04 75.7365C607.568 76.0245 607.044 76.1685 606.468 76.1685C605.964 76.1685 605.516 76.0685 605.124 75.8685C604.732 75.6605 604.412 75.4045 604.164 75.1005V79.2045H602.796V69.4485H604.164V70.4205ZM608.184 72.7245C608.184 72.2685 608.088 71.8765 607.896 71.5485C607.712 71.2125 607.464 70.9605 607.152 70.7925C606.848 70.6165 606.52 70.5285 606.168 70.5285C605.824 70.5285 605.496 70.6165 605.184 70.7925C604.88 70.9685 604.632 71.2245 604.44 71.5605C604.256 71.8965 604.164 72.2925 604.164 72.7485C604.164 73.2045 604.256 73.6045 604.44 73.9485C604.632 74.2845 604.88 74.5405 605.184 74.7165C605.496 74.8925 605.824 74.9805 606.168 74.9805C606.52 74.9805 606.848 74.8925 607.152 74.7165C607.464 74.5325 607.712 74.2685 607.896 73.9245C608.088 73.5805 608.184 73.1805 608.184 72.7245ZM613.797 76.1685C613.173 76.1685 612.609 76.0285 612.105 75.7485C611.601 75.4605 611.205 75.0605 610.917 74.5485C610.629 74.0285 610.485 73.4285 610.485 72.7485C610.485 72.0765 610.633 71.4805 610.929 70.9605C611.225 70.4405 611.629 70.0405 612.141 69.7605C612.653 69.4805 613.225 69.3405 613.857 69.3405C614.489 69.3405 615.061 69.4805 615.573 69.7605C616.085 70.0405 616.489 70.4405 616.785 70.9605C617.081 71.4805 617.229 72.0765 617.229 72.7485C617.229 73.4205 617.077 74.0165 616.773 74.5365C616.469 75.0565 616.053 75.4605 615.525 75.7485C615.005 76.0285 614.429 76.1685 613.797 76.1685ZM613.797 74.9805C614.149 74.9805 614.477 74.8965 614.781 74.7285C615.093 74.5605 615.345 74.3085 615.537 73.9725C615.729 73.6365 615.825 73.2285 615.825 72.7485C615.825 72.2685 615.733 71.8645 615.549 71.5365C615.365 71.2005 615.121 70.9485 614.817 70.7805C614.513 70.6125 614.185 70.5285 613.833 70.5285C613.481 70.5285 613.153 70.6125 612.849 70.7805C612.553 70.9485 612.317 71.2005 612.141 71.5365C611.965 71.8645 611.877 72.2685 611.877 72.7485C611.877 73.4605 612.057 74.0125 612.417 74.4045C612.785 74.7885 613.245 74.9805 613.797 74.9805ZM619.949 70.4085C620.149 70.0725 620.413 69.8125 620.741 69.6285C621.077 69.4365 621.473 69.3405 621.929 69.3405V70.7565H621.581C621.045 70.7565 620.637 70.8925 620.357 71.1645C620.085 71.4365 619.949 71.9085 619.949 72.5805V76.0605H618.581V69.4485H619.949V70.4085ZM624.782 70.5645V74.2245C624.782 74.4725 624.838 74.6525 624.95 74.7645C625.07 74.8685 625.27 74.9205 625.55 74.9205H626.39V76.0605H625.31C624.694 76.0605 624.222 75.9165 623.894 75.6285C623.566 75.3405 623.402 74.8725 623.402 74.2245V70.5645H622.622V69.4485H623.402V67.8045H624.782V69.4485H626.39V70.5645H624.782ZM628.347 68.5725C628.099 68.5725 627.891 68.4885 627.723 68.3205C627.555 68.1525 627.471 67.9445 627.471 67.6965C627.471 67.4485 627.555 67.2405 627.723 67.0725C627.891 66.9045 628.099 66.8205 628.347 66.8205C628.587 66.8205 628.791 66.9045 628.959 67.0725C629.127 67.2405 629.211 67.4485 629.211 67.6965C629.211 67.9445 629.127 68.1525 628.959 68.3205C628.791 68.4885 628.587 68.5725 628.347 68.5725ZM629.019 69.4485V76.0605H627.651V69.4485H629.019ZM634.151 69.3405C634.671 69.3405 635.135 69.4485 635.543 69.6645C635.959 69.8805 636.283 70.2005 636.515 70.6245C636.747 71.0485 636.863 71.5605 636.863 72.1605V76.0605H635.507V72.3645C635.507 71.7725 635.359 71.3205 635.063 71.0085C634.767 70.6885 634.363 70.5285 633.851 70.5285C633.339 70.5285 632.931 70.6885 632.627 71.0085C632.331 71.3205 632.183 71.7725 632.183 72.3645V76.0605H630.815V69.4485H632.183V70.2045C632.407 69.9325 632.691 69.7205 633.035 69.5685C633.387 69.4165 633.759 69.3405 634.151 69.3405ZM641.272 69.3405C641.784 69.3405 642.236 69.4445 642.628 69.6525C643.028 69.8525 643.34 70.1045 643.564 70.4085V69.4485H644.944V76.1685C644.944 76.7765 644.816 77.3165 644.56 77.7885C644.304 78.2685 643.932 78.6445 643.444 78.9165C642.964 79.1885 642.388 79.3245 641.716 79.3245C640.82 79.3245 640.076 79.1125 639.484 78.6885C638.892 78.2725 638.556 77.7045 638.476 76.9845H639.832C639.936 77.3285 640.156 77.6045 640.492 77.8125C640.836 78.0285 641.244 78.1365 641.716 78.1365C642.268 78.1365 642.712 77.9685 643.048 77.6325C643.392 77.2965 643.564 76.8085 643.564 76.1685V75.0645C643.332 75.3765 643.016 75.6405 642.616 75.8565C642.224 76.0645 641.776 76.1685 641.272 76.1685C640.696 76.1685 640.168 76.0245 639.688 75.7365C639.216 75.4405 638.84 75.0325 638.56 74.5125C638.288 73.9845 638.152 73.3885 638.152 72.7245C638.152 72.0605 638.288 71.4725 638.56 70.9605C638.84 70.4485 639.216 70.0525 639.688 69.7725C640.168 69.4845 640.696 69.3405 641.272 69.3405ZM643.564 72.7485C643.564 72.2925 643.468 71.8965 643.276 71.5605C643.092 71.2245 642.848 70.9685 642.544 70.7925C642.24 70.6165 641.912 70.5285 641.56 70.5285C641.208 70.5285 640.88 70.6165 640.576 70.7925C640.272 70.9605 640.024 71.2125 639.832 71.5485C639.648 71.8765 639.556 72.2685 639.556 72.7245C639.556 73.1805 639.648 73.5805 639.832 73.9245C640.024 74.2685 640.272 74.5325 640.576 74.7165C640.888 74.8925 641.216 74.9805 641.56 74.9805C641.912 74.9805 642.24 74.8925 642.544 74.7165C642.848 74.5405 643.092 74.2845 643.276 73.9485C643.468 73.6045 643.564 73.2045 643.564 72.7485ZM656.302 76.0605L655.27 75.0285C654.87 75.4285 654.434 75.7285 653.962 75.9285C653.49 76.1205 652.962 76.2165 652.378 76.2165C651.786 76.2165 651.262 76.1125 650.806 75.9045C650.35 75.6965 649.998 75.4005 649.75 75.0165C649.502 74.6245 649.378 74.1725 649.378 73.6605C649.378 73.0845 649.542 72.5725 649.87 72.1245C650.198 71.6685 650.686 71.3085 651.334 71.0445C651.102 70.7645 650.938 70.5045 650.842 70.2645C650.746 70.0165 650.698 69.7445 650.698 69.4485C650.698 69.0805 650.79 68.7525 650.974 68.4645C651.166 68.1765 651.438 67.9485 651.79 67.7805C652.142 67.6125 652.55 67.5285 653.014 67.5285C653.486 67.5285 653.886 67.6205 654.214 67.8045C654.55 67.9805 654.798 68.2245 654.958 68.5365C655.126 68.8485 655.194 69.1965 655.162 69.5805H653.794C653.802 69.2845 653.73 69.0565 653.578 68.8965C653.426 68.7285 653.218 68.6445 652.954 68.6445C652.69 68.6445 652.474 68.7245 652.306 68.8845C652.146 69.0365 652.066 69.2245 652.066 69.4485C652.066 69.6645 652.126 69.8805 652.246 70.0965C652.374 70.3045 652.594 70.5765 652.906 70.9125L655.114 73.1085L655.966 71.7045H657.442L656.362 73.5525L656.062 74.0445L658.09 76.0605H656.302ZM652.378 75.0525C653.13 75.0525 653.794 74.7445 654.37 74.1285L652.162 71.9085C651.218 72.2845 650.746 72.8525 650.746 73.6125C650.746 74.0205 650.898 74.3645 651.202 74.6445C651.506 74.9165 651.898 75.0525 652.378 75.0525ZM664.828 67.7205C665.716 67.7205 666.492 67.8925 667.156 68.2365C667.828 68.5725 668.344 69.0605 668.704 69.7005C669.072 70.3325 669.256 71.0725 669.256 71.9205C669.256 72.7685 669.072 73.5045 668.704 74.1285C668.344 74.7525 667.828 75.2325 667.156 75.5685C666.492 75.8965 665.716 76.0605 664.828 76.0605H662.104V67.7205H664.828ZM664.828 74.9445C665.804 74.9445 666.552 74.6805 667.072 74.1525C667.592 73.6245 667.852 72.8805 667.852 71.9205C667.852 70.9525 667.592 70.1965 667.072 69.6525C666.552 69.1085 665.804 68.8365 664.828 68.8365H663.472V74.9445H664.828ZM673.48 76.1685C672.856 76.1685 672.292 76.0285 671.788 75.7485C671.284 75.4605 670.888 75.0605 670.6 74.5485C670.312 74.0285 670.168 73.4285 670.168 72.7485C670.168 72.0765 670.316 71.4805 670.612 70.9605C670.908 70.4405 671.312 70.0405 671.824 69.7605C672.336 69.4805 672.908 69.3405 673.54 69.3405C674.172 69.3405 674.744 69.4805 675.256 69.7605C675.768 70.0405 676.172 70.4405 676.468 70.9605C676.764 71.4805 676.912 72.0765 676.912 72.7485C676.912 73.4205 676.76 74.0165 676.456 74.5365C676.152 75.0565 675.736 75.4605 675.208 75.7485C674.688 76.0285 674.112 76.1685 673.48 76.1685ZM673.48 74.9805C673.832 74.9805 674.16 74.8965 674.464 74.7285C674.776 74.5605 675.028 74.3085 675.22 73.9725C675.412 73.6365 675.508 73.2285 675.508 72.7485C675.508 72.2685 675.416 71.8645 675.232 71.5365C675.048 71.2005 674.804 70.9485 674.5 70.7805C674.196 70.6125 673.868 70.5285 673.516 70.5285C673.164 70.5285 672.836 70.6125 672.532 70.7805C672.236 70.9485 672 71.2005 671.824 71.5365C671.648 71.8645 671.56 72.2685 671.56 72.7485C671.56 73.4605 671.74 74.0125 672.1 74.4045C672.468 74.7885 672.928 74.9805 673.48 74.9805ZM677.808 72.7485C677.808 72.0685 677.944 71.4725 678.216 70.9605C678.496 70.4405 678.88 70.0405 679.368 69.7605C679.856 69.4805 680.416 69.3405 681.048 69.3405C681.848 69.3405 682.508 69.5325 683.028 69.9165C683.556 70.2925 683.912 70.8325 684.096 71.5365H682.62C682.5 71.2085 682.308 70.9525 682.044 70.7685C681.78 70.5845 681.448 70.4925 681.048 70.4925C680.488 70.4925 680.04 70.6925 679.704 71.0925C679.376 71.4845 679.212 72.0365 679.212 72.7485C679.212 73.4605 679.376 74.0165 679.704 74.4165C680.04 74.8165 680.488 75.0165 681.048 75.0165C681.84 75.0165 682.364 74.6685 682.62 73.9725H684.096C683.904 74.6445 683.544 75.1805 683.016 75.5805C682.488 75.9725 681.832 76.1685 681.048 76.1685C680.416 76.1685 679.856 76.0285 679.368 75.7485C678.88 75.4605 678.496 75.0605 678.216 74.5485C677.944 74.0285 677.808 73.4285 677.808 72.7485ZM691.448 69.4485V76.0605H690.08V75.2805C689.864 75.5525 689.58 75.7685 689.228 75.9285C688.884 76.0805 688.516 76.1565 688.124 76.1565C687.604 76.1565 687.136 76.0485 686.72 75.8325C686.312 75.6165 685.988 75.2965 685.748 74.8725C685.516 74.4485 685.4 73.9365 685.4 73.3365V69.4485H686.756V73.1325C686.756 73.7245 686.904 74.1805 687.2 74.5005C687.496 74.8125 687.9 74.9685 688.412 74.9685C688.924 74.9685 689.328 74.8125 689.624 74.5005C689.928 74.1805 690.08 73.7245 690.08 73.1325V69.4485H691.448ZM701.257 69.3405C701.777 69.3405 702.241 69.4485 702.649 69.6645C703.065 69.8805 703.389 70.2005 703.621 70.6245C703.861 71.0485 703.981 71.5605 703.981 72.1605V76.0605H702.625V72.3645C702.625 71.7725 702.477 71.3205 702.181 71.0085C701.885 70.6885 701.481 70.5285 700.969 70.5285C700.457 70.5285 700.049 70.6885 699.745 71.0085C699.449 71.3205 699.301 71.7725 699.301 72.3645V76.0605H697.945V72.3645C697.945 71.7725 697.797 71.3205 697.501 71.0085C697.205 70.6885 696.801 70.5285 696.289 70.5285C695.777 70.5285 695.369 70.6885 695.065 71.0085C694.769 71.3205 694.621 71.7725 694.621 72.3645V76.0605H693.253V69.4485H694.621V70.2045C694.845 69.9325 695.129 69.7205 695.473 69.5685C695.817 69.4165 696.185 69.3405 696.577 69.3405C697.105 69.3405 697.577 69.4525 697.993 69.6765C698.409 69.9005 698.729 70.2245 698.953 70.6485C699.153 70.2485 699.465 69.9325 699.889 69.7005C700.313 69.4605 700.769 69.3405 701.257 69.3405ZM711.781 72.5925C711.781 72.8405 711.765 73.0645 711.733 73.2645H706.681C706.721 73.7925 706.917 74.2165 707.269 74.5365C707.621 74.8565 708.053 75.0165 708.565 75.0165C709.301 75.0165 709.821 74.7085 710.125 74.0925H711.601C711.401 74.7005 711.037 75.2005 710.509 75.5925C709.989 75.9765 709.341 76.1685 708.565 76.1685C707.933 76.1685 707.365 76.0285 706.861 75.7485C706.365 75.4605 705.973 75.0605 705.685 74.5485C705.405 74.0285 705.265 73.4285 705.265 72.7485C705.265 72.0685 705.401 71.4725 705.673 70.9605C705.953 70.4405 706.341 70.0405 706.837 69.7605C707.341 69.4805 707.917 69.3405 708.565 69.3405C709.189 69.3405 709.745 69.4765 710.233 69.7485C710.721 70.0205 711.101 70.4045 711.373 70.9005C711.645 71.3885 711.781 71.9525 711.781 72.5925ZM710.353 72.1605C710.345 71.6565 710.165 71.2525 709.813 70.9485C709.461 70.6445 709.025 70.4925 708.505 70.4925C708.033 70.4925 707.629 70.6445 707.293 70.9485C706.957 71.2445 706.757 71.6485 706.693 72.1605H710.353ZM716.464 69.3405C716.984 69.3405 717.448 69.4485 717.856 69.6645C718.272 69.8805 718.596 70.2005 718.828 70.6245C719.06 71.0485 719.176 71.5605 719.176 72.1605V76.0605H717.82V72.3645C717.82 71.7725 717.672 71.3205 717.376 71.0085C717.08 70.6885 716.676 70.5285 716.164 70.5285C715.652 70.5285 715.244 70.6885 714.94 71.0085C714.644 71.3205 714.496 71.7725 714.496 72.3645V76.0605H713.128V69.4485H714.496V70.2045C714.72 69.9325 715.004 69.7205 715.348 69.5685C715.7 69.4165 716.072 69.3405 716.464 69.3405ZM722.517 70.5645V74.2245C722.517 74.4725 722.573 74.6525 722.685 74.7645C722.805 74.8685 723.005 74.9205 723.285 74.9205H724.125V76.0605H723.045C722.429 76.0605 721.957 75.9165 721.629 75.6285C721.301 75.3405 721.137 74.8725 721.137 74.2245V70.5645H720.357V69.4485H721.137V67.8045H722.517V69.4485H724.125V70.5645H722.517ZM724.93 72.7245C724.93 72.0605 725.066 71.4725 725.338 70.9605C725.618 70.4485 725.994 70.0525 726.466 69.7725C726.946 69.4845 727.474 69.3405 728.05 69.3405C728.57 69.3405 729.022 69.4445 729.406 69.6525C729.798 69.8525 730.11 70.1045 730.342 70.4085V69.4485H731.722V76.0605H730.342V75.0765C730.11 75.3885 729.794 75.6485 729.394 75.8565C728.994 76.0645 728.538 76.1685 728.026 76.1685C727.458 76.1685 726.938 76.0245 726.466 75.7365C725.994 75.4405 725.618 75.0325 725.338 74.5125C725.066 73.9845 724.93 73.3885 724.93 72.7245ZM730.342 72.7485C730.342 72.2925 730.246 71.8965 730.054 71.5605C729.87 71.2245 729.626 70.9685 729.322 70.7925C729.018 70.6165 728.69 70.5285 728.338 70.5285C727.986 70.5285 727.658 70.6165 727.354 70.7925C727.05 70.9605 726.802 71.2125 726.61 71.5485C726.426 71.8765 726.334 72.2685 726.334 72.7245C726.334 73.1805 726.426 73.5805 726.61 73.9245C726.802 74.2685 727.05 74.5325 727.354 74.7165C727.666 74.8925 727.994 74.9805 728.338 74.9805C728.69 74.9805 729.018 74.8925 729.322 74.7165C729.626 74.5405 729.87 74.2845 730.054 73.9485C730.246 73.6045 730.342 73.2045 730.342 72.7485ZM735.114 70.5645V74.2245C735.114 74.4725 735.17 74.6525 735.282 74.7645C735.402 74.8685 735.602 74.9205 735.882 74.9205H736.722V76.0605H735.642C735.026 76.0605 734.554 75.9165 734.226 75.6285C733.898 75.3405 733.734 74.8725 733.734 74.2245V70.5645H732.954V69.4485H733.734V67.8045H735.114V69.4485H736.722V70.5645H735.114ZM738.679 68.5725C738.431 68.5725 738.223 68.4885 738.055 68.3205C737.887 68.1525 737.803 67.9445 737.803 67.6965C737.803 67.4485 737.887 67.2405 738.055 67.0725C738.223 66.9045 738.431 66.8205 738.679 66.8205C738.919 66.8205 739.123 66.9045 739.291 67.0725C739.459 67.2405 739.543 67.4485 739.543 67.6965C739.543 67.9445 739.459 68.1525 739.291 68.3205C739.123 68.4885 738.919 68.5725 738.679 68.5725ZM739.351 69.4485V76.0605H737.983V69.4485H739.351ZM744.015 76.1685C743.391 76.1685 742.827 76.0285 742.323 75.7485C741.819 75.4605 741.423 75.0605 741.135 74.5485C740.847 74.0285 740.703 73.4285 740.703 72.7485C740.703 72.0765 740.851 71.4805 741.147 70.9605C741.443 70.4405 741.847 70.0405 742.359 69.7605C742.871 69.4805 743.443 69.3405 744.075 69.3405C744.707 69.3405 745.279 69.4805 745.791 69.7605C746.303 70.0405 746.707 70.4405 747.003 70.9605C747.299 71.4805 747.447 72.0765 747.447 72.7485C747.447 73.4205 747.295 74.0165 746.991 74.5365C746.687 75.0565 746.271 75.4605 745.743 75.7485C745.223 76.0285 744.647 76.1685 744.015 76.1685ZM744.015 74.9805C744.367 74.9805 744.695 74.8965 744.999 74.7285C745.311 74.5605 745.563 74.3085 745.755 73.9725C745.947 73.6365 746.043 73.2285 746.043 72.7485C746.043 72.2685 745.951 71.8645 745.767 71.5365C745.583 71.2005 745.339 70.9485 745.035 70.7805C744.731 70.6125 744.403 70.5285 744.051 70.5285C743.699 70.5285 743.371 70.6125 743.067 70.7805C742.771 70.9485 742.535 71.2005 742.359 71.5365C742.183 71.8645 742.095 72.2685 742.095 72.7485C742.095 73.4605 742.275 74.0125 742.635 74.4045C743.003 74.7885 743.463 74.9805 744.015 74.9805ZM752.136 69.3405C752.656 69.3405 753.12 69.4485 753.528 69.6645C753.944 69.8805 754.268 70.2005 754.5 70.6245C754.732 71.0485 754.848 71.5605 754.848 72.1605V76.0605H753.492V72.3645C753.492 71.7725 753.344 71.3205 753.048 71.0085C752.752 70.6885 752.348 70.5285 751.836 70.5285C751.324 70.5285 750.916 70.6885 750.612 71.0085C750.316 71.3205 750.168 71.7725 750.168 72.3645V76.0605H748.8V69.4485H750.168V70.2045C750.392 69.9325 750.676 69.7205 751.02 69.5685C751.372 69.4165 751.744 69.3405 752.136 69.3405Z" fill="white"/>
</svg>
