<svg width="938" height="104" viewBox="0 0 938 104" fill="none" xmlns="http://www.w3.org/2000/svg">
<circle cx="5.15639" cy="19.0941" r="5.15639" fill="white"/>
<line y1="18.6643" x2="191.8" y2="18.6643" stroke="white" stroke-width="0.859399"/>
<rect x="18.6494" y="0.187256" width="154.501" height="34.4692" rx="17.2346" fill="white"/>
<path d="M41.7687 13.1237V20.9219H40.2046V15.8497L38.1154 20.9219H36.9311L34.8307 15.8497V20.9219H33.2666V13.1237H35.043L37.5232 18.9221L40.0035 13.1237H41.7687ZM44.3231 13.9951C44.0475 13.9951 43.8167 13.9095 43.6305 13.7382C43.4517 13.5594 43.3623 13.3397 43.3623 13.079C43.3623 12.8183 43.4517 12.6023 43.6305 12.431C43.8167 12.2523 44.0475 12.1629 44.3231 12.1629C44.5987 12.1629 44.8259 12.2523 45.0046 12.431C45.1908 12.6023 45.2839 12.8183 45.2839 13.079C45.2839 13.3397 45.1908 13.5594 45.0046 13.7382C44.8259 13.9095 44.5987 13.9951 44.3231 13.9951ZM45.094 14.7325V20.9219H43.5299V14.7325H45.094ZM46.452 17.8048C46.452 17.1792 46.5749 16.6243 46.8207 16.1402C47.0739 15.6561 47.4165 15.2836 47.8485 15.023C48.2805 14.7623 48.7609 14.6319 49.2897 14.6319C49.6919 14.6319 50.0755 14.7213 50.4405 14.9001C50.8054 15.0714 51.0959 15.3023 51.3119 15.5927V12.6545H52.8983V20.9219H51.3119V20.0058C51.1182 20.3111 50.8464 20.5569 50.4963 20.7431C50.1463 20.9293 49.7403 21.0224 49.2786 21.0224C48.7572 21.0224 48.2805 20.8884 47.8485 20.6202C47.4165 20.3521 47.0739 19.976 46.8207 19.4918C46.5749 19.0003 46.452 18.4379 46.452 17.8048ZM51.3231 17.8272C51.3231 17.4473 51.2486 17.1233 51.0996 16.8552C50.9507 16.5796 50.7496 16.3711 50.4963 16.2296C50.2431 16.0806 49.9712 16.0061 49.6808 16.0061C49.3903 16.0061 49.1222 16.0769 48.8764 16.2184C48.6306 16.3599 48.4295 16.5684 48.2731 16.844C48.1241 17.1122 48.0496 17.4324 48.0496 17.8048C48.0496 18.1772 48.1241 18.505 48.2731 18.788C48.4295 19.0636 48.6306 19.2758 48.8764 19.4248C49.1296 19.5738 49.3977 19.6482 49.6808 19.6482C49.9712 19.6482 50.2431 19.5775 50.4963 19.436C50.7496 19.287 50.9507 19.0785 51.0996 18.8103C51.2486 18.5348 51.3231 18.207 51.3231 17.8272ZM66.0198 13.1237V20.9219H64.4557V15.8497L62.3665 20.9219H61.1823L59.0819 15.8497V20.9219H57.5178V13.1237H59.2942L61.7744 18.9221L64.2546 13.1237H66.0198ZM67.3789 17.8048C67.3789 17.1792 67.5018 16.6243 67.7475 16.1402C68.0008 15.6561 68.3397 15.2836 68.7642 15.023C69.1962 14.7623 69.6766 14.6319 70.2054 14.6319C70.6672 14.6319 71.0694 14.725 71.412 14.9112C71.7621 15.0974 72.0414 15.3321 72.2499 15.6151V14.7325H73.8252V20.9219H72.2499V20.0169C72.0488 20.3074 71.7695 20.5495 71.412 20.7431C71.062 20.9293 70.656 21.0224 70.1942 21.0224C69.6729 21.0224 69.1962 20.8884 68.7642 20.6202C68.3397 20.3521 68.0008 19.976 67.7475 19.4918C67.5018 19.0003 67.3789 18.4379 67.3789 17.8048ZM72.2499 17.8272C72.2499 17.4473 72.1754 17.1233 72.0265 16.8552C71.8775 16.5796 71.6764 16.3711 71.4232 16.2296C71.17 16.0806 70.8981 16.0061 70.6076 16.0061C70.3171 16.0061 70.049 16.0769 69.8032 16.2184C69.5574 16.3599 69.3563 16.5684 69.1999 16.844C69.051 17.1122 68.9765 17.4324 68.9765 17.8048C68.9765 18.1772 69.051 18.505 69.1999 18.788C69.3563 19.0636 69.5574 19.2758 69.8032 19.4248C70.0565 19.5738 70.3246 19.6482 70.6076 19.6482C70.8981 19.6482 71.17 19.5775 71.4232 19.436C71.6764 19.287 71.8775 19.0785 72.0265 18.8103C72.1754 18.5348 72.2499 18.207 72.2499 17.8272ZM81.4889 14.7325L77.6569 23.849H75.9922L77.3329 20.7655L74.8527 14.7325H76.6067L78.2043 19.0561L79.8243 14.7325H81.4889ZM88.1276 23.1228C87.4051 22.4227 86.8428 21.5289 86.4406 20.4415C86.0458 19.354 85.8485 18.1884 85.8485 16.9446C85.8485 15.6709 86.057 14.4755 86.4741 13.3583C86.8912 12.2336 87.4982 11.3138 88.2952 10.5988H89.8704V10.744C89.0511 11.5261 88.4255 12.4645 87.9935 13.5594C87.569 14.6543 87.3567 15.7827 87.3567 16.9446C87.3567 18.0767 87.5578 19.1716 87.96 20.2292C88.3696 21.2794 88.9506 22.1918 89.7029 22.9664V23.1228H88.1276ZM101.485 13.1237L99.3063 20.9219H97.4629L95.9993 15.3693L94.4687 20.9219L92.6365 20.933L90.5361 13.1237H92.2119L93.5861 19.179L95.1726 13.1237H96.9154L98.4125 19.1455L99.7978 13.1237H101.485ZM109.19 13.1237V20.9219H107.626V17.6037H104.285V20.9219H102.721V13.1237H104.285V16.3301H107.626V13.1237H109.19ZM115.726 19.436H112.62L112.106 20.9219H110.464L113.268 13.1125H115.089L117.893 20.9219H116.24L115.726 19.436ZM115.301 18.1847L114.173 14.9224L113.044 18.1847H115.301ZM132.457 13.1237L130.278 20.9219H128.435L126.971 15.3693L125.441 20.9219L123.608 20.933L121.508 13.1237H123.184L124.558 19.179L126.144 13.1237H127.887L129.384 19.1455L130.77 13.1237H132.457ZM139.447 17.6931C139.447 17.9166 139.432 18.1177 139.402 18.2964H134.877C134.914 18.7433 135.071 19.0934 135.346 19.3466C135.622 19.5998 135.961 19.7265 136.363 19.7265C136.944 19.7265 137.357 19.4769 137.603 18.9779H139.29C139.111 19.5738 138.769 20.0653 138.262 20.4526C137.756 20.8325 137.134 21.0224 136.397 21.0224C135.801 21.0224 135.264 20.8921 134.788 20.6314C134.319 20.3633 133.95 19.9871 133.682 19.503C133.421 19.0189 133.291 18.4603 133.291 17.8272C133.291 17.1866 133.421 16.6243 133.682 16.1402C133.942 15.6561 134.307 15.2836 134.777 15.023C135.246 14.7623 135.786 14.6319 136.397 14.6319C136.985 14.6319 137.51 14.7586 137.972 15.0118C138.441 15.265 138.802 15.6263 139.056 16.0955C139.316 16.5573 139.447 17.0898 139.447 17.6931ZM137.827 17.2462C137.819 16.844 137.674 16.5238 137.391 16.2854C137.108 16.0396 136.762 15.9167 136.352 15.9167C135.965 15.9167 135.637 16.0359 135.369 16.2742C135.108 16.5051 134.948 16.8291 134.888 17.2462H137.827ZM146.557 17.6931C146.557 17.9166 146.542 18.1177 146.512 18.2964H141.987C142.025 18.7433 142.181 19.0934 142.457 19.3466C142.732 19.5998 143.071 19.7265 143.473 19.7265C144.054 19.7265 144.468 19.4769 144.713 18.9779H146.4C146.222 19.5738 145.879 20.0653 145.373 20.4526C144.866 20.8325 144.244 21.0224 143.507 21.0224C142.911 21.0224 142.375 20.8921 141.898 20.6314C141.429 20.3633 141.06 19.9871 140.792 19.503C140.531 19.0189 140.401 18.4603 140.401 17.8272C140.401 17.1866 140.531 16.6243 140.792 16.1402C141.053 15.6561 141.418 15.2836 141.887 15.023C142.356 14.7623 142.896 14.6319 143.507 14.6319C144.095 14.6319 144.62 14.7586 145.082 15.0118C145.551 15.265 145.913 15.6263 146.166 16.0955C146.426 16.5573 146.557 17.0898 146.557 17.6931ZM144.937 17.2462C144.929 16.844 144.784 16.5238 144.501 16.2854C144.218 16.0396 143.872 15.9167 143.462 15.9167C143.075 15.9167 142.747 16.0359 142.479 16.2742C142.218 16.5051 142.058 16.8291 141.999 17.2462H144.937ZM151.578 20.9219L149.477 18.2852V20.9219H147.913V12.6545H149.477V17.3579L151.555 14.7325H153.589L150.863 17.8384L153.611 20.9219H151.578ZM154.25 23.1228V22.9664C155.003 22.1918 155.58 21.2794 155.982 20.2292C156.392 19.1716 156.596 18.0767 156.596 16.9446C156.596 15.7827 156.38 14.6543 155.948 13.5594C155.524 12.4645 154.902 11.5261 154.083 10.744V10.5988H155.658C156.455 11.3138 157.062 12.2336 157.479 13.3583C157.896 14.4755 158.105 15.6709 158.105 16.9446C158.105 18.1884 157.904 19.354 157.501 20.4415C157.107 21.5289 156.548 22.4227 155.826 23.1228H154.25Z" fill="#393858"/>
<path d="M32.2538 70.3078C32.0378 69.8918 31.7378 69.5798 31.3538 69.3718C30.9698 69.1558 30.5258 69.0478 30.0218 69.0478C29.4698 69.0478 28.9778 69.1718 28.5458 69.4198C28.1138 69.6678 27.7738 70.0198 27.5258 70.4758C27.2858 70.9318 27.1658 71.4598 27.1658 72.0598C27.1658 72.6598 27.2858 73.1918 27.5258 73.6558C27.7738 74.1118 28.1138 74.4638 28.5458 74.7118C28.9778 74.9598 29.4698 75.0838 30.0218 75.0838C30.7658 75.0838 31.3698 74.8758 31.8338 74.4598C32.2978 74.0438 32.5818 73.4798 32.6858 72.7678H29.5538V71.6758H34.1498V72.7438C34.0618 73.3918 33.8298 73.9878 33.4538 74.5318C33.0858 75.0758 32.6018 75.5118 32.0018 75.8398C31.4098 76.1598 30.7498 76.3198 30.0218 76.3198C29.2378 76.3198 28.5218 76.1398 27.8738 75.7798C27.2258 75.4118 26.7098 74.9038 26.3258 74.2558C25.9498 73.6078 25.7618 72.8758 25.7618 72.0598C25.7618 71.2438 25.9498 70.5118 26.3258 69.8638C26.7098 69.2158 27.2258 68.7118 27.8738 68.3518C28.5298 67.9838 29.2458 67.7998 30.0218 67.7998C30.9098 67.7998 31.6978 68.0198 32.3858 68.4598C33.0818 68.8918 33.5858 69.5078 33.8978 70.3078H32.2538ZM41.5591 72.7798C41.5591 73.0278 41.5431 73.2518 41.5111 73.4518H36.4591C36.4991 73.9798 36.6951 74.4038 37.0471 74.7238C37.3991 75.0438 37.8311 75.2038 38.3431 75.2038C39.0791 75.2038 39.5991 74.8958 39.9031 74.2798H41.3791C41.1791 74.8878 40.8151 75.3878 40.2871 75.7798C39.7671 76.1638 39.1191 76.3558 38.3431 76.3558C37.7111 76.3558 37.1431 76.2158 36.6391 75.9358C36.1431 75.6478 35.7511 75.2478 35.4631 74.7358C35.1831 74.2158 35.0431 73.6158 35.0431 72.9358C35.0431 72.2558 35.1791 71.6598 35.4511 71.1478C35.7311 70.6278 36.1191 70.2278 36.6151 69.9478C37.1191 69.6678 37.6951 69.5278 38.3431 69.5278C38.9671 69.5278 39.5231 69.6638 40.0111 69.9358C40.4991 70.2078 40.8791 70.5918 41.1511 71.0878C41.4231 71.5758 41.5591 72.1398 41.5591 72.7798ZM40.1311 72.3478C40.1231 71.8438 39.9431 71.4398 39.5911 71.1358C39.2391 70.8318 38.8031 70.6798 38.2831 70.6798C37.8111 70.6798 37.4071 70.8318 37.0711 71.1358C36.7351 71.4318 36.5351 71.8358 36.4711 72.3478H40.1311ZM46.2413 69.5278C46.7613 69.5278 47.2253 69.6358 47.6333 69.8518C48.0493 70.0678 48.3733 70.3878 48.6053 70.8118C48.8373 71.2358 48.9533 71.7478 48.9533 72.3478V76.2478H47.5973V72.5518C47.5973 71.9598 47.4493 71.5078 47.1533 71.1958C46.8573 70.8758 46.4533 70.7158 45.9413 70.7158C45.4293 70.7158 45.0213 70.8758 44.7173 71.1958C44.4213 71.5078 44.2733 71.9598 44.2733 72.5518V76.2478H42.9053V69.6358H44.2733V70.3918C44.4973 70.1198 44.7813 69.9078 45.1253 69.7558C45.4773 69.6038 45.8493 69.5278 46.2413 69.5278ZM56.7583 72.7798C56.7583 73.0278 56.7423 73.2518 56.7103 73.4518H51.6583C51.6983 73.9798 51.8943 74.4038 52.2463 74.7238C52.5983 75.0438 53.0303 75.2038 53.5423 75.2038C54.2783 75.2038 54.7983 74.8958 55.1023 74.2798H56.5783C56.3783 74.8878 56.0143 75.3878 55.4863 75.7798C54.9663 76.1638 54.3183 76.3558 53.5423 76.3558C52.9103 76.3558 52.3423 76.2158 51.8383 75.9358C51.3423 75.6478 50.9503 75.2478 50.6623 74.7358C50.3823 74.2158 50.2423 73.6158 50.2423 72.9358C50.2423 72.2558 50.3783 71.6598 50.6503 71.1478C50.9303 70.6278 51.3183 70.2278 51.8143 69.9478C52.3183 69.6678 52.8943 69.5278 53.5423 69.5278C54.1663 69.5278 54.7223 69.6638 55.2103 69.9358C55.6983 70.2078 56.0783 70.5918 56.3503 71.0878C56.6223 71.5758 56.7583 72.1398 56.7583 72.7798ZM55.3303 72.3478C55.3223 71.8438 55.1423 71.4398 54.7903 71.1358C54.4383 70.8318 54.0023 70.6798 53.4823 70.6798C53.0103 70.6798 52.6063 70.8318 52.2703 71.1358C51.9343 71.4318 51.7343 71.8358 51.6703 72.3478H55.3303ZM60.6605 75.0238L62.5325 69.6358H63.9845L61.4645 76.2478H59.8325L57.3245 69.6358H58.7885L60.6605 75.0238ZM64.5626 72.9118C64.5626 72.2478 64.6986 71.6598 64.9706 71.1478C65.2506 70.6358 65.6266 70.2398 66.0986 69.9598C66.5786 69.6718 67.1066 69.5278 67.6826 69.5278C68.2026 69.5278 68.6546 69.6318 69.0386 69.8398C69.4306 70.0398 69.7426 70.2918 69.9746 70.5958V69.6358H71.3546V76.2478H69.9746V75.2638C69.7426 75.5758 69.4266 75.8358 69.0266 76.0438C68.6266 76.2518 68.1706 76.3558 67.6586 76.3558C67.0906 76.3558 66.5706 76.2118 66.0986 75.9238C65.6266 75.6278 65.2506 75.2198 64.9706 74.6998C64.6986 74.1718 64.5626 73.5758 64.5626 72.9118ZM69.9746 72.9358C69.9746 72.4798 69.8786 72.0838 69.6866 71.7478C69.5026 71.4118 69.2586 71.1558 68.9546 70.9798C68.6506 70.8038 68.3226 70.7158 67.9706 70.7158C67.6186 70.7158 67.2906 70.8038 66.9866 70.9798C66.6826 71.1478 66.4346 71.3998 66.2426 71.7358C66.0586 72.0638 65.9666 72.4558 65.9666 72.9118C65.9666 73.3678 66.0586 73.7678 66.2426 74.1118C66.4346 74.4558 66.6826 74.7198 66.9866 74.9038C67.2986 75.0798 67.6266 75.1678 67.9706 75.1678C68.3226 75.1678 68.6506 75.0798 68.9546 74.9038C69.2586 74.7278 69.5026 74.4718 69.6866 74.1358C69.8786 73.7918 69.9746 73.3918 69.9746 72.9358ZM77.6366 69.0118V71.4598H80.5166V72.5758H77.6366V75.1318H80.8766V76.2478H76.2686V67.8958H80.8766V69.0118H77.6366ZM85.1176 75.0238L86.9896 69.6358H88.4416L85.9216 76.2478H84.2896L81.7816 69.6358H83.2456L85.1176 75.0238ZM95.5356 72.7798C95.5356 73.0278 95.5196 73.2518 95.4876 73.4518H90.4356C90.4756 73.9798 90.6716 74.4038 91.0236 74.7238C91.3756 75.0438 91.8076 75.2038 92.3196 75.2038C93.0556 75.2038 93.5756 74.8958 93.8796 74.2798H95.3556C95.1556 74.8878 94.7916 75.3878 94.2636 75.7798C93.7436 76.1638 93.0956 76.3558 92.3196 76.3558C91.6876 76.3558 91.1196 76.2158 90.6156 75.9358C90.1196 75.6478 89.7276 75.2478 89.4396 74.7358C89.1596 74.2158 89.0196 73.6158 89.0196 72.9358C89.0196 72.2558 89.1556 71.6598 89.4276 71.1478C89.7076 70.6278 90.0956 70.2278 90.5916 69.9478C91.0956 69.6678 91.6716 69.5278 92.3196 69.5278C92.9436 69.5278 93.4996 69.6638 93.9876 69.9358C94.4756 70.2078 94.8556 70.5918 95.1276 71.0878C95.3996 71.5758 95.5356 72.1398 95.5356 72.7798ZM94.1076 72.3478C94.0996 71.8438 93.9196 71.4398 93.5676 71.1358C93.2156 70.8318 92.7796 70.6798 92.2596 70.6798C91.7876 70.6798 91.3836 70.8318 91.0476 71.1358C90.7116 71.4318 90.5116 71.8358 90.4476 72.3478H94.1076ZM100.218 69.5278C100.738 69.5278 101.202 69.6358 101.61 69.8518C102.026 70.0678 102.35 70.3878 102.582 70.8118C102.814 71.2358 102.93 71.7478 102.93 72.3478V76.2478H101.574V72.5518C101.574 71.9598 101.426 71.5078 101.13 71.1958C100.834 70.8758 100.43 70.7158 99.9179 70.7158C99.4059 70.7158 98.9979 70.8758 98.6939 71.1958C98.3979 71.5078 98.2499 71.9598 98.2499 72.5518V76.2478H96.8819V69.6358H98.2499V70.3918C98.4739 70.1198 98.7579 69.9078 99.1019 69.7558C99.4539 69.6038 99.8259 69.5278 100.218 69.5278ZM106.271 70.7518V74.4118C106.271 74.6598 106.327 74.8398 106.439 74.9518C106.559 75.0558 106.759 75.1078 107.039 75.1078H107.879V76.2478H106.799C106.183 76.2478 105.711 76.1038 105.383 75.8158C105.055 75.5278 104.891 75.0598 104.891 74.4118V70.7518H104.111V69.6358H104.891V67.9918H106.271V69.6358H107.879V70.7518H106.271ZM111.801 72.9118C111.801 72.2478 111.937 71.6598 112.209 71.1478C112.489 70.6358 112.865 70.2398 113.337 69.9598C113.817 69.6718 114.349 69.5278 114.933 69.5278C115.365 69.5278 115.789 69.6238 116.205 69.8158C116.629 69.9998 116.965 70.2478 117.213 70.5598V67.3678H118.593V76.2478H117.213V75.2518C116.989 75.5718 116.677 75.8358 116.277 76.0438C115.885 76.2518 115.433 76.3558 114.921 76.3558C114.345 76.3558 113.817 76.2118 113.337 75.9238C112.865 75.6278 112.489 75.2198 112.209 74.6998C111.937 74.1718 111.801 73.5758 111.801 72.9118ZM117.213 72.9358C117.213 72.4798 117.117 72.0838 116.925 71.7478C116.741 71.4118 116.497 71.1558 116.193 70.9798C115.889 70.8038 115.561 70.7158 115.209 70.7158C114.857 70.7158 114.529 70.8038 114.225 70.9798C113.921 71.1478 113.673 71.3998 113.481 71.7358C113.297 72.0638 113.205 72.4558 113.205 72.9118C113.205 73.3678 113.297 73.7678 113.481 74.1118C113.673 74.4558 113.921 74.7198 114.225 74.9038C114.537 75.0798 114.865 75.1678 115.209 75.1678C115.561 75.1678 115.889 75.0798 116.193 74.9038C116.497 74.7278 116.741 74.4718 116.925 74.1358C117.117 73.7918 117.213 73.3918 117.213 72.9358ZM119.934 72.9118C119.934 72.2478 120.07 71.6598 120.342 71.1478C120.622 70.6358 120.998 70.2398 121.47 69.9598C121.95 69.6718 122.478 69.5278 123.054 69.5278C123.574 69.5278 124.026 69.6318 124.41 69.8398C124.802 70.0398 125.114 70.2918 125.346 70.5958V69.6358H126.726V76.2478H125.346V75.2638C125.114 75.5758 124.798 75.8358 124.398 76.0438C123.998 76.2518 123.542 76.3558 123.03 76.3558C122.462 76.3558 121.942 76.2118 121.47 75.9238C120.998 75.6278 120.622 75.2198 120.342 74.6998C120.07 74.1718 119.934 73.5758 119.934 72.9118ZM125.346 72.9358C125.346 72.4798 125.25 72.0838 125.058 71.7478C124.874 71.4118 124.63 71.1558 124.326 70.9798C124.022 70.8038 123.694 70.7158 123.342 70.7158C122.99 70.7158 122.662 70.8038 122.358 70.9798C122.054 71.1478 121.806 71.3998 121.614 71.7358C121.43 72.0638 121.338 72.4558 121.338 72.9118C121.338 73.3678 121.43 73.7678 121.614 74.1118C121.806 74.4558 122.054 74.7198 122.358 74.9038C122.67 75.0798 122.998 75.1678 123.342 75.1678C123.694 75.1678 124.022 75.0798 124.326 74.9038C124.63 74.7278 124.874 74.4718 125.058 74.1358C125.25 73.7918 125.346 73.3918 125.346 72.9358ZM134.474 69.6358L130.418 79.3558H129.002L130.346 76.1398L127.742 69.6358H129.266L131.126 74.6758L133.058 69.6358H134.474ZM140.583 71.3278V72.4798H135.651V71.3278H140.583ZM145.394 76.3558C144.77 76.3558 144.206 76.2158 143.702 75.9358C143.198 75.6478 142.802 75.2478 142.514 74.7358C142.226 74.2158 142.082 73.6158 142.082 72.9358C142.082 72.2638 142.23 71.6678 142.526 71.1478C142.822 70.6278 143.226 70.2278 143.738 69.9478C144.25 69.6678 144.822 69.5278 145.454 69.5278C146.086 69.5278 146.658 69.6678 147.17 69.9478C147.682 70.2278 148.086 70.6278 148.382 71.1478C148.678 71.6678 148.826 72.2638 148.826 72.9358C148.826 73.6078 148.674 74.2038 148.37 74.7238C148.066 75.2438 147.65 75.6478 147.122 75.9358C146.602 76.2158 146.026 76.3558 145.394 76.3558ZM145.394 75.1678C145.746 75.1678 146.074 75.0838 146.378 74.9158C146.69 74.7478 146.942 74.4958 147.134 74.1598C147.326 73.8238 147.422 73.4158 147.422 72.9358C147.422 72.4558 147.33 72.0518 147.146 71.7238C146.962 71.3878 146.718 71.1358 146.414 70.9678C146.11 70.7998 145.782 70.7158 145.43 70.7158C145.078 70.7158 144.75 70.7998 144.446 70.9678C144.15 71.1358 143.914 71.3878 143.738 71.7238C143.562 72.0518 143.474 72.4558 143.474 72.9358C143.474 73.6478 143.654 74.1998 144.014 74.5918C144.382 74.9758 144.842 75.1678 145.394 75.1678ZM152.951 70.7518H151.727V76.2478H150.347V70.7518H149.567V69.6358H150.347V69.1678C150.347 68.4078 150.547 67.8558 150.947 67.5118C151.355 67.1598 151.991 66.9838 152.855 66.9838V68.1238C152.439 68.1238 152.147 68.2038 151.979 68.3638C151.811 68.5158 151.727 68.7838 151.727 69.1678V69.6358H152.951V70.7518ZM160.304 78.4798C159.52 77.7278 158.916 76.7718 158.492 75.6118C158.076 74.4518 157.868 73.2078 157.868 71.8798C157.868 70.5198 158.092 69.2358 158.54 68.0278C158.996 66.8198 159.664 65.8238 160.544 65.0398H161.96V65.1718C161.04 66.0198 160.348 67.0358 159.884 68.2198C159.42 69.4038 159.188 70.6238 159.188 71.8798C159.188 73.0878 159.404 74.2558 159.836 75.3838C160.268 76.5118 160.896 77.4998 161.72 78.3478V78.4798H160.304ZM162.827 68.7478V67.4998H165.323V76.2478H163.943V68.7478H162.827ZM87.047 87.6358L84.995 94.2478H83.555L82.223 89.3638L80.891 94.2478H79.451L77.387 87.6358H78.779L80.159 92.9518L81.563 87.6358H82.991L84.335 92.9278L85.703 87.6358H87.047ZM94.1294 90.7798C94.1294 91.0278 94.1134 91.2518 94.0814 91.4518H89.0294C89.0694 91.9798 89.2654 92.4038 89.6174 92.7238C89.9694 93.0438 90.4014 93.2038 90.9134 93.2038C91.6494 93.2038 92.1694 92.8958 92.4734 92.2798H93.9494C93.7494 92.8878 93.3854 93.3878 92.8574 93.7798C92.3374 94.1638 91.6894 94.3558 90.9134 94.3558C90.2814 94.3558 89.7134 94.2158 89.2094 93.9358C88.7134 93.6478 88.3214 93.2478 88.0334 92.7358C87.7534 92.2158 87.6134 91.6158 87.6134 90.9358C87.6134 90.2558 87.7494 89.6598 88.0214 89.1478C88.3014 88.6278 88.6894 88.2278 89.1854 87.9478C89.6894 87.6678 90.2654 87.5278 90.9134 87.5278C91.5374 87.5278 92.0934 87.6638 92.5814 87.9358C93.0694 88.2078 93.4494 88.5918 93.7214 89.0878C93.9934 89.5758 94.1294 90.1398 94.1294 90.7798ZM92.7014 90.3478C92.6934 89.8438 92.5134 89.4398 92.1614 89.1358C91.8094 88.8318 91.3734 88.6798 90.8534 88.6798C90.3814 88.6798 89.9774 88.8318 89.6414 89.1358C89.3054 89.4318 89.1054 89.8358 89.0414 90.3478H92.7014ZM101.536 90.7798C101.536 91.0278 101.52 91.2518 101.488 91.4518H96.4356C96.4756 91.9798 96.6716 92.4038 97.0236 92.7238C97.3756 93.0438 97.8076 93.2038 98.3196 93.2038C99.0556 93.2038 99.5756 92.8958 99.8796 92.2798H101.356C101.156 92.8878 100.792 93.3878 100.264 93.7798C99.7436 94.1638 99.0956 94.3558 98.3196 94.3558C97.6876 94.3558 97.1196 94.2158 96.6156 93.9358C96.1196 93.6478 95.7276 93.2478 95.4396 92.7358C95.1596 92.2158 95.0196 91.6158 95.0196 90.9358C95.0196 90.2558 95.1556 89.6598 95.4276 89.1478C95.7076 88.6278 96.0956 88.2278 96.5916 87.9478C97.0956 87.6678 97.6716 87.5278 98.3196 87.5278C98.9436 87.5278 99.4996 87.6638 99.9876 87.9358C100.476 88.2078 100.856 88.5918 101.128 89.0878C101.4 89.5758 101.536 90.1398 101.536 90.7798ZM100.108 90.3478C100.1 89.8438 99.9196 89.4398 99.5676 89.1358C99.2156 88.8318 98.7796 88.6798 98.2596 88.6798C97.7876 88.6798 97.3836 88.8318 97.0476 89.1358C96.7116 89.4318 96.5116 89.8358 96.4476 90.3478H100.108ZM105.498 90.9478L108.546 94.2478H106.698L104.25 91.4038V94.2478H102.882V85.3678H104.25V90.5278L106.65 87.6358H108.546L105.498 90.9478ZM109.19 96.4798V96.3478C110.014 95.4998 110.642 94.5118 111.074 93.3838C111.506 92.2558 111.722 91.0878 111.722 89.8798C111.722 88.6238 111.49 87.4038 111.026 86.2198C110.562 85.0358 109.87 84.0198 108.95 83.1718V83.0398H110.366C111.246 83.8238 111.91 84.8198 112.358 86.0278C112.814 87.2358 113.042 88.5198 113.042 89.8798C113.042 91.2078 112.83 92.4518 112.406 93.6118C111.99 94.7718 111.39 95.7278 110.606 96.4798H109.19Z" fill="white"/>
<circle cx="196.956" cy="19.0941" r="5.15639" fill="white"/>
<line x1="191.8" y1="18.6643" x2="383.6" y2="18.6643" stroke="white" stroke-width="0.859399"/>
<rect x="247.449" y="0.187256" width="80.5008" height="34.4692" rx="17.2346" fill="white"/>
<path d="M263.689 19.6818H266.258V20.9219H262.125V13.1237H263.689V19.6818ZM267.065 17.8048C267.065 17.1792 267.188 16.6243 267.434 16.1402C267.687 15.6561 268.026 15.2836 268.451 15.023C268.882 14.7623 269.363 14.6319 269.892 14.6319C270.354 14.6319 270.756 14.725 271.098 14.9112C271.448 15.0974 271.728 15.3321 271.936 15.6151V14.7325H273.512V20.9219H271.936V20.0169C271.735 20.3074 271.456 20.5495 271.098 20.7431C270.748 20.9293 270.342 21.0224 269.881 21.0224C269.359 21.0224 268.882 20.8884 268.451 20.6202C268.026 20.3521 267.687 19.976 267.434 19.4918C267.188 19.0003 267.065 18.4379 267.065 17.8048ZM271.936 17.8272C271.936 17.4473 271.862 17.1233 271.713 16.8552C271.564 16.5796 271.363 16.3711 271.109 16.2296C270.856 16.0806 270.584 16.0061 270.294 16.0061C270.003 16.0061 269.735 16.0769 269.49 16.2184C269.244 16.3599 269.043 16.5684 268.886 16.844C268.737 17.1122 268.663 17.4324 268.663 17.8048C268.663 18.1772 268.737 18.505 268.886 18.788C269.043 19.0636 269.244 19.2758 269.49 19.4248C269.743 19.5738 270.011 19.6482 270.294 19.6482C270.584 19.6482 270.856 19.5775 271.109 19.436C271.363 19.287 271.564 19.0785 271.713 18.8103C271.862 18.5348 271.936 18.207 271.936 17.8272ZM277.075 16.0173V19.0114C277.075 19.22 277.123 19.3727 277.22 19.4695C277.325 19.5589 277.496 19.6036 277.734 19.6036H278.46V20.9219H277.477C276.159 20.9219 275.5 20.2813 275.5 19.0003V16.0173H274.762V14.7325H275.5V13.2019H277.075V14.7325H278.46V16.0173H277.075ZM285.554 17.6931C285.554 17.9166 285.539 18.1177 285.509 18.2964H280.984C281.022 18.7433 281.178 19.0934 281.454 19.3466C281.729 19.5998 282.068 19.7265 282.47 19.7265C283.051 19.7265 283.465 19.4769 283.71 18.9779H285.397C285.219 19.5738 284.876 20.0653 284.37 20.4526C283.863 20.8325 283.241 21.0224 282.504 21.0224C281.908 21.0224 281.372 20.8921 280.895 20.6314C280.426 20.3633 280.057 19.9871 279.789 19.503C279.528 19.0189 279.398 18.4603 279.398 17.8272C279.398 17.1866 279.528 16.6243 279.789 16.1402C280.05 15.6561 280.415 15.2836 280.884 15.023C281.353 14.7623 281.893 14.6319 282.504 14.6319C283.092 14.6319 283.617 14.7586 284.079 15.0118C284.548 15.265 284.91 15.6263 285.163 16.0955C285.424 16.5573 285.554 17.0898 285.554 17.6931ZM283.934 17.2462C283.926 16.844 283.781 16.5238 283.498 16.2854C283.215 16.0396 282.869 15.9167 282.459 15.9167C282.072 15.9167 281.744 16.0359 281.476 16.2742C281.215 16.5051 281.055 16.8291 280.996 17.2462H283.934ZM298.289 13.1237V20.9219H296.725V15.8497L294.636 20.9219H293.452L291.351 15.8497V20.9219H289.787V13.1237H291.564L294.044 18.9221L296.524 13.1237H298.289ZM299.648 17.8048C299.648 17.1792 299.771 16.6243 300.017 16.1402C300.27 15.6561 300.609 15.2836 301.034 15.023C301.466 14.7623 301.946 14.6319 302.475 14.6319C302.937 14.6319 303.339 14.725 303.682 14.9112C304.032 15.0974 304.311 15.3321 304.52 15.6151V14.7325H306.095V20.9219H304.52V20.0169C304.318 20.3074 304.039 20.5495 303.682 20.7431C303.332 20.9293 302.926 21.0224 302.464 21.0224C301.942 21.0224 301.466 20.8884 301.034 20.6202C300.609 20.3521 300.27 19.976 300.017 19.4918C299.771 19.0003 299.648 18.4379 299.648 17.8048ZM304.52 17.8272C304.52 17.4473 304.445 17.1233 304.296 16.8552C304.147 16.5796 303.946 16.3711 303.693 16.2296C303.44 16.0806 303.168 16.0061 302.877 16.0061C302.587 16.0061 302.319 16.0769 302.073 16.2184C301.827 16.3599 301.626 16.5684 301.47 16.844C301.321 17.1122 301.246 17.4324 301.246 17.8048C301.246 18.1772 301.321 18.505 301.47 18.788C301.626 19.0636 301.827 19.2758 302.073 19.4248C302.326 19.5738 302.594 19.6482 302.877 19.6482C303.168 19.6482 303.44 19.5775 303.693 19.436C303.946 19.287 304.147 19.0785 304.296 18.8103C304.445 18.5348 304.52 18.207 304.52 17.8272ZM313.759 14.7325L309.926 23.849H308.262L309.602 20.7655L307.122 14.7325H308.876L310.474 19.0561L312.094 14.7325H313.759Z" fill="#393858"/>
<path d="M217.397 74.5438H213.905L213.305 76.2478H211.877L214.865 67.8958H216.449L219.437 76.2478H217.997L217.397 74.5438ZM217.013 73.4278L215.657 69.5518L214.289 73.4278H217.013ZM224.072 69.5278C224.592 69.5278 225.056 69.6358 225.464 69.8518C225.88 70.0678 226.204 70.3878 226.436 70.8118C226.668 71.2358 226.784 71.7478 226.784 72.3478V76.2478H225.428V72.5518C225.428 71.9598 225.28 71.5078 224.984 71.1958C224.688 70.8758 224.284 70.7158 223.772 70.7158C223.26 70.7158 222.852 70.8758 222.548 71.1958C222.252 71.5078 222.104 71.9598 222.104 72.5518V76.2478H220.736V69.6358H222.104V70.3918C222.328 70.1198 222.612 69.9078 222.956 69.7558C223.308 69.6038 223.68 69.5278 224.072 69.5278ZM231.865 69.5278C232.385 69.5278 232.849 69.6358 233.257 69.8518C233.673 70.0678 233.997 70.3878 234.229 70.8118C234.461 71.2358 234.577 71.7478 234.577 72.3478V76.2478H233.221V72.5518C233.221 71.9598 233.073 71.5078 232.777 71.1958C232.481 70.8758 232.077 70.7158 231.565 70.7158C231.053 70.7158 230.645 70.8758 230.341 71.1958C230.045 71.5078 229.897 71.9598 229.897 72.5518V76.2478H228.529V69.6358H229.897V70.3918C230.121 70.1198 230.405 69.9078 230.749 69.7558C231.101 69.6038 231.473 69.5278 231.865 69.5278ZM239.19 76.3558C238.566 76.3558 238.002 76.2158 237.498 75.9358C236.994 75.6478 236.598 75.2478 236.31 74.7358C236.022 74.2158 235.878 73.6158 235.878 72.9358C235.878 72.2638 236.026 71.6678 236.322 71.1478C236.618 70.6278 237.022 70.2278 237.534 69.9478C238.046 69.6678 238.618 69.5278 239.25 69.5278C239.882 69.5278 240.454 69.6678 240.966 69.9478C241.478 70.2278 241.882 70.6278 242.178 71.1478C242.474 71.6678 242.622 72.2638 242.622 72.9358C242.622 73.6078 242.47 74.2038 242.166 74.7238C241.862 75.2438 241.446 75.6478 240.918 75.9358C240.398 76.2158 239.822 76.3558 239.19 76.3558ZM239.19 75.1678C239.542 75.1678 239.87 75.0838 240.174 74.9158C240.486 74.7478 240.738 74.4958 240.93 74.1598C241.122 73.8238 241.218 73.4158 241.218 72.9358C241.218 72.4558 241.126 72.0518 240.942 71.7238C240.758 71.3878 240.514 71.1358 240.21 70.9678C239.906 70.7998 239.578 70.7158 239.226 70.7158C238.874 70.7158 238.546 70.7998 238.242 70.9678C237.946 71.1358 237.71 71.3878 237.534 71.7238C237.358 72.0518 237.27 72.4558 237.27 72.9358C237.27 73.6478 237.45 74.1998 237.81 74.5918C238.178 74.9758 238.638 75.1678 239.19 75.1678ZM249.963 69.6358V76.2478H248.595V75.4678C248.379 75.7398 248.095 75.9558 247.743 76.1158C247.399 76.2678 247.031 76.3438 246.639 76.3438C246.119 76.3438 245.651 76.2358 245.235 76.0198C244.827 75.8038 244.503 75.4838 244.263 75.0598C244.031 74.6358 243.915 74.1238 243.915 73.5238V69.6358H245.271V73.3198C245.271 73.9118 245.419 74.3678 245.715 74.6878C246.011 74.9998 246.415 75.1558 246.927 75.1558C247.439 75.1558 247.843 74.9998 248.139 74.6878C248.443 74.3678 248.595 73.9118 248.595 73.3198V69.6358H249.963ZM255.104 69.5278C255.624 69.5278 256.088 69.6358 256.496 69.8518C256.912 70.0678 257.236 70.3878 257.468 70.8118C257.7 71.2358 257.816 71.7478 257.816 72.3478V76.2478H256.46V72.5518C256.46 71.9598 256.312 71.5078 256.016 71.1958C255.72 70.8758 255.316 70.7158 254.804 70.7158C254.292 70.7158 253.884 70.8758 253.58 71.1958C253.284 71.5078 253.136 71.9598 253.136 72.5518V76.2478H251.768V69.6358H253.136V70.3918C253.36 70.1198 253.644 69.9078 253.988 69.7558C254.34 69.6038 254.712 69.5278 255.104 69.5278ZM259.105 72.9358C259.105 72.2558 259.241 71.6598 259.513 71.1478C259.793 70.6278 260.177 70.2278 260.665 69.9478C261.153 69.6678 261.713 69.5278 262.345 69.5278C263.145 69.5278 263.805 69.7198 264.325 70.1038C264.853 70.4798 265.209 71.0198 265.393 71.7238H263.917C263.797 71.3958 263.605 71.1398 263.341 70.9558C263.077 70.7718 262.745 70.6798 262.345 70.6798C261.785 70.6798 261.337 70.8798 261.001 71.2798C260.673 71.6718 260.509 72.2238 260.509 72.9358C260.509 73.6478 260.673 74.2038 261.001 74.6038C261.337 75.0038 261.785 75.2038 262.345 75.2038C263.137 75.2038 263.661 74.8558 263.917 74.1598H265.393C265.201 74.8318 264.841 75.3678 264.313 75.7678C263.785 76.1598 263.129 76.3558 262.345 76.3558C261.713 76.3558 261.153 76.2158 260.665 75.9358C260.177 75.6478 259.793 75.2478 259.513 74.7358C259.241 74.2158 259.105 73.6158 259.105 72.9358ZM272.816 72.7798C272.816 73.0278 272.8 73.2518 272.768 73.4518H267.716C267.756 73.9798 267.952 74.4038 268.304 74.7238C268.656 75.0438 269.088 75.2038 269.6 75.2038C270.336 75.2038 270.856 74.8958 271.16 74.2798H272.636C272.436 74.8878 272.072 75.3878 271.544 75.7798C271.024 76.1638 270.376 76.3558 269.6 76.3558C268.968 76.3558 268.4 76.2158 267.896 75.9358C267.4 75.6478 267.008 75.2478 266.72 74.7358C266.44 74.2158 266.3 73.6158 266.3 72.9358C266.3 72.2558 266.436 71.6598 266.708 71.1478C266.988 70.6278 267.376 70.2278 267.872 69.9478C268.376 69.6678 268.952 69.5278 269.6 69.5278C270.224 69.5278 270.78 69.6638 271.268 69.9358C271.756 70.2078 272.136 70.5918 272.408 71.0878C272.68 71.5758 272.816 72.1398 272.816 72.7798ZM271.388 72.3478C271.38 71.8438 271.2 71.4398 270.848 71.1358C270.496 70.8318 270.06 70.6798 269.54 70.6798C269.068 70.6798 268.664 70.8318 268.328 71.1358C267.992 71.4318 267.792 71.8358 267.728 72.3478H271.388ZM282.166 69.5278C282.686 69.5278 283.15 69.6358 283.558 69.8518C283.974 70.0678 284.298 70.3878 284.53 70.8118C284.77 71.2358 284.89 71.7478 284.89 72.3478V76.2478H283.534V72.5518C283.534 71.9598 283.386 71.5078 283.09 71.1958C282.794 70.8758 282.39 70.7158 281.878 70.7158C281.366 70.7158 280.958 70.8758 280.654 71.1958C280.358 71.5078 280.21 71.9598 280.21 72.5518V76.2478H278.854V72.5518C278.854 71.9598 278.706 71.5078 278.41 71.1958C278.114 70.8758 277.71 70.7158 277.198 70.7158C276.686 70.7158 276.278 70.8758 275.974 71.1958C275.678 71.5078 275.53 71.9598 275.53 72.5518V76.2478H274.162V69.6358H275.53V70.3918C275.754 70.1198 276.038 69.9078 276.382 69.7558C276.726 69.6038 277.094 69.5278 277.486 69.5278C278.014 69.5278 278.486 69.6398 278.902 69.8638C279.318 70.0878 279.638 70.4118 279.862 70.8358C280.062 70.4358 280.374 70.1198 280.798 69.8878C281.222 69.6478 281.678 69.5278 282.166 69.5278ZM292.691 72.7798C292.691 73.0278 292.675 73.2518 292.643 73.4518H287.591C287.631 73.9798 287.827 74.4038 288.179 74.7238C288.531 75.0438 288.963 75.2038 289.475 75.2038C290.211 75.2038 290.731 74.8958 291.035 74.2798H292.511C292.311 74.8878 291.947 75.3878 291.419 75.7798C290.899 76.1638 290.251 76.3558 289.475 76.3558C288.843 76.3558 288.275 76.2158 287.771 75.9358C287.275 75.6478 286.883 75.2478 286.595 74.7358C286.315 74.2158 286.175 73.6158 286.175 72.9358C286.175 72.2558 286.311 71.6598 286.583 71.1478C286.863 70.6278 287.251 70.2278 287.747 69.9478C288.251 69.6678 288.827 69.5278 289.475 69.5278C290.099 69.5278 290.655 69.6638 291.143 69.9358C291.631 70.2078 292.011 70.5918 292.283 71.0878C292.555 71.5758 292.691 72.1398 292.691 72.7798ZM291.263 72.3478C291.255 71.8438 291.075 71.4398 290.723 71.1358C290.371 70.8318 289.935 70.6798 289.415 70.6798C288.943 70.6798 288.539 70.8318 288.203 71.1358C287.867 71.4318 287.667 71.8358 287.603 72.3478H291.263ZM297.373 69.5278C297.893 69.5278 298.357 69.6358 298.765 69.8518C299.181 70.0678 299.505 70.3878 299.737 70.8118C299.969 71.2358 300.085 71.7478 300.085 72.3478V76.2478H298.729V72.5518C298.729 71.9598 298.581 71.5078 298.285 71.1958C297.989 70.8758 297.585 70.7158 297.073 70.7158C296.561 70.7158 296.153 70.8758 295.849 71.1958C295.553 71.5078 295.405 71.9598 295.405 72.5518V76.2478H294.037V69.6358H295.405V70.3918C295.629 70.1198 295.913 69.9078 296.257 69.7558C296.609 69.6038 296.981 69.5278 297.373 69.5278ZM303.426 70.7518V74.4118C303.426 74.6598 303.482 74.8398 303.594 74.9518C303.714 75.0558 303.914 75.1078 304.194 75.1078H305.034V76.2478H303.954C303.338 76.2478 302.866 76.1038 302.538 75.8158C302.21 75.5278 302.046 75.0598 302.046 74.4118V70.7518H301.266V69.6358H302.046V67.9918H303.426V69.6358H305.034V70.7518H303.426ZM312.28 76.3558C311.656 76.3558 311.092 76.2158 310.588 75.9358C310.084 75.6478 309.688 75.2478 309.4 74.7358C309.112 74.2158 308.968 73.6158 308.968 72.9358C308.968 72.2638 309.116 71.6678 309.412 71.1478C309.708 70.6278 310.112 70.2278 310.624 69.9478C311.136 69.6678 311.708 69.5278 312.34 69.5278C312.972 69.5278 313.544 69.6678 314.056 69.9478C314.568 70.2278 314.972 70.6278 315.268 71.1478C315.564 71.6678 315.712 72.2638 315.712 72.9358C315.712 73.6078 315.56 74.2038 315.256 74.7238C314.952 75.2438 314.536 75.6478 314.008 75.9358C313.488 76.2158 312.912 76.3558 312.28 76.3558ZM312.28 75.1678C312.632 75.1678 312.96 75.0838 313.264 74.9158C313.576 74.7478 313.828 74.4958 314.02 74.1598C314.212 73.8238 314.308 73.4158 314.308 72.9358C314.308 72.4558 314.216 72.0518 314.032 71.7238C313.848 71.3878 313.604 71.1358 313.3 70.9678C312.996 70.7998 312.668 70.7158 312.316 70.7158C311.964 70.7158 311.636 70.7998 311.332 70.9678C311.036 71.1358 310.8 71.3878 310.624 71.7238C310.448 72.0518 310.36 72.4558 310.36 72.9358C310.36 73.6478 310.54 74.1998 310.9 74.5918C311.268 74.9758 311.728 75.1678 312.28 75.1678ZM319.836 70.7518H318.612V76.2478H317.232V70.7518H316.452V69.6358H317.232V69.1678C317.232 68.4078 317.432 67.8558 317.832 67.5118C318.24 67.1598 318.876 66.9838 319.74 66.9838V68.1238C319.324 68.1238 319.032 68.2038 318.864 68.3638C318.696 68.5158 318.612 68.7838 318.612 69.1678V69.6358H319.836V70.7518ZM333.046 69.6358L330.994 76.2478H329.554L328.222 71.3638L326.89 76.2478H325.45L323.386 69.6358H324.778L326.158 74.9518L327.562 69.6358H328.99L330.334 74.9278L331.702 69.6358H333.046ZM334.764 68.7598C334.516 68.7598 334.308 68.6758 334.14 68.5078C333.972 68.3398 333.888 68.1318 333.888 67.8838C333.888 67.6358 333.972 67.4278 334.14 67.2598C334.308 67.0918 334.516 67.0078 334.764 67.0078C335.004 67.0078 335.208 67.0918 335.376 67.2598C335.544 67.4278 335.628 67.6358 335.628 67.8838C335.628 68.1318 335.544 68.3398 335.376 68.5078C335.208 68.6758 335.004 68.7598 334.764 68.7598ZM335.436 69.6358V76.2478H334.068V69.6358H335.436ZM340.568 69.5278C341.088 69.5278 341.552 69.6358 341.96 69.8518C342.376 70.0678 342.7 70.3878 342.932 70.8118C343.164 71.2358 343.28 71.7478 343.28 72.3478V76.2478H341.924V72.5518C341.924 71.9598 341.776 71.5078 341.48 71.1958C341.184 70.8758 340.78 70.7158 340.268 70.7158C339.756 70.7158 339.348 70.8758 339.044 71.1958C338.748 71.5078 338.6 71.9598 338.6 72.5518V76.2478H337.232V69.6358H338.6V70.3918C338.824 70.1198 339.108 69.9078 339.452 69.7558C339.804 69.6038 340.176 69.5278 340.568 69.5278ZM348.361 69.5278C348.881 69.5278 349.345 69.6358 349.753 69.8518C350.169 70.0678 350.493 70.3878 350.725 70.8118C350.957 71.2358 351.073 71.7478 351.073 72.3478V76.2478H349.717V72.5518C349.717 71.9598 349.569 71.5078 349.273 71.1958C348.977 70.8758 348.573 70.7158 348.061 70.7158C347.549 70.7158 347.141 70.8758 346.837 71.1958C346.541 71.5078 346.393 71.9598 346.393 72.5518V76.2478H345.025V69.6358H346.393V70.3918C346.617 70.1198 346.901 69.9078 347.245 69.7558C347.597 69.6038 347.969 69.5278 348.361 69.5278ZM358.878 72.7798C358.878 73.0278 358.862 73.2518 358.83 73.4518H353.778C353.818 73.9798 354.014 74.4038 354.366 74.7238C354.718 75.0438 355.15 75.2038 355.662 75.2038C356.398 75.2038 356.918 74.8958 357.222 74.2798H358.698C358.498 74.8878 358.134 75.3878 357.606 75.7798C357.086 76.1638 356.438 76.3558 355.662 76.3558C355.03 76.3558 354.462 76.2158 353.958 75.9358C353.462 75.6478 353.07 75.2478 352.782 74.7358C352.502 74.2158 352.362 73.6158 352.362 72.9358C352.362 72.2558 352.498 71.6598 352.77 71.1478C353.05 70.6278 353.438 70.2278 353.934 69.9478C354.438 69.6678 355.014 69.5278 355.662 69.5278C356.286 69.5278 356.842 69.6638 357.33 69.9358C357.818 70.2078 358.198 70.5918 358.47 71.0878C358.742 71.5758 358.878 72.1398 358.878 72.7798ZM357.45 72.3478C357.442 71.8438 357.262 71.4398 356.91 71.1358C356.558 70.8318 356.122 70.6798 355.602 70.6798C355.13 70.6798 354.726 70.8318 354.39 71.1358C354.054 71.4318 353.854 71.8358 353.79 72.3478H357.45ZM361.593 70.5958C361.793 70.2598 362.057 69.9998 362.385 69.8158C362.721 69.6238 363.117 69.5278 363.573 69.5278V70.9438H363.225C362.689 70.9438 362.281 71.0798 362.001 71.3518C361.729 71.6238 361.593 72.0958 361.593 72.7678V76.2478H360.225V69.6358H361.593V70.5958Z" fill="white"/>
</svg>
