<svg width="939" height="104" viewBox="0 0 939 104" fill="none" xmlns="http://www.w3.org/2000/svg">
<circle cx="175.956" cy="19.0941" r="5.15639" fill="white"/>
<line x1="170.8" y1="18.6643" x2="362.6" y2="18.6643" stroke="white" stroke-width="0.859399"/>
<rect x="226.949" y="0.187256" width="79.5008" height="34.4692" rx="17.2346" fill="white"/>
<path d="M250.265 13.1237V20.9219H248.701V15.8497L246.612 20.9219H245.427L243.327 15.8497V20.9219H241.763V13.1237H243.539L246.02 18.9221L248.5 13.1237H250.265ZM252.819 13.9951C252.544 13.9951 252.313 13.9095 252.127 13.7382C251.948 13.5594 251.859 13.3397 251.859 13.079C251.859 12.8183 251.948 12.6023 252.127 12.431C252.313 12.2523 252.544 12.1629 252.819 12.1629C253.095 12.1629 253.322 12.2523 253.501 12.431C253.687 12.6023 253.78 12.8183 253.78 13.079C253.78 13.3397 253.687 13.5594 253.501 13.7382C253.322 13.9095 253.095 13.9951 252.819 13.9951ZM253.59 14.7325V20.9219H252.026V14.7325H253.59ZM254.948 17.8048C254.948 17.1792 255.071 16.6243 255.317 16.1402C255.57 15.6561 255.913 15.2836 256.345 15.023C256.777 14.7623 257.257 14.6319 257.786 14.6319C258.188 14.6319 258.572 14.7213 258.937 14.9001C259.302 15.0714 259.592 15.3023 259.808 15.5927V12.6545H261.395V20.9219H259.808V20.0058C259.615 20.3111 259.343 20.5569 258.993 20.7431C258.643 20.9293 258.237 21.0224 257.775 21.0224C257.253 21.0224 256.777 20.8884 256.345 20.6202C255.913 20.3521 255.57 19.976 255.317 19.4918C255.071 19.0003 254.948 18.4379 254.948 17.8048ZM259.819 17.8272C259.819 17.4473 259.745 17.1233 259.596 16.8552C259.447 16.5796 259.246 16.3711 258.993 16.2296C258.739 16.0806 258.468 16.0061 258.177 16.0061C257.887 16.0061 257.618 16.0769 257.373 16.2184C257.127 16.3599 256.926 16.5684 256.769 16.844C256.62 17.1122 256.546 17.4324 256.546 17.8048C256.546 18.1772 256.62 18.505 256.769 18.788C256.926 19.0636 257.127 19.2758 257.373 19.4248C257.626 19.5738 257.894 19.6482 258.177 19.6482C258.468 19.6482 258.739 19.5775 258.993 19.436C259.246 19.287 259.447 19.0785 259.596 18.8103C259.745 18.5348 259.819 18.207 259.819 17.8272ZM270.796 19.436H267.69L267.176 20.9219H265.534L268.338 13.1125H270.159L272.963 20.9219H271.31L270.796 19.436ZM270.371 18.1847L269.243 14.9224L268.114 18.1847H270.371ZM275.79 15.6263C275.991 15.3432 276.267 15.1086 276.617 14.9224C276.975 14.7288 277.38 14.6319 277.835 14.6319C278.364 14.6319 278.84 14.7623 279.265 15.023C279.697 15.2836 280.036 15.6561 280.282 16.1402C280.535 16.6169 280.661 17.1717 280.661 17.8048C280.661 18.4379 280.535 19.0003 280.282 19.4918C280.036 19.976 279.697 20.3521 279.265 20.6202C278.84 20.8884 278.364 21.0224 277.835 21.0224C277.38 21.0224 276.978 20.9293 276.628 20.7431C276.286 20.5569 276.006 20.3223 275.79 20.0393V23.8713H274.226V14.7325H275.79V15.6263ZM279.064 17.8048C279.064 17.4324 278.986 17.1122 278.829 16.844C278.68 16.5684 278.479 16.3599 278.226 16.2184C277.98 16.0769 277.712 16.0061 277.421 16.0061C277.138 16.0061 276.87 16.0806 276.617 16.2296C276.371 16.3711 276.17 16.5796 276.014 16.8552C275.865 17.1308 275.79 17.4548 275.79 17.8272C275.79 18.1996 275.865 18.5236 276.014 18.7992C276.17 19.0747 276.371 19.287 276.617 19.436C276.87 19.5775 277.138 19.6482 277.421 19.6482C277.712 19.6482 277.98 19.5738 278.226 19.4248C278.479 19.2758 278.68 19.0636 278.829 18.788C278.986 18.5124 279.064 18.1847 279.064 17.8048ZM283.577 15.6933C283.778 15.3656 284.039 15.1086 284.359 14.9224C284.687 14.7362 285.059 14.6431 285.476 14.6431V16.2854H285.063C284.571 16.2854 284.199 16.4009 283.946 16.6318C283.7 16.8626 283.577 17.2648 283.577 17.8384V20.9219H282.013V14.7325H283.577V15.6933ZM287.538 13.9951C287.262 13.9951 287.031 13.9095 286.845 13.7382C286.666 13.5594 286.577 13.3397 286.577 13.079C286.577 12.8183 286.666 12.6023 286.845 12.431C287.031 12.2523 287.262 12.1629 287.538 12.1629C287.813 12.1629 288.041 12.2523 288.219 12.431C288.405 12.6023 288.499 12.8183 288.499 13.079C288.499 13.3397 288.405 13.5594 288.219 13.7382C288.041 13.9095 287.813 13.9951 287.538 13.9951ZM288.309 14.7325V20.9219H286.745V14.7325H288.309ZM291.633 12.6545V20.9219H290.069V12.6545H291.633Z" fill="#393858"/>
<path d="M188.88 70.3078C188.664 69.8918 188.364 69.5798 187.98 69.3718C187.596 69.1558 187.152 69.0478 186.648 69.0478C186.096 69.0478 185.604 69.1718 185.172 69.4198C184.74 69.6678 184.4 70.0198 184.152 70.4758C183.912 70.9318 183.792 71.4598 183.792 72.0598C183.792 72.6598 183.912 73.1918 184.152 73.6558C184.4 74.1118 184.74 74.4638 185.172 74.7118C185.604 74.9598 186.096 75.0838 186.648 75.0838C187.392 75.0838 187.996 74.8758 188.46 74.4598C188.924 74.0438 189.208 73.4798 189.312 72.7678H186.18V71.6758H190.776V72.7438C190.688 73.3918 190.456 73.9878 190.08 74.5318C189.712 75.0758 189.228 75.5118 188.628 75.8398C188.036 76.1598 187.376 76.3198 186.648 76.3198C185.864 76.3198 185.148 76.1398 184.5 75.7798C183.852 75.4118 183.336 74.9038 182.952 74.2558C182.576 73.6078 182.388 72.8758 182.388 72.0598C182.388 71.2438 182.576 70.5118 182.952 69.8638C183.336 69.2158 183.852 68.7118 184.5 68.3518C185.156 67.9838 185.872 67.7998 186.648 67.7998C187.536 67.7998 188.324 68.0198 189.012 68.4598C189.708 68.8918 190.212 69.5078 190.524 70.3078H188.88ZM198.185 72.7798C198.185 73.0278 198.169 73.2518 198.137 73.4518H193.085C193.125 73.9798 193.321 74.4038 193.673 74.7238C194.025 75.0438 194.457 75.2038 194.969 75.2038C195.705 75.2038 196.225 74.8958 196.529 74.2798H198.005C197.805 74.8878 197.441 75.3878 196.913 75.7798C196.393 76.1638 195.745 76.3558 194.969 76.3558C194.337 76.3558 193.769 76.2158 193.265 75.9358C192.769 75.6478 192.377 75.2478 192.089 74.7358C191.809 74.2158 191.669 73.6158 191.669 72.9358C191.669 72.2558 191.805 71.6598 192.077 71.1478C192.357 70.6278 192.745 70.2278 193.241 69.9478C193.745 69.6678 194.321 69.5278 194.969 69.5278C195.593 69.5278 196.149 69.6638 196.637 69.9358C197.125 70.2078 197.505 70.5918 197.777 71.0878C198.049 71.5758 198.185 72.1398 198.185 72.7798ZM196.757 72.3478C196.749 71.8438 196.569 71.4398 196.217 71.1358C195.865 70.8318 195.429 70.6798 194.909 70.6798C194.437 70.6798 194.033 70.8318 193.697 71.1358C193.361 71.4318 193.161 71.8358 193.097 72.3478H196.757ZM202.867 69.5278C203.387 69.5278 203.851 69.6358 204.259 69.8518C204.675 70.0678 204.999 70.3878 205.231 70.8118C205.463 71.2358 205.579 71.7478 205.579 72.3478V76.2478H204.223V72.5518C204.223 71.9598 204.075 71.5078 203.779 71.1958C203.483 70.8758 203.079 70.7158 202.567 70.7158C202.055 70.7158 201.647 70.8758 201.343 71.1958C201.047 71.5078 200.899 71.9598 200.899 72.5518V76.2478H199.531V69.6358H200.899V70.3918C201.123 70.1198 201.407 69.9078 201.751 69.7558C202.103 69.6038 202.475 69.5278 202.867 69.5278ZM213.384 72.7798C213.384 73.0278 213.368 73.2518 213.336 73.4518H208.284C208.324 73.9798 208.52 74.4038 208.872 74.7238C209.224 75.0438 209.656 75.2038 210.168 75.2038C210.904 75.2038 211.424 74.8958 211.728 74.2798H213.204C213.004 74.8878 212.64 75.3878 212.112 75.7798C211.592 76.1638 210.944 76.3558 210.168 76.3558C209.536 76.3558 208.968 76.2158 208.464 75.9358C207.968 75.6478 207.576 75.2478 207.288 74.7358C207.008 74.2158 206.868 73.6158 206.868 72.9358C206.868 72.2558 207.004 71.6598 207.276 71.1478C207.556 70.6278 207.944 70.2278 208.44 69.9478C208.944 69.6678 209.52 69.5278 210.168 69.5278C210.792 69.5278 211.348 69.6638 211.836 69.9358C212.324 70.2078 212.704 70.5918 212.976 71.0878C213.248 71.5758 213.384 72.1398 213.384 72.7798ZM211.956 72.3478C211.948 71.8438 211.768 71.4398 211.416 71.1358C211.064 70.8318 210.628 70.6798 210.108 70.6798C209.636 70.6798 209.232 70.8318 208.896 71.1358C208.56 71.4318 208.36 71.8358 208.296 72.3478H211.956ZM217.287 75.0238L219.159 69.6358H220.611L218.091 76.2478H216.459L213.951 69.6358H215.415L217.287 75.0238ZM221.189 72.9118C221.189 72.2478 221.325 71.6598 221.597 71.1478C221.877 70.6358 222.253 70.2398 222.725 69.9598C223.205 69.6718 223.733 69.5278 224.309 69.5278C224.829 69.5278 225.281 69.6318 225.665 69.8398C226.057 70.0398 226.369 70.2918 226.601 70.5958V69.6358H227.981V76.2478H226.601V75.2638C226.369 75.5758 226.053 75.8358 225.653 76.0438C225.253 76.2518 224.797 76.3558 224.285 76.3558C223.717 76.3558 223.197 76.2118 222.725 75.9238C222.253 75.6278 221.877 75.2198 221.597 74.6998C221.325 74.1718 221.189 73.5758 221.189 72.9118ZM226.601 72.9358C226.601 72.4798 226.505 72.0838 226.313 71.7478C226.129 71.4118 225.885 71.1558 225.581 70.9798C225.277 70.8038 224.949 70.7158 224.597 70.7158C224.245 70.7158 223.917 70.8038 223.613 70.9798C223.309 71.1478 223.061 71.3998 222.869 71.7358C222.685 72.0638 222.593 72.4558 222.593 72.9118C222.593 73.3678 222.685 73.7678 222.869 74.1118C223.061 74.4558 223.309 74.7198 223.613 74.9038C223.925 75.0798 224.253 75.1678 224.597 75.1678C224.949 75.1678 225.277 75.0798 225.581 74.9038C225.885 74.7278 226.129 74.4718 226.313 74.1358C226.505 73.7918 226.601 73.3918 226.601 72.9358ZM234.263 69.0118V71.4598H237.143V72.5758H234.263V75.1318H237.503V76.2478H232.895V67.8958H237.503V69.0118H234.263ZM241.744 75.0238L243.616 69.6358H245.068L242.548 76.2478H240.916L238.408 69.6358H239.872L241.744 75.0238ZM252.162 72.7798C252.162 73.0278 252.146 73.2518 252.114 73.4518H247.062C247.102 73.9798 247.298 74.4038 247.65 74.7238C248.002 75.0438 248.434 75.2038 248.946 75.2038C249.682 75.2038 250.202 74.8958 250.506 74.2798H251.982C251.782 74.8878 251.418 75.3878 250.89 75.7798C250.37 76.1638 249.722 76.3558 248.946 76.3558C248.314 76.3558 247.746 76.2158 247.242 75.9358C246.746 75.6478 246.354 75.2478 246.066 74.7358C245.786 74.2158 245.646 73.6158 245.646 72.9358C245.646 72.2558 245.782 71.6598 246.054 71.1478C246.334 70.6278 246.722 70.2278 247.218 69.9478C247.722 69.6678 248.298 69.5278 248.946 69.5278C249.57 69.5278 250.126 69.6638 250.614 69.9358C251.102 70.2078 251.482 70.5918 251.754 71.0878C252.026 71.5758 252.162 72.1398 252.162 72.7798ZM250.734 72.3478C250.726 71.8438 250.546 71.4398 250.194 71.1358C249.842 70.8318 249.406 70.6798 248.886 70.6798C248.414 70.6798 248.01 70.8318 247.674 71.1358C247.338 71.4318 247.138 71.8358 247.074 72.3478H250.734ZM256.844 69.5278C257.364 69.5278 257.828 69.6358 258.236 69.8518C258.652 70.0678 258.976 70.3878 259.208 70.8118C259.44 71.2358 259.556 71.7478 259.556 72.3478V76.2478H258.2V72.5518C258.2 71.9598 258.052 71.5078 257.756 71.1958C257.46 70.8758 257.056 70.7158 256.544 70.7158C256.032 70.7158 255.624 70.8758 255.32 71.1958C255.024 71.5078 254.876 71.9598 254.876 72.5518V76.2478H253.508V69.6358H254.876V70.3918C255.1 70.1198 255.384 69.9078 255.728 69.7558C256.08 69.6038 256.452 69.5278 256.844 69.5278ZM262.897 70.7518V74.4118C262.897 74.6598 262.953 74.8398 263.065 74.9518C263.185 75.0558 263.385 75.1078 263.665 75.1078H264.505V76.2478H263.425C262.809 76.2478 262.337 76.1038 262.009 75.8158C261.681 75.5278 261.517 75.0598 261.517 74.4118V70.7518H260.737V69.6358H261.517V67.9918H262.897V69.6358H264.505V70.7518H262.897ZM274.715 70.3918C274.715 70.8158 274.615 71.2158 274.415 71.5918C274.215 71.9678 273.895 72.2758 273.455 72.5158C273.015 72.7478 272.451 72.8638 271.763 72.8638H270.251V76.2478H268.883V67.9078H271.763C272.403 67.9078 272.943 68.0198 273.383 68.2438C273.831 68.4598 274.163 68.7558 274.379 69.1318C274.603 69.5078 274.715 69.9278 274.715 70.3918ZM271.763 71.7478C272.283 71.7478 272.671 71.6318 272.927 71.3998C273.183 71.1598 273.311 70.8238 273.311 70.3918C273.311 69.4798 272.795 69.0238 271.763 69.0238H270.251V71.7478H271.763ZM277.388 70.5958C277.588 70.2598 277.852 69.9998 278.18 69.8158C278.516 69.6238 278.912 69.5278 279.368 69.5278V70.9438H279.02C278.484 70.9438 278.076 71.0798 277.796 71.3518C277.524 71.6238 277.388 72.0958 277.388 72.7678V76.2478H276.02V69.6358H277.388V70.5958ZM286.685 72.7798C286.685 73.0278 286.669 73.2518 286.637 73.4518H281.585C281.625 73.9798 281.821 74.4038 282.173 74.7238C282.525 75.0438 282.957 75.2038 283.469 75.2038C284.205 75.2038 284.725 74.8958 285.029 74.2798H286.505C286.305 74.8878 285.941 75.3878 285.413 75.7798C284.893 76.1638 284.245 76.3558 283.469 76.3558C282.837 76.3558 282.269 76.2158 281.765 75.9358C281.269 75.6478 280.877 75.2478 280.589 74.7358C280.309 74.2158 280.169 73.6158 280.169 72.9358C280.169 72.2558 280.305 71.6598 280.577 71.1478C280.857 70.6278 281.245 70.2278 281.741 69.9478C282.245 69.6678 282.821 69.5278 283.469 69.5278C284.093 69.5278 284.649 69.6638 285.137 69.9358C285.625 70.2078 286.005 70.5918 286.277 71.0878C286.549 71.5758 286.685 72.1398 286.685 72.7798ZM285.257 72.3478C285.249 71.8438 285.069 71.4398 284.717 71.1358C284.365 70.8318 283.929 70.6798 283.409 70.6798C282.937 70.6798 282.533 70.8318 282.197 71.1358C281.861 71.4318 281.661 71.8358 281.597 72.3478H285.257ZM289.399 70.6078C289.631 70.3038 289.947 70.0478 290.347 69.8398C290.747 69.6318 291.199 69.5278 291.703 69.5278C292.279 69.5278 292.803 69.6718 293.275 69.9598C293.755 70.2398 294.131 70.6358 294.403 71.1478C294.675 71.6598 294.811 72.2478 294.811 72.9118C294.811 73.5758 294.675 74.1718 294.403 74.6998C294.131 75.2198 293.755 75.6278 293.275 75.9238C292.803 76.2118 292.279 76.3558 291.703 76.3558C291.199 76.3558 290.751 76.2558 290.359 76.0558C289.967 75.8478 289.647 75.5918 289.399 75.2878V79.3918H288.031V69.6358H289.399V70.6078ZM293.419 72.9118C293.419 72.4558 293.323 72.0638 293.131 71.7358C292.947 71.3998 292.699 71.1478 292.387 70.9798C292.083 70.8038 291.755 70.7158 291.403 70.7158C291.059 70.7158 290.731 70.8038 290.419 70.9798C290.115 71.1558 289.867 71.4118 289.675 71.7478C289.491 72.0838 289.399 72.4798 289.399 72.9358C289.399 73.3918 289.491 73.7918 289.675 74.1358C289.867 74.4718 290.115 74.7278 290.419 74.9038C290.731 75.0798 291.059 75.1678 291.403 75.1678C291.755 75.1678 292.083 75.0798 292.387 74.9038C292.699 74.7198 292.947 74.4558 293.131 74.1118C293.323 73.7678 293.419 73.3678 293.419 72.9118ZM295.708 72.9118C295.708 72.2478 295.844 71.6598 296.116 71.1478C296.396 70.6358 296.772 70.2398 297.244 69.9598C297.724 69.6718 298.252 69.5278 298.828 69.5278C299.348 69.5278 299.8 69.6318 300.184 69.8398C300.576 70.0398 300.888 70.2918 301.12 70.5958V69.6358H302.5V76.2478H301.12V75.2638C300.888 75.5758 300.572 75.8358 300.172 76.0438C299.772 76.2518 299.316 76.3558 298.804 76.3558C298.236 76.3558 297.716 76.2118 297.244 75.9238C296.772 75.6278 296.396 75.2198 296.116 74.6998C295.844 74.1718 295.708 73.5758 295.708 72.9118ZM301.12 72.9358C301.12 72.4798 301.024 72.0838 300.832 71.7478C300.648 71.4118 300.404 71.1558 300.1 70.9798C299.796 70.8038 299.468 70.7158 299.116 70.7158C298.764 70.7158 298.436 70.8038 298.132 70.9798C297.828 71.1478 297.58 71.3998 297.388 71.7358C297.204 72.0638 297.112 72.4558 297.112 72.9118C297.112 73.3678 297.204 73.7678 297.388 74.1118C297.58 74.4558 297.828 74.7198 298.132 74.9038C298.444 75.0798 298.772 75.1678 299.116 75.1678C299.468 75.1678 299.796 75.0798 300.1 74.9038C300.404 74.7278 300.648 74.4718 300.832 74.1358C301.024 73.7918 301.12 73.3918 301.12 72.9358ZM305.665 70.5958C305.865 70.2598 306.129 69.9998 306.457 69.8158C306.793 69.6238 307.189 69.5278 307.645 69.5278V70.9438H307.297C306.761 70.9438 306.353 71.0798 306.073 71.3518C305.801 71.6238 305.665 72.0958 305.665 72.7678V76.2478H304.297V69.6358H305.665V70.5958ZM308.446 72.9118C308.446 72.2478 308.582 71.6598 308.854 71.1478C309.134 70.6358 309.51 70.2398 309.982 69.9598C310.462 69.6718 310.99 69.5278 311.566 69.5278C312.086 69.5278 312.538 69.6318 312.922 69.8398C313.314 70.0398 313.626 70.2918 313.858 70.5958V69.6358H315.238V76.2478H313.858V75.2638C313.626 75.5758 313.31 75.8358 312.91 76.0438C312.51 76.2518 312.054 76.3558 311.542 76.3558C310.974 76.3558 310.454 76.2118 309.982 75.9238C309.51 75.6278 309.134 75.2198 308.854 74.6998C308.582 74.1718 308.446 73.5758 308.446 72.9118ZM313.858 72.9358C313.858 72.4798 313.762 72.0838 313.57 71.7478C313.386 71.4118 313.142 71.1558 312.838 70.9798C312.534 70.8038 312.206 70.7158 311.854 70.7158C311.502 70.7158 311.174 70.8038 310.87 70.9798C310.566 71.1478 310.318 71.3998 310.126 71.7358C309.942 72.0638 309.85 72.4558 309.85 72.9118C309.85 73.3678 309.942 73.7678 310.126 74.1118C310.318 74.4558 310.566 74.7198 310.87 74.9038C311.182 75.0798 311.51 75.1678 311.854 75.1678C312.206 75.1678 312.534 75.0798 312.838 74.9038C313.142 74.7278 313.386 74.4718 313.57 74.1358C313.762 73.7918 313.858 73.3918 313.858 72.9358ZM318.631 70.7518V74.4118C318.631 74.6598 318.687 74.8398 318.799 74.9518C318.919 75.0558 319.119 75.1078 319.399 75.1078H320.239V76.2478H319.159C318.543 76.2478 318.071 76.1038 317.743 75.8158C317.415 75.5278 317.251 75.0598 317.251 74.4118V70.7518H316.471V69.6358H317.251V67.9918H318.631V69.6358H320.239V70.7518H318.631ZM322.196 68.7598C321.948 68.7598 321.74 68.6758 321.572 68.5078C321.404 68.3398 321.32 68.1318 321.32 67.8838C321.32 67.6358 321.404 67.4278 321.572 67.2598C321.74 67.0918 321.948 67.0078 322.196 67.0078C322.436 67.0078 322.64 67.0918 322.808 67.2598C322.976 67.4278 323.06 67.6358 323.06 67.8838C323.06 68.1318 322.976 68.3398 322.808 68.5078C322.64 68.6758 322.436 68.7598 322.196 68.7598ZM322.868 69.6358V76.2478H321.5V69.6358H322.868ZM327.532 76.3558C326.908 76.3558 326.344 76.2158 325.84 75.9358C325.336 75.6478 324.94 75.2478 324.652 74.7358C324.364 74.2158 324.22 73.6158 324.22 72.9358C324.22 72.2638 324.368 71.6678 324.664 71.1478C324.96 70.6278 325.364 70.2278 325.876 69.9478C326.388 69.6678 326.96 69.5278 327.592 69.5278C328.224 69.5278 328.796 69.6678 329.308 69.9478C329.82 70.2278 330.224 70.6278 330.52 71.1478C330.816 71.6678 330.964 72.2638 330.964 72.9358C330.964 73.6078 330.812 74.2038 330.508 74.7238C330.204 75.2438 329.788 75.6478 329.26 75.9358C328.74 76.2158 328.164 76.3558 327.532 76.3558ZM327.532 75.1678C327.884 75.1678 328.212 75.0838 328.516 74.9158C328.828 74.7478 329.08 74.4958 329.272 74.1598C329.464 73.8238 329.56 73.4158 329.56 72.9358C329.56 72.4558 329.468 72.0518 329.284 71.7238C329.1 71.3878 328.856 71.1358 328.552 70.9678C328.248 70.7998 327.92 70.7158 327.568 70.7158C327.216 70.7158 326.888 70.7998 326.584 70.9678C326.288 71.1358 326.052 71.3878 325.876 71.7238C325.7 72.0518 325.612 72.4558 325.612 72.9358C325.612 73.6478 325.792 74.1998 326.152 74.5918C326.52 74.9758 326.98 75.1678 327.532 75.1678ZM335.652 69.5278C336.172 69.5278 336.636 69.6358 337.044 69.8518C337.46 70.0678 337.784 70.3878 338.016 70.8118C338.248 71.2358 338.364 71.7478 338.364 72.3478V76.2478H337.008V72.5518C337.008 71.9598 336.86 71.5078 336.564 71.1958C336.268 70.8758 335.864 70.7158 335.352 70.7158C334.84 70.7158 334.432 70.8758 334.128 71.1958C333.832 71.5078 333.684 71.9598 333.684 72.5518V76.2478H332.316V69.6358H333.684V70.3918C333.908 70.1198 334.192 69.9078 334.536 69.7558C334.888 69.6038 335.26 69.5278 335.652 69.5278ZM349.671 76.2478L348.639 75.2158C348.239 75.6158 347.803 75.9158 347.331 76.1158C346.859 76.3078 346.331 76.4038 345.747 76.4038C345.155 76.4038 344.631 76.2998 344.175 76.0918C343.719 75.8838 343.367 75.5878 343.119 75.2038C342.871 74.8118 342.747 74.3598 342.747 73.8478C342.747 73.2718 342.911 72.7598 343.239 72.3118C343.567 71.8558 344.055 71.4958 344.703 71.2318C344.471 70.9518 344.307 70.6918 344.211 70.4518C344.115 70.2038 344.067 69.9318 344.067 69.6358C344.067 69.2678 344.159 68.9398 344.343 68.6518C344.535 68.3638 344.807 68.1358 345.159 67.9678C345.511 67.7998 345.919 67.7158 346.383 67.7158C346.855 67.7158 347.255 67.8078 347.583 67.9918C347.919 68.1678 348.167 68.4118 348.327 68.7238C348.495 69.0358 348.563 69.3838 348.531 69.7678H347.163C347.171 69.4718 347.099 69.2438 346.947 69.0838C346.795 68.9158 346.587 68.8318 346.323 68.8318C346.059 68.8318 345.843 68.9118 345.675 69.0718C345.515 69.2238 345.435 69.4118 345.435 69.6358C345.435 69.8518 345.495 70.0678 345.615 70.2838C345.743 70.4918 345.963 70.7638 346.275 71.0998L348.483 73.2958L349.335 71.8918H350.811L349.731 73.7398L349.431 74.2318L351.459 76.2478H349.671ZM345.747 75.2398C346.499 75.2398 347.163 74.9318 347.739 74.3158L345.531 72.0958C344.587 72.4718 344.115 73.0398 344.115 73.7998C344.115 74.2078 344.267 74.5518 344.571 74.8318C344.875 75.1038 345.267 75.2398 345.747 75.2398ZM247.765 89.9638C248.213 90.0438 248.593 90.2798 248.905 90.6718C249.217 91.0638 249.373 91.5078 249.373 92.0038C249.373 92.4278 249.261 92.8118 249.037 93.1558C248.821 93.4918 248.505 93.7598 248.089 93.9598C247.673 94.1518 247.189 94.2478 246.637 94.2478H243.301V85.9078H246.481C247.049 85.9078 247.537 86.0038 247.945 86.1958C248.353 86.3878 248.661 86.6478 248.869 86.9758C249.077 87.2958 249.181 87.6558 249.181 88.0558C249.181 88.5358 249.053 88.9358 248.797 89.2558C248.541 89.5758 248.197 89.8118 247.765 89.9638ZM244.669 89.4118H246.361C246.809 89.4118 247.157 89.3118 247.405 89.1118C247.661 88.9038 247.789 88.6078 247.789 88.2238C247.789 87.8478 247.661 87.5558 247.405 87.3478C247.157 87.1318 246.809 87.0238 246.361 87.0238H244.669V89.4118ZM246.517 93.1318C246.981 93.1318 247.345 93.0198 247.609 92.7958C247.873 92.5718 248.005 92.2598 248.005 91.8598C248.005 91.4518 247.865 91.1278 247.585 90.8878C247.305 90.6478 246.933 90.5278 246.469 90.5278H244.669V93.1318H246.517ZM253.727 94.3558C253.103 94.3558 252.539 94.2158 252.035 93.9358C251.531 93.6478 251.135 93.2478 250.847 92.7358C250.559 92.2158 250.415 91.6158 250.415 90.9358C250.415 90.2638 250.563 89.6678 250.859 89.1478C251.155 88.6278 251.559 88.2278 252.071 87.9478C252.583 87.6678 253.155 87.5278 253.787 87.5278C254.419 87.5278 254.991 87.6678 255.503 87.9478C256.015 88.2278 256.419 88.6278 256.715 89.1478C257.011 89.6678 257.159 90.2638 257.159 90.9358C257.159 91.6078 257.007 92.2038 256.703 92.7238C256.399 93.2438 255.983 93.6478 255.455 93.9358C254.935 94.2158 254.359 94.3558 253.727 94.3558ZM253.727 93.1678C254.079 93.1678 254.407 93.0838 254.711 92.9158C255.023 92.7478 255.275 92.4958 255.467 92.1598C255.659 91.8238 255.755 91.4158 255.755 90.9358C255.755 90.4558 255.663 90.0518 255.479 89.7238C255.295 89.3878 255.051 89.1358 254.747 88.9678C254.443 88.7998 254.115 88.7158 253.763 88.7158C253.411 88.7158 253.083 88.7998 252.779 88.9678C252.483 89.1358 252.247 89.3878 252.071 89.7238C251.895 90.0518 251.807 90.4558 251.807 90.9358C251.807 91.6478 251.987 92.1998 252.347 92.5918C252.715 92.9758 253.175 93.1678 253.727 93.1678ZM261.38 94.3558C260.756 94.3558 260.192 94.2158 259.688 93.9358C259.184 93.6478 258.788 93.2478 258.5 92.7358C258.212 92.2158 258.068 91.6158 258.068 90.9358C258.068 90.2638 258.216 89.6678 258.512 89.1478C258.808 88.6278 259.212 88.2278 259.724 87.9478C260.236 87.6678 260.808 87.5278 261.44 87.5278C262.072 87.5278 262.644 87.6678 263.156 87.9478C263.668 88.2278 264.072 88.6278 264.368 89.1478C264.664 89.6678 264.812 90.2638 264.812 90.9358C264.812 91.6078 264.66 92.2038 264.356 92.7238C264.052 93.2438 263.636 93.6478 263.108 93.9358C262.588 94.2158 262.012 94.3558 261.38 94.3558ZM261.38 93.1678C261.732 93.1678 262.06 93.0838 262.364 92.9158C262.676 92.7478 262.928 92.4958 263.12 92.1598C263.312 91.8238 263.408 91.4158 263.408 90.9358C263.408 90.4558 263.316 90.0518 263.132 89.7238C262.948 89.3878 262.704 89.1358 262.4 88.9678C262.096 88.7998 261.768 88.7158 261.416 88.7158C261.064 88.7158 260.736 88.7998 260.432 88.9678C260.136 89.1358 259.9 89.3878 259.724 89.7238C259.548 90.0518 259.46 90.4558 259.46 90.9358C259.46 91.6478 259.64 92.1998 260 92.5918C260.368 92.9758 260.828 93.1678 261.38 93.1678ZM268.78 90.9478L271.828 94.2478H269.98L267.532 91.4038V94.2478H266.164V85.3678H267.532V90.5278L269.932 87.6358H271.828L268.78 90.9478ZM273.505 86.7598C273.257 86.7598 273.049 86.6758 272.881 86.5078C272.713 86.3398 272.629 86.1318 272.629 85.8838C272.629 85.6358 272.713 85.4278 272.881 85.2598C273.049 85.0918 273.257 85.0078 273.505 85.0078C273.745 85.0078 273.949 85.0918 274.117 85.2598C274.285 85.4278 274.369 85.6358 274.369 85.8838C274.369 86.1318 274.285 86.3398 274.117 86.5078C273.949 86.6758 273.745 86.7598 273.505 86.7598ZM274.177 87.6358V94.2478H272.809V87.6358H274.177ZM279.309 87.5278C279.829 87.5278 280.293 87.6358 280.701 87.8518C281.117 88.0678 281.441 88.3878 281.673 88.8118C281.905 89.2358 282.021 89.7478 282.021 90.3478V94.2478H280.665V90.5518C280.665 89.9598 280.517 89.5078 280.221 89.1958C279.925 88.8758 279.521 88.7158 279.009 88.7158C278.497 88.7158 278.089 88.8758 277.785 89.1958C277.489 89.5078 277.341 89.9598 277.341 90.5518V94.2478H275.973V87.6358H277.341V88.3918C277.565 88.1198 277.849 87.9078 278.193 87.7558C278.545 87.6038 278.917 87.5278 279.309 87.5278ZM286.43 87.5278C286.942 87.5278 287.394 87.6318 287.786 87.8398C288.186 88.0398 288.498 88.2918 288.722 88.5958V87.6358H290.102V94.3558C290.102 94.9638 289.974 95.5038 289.718 95.9758C289.462 96.4558 289.09 96.8318 288.602 97.1038C288.122 97.3758 287.546 97.5118 286.874 97.5118C285.978 97.5118 285.234 97.2998 284.642 96.8758C284.05 96.4598 283.714 95.8918 283.634 95.1718H284.99C285.094 95.5158 285.314 95.7918 285.65 95.9998C285.994 96.2158 286.402 96.3238 286.874 96.3238C287.426 96.3238 287.87 96.1558 288.206 95.8198C288.55 95.4838 288.722 94.9958 288.722 94.3558V93.2518C288.49 93.5638 288.174 93.8278 287.774 94.0438C287.382 94.2518 286.934 94.3558 286.43 94.3558C285.854 94.3558 285.326 94.2118 284.846 93.9238C284.374 93.6278 283.998 93.2198 283.718 92.6998C283.446 92.1718 283.31 91.5758 283.31 90.9118C283.31 90.2478 283.446 89.6598 283.718 89.1478C283.998 88.6358 284.374 88.2398 284.846 87.9598C285.326 87.6718 285.854 87.5278 286.43 87.5278ZM288.722 90.9358C288.722 90.4798 288.626 90.0838 288.434 89.7478C288.25 89.4118 288.006 89.1558 287.702 88.9798C287.398 88.8038 287.07 88.7158 286.718 88.7158C286.366 88.7158 286.038 88.8038 285.734 88.9798C285.43 89.1478 285.182 89.3998 284.99 89.7358C284.806 90.0638 284.714 90.4558 284.714 90.9118C284.714 91.3678 284.806 91.7678 284.99 92.1118C285.182 92.4558 285.43 92.7198 285.734 92.9038C286.046 93.0798 286.374 93.1678 286.718 93.1678C287.07 93.1678 287.398 93.0798 287.702 92.9038C288.006 92.7278 288.25 92.4718 288.434 92.1358C288.626 91.7918 288.722 91.3918 288.722 90.9358Z" fill="white"/>
<circle cx="367.757" cy="19.0941" r="5.15639" fill="white"/>
<line x1="362.6" y1="18.6643" x2="554.4" y2="18.6643" stroke="white" stroke-width="0.859399"/>
<rect x="381.25" y="0.187256" width="154.501" height="34.4692" rx="17.2346" fill="white"/>
<path d="M404.369 13.1237V20.9219H402.805V15.8497L400.715 20.9219H399.531L397.431 15.8497V20.9219H395.867V13.1237H397.643L400.123 18.9221L402.604 13.1237H404.369ZM406.923 13.9951C406.648 13.9951 406.417 13.9095 406.231 13.7382C406.052 13.5594 405.962 13.3397 405.962 13.079C405.962 12.8183 406.052 12.6023 406.231 12.431C406.417 12.2523 406.648 12.1629 406.923 12.1629C407.199 12.1629 407.426 12.2523 407.605 12.431C407.791 12.6023 407.884 12.8183 407.884 13.079C407.884 13.3397 407.791 13.5594 407.605 13.7382C407.426 13.9095 407.199 13.9951 406.923 13.9951ZM407.694 14.7325V20.9219H406.13V14.7325H407.694ZM409.052 17.8048C409.052 17.1792 409.175 16.6243 409.421 16.1402C409.674 15.6561 410.017 15.2836 410.449 15.023C410.881 14.7623 411.361 14.6319 411.89 14.6319C412.292 14.6319 412.676 14.7213 413.041 14.9001C413.406 15.0714 413.696 15.3023 413.912 15.5927V12.6545H415.498V20.9219H413.912V20.0058C413.718 20.3111 413.446 20.5569 413.096 20.7431C412.746 20.9293 412.34 21.0224 411.879 21.0224C411.357 21.0224 410.881 20.8884 410.449 20.6202C410.017 20.3521 409.674 19.976 409.421 19.4918C409.175 19.0003 409.052 18.4379 409.052 17.8048ZM413.923 17.8272C413.923 17.4473 413.849 17.1233 413.7 16.8552C413.551 16.5796 413.35 16.3711 413.096 16.2296C412.843 16.0806 412.571 16.0061 412.281 16.0061C411.99 16.0061 411.722 16.0769 411.476 16.2184C411.231 16.3599 411.03 16.5684 410.873 16.844C410.724 17.1122 410.65 17.4324 410.65 17.8048C410.65 18.1772 410.724 18.505 410.873 18.788C411.03 19.0636 411.231 19.2758 411.476 19.4248C411.73 19.5738 411.998 19.6482 412.281 19.6482C412.571 19.6482 412.843 19.5775 413.096 19.436C413.35 19.287 413.551 19.0785 413.7 18.8103C413.849 18.5348 413.923 18.207 413.923 17.8272ZM428.62 13.1237V20.9219H427.056V15.8497L424.967 20.9219H423.782L421.682 15.8497V20.9219H420.118V13.1237H421.894L424.374 18.9221L426.855 13.1237H428.62ZM429.979 17.8048C429.979 17.1792 430.102 16.6243 430.348 16.1402C430.601 15.6561 430.94 15.2836 431.364 15.023C431.796 14.7623 432.277 14.6319 432.806 14.6319C433.267 14.6319 433.67 14.725 434.012 14.9112C434.362 15.0974 434.641 15.3321 434.85 15.6151V14.7325H436.425V20.9219H434.85V20.0169C434.649 20.3074 434.37 20.5495 434.012 20.7431C433.662 20.9293 433.256 21.0224 432.794 21.0224C432.273 21.0224 431.796 20.8884 431.364 20.6202C430.94 20.3521 430.601 19.976 430.348 19.4918C430.102 19.0003 429.979 18.4379 429.979 17.8048ZM434.85 17.8272C434.85 17.4473 434.776 17.1233 434.627 16.8552C434.478 16.5796 434.277 16.3711 434.023 16.2296C433.77 16.0806 433.498 16.0061 433.208 16.0061C432.917 16.0061 432.649 16.0769 432.403 16.2184C432.158 16.3599 431.956 16.5684 431.8 16.844C431.651 17.1122 431.577 17.4324 431.577 17.8048C431.577 18.1772 431.651 18.505 431.8 18.788C431.956 19.0636 432.158 19.2758 432.403 19.4248C432.657 19.5738 432.925 19.6482 433.208 19.6482C433.498 19.6482 433.77 19.5775 434.023 19.436C434.277 19.287 434.478 19.0785 434.627 18.8103C434.776 18.5348 434.85 18.207 434.85 17.8272ZM444.089 14.7325L440.257 23.849H438.592L439.933 20.7655L437.453 14.7325H439.207L440.804 19.0561L442.424 14.7325H444.089ZM450.728 23.1228C450.005 22.4227 449.443 21.5289 449.041 20.4415C448.646 19.354 448.449 18.1884 448.449 16.9446C448.449 15.6709 448.657 14.4755 449.074 13.3583C449.491 12.2336 450.098 11.3138 450.895 10.5988H452.471V10.744C451.651 11.5261 451.026 12.4645 450.594 13.5594C450.169 14.6543 449.957 15.7827 449.957 16.9446C449.957 18.0767 450.158 19.1716 450.56 20.2292C450.97 21.2794 451.551 22.1918 452.303 22.9664V23.1228H450.728ZM464.085 13.1237L461.906 20.9219H460.063L458.599 15.3693L457.069 20.9219L455.237 20.933L453.136 13.1237H454.812L456.186 19.179L457.773 13.1237H459.516L461.013 19.1455L462.398 13.1237H464.085ZM471.79 13.1237V20.9219H470.226V17.6037H466.885V20.9219H465.321V13.1237H466.885V16.3301H470.226V13.1237H471.79ZM478.326 19.436H475.22L474.706 20.9219H473.064L475.868 13.1125H477.689L480.493 20.9219H478.84L478.326 19.436ZM477.901 18.1847L476.773 14.9224L475.644 18.1847H477.901ZM495.057 13.1237L492.878 20.9219H491.035L489.571 15.3693L488.041 20.9219L486.208 20.933L484.108 13.1237H485.784L487.158 19.179L488.745 13.1237H490.487L491.985 19.1455L493.37 13.1237H495.057ZM502.047 17.6931C502.047 17.9166 502.032 18.1177 502.002 18.2964H497.477C497.514 18.7433 497.671 19.0934 497.946 19.3466C498.222 19.5998 498.561 19.7265 498.963 19.7265C499.544 19.7265 499.957 19.4769 500.203 18.9779H501.89C501.712 19.5738 501.369 20.0653 500.862 20.4526C500.356 20.8325 499.734 21.0224 498.997 21.0224C498.401 21.0224 497.865 20.8921 497.388 20.6314C496.919 20.3633 496.55 19.9871 496.282 19.503C496.021 19.0189 495.891 18.4603 495.891 17.8272C495.891 17.1866 496.021 16.6243 496.282 16.1402C496.543 15.6561 496.907 15.2836 497.377 15.023C497.846 14.7623 498.386 14.6319 498.997 14.6319C499.585 14.6319 500.11 14.7586 500.572 15.0118C501.041 15.265 501.402 15.6263 501.656 16.0955C501.916 16.5573 502.047 17.0898 502.047 17.6931ZM500.427 17.2462C500.419 16.844 500.274 16.5238 499.991 16.2854C499.708 16.0396 499.362 15.9167 498.952 15.9167C498.565 15.9167 498.237 16.0359 497.969 16.2742C497.708 16.5051 497.548 16.8291 497.488 17.2462H500.427ZM509.157 17.6931C509.157 17.9166 509.142 18.1177 509.112 18.2964H504.587C504.625 18.7433 504.781 19.0934 505.057 19.3466C505.332 19.5998 505.671 19.7265 506.073 19.7265C506.654 19.7265 507.068 19.4769 507.313 18.9779H509C508.822 19.5738 508.479 20.0653 507.973 20.4526C507.466 20.8325 506.844 21.0224 506.107 21.0224C505.511 21.0224 504.975 20.8921 504.498 20.6314C504.029 20.3633 503.66 19.9871 503.392 19.503C503.131 19.0189 503.001 18.4603 503.001 17.8272C503.001 17.1866 503.131 16.6243 503.392 16.1402C503.653 15.6561 504.018 15.2836 504.487 15.023C504.956 14.7623 505.496 14.6319 506.107 14.6319C506.695 14.6319 507.22 14.7586 507.682 15.0118C508.151 15.265 508.513 15.6263 508.766 16.0955C509.027 16.5573 509.157 17.0898 509.157 17.6931ZM507.537 17.2462C507.529 16.844 507.384 16.5238 507.101 16.2854C506.818 16.0396 506.472 15.9167 506.062 15.9167C505.675 15.9167 505.347 16.0359 505.079 16.2742C504.818 16.5051 504.658 16.8291 504.599 17.2462H507.537ZM514.178 20.9219L512.077 18.2852V20.9219H510.513V12.6545H512.077V17.3579L514.155 14.7325H516.189L513.463 17.8384L516.211 20.9219H514.178ZM516.85 23.1228V22.9664C517.603 22.1918 518.18 21.2794 518.582 20.2292C518.992 19.1716 519.197 18.0767 519.197 16.9446C519.197 15.7827 518.981 14.6543 518.549 13.5594C518.124 12.4645 517.502 11.5261 516.683 10.744V10.5988H518.258C519.055 11.3138 519.662 12.2336 520.079 13.3583C520.496 14.4755 520.705 15.6709 520.705 16.9446C520.705 18.1884 520.504 19.354 520.101 20.4415C519.707 21.5289 519.148 22.4227 518.426 23.1228H516.85Z" fill="#393858"/>
<path d="M394.854 70.3078C394.638 69.8918 394.338 69.5798 393.954 69.3718C393.57 69.1558 393.126 69.0478 392.622 69.0478C392.07 69.0478 391.578 69.1718 391.146 69.4198C390.714 69.6678 390.374 70.0198 390.126 70.4758C389.886 70.9318 389.766 71.4598 389.766 72.0598C389.766 72.6598 389.886 73.1918 390.126 73.6558C390.374 74.1118 390.714 74.4638 391.146 74.7118C391.578 74.9598 392.07 75.0838 392.622 75.0838C393.366 75.0838 393.97 74.8758 394.434 74.4598C394.898 74.0438 395.182 73.4798 395.286 72.7678H392.154V71.6758H396.75V72.7438C396.662 73.3918 396.43 73.9878 396.054 74.5318C395.686 75.0758 395.202 75.5118 394.602 75.8398C394.01 76.1598 393.35 76.3198 392.622 76.3198C391.838 76.3198 391.122 76.1398 390.474 75.7798C389.826 75.4118 389.31 74.9038 388.926 74.2558C388.55 73.6078 388.362 72.8758 388.362 72.0598C388.362 71.2438 388.55 70.5118 388.926 69.8638C389.31 69.2158 389.826 68.7118 390.474 68.3518C391.13 67.9838 391.846 67.7998 392.622 67.7998C393.51 67.7998 394.298 68.0198 394.986 68.4598C395.682 68.8918 396.186 69.5078 396.498 70.3078H394.854ZM404.159 72.7798C404.159 73.0278 404.143 73.2518 404.111 73.4518H399.059C399.099 73.9798 399.295 74.4038 399.647 74.7238C399.999 75.0438 400.431 75.2038 400.943 75.2038C401.679 75.2038 402.199 74.8958 402.503 74.2798H403.979C403.779 74.8878 403.415 75.3878 402.887 75.7798C402.367 76.1638 401.719 76.3558 400.943 76.3558C400.311 76.3558 399.743 76.2158 399.239 75.9358C398.743 75.6478 398.351 75.2478 398.063 74.7358C397.783 74.2158 397.643 73.6158 397.643 72.9358C397.643 72.2558 397.779 71.6598 398.051 71.1478C398.331 70.6278 398.719 70.2278 399.215 69.9478C399.719 69.6678 400.295 69.5278 400.943 69.5278C401.567 69.5278 402.123 69.6638 402.611 69.9358C403.099 70.2078 403.479 70.5918 403.751 71.0878C404.023 71.5758 404.159 72.1398 404.159 72.7798ZM402.731 72.3478C402.723 71.8438 402.543 71.4398 402.191 71.1358C401.839 70.8318 401.403 70.6798 400.883 70.6798C400.411 70.6798 400.007 70.8318 399.671 71.1358C399.335 71.4318 399.135 71.8358 399.071 72.3478H402.731ZM408.841 69.5278C409.361 69.5278 409.825 69.6358 410.233 69.8518C410.649 70.0678 410.973 70.3878 411.205 70.8118C411.437 71.2358 411.553 71.7478 411.553 72.3478V76.2478H410.197V72.5518C410.197 71.9598 410.049 71.5078 409.753 71.1958C409.457 70.8758 409.053 70.7158 408.541 70.7158C408.029 70.7158 407.621 70.8758 407.317 71.1958C407.021 71.5078 406.873 71.9598 406.873 72.5518V76.2478H405.505V69.6358H406.873V70.3918C407.097 70.1198 407.381 69.9078 407.725 69.7558C408.077 69.6038 408.449 69.5278 408.841 69.5278ZM419.358 72.7798C419.358 73.0278 419.342 73.2518 419.31 73.4518H414.258C414.298 73.9798 414.494 74.4038 414.846 74.7238C415.198 75.0438 415.63 75.2038 416.142 75.2038C416.878 75.2038 417.398 74.8958 417.702 74.2798H419.178C418.978 74.8878 418.614 75.3878 418.086 75.7798C417.566 76.1638 416.918 76.3558 416.142 76.3558C415.51 76.3558 414.942 76.2158 414.438 75.9358C413.942 75.6478 413.55 75.2478 413.262 74.7358C412.982 74.2158 412.842 73.6158 412.842 72.9358C412.842 72.2558 412.978 71.6598 413.25 71.1478C413.53 70.6278 413.918 70.2278 414.414 69.9478C414.918 69.6678 415.494 69.5278 416.142 69.5278C416.766 69.5278 417.322 69.6638 417.81 69.9358C418.298 70.2078 418.678 70.5918 418.95 71.0878C419.222 71.5758 419.358 72.1398 419.358 72.7798ZM417.93 72.3478C417.922 71.8438 417.742 71.4398 417.39 71.1358C417.038 70.8318 416.602 70.6798 416.082 70.6798C415.61 70.6798 415.206 70.8318 414.87 71.1358C414.534 71.4318 414.334 71.8358 414.27 72.3478H417.93ZM423.261 75.0238L425.133 69.6358H426.585L424.065 76.2478H422.433L419.925 69.6358H421.389L423.261 75.0238ZM427.163 72.9118C427.163 72.2478 427.299 71.6598 427.571 71.1478C427.851 70.6358 428.227 70.2398 428.699 69.9598C429.179 69.6718 429.707 69.5278 430.283 69.5278C430.803 69.5278 431.255 69.6318 431.639 69.8398C432.031 70.0398 432.343 70.2918 432.575 70.5958V69.6358H433.955V76.2478H432.575V75.2638C432.343 75.5758 432.027 75.8358 431.627 76.0438C431.227 76.2518 430.771 76.3558 430.259 76.3558C429.691 76.3558 429.171 76.2118 428.699 75.9238C428.227 75.6278 427.851 75.2198 427.571 74.6998C427.299 74.1718 427.163 73.5758 427.163 72.9118ZM432.575 72.9358C432.575 72.4798 432.479 72.0838 432.287 71.7478C432.103 71.4118 431.859 71.1558 431.555 70.9798C431.251 70.8038 430.923 70.7158 430.571 70.7158C430.219 70.7158 429.891 70.8038 429.587 70.9798C429.283 71.1478 429.035 71.3998 428.843 71.7358C428.659 72.0638 428.567 72.4558 428.567 72.9118C428.567 73.3678 428.659 73.7678 428.843 74.1118C429.035 74.4558 429.283 74.7198 429.587 74.9038C429.899 75.0798 430.227 75.1678 430.571 75.1678C430.923 75.1678 431.251 75.0798 431.555 74.9038C431.859 74.7278 432.103 74.4718 432.287 74.1358C432.479 73.7918 432.575 73.3918 432.575 72.9358ZM440.237 69.0118V71.4598H443.117V72.5758H440.237V75.1318H443.477V76.2478H438.869V67.8958H443.477V69.0118H440.237ZM447.718 75.0238L449.59 69.6358H451.042L448.522 76.2478H446.89L444.382 69.6358H445.846L447.718 75.0238ZM458.136 72.7798C458.136 73.0278 458.12 73.2518 458.088 73.4518H453.036C453.076 73.9798 453.272 74.4038 453.624 74.7238C453.976 75.0438 454.408 75.2038 454.92 75.2038C455.656 75.2038 456.176 74.8958 456.48 74.2798H457.956C457.756 74.8878 457.392 75.3878 456.864 75.7798C456.344 76.1638 455.696 76.3558 454.92 76.3558C454.288 76.3558 453.72 76.2158 453.216 75.9358C452.72 75.6478 452.328 75.2478 452.04 74.7358C451.76 74.2158 451.62 73.6158 451.62 72.9358C451.62 72.2558 451.756 71.6598 452.028 71.1478C452.308 70.6278 452.696 70.2278 453.192 69.9478C453.696 69.6678 454.272 69.5278 454.92 69.5278C455.544 69.5278 456.1 69.6638 456.588 69.9358C457.076 70.2078 457.456 70.5918 457.728 71.0878C458 71.5758 458.136 72.1398 458.136 72.7798ZM456.708 72.3478C456.7 71.8438 456.52 71.4398 456.168 71.1358C455.816 70.8318 455.38 70.6798 454.86 70.6798C454.388 70.6798 453.984 70.8318 453.648 71.1358C453.312 71.4318 453.112 71.8358 453.048 72.3478H456.708ZM462.818 69.5278C463.338 69.5278 463.802 69.6358 464.21 69.8518C464.626 70.0678 464.95 70.3878 465.182 70.8118C465.414 71.2358 465.53 71.7478 465.53 72.3478V76.2478H464.174V72.5518C464.174 71.9598 464.026 71.5078 463.73 71.1958C463.434 70.8758 463.03 70.7158 462.518 70.7158C462.006 70.7158 461.598 70.8758 461.294 71.1958C460.998 71.5078 460.85 71.9598 460.85 72.5518V76.2478H459.482V69.6358H460.85V70.3918C461.074 70.1198 461.358 69.9078 461.702 69.7558C462.054 69.6038 462.426 69.5278 462.818 69.5278ZM468.871 70.7518V74.4118C468.871 74.6598 468.927 74.8398 469.039 74.9518C469.159 75.0558 469.359 75.1078 469.639 75.1078H470.479V76.2478H469.399C468.783 76.2478 468.311 76.1038 467.983 75.8158C467.655 75.5278 467.491 75.0598 467.491 74.4118V70.7518H466.711V69.6358H467.491V67.9918H468.871V69.6358H470.479V70.7518H468.871ZM474.401 72.9118C474.401 72.2478 474.537 71.6598 474.809 71.1478C475.089 70.6358 475.465 70.2398 475.937 69.9598C476.417 69.6718 476.949 69.5278 477.533 69.5278C477.965 69.5278 478.389 69.6238 478.805 69.8158C479.229 69.9998 479.565 70.2478 479.813 70.5598V67.3678H481.193V76.2478H479.813V75.2518C479.589 75.5718 479.277 75.8358 478.877 76.0438C478.485 76.2518 478.033 76.3558 477.521 76.3558C476.945 76.3558 476.417 76.2118 475.937 75.9238C475.465 75.6278 475.089 75.2198 474.809 74.6998C474.537 74.1718 474.401 73.5758 474.401 72.9118ZM479.813 72.9358C479.813 72.4798 479.717 72.0838 479.525 71.7478C479.341 71.4118 479.097 71.1558 478.793 70.9798C478.489 70.8038 478.161 70.7158 477.809 70.7158C477.457 70.7158 477.129 70.8038 476.825 70.9798C476.521 71.1478 476.273 71.3998 476.081 71.7358C475.897 72.0638 475.805 72.4558 475.805 72.9118C475.805 73.3678 475.897 73.7678 476.081 74.1118C476.273 74.4558 476.521 74.7198 476.825 74.9038C477.137 75.0798 477.465 75.1678 477.809 75.1678C478.161 75.1678 478.489 75.0798 478.793 74.9038C479.097 74.7278 479.341 74.4718 479.525 74.1358C479.717 73.7918 479.813 73.3918 479.813 72.9358ZM482.534 72.9118C482.534 72.2478 482.67 71.6598 482.942 71.1478C483.222 70.6358 483.598 70.2398 484.07 69.9598C484.55 69.6718 485.078 69.5278 485.654 69.5278C486.174 69.5278 486.626 69.6318 487.01 69.8398C487.402 70.0398 487.714 70.2918 487.946 70.5958V69.6358H489.326V76.2478H487.946V75.2638C487.714 75.5758 487.398 75.8358 486.998 76.0438C486.598 76.2518 486.142 76.3558 485.63 76.3558C485.062 76.3558 484.542 76.2118 484.07 75.9238C483.598 75.6278 483.222 75.2198 482.942 74.6998C482.67 74.1718 482.534 73.5758 482.534 72.9118ZM487.946 72.9358C487.946 72.4798 487.85 72.0838 487.658 71.7478C487.474 71.4118 487.23 71.1558 486.926 70.9798C486.622 70.8038 486.294 70.7158 485.942 70.7158C485.59 70.7158 485.262 70.8038 484.958 70.9798C484.654 71.1478 484.406 71.3998 484.214 71.7358C484.03 72.0638 483.938 72.4558 483.938 72.9118C483.938 73.3678 484.03 73.7678 484.214 74.1118C484.406 74.4558 484.654 74.7198 484.958 74.9038C485.27 75.0798 485.598 75.1678 485.942 75.1678C486.294 75.1678 486.622 75.0798 486.926 74.9038C487.23 74.7278 487.474 74.4718 487.658 74.1358C487.85 73.7918 487.946 73.3918 487.946 72.9358ZM497.075 69.6358L493.019 79.3558H491.603L492.947 76.1398L490.343 69.6358H491.867L493.727 74.6758L495.659 69.6358H497.075ZM503.183 71.3278V72.4798H498.251V71.3278H503.183ZM507.995 76.3558C507.371 76.3558 506.807 76.2158 506.303 75.9358C505.799 75.6478 505.403 75.2478 505.115 74.7358C504.827 74.2158 504.683 73.6158 504.683 72.9358C504.683 72.2638 504.831 71.6678 505.127 71.1478C505.423 70.6278 505.827 70.2278 506.339 69.9478C506.851 69.6678 507.423 69.5278 508.055 69.5278C508.687 69.5278 509.259 69.6678 509.771 69.9478C510.283 70.2278 510.687 70.6278 510.983 71.1478C511.279 71.6678 511.427 72.2638 511.427 72.9358C511.427 73.6078 511.275 74.2038 510.971 74.7238C510.667 75.2438 510.251 75.6478 509.723 75.9358C509.203 76.2158 508.627 76.3558 507.995 76.3558ZM507.995 75.1678C508.347 75.1678 508.675 75.0838 508.979 74.9158C509.291 74.7478 509.543 74.4958 509.735 74.1598C509.927 73.8238 510.023 73.4158 510.023 72.9358C510.023 72.4558 509.931 72.0518 509.747 71.7238C509.563 71.3878 509.319 71.1358 509.015 70.9678C508.711 70.7998 508.383 70.7158 508.031 70.7158C507.679 70.7158 507.351 70.7998 507.047 70.9678C506.751 71.1358 506.515 71.3878 506.339 71.7238C506.163 72.0518 506.075 72.4558 506.075 72.9358C506.075 73.6478 506.255 74.1998 506.615 74.5918C506.983 74.9758 507.443 75.1678 507.995 75.1678ZM515.551 70.7518H514.327V76.2478H512.947V70.7518H512.167V69.6358H512.947V69.1678C512.947 68.4078 513.147 67.8558 513.547 67.5118C513.955 67.1598 514.591 66.9838 515.455 66.9838V68.1238C515.039 68.1238 514.747 68.2038 514.579 68.3638C514.411 68.5158 514.327 68.7838 514.327 69.1678V69.6358H515.551V70.7518ZM522.904 78.4798C522.12 77.7278 521.516 76.7718 521.092 75.6118C520.676 74.4518 520.468 73.2078 520.468 71.8798C520.468 70.5198 520.692 69.2358 521.14 68.0278C521.596 66.8198 522.264 65.8238 523.144 65.0398H524.56V65.1718C523.64 66.0198 522.948 67.0358 522.484 68.2198C522.02 69.4038 521.788 70.6238 521.788 71.8798C521.788 73.0878 522.004 74.2558 522.436 75.3838C522.868 76.5118 523.496 77.4998 524.32 78.3478V78.4798H522.904ZM525.427 68.7478V67.4998H527.923V76.2478H526.543V68.7478H525.427ZM449.647 87.6358L447.595 94.2478H446.155L444.823 89.3638L443.491 94.2478H442.051L439.987 87.6358H441.379L442.759 92.9518L444.163 87.6358H445.591L446.935 92.9278L448.303 87.6358H449.647ZM456.729 90.7798C456.729 91.0278 456.713 91.2518 456.681 91.4518H451.629C451.669 91.9798 451.865 92.4038 452.217 92.7238C452.569 93.0438 453.001 93.2038 453.513 93.2038C454.249 93.2038 454.769 92.8958 455.073 92.2798H456.549C456.349 92.8878 455.985 93.3878 455.457 93.7798C454.937 94.1638 454.289 94.3558 453.513 94.3558C452.881 94.3558 452.313 94.2158 451.809 93.9358C451.313 93.6478 450.921 93.2478 450.633 92.7358C450.353 92.2158 450.213 91.6158 450.213 90.9358C450.213 90.2558 450.349 89.6598 450.621 89.1478C450.901 88.6278 451.289 88.2278 451.785 87.9478C452.289 87.6678 452.865 87.5278 453.513 87.5278C454.137 87.5278 454.693 87.6638 455.181 87.9358C455.669 88.2078 456.049 88.5918 456.321 89.0878C456.593 89.5758 456.729 90.1398 456.729 90.7798ZM455.301 90.3478C455.293 89.8438 455.113 89.4398 454.761 89.1358C454.409 88.8318 453.973 88.6798 453.453 88.6798C452.981 88.6798 452.577 88.8318 452.241 89.1358C451.905 89.4318 451.705 89.8358 451.641 90.3478H455.301ZM464.136 90.7798C464.136 91.0278 464.12 91.2518 464.088 91.4518H459.036C459.076 91.9798 459.272 92.4038 459.624 92.7238C459.976 93.0438 460.408 93.2038 460.92 93.2038C461.656 93.2038 462.176 92.8958 462.48 92.2798H463.956C463.756 92.8878 463.392 93.3878 462.864 93.7798C462.344 94.1638 461.696 94.3558 460.92 94.3558C460.288 94.3558 459.72 94.2158 459.216 93.9358C458.72 93.6478 458.328 93.2478 458.04 92.7358C457.76 92.2158 457.62 91.6158 457.62 90.9358C457.62 90.2558 457.756 89.6598 458.028 89.1478C458.308 88.6278 458.696 88.2278 459.192 87.9478C459.696 87.6678 460.272 87.5278 460.92 87.5278C461.544 87.5278 462.1 87.6638 462.588 87.9358C463.076 88.2078 463.456 88.5918 463.728 89.0878C464 89.5758 464.136 90.1398 464.136 90.7798ZM462.708 90.3478C462.7 89.8438 462.52 89.4398 462.168 89.1358C461.816 88.8318 461.38 88.6798 460.86 88.6798C460.388 88.6798 459.984 88.8318 459.648 89.1358C459.312 89.4318 459.112 89.8358 459.048 90.3478H462.708ZM468.098 90.9478L471.146 94.2478H469.298L466.85 91.4038V94.2478H465.482V85.3678H466.85V90.5278L469.25 87.6358H471.146L468.098 90.9478ZM471.791 96.4798V96.3478C472.615 95.4998 473.243 94.5118 473.675 93.3838C474.107 92.2558 474.323 91.0878 474.323 89.8798C474.323 88.6238 474.091 87.4038 473.627 86.2198C473.163 85.0358 472.471 84.0198 471.551 83.1718V83.0398H472.967C473.847 83.8238 474.511 84.8198 474.959 86.0278C475.415 87.2358 475.643 88.5198 475.643 89.8798C475.643 91.2078 475.431 92.4518 475.007 93.6118C474.591 94.7718 473.991 95.7278 473.207 96.4798H471.791Z" fill="white"/>
<circle cx="559.556" cy="19.0941" r="5.15639" fill="white"/>
<line x1="554.4" y1="18.6643" x2="746.2" y2="18.6643" stroke="white" stroke-width="0.859399"/>
<rect x="610.049" y="0.187256" width="80.5008" height="34.4692" rx="17.2346" fill="white"/>
<path d="M626.289 19.6818H628.858V20.9219H624.725V13.1237H626.289V19.6818ZM629.665 17.8048C629.665 17.1792 629.788 16.6243 630.034 16.1402C630.287 15.6561 630.626 15.2836 631.051 15.023C631.483 14.7623 631.963 14.6319 632.492 14.6319C632.954 14.6319 633.356 14.725 633.698 14.9112C634.048 15.0974 634.328 15.3321 634.536 15.6151V14.7325H636.112V20.9219H634.536V20.0169C634.335 20.3074 634.056 20.5495 633.698 20.7431C633.348 20.9293 632.942 21.0224 632.481 21.0224C631.959 21.0224 631.483 20.8884 631.051 20.6202C630.626 20.3521 630.287 19.976 630.034 19.4918C629.788 19.0003 629.665 18.4379 629.665 17.8048ZM634.536 17.8272C634.536 17.4473 634.462 17.1233 634.313 16.8552C634.164 16.5796 633.963 16.3711 633.71 16.2296C633.456 16.0806 633.184 16.0061 632.894 16.0061C632.604 16.0061 632.335 16.0769 632.09 16.2184C631.844 16.3599 631.643 16.5684 631.486 16.844C631.337 17.1122 631.263 17.4324 631.263 17.8048C631.263 18.1772 631.337 18.505 631.486 18.788C631.643 19.0636 631.844 19.2758 632.09 19.4248C632.343 19.5738 632.611 19.6482 632.894 19.6482C633.184 19.6482 633.456 19.5775 633.71 19.436C633.963 19.287 634.164 19.0785 634.313 18.8103C634.462 18.5348 634.536 18.207 634.536 17.8272ZM639.675 16.0173V19.0114C639.675 19.22 639.724 19.3727 639.82 19.4695C639.925 19.5589 640.096 19.6036 640.334 19.6036H641.06V20.9219H640.077C638.759 20.9219 638.1 20.2813 638.1 19.0003V16.0173H637.362V14.7325H638.1V13.2019H639.675V14.7325H641.06V16.0173H639.675ZM648.154 17.6931C648.154 17.9166 648.139 18.1177 648.109 18.2964H643.585C643.622 18.7433 643.778 19.0934 644.054 19.3466C644.329 19.5998 644.668 19.7265 645.07 19.7265C645.651 19.7265 646.065 19.4769 646.311 18.9779H647.998C647.819 19.5738 647.476 20.0653 646.97 20.4526C646.463 20.8325 645.841 21.0224 645.104 21.0224C644.508 21.0224 643.972 20.8921 643.495 20.6314C643.026 20.3633 642.657 19.9871 642.389 19.503C642.128 19.0189 641.998 18.4603 641.998 17.8272C641.998 17.1866 642.128 16.6243 642.389 16.1402C642.65 15.6561 643.015 15.2836 643.484 15.023C643.953 14.7623 644.493 14.6319 645.104 14.6319C645.692 14.6319 646.217 14.7586 646.679 15.0118C647.149 15.265 647.51 15.6263 647.763 16.0955C648.024 16.5573 648.154 17.0898 648.154 17.6931ZM646.534 17.2462C646.527 16.844 646.381 16.5238 646.098 16.2854C645.815 16.0396 645.469 15.9167 645.059 15.9167C644.672 15.9167 644.344 16.0359 644.076 16.2742C643.815 16.5051 643.655 16.8291 643.596 17.2462H646.534ZM660.89 13.1237V20.9219H659.325V15.8497L657.236 20.9219H656.052L653.952 15.8497V20.9219H652.387V13.1237H654.164L656.644 18.9221L659.124 13.1237H660.89ZM662.249 17.8048C662.249 17.1792 662.371 16.6243 662.617 16.1402C662.87 15.6561 663.209 15.2836 663.634 15.023C664.066 14.7623 664.546 14.6319 665.075 14.6319C665.537 14.6319 665.939 14.725 666.282 14.9112C666.632 15.0974 666.911 15.3321 667.12 15.6151V14.7325H668.695V20.9219H667.12V20.0169C666.919 20.3074 666.639 20.5495 666.282 20.7431C665.932 20.9293 665.526 21.0224 665.064 21.0224C664.543 21.0224 664.066 20.8884 663.634 20.6202C663.209 20.3521 662.87 19.976 662.617 19.4918C662.371 19.0003 662.249 18.4379 662.249 17.8048ZM667.12 17.8272C667.12 17.4473 667.045 17.1233 666.896 16.8552C666.747 16.5796 666.546 16.3711 666.293 16.2296C666.04 16.0806 665.768 16.0061 665.477 16.0061C665.187 16.0061 664.919 16.0769 664.673 16.2184C664.427 16.3599 664.226 16.5684 664.07 16.844C663.921 17.1122 663.846 17.4324 663.846 17.8048C663.846 18.1772 663.921 18.505 664.07 18.788C664.226 19.0636 664.427 19.2758 664.673 19.4248C664.926 19.5738 665.194 19.6482 665.477 19.6482C665.768 19.6482 666.04 19.5775 666.293 19.436C666.546 19.287 666.747 19.0785 666.896 18.8103C667.045 18.5348 667.12 18.207 667.12 17.8272ZM676.359 14.7325L672.527 23.849H670.862L672.203 20.7655L669.722 14.7325H671.476L673.074 19.0561L674.694 14.7325H676.359Z" fill="#393858"/>
<path d="M580.888 72.0598C580.888 71.2438 581.076 70.5118 581.452 69.8638C581.836 69.2158 582.352 68.7118 583 68.3518C583.656 67.9838 584.372 67.7998 585.148 67.7998C586.036 67.7998 586.824 68.0198 587.512 68.4598C588.208 68.8918 588.712 69.5078 589.024 70.3078H587.38C587.164 69.8678 586.864 69.5398 586.48 69.3238C586.096 69.1078 585.652 68.9998 585.148 68.9998C584.596 68.9998 584.104 69.1238 583.672 69.3718C583.24 69.6198 582.9 69.9758 582.652 70.4398C582.412 70.9038 582.292 71.4438 582.292 72.0598C582.292 72.6758 582.412 73.2158 582.652 73.6798C582.9 74.1438 583.24 74.5038 583.672 74.7598C584.104 75.0078 584.596 75.1318 585.148 75.1318C585.652 75.1318 586.096 75.0238 586.48 74.8078C586.864 74.5918 587.164 74.2638 587.38 73.8238H589.024C588.712 74.6238 588.208 75.2398 587.512 75.6718C586.824 76.1038 586.036 76.3198 585.148 76.3198C584.364 76.3198 583.648 76.1398 583 75.7798C582.352 75.4118 581.836 74.9038 581.452 74.2558C581.076 73.6078 580.888 72.8758 580.888 72.0598ZM591.994 67.3678V76.2478H590.626V67.3678H591.994ZM596.658 76.3558C596.034 76.3558 595.47 76.2158 594.966 75.9358C594.462 75.6478 594.066 75.2478 593.778 74.7358C593.49 74.2158 593.346 73.6158 593.346 72.9358C593.346 72.2638 593.494 71.6678 593.79 71.1478C594.086 70.6278 594.49 70.2278 595.002 69.9478C595.514 69.6678 596.086 69.5278 596.718 69.5278C597.35 69.5278 597.922 69.6678 598.434 69.9478C598.946 70.2278 599.35 70.6278 599.646 71.1478C599.942 71.6678 600.09 72.2638 600.09 72.9358C600.09 73.6078 599.938 74.2038 599.634 74.7238C599.33 75.2438 598.914 75.6478 598.386 75.9358C597.866 76.2158 597.29 76.3558 596.658 76.3558ZM596.658 75.1678C597.01 75.1678 597.338 75.0838 597.642 74.9158C597.954 74.7478 598.206 74.4958 598.398 74.1598C598.59 73.8238 598.686 73.4158 598.686 72.9358C598.686 72.4558 598.594 72.0518 598.41 71.7238C598.226 71.3878 597.982 71.1358 597.678 70.9678C597.374 70.7998 597.046 70.7158 596.694 70.7158C596.342 70.7158 596.014 70.7998 595.71 70.9678C595.414 71.1358 595.178 71.3878 595.002 71.7238C594.826 72.0518 594.738 72.4558 594.738 72.9358C594.738 73.6478 594.918 74.1998 595.278 74.5918C595.646 74.9758 596.106 75.1678 596.658 75.1678ZM603.842 76.3558C603.322 76.3558 602.854 76.2638 602.438 76.0798C602.03 75.8878 601.706 75.6318 601.466 75.3118C601.226 74.9838 601.098 74.6198 601.082 74.2198H602.498C602.522 74.4998 602.654 74.7358 602.894 74.9278C603.142 75.1118 603.45 75.2038 603.818 75.2038C604.202 75.2038 604.498 75.1318 604.706 74.9878C604.922 74.8358 605.03 74.6438 605.03 74.4118C605.03 74.1638 604.91 73.9798 604.67 73.8598C604.438 73.7398 604.066 73.6078 603.554 73.4638C603.058 73.3278 602.654 73.1958 602.342 73.0678C602.03 72.9398 601.758 72.7438 601.526 72.4798C601.302 72.2158 601.19 71.8678 601.19 71.4358C601.19 71.0838 601.294 70.7638 601.502 70.4758C601.71 70.1798 602.006 69.9478 602.39 69.7798C602.782 69.6118 603.23 69.5278 603.734 69.5278C604.486 69.5278 605.09 69.7198 605.546 70.1038C606.01 70.4798 606.258 70.9958 606.29 71.6518H604.922C604.898 71.3558 604.778 71.1198 604.562 70.9438C604.346 70.7678 604.054 70.6798 603.686 70.6798C603.326 70.6798 603.05 70.7478 602.858 70.8838C602.666 71.0198 602.57 71.1998 602.57 71.4238C602.57 71.5998 602.634 71.7478 602.762 71.8678C602.89 71.9878 603.046 72.0838 603.23 72.1558C603.414 72.2198 603.686 72.3038 604.046 72.4078C604.526 72.5358 604.918 72.6678 605.222 72.8038C605.534 72.9318 605.802 73.1238 606.026 73.3798C606.25 73.6358 606.366 73.9758 606.374 74.3998C606.374 74.7758 606.27 75.1118 606.062 75.4078C605.854 75.7038 605.558 75.9358 605.174 76.1038C604.798 76.2718 604.354 76.3558 603.842 76.3558ZM613.912 72.7798C613.912 73.0278 613.896 73.2518 613.864 73.4518H608.812C608.852 73.9798 609.048 74.4038 609.4 74.7238C609.752 75.0438 610.184 75.2038 610.696 75.2038C611.432 75.2038 611.952 74.8958 612.256 74.2798H613.732C613.532 74.8878 613.168 75.3878 612.64 75.7798C612.12 76.1638 611.472 76.3558 610.696 76.3558C610.064 76.3558 609.496 76.2158 608.992 75.9358C608.496 75.6478 608.104 75.2478 607.816 74.7358C607.536 74.2158 607.396 73.6158 607.396 72.9358C607.396 72.2558 607.532 71.6598 607.804 71.1478C608.084 70.6278 608.472 70.2278 608.968 69.9478C609.472 69.6678 610.048 69.5278 610.696 69.5278C611.32 69.5278 611.876 69.6638 612.364 69.9358C612.852 70.2078 613.232 70.5918 613.504 71.0878C613.776 71.5758 613.912 72.1398 613.912 72.7798ZM612.484 72.3478C612.476 71.8438 612.296 71.4398 611.944 71.1358C611.592 70.8318 611.156 70.6798 610.636 70.6798C610.164 70.6798 609.76 70.8318 609.424 71.1358C609.088 71.4318 608.888 71.8358 608.824 72.3478H612.484ZM620.334 71.3278V72.4798H615.402V71.3278H620.334ZM625.146 76.3558C624.522 76.3558 623.958 76.2158 623.454 75.9358C622.95 75.6478 622.554 75.2478 622.266 74.7358C621.978 74.2158 621.834 73.6158 621.834 72.9358C621.834 72.2638 621.982 71.6678 622.278 71.1478C622.574 70.6278 622.978 70.2278 623.49 69.9478C624.002 69.6678 624.574 69.5278 625.206 69.5278C625.838 69.5278 626.41 69.6678 626.922 69.9478C627.434 70.2278 627.838 70.6278 628.134 71.1478C628.43 71.6678 628.578 72.2638 628.578 72.9358C628.578 73.6078 628.426 74.2038 628.122 74.7238C627.818 75.2438 627.402 75.6478 626.874 75.9358C626.354 76.2158 625.778 76.3558 625.146 76.3558ZM625.146 75.1678C625.498 75.1678 625.826 75.0838 626.13 74.9158C626.442 74.7478 626.694 74.4958 626.886 74.1598C627.078 73.8238 627.174 73.4158 627.174 72.9358C627.174 72.4558 627.082 72.0518 626.898 71.7238C626.714 71.3878 626.47 71.1358 626.166 70.9678C625.862 70.7998 625.534 70.7158 625.182 70.7158C624.83 70.7158 624.502 70.7998 624.198 70.9678C623.902 71.1358 623.666 71.3878 623.49 71.7238C623.314 72.0518 623.226 72.4558 623.226 72.9358C623.226 73.6478 623.406 74.1998 623.766 74.5918C624.134 74.9758 624.594 75.1678 625.146 75.1678ZM635.918 69.6358V76.2478H634.55V75.4678C634.334 75.7398 634.05 75.9558 633.698 76.1158C633.354 76.2678 632.986 76.3438 632.594 76.3438C632.074 76.3438 631.606 76.2358 631.19 76.0198C630.782 75.8038 630.458 75.4838 630.218 75.0598C629.986 74.6358 629.87 74.1238 629.87 73.5238V69.6358H631.226V73.3198C631.226 73.9118 631.374 74.3678 631.67 74.6878C631.966 74.9998 632.37 75.1558 632.882 75.1558C633.394 75.1558 633.798 74.9998 634.094 74.6878C634.398 74.3678 634.55 73.9118 634.55 73.3198V69.6358H635.918ZM639.319 70.7518V74.4118C639.319 74.6598 639.375 74.8398 639.487 74.9518C639.607 75.0558 639.807 75.1078 640.087 75.1078H640.927V76.2478H639.847C639.231 76.2478 638.759 76.1038 638.431 75.8158C638.103 75.5278 637.939 75.0598 637.939 74.4118V70.7518H637.159V69.6358H637.939V67.9918H639.319V69.6358H640.927V70.7518H639.319ZM651.749 76.2478L650.717 75.2158C650.317 75.6158 649.881 75.9158 649.409 76.1158C648.937 76.3078 648.409 76.4038 647.825 76.4038C647.233 76.4038 646.709 76.2998 646.253 76.0918C645.797 75.8838 645.445 75.5878 645.197 75.2038C644.949 74.8118 644.825 74.3598 644.825 73.8478C644.825 73.2718 644.989 72.7598 645.317 72.3118C645.645 71.8558 646.133 71.4958 646.781 71.2318C646.549 70.9518 646.385 70.6918 646.289 70.4518C646.193 70.2038 646.145 69.9318 646.145 69.6358C646.145 69.2678 646.237 68.9398 646.421 68.6518C646.613 68.3638 646.885 68.1358 647.237 67.9678C647.589 67.7998 647.997 67.7158 648.461 67.7158C648.933 67.7158 649.333 67.8078 649.661 67.9918C649.997 68.1678 650.245 68.4118 650.405 68.7238C650.573 69.0358 650.641 69.3838 650.609 69.7678H649.241C649.249 69.4718 649.177 69.2438 649.025 69.0838C648.873 68.9158 648.665 68.8318 648.401 68.8318C648.137 68.8318 647.921 68.9118 647.753 69.0718C647.593 69.2238 647.513 69.4118 647.513 69.6358C647.513 69.8518 647.573 70.0678 647.693 70.2838C647.821 70.4918 648.041 70.7638 648.353 71.0998L650.561 73.2958L651.413 71.8918H652.889L651.809 73.7398L651.509 74.2318L653.537 76.2478H651.749ZM647.825 75.2398C648.577 75.2398 649.241 74.9318 649.817 74.3158L647.609 72.0958C646.665 72.4718 646.193 73.0398 646.193 73.7998C646.193 74.2078 646.345 74.5518 646.649 74.8318C646.953 75.1038 647.345 75.2398 647.825 75.2398ZM658.919 69.0118V71.4598H661.799V72.5758H658.919V75.1318H662.159V76.2478H657.551V67.8958H662.159V69.0118H658.919ZM666.4 75.0238L668.272 69.6358H669.724L667.204 76.2478H665.572L663.064 69.6358H664.528L666.4 75.0238ZM670.302 72.9118C670.302 72.2478 670.438 71.6598 670.71 71.1478C670.99 70.6358 671.366 70.2398 671.838 69.9598C672.318 69.6718 672.846 69.5278 673.422 69.5278C673.942 69.5278 674.394 69.6318 674.778 69.8398C675.17 70.0398 675.482 70.2918 675.714 70.5958V69.6358H677.094V76.2478H675.714V75.2638C675.482 75.5758 675.166 75.8358 674.766 76.0438C674.366 76.2518 673.91 76.3558 673.398 76.3558C672.83 76.3558 672.31 76.2118 671.838 75.9238C671.366 75.6278 670.99 75.2198 670.71 74.6998C670.438 74.1718 670.302 73.5758 670.302 72.9118ZM675.714 72.9358C675.714 72.4798 675.618 72.0838 675.426 71.7478C675.242 71.4118 674.998 71.1558 674.694 70.9798C674.39 70.8038 674.062 70.7158 673.71 70.7158C673.358 70.7158 673.03 70.8038 672.726 70.9798C672.422 71.1478 672.174 71.3998 671.982 71.7358C671.798 72.0638 671.706 72.4558 671.706 72.9118C671.706 73.3678 671.798 73.7678 671.982 74.1118C672.174 74.4558 672.422 74.7198 672.726 74.9038C673.038 75.0798 673.366 75.1678 673.71 75.1678C674.062 75.1678 674.39 75.0798 674.694 74.9038C674.998 74.7278 675.242 74.4718 675.426 74.1358C675.618 73.7918 675.714 73.3918 675.714 72.9358ZM680.259 67.3678V76.2478H678.891V67.3678H680.259ZM688.043 69.6358V76.2478H686.675V75.4678C686.459 75.7398 686.175 75.9558 685.823 76.1158C685.479 76.2678 685.111 76.3438 684.719 76.3438C684.199 76.3438 683.731 76.2358 683.315 76.0198C682.907 75.8038 682.583 75.4838 682.343 75.0598C682.111 74.6358 681.995 74.1238 681.995 73.5238V69.6358H683.351V73.3198C683.351 73.9118 683.499 74.3678 683.795 74.6878C684.091 74.9998 684.495 75.1558 685.007 75.1558C685.519 75.1558 685.923 74.9998 686.219 74.6878C686.523 74.3678 686.675 73.9118 686.675 73.3198V69.6358H688.043ZM689.392 72.9118C689.392 72.2478 689.528 71.6598 689.8 71.1478C690.08 70.6358 690.456 70.2398 690.928 69.9598C691.408 69.6718 691.936 69.5278 692.512 69.5278C693.032 69.5278 693.484 69.6318 693.868 69.8398C694.26 70.0398 694.572 70.2918 694.804 70.5958V69.6358H696.184V76.2478H694.804V75.2638C694.572 75.5758 694.256 75.8358 693.856 76.0438C693.456 76.2518 693 76.3558 692.488 76.3558C691.92 76.3558 691.4 76.2118 690.928 75.9238C690.456 75.6278 690.08 75.2198 689.8 74.6998C689.528 74.1718 689.392 73.5758 689.392 72.9118ZM694.804 72.9358C694.804 72.4798 694.708 72.0838 694.516 71.7478C694.332 71.4118 694.088 71.1558 693.784 70.9798C693.48 70.8038 693.152 70.7158 692.8 70.7158C692.448 70.7158 692.12 70.8038 691.816 70.9798C691.512 71.1478 691.264 71.3998 691.072 71.7358C690.888 72.0638 690.796 72.4558 690.796 72.9118C690.796 73.3678 690.888 73.7678 691.072 74.1118C691.264 74.4558 691.512 74.7198 691.816 74.9038C692.128 75.0798 692.456 75.1678 692.8 75.1678C693.152 75.1678 693.48 75.0798 693.784 74.9038C694.088 74.7278 694.332 74.4718 694.516 74.1358C694.708 73.7918 694.804 73.3918 694.804 72.9358ZM699.577 70.7518V74.4118C699.577 74.6598 699.633 74.8398 699.745 74.9518C699.865 75.0558 700.065 75.1078 700.345 75.1078H701.185V76.2478H700.105C699.489 76.2478 699.017 76.1038 698.689 75.8158C698.361 75.5278 698.197 75.0598 698.197 74.4118V70.7518H697.417V69.6358H698.197V67.9918H699.577V69.6358H701.185V70.7518H699.577ZM703.142 68.7598C702.894 68.7598 702.686 68.6758 702.518 68.5078C702.35 68.3398 702.266 68.1318 702.266 67.8838C702.266 67.6358 702.35 67.4278 702.518 67.2598C702.686 67.0918 702.894 67.0078 703.142 67.0078C703.382 67.0078 703.586 67.0918 703.754 67.2598C703.922 67.4278 704.006 67.6358 704.006 67.8838C704.006 68.1318 703.922 68.3398 703.754 68.5078C703.586 68.6758 703.382 68.7598 703.142 68.7598ZM703.814 69.6358V76.2478H702.446V69.6358H703.814ZM708.478 76.3558C707.854 76.3558 707.29 76.2158 706.786 75.9358C706.282 75.6478 705.886 75.2478 705.598 74.7358C705.31 74.2158 705.166 73.6158 705.166 72.9358C705.166 72.2638 705.314 71.6678 705.61 71.1478C705.906 70.6278 706.31 70.2278 706.822 69.9478C707.334 69.6678 707.906 69.5278 708.538 69.5278C709.17 69.5278 709.742 69.6678 710.254 69.9478C710.766 70.2278 711.17 70.6278 711.466 71.1478C711.762 71.6678 711.91 72.2638 711.91 72.9358C711.91 73.6078 711.758 74.2038 711.454 74.7238C711.15 75.2438 710.734 75.6478 710.206 75.9358C709.686 76.2158 709.11 76.3558 708.478 76.3558ZM708.478 75.1678C708.83 75.1678 709.158 75.0838 709.462 74.9158C709.774 74.7478 710.026 74.4958 710.218 74.1598C710.41 73.8238 710.506 73.4158 710.506 72.9358C710.506 72.4558 710.414 72.0518 710.23 71.7238C710.046 71.3878 709.802 71.1358 709.498 70.9678C709.194 70.7998 708.866 70.7158 708.514 70.7158C708.162 70.7158 707.834 70.7998 707.53 70.9678C707.234 71.1358 706.998 71.3878 706.822 71.7238C706.646 72.0518 706.558 72.4558 706.558 72.9358C706.558 73.6478 706.738 74.1998 707.098 74.5918C707.466 74.9758 707.926 75.1678 708.478 75.1678ZM716.598 69.5278C717.118 69.5278 717.582 69.6358 717.99 69.8518C718.406 70.0678 718.73 70.3878 718.962 70.8118C719.194 71.2358 719.31 71.7478 719.31 72.3478V76.2478H717.954V72.5518C717.954 71.9598 717.806 71.5078 717.51 71.1958C717.214 70.8758 716.81 70.7158 716.298 70.7158C715.786 70.7158 715.378 70.8758 715.074 71.1958C714.778 71.5078 714.63 71.9598 714.63 72.5518V76.2478H713.262V69.6358H714.63V70.3918C714.854 70.1198 715.138 69.9078 715.482 69.7558C715.834 69.6038 716.206 69.5278 716.598 69.5278Z" fill="white"/>
<circle cx="751.357" cy="19.0941" r="5.15639" fill="white"/>
<circle cx="932.957" cy="19.0941" r="5.15639" fill="white"/>
<line x1="746.2" y1="18.6643" x2="938" y2="18.6643" stroke="white" stroke-width="0.859399"/>
<rect x="797.85" y="0.187256" width="88.5008" height="34.4692" rx="17.2346" fill="white"/>
<path d="M814.056 14.3861V16.3413H816.681V17.5814H814.056V19.6482H817.016V20.9219H812.492V13.1125H817.016V14.3861H814.056ZM818.25 17.8048C818.25 17.1792 818.373 16.6243 818.619 16.1402C818.872 15.6561 819.211 15.2836 819.636 15.023C820.068 14.7623 820.548 14.6319 821.077 14.6319C821.539 14.6319 821.941 14.725 822.284 14.9112C822.634 15.0974 822.913 15.3321 823.121 15.6151V14.7325H824.697V20.9219H823.121V20.0169C822.92 20.3074 822.641 20.5495 822.284 20.7431C821.933 20.9293 821.528 21.0224 821.066 21.0224C820.544 21.0224 820.068 20.8884 819.636 20.6202C819.211 20.3521 818.872 19.976 818.619 19.4918C818.373 19.0003 818.25 18.4379 818.25 17.8048ZM823.121 17.8272C823.121 17.4473 823.047 17.1233 822.898 16.8552C822.749 16.5796 822.548 16.3711 822.295 16.2296C822.041 16.0806 821.77 16.0061 821.479 16.0061C821.189 16.0061 820.921 16.0769 820.675 16.2184C820.429 16.3599 820.228 16.5684 820.071 16.844C819.922 17.1122 819.848 17.4324 819.848 17.8048C819.848 18.1772 819.922 18.505 820.071 18.788C820.228 19.0636 820.429 19.2758 820.675 19.4248C820.928 19.5738 821.196 19.6482 821.479 19.6482C821.77 19.6482 822.041 19.5775 822.295 19.436C822.548 19.287 822.749 19.0785 822.898 18.8103C823.047 18.5348 823.121 18.207 823.121 17.8272ZM828.003 15.6933C828.204 15.3656 828.465 15.1086 828.785 14.9224C829.113 14.7362 829.485 14.6431 829.903 14.6431V16.2854H829.489C828.998 16.2854 828.625 16.4009 828.372 16.6318C828.126 16.8626 828.003 17.2648 828.003 17.8384V20.9219H826.439V14.7325H828.003V15.6933ZM832.735 12.6545V20.9219H831.171V12.6545H832.735ZM840.416 14.7325L836.584 23.849H834.92L836.26 20.7655L833.78 14.7325H835.534L837.132 19.0561L838.752 14.7325H840.416ZM848.899 13.1237V18.5981C848.899 19.3578 848.679 19.9499 848.239 20.3744C847.8 20.7915 847.212 21.0001 846.474 21.0001C845.729 21.0001 845.126 20.7841 844.664 20.3521C844.21 19.9201 843.983 19.3168 843.983 18.5422H845.547C845.554 18.8774 845.633 19.138 845.781 19.3243C845.938 19.5105 846.161 19.6036 846.452 19.6036C846.735 19.6036 846.951 19.5142 847.1 19.3354C847.249 19.1567 847.323 18.9109 847.323 18.5981V13.1237H848.899ZM856.781 14.7325V20.9219H855.206V20.1398C855.005 20.408 854.74 20.6202 854.412 20.7766C854.092 20.9256 853.742 21.0001 853.362 21.0001C852.878 21.0001 852.45 20.8995 852.077 20.6984C851.705 20.4899 851.411 20.1882 851.195 19.7935C850.986 19.3913 850.882 18.9146 850.882 18.3634V14.7325H852.446V18.14C852.446 18.6316 852.569 19.0114 852.815 19.2796C853.061 19.5402 853.396 19.6706 853.82 19.6706C854.252 19.6706 854.591 19.5402 854.837 19.2796C855.083 19.0114 855.206 18.6316 855.206 18.14V14.7325H856.781ZM861.969 14.6431C862.706 14.6431 863.302 14.8777 863.756 15.347C864.211 15.8087 864.438 16.4567 864.438 17.2909V20.9219H862.874V17.5032C862.874 17.0116 862.751 16.6355 862.505 16.3748C862.259 16.1067 861.924 15.9726 861.5 15.9726C861.068 15.9726 860.725 16.1067 860.472 16.3748C860.226 16.6355 860.103 17.0116 860.103 17.5032V20.9219H858.539V14.7325H860.103V15.5034C860.312 15.2352 860.576 15.0267 860.896 14.8777C861.224 14.7213 861.582 14.6431 861.969 14.6431ZM871.894 17.6931C871.894 17.9166 871.879 18.1177 871.849 18.2964H867.324C867.362 18.7433 867.518 19.0934 867.794 19.3466C868.069 19.5998 868.408 19.7265 868.81 19.7265C869.391 19.7265 869.805 19.4769 870.05 18.9779H871.737C871.559 19.5738 871.216 20.0653 870.71 20.4526C870.203 20.8325 869.581 21.0224 868.844 21.0224C868.248 21.0224 867.712 20.8921 867.235 20.6314C866.766 20.3633 866.397 19.9871 866.129 19.503C865.868 19.0189 865.738 18.4603 865.738 17.8272C865.738 17.1866 865.868 16.6243 866.129 16.1402C866.39 15.6561 866.755 15.2836 867.224 15.023C867.693 14.7623 868.233 14.6319 868.844 14.6319C869.432 14.6319 869.957 14.7586 870.419 15.0118C870.888 15.265 871.25 15.6263 871.503 16.0955C871.764 16.5573 871.894 17.0898 871.894 17.6931ZM870.274 17.2462C870.266 16.844 870.121 16.5238 869.838 16.2854C869.555 16.0396 869.209 15.9167 868.799 15.9167C868.412 15.9167 868.084 16.0359 867.816 16.2742C867.555 16.5051 867.395 16.8291 867.336 17.2462H870.274Z" fill="#393858"/>
<path d="M762.939 76.2478L761.019 72.9118H759.975V76.2478H758.607V67.9078H761.487C762.127 67.9078 762.667 68.0198 763.107 68.2438C763.555 68.4678 763.887 68.7678 764.103 69.1438C764.327 69.5198 764.439 69.9398 764.439 70.4038C764.439 70.9478 764.279 71.4438 763.959 71.8918C763.647 72.3318 763.163 72.6318 762.507 72.7918L764.571 76.2478H762.939ZM759.975 71.8198H761.487C761.999 71.8198 762.383 71.6918 762.639 71.4358C762.903 71.1798 763.035 70.8358 763.035 70.4038C763.035 69.9718 762.907 69.6358 762.651 69.3958C762.395 69.1478 762.007 69.0238 761.487 69.0238H759.975V71.8198ZM772.249 72.7798C772.249 73.0278 772.233 73.2518 772.201 73.4518H767.149C767.189 73.9798 767.385 74.4038 767.737 74.7238C768.089 75.0438 768.521 75.2038 769.033 75.2038C769.769 75.2038 770.289 74.8958 770.593 74.2798H772.069C771.869 74.8878 771.505 75.3878 770.977 75.7798C770.457 76.1638 769.809 76.3558 769.033 76.3558C768.401 76.3558 767.833 76.2158 767.329 75.9358C766.833 75.6478 766.441 75.2478 766.153 74.7358C765.873 74.2158 765.733 73.6158 765.733 72.9358C765.733 72.2558 765.869 71.6598 766.141 71.1478C766.421 70.6278 766.809 70.2278 767.305 69.9478C767.809 69.6678 768.385 69.5278 769.033 69.5278C769.657 69.5278 770.213 69.6638 770.701 69.9358C771.189 70.2078 771.569 70.5918 771.841 71.0878C772.113 71.5758 772.249 72.1398 772.249 72.7798ZM770.821 72.3478C770.813 71.8438 770.633 71.4398 770.281 71.1358C769.929 70.8318 769.493 70.6798 768.973 70.6798C768.501 70.6798 768.097 70.8318 767.761 71.1358C767.425 71.4318 767.225 71.8358 767.161 72.3478H770.821ZM774.964 70.6078C775.196 70.3038 775.512 70.0478 775.912 69.8398C776.312 69.6318 776.764 69.5278 777.268 69.5278C777.844 69.5278 778.368 69.6718 778.84 69.9598C779.32 70.2398 779.696 70.6358 779.968 71.1478C780.24 71.6598 780.376 72.2478 780.376 72.9118C780.376 73.5758 780.24 74.1718 779.968 74.6998C779.696 75.2198 779.32 75.6278 778.84 75.9238C778.368 76.2118 777.844 76.3558 777.268 76.3558C776.764 76.3558 776.316 76.2558 775.924 76.0558C775.532 75.8478 775.212 75.5918 774.964 75.2878V79.3918H773.596V69.6358H774.964V70.6078ZM778.984 72.9118C778.984 72.4558 778.888 72.0638 778.696 71.7358C778.512 71.3998 778.264 71.1478 777.952 70.9798C777.648 70.8038 777.32 70.7158 776.968 70.7158C776.624 70.7158 776.296 70.8038 775.984 70.9798C775.68 71.1558 775.432 71.4118 775.24 71.7478C775.056 72.0838 774.964 72.4798 774.964 72.9358C774.964 73.3918 775.056 73.7918 775.24 74.1358C775.432 74.4718 775.68 74.7278 775.984 74.9038C776.296 75.0798 776.624 75.1678 776.968 75.1678C777.32 75.1678 777.648 75.0798 777.952 74.9038C778.264 74.7198 778.512 74.4558 778.696 74.1118C778.888 73.7678 778.984 73.3678 778.984 72.9118ZM784.597 76.3558C783.973 76.3558 783.409 76.2158 782.905 75.9358C782.401 75.6478 782.005 75.2478 781.717 74.7358C781.429 74.2158 781.285 73.6158 781.285 72.9358C781.285 72.2638 781.433 71.6678 781.729 71.1478C782.025 70.6278 782.429 70.2278 782.941 69.9478C783.453 69.6678 784.025 69.5278 784.657 69.5278C785.289 69.5278 785.861 69.6678 786.373 69.9478C786.885 70.2278 787.289 70.6278 787.585 71.1478C787.881 71.6678 788.029 72.2638 788.029 72.9358C788.029 73.6078 787.877 74.2038 787.573 74.7238C787.269 75.2438 786.853 75.6478 786.325 75.9358C785.805 76.2158 785.229 76.3558 784.597 76.3558ZM784.597 75.1678C784.949 75.1678 785.277 75.0838 785.581 74.9158C785.893 74.7478 786.145 74.4958 786.337 74.1598C786.529 73.8238 786.625 73.4158 786.625 72.9358C786.625 72.4558 786.533 72.0518 786.349 71.7238C786.165 71.3878 785.921 71.1358 785.617 70.9678C785.313 70.7998 784.985 70.7158 784.633 70.7158C784.281 70.7158 783.953 70.7998 783.649 70.9678C783.353 71.1358 783.117 71.3878 782.941 71.7238C782.765 72.0518 782.677 72.4558 782.677 72.9358C782.677 73.6478 782.857 74.1998 783.217 74.5918C783.585 74.9758 784.045 75.1678 784.597 75.1678ZM790.749 70.5958C790.949 70.2598 791.213 69.9998 791.541 69.8158C791.877 69.6238 792.273 69.5278 792.729 69.5278V70.9438H792.381C791.845 70.9438 791.437 71.0798 791.157 71.3518C790.885 71.6238 790.749 72.0958 790.749 72.7678V76.2478H789.381V69.6358H790.749V70.5958ZM795.582 70.7518V74.4118C795.582 74.6598 795.638 74.8398 795.75 74.9518C795.87 75.0558 796.07 75.1078 796.35 75.1078H797.19V76.2478H796.11C795.494 76.2478 795.022 76.1038 794.694 75.8158C794.366 75.5278 794.202 75.0598 794.202 74.4118V70.7518H793.422V69.6358H794.202V67.9918H795.582V69.6358H797.19V70.7518H795.582ZM799.147 68.7598C798.899 68.7598 798.691 68.6758 798.523 68.5078C798.355 68.3398 798.271 68.1318 798.271 67.8838C798.271 67.6358 798.355 67.4278 798.523 67.2598C798.691 67.0918 798.899 67.0078 799.147 67.0078C799.387 67.0078 799.591 67.0918 799.759 67.2598C799.927 67.4278 800.011 67.6358 800.011 67.8838C800.011 68.1318 799.927 68.3398 799.759 68.5078C799.591 68.6758 799.387 68.7598 799.147 68.7598ZM799.819 69.6358V76.2478H798.451V69.6358H799.819ZM804.951 69.5278C805.471 69.5278 805.935 69.6358 806.343 69.8518C806.759 70.0678 807.083 70.3878 807.315 70.8118C807.547 71.2358 807.663 71.7478 807.663 72.3478V76.2478H806.307V72.5518C806.307 71.9598 806.159 71.5078 805.863 71.1958C805.567 70.8758 805.163 70.7158 804.651 70.7158C804.139 70.7158 803.731 70.8758 803.427 71.1958C803.131 71.5078 802.983 71.9598 802.983 72.5518V76.2478H801.615V69.6358H802.983V70.3918C803.207 70.1198 803.491 69.9078 803.835 69.7558C804.187 69.6038 804.559 69.5278 804.951 69.5278ZM812.072 69.5278C812.584 69.5278 813.036 69.6318 813.428 69.8398C813.828 70.0398 814.14 70.2918 814.364 70.5958V69.6358H815.744V76.3558C815.744 76.9638 815.616 77.5038 815.36 77.9758C815.104 78.4558 814.732 78.8318 814.244 79.1038C813.764 79.3758 813.188 79.5118 812.516 79.5118C811.62 79.5118 810.876 79.2998 810.284 78.8758C809.692 78.4598 809.356 77.8918 809.276 77.1718H810.632C810.736 77.5158 810.956 77.7918 811.292 77.9998C811.636 78.2158 812.044 78.3238 812.516 78.3238C813.068 78.3238 813.512 78.1558 813.848 77.8198C814.192 77.4838 814.364 76.9958 814.364 76.3558V75.2518C814.132 75.5638 813.816 75.8278 813.416 76.0438C813.024 76.2518 812.576 76.3558 812.072 76.3558C811.496 76.3558 810.968 76.2118 810.488 75.9238C810.016 75.6278 809.64 75.2198 809.36 74.6998C809.088 74.1718 808.952 73.5758 808.952 72.9118C808.952 72.2478 809.088 71.6598 809.36 71.1478C809.64 70.6358 810.016 70.2398 810.488 69.9598C810.968 69.6718 811.496 69.5278 812.072 69.5278ZM814.364 72.9358C814.364 72.4798 814.268 72.0838 814.076 71.7478C813.892 71.4118 813.648 71.1558 813.344 70.9798C813.04 70.8038 812.712 70.7158 812.36 70.7158C812.008 70.7158 811.68 70.8038 811.376 70.9798C811.072 71.1478 810.824 71.3998 810.632 71.7358C810.448 72.0638 810.356 72.4558 810.356 72.9118C810.356 73.3678 810.448 73.7678 810.632 74.1118C810.824 74.4558 811.072 74.7198 811.376 74.9038C811.688 75.0798 812.016 75.1678 812.36 75.1678C812.712 75.1678 813.04 75.0798 813.344 74.9038C813.648 74.7278 813.892 74.4718 814.076 74.1358C814.268 73.7918 814.364 73.3918 814.364 72.9358ZM827.102 76.2478L826.07 75.2158C825.67 75.6158 825.234 75.9158 824.762 76.1158C824.29 76.3078 823.762 76.4038 823.178 76.4038C822.586 76.4038 822.062 76.2998 821.606 76.0918C821.15 75.8838 820.798 75.5878 820.55 75.2038C820.302 74.8118 820.178 74.3598 820.178 73.8478C820.178 73.2718 820.342 72.7598 820.67 72.3118C820.998 71.8558 821.486 71.4958 822.134 71.2318C821.902 70.9518 821.738 70.6918 821.642 70.4518C821.546 70.2038 821.498 69.9318 821.498 69.6358C821.498 69.2678 821.59 68.9398 821.774 68.6518C821.966 68.3638 822.238 68.1358 822.59 67.9678C822.942 67.7998 823.35 67.7158 823.814 67.7158C824.286 67.7158 824.686 67.8078 825.014 67.9918C825.35 68.1678 825.598 68.4118 825.758 68.7238C825.926 69.0358 825.994 69.3838 825.962 69.7678H824.594C824.602 69.4718 824.53 69.2438 824.378 69.0838C824.226 68.9158 824.018 68.8318 823.754 68.8318C823.49 68.8318 823.274 68.9118 823.106 69.0718C822.946 69.2238 822.866 69.4118 822.866 69.6358C822.866 69.8518 822.926 70.0678 823.046 70.2838C823.174 70.4918 823.394 70.7638 823.706 71.0998L825.914 73.2958L826.766 71.8918H828.242L827.162 73.7398L826.862 74.2318L828.89 76.2478H827.102ZM823.178 75.2398C823.93 75.2398 824.594 74.9318 825.17 74.3158L822.962 72.0958C822.018 72.4718 821.546 73.0398 821.546 73.7998C821.546 74.2078 821.698 74.5518 822.002 74.8318C822.306 75.1038 822.698 75.2398 823.178 75.2398ZM835.628 67.9078C836.516 67.9078 837.292 68.0798 837.956 68.4238C838.628 68.7598 839.144 69.2478 839.504 69.8878C839.872 70.5198 840.056 71.2598 840.056 72.1078C840.056 72.9558 839.872 73.6918 839.504 74.3158C839.144 74.9398 838.628 75.4198 837.956 75.7558C837.292 76.0838 836.516 76.2478 835.628 76.2478H832.904V67.9078H835.628ZM835.628 75.1318C836.604 75.1318 837.352 74.8678 837.872 74.3398C838.392 73.8118 838.652 73.0678 838.652 72.1078C838.652 71.1398 838.392 70.3838 837.872 69.8398C837.352 69.2958 836.604 69.0238 835.628 69.0238H834.272V75.1318H835.628ZM844.28 76.3558C843.656 76.3558 843.092 76.2158 842.588 75.9358C842.084 75.6478 841.688 75.2478 841.4 74.7358C841.112 74.2158 840.968 73.6158 840.968 72.9358C840.968 72.2638 841.116 71.6678 841.412 71.1478C841.708 70.6278 842.112 70.2278 842.624 69.9478C843.136 69.6678 843.708 69.5278 844.34 69.5278C844.972 69.5278 845.544 69.6678 846.056 69.9478C846.568 70.2278 846.972 70.6278 847.268 71.1478C847.564 71.6678 847.712 72.2638 847.712 72.9358C847.712 73.6078 847.56 74.2038 847.256 74.7238C846.952 75.2438 846.536 75.6478 846.008 75.9358C845.488 76.2158 844.912 76.3558 844.28 76.3558ZM844.28 75.1678C844.632 75.1678 844.96 75.0838 845.264 74.9158C845.576 74.7478 845.828 74.4958 846.02 74.1598C846.212 73.8238 846.308 73.4158 846.308 72.9358C846.308 72.4558 846.216 72.0518 846.032 71.7238C845.848 71.3878 845.604 71.1358 845.3 70.9678C844.996 70.7998 844.668 70.7158 844.316 70.7158C843.964 70.7158 843.636 70.7998 843.332 70.9678C843.036 71.1358 842.8 71.3878 842.624 71.7238C842.448 72.0518 842.36 72.4558 842.36 72.9358C842.36 73.6478 842.54 74.1998 842.9 74.5918C843.268 74.9758 843.728 75.1678 844.28 75.1678ZM848.608 72.9358C848.608 72.2558 848.744 71.6598 849.016 71.1478C849.296 70.6278 849.68 70.2278 850.168 69.9478C850.656 69.6678 851.216 69.5278 851.848 69.5278C852.648 69.5278 853.308 69.7198 853.828 70.1038C854.356 70.4798 854.712 71.0198 854.896 71.7238H853.42C853.3 71.3958 853.108 71.1398 852.844 70.9558C852.58 70.7718 852.248 70.6798 851.848 70.6798C851.288 70.6798 850.84 70.8798 850.504 71.2798C850.176 71.6718 850.012 72.2238 850.012 72.9358C850.012 73.6478 850.176 74.2038 850.504 74.6038C850.84 75.0038 851.288 75.2038 851.848 75.2038C852.64 75.2038 853.164 74.8558 853.42 74.1598H854.896C854.704 74.8318 854.344 75.3678 853.816 75.7678C853.288 76.1598 852.632 76.3558 851.848 76.3558C851.216 76.3558 850.656 76.2158 850.168 75.9358C849.68 75.6478 849.296 75.2478 849.016 74.7358C848.744 74.2158 848.608 73.6158 848.608 72.9358ZM862.248 69.6358V76.2478H860.88V75.4678C860.664 75.7398 860.38 75.9558 860.028 76.1158C859.684 76.2678 859.316 76.3438 858.924 76.3438C858.404 76.3438 857.936 76.2358 857.52 76.0198C857.112 75.8038 856.788 75.4838 856.548 75.0598C856.316 74.6358 856.2 74.1238 856.2 73.5238V69.6358H857.556V73.3198C857.556 73.9118 857.704 74.3678 858 74.6878C858.296 74.9998 858.7 75.1558 859.212 75.1558C859.724 75.1558 860.128 74.9998 860.424 74.6878C860.728 74.3678 860.88 73.9118 860.88 73.3198V69.6358H862.248ZM872.057 69.5278C872.577 69.5278 873.041 69.6358 873.449 69.8518C873.865 70.0678 874.189 70.3878 874.421 70.8118C874.661 71.2358 874.781 71.7478 874.781 72.3478V76.2478H873.425V72.5518C873.425 71.9598 873.277 71.5078 872.981 71.1958C872.685 70.8758 872.281 70.7158 871.769 70.7158C871.257 70.7158 870.849 70.8758 870.545 71.1958C870.249 71.5078 870.101 71.9598 870.101 72.5518V76.2478H868.745V72.5518C868.745 71.9598 868.597 71.5078 868.301 71.1958C868.005 70.8758 867.601 70.7158 867.089 70.7158C866.577 70.7158 866.169 70.8758 865.865 71.1958C865.569 71.5078 865.421 71.9598 865.421 72.5518V76.2478H864.053V69.6358H865.421V70.3918C865.645 70.1198 865.929 69.9078 866.273 69.7558C866.617 69.6038 866.985 69.5278 867.377 69.5278C867.905 69.5278 868.377 69.6398 868.793 69.8638C869.209 70.0878 869.529 70.4118 869.753 70.8358C869.953 70.4358 870.265 70.1198 870.689 69.8878C871.113 69.6478 871.569 69.5278 872.057 69.5278ZM882.582 72.7798C882.582 73.0278 882.566 73.2518 882.534 73.4518H877.482C877.522 73.9798 877.718 74.4038 878.07 74.7238C878.422 75.0438 878.854 75.2038 879.366 75.2038C880.102 75.2038 880.622 74.8958 880.926 74.2798H882.402C882.202 74.8878 881.838 75.3878 881.31 75.7798C880.79 76.1638 880.142 76.3558 879.366 76.3558C878.734 76.3558 878.166 76.2158 877.662 75.9358C877.166 75.6478 876.774 75.2478 876.486 74.7358C876.206 74.2158 876.066 73.6158 876.066 72.9358C876.066 72.2558 876.202 71.6598 876.474 71.1478C876.754 70.6278 877.142 70.2278 877.638 69.9478C878.142 69.6678 878.718 69.5278 879.366 69.5278C879.99 69.5278 880.546 69.6638 881.034 69.9358C881.522 70.2078 881.902 70.5918 882.174 71.0878C882.446 71.5758 882.582 72.1398 882.582 72.7798ZM881.154 72.3478C881.146 71.8438 880.966 71.4398 880.614 71.1358C880.262 70.8318 879.826 70.6798 879.306 70.6798C878.834 70.6798 878.43 70.8318 878.094 71.1358C877.758 71.4318 877.558 71.8358 877.494 72.3478H881.154ZM887.264 69.5278C887.784 69.5278 888.248 69.6358 888.656 69.8518C889.072 70.0678 889.396 70.3878 889.628 70.8118C889.86 71.2358 889.976 71.7478 889.976 72.3478V76.2478H888.62V72.5518C888.62 71.9598 888.472 71.5078 888.176 71.1958C887.88 70.8758 887.476 70.7158 886.964 70.7158C886.452 70.7158 886.044 70.8758 885.74 71.1958C885.444 71.5078 885.296 71.9598 885.296 72.5518V76.2478H883.928V69.6358H885.296V70.3918C885.52 70.1198 885.804 69.9078 886.148 69.7558C886.5 69.6038 886.872 69.5278 887.264 69.5278ZM893.317 70.7518V74.4118C893.317 74.6598 893.373 74.8398 893.485 74.9518C893.605 75.0558 893.805 75.1078 894.085 75.1078H894.925V76.2478H893.845C893.229 76.2478 892.757 76.1038 892.429 75.8158C892.101 75.5278 891.937 75.0598 891.937 74.4118V70.7518H891.157V69.6358H891.937V67.9918H893.317V69.6358H894.925V70.7518H893.317ZM895.73 72.9118C895.73 72.2478 895.866 71.6598 896.138 71.1478C896.418 70.6358 896.794 70.2398 897.266 69.9598C897.746 69.6718 898.274 69.5278 898.85 69.5278C899.37 69.5278 899.822 69.6318 900.206 69.8398C900.598 70.0398 900.91 70.2918 901.142 70.5958V69.6358H902.522V76.2478H901.142V75.2638C900.91 75.5758 900.594 75.8358 900.194 76.0438C899.794 76.2518 899.338 76.3558 898.826 76.3558C898.258 76.3558 897.738 76.2118 897.266 75.9238C896.794 75.6278 896.418 75.2198 896.138 74.6998C895.866 74.1718 895.73 73.5758 895.73 72.9118ZM901.142 72.9358C901.142 72.4798 901.046 72.0838 900.854 71.7478C900.67 71.4118 900.426 71.1558 900.122 70.9798C899.818 70.8038 899.49 70.7158 899.138 70.7158C898.786 70.7158 898.458 70.8038 898.154 70.9798C897.85 71.1478 897.602 71.3998 897.41 71.7358C897.226 72.0638 897.134 72.4558 897.134 72.9118C897.134 73.3678 897.226 73.7678 897.41 74.1118C897.602 74.4558 897.85 74.7198 898.154 74.9038C898.466 75.0798 898.794 75.1678 899.138 75.1678C899.49 75.1678 899.818 75.0798 900.122 74.9038C900.426 74.7278 900.67 74.4718 900.854 74.1358C901.046 73.7918 901.142 73.3918 901.142 72.9358ZM905.914 70.7518V74.4118C905.914 74.6598 905.97 74.8398 906.082 74.9518C906.202 75.0558 906.402 75.1078 906.682 75.1078H907.522V76.2478H906.442C905.826 76.2478 905.354 76.1038 905.026 75.8158C904.698 75.5278 904.534 75.0598 904.534 74.4118V70.7518H903.754V69.6358H904.534V67.9918H905.914V69.6358H907.522V70.7518H905.914ZM909.479 68.7598C909.231 68.7598 909.023 68.6758 908.855 68.5078C908.687 68.3398 908.603 68.1318 908.603 67.8838C908.603 67.6358 908.687 67.4278 908.855 67.2598C909.023 67.0918 909.231 67.0078 909.479 67.0078C909.719 67.0078 909.923 67.0918 910.091 67.2598C910.259 67.4278 910.343 67.6358 910.343 67.8838C910.343 68.1318 910.259 68.3398 910.091 68.5078C909.923 68.6758 909.719 68.7598 909.479 68.7598ZM910.151 69.6358V76.2478H908.783V69.6358H910.151ZM914.815 76.3558C914.191 76.3558 913.627 76.2158 913.123 75.9358C912.619 75.6478 912.223 75.2478 911.935 74.7358C911.647 74.2158 911.503 73.6158 911.503 72.9358C911.503 72.2638 911.651 71.6678 911.947 71.1478C912.243 70.6278 912.647 70.2278 913.159 69.9478C913.671 69.6678 914.243 69.5278 914.875 69.5278C915.507 69.5278 916.079 69.6678 916.591 69.9478C917.103 70.2278 917.507 70.6278 917.803 71.1478C918.099 71.6678 918.247 72.2638 918.247 72.9358C918.247 73.6078 918.095 74.2038 917.791 74.7238C917.487 75.2438 917.071 75.6478 916.543 75.9358C916.023 76.2158 915.447 76.3558 914.815 76.3558ZM914.815 75.1678C915.167 75.1678 915.495 75.0838 915.799 74.9158C916.111 74.7478 916.363 74.4958 916.555 74.1598C916.747 73.8238 916.843 73.4158 916.843 72.9358C916.843 72.4558 916.751 72.0518 916.567 71.7238C916.383 71.3878 916.139 71.1358 915.835 70.9678C915.531 70.7998 915.203 70.7158 914.851 70.7158C914.499 70.7158 914.171 70.7998 913.867 70.9678C913.571 71.1358 913.335 71.3878 913.159 71.7238C912.983 72.0518 912.895 72.4558 912.895 72.9358C912.895 73.6478 913.075 74.1998 913.435 74.5918C913.803 74.9758 914.263 75.1678 914.815 75.1678ZM922.936 69.5278C923.456 69.5278 923.92 69.6358 924.328 69.8518C924.744 70.0678 925.068 70.3878 925.3 70.8118C925.532 71.2358 925.648 71.7478 925.648 72.3478V76.2478H924.292V72.5518C924.292 71.9598 924.144 71.5078 923.848 71.1958C923.552 70.8758 923.148 70.7158 922.636 70.7158C922.124 70.7158 921.716 70.8758 921.412 71.1958C921.116 71.5078 920.968 71.9598 920.968 72.5518V76.2478H919.6V69.6358H920.968V70.3918C921.192 70.1198 921.476 69.9078 921.82 69.7558C922.172 69.6038 922.544 69.5278 922.936 69.5278Z" fill="white"/>
</svg>
