<svg width="959" height="105" viewBox="0 0 959 105" fill="none" xmlns="http://www.w3.org/2000/svg">
<circle cx="5.15639" cy="19.7196" r="5.15639" fill="white"/>
<line y1="19.2898" x2="191.8" y2="19.2898" stroke="white" stroke-width="0.859399"/>
<rect x="51.6494" y="0.812744" width="88.5008" height="34.4692" rx="17.2346" fill="white"/>
<path d="M67.9629 15.0116V16.9668H70.5884V18.2069H67.9629V20.2737H70.9235V21.5474H66.3988V13.738H70.9235V15.0116H67.9629ZM72.1576 18.4303C72.1576 17.8047 72.2805 17.2498 72.5263 16.7657C72.7795 16.2815 73.1184 15.9091 73.5429 15.6485C73.9749 15.3878 74.4553 15.2574 74.9841 15.2574C75.4459 15.2574 75.8481 15.3505 76.1907 15.5367C76.5408 15.7229 76.8201 15.9575 77.0287 16.2406V15.358H78.6039V21.5474H77.0287V20.6424C76.8276 20.9329 76.5483 21.175 76.1907 21.3686C75.8407 21.5548 75.4348 21.6479 74.973 21.6479C74.4516 21.6479 73.9749 21.5138 73.5429 21.2457C73.1184 20.9776 72.7795 20.6015 72.5263 20.1173C72.2805 19.6257 72.1576 19.0634 72.1576 18.4303ZM77.0287 18.4527C77.0287 18.0728 76.9542 17.7488 76.8052 17.4807C76.6563 17.2051 76.4552 16.9966 76.2019 16.855C75.9487 16.7061 75.6768 16.6316 75.3863 16.6316C75.0959 16.6316 74.8277 16.7024 74.5819 16.8439C74.3362 16.9854 74.1351 17.1939 73.9787 17.4695C73.8297 17.7376 73.7552 18.0579 73.7552 18.4303C73.7552 18.8027 73.8297 19.1304 73.9787 19.4135C74.1351 19.6891 74.3362 19.9013 74.5819 20.0503C74.8352 20.1993 75.1033 20.2737 75.3863 20.2737C75.6768 20.2737 75.9487 20.203 76.2019 20.0615C76.4552 19.9125 76.6563 19.704 76.8052 19.4358C76.9542 19.1602 77.0287 18.8325 77.0287 18.4527ZM81.9105 16.3188C82.1116 15.9911 82.3723 15.7341 82.6926 15.5479C83.0203 15.3617 83.3927 15.2686 83.8098 15.2686V16.9109H83.3964C82.9048 16.9109 82.5324 17.0264 82.2792 17.2572C82.0334 17.4881 81.9105 17.8903 81.9105 18.4638V21.5474H80.3464V15.358H81.9105V16.3188ZM86.6422 13.2799V21.5474H85.0781V13.2799H86.6422ZM94.3237 15.358L90.4916 24.4745H88.827L90.1676 21.391L87.6874 15.358H89.4414L91.0391 19.6816L92.659 15.358H94.3237ZM102.806 13.7492V19.2235C102.806 19.9833 102.586 20.5754 102.147 20.9999C101.707 21.417 101.119 21.6256 100.381 21.6256C99.6366 21.6256 99.0333 21.4096 98.5715 20.9776C98.1171 20.5456 97.89 19.9423 97.89 19.1677H99.4541C99.4615 19.5029 99.5397 19.7635 99.6887 19.9497C99.8451 20.1359 100.069 20.229 100.359 20.229C100.642 20.229 100.858 20.1397 101.007 19.9609C101.156 19.7822 101.23 19.5364 101.23 19.2235V13.7492H102.806ZM110.688 15.358V21.5474H109.113V20.7653C108.912 21.0334 108.647 21.2457 108.32 21.4021C107.999 21.5511 107.649 21.6256 107.27 21.6256C106.785 21.6256 106.357 21.525 105.985 21.3239C105.612 21.1154 105.318 20.8137 105.102 20.419C104.894 20.0168 104.789 19.5401 104.789 18.9889V15.358H106.353V18.7655C106.353 19.2571 106.476 19.6369 106.722 19.9051C106.968 20.1657 107.303 20.2961 107.728 20.2961C108.16 20.2961 108.498 20.1657 108.744 19.9051C108.99 19.6369 109.113 19.2571 109.113 18.7655V15.358H110.688ZM115.876 15.2686C116.614 15.2686 117.209 15.5032 117.664 15.9724C118.118 16.4342 118.345 17.0822 118.345 17.9164V21.5474H116.781V18.1287C116.781 17.6371 116.658 17.261 116.412 17.0003C116.167 16.7322 115.831 16.5981 115.407 16.5981C114.975 16.5981 114.632 16.7322 114.379 17.0003C114.133 17.261 114.01 17.6371 114.01 18.1287V21.5474H112.446V15.358H114.01V16.1289C114.219 15.8607 114.483 15.6522 114.804 15.5032C115.131 15.3468 115.489 15.2686 115.876 15.2686ZM125.801 18.3186C125.801 18.542 125.786 18.7431 125.756 18.9219H121.232C121.269 19.3688 121.425 19.7188 121.701 19.9721C121.976 20.2253 122.315 20.3519 122.718 20.3519C123.299 20.3519 123.712 20.1024 123.958 19.6034H125.645C125.466 20.1993 125.123 20.6908 124.617 21.0781C124.11 21.458 123.488 21.6479 122.751 21.6479C122.155 21.6479 121.619 21.5176 121.142 21.2569C120.673 20.9888 120.304 20.6126 120.036 20.1285C119.776 19.6444 119.645 19.0858 119.645 18.4527C119.645 17.8121 119.776 17.2498 120.036 16.7657C120.297 16.2815 120.662 15.9091 121.131 15.6485C121.6 15.3878 122.14 15.2574 122.751 15.2574C123.34 15.2574 123.865 15.384 124.326 15.6373C124.796 15.8905 125.157 16.2517 125.41 16.721C125.671 17.1828 125.801 17.7153 125.801 18.3186ZM124.181 17.8717C124.174 17.4695 124.028 17.1492 123.745 16.9109C123.462 16.6651 123.116 16.5422 122.706 16.5422C122.319 16.5422 121.991 16.6614 121.723 16.8997C121.463 17.1306 121.302 17.4546 121.243 17.8717H124.181Z" fill="#393858"/>
<path d="M40.1466 72.6853C40.1466 71.8693 40.3346 71.1373 40.7106 70.4893C41.0946 69.8413 41.6106 69.3373 42.2586 68.9773C42.9146 68.6093 43.6306 68.4253 44.4066 68.4253C45.2946 68.4253 46.0826 68.6453 46.7706 69.0853C47.4666 69.5173 47.9706 70.1333 48.2826 70.9333H46.6386C46.4226 70.4933 46.1226 70.1653 45.7386 69.9493C45.3546 69.7333 44.9106 69.6253 44.4066 69.6253C43.8546 69.6253 43.3626 69.7493 42.9306 69.9973C42.4986 70.2453 42.1586 70.6013 41.9106 71.0653C41.6706 71.5293 41.5506 72.0693 41.5506 72.6853C41.5506 73.3013 41.6706 73.8413 41.9106 74.3053C42.1586 74.7693 42.4986 75.1293 42.9306 75.3853C43.3626 75.6333 43.8546 75.7573 44.4066 75.7573C44.9106 75.7573 45.3546 75.6493 45.7386 75.4333C46.1226 75.2173 46.4226 74.8893 46.6386 74.4493H48.2826C47.9706 75.2493 47.4666 75.8653 46.7706 76.2973C46.0826 76.7293 45.2946 76.9453 44.4066 76.9453C43.6226 76.9453 42.9066 76.7653 42.2586 76.4053C41.6106 76.0373 41.0946 75.5293 40.7106 74.8813C40.3346 74.2333 40.1466 73.5013 40.1466 72.6853ZM49.4278 73.5373C49.4278 72.8733 49.5638 72.2853 49.8358 71.7733C50.1158 71.2613 50.4918 70.8653 50.9638 70.5853C51.4438 70.2973 51.9718 70.1533 52.5478 70.1533C53.0678 70.1533 53.5198 70.2573 53.9038 70.4653C54.2958 70.6653 54.6078 70.9173 54.8398 71.2213V70.2613H56.2198V76.8733H54.8398V75.8893C54.6078 76.2013 54.2918 76.4613 53.8918 76.6693C53.4918 76.8773 53.0358 76.9813 52.5238 76.9813C51.9558 76.9813 51.4358 76.8373 50.9638 76.5493C50.4918 76.2533 50.1158 75.8453 49.8358 75.3253C49.5638 74.7973 49.4278 74.2013 49.4278 73.5373ZM54.8398 73.5613C54.8398 73.1053 54.7438 72.7093 54.5518 72.3733C54.3678 72.0373 54.1238 71.7813 53.8198 71.6053C53.5158 71.4293 53.1878 71.3413 52.8358 71.3413C52.4838 71.3413 52.1558 71.4293 51.8518 71.6053C51.5478 71.7733 51.2998 72.0253 51.1078 72.3613C50.9238 72.6893 50.8318 73.0813 50.8318 73.5373C50.8318 73.9933 50.9238 74.3933 51.1078 74.7373C51.2998 75.0813 51.5478 75.3453 51.8518 75.5293C52.1638 75.7053 52.4918 75.7933 52.8358 75.7933C53.1878 75.7933 53.5158 75.7053 53.8198 75.5293C54.1238 75.3533 54.3678 75.0973 54.5518 74.7613C54.7438 74.4173 54.8398 74.0173 54.8398 73.5613ZM66.0206 70.1533C66.5406 70.1533 67.0046 70.2613 67.4126 70.4773C67.8286 70.6933 68.1526 71.0133 68.3846 71.4373C68.6246 71.8613 68.7446 72.3733 68.7446 72.9733V76.8733H67.3886V73.1773C67.3886 72.5853 67.2406 72.1333 66.9446 71.8213C66.6486 71.5013 66.2446 71.3413 65.7326 71.3413C65.2206 71.3413 64.8126 71.5013 64.5086 71.8213C64.2126 72.1333 64.0646 72.5853 64.0646 73.1773V76.8733H62.7086V73.1773C62.7086 72.5853 62.5606 72.1333 62.2646 71.8213C61.9686 71.5013 61.5646 71.3413 61.0526 71.3413C60.5406 71.3413 60.1326 71.5013 59.8286 71.8213C59.5326 72.1333 59.3846 72.5853 59.3846 73.1773V76.8733H58.0166V70.2613H59.3846V71.0173C59.6086 70.7453 59.8926 70.5333 60.2366 70.3813C60.5806 70.2293 60.9486 70.1533 61.3406 70.1533C61.8686 70.1533 62.3406 70.2653 62.7566 70.4893C63.1726 70.7133 63.4926 71.0373 63.7166 71.4613C63.9166 71.0613 64.2286 70.7453 64.6526 70.5133C65.0766 70.2733 65.5326 70.1533 66.0206 70.1533ZM71.8534 71.2333C72.0854 70.9293 72.4014 70.6733 72.8014 70.4653C73.2014 70.2573 73.6534 70.1533 74.1574 70.1533C74.7334 70.1533 75.2574 70.2973 75.7294 70.5853C76.2094 70.8653 76.5854 71.2613 76.8574 71.7733C77.1294 72.2853 77.2654 72.8733 77.2654 73.5373C77.2654 74.2013 77.1294 74.7973 76.8574 75.3253C76.5854 75.8453 76.2094 76.2533 75.7294 76.5493C75.2574 76.8373 74.7334 76.9813 74.1574 76.9813C73.6534 76.9813 73.2054 76.8813 72.8134 76.6813C72.4214 76.4733 72.1014 76.2173 71.8534 75.9133V80.0173H70.4854V70.2613H71.8534V71.2333ZM75.8734 73.5373C75.8734 73.0813 75.7774 72.6893 75.5854 72.3613C75.4014 72.0253 75.1534 71.7733 74.8414 71.6053C74.5374 71.4293 74.2094 71.3413 73.8574 71.3413C73.5134 71.3413 73.1854 71.4293 72.8734 71.6053C72.5694 71.7813 72.3214 72.0373 72.1294 72.3733C71.9454 72.7093 71.8534 73.1053 71.8534 73.5613C71.8534 74.0173 71.9454 74.4173 72.1294 74.7613C72.3214 75.0973 72.5694 75.3533 72.8734 75.5293C73.1854 75.7053 73.5134 75.7933 73.8574 75.7933C74.2094 75.7933 74.5374 75.7053 74.8414 75.5293C75.1534 75.3453 75.4014 75.0813 75.5854 74.7373C75.7774 74.3933 75.8734 73.9933 75.8734 73.5373ZM78.1622 73.5373C78.1622 72.8733 78.2982 72.2853 78.5702 71.7733C78.8502 71.2613 79.2262 70.8653 79.6982 70.5853C80.1782 70.2973 80.7062 70.1533 81.2822 70.1533C81.8022 70.1533 82.2542 70.2573 82.6382 70.4653C83.0302 70.6653 83.3422 70.9173 83.5742 71.2213V70.2613H84.9542V76.8733H83.5742V75.8893C83.3422 76.2013 83.0262 76.4613 82.6262 76.6693C82.2262 76.8773 81.7702 76.9813 81.2582 76.9813C80.6902 76.9813 80.1702 76.8373 79.6982 76.5493C79.2262 76.2533 78.8502 75.8453 78.5702 75.3253C78.2982 74.7973 78.1622 74.2013 78.1622 73.5373ZM83.5742 73.5613C83.5742 73.1053 83.4782 72.7093 83.2862 72.3733C83.1022 72.0373 82.8582 71.7813 82.5542 71.6053C82.2502 71.4293 81.9222 71.3413 81.5702 71.3413C81.2182 71.3413 80.8902 71.4293 80.5862 71.6053C80.2822 71.7733 80.0342 72.0253 79.8422 72.3613C79.6582 72.6893 79.5662 73.0813 79.5662 73.5373C79.5662 73.9933 79.6582 74.3933 79.8422 74.7373C80.0342 75.0813 80.2822 75.3453 80.5862 75.5293C80.8982 75.7053 81.2262 75.7933 81.5702 75.7933C81.9222 75.7933 82.2502 75.7053 82.5542 75.5293C82.8582 75.3533 83.1022 75.0973 83.2862 74.7613C83.4782 74.4173 83.5742 74.0173 83.5742 73.5613ZM87.447 69.3853C87.199 69.3853 86.991 69.3013 86.823 69.1333C86.655 68.9653 86.571 68.7573 86.571 68.5093C86.571 68.2613 86.655 68.0533 86.823 67.8853C86.991 67.7173 87.199 67.6333 87.447 67.6333C87.687 67.6333 87.891 67.7173 88.059 67.8853C88.227 68.0533 88.311 68.2613 88.311 68.5093C88.311 68.7573 88.227 68.9653 88.059 69.1333C87.891 69.3013 87.687 69.3853 87.447 69.3853ZM88.119 70.2613V76.8733H86.751V70.2613H88.119ZM92.5791 70.1533C93.0911 70.1533 93.5431 70.2573 93.9351 70.4653C94.3351 70.6653 94.6471 70.9173 94.8711 71.2213V70.2613H96.2511V76.9813C96.2511 77.5893 96.1231 78.1293 95.8671 78.6013C95.6111 79.0813 95.2391 79.4573 94.7511 79.7293C94.2711 80.0013 93.6951 80.1373 93.0231 80.1373C92.1271 80.1373 91.3831 79.9253 90.7911 79.5013C90.1991 79.0853 89.8631 78.5173 89.7831 77.7973H91.1391C91.2431 78.1413 91.4631 78.4173 91.7991 78.6253C92.1431 78.8413 92.5511 78.9493 93.0231 78.9493C93.5751 78.9493 94.0191 78.7813 94.3551 78.4453C94.6991 78.1093 94.8711 77.6213 94.8711 76.9813V75.8773C94.6391 76.1893 94.3231 76.4533 93.9231 76.6693C93.5311 76.8773 93.0831 76.9813 92.5791 76.9813C92.0031 76.9813 91.4751 76.8373 90.9951 76.5493C90.5231 76.2533 90.1471 75.8453 89.8671 75.3253C89.5951 74.7973 89.4591 74.2013 89.4591 73.5373C89.4591 72.8733 89.5951 72.2853 89.8671 71.7733C90.1471 71.2613 90.5231 70.8653 90.9951 70.5853C91.4751 70.2973 92.0031 70.1533 92.5791 70.1533ZM94.8711 73.5613C94.8711 73.1053 94.7751 72.7093 94.5831 72.3733C94.3991 72.0373 94.1551 71.7813 93.8511 71.6053C93.5471 71.4293 93.2191 71.3413 92.8671 71.3413C92.5151 71.3413 92.1871 71.4293 91.8831 71.6053C91.5791 71.7733 91.3311 72.0253 91.1391 72.3613C90.9551 72.6893 90.8631 73.0813 90.8631 73.5373C90.8631 73.9933 90.9551 74.3933 91.1391 74.7373C91.3311 75.0813 91.5791 75.3453 91.8831 75.5293C92.1951 75.7053 92.5231 75.7933 92.8671 75.7933C93.2191 75.7933 93.5471 75.7053 93.8511 75.5293C94.1551 75.3533 94.3991 75.0973 94.5831 74.7613C94.7751 74.4173 94.8711 74.0173 94.8711 73.5613ZM101.384 70.1533C101.904 70.1533 102.368 70.2613 102.776 70.4773C103.192 70.6933 103.516 71.0133 103.748 71.4373C103.98 71.8613 104.096 72.3733 104.096 72.9733V76.8733H102.74V73.1773C102.74 72.5853 102.592 72.1333 102.296 71.8213C102 71.5013 101.596 71.3413 101.084 71.3413C100.572 71.3413 100.164 71.5013 99.8599 71.8213C99.5639 72.1333 99.4159 72.5853 99.4159 73.1773V76.8733H98.0479V70.2613H99.4159V71.0173C99.6399 70.7453 99.9239 70.5333 100.268 70.3813C100.62 70.2293 100.992 70.1533 101.384 70.1533ZM110.326 75.7693H113.146V76.8733H108.958V68.5333H110.326V75.7693ZM113.834 73.5373C113.834 72.8733 113.97 72.2853 114.242 71.7733C114.522 71.2613 114.898 70.8653 115.37 70.5853C115.85 70.2973 116.378 70.1533 116.954 70.1533C117.474 70.1533 117.926 70.2573 118.31 70.4653C118.702 70.6653 119.014 70.9173 119.246 71.2213V70.2613H120.626V76.8733H119.246V75.8893C119.014 76.2013 118.698 76.4613 118.298 76.6693C117.898 76.8773 117.442 76.9813 116.93 76.9813C116.362 76.9813 115.842 76.8373 115.37 76.5493C114.898 76.2533 114.522 75.8453 114.242 75.3253C113.97 74.7973 113.834 74.2013 113.834 73.5373ZM119.246 73.5613C119.246 73.1053 119.15 72.7093 118.958 72.3733C118.774 72.0373 118.53 71.7813 118.226 71.6053C117.922 71.4293 117.594 71.3413 117.242 71.3413C116.89 71.3413 116.562 71.4293 116.258 71.6053C115.954 71.7733 115.706 72.0253 115.514 72.3613C115.33 72.6893 115.238 73.0813 115.238 73.5373C115.238 73.9933 115.33 74.3933 115.514 74.7373C115.706 75.0813 115.954 75.3453 116.258 75.5293C116.57 75.7053 116.898 75.7933 117.242 75.7933C117.594 75.7933 117.922 75.7053 118.226 75.5293C118.53 75.3533 118.774 75.0973 118.958 74.7613C119.15 74.4173 119.246 74.0173 119.246 73.5613ZM128.411 70.2613V76.8733H127.043V76.0933C126.827 76.3653 126.543 76.5813 126.191 76.7413C125.847 76.8933 125.479 76.9693 125.087 76.9693C124.567 76.9693 124.099 76.8613 123.683 76.6453C123.275 76.4293 122.951 76.1093 122.711 75.6853C122.479 75.2613 122.363 74.7493 122.363 74.1493V70.2613H123.719V73.9453C123.719 74.5373 123.867 74.9933 124.163 75.3133C124.459 75.6253 124.863 75.7813 125.375 75.7813C125.887 75.7813 126.291 75.6253 126.587 75.3133C126.891 74.9933 127.043 74.5373 127.043 73.9453V70.2613H128.411ZM133.552 70.1533C134.072 70.1533 134.536 70.2613 134.944 70.4773C135.36 70.6933 135.684 71.0133 135.916 71.4373C136.148 71.8613 136.264 72.3733 136.264 72.9733V76.8733H134.908V73.1773C134.908 72.5853 134.76 72.1333 134.464 71.8213C134.168 71.5013 133.764 71.3413 133.252 71.3413C132.74 71.3413 132.332 71.5013 132.028 71.8213C131.732 72.1333 131.584 72.5853 131.584 73.1773V76.8733H130.216V70.2613H131.584V71.0173C131.808 70.7453 132.092 70.5333 132.436 70.3813C132.788 70.2293 133.16 70.1533 133.552 70.1533ZM137.553 73.5613C137.553 72.8813 137.689 72.2853 137.961 71.7733C138.241 71.2533 138.625 70.8533 139.113 70.5733C139.601 70.2933 140.161 70.1533 140.793 70.1533C141.593 70.1533 142.253 70.3453 142.773 70.7293C143.301 71.1053 143.657 71.6453 143.841 72.3493H142.365C142.245 72.0213 142.053 71.7653 141.789 71.5813C141.525 71.3973 141.193 71.3053 140.793 71.3053C140.233 71.3053 139.785 71.5053 139.449 71.9053C139.121 72.2973 138.957 72.8493 138.957 73.5613C138.957 74.2733 139.121 74.8293 139.449 75.2293C139.785 75.6293 140.233 75.8293 140.793 75.8293C141.585 75.8293 142.109 75.4813 142.365 74.7853H143.841C143.649 75.4573 143.289 75.9933 142.761 76.3933C142.233 76.7853 141.577 76.9813 140.793 76.9813C140.161 76.9813 139.601 76.8413 139.113 76.5613C138.625 76.2733 138.241 75.8733 137.961 75.3613C137.689 74.8413 137.553 74.2413 137.553 73.5613ZM148.624 70.1533C149.128 70.1533 149.576 70.2613 149.968 70.4773C150.368 70.6933 150.68 71.0133 150.904 71.4373C151.136 71.8613 151.252 72.3733 151.252 72.9733V76.8733H149.896V73.1773C149.896 72.5853 149.748 72.1333 149.452 71.8213C149.156 71.5013 148.752 71.3413 148.24 71.3413C147.728 71.3413 147.32 71.5013 147.016 71.8213C146.72 72.1333 146.572 72.5853 146.572 73.1773V76.8733H145.204V67.9933H146.572V71.0293C146.804 70.7493 147.096 70.5333 147.448 70.3813C147.808 70.2293 148.2 70.1533 148.624 70.1533Z" fill="white"/>
<circle cx="196.956" cy="19.7196" r="5.15639" fill="white"/>
<line x1="191.8" y1="19.2898" x2="383.6" y2="19.2898" stroke="white" stroke-width="0.859399"/>
<rect x="245.449" y="0.812744" width="84.5008" height="34.4692" rx="17.2346" fill="white"/>
<path d="M261.967 15.0116V16.9668H264.592V18.2069H261.967V20.2737H264.927V21.5474H260.402V13.738H264.927V15.0116H261.967ZM266.161 18.4303C266.161 17.8047 266.284 17.2498 266.53 16.7657C266.783 16.2815 267.122 15.9091 267.547 15.6485C267.979 15.3878 268.459 15.2574 268.988 15.2574C269.45 15.2574 269.852 15.3505 270.194 15.5367C270.544 15.7229 270.824 15.9575 271.032 16.2406V15.358H272.608V21.5474H271.032V20.6424C270.831 20.9329 270.552 21.175 270.194 21.3686C269.844 21.5548 269.438 21.6479 268.977 21.6479C268.455 21.6479 267.979 21.5138 267.547 21.2457C267.122 20.9776 266.783 20.6015 266.53 20.1173C266.284 19.6257 266.161 19.0634 266.161 18.4303ZM271.032 18.4527C271.032 18.0728 270.958 17.7488 270.809 17.4807C270.66 17.2051 270.459 16.9966 270.206 16.855C269.952 16.7061 269.681 16.6316 269.39 16.6316C269.1 16.6316 268.831 16.7024 268.586 16.8439C268.34 16.9854 268.139 17.1939 267.982 17.4695C267.833 17.7376 267.759 18.0579 267.759 18.4303C267.759 18.8027 267.833 19.1304 267.982 19.4135C268.139 19.6891 268.34 19.9013 268.586 20.0503C268.839 20.1993 269.107 20.2737 269.39 20.2737C269.681 20.2737 269.952 20.203 270.206 20.0615C270.459 19.9125 270.66 19.704 270.809 19.4358C270.958 19.1602 271.032 18.8325 271.032 18.4527ZM275.914 16.3188C276.115 15.9911 276.376 15.7341 276.696 15.5479C277.024 15.3617 277.396 15.2686 277.813 15.2686V16.9109H277.4C276.909 16.9109 276.536 17.0264 276.283 17.2572C276.037 17.4881 275.914 17.8903 275.914 18.4638V21.5474H274.35V15.358H275.914V16.3188ZM280.646 13.2799V21.5474H279.082V13.2799H280.646ZM288.327 15.358L284.495 24.4745H282.831L284.171 21.391L281.691 15.358H283.445L285.043 19.6816L286.663 15.358H288.327ZM296.809 13.7492V19.2235C296.809 19.9833 296.59 20.5754 296.15 20.9999C295.711 21.417 295.122 21.6256 294.385 21.6256C293.64 21.6256 293.037 21.4096 292.575 20.9776C292.121 20.5456 291.894 19.9423 291.894 19.1677H293.458C293.465 19.5029 293.543 19.7635 293.692 19.9497C293.849 20.1359 294.072 20.229 294.363 20.229C294.646 20.229 294.862 20.1397 295.011 19.9609C295.16 19.7822 295.234 19.5364 295.234 19.2235V13.7492H296.809ZM304.692 15.358V21.5474H303.117V20.7653C302.916 21.0334 302.651 21.2457 302.323 21.4021C302.003 21.5511 301.653 21.6256 301.273 21.6256C300.789 21.6256 300.361 21.525 299.988 21.3239C299.616 21.1154 299.322 20.8137 299.106 20.419C298.897 20.0168 298.793 19.5401 298.793 18.9889V15.358H300.357V18.7655C300.357 19.2571 300.48 19.6369 300.726 19.9051C300.972 20.1657 301.307 20.2961 301.731 20.2961C302.163 20.2961 302.502 20.1657 302.748 19.9051C302.994 19.6369 303.117 19.2571 303.117 18.7655V15.358H304.692ZM308.014 13.2799V21.5474H306.45V13.2799H308.014ZM315.696 15.358L311.863 24.4745H310.199L311.539 21.391L309.059 15.358H310.813L312.411 19.6816L314.031 15.358H315.696Z" fill="#393858"/>
<path d="M230.81 72.6853C230.81 71.8693 230.998 71.1373 231.374 70.4893C231.758 69.8413 232.274 69.3373 232.922 68.9773C233.578 68.6093 234.294 68.4253 235.07 68.4253C235.958 68.4253 236.746 68.6453 237.434 69.0853C238.13 69.5173 238.634 70.1333 238.946 70.9333H237.302C237.086 70.4933 236.786 70.1653 236.402 69.9493C236.018 69.7333 235.574 69.6253 235.07 69.6253C234.518 69.6253 234.026 69.7493 233.594 69.9973C233.162 70.2453 232.822 70.6013 232.574 71.0653C232.334 71.5293 232.214 72.0693 232.214 72.6853C232.214 73.3013 232.334 73.8413 232.574 74.3053C232.822 74.7693 233.162 75.1293 233.594 75.3853C234.026 75.6333 234.518 75.7573 235.07 75.7573C235.574 75.7573 236.018 75.6493 236.402 75.4333C236.786 75.2173 237.086 74.8893 237.302 74.4493H238.946C238.634 75.2493 238.13 75.8653 237.434 76.2973C236.746 76.7293 235.958 76.9453 235.07 76.9453C234.286 76.9453 233.57 76.7653 232.922 76.4053C232.274 76.0373 231.758 75.5293 231.374 74.8813C230.998 74.2333 230.81 73.5013 230.81 72.6853ZM240.091 73.5373C240.091 72.8733 240.227 72.2853 240.499 71.7733C240.779 71.2613 241.155 70.8653 241.627 70.5853C242.107 70.2973 242.635 70.1533 243.211 70.1533C243.731 70.1533 244.183 70.2573 244.567 70.4653C244.959 70.6653 245.271 70.9173 245.503 71.2213V70.2613H246.883V76.8733H245.503V75.8893C245.271 76.2013 244.955 76.4613 244.555 76.6693C244.155 76.8773 243.699 76.9813 243.187 76.9813C242.619 76.9813 242.099 76.8373 241.627 76.5493C241.155 76.2533 240.779 75.8453 240.499 75.3253C240.227 74.7973 240.091 74.2013 240.091 73.5373ZM245.503 73.5613C245.503 73.1053 245.407 72.7093 245.215 72.3733C245.031 72.0373 244.787 71.7813 244.483 71.6053C244.179 71.4293 243.851 71.3413 243.499 71.3413C243.147 71.3413 242.819 71.4293 242.515 71.6053C242.211 71.7733 241.963 72.0253 241.771 72.3613C241.587 72.6893 241.495 73.0813 241.495 73.5373C241.495 73.9933 241.587 74.3933 241.771 74.7373C241.963 75.0813 242.211 75.3453 242.515 75.5293C242.827 75.7053 243.155 75.7933 243.499 75.7933C243.851 75.7933 244.179 75.7053 244.483 75.5293C244.787 75.3533 245.031 75.0973 245.215 74.7613C245.407 74.4173 245.503 74.0173 245.503 73.5613ZM256.684 70.1533C257.204 70.1533 257.668 70.2613 258.076 70.4773C258.492 70.6933 258.816 71.0133 259.048 71.4373C259.288 71.8613 259.408 72.3733 259.408 72.9733V76.8733H258.052V73.1773C258.052 72.5853 257.904 72.1333 257.608 71.8213C257.312 71.5013 256.908 71.3413 256.396 71.3413C255.884 71.3413 255.476 71.5013 255.172 71.8213C254.876 72.1333 254.728 72.5853 254.728 73.1773V76.8733H253.372V73.1773C253.372 72.5853 253.224 72.1333 252.928 71.8213C252.632 71.5013 252.228 71.3413 251.716 71.3413C251.204 71.3413 250.796 71.5013 250.492 71.8213C250.196 72.1333 250.048 72.5853 250.048 73.1773V76.8733H248.68V70.2613H250.048V71.0173C250.272 70.7453 250.556 70.5333 250.9 70.3813C251.244 70.2293 251.612 70.1533 252.004 70.1533C252.532 70.1533 253.004 70.2653 253.42 70.4893C253.836 70.7133 254.156 71.0373 254.38 71.4613C254.58 71.0613 254.892 70.7453 255.316 70.5133C255.74 70.2733 256.196 70.1533 256.684 70.1533ZM262.516 71.2333C262.748 70.9293 263.064 70.6733 263.464 70.4653C263.864 70.2573 264.316 70.1533 264.82 70.1533C265.396 70.1533 265.92 70.2973 266.392 70.5853C266.872 70.8653 267.248 71.2613 267.52 71.7733C267.792 72.2853 267.928 72.8733 267.928 73.5373C267.928 74.2013 267.792 74.7973 267.52 75.3253C267.248 75.8453 266.872 76.2533 266.392 76.5493C265.92 76.8373 265.396 76.9813 264.82 76.9813C264.316 76.9813 263.868 76.8813 263.476 76.6813C263.084 76.4733 262.764 76.2173 262.516 75.9133V80.0173H261.148V70.2613H262.516V71.2333ZM266.536 73.5373C266.536 73.0813 266.44 72.6893 266.248 72.3613C266.064 72.0253 265.816 71.7733 265.504 71.6053C265.2 71.4293 264.872 71.3413 264.52 71.3413C264.176 71.3413 263.848 71.4293 263.536 71.6053C263.232 71.7813 262.984 72.0373 262.792 72.3733C262.608 72.7093 262.516 73.1053 262.516 73.5613C262.516 74.0173 262.608 74.4173 262.792 74.7613C262.984 75.0973 263.232 75.3533 263.536 75.5293C263.848 75.7053 264.176 75.7933 264.52 75.7933C264.872 75.7933 265.2 75.7053 265.504 75.5293C265.816 75.3453 266.064 75.0813 266.248 74.7373C266.44 74.3933 266.536 73.9933 266.536 73.5373ZM268.825 73.5373C268.825 72.8733 268.961 72.2853 269.233 71.7733C269.513 71.2613 269.889 70.8653 270.361 70.5853C270.841 70.2973 271.369 70.1533 271.945 70.1533C272.465 70.1533 272.917 70.2573 273.301 70.4653C273.693 70.6653 274.005 70.9173 274.237 71.2213V70.2613H275.617V76.8733H274.237V75.8893C274.005 76.2013 273.689 76.4613 273.289 76.6693C272.889 76.8773 272.433 76.9813 271.921 76.9813C271.353 76.9813 270.833 76.8373 270.361 76.5493C269.889 76.2533 269.513 75.8453 269.233 75.3253C268.961 74.7973 268.825 74.2013 268.825 73.5373ZM274.237 73.5613C274.237 73.1053 274.141 72.7093 273.949 72.3733C273.765 72.0373 273.521 71.7813 273.217 71.6053C272.913 71.4293 272.585 71.3413 272.233 71.3413C271.881 71.3413 271.553 71.4293 271.249 71.6053C270.945 71.7733 270.697 72.0253 270.505 72.3613C270.321 72.6893 270.229 73.0813 270.229 73.5373C270.229 73.9933 270.321 74.3933 270.505 74.7373C270.697 75.0813 270.945 75.3453 271.249 75.5293C271.561 75.7053 271.889 75.7933 272.233 75.7933C272.585 75.7933 272.913 75.7053 273.217 75.5293C273.521 75.3533 273.765 75.0973 273.949 74.7613C274.141 74.4173 274.237 74.0173 274.237 73.5613ZM278.11 69.3853C277.862 69.3853 277.654 69.3013 277.486 69.1333C277.318 68.9653 277.234 68.7573 277.234 68.5093C277.234 68.2613 277.318 68.0533 277.486 67.8853C277.654 67.7173 277.862 67.6333 278.11 67.6333C278.35 67.6333 278.554 67.7173 278.722 67.8853C278.89 68.0533 278.974 68.2613 278.974 68.5093C278.974 68.7573 278.89 68.9653 278.722 69.1333C278.554 69.3013 278.35 69.3853 278.11 69.3853ZM278.782 70.2613V76.8733H277.414V70.2613H278.782ZM283.242 70.1533C283.754 70.1533 284.206 70.2573 284.598 70.4653C284.998 70.6653 285.31 70.9173 285.534 71.2213V70.2613H286.914V76.9813C286.914 77.5893 286.786 78.1293 286.53 78.6013C286.274 79.0813 285.902 79.4573 285.414 79.7293C284.934 80.0013 284.358 80.1373 283.686 80.1373C282.79 80.1373 282.046 79.9253 281.454 79.5013C280.862 79.0853 280.526 78.5173 280.446 77.7973H281.802C281.906 78.1413 282.126 78.4173 282.462 78.6253C282.806 78.8413 283.214 78.9493 283.686 78.9493C284.238 78.9493 284.682 78.7813 285.018 78.4453C285.362 78.1093 285.534 77.6213 285.534 76.9813V75.8773C285.302 76.1893 284.986 76.4533 284.586 76.6693C284.194 76.8773 283.746 76.9813 283.242 76.9813C282.666 76.9813 282.138 76.8373 281.658 76.5493C281.186 76.2533 280.81 75.8453 280.53 75.3253C280.258 74.7973 280.122 74.2013 280.122 73.5373C280.122 72.8733 280.258 72.2853 280.53 71.7733C280.81 71.2613 281.186 70.8653 281.658 70.5853C282.138 70.2973 282.666 70.1533 283.242 70.1533ZM285.534 73.5613C285.534 73.1053 285.438 72.7093 285.246 72.3733C285.062 72.0373 284.818 71.7813 284.514 71.6053C284.21 71.4293 283.882 71.3413 283.53 71.3413C283.178 71.3413 282.85 71.4293 282.546 71.6053C282.242 71.7733 281.994 72.0253 281.802 72.3613C281.618 72.6893 281.526 73.0813 281.526 73.5373C281.526 73.9933 281.618 74.3933 281.802 74.7373C281.994 75.0813 282.242 75.3453 282.546 75.5293C282.858 75.7053 283.186 75.7933 283.53 75.7933C283.882 75.7933 284.21 75.7053 284.514 75.5293C284.818 75.3533 285.062 75.0973 285.246 74.7613C285.438 74.4173 285.534 74.0173 285.534 73.5613ZM292.047 70.1533C292.567 70.1533 293.031 70.2613 293.439 70.4773C293.855 70.6933 294.179 71.0133 294.411 71.4373C294.643 71.8613 294.759 72.3733 294.759 72.9733V76.8733H293.403V73.1773C293.403 72.5853 293.255 72.1333 292.959 71.8213C292.663 71.5013 292.259 71.3413 291.747 71.3413C291.235 71.3413 290.827 71.5013 290.523 71.8213C290.227 72.1333 290.079 72.5853 290.079 73.1773V76.8733H288.711V70.2613H290.079V71.0173C290.303 70.7453 290.587 70.5333 290.931 70.3813C291.283 70.2293 291.655 70.1533 292.047 70.1533ZM299.165 72.6853C299.165 71.8693 299.353 71.1373 299.729 70.4893C300.113 69.8413 300.629 69.3373 301.277 68.9773C301.933 68.6093 302.649 68.4253 303.425 68.4253C304.313 68.4253 305.101 68.6453 305.789 69.0853C306.485 69.5173 306.989 70.1333 307.301 70.9333H305.657C305.441 70.4933 305.141 70.1653 304.757 69.9493C304.373 69.7333 303.929 69.6253 303.425 69.6253C302.873 69.6253 302.381 69.7493 301.949 69.9973C301.517 70.2453 301.177 70.6013 300.929 71.0653C300.689 71.5293 300.569 72.0693 300.569 72.6853C300.569 73.3013 300.689 73.8413 300.929 74.3053C301.177 74.7693 301.517 75.1293 301.949 75.3853C302.381 75.6333 302.873 75.7573 303.425 75.7573C303.929 75.7573 304.373 75.6493 304.757 75.4333C305.141 75.2173 305.441 74.8893 305.657 74.4493H307.301C306.989 75.2493 306.485 75.8653 305.789 76.2973C305.101 76.7293 304.313 76.9453 303.425 76.9453C302.641 76.9453 301.925 76.7653 301.277 76.4053C300.629 76.0373 300.113 75.5293 299.729 74.8813C299.353 74.2333 299.165 73.5013 299.165 72.6853ZM310.27 67.9933V76.8733H308.902V67.9933H310.27ZM314.934 76.9813C314.31 76.9813 313.746 76.8413 313.242 76.5613C312.738 76.2733 312.342 75.8733 312.054 75.3613C311.766 74.8413 311.622 74.2413 311.622 73.5613C311.622 72.8893 311.77 72.2933 312.066 71.7733C312.362 71.2533 312.766 70.8533 313.278 70.5733C313.79 70.2933 314.362 70.1533 314.994 70.1533C315.626 70.1533 316.198 70.2933 316.71 70.5733C317.222 70.8533 317.626 71.2533 317.922 71.7733C318.218 72.2933 318.366 72.8893 318.366 73.5613C318.366 74.2333 318.214 74.8293 317.91 75.3493C317.606 75.8693 317.19 76.2733 316.662 76.5613C316.142 76.8413 315.566 76.9813 314.934 76.9813ZM314.934 75.7933C315.286 75.7933 315.614 75.7093 315.918 75.5413C316.23 75.3733 316.482 75.1213 316.674 74.7853C316.866 74.4493 316.962 74.0413 316.962 73.5613C316.962 73.0813 316.87 72.6773 316.686 72.3493C316.502 72.0133 316.258 71.7613 315.954 71.5933C315.65 71.4253 315.322 71.3413 314.97 71.3413C314.618 71.3413 314.29 71.4253 313.986 71.5933C313.69 71.7613 313.454 72.0133 313.278 72.3493C313.102 72.6773 313.014 73.0813 313.014 73.5613C313.014 74.2733 313.194 74.8253 313.554 75.2173C313.922 75.6013 314.382 75.7933 314.934 75.7933ZM322.119 76.9813C321.599 76.9813 321.131 76.8893 320.715 76.7053C320.307 76.5133 319.983 76.2573 319.743 75.9373C319.503 75.6093 319.375 75.2453 319.359 74.8453H320.775C320.799 75.1253 320.931 75.3613 321.171 75.5533C321.419 75.7373 321.727 75.8293 322.095 75.8293C322.479 75.8293 322.775 75.7573 322.983 75.6133C323.199 75.4613 323.307 75.2693 323.307 75.0373C323.307 74.7893 323.187 74.6053 322.947 74.4853C322.715 74.3653 322.343 74.2333 321.831 74.0893C321.335 73.9533 320.931 73.8213 320.619 73.6933C320.307 73.5653 320.035 73.3693 319.803 73.1053C319.579 72.8413 319.467 72.4933 319.467 72.0613C319.467 71.7093 319.571 71.3893 319.779 71.1013C319.987 70.8053 320.283 70.5733 320.667 70.4053C321.059 70.2373 321.507 70.1533 322.011 70.1533C322.763 70.1533 323.367 70.3453 323.823 70.7293C324.287 71.1053 324.535 71.6213 324.567 72.2773H323.199C323.175 71.9813 323.055 71.7453 322.839 71.5693C322.623 71.3933 322.331 71.3053 321.963 71.3053C321.603 71.3053 321.327 71.3733 321.135 71.5093C320.943 71.6453 320.847 71.8253 320.847 72.0493C320.847 72.2253 320.911 72.3733 321.039 72.4933C321.167 72.6133 321.323 72.7093 321.507 72.7813C321.691 72.8453 321.963 72.9293 322.323 73.0333C322.803 73.1613 323.195 73.2933 323.499 73.4293C323.811 73.5573 324.079 73.7493 324.303 74.0053C324.527 74.2613 324.643 74.6013 324.651 75.0253C324.651 75.4013 324.547 75.7373 324.339 76.0333C324.131 76.3293 323.835 76.5613 323.451 76.7293C323.075 76.8973 322.631 76.9813 322.119 76.9813ZM332.117 70.2613V76.8733H330.749V76.0933C330.533 76.3653 330.249 76.5813 329.897 76.7413C329.553 76.8933 329.185 76.9693 328.793 76.9693C328.273 76.9693 327.805 76.8613 327.389 76.6453C326.981 76.4293 326.657 76.1093 326.417 75.6853C326.185 75.2613 326.069 74.7493 326.069 74.1493V70.2613H327.425V73.9453C327.425 74.5373 327.573 74.9933 327.869 75.3133C328.165 75.6253 328.569 75.7813 329.081 75.7813C329.593 75.7813 329.997 75.6253 330.293 75.3133C330.597 74.9933 330.749 74.5373 330.749 73.9453V70.2613H332.117ZM335.29 71.2213C335.49 70.8853 335.754 70.6253 336.082 70.4413C336.418 70.2493 336.814 70.1533 337.27 70.1533V71.5693H336.922C336.386 71.5693 335.978 71.7053 335.698 71.9773C335.426 72.2493 335.29 72.7213 335.29 73.3933V76.8733H333.922V70.2613H335.29V71.2213ZM344.587 73.4053C344.587 73.6533 344.571 73.8773 344.539 74.0773H339.487C339.527 74.6053 339.723 75.0293 340.075 75.3493C340.427 75.6693 340.859 75.8293 341.371 75.8293C342.107 75.8293 342.627 75.5213 342.931 74.9053H344.407C344.207 75.5133 343.843 76.0133 343.315 76.4053C342.795 76.7893 342.147 76.9813 341.371 76.9813C340.739 76.9813 340.171 76.8413 339.667 76.5613C339.171 76.2733 338.779 75.8733 338.491 75.3613C338.211 74.8413 338.071 74.2413 338.071 73.5613C338.071 72.8813 338.207 72.2853 338.479 71.7733C338.759 71.2533 339.147 70.8533 339.643 70.5733C340.147 70.2933 340.723 70.1533 341.371 70.1533C341.995 70.1533 342.551 70.2893 343.039 70.5613C343.527 70.8333 343.907 71.2173 344.179 71.7133C344.451 72.2013 344.587 72.7653 344.587 73.4053ZM343.159 72.9733C343.151 72.4693 342.971 72.0653 342.619 71.7613C342.267 71.4573 341.831 71.3053 341.311 71.3053C340.839 71.3053 340.435 71.4573 340.099 71.7613C339.763 72.0573 339.563 72.4613 339.499 72.9733H343.159Z" fill="white"/>
<circle cx="388.757" cy="19.7196" r="5.15639" fill="white"/>
<line x1="383.6" y1="19.2898" x2="575.4" y2="19.2898" stroke="white" stroke-width="0.859399"/>
<rect x="441.25" y="0.812744" width="76.5008" height="34.4692" rx="17.2346" fill="white"/>
<path d="M464.509 13.7492V21.5474H462.945V16.4752L460.856 21.5474H459.672L457.571 16.4752V21.5474H456.007V13.7492H457.784L460.264 19.5475L462.744 13.7492H464.509ZM467.064 14.6206C466.788 14.6206 466.557 14.535 466.371 14.3637C466.192 14.1849 466.103 13.9652 466.103 13.7045C466.103 13.4438 466.192 13.2278 466.371 13.0565C466.557 12.8777 466.788 12.7884 467.064 12.7884C467.339 12.7884 467.566 12.8777 467.745 13.0565C467.931 13.2278 468.024 13.4438 468.024 13.7045C468.024 13.9652 467.931 14.1849 467.745 14.3637C467.566 14.535 467.339 14.6206 467.064 14.6206ZM467.835 15.358V21.5474H466.27V15.358H467.835ZM469.193 18.4303C469.193 17.8047 469.315 17.2498 469.561 16.7657C469.814 16.2815 470.157 15.9091 470.589 15.6485C471.021 15.3878 471.501 15.2574 472.03 15.2574C472.432 15.2574 472.816 15.3468 473.181 15.5256C473.546 15.6969 473.836 15.9278 474.052 16.2182V13.2799H475.639V21.5474H474.052V20.6312C473.859 20.9366 473.587 21.1824 473.237 21.3686C472.887 21.5548 472.481 21.6479 472.019 21.6479C471.498 21.6479 471.021 21.5138 470.589 21.2457C470.157 20.9776 469.814 20.6015 469.561 20.1173C469.315 19.6257 469.193 19.0634 469.193 18.4303ZM474.064 18.4527C474.064 18.0728 473.989 17.7488 473.84 17.4807C473.691 17.2051 473.49 16.9966 473.237 16.855C472.984 16.7061 472.712 16.6316 472.421 16.6316C472.131 16.6316 471.863 16.7024 471.617 16.8439C471.371 16.9854 471.17 17.1939 471.014 17.4695C470.865 17.7376 470.79 18.0579 470.79 18.4303C470.79 18.8027 470.865 19.1304 471.014 19.4135C471.17 19.6891 471.371 19.9013 471.617 20.0503C471.87 20.1993 472.138 20.2737 472.421 20.2737C472.712 20.2737 472.984 20.203 473.237 20.0615C473.49 19.9125 473.691 19.704 473.84 19.4358C473.989 19.1602 474.064 18.8325 474.064 18.4527ZM484.805 13.7492V19.2235C484.805 19.9833 484.586 20.5754 484.146 20.9999C483.707 21.417 483.118 21.6256 482.381 21.6256C481.636 21.6256 481.033 21.4096 480.571 20.9776C480.117 20.5456 479.89 19.9423 479.89 19.1677H481.454C481.461 19.5029 481.539 19.7635 481.688 19.9497C481.845 20.1359 482.068 20.229 482.359 20.229C482.642 20.229 482.858 20.1397 483.007 19.9609C483.156 19.7822 483.23 19.5364 483.23 19.2235V13.7492H484.805ZM492.688 15.358V21.5474H491.113V20.7653C490.911 21.0334 490.647 21.2457 490.319 21.4021C489.999 21.5511 489.649 21.6256 489.269 21.6256C488.785 21.6256 488.357 21.525 487.984 21.3239C487.612 21.1154 487.318 20.8137 487.102 20.419C486.893 20.0168 486.789 19.5401 486.789 18.9889V15.358H488.353V18.7655C488.353 19.2571 488.476 19.6369 488.722 19.9051C488.967 20.1657 489.303 20.2961 489.727 20.2961C490.159 20.2961 490.498 20.1657 490.744 19.9051C490.99 19.6369 491.113 19.2571 491.113 18.7655V15.358H492.688ZM496.01 13.2799V21.5474H494.446V13.2799H496.01ZM503.691 15.358L499.859 24.4745H498.195L499.535 21.391L497.055 15.358H498.809L500.407 19.6816L502.027 15.358H503.691Z" fill="#393858"/>
<path d="M414.014 72.6853C414.014 71.8693 414.202 71.1373 414.578 70.4893C414.962 69.8413 415.478 69.3373 416.126 68.9773C416.782 68.6093 417.498 68.4253 418.274 68.4253C419.162 68.4253 419.95 68.6453 420.638 69.0853C421.334 69.5173 421.838 70.1333 422.15 70.9333H420.506C420.29 70.4933 419.99 70.1653 419.606 69.9493C419.222 69.7333 418.778 69.6253 418.274 69.6253C417.722 69.6253 417.23 69.7493 416.798 69.9973C416.366 70.2453 416.026 70.6013 415.778 71.0653C415.538 71.5293 415.418 72.0693 415.418 72.6853C415.418 73.3013 415.538 73.8413 415.778 74.3053C416.026 74.7693 416.366 75.1293 416.798 75.3853C417.23 75.6333 417.722 75.7573 418.274 75.7573C418.778 75.7573 419.222 75.6493 419.606 75.4333C419.99 75.2173 420.29 74.8893 420.506 74.4493H422.15C421.838 75.2493 421.334 75.8653 420.638 76.2973C419.95 76.7293 419.162 76.9453 418.274 76.9453C417.49 76.9453 416.774 76.7653 416.126 76.4053C415.478 76.0373 414.962 75.5293 414.578 74.8813C414.202 74.2333 414.014 73.5013 414.014 72.6853ZM423.296 73.5373C423.296 72.8733 423.432 72.2853 423.704 71.7733C423.984 71.2613 424.36 70.8653 424.832 70.5853C425.312 70.2973 425.84 70.1533 426.416 70.1533C426.936 70.1533 427.388 70.2573 427.772 70.4653C428.164 70.6653 428.476 70.9173 428.708 71.2213V70.2613H430.088V76.8733H428.708V75.8893C428.476 76.2013 428.16 76.4613 427.76 76.6693C427.36 76.8773 426.904 76.9813 426.392 76.9813C425.824 76.9813 425.304 76.8373 424.832 76.5493C424.36 76.2533 423.984 75.8453 423.704 75.3253C423.432 74.7973 423.296 74.2013 423.296 73.5373ZM428.708 73.5613C428.708 73.1053 428.612 72.7093 428.42 72.3733C428.236 72.0373 427.992 71.7813 427.688 71.6053C427.384 71.4293 427.056 71.3413 426.704 71.3413C426.352 71.3413 426.024 71.4293 425.72 71.6053C425.416 71.7733 425.168 72.0253 424.976 72.3613C424.792 72.6893 424.7 73.0813 424.7 73.5373C424.7 73.9933 424.792 74.3933 424.976 74.7373C425.168 75.0813 425.416 75.3453 425.72 75.5293C426.032 75.7053 426.36 75.7933 426.704 75.7933C427.056 75.7933 427.384 75.7053 427.688 75.5293C427.992 75.3533 428.236 75.0973 428.42 74.7613C428.612 74.4173 428.708 74.0173 428.708 73.5613ZM439.888 70.1533C440.408 70.1533 440.872 70.2613 441.28 70.4773C441.696 70.6933 442.02 71.0133 442.252 71.4373C442.492 71.8613 442.612 72.3733 442.612 72.9733V76.8733H441.256V73.1773C441.256 72.5853 441.108 72.1333 440.812 71.8213C440.516 71.5013 440.112 71.3413 439.6 71.3413C439.088 71.3413 438.68 71.5013 438.376 71.8213C438.08 72.1333 437.932 72.5853 437.932 73.1773V76.8733H436.576V73.1773C436.576 72.5853 436.428 72.1333 436.132 71.8213C435.836 71.5013 435.432 71.3413 434.92 71.3413C434.408 71.3413 434 71.5013 433.696 71.8213C433.4 72.1333 433.252 72.5853 433.252 73.1773V76.8733H431.884V70.2613H433.252V71.0173C433.476 70.7453 433.76 70.5333 434.104 70.3813C434.448 70.2293 434.816 70.1533 435.208 70.1533C435.736 70.1533 436.208 70.2653 436.624 70.4893C437.04 70.7133 437.36 71.0373 437.584 71.4613C437.784 71.0613 438.096 70.7453 438.52 70.5133C438.944 70.2733 439.4 70.1533 439.888 70.1533ZM445.721 71.2333C445.953 70.9293 446.269 70.6733 446.669 70.4653C447.069 70.2573 447.521 70.1533 448.025 70.1533C448.601 70.1533 449.125 70.2973 449.597 70.5853C450.077 70.8653 450.453 71.2613 450.725 71.7733C450.997 72.2853 451.133 72.8733 451.133 73.5373C451.133 74.2013 450.997 74.7973 450.725 75.3253C450.453 75.8453 450.077 76.2533 449.597 76.5493C449.125 76.8373 448.601 76.9813 448.025 76.9813C447.521 76.9813 447.073 76.8813 446.681 76.6813C446.289 76.4733 445.969 76.2173 445.721 75.9133V80.0173H444.353V70.2613H445.721V71.2333ZM449.741 73.5373C449.741 73.0813 449.645 72.6893 449.453 72.3613C449.269 72.0253 449.021 71.7733 448.709 71.6053C448.405 71.4293 448.077 71.3413 447.725 71.3413C447.381 71.3413 447.053 71.4293 446.741 71.6053C446.437 71.7813 446.189 72.0373 445.997 72.3733C445.813 72.7093 445.721 73.1053 445.721 73.5613C445.721 74.0173 445.813 74.4173 445.997 74.7613C446.189 75.0973 446.437 75.3533 446.741 75.5293C447.053 75.7053 447.381 75.7933 447.725 75.7933C448.077 75.7933 448.405 75.7053 448.709 75.5293C449.021 75.3453 449.269 75.0813 449.453 74.7373C449.645 74.3933 449.741 73.9933 449.741 73.5373ZM452.03 73.5373C452.03 72.8733 452.166 72.2853 452.438 71.7733C452.718 71.2613 453.094 70.8653 453.566 70.5853C454.046 70.2973 454.574 70.1533 455.15 70.1533C455.67 70.1533 456.122 70.2573 456.506 70.4653C456.898 70.6653 457.21 70.9173 457.442 71.2213V70.2613H458.822V76.8733H457.442V75.8893C457.21 76.2013 456.894 76.4613 456.494 76.6693C456.094 76.8773 455.638 76.9813 455.126 76.9813C454.558 76.9813 454.038 76.8373 453.566 76.5493C453.094 76.2533 452.718 75.8453 452.438 75.3253C452.166 74.7973 452.03 74.2013 452.03 73.5373ZM457.442 73.5613C457.442 73.1053 457.346 72.7093 457.154 72.3733C456.97 72.0373 456.726 71.7813 456.422 71.6053C456.118 71.4293 455.79 71.3413 455.438 71.3413C455.086 71.3413 454.758 71.4293 454.454 71.6053C454.15 71.7733 453.902 72.0253 453.71 72.3613C453.526 72.6893 453.434 73.0813 453.434 73.5373C453.434 73.9933 453.526 74.3933 453.71 74.7373C453.902 75.0813 454.15 75.3453 454.454 75.5293C454.766 75.7053 455.094 75.7933 455.438 75.7933C455.79 75.7933 456.118 75.7053 456.422 75.5293C456.726 75.3533 456.97 75.0973 457.154 74.7613C457.346 74.4173 457.442 74.0173 457.442 73.5613ZM461.315 69.3853C461.067 69.3853 460.859 69.3013 460.691 69.1333C460.523 68.9653 460.439 68.7573 460.439 68.5093C460.439 68.2613 460.523 68.0533 460.691 67.8853C460.859 67.7173 461.067 67.6333 461.315 67.6333C461.555 67.6333 461.759 67.7173 461.927 67.8853C462.095 68.0533 462.179 68.2613 462.179 68.5093C462.179 68.7573 462.095 68.9653 461.927 69.1333C461.759 69.3013 461.555 69.3853 461.315 69.3853ZM461.987 70.2613V76.8733H460.619V70.2613H461.987ZM466.447 70.1533C466.959 70.1533 467.411 70.2573 467.803 70.4653C468.203 70.6653 468.515 70.9173 468.739 71.2213V70.2613H470.119V76.9813C470.119 77.5893 469.991 78.1293 469.735 78.6013C469.479 79.0813 469.107 79.4573 468.619 79.7293C468.139 80.0013 467.563 80.1373 466.891 80.1373C465.995 80.1373 465.251 79.9253 464.659 79.5013C464.067 79.0853 463.731 78.5173 463.651 77.7973H465.007C465.111 78.1413 465.331 78.4173 465.667 78.6253C466.011 78.8413 466.419 78.9493 466.891 78.9493C467.443 78.9493 467.887 78.7813 468.223 78.4453C468.567 78.1093 468.739 77.6213 468.739 76.9813V75.8773C468.507 76.1893 468.191 76.4533 467.791 76.6693C467.399 76.8773 466.951 76.9813 466.447 76.9813C465.871 76.9813 465.343 76.8373 464.863 76.5493C464.391 76.2533 464.015 75.8453 463.735 75.3253C463.463 74.7973 463.327 74.2013 463.327 73.5373C463.327 72.8733 463.463 72.2853 463.735 71.7733C464.015 71.2613 464.391 70.8653 464.863 70.5853C465.343 70.2973 465.871 70.1533 466.447 70.1533ZM468.739 73.5613C468.739 73.1053 468.643 72.7093 468.451 72.3733C468.267 72.0373 468.023 71.7813 467.719 71.6053C467.415 71.4293 467.087 71.3413 466.735 71.3413C466.383 71.3413 466.055 71.4293 465.751 71.6053C465.447 71.7733 465.199 72.0253 465.007 72.3613C464.823 72.6893 464.731 73.0813 464.731 73.5373C464.731 73.9933 464.823 74.3933 465.007 74.7373C465.199 75.0813 465.447 75.3453 465.751 75.5293C466.063 75.7053 466.391 75.7933 466.735 75.7933C467.087 75.7933 467.415 75.7053 467.719 75.5293C468.023 75.3533 468.267 75.0973 468.451 74.7613C468.643 74.4173 468.739 74.0173 468.739 73.5613ZM475.252 70.1533C475.772 70.1533 476.236 70.2613 476.644 70.4773C477.06 70.6933 477.384 71.0133 477.616 71.4373C477.848 71.8613 477.964 72.3733 477.964 72.9733V76.8733H476.608V73.1773C476.608 72.5853 476.46 72.1333 476.164 71.8213C475.868 71.5013 475.464 71.3413 474.952 71.3413C474.44 71.3413 474.032 71.5013 473.728 71.8213C473.432 72.1333 473.284 72.5853 473.284 73.1773V76.8733H471.916V70.2613H473.284V71.0173C473.508 70.7453 473.792 70.5333 474.136 70.3813C474.488 70.2293 474.86 70.1533 475.252 70.1533ZM484.194 69.6373V72.0853H487.074V73.2013H484.194V75.7573H487.434V76.8733H482.826V68.5213H487.434V69.6373H484.194ZM491.675 75.6493L493.547 70.2613H494.999L492.479 76.8733H490.847L488.339 70.2613H489.803L491.675 75.6493ZM495.577 73.5373C495.577 72.8733 495.713 72.2853 495.985 71.7733C496.265 71.2613 496.641 70.8653 497.113 70.5853C497.593 70.2973 498.121 70.1533 498.697 70.1533C499.217 70.1533 499.669 70.2573 500.053 70.4653C500.445 70.6653 500.757 70.9173 500.989 71.2213V70.2613H502.369V76.8733H500.989V75.8893C500.757 76.2013 500.441 76.4613 500.041 76.6693C499.641 76.8773 499.185 76.9813 498.673 76.9813C498.105 76.9813 497.585 76.8373 497.113 76.5493C496.641 76.2533 496.265 75.8453 495.985 75.3253C495.713 74.7973 495.577 74.2013 495.577 73.5373ZM500.989 73.5613C500.989 73.1053 500.893 72.7093 500.701 72.3733C500.517 72.0373 500.273 71.7813 499.969 71.6053C499.665 71.4293 499.337 71.3413 498.985 71.3413C498.633 71.3413 498.305 71.4293 498.001 71.6053C497.697 71.7733 497.449 72.0253 497.257 72.3613C497.073 72.6893 496.981 73.0813 496.981 73.5373C496.981 73.9933 497.073 74.3933 497.257 74.7373C497.449 75.0813 497.697 75.3453 498.001 75.5293C498.313 75.7053 498.641 75.7933 498.985 75.7933C499.337 75.7933 499.665 75.7053 499.969 75.5293C500.273 75.3533 500.517 75.0973 500.701 74.7613C500.893 74.4173 500.989 74.0173 500.989 73.5613ZM505.534 67.9933V76.8733H504.166V67.9933H505.534ZM513.318 70.2613V76.8733H511.95V76.0933C511.734 76.3653 511.45 76.5813 511.098 76.7413C510.754 76.8933 510.386 76.9693 509.994 76.9693C509.474 76.9693 509.006 76.8613 508.59 76.6453C508.182 76.4293 507.858 76.1093 507.618 75.6853C507.386 75.2613 507.27 74.7493 507.27 74.1493V70.2613H508.626V73.9453C508.626 74.5373 508.774 74.9933 509.07 75.3133C509.366 75.6253 509.77 75.7813 510.282 75.7813C510.794 75.7813 511.198 75.6253 511.494 75.3133C511.798 74.9933 511.95 74.5373 511.95 73.9453V70.2613H513.318ZM514.667 73.5373C514.667 72.8733 514.803 72.2853 515.075 71.7733C515.355 71.2613 515.731 70.8653 516.203 70.5853C516.683 70.2973 517.211 70.1533 517.787 70.1533C518.307 70.1533 518.759 70.2573 519.143 70.4653C519.535 70.6653 519.847 70.9173 520.079 71.2213V70.2613H521.459V76.8733H520.079V75.8893C519.847 76.2013 519.531 76.4613 519.131 76.6693C518.731 76.8773 518.275 76.9813 517.763 76.9813C517.195 76.9813 516.675 76.8373 516.203 76.5493C515.731 76.2533 515.355 75.8453 515.075 75.3253C514.803 74.7973 514.667 74.2013 514.667 73.5373ZM520.079 73.5613C520.079 73.1053 519.983 72.7093 519.791 72.3733C519.607 72.0373 519.363 71.7813 519.059 71.6053C518.755 71.4293 518.427 71.3413 518.075 71.3413C517.723 71.3413 517.395 71.4293 517.091 71.6053C516.787 71.7733 516.539 72.0253 516.347 72.3613C516.163 72.6893 516.071 73.0813 516.071 73.5373C516.071 73.9933 516.163 74.3933 516.347 74.7373C516.539 75.0813 516.787 75.3453 517.091 75.5293C517.403 75.7053 517.731 75.7933 518.075 75.7933C518.427 75.7933 518.755 75.7053 519.059 75.5293C519.363 75.3533 519.607 75.0973 519.791 74.7613C519.983 74.4173 520.079 74.0173 520.079 73.5613ZM524.851 71.3773V75.0373C524.851 75.2853 524.907 75.4653 525.019 75.5773C525.139 75.6813 525.339 75.7333 525.619 75.7333H526.459V76.8733H525.379C524.763 76.8733 524.291 76.7293 523.963 76.4413C523.635 76.1533 523.471 75.6853 523.471 75.0373V71.3773H522.691V70.2613H523.471V68.6173H524.851V70.2613H526.459V71.3773H524.851ZM528.416 69.3853C528.168 69.3853 527.96 69.3013 527.792 69.1333C527.624 68.9653 527.54 68.7573 527.54 68.5093C527.54 68.2613 527.624 68.0533 527.792 67.8853C527.96 67.7173 528.168 67.6333 528.416 67.6333C528.656 67.6333 528.86 67.7173 529.028 67.8853C529.196 68.0533 529.28 68.2613 529.28 68.5093C529.28 68.7573 529.196 68.9653 529.028 69.1333C528.86 69.3013 528.656 69.3853 528.416 69.3853ZM529.088 70.2613V76.8733H527.72V70.2613H529.088ZM533.752 76.9813C533.128 76.9813 532.564 76.8413 532.06 76.5613C531.556 76.2733 531.16 75.8733 530.872 75.3613C530.584 74.8413 530.44 74.2413 530.44 73.5613C530.44 72.8893 530.588 72.2933 530.884 71.7733C531.18 71.2533 531.584 70.8533 532.096 70.5733C532.608 70.2933 533.18 70.1533 533.812 70.1533C534.444 70.1533 535.016 70.2933 535.528 70.5733C536.04 70.8533 536.444 71.2533 536.74 71.7733C537.036 72.2933 537.184 72.8893 537.184 73.5613C537.184 74.2333 537.032 74.8293 536.728 75.3493C536.424 75.8693 536.008 76.2733 535.48 76.5613C534.96 76.8413 534.384 76.9813 533.752 76.9813ZM533.752 75.7933C534.104 75.7933 534.432 75.7093 534.736 75.5413C535.048 75.3733 535.3 75.1213 535.492 74.7853C535.684 74.4493 535.78 74.0413 535.78 73.5613C535.78 73.0813 535.688 72.6773 535.504 72.3493C535.32 72.0133 535.076 71.7613 534.772 71.5933C534.468 71.4253 534.14 71.3413 533.788 71.3413C533.436 71.3413 533.108 71.4253 532.804 71.5933C532.508 71.7613 532.272 72.0133 532.096 72.3493C531.92 72.6773 531.832 73.0813 531.832 73.5613C531.832 74.2733 532.012 74.8253 532.372 75.2173C532.74 75.6013 533.2 75.7933 533.752 75.7933ZM541.873 70.1533C542.393 70.1533 542.857 70.2613 543.265 70.4773C543.681 70.6933 544.005 71.0133 544.237 71.4373C544.469 71.8613 544.585 72.3733 544.585 72.9733V76.8733H543.229V73.1773C543.229 72.5853 543.081 72.1333 542.785 71.8213C542.489 71.5013 542.085 71.3413 541.573 71.3413C541.061 71.3413 540.653 71.5013 540.349 71.8213C540.053 72.1333 539.905 72.5853 539.905 73.1773V76.8733H538.537V70.2613H539.905V71.0173C540.129 70.7453 540.413 70.5333 540.757 70.3813C541.109 70.2293 541.481 70.1533 541.873 70.1533Z" fill="white"/>
<circle cx="580.556" cy="19.7196" r="5.15639" fill="white"/>
<circle cx="821.756" cy="19.7196" r="5.15639" fill="white"/>
<line x1="575.4" y1="19.2898" x2="826.2" y2="19.2898" stroke="white" stroke-width="0.859399"/>
<rect x="646.149" y="0.812744" width="109.501" height="34.4692" rx="17.2346" fill="white"/>
<path d="M663.699 23.7483C662.977 23.0482 662.414 22.1544 662.012 21.067C661.617 19.9795 661.42 18.8139 661.42 17.5701C661.42 16.2964 661.628 15.101 662.046 13.9838C662.463 12.8591 663.07 11.9393 663.867 11.2243H665.442V11.3695C664.623 12.1516 663.997 13.09 663.565 14.1849C663.14 15.2798 662.928 16.4082 662.928 17.5701C662.928 18.7022 663.129 19.7971 663.531 20.8547C663.941 21.9049 664.522 22.8173 665.274 23.5919V23.7483H663.699ZM671.414 20.0615H668.308L667.795 21.5474H666.152L668.956 13.738H670.778L673.582 21.5474H671.928L671.414 20.0615ZM670.99 18.8102L669.861 15.5479L668.733 18.8102H670.99ZM674.465 17.6371C674.465 16.8699 674.636 16.1847 674.979 15.5814C675.329 14.9707 675.802 14.4977 676.398 14.1626C677.001 13.8199 677.675 13.6486 678.42 13.6486C679.291 13.6486 680.055 13.8721 680.71 14.319C681.366 14.7658 681.824 15.384 682.084 16.1735H680.286C680.107 15.8011 679.854 15.5218 679.526 15.3356C679.206 15.1494 678.833 15.0563 678.409 15.0563C677.954 15.0563 677.548 15.1643 677.191 15.3803C676.841 15.5889 676.565 15.8868 676.364 16.2741C676.171 16.6614 676.074 17.1157 676.074 17.6371C676.074 18.151 676.171 18.6054 676.364 19.0001C676.565 19.3874 676.841 19.6891 677.191 19.9051C677.548 20.1136 677.954 20.2179 678.409 20.2179C678.833 20.2179 679.206 20.1248 679.526 19.9386C679.854 19.7449 680.107 19.4619 680.286 19.0895H682.084C681.824 19.8864 681.366 20.5084 680.71 20.9552C680.062 21.3947 679.299 21.6144 678.42 21.6144C677.675 21.6144 677.001 21.4468 676.398 21.1116C675.802 20.769 675.329 20.2961 674.979 19.6928C674.636 19.0895 674.465 18.4043 674.465 17.6371ZM689.205 21.6256C688.661 21.6256 688.169 21.5325 687.73 21.3463C687.298 21.1601 686.955 20.8919 686.702 20.5419C686.449 20.1918 686.318 19.7784 686.311 19.3018H687.987C688.009 19.622 688.121 19.8753 688.322 20.0615C688.531 20.2477 688.814 20.3408 689.171 20.3408C689.536 20.3408 689.823 20.2551 690.031 20.0838C690.24 19.9051 690.344 19.6742 690.344 19.3911C690.344 19.1602 690.273 18.9703 690.132 18.8214C689.99 18.6724 689.812 18.5569 689.596 18.475C689.387 18.3856 689.097 18.2888 688.724 18.1845C688.218 18.0356 687.804 17.8903 687.484 17.7488C687.171 17.5999 686.899 17.3801 686.669 17.0897C686.445 16.7917 686.333 16.397 686.333 15.9054C686.333 15.4436 686.449 15.0414 686.68 14.6988C686.911 14.3562 687.235 14.0955 687.652 13.9168C688.069 13.7306 688.545 13.6375 689.082 13.6375C689.886 13.6375 690.538 13.8348 691.037 14.2296C691.543 14.6169 691.823 15.1606 691.875 15.8607H690.154C690.139 15.5926 690.024 15.3729 689.808 15.2016C689.599 15.0228 689.32 14.9334 688.97 14.9334C688.665 14.9334 688.419 15.0116 688.233 15.168C688.054 15.3245 687.965 15.5516 687.965 15.8495C687.965 16.0581 688.032 16.2331 688.166 16.3746C688.307 16.5087 688.478 16.6204 688.68 16.7098C688.888 16.7917 689.179 16.8886 689.551 17.0003C690.057 17.1492 690.471 17.2982 690.791 17.4472C691.111 17.5961 691.387 17.8196 691.618 18.1175C691.849 18.4154 691.964 18.8065 691.964 19.2906C691.964 19.7077 691.856 20.095 691.64 20.4525C691.424 20.81 691.108 21.0968 690.691 21.3127C690.273 21.5213 689.778 21.6256 689.205 21.6256ZM695.099 13.2799V21.5474H693.535V13.2799H695.099ZM699.608 21.6479C699.012 21.6479 698.476 21.5176 697.999 21.2569C697.522 20.9888 697.146 20.6126 696.87 20.1285C696.602 19.6444 696.468 19.0858 696.468 18.4527C696.468 17.8196 696.606 17.261 696.882 16.7768C697.165 16.2927 697.548 15.9203 698.032 15.6596C698.517 15.3915 699.057 15.2574 699.652 15.2574C700.248 15.2574 700.788 15.3915 701.272 15.6596C701.756 15.9203 702.136 16.2927 702.412 16.7768C702.695 17.261 702.836 17.8196 702.836 18.4527C702.836 19.0858 702.691 19.6444 702.401 20.1285C702.118 20.6126 701.73 20.9888 701.239 21.2569C700.755 21.5176 700.211 21.6479 699.608 21.6479ZM699.608 20.2849C699.891 20.2849 700.155 20.2179 700.401 20.0838C700.654 19.9423 700.855 19.7337 701.004 19.4582C701.153 19.1826 701.228 18.8474 701.228 18.4527C701.228 17.8643 701.071 17.4137 700.758 17.1008C700.453 16.7806 700.077 16.6204 699.63 16.6204C699.183 16.6204 698.807 16.7806 698.502 17.1008C698.204 17.4137 698.055 17.8643 698.055 18.4527C698.055 19.0411 698.2 19.4954 698.49 19.8157C698.788 20.1285 699.161 20.2849 699.608 20.2849ZM706.779 20.1062L708.344 15.358H710.008L707.718 21.5474H705.819L703.539 15.358H705.215L706.779 20.1062ZM716.855 18.3186C716.855 18.542 716.84 18.7431 716.81 18.9219H712.286C712.323 19.3688 712.479 19.7188 712.755 19.9721C713.031 20.2253 713.369 20.3519 713.772 20.3519C714.353 20.3519 714.766 20.1024 715.012 19.6034H716.699C716.52 20.1993 716.177 20.6908 715.671 21.0781C715.164 21.458 714.543 21.6479 713.805 21.6479C713.209 21.6479 712.673 21.5176 712.196 21.2569C711.727 20.9888 711.358 20.6126 711.09 20.1285C710.83 19.6444 710.699 19.0858 710.699 18.4527C710.699 17.8121 710.83 17.2498 711.09 16.7657C711.351 16.2815 711.716 15.9091 712.185 15.6485C712.654 15.3878 713.194 15.2574 713.805 15.2574C714.394 15.2574 714.919 15.384 715.38 15.6373C715.85 15.8905 716.211 16.2517 716.464 16.721C716.725 17.1828 716.855 17.7153 716.855 18.3186ZM715.235 17.8717C715.228 17.4695 715.083 17.1492 714.8 16.9109C714.516 16.6651 714.17 16.5422 713.76 16.5422C713.373 16.5422 713.045 16.6614 712.777 16.8997C712.517 17.1306 712.357 17.4546 712.297 17.8717H715.235ZM721.642 15.2686C722.379 15.2686 722.975 15.5032 723.429 15.9724C723.883 16.4342 724.111 17.0822 724.111 17.9164V21.5474H722.546V18.1287C722.546 17.6371 722.424 17.261 722.178 17.0003C721.932 16.7322 721.597 16.5981 721.172 16.5981C720.74 16.5981 720.398 16.7322 720.144 17.0003C719.899 17.261 719.776 17.6371 719.776 18.1287V21.5474H718.212V15.358H719.776V16.1289C719.984 15.8607 720.249 15.6522 720.569 15.5032C720.897 15.3468 721.254 15.2686 721.642 15.2686ZM726.606 14.6206C726.33 14.6206 726.1 14.535 725.913 14.3637C725.735 14.1849 725.645 13.9652 725.645 13.7045C725.645 13.4438 725.735 13.2278 725.913 13.0565C726.1 12.8777 726.33 12.7884 726.606 12.7884C726.882 12.7884 727.109 12.8777 727.288 13.0565C727.474 13.2278 727.567 13.4438 727.567 13.7045C727.567 13.9652 727.474 14.1849 727.288 14.3637C727.109 14.535 726.882 14.6206 726.606 14.6206ZM727.377 15.358V21.5474H725.813V15.358H727.377ZM728.735 18.4303C728.735 17.8047 728.858 17.2498 729.104 16.7657C729.357 16.2815 729.696 15.9091 730.12 15.6485C730.552 15.3878 731.033 15.2574 731.561 15.2574C732.023 15.2574 732.425 15.3505 732.768 15.5367C733.118 15.7229 733.397 15.9575 733.606 16.2406V15.358H735.181V21.5474H733.606V20.6424C733.405 20.9329 733.126 21.175 732.768 21.3686C732.418 21.5548 732.012 21.6479 731.55 21.6479C731.029 21.6479 730.552 21.5138 730.12 21.2457C729.696 20.9776 729.357 20.6015 729.104 20.1173C728.858 19.6257 728.735 19.0634 728.735 18.4303ZM733.606 18.4527C733.606 18.0728 733.532 17.7488 733.383 17.4807C733.234 17.2051 733.032 16.9966 732.779 16.855C732.526 16.7061 732.254 16.6316 731.964 16.6316C731.673 16.6316 731.405 16.7024 731.159 16.8439C730.913 16.9854 730.712 17.1939 730.556 17.4695C730.407 17.7376 730.333 18.0579 730.333 18.4303C730.333 18.8027 730.407 19.1304 730.556 19.4135C730.712 19.6891 730.913 19.9013 731.159 20.0503C731.413 20.1993 731.681 20.2737 731.964 20.2737C732.254 20.2737 732.526 20.203 732.779 20.0615C733.032 19.9125 733.234 19.704 733.383 19.4358C733.532 19.1602 733.606 18.8325 733.606 18.4527ZM736.522 23.7483V23.5919C737.274 22.8173 737.851 21.9049 738.253 20.8547C738.663 19.7971 738.868 18.7022 738.868 17.5701C738.868 16.4082 738.652 15.2798 738.22 14.1849C737.795 13.09 737.173 12.1516 736.354 11.3695V11.2243H737.929C738.726 11.9393 739.333 12.8591 739.75 13.9838C740.167 15.101 740.376 16.2964 740.376 17.5701C740.376 18.8139 740.175 19.9795 739.773 21.067C739.378 22.1544 738.819 23.0482 738.097 23.7483H736.522Z" fill="#393858"/>
<path d="M639.558 68.5333L637.086 76.8733H635.538L633.786 70.5613L631.926 76.8733L630.39 76.8853L628.026 68.5333H629.478L631.206 75.3253L633.078 68.5333H634.614L636.354 75.2893L638.094 68.5333H639.558ZM641.383 69.3853C641.135 69.3853 640.927 69.3013 640.759 69.1333C640.591 68.9653 640.507 68.7573 640.507 68.5093C640.507 68.2613 640.591 68.0533 640.759 67.8853C640.927 67.7173 641.135 67.6333 641.383 67.6333C641.623 67.6333 641.827 67.7173 641.995 67.8853C642.163 68.0533 642.247 68.2613 642.247 68.5093C642.247 68.7573 642.163 68.9653 641.995 69.1333C641.827 69.3013 641.623 69.3853 641.383 69.3853ZM642.055 70.2613V76.8733H640.687V70.2613H642.055ZM647.187 70.1533C647.707 70.1533 648.171 70.2613 648.579 70.4773C648.995 70.6933 649.319 71.0133 649.551 71.4373C649.783 71.8613 649.899 72.3733 649.899 72.9733V76.8733H648.543V73.1773C648.543 72.5853 648.395 72.1333 648.099 71.8213C647.803 71.5013 647.399 71.3413 646.887 71.3413C646.375 71.3413 645.967 71.5013 645.663 71.8213C645.367 72.1333 645.219 72.5853 645.219 73.1773V76.8733H643.851V70.2613H645.219V71.0173C645.443 70.7453 645.727 70.5333 646.071 70.3813C646.423 70.2293 646.795 70.1533 647.187 70.1533ZM654.98 70.1533C655.5 70.1533 655.964 70.2613 656.372 70.4773C656.788 70.6933 657.112 71.0133 657.344 71.4373C657.576 71.8613 657.692 72.3733 657.692 72.9733V76.8733H656.336V73.1773C656.336 72.5853 656.188 72.1333 655.892 71.8213C655.596 71.5013 655.192 71.3413 654.68 71.3413C654.168 71.3413 653.76 71.5013 653.456 71.8213C653.16 72.1333 653.012 72.5853 653.012 73.1773V76.8733H651.644V70.2613H653.012V71.0173C653.236 70.7453 653.52 70.5333 653.864 70.3813C654.216 70.2293 654.588 70.1533 654.98 70.1533ZM665.497 73.4053C665.497 73.6533 665.481 73.8773 665.449 74.0773H660.397C660.437 74.6053 660.633 75.0293 660.985 75.3493C661.337 75.6693 661.769 75.8293 662.281 75.8293C663.017 75.8293 663.537 75.5213 663.841 74.9053H665.317C665.117 75.5133 664.753 76.0133 664.225 76.4053C663.705 76.7893 663.057 76.9813 662.281 76.9813C661.649 76.9813 661.081 76.8413 660.577 76.5613C660.081 76.2733 659.689 75.8733 659.401 75.3613C659.121 74.8413 658.981 74.2413 658.981 73.5613C658.981 72.8813 659.117 72.2853 659.389 71.7733C659.669 71.2533 660.057 70.8533 660.553 70.5733C661.057 70.2933 661.633 70.1533 662.281 70.1533C662.905 70.1533 663.461 70.2893 663.949 70.5613C664.437 70.8333 664.817 71.2173 665.089 71.7133C665.361 72.2013 665.497 72.7653 665.497 73.4053ZM664.069 72.9733C664.061 72.4693 663.881 72.0653 663.529 71.7613C663.177 71.4573 662.741 71.3053 662.221 71.3053C661.749 71.3053 661.345 71.4573 661.009 71.7613C660.673 72.0573 660.473 72.4613 660.409 72.9733H664.069ZM668.211 71.2213C668.411 70.8853 668.675 70.6253 669.003 70.4413C669.339 70.2493 669.735 70.1533 670.191 70.1533V71.5693H669.843C669.307 71.5693 668.899 71.7053 668.619 71.9773C668.347 72.2493 668.211 72.7213 668.211 73.3933V76.8733H666.843V70.2613H668.211V71.2213ZM673.848 76.9813C673.328 76.9813 672.86 76.8893 672.444 76.7053C672.036 76.5133 671.712 76.2573 671.472 75.9373C671.232 75.6093 671.104 75.2453 671.088 74.8453H672.504C672.528 75.1253 672.66 75.3613 672.9 75.5533C673.148 75.7373 673.456 75.8293 673.824 75.8293C674.208 75.8293 674.504 75.7573 674.712 75.6133C674.928 75.4613 675.036 75.2693 675.036 75.0373C675.036 74.7893 674.916 74.6053 674.676 74.4853C674.444 74.3653 674.072 74.2333 673.56 74.0893C673.064 73.9533 672.66 73.8213 672.348 73.6933C672.036 73.5653 671.764 73.3693 671.532 73.1053C671.308 72.8413 671.196 72.4933 671.196 72.0613C671.196 71.7093 671.3 71.3893 671.508 71.1013C671.716 70.8053 672.012 70.5733 672.396 70.4053C672.788 70.2373 673.236 70.1533 673.74 70.1533C674.492 70.1533 675.096 70.3453 675.552 70.7293C676.016 71.1053 676.264 71.6213 676.296 72.2773H674.928C674.904 71.9813 674.784 71.7453 674.568 71.5693C674.352 71.3933 674.06 71.3053 673.692 71.3053C673.332 71.3053 673.056 71.3733 672.864 71.5093C672.672 71.6453 672.576 71.8253 672.576 72.0493C672.576 72.2253 672.64 72.3733 672.768 72.4933C672.896 72.6133 673.052 72.7093 673.236 72.7813C673.42 72.8453 673.692 72.9293 674.052 73.0333C674.532 73.1613 674.924 73.2933 675.228 73.4293C675.54 73.5573 675.808 73.7493 676.032 74.0053C676.256 74.2613 676.372 74.6013 676.38 75.0253C676.38 75.4013 676.276 75.7373 676.068 76.0333C675.86 76.3293 675.564 76.5613 675.18 76.7293C674.804 76.8973 674.36 76.9813 673.848 76.9813ZM686.004 75.1693H682.512L681.912 76.8733H680.484L683.472 68.5213H685.056L688.044 76.8733H686.604L686.004 75.1693ZM685.62 74.0533L684.264 70.1773L682.896 74.0533H685.62ZM692.679 70.1533C693.199 70.1533 693.663 70.2613 694.071 70.4773C694.487 70.6933 694.811 71.0133 695.043 71.4373C695.275 71.8613 695.391 72.3733 695.391 72.9733V76.8733H694.035V73.1773C694.035 72.5853 693.887 72.1333 693.591 71.8213C693.295 71.5013 692.891 71.3413 692.379 71.3413C691.867 71.3413 691.459 71.5013 691.155 71.8213C690.859 72.1333 690.711 72.5853 690.711 73.1773V76.8733H689.343V70.2613H690.711V71.0173C690.935 70.7453 691.219 70.5333 691.563 70.3813C691.915 70.2293 692.287 70.1533 692.679 70.1533ZM700.472 70.1533C700.992 70.1533 701.456 70.2613 701.864 70.4773C702.28 70.6933 702.604 71.0133 702.836 71.4373C703.068 71.8613 703.184 72.3733 703.184 72.9733V76.8733H701.828V73.1773C701.828 72.5853 701.68 72.1333 701.384 71.8213C701.088 71.5013 700.684 71.3413 700.172 71.3413C699.66 71.3413 699.252 71.5013 698.948 71.8213C698.652 72.1333 698.504 72.5853 698.504 73.1773V76.8733H697.136V70.2613H698.504V71.0173C698.728 70.7453 699.012 70.5333 699.356 70.3813C699.708 70.2293 700.08 70.1533 700.472 70.1533ZM707.797 76.9813C707.173 76.9813 706.609 76.8413 706.105 76.5613C705.601 76.2733 705.205 75.8733 704.917 75.3613C704.629 74.8413 704.485 74.2413 704.485 73.5613C704.485 72.8893 704.633 72.2933 704.929 71.7733C705.225 71.2533 705.629 70.8533 706.141 70.5733C706.653 70.2933 707.225 70.1533 707.857 70.1533C708.489 70.1533 709.061 70.2933 709.573 70.5733C710.085 70.8533 710.489 71.2533 710.785 71.7733C711.081 72.2933 711.229 72.8893 711.229 73.5613C711.229 74.2333 711.077 74.8293 710.773 75.3493C710.469 75.8693 710.053 76.2733 709.525 76.5613C709.005 76.8413 708.429 76.9813 707.797 76.9813ZM707.797 75.7933C708.149 75.7933 708.477 75.7093 708.781 75.5413C709.093 75.3733 709.345 75.1213 709.537 74.7853C709.729 74.4493 709.825 74.0413 709.825 73.5613C709.825 73.0813 709.733 72.6773 709.549 72.3493C709.365 72.0133 709.121 71.7613 708.817 71.5933C708.513 71.4253 708.185 71.3413 707.833 71.3413C707.481 71.3413 707.153 71.4253 706.849 71.5933C706.553 71.7613 706.317 72.0133 706.141 72.3493C705.965 72.6773 705.877 73.0813 705.877 73.5613C705.877 74.2733 706.057 74.8253 706.417 75.2173C706.785 75.6013 707.245 75.7933 707.797 75.7933ZM718.569 70.2613V76.8733H717.201V76.0933C716.985 76.3653 716.701 76.5813 716.349 76.7413C716.005 76.8933 715.637 76.9693 715.245 76.9693C714.725 76.9693 714.257 76.8613 713.841 76.6453C713.433 76.4293 713.109 76.1093 712.869 75.6853C712.637 75.2613 712.521 74.7493 712.521 74.1493V70.2613H713.877V73.9453C713.877 74.5373 714.025 74.9933 714.321 75.3133C714.617 75.6253 715.021 75.7813 715.533 75.7813C716.045 75.7813 716.449 75.6253 716.745 75.3133C717.049 74.9933 717.201 74.5373 717.201 73.9453V70.2613H718.569ZM723.71 70.1533C724.23 70.1533 724.694 70.2613 725.102 70.4773C725.518 70.6933 725.842 71.0133 726.074 71.4373C726.306 71.8613 726.422 72.3733 726.422 72.9733V76.8733H725.066V73.1773C725.066 72.5853 724.918 72.1333 724.622 71.8213C724.326 71.5013 723.922 71.3413 723.41 71.3413C722.898 71.3413 722.49 71.5013 722.186 71.8213C721.89 72.1333 721.742 72.5853 721.742 73.1773V76.8733H720.374V70.2613H721.742V71.0173C721.966 70.7453 722.25 70.5333 722.594 70.3813C722.946 70.2293 723.318 70.1533 723.71 70.1533ZM727.711 73.5613C727.711 72.8813 727.847 72.2853 728.119 71.7733C728.399 71.2533 728.783 70.8533 729.271 70.5733C729.759 70.2933 730.319 70.1533 730.951 70.1533C731.751 70.1533 732.411 70.3453 732.931 70.7293C733.459 71.1053 733.815 71.6453 733.999 72.3493H732.523C732.403 72.0213 732.211 71.7653 731.947 71.5813C731.683 71.3973 731.351 71.3053 730.951 71.3053C730.391 71.3053 729.943 71.5053 729.607 71.9053C729.279 72.2973 729.115 72.8493 729.115 73.5613C729.115 74.2733 729.279 74.8293 729.607 75.2293C729.943 75.6293 730.391 75.8293 730.951 75.8293C731.743 75.8293 732.267 75.4813 732.523 74.7853H733.999C733.807 75.4573 733.447 75.9933 732.919 76.3933C732.391 76.7853 731.735 76.9813 730.951 76.9813C730.319 76.9813 729.759 76.8413 729.271 76.5613C728.783 76.2733 728.399 75.8733 728.119 75.3613C727.847 74.8413 727.711 74.2413 727.711 73.5613ZM741.422 73.4053C741.422 73.6533 741.406 73.8773 741.374 74.0773H736.322C736.362 74.6053 736.558 75.0293 736.91 75.3493C737.262 75.6693 737.694 75.8293 738.206 75.8293C738.942 75.8293 739.462 75.5213 739.766 74.9053H741.242C741.042 75.5133 740.678 76.0133 740.15 76.4053C739.63 76.7893 738.982 76.9813 738.206 76.9813C737.574 76.9813 737.006 76.8413 736.502 76.5613C736.006 76.2733 735.614 75.8733 735.326 75.3613C735.046 74.8413 734.906 74.2413 734.906 73.5613C734.906 72.8813 735.042 72.2853 735.314 71.7733C735.594 71.2533 735.982 70.8533 736.478 70.5733C736.982 70.2933 737.558 70.1533 738.206 70.1533C738.83 70.1533 739.386 70.2893 739.874 70.5613C740.362 70.8333 740.742 71.2173 741.014 71.7133C741.286 72.2013 741.422 72.7653 741.422 73.4053ZM739.994 72.9733C739.986 72.4693 739.806 72.0653 739.454 71.7613C739.102 71.4573 738.666 71.3053 738.146 71.3053C737.674 71.3053 737.27 71.4573 736.934 71.7613C736.598 72.0573 736.398 72.4613 736.334 72.9733H739.994ZM750.773 70.1533C751.293 70.1533 751.757 70.2613 752.165 70.4773C752.581 70.6933 752.905 71.0133 753.137 71.4373C753.377 71.8613 753.497 72.3733 753.497 72.9733V76.8733H752.141V73.1773C752.141 72.5853 751.993 72.1333 751.697 71.8213C751.401 71.5013 750.997 71.3413 750.485 71.3413C749.973 71.3413 749.565 71.5013 749.261 71.8213C748.965 72.1333 748.817 72.5853 748.817 73.1773V76.8733H747.461V73.1773C747.461 72.5853 747.313 72.1333 747.017 71.8213C746.721 71.5013 746.317 71.3413 745.805 71.3413C745.293 71.3413 744.885 71.5013 744.581 71.8213C744.285 72.1333 744.137 72.5853 744.137 73.1773V76.8733H742.769V70.2613H744.137V71.0173C744.361 70.7453 744.645 70.5333 744.989 70.3813C745.333 70.2293 745.701 70.1533 746.093 70.1533C746.621 70.1533 747.093 70.2653 747.509 70.4893C747.925 70.7133 748.245 71.0373 748.469 71.4613C748.669 71.0613 748.981 70.7453 749.405 70.5133C749.829 70.2733 750.285 70.1533 750.773 70.1533ZM761.297 73.4053C761.297 73.6533 761.281 73.8773 761.249 74.0773H756.197C756.237 74.6053 756.433 75.0293 756.785 75.3493C757.137 75.6693 757.569 75.8293 758.081 75.8293C758.817 75.8293 759.337 75.5213 759.641 74.9053H761.117C760.917 75.5133 760.553 76.0133 760.025 76.4053C759.505 76.7893 758.857 76.9813 758.081 76.9813C757.449 76.9813 756.881 76.8413 756.377 76.5613C755.881 76.2733 755.489 75.8733 755.201 75.3613C754.921 74.8413 754.781 74.2413 754.781 73.5613C754.781 72.8813 754.917 72.2853 755.189 71.7733C755.469 71.2533 755.857 70.8533 756.353 70.5733C756.857 70.2933 757.433 70.1533 758.081 70.1533C758.705 70.1533 759.261 70.2893 759.749 70.5613C760.237 70.8333 760.617 71.2173 760.889 71.7133C761.161 72.2013 761.297 72.7653 761.297 73.4053ZM759.869 72.9733C759.861 72.4693 759.681 72.0653 759.329 71.7613C758.977 71.4573 758.541 71.3053 758.021 71.3053C757.549 71.3053 757.145 71.4573 756.809 71.7613C756.473 72.0573 756.273 72.4613 756.209 72.9733H759.869ZM765.98 70.1533C766.5 70.1533 766.964 70.2613 767.372 70.4773C767.788 70.6933 768.112 71.0133 768.344 71.4373C768.576 71.8613 768.692 72.3733 768.692 72.9733V76.8733H767.336V73.1773C767.336 72.5853 767.188 72.1333 766.892 71.8213C766.596 71.5013 766.192 71.3413 765.68 71.3413C765.168 71.3413 764.76 71.5013 764.456 71.8213C764.16 72.1333 764.012 72.5853 764.012 73.1773V76.8733H762.644V70.2613H764.012V71.0173C764.236 70.7453 764.52 70.5333 764.864 70.3813C765.216 70.2293 765.588 70.1533 765.98 70.1533ZM772.033 71.3773V75.0373C772.033 75.2853 772.089 75.4653 772.201 75.5773C772.321 75.6813 772.521 75.7333 772.801 75.7333H773.641V76.8733H772.561C771.945 76.8733 771.473 76.7293 771.145 76.4413C770.817 76.1533 770.653 75.6853 770.653 75.0373V71.3773H769.873V70.2613H770.653V68.6173H772.033V70.2613H773.641V71.3773H772.033Z" fill="white"/>
</svg>
