<svg width="375" height="62" viewBox="0 0 375 62" fill="none" xmlns="http://www.w3.org/2000/svg">
<line x1="-1.22666e-08" y1="35.5" x2="375" y2="35.5" stroke="#92A985"/>
<rect y="62" width="62" height="62" rx="31" transform="rotate(-90 0 62)" fill="#92A985"/>
<path d="M22.6208 39.068C23.4368 38.42 23.8088 38.12 23.7368 38.168C26.0888 36.224 27.9368 34.628 29.2808 33.38C30.6488 32.132 31.8008 30.824 32.7368 29.456C33.6728 28.088 34.1408 26.756 34.1408 25.46C34.1408 24.476 33.9128 23.708 33.4568 23.156C33.0008 22.604 32.3168 22.328 31.4048 22.328C30.4928 22.328 29.7728 22.676 29.2448 23.372C28.7408 24.044 28.4888 25.004 28.4888 26.252H22.5488C22.5968 24.212 23.0288 22.508 23.8448 21.14C24.6848 19.772 25.7768 18.764 27.1208 18.116C28.4888 17.468 30.0008 17.144 31.6568 17.144C34.5128 17.144 36.6608 17.876 38.1008 19.34C39.5648 20.804 40.2968 22.712 40.2968 25.064C40.2968 27.632 39.4208 30.02 37.6688 32.228C35.9168 34.412 33.6848 36.548 30.9728 38.636H40.6928V43.64H22.6208V39.068Z" fill="white"/>
</svg>
