<svg width="228" height="62" viewBox="0 0 228 62" fill="none" xmlns="http://www.w3.org/2000/svg">
<line x1="-1.22666e-08" y1="35.5" x2="228" y2="35.5" stroke="#C19A36"/>
<rect y="62" width="62" height="62" rx="31" transform="rotate(-90 0 62)" fill="#C19A36"/>
<path d="M21.9376 25.136C22.0336 22.568 22.8736 20.588 24.4576 19.196C26.0416 17.804 28.1896 17.108 30.9016 17.108C32.7016 17.108 34.2376 17.42 35.5096 18.044C36.8056 18.668 37.7776 19.52 38.4256 20.6C39.0976 21.68 39.4336 22.892 39.4336 24.236C39.4336 25.82 39.0376 27.116 38.2456 28.124C37.4536 29.108 36.5296 29.78 35.4736 30.14V30.284C36.8416 30.74 37.9216 31.496 38.7136 32.552C39.5056 33.608 39.9016 34.964 39.9016 36.62C39.9016 38.108 39.5536 39.428 38.8576 40.58C38.1856 41.708 37.1896 42.596 35.8696 43.244C34.5736 43.892 33.0256 44.216 31.2256 44.216C28.3456 44.216 26.0416 43.508 24.3136 42.092C22.6096 40.676 21.7096 38.54 21.6136 35.684H27.5896C27.6136 36.74 27.9136 37.58 28.4896 38.204C29.0656 38.804 29.9056 39.104 31.0096 39.104C31.9456 39.104 32.6656 38.84 33.1696 38.312C33.6976 37.76 33.9616 37.04 33.9616 36.152C33.9616 35 33.5896 34.172 32.8456 33.668C32.1256 33.14 30.9616 32.876 29.3536 32.876H28.2016V27.872H29.3536C30.5776 27.872 31.5616 27.668 32.3056 27.26C33.0736 26.828 33.4576 26.072 33.4576 24.992C33.4576 24.128 33.2176 23.456 32.7376 22.976C32.2576 22.496 31.5976 22.256 30.7576 22.256C29.8456 22.256 29.1616 22.532 28.7056 23.084C28.2736 23.636 28.0216 24.32 27.9496 25.136H21.9376Z" fill="white"/>
</svg>
