<svg width="228" height="62" viewBox="0 0 228 62" fill="none" xmlns="http://www.w3.org/2000/svg">
<line x1="-1.22666e-08" y1="35.5" x2="228" y2="35.5" stroke="#C19A36"/>
<rect y="62" width="62" height="62" rx="31" transform="rotate(-90 0 62)" fill="#C19A36"/>
<path d="M39.417 23.084H28.185V28.052C28.665 27.524 29.337 27.092 30.201 26.756C31.065 26.42 32.001 26.252 33.009 26.252C34.809 26.252 36.297 26.66 37.473 27.476C38.673 28.292 39.549 29.348 40.101 30.644C40.653 31.94 40.929 33.344 40.929 34.856C40.929 37.664 40.137 39.896 38.553 41.552C36.969 43.184 34.737 44 31.857 44C29.937 44 28.269 43.676 26.853 43.028C25.437 42.356 24.345 41.432 23.577 40.256C22.809 39.08 22.389 37.724 22.317 36.188H28.329C28.473 36.932 28.821 37.556 29.373 38.06C29.925 38.54 30.681 38.78 31.641 38.78C32.769 38.78 33.609 38.42 34.161 37.7C34.713 36.98 34.989 36.02 34.989 34.82C34.989 33.644 34.701 32.744 34.125 32.12C33.549 31.496 32.709 31.184 31.605 31.184C30.789 31.184 30.117 31.388 29.589 31.796C29.061 32.18 28.713 32.696 28.545 33.344H22.605V17.684H39.417V23.084Z" fill="white"/>
</svg>
