<svg width="228" height="62" viewBox="0 0 228 62" fill="none" xmlns="http://www.w3.org/2000/svg">
<line x1="-1.22666e-08" y1="35.5" x2="228" y2="35.5" stroke="#C19A36"/>
<rect y="62" width="62" height="62" rx="31" transform="rotate(-90 0 62)" fill="#C19A36"/>
<path d="M34.6551 24.812C34.4631 23.924 34.1271 23.264 33.6471 22.832C33.1671 22.376 32.4831 22.148 31.5951 22.148C30.2271 22.148 29.2431 22.748 28.6431 23.948C28.0431 25.124 27.7311 26.996 27.7071 29.564C28.2351 28.724 28.9911 28.064 29.9751 27.584C30.9831 27.104 32.0871 26.864 33.2871 26.864C35.6391 26.864 37.5231 27.608 38.9391 29.096C40.3791 30.584 41.0991 32.66 41.0991 35.324C41.0991 37.076 40.7391 38.612 40.0191 39.932C39.3231 41.252 38.2911 42.284 36.9231 43.028C35.5791 43.772 33.9831 44.144 32.1351 44.144C28.4391 44.144 25.8711 42.992 24.4311 40.688C22.9911 38.36 22.2711 35.024 22.2711 30.68C22.2711 26.12 23.0271 22.736 24.5391 20.528C26.0751 18.296 28.5231 17.18 31.8831 17.18C33.6831 17.18 35.1951 17.54 36.4191 18.26C37.6671 18.956 38.6031 19.88 39.2271 21.032C39.8751 22.184 40.2591 23.444 40.3791 24.812H34.6551ZM31.8111 31.724C30.7791 31.724 29.9151 32.036 29.2191 32.66C28.5471 33.26 28.2111 34.124 28.2111 35.252C28.2111 36.404 28.5231 37.304 29.1471 37.952C29.7951 38.6 30.7071 38.924 31.8831 38.924C32.9391 38.924 33.7671 38.612 34.3671 37.988C34.9911 37.34 35.3031 36.464 35.3031 35.36C35.3031 34.232 35.0031 33.344 34.4031 32.696C33.8031 32.048 32.9391 31.724 31.8111 31.724Z" fill="white"/>
</svg>
