<svg width="228" height="62" viewBox="0 0 228 62" fill="none" xmlns="http://www.w3.org/2000/svg">
<line x1="-1.22666e-08" y1="35.5" x2="228" y2="35.5" stroke="#C19A36"/>
<rect y="62" width="62" height="62" rx="31" transform="rotate(-90 0 62)" fill="#C19A36"/>
<path d="M25.2681 29.888C23.0121 28.688 21.8841 26.804 21.8841 24.236C21.8841 22.94 22.2201 21.764 22.8921 20.708C23.5641 19.628 24.5841 18.776 25.9521 18.152C27.3201 17.504 29.0001 17.18 30.9921 17.18C32.9841 17.18 34.6521 17.504 35.9961 18.152C37.3641 18.776 38.3841 19.628 39.0561 20.708C39.7281 21.764 40.0641 22.94 40.0641 24.236C40.0641 25.532 39.7521 26.66 39.1281 27.62C38.5281 28.58 37.7121 29.336 36.6801 29.888C37.9761 30.512 38.9721 31.376 39.6681 32.48C40.3641 33.56 40.7121 34.832 40.7121 36.296C40.7121 38 40.2801 39.476 39.4161 40.724C38.5521 41.948 37.3761 42.884 35.8881 43.532C34.4241 44.18 32.7921 44.504 30.9921 44.504C29.1921 44.504 27.5481 44.18 26.0601 43.532C24.5961 42.884 23.4321 41.948 22.5681 40.724C21.7041 39.476 21.2721 38 21.2721 36.296C21.2721 34.808 21.6201 33.524 22.3161 32.444C23.0121 31.34 23.9961 30.488 25.2681 29.888ZM34.0881 25.172C34.0881 24.188 33.8001 23.432 33.2241 22.904C32.6721 22.352 31.9281 22.076 30.9921 22.076C30.0561 22.076 29.3001 22.352 28.7241 22.904C28.1721 23.456 27.8961 24.224 27.8961 25.208C27.8961 26.144 28.1841 26.888 28.7601 27.44C29.3361 27.968 30.0801 28.232 30.9921 28.232C31.9041 28.232 32.6481 27.956 33.2241 27.404C33.8001 26.852 34.0881 26.108 34.0881 25.172ZM30.9921 32.552C29.8641 32.552 28.9521 32.864 28.2561 33.488C27.5601 34.088 27.2121 34.928 27.2121 36.008C27.2121 37.016 27.5481 37.844 28.2201 38.492C28.9161 39.14 29.8401 39.464 30.9921 39.464C32.1441 39.464 33.0441 39.14 33.6921 38.492C34.3641 37.844 34.7001 37.016 34.7001 36.008C34.7001 34.952 34.3521 34.112 33.6561 33.488C32.9841 32.864 32.0961 32.552 30.9921 32.552Z" fill="white"/>
</svg>
