<svg width="150" height="145" viewBox="0 0 150 145" fill="none" xmlns="http://www.w3.org/2000/svg">
<path d="M33.5018 0V3.17647C33.5018 30.3615 33.5018 57.5552 33.5018 84.7575V87.1593H150V0H33.5018ZM59.422 4.59684C59.422 3.91248 59.5645 3.58967 60.3033 3.60258C61.9362 3.60258 63.5692 3.60258 65.1892 3.60258C65.591 3.60258 66.0446 3.60258 66.0057 4.15782C65.9668 4.71306 65.5651 4.63558 65.2151 4.63558C63.9191 4.63558 62.6231 4.63558 61.3271 4.63558C60.7309 4.63558 60.4847 4.84218 60.4977 5.43615C60.4977 6.32712 60.4977 7.20517 60.4977 8.28981H64.3857C64.8263 8.28981 65.3318 8.28981 65.3188 8.85796C65.3059 9.42611 64.7875 9.4132 64.3598 9.40029H60.705V13.0287H65.3059C65.7465 13.0287 66.2779 12.9641 66.239 13.5839C66.2001 14.2037 65.7206 14.0359 65.3188 14.0359C63.6988 14.0359 62.0658 14.0359 60.4329 14.0359C59.7589 14.0359 59.4609 13.8551 59.4738 13.1062C59.5257 10.2396 59.5257 7.42468 59.4868 4.59684H59.422ZM49.7797 4.45481C49.7797 4.06743 49.7797 3.62841 50.2981 3.61549C50.8165 3.60258 50.9461 4.04161 50.9331 4.50646C50.9331 5.51363 50.9331 6.5208 50.9331 7.52798C50.9331 8.00574 51.0886 8.25108 51.5941 8.25108H56.506V4.55811C56.506 4.14491 56.3893 3.62841 57.0503 3.62841C57.7113 3.62841 57.6464 4.08034 57.6464 4.53228V13.0158C57.6464 13.4419 57.7242 13.9455 57.1021 13.9713C56.48 13.9971 56.5189 13.4161 56.5189 12.977C56.5189 11.8278 56.5189 10.6657 56.5189 9.34864H51.6718C51.1016 9.34864 50.959 9.64562 50.972 10.1492C50.972 11.1564 50.972 12.1636 50.972 13.1707C50.972 13.6098 50.9072 13.9584 50.3758 13.9713C49.8445 13.9842 49.8056 13.571 49.8056 13.1707C49.8402 10.2697 49.8531 7.36442 49.8445 4.45481H49.7797ZM40.5651 4.05452C40.5651 3.64132 40.902 3.60258 41.239 3.60258H47.5376C47.8875 3.60258 48.1726 3.69297 48.1467 4.10617C48.1208 4.51937 47.8875 4.64849 47.5246 4.64849C46.9025 4.64849 46.2286 4.64849 45.6584 4.64849C45.0881 4.64849 44.8419 4.88092 44.8678 5.4878C44.8678 6.77905 44.8678 8.0703 44.8678 9.43902C44.8678 10.6399 44.8678 11.8407 44.8678 13.0416C44.8678 13.429 45.0233 13.9971 44.3624 14.01C43.7014 14.023 43.7921 13.429 43.7921 12.977C43.7921 10.5366 43.7921 8.09613 43.7921 5.66858C43.7921 4.89383 43.5977 4.59684 42.8201 4.64849C42.2887 4.64849 41.7444 4.64849 41.2001 4.64849C40.6558 4.64849 40.6169 4.49354 40.6299 4.05452H40.5651ZM60.0052 78.8694C59.6439 79.7942 59.088 80.631 58.3749 81.3237C57.6617 82.0164 56.8079 82.5489 55.8709 82.8852C53.0631 83.9976 49.9456 84.0572 47.0969 83.0531C45.6686 82.6211 44.4113 81.7556 43.5006 80.5773C42.5898 79.399 42.071 77.9668 42.0166 76.4806C41.8611 74.7116 42.0166 72.9168 42.0166 71.1349C42.0166 69.5983 41.9518 68.0359 42.0166 66.4993C41.9851 64.8348 42.522 63.209 43.5391 61.8883C44.5563 60.5675 45.9935 59.6301 47.6153 59.2296C50.227 58.4407 53.0228 58.4995 55.5988 59.3974C56.6797 59.7818 57.6571 60.4093 58.455 61.2312C59.2529 62.0531 59.8499 63.0472 60.1996 64.1363C60.5365 65.0273 60.0959 65.3113 59.409 65.5954C58.7221 65.8795 58.2037 65.9311 57.8149 65.1047C57.3454 64.148 56.6785 63.3009 55.8578 62.6186C55.0371 61.9364 54.0811 61.4344 53.0523 61.1455C52.0235 60.8567 50.9451 60.7874 49.8876 60.9423C48.8301 61.0973 47.8173 61.4728 46.9155 62.0445C46.2149 62.4718 45.6301 63.0636 45.2121 63.7682C44.7942 64.4727 44.5558 65.2685 44.5179 66.0861C44.3364 69.4495 44.3364 72.8202 44.5179 76.1836C44.5566 77.3191 44.9699 78.4101 45.6938 79.2878C46.4178 80.1655 47.412 80.7809 48.5225 81.0387C50.3551 81.6004 52.3147 81.6004 54.1472 81.0387C55.3229 80.7316 56.3587 80.035 57.0841 79.0634C57.8096 78.0918 58.1816 76.9032 58.1389 75.693C58.1389 73.1105 58.1389 73.1105 55.6247 73.1105C54.3287 73.1105 53.1363 73.1105 51.8922 73.1105C51.0886 73.1105 50.9072 72.6973 50.9202 72.0129C50.9331 71.3286 50.9202 70.7217 51.8533 70.7217C54.4453 70.7217 57.0373 70.7217 59.6293 70.7217C60.0829 70.7217 60.6013 70.825 60.5754 71.3673C60.4847 73.8981 61.0031 76.4419 60.0181 78.8694H60.0052ZM61.0031 43.1535C61.0031 48.3185 58.5537 51.198 53.3955 51.7532C50.3331 51.9706 47.2601 52.0007 44.1939 51.8436C42.8979 51.8436 42.211 50.9656 42.198 49.4935V23.5911C42.198 21.6413 42.8849 20.944 44.8678 21.0086C47.8192 20.8966 50.7746 20.9526 53.7195 21.1765C55.1439 21.2562 56.5188 21.7249 57.6938 22.5311C58.8687 23.3373 59.7984 24.4501 60.381 25.7475C60.8277 26.8634 61.0395 28.0589 61.0031 29.2597V43.1535ZM73.393 39.0473C72.8367 39.0126 72.3003 38.8283 71.8408 38.5141C71.3812 38.1999 71.0157 37.7675 70.7831 37.2629C70.5504 36.7583 70.4594 36.2003 70.5196 35.6483C70.5798 35.0962 70.789 34.5708 71.1249 34.1277C71.3529 33.8372 71.6502 33.6082 71.9898 33.4616C72.3293 33.315 72.7003 33.2554 73.0689 33.2884C74.7538 33.2238 75.1685 32.7719 75.1685 31.0803C75.1685 30.1506 75.1685 29.2209 75.1685 28.2912C75.1718 28.0372 75.121 27.7854 75.0194 27.5525C74.9177 27.3195 74.7676 27.1106 74.579 26.9398C74.3903 26.7689 74.1674 26.6399 73.925 26.5612C73.6825 26.4826 73.4261 26.4561 73.1726 26.4835C72.9206 26.453 72.6649 26.4748 72.4217 26.5475C72.1786 26.6202 71.9531 26.7422 71.7596 26.906C71.566 27.0697 71.4086 27.2716 71.2971 27.4988C71.1857 27.7261 71.1226 27.9739 71.112 28.2267C70.9305 30.099 70.4251 30.5768 68.52 30.5897H67.2239C65.0467 30.5897 64.1783 29.6083 64.4375 27.4778C64.9171 23.604 66.7963 21.5251 70.6195 20.802C72.9928 20.2829 75.4692 20.5084 77.7087 21.4476C78.6108 21.8214 79.4139 22.3983 80.0547 23.1331C80.6955 23.8679 81.1568 24.7407 81.4023 25.6829C81.8743 27.8022 81.9664 29.9879 81.6744 32.1392C81.6168 32.965 81.3454 33.7619 80.8866 34.4522C80.4277 35.1424 79.7972 35.7024 79.0565 36.0775C79.9873 36.4554 80.7653 37.1315 81.2675 37.999C81.7698 38.8665 81.9677 39.876 81.83 40.868C81.9021 42.7422 81.8414 44.6192 81.6485 46.4849C81.4618 47.7823 80.8831 48.9922 79.9896 49.954C79.096 50.9158 77.9298 51.5839 76.6459 51.8694C74.1305 52.6205 71.4385 52.5389 68.9736 51.637C65.5521 50.3458 64.3598 47.3242 64.5023 44.2382C64.5801 42.5854 65.6558 42.1205 68.7532 42.2109C70.2825 42.2109 71.0342 42.934 71.112 44.3415C71.1897 45.7489 71.747 46.4075 73.2893 46.3687C74.8315 46.33 75.1685 45.7102 75.1685 44.2382C75.1685 43.1535 75.1685 42.0689 75.1685 40.9842C75.1685 39.6542 74.7149 39.1636 73.4059 39.0473H73.393ZM79.873 82.2267C78.8362 80.1994 77.8123 78.1722 76.8274 76.1191C76.4464 75.1776 75.7759 74.3806 74.9121 73.8424C74.0483 73.3042 73.0355 73.0525 72.0192 73.1234C70.8139 73.1234 69.6086 73.1234 68.4033 73.1234C67.4961 73.1234 67.3147 73.4204 67.3276 74.2597C67.3276 76.8422 67.3276 79.4247 67.3276 82.0072C67.3276 82.9756 67.0036 83.2984 66.0316 83.2984C65.0596 83.2984 64.7356 82.924 64.7356 82.0072C64.7356 74.8924 64.7356 67.8034 64.7356 60.637C64.7356 59.5524 65.0855 59.2037 66.1353 59.2425C69.6216 59.3716 73.1338 58.9842 76.6071 59.4362C78.0984 59.5409 79.4977 60.193 80.5343 61.2664C81.5709 62.3397 82.1711 63.758 82.2188 65.2468C82.5298 69.198 81.0524 71.5739 77.592 72.6844L77.0218 72.891C78.7973 74.1822 79.4194 76.0545 80.3136 77.7331C81.2079 79.4118 82.0632 81.1679 82.9057 82.8981C82.6713 83.0763 82.4007 83.2012 82.1128 83.2642C81.8249 83.3271 81.5266 83.3266 81.239 83.2626C80.9513 83.1987 80.6811 83.0728 80.4474 82.8938C80.2137 82.7149 80.022 82.4872 79.8859 82.2267H79.873ZM104.406 77.7719C104.115 79.1033 103.45 80.3247 102.488 81.294C101.527 82.2633 100.309 82.9405 98.9762 83.2468C96.263 84.0566 93.3553 83.9338 90.7206 82.8981C89.2741 82.3395 88.0405 81.342 87.1939 80.0468C86.3474 78.7516 85.9308 77.224 86.0031 75.6801C85.9124 72.6973 85.9254 69.7145 86.0031 66.7446C86.1198 61.9799 89.295 58.9971 94.479 58.7389C96.6603 58.5333 98.855 58.9545 100.804 59.9527C101.978 60.5771 102.96 61.5076 103.644 62.6447C104.329 63.7818 104.691 65.0828 104.692 66.4089C104.769 68.023 104.692 69.6628 104.692 71.8063C104.562 73.4462 104.977 75.6155 104.419 77.7719H104.406ZM127.398 75.2798C127.398 79.2439 125.57 82.0072 122.123 83.1822C119.342 84.1803 116.282 84.0693 113.582 82.8723C112.271 82.3121 111.156 81.3782 110.377 80.188C109.597 78.9979 109.188 77.6047 109.202 76.1836C109.059 73.6012 109.202 70.9154 109.202 68.2812C109.202 65.6987 109.202 63.1162 109.202 60.6241C109.202 59.6298 109.474 59.2166 110.498 59.2425C111.522 59.2683 111.794 59.6944 111.716 60.6112C111.716 65.5696 111.716 70.528 111.716 75.4864C111.624 76.7225 111.959 77.9529 112.667 78.9725C113.374 79.9922 114.411 80.7396 115.604 81.0904C118.675 82.1105 122.162 81.3874 123.782 79.3472C124.689 78.1204 125.146 76.621 125.078 75.099C125.078 70.2956 125.078 65.4921 125.078 60.6887C125.078 59.7719 125.194 59.2296 126.374 59.2554C127.553 59.2812 127.67 59.6944 127.67 60.6758C127.372 65.5179 127.424 70.3988 127.398 75.2798ZM148.924 68.4362C148.056 72.3099 145.542 74.2468 141.511 74.2855C139.425 74.2855 137.325 74.2855 135.225 74.2855C134.331 74.2855 133.929 74.4534 134.033 75.4218C134.124 77.6298 134.033 79.8379 134.033 82.033C134.033 83.0143 133.683 83.3242 132.737 83.3242C131.791 83.3242 131.441 82.9498 131.441 82.033C131.441 78.4304 131.441 74.8278 131.441 71.2382C131.441 67.6485 131.441 64.188 131.441 60.6758C131.441 59.5136 131.817 59.1908 132.919 59.2425C136.262 59.3845 139.606 59.01 142.924 59.4362C148.03 60.043 149.741 64.8465 148.924 68.4362Z" fill="#FCFCFC"/>
<path d="M0 0V87.1593H33.5018V84.7575C33.5018 57.5638 33.5018 30.3702 33.5018 3.17647V0H0ZM29.1602 72.9039C28.7714 75.8867 26.8533 77.7848 24.4038 79.2697C20.6615 81.3403 16.581 82.7348 12.351 83.3888C10.9098 83.7049 9.45153 83.9377 7.98341 84.0861C6.40228 84.2023 5.92276 83.9053 5.39139 82.4075C4.8038 80.3034 4.48163 78.1346 4.43235 75.9512C4.18611 75.1894 4.69155 74.66 5.72836 74.505C6.3037 74.3989 6.84299 74.1502 7.29653 73.7819C7.64351 73.5569 7.93132 73.2523 8.13589 72.8936C8.34045 72.535 8.45581 72.1327 8.47231 71.7206C8.48881 71.3084 8.40596 70.8983 8.23071 70.5245C8.05546 70.1508 7.7929 69.8243 7.46501 69.5725C7.04478 69.2223 6.57261 68.9392 6.06532 68.7331C4.32867 68.0229 4.28979 68.0359 4.48419 66.1506C4.52864 64.2967 4.83402 62.4581 5.39139 60.6887C5.93572 59.307 6.45412 59.0488 7.98341 59.1392C13.6651 59.4917 19.1998 61.0829 24.1965 63.8006C25.8546 64.6353 27.218 65.9537 28.1048 67.5801C28.9917 69.2065 29.3598 71.0637 29.1602 72.9039ZM25.3629 51.2109C22.213 53.2511 18.6895 54.6509 14.9948 55.33C12.701 55.9294 10.3663 56.361 8.00933 56.6212C6.40228 56.7504 5.85796 56.4017 5.33955 54.8522C4.74693 52.7518 4.45889 50.5777 4.48419 48.396C4.48419 46.9756 4.48419 45.5423 4.48419 44.109C4.37803 41.2847 4.49938 38.4564 4.84707 35.6514V35.3027C5.33955 31.8938 5.9746 31.3257 9.3831 31.8293C14.4147 32.525 19.3098 33.9838 23.8984 36.1549C25.9677 37.0088 27.6634 38.5701 28.6807 40.5581C29.4519 42.4418 29.5427 44.5338 28.9376 46.4768C28.3324 48.4198 27.0689 50.0931 25.3629 51.2109ZM25.1685 24.0947C21.5315 26.2607 17.5172 27.7239 13.3359 28.4075C11.5637 28.8359 9.76141 29.1294 7.94453 29.2855C6.493 29.3759 5.98756 29.066 5.46915 27.7231C5.14014 26.7706 4.92693 25.7822 4.83411 24.7791C4.56588 22.1794 4.43609 19.5674 4.44531 16.9541C4.43431 14.0337 4.59008 11.1151 4.91187 8.21234C5.41731 4.55811 6.11716 3.92539 9.7071 4.54519C15.0224 5.30487 20.1683 6.96436 24.9222 9.45194C31.7263 13.2611 29.8082 21.0215 25.1685 24.0689V24.0947Z" fill="#3B3A3B"/>
<path d="M60.394 25.7088C59.8113 24.4113 58.8816 23.2986 57.7067 22.4924C56.5318 21.6862 55.1569 21.2175 53.7325 21.1377C50.7875 20.9139 47.8322 20.8578 44.8808 20.9699C42.8979 20.9699 42.211 21.6413 42.211 23.5524V49.4935C42.211 50.9656 42.872 51.8307 44.2068 51.8436C47.273 52.0007 50.346 51.9706 53.4085 51.7532C58.5925 51.198 61.0161 48.3443 61.0161 43.1535V29.2209C61.0524 28.0201 60.8407 26.8247 60.394 25.7088ZM54.3287 30.99C54.1991 35.0832 54.3287 39.1765 54.3287 43.2826C54.3287 45.2195 53.7843 45.8651 51.8663 46.0976C49.028 46.4849 48.9632 46.4333 48.9632 43.5151V36.3745C48.9632 33.5079 48.9632 30.6542 48.9632 27.7877C48.9632 26.9484 49.2354 26.7676 50.0259 26.7547C53.4992 26.6901 54.4323 26.8967 54.3287 30.99Z" fill="#05B2E2"/>
<path d="M79.0565 36.0775C79.9873 36.4554 80.7653 37.1315 81.2675 37.999C81.7698 38.8665 81.9677 39.876 81.83 40.868C81.9021 42.7422 81.8414 44.6192 81.6485 46.4849C81.4618 47.7823 80.8831 48.9922 79.9896 49.954C79.096 50.9158 77.9298 51.5839 76.6459 51.8694C74.1305 52.6205 71.4385 52.5389 68.9736 51.637C65.5521 50.3458 64.3598 47.3242 64.5023 44.2382C64.5801 42.5854 65.6558 42.1205 68.7532 42.2109C70.2825 42.2109 71.0342 42.934 71.112 44.3415C71.1897 45.7489 71.747 46.4075 73.2893 46.3687C74.8315 46.33 75.1685 45.7102 75.1685 44.2382C75.1685 43.1535 75.1685 42.0689 75.1685 40.9842C75.1685 39.693 74.7019 39.1636 73.393 39.0473C72.8367 39.0126 72.3003 38.8283 71.8408 38.5141C71.3812 38.1999 71.0157 37.7675 70.7831 37.2629C70.5504 36.7583 70.4594 36.2003 70.5196 35.6483C70.5798 35.0962 70.789 34.5708 71.1249 34.1277C71.3529 33.8372 71.6502 33.6082 71.9898 33.4616C72.3293 33.315 72.7003 33.2554 73.0689 33.2884C74.7538 33.2238 75.1685 32.7719 75.1685 31.0803C75.1685 30.1506 75.1685 29.2209 75.1685 28.2912C75.1718 28.0372 75.121 27.7854 75.0194 27.5525C74.9177 27.3195 74.7676 27.1106 74.579 26.9398C74.3903 26.7689 74.1674 26.6399 73.925 26.5612C73.6825 26.4826 73.4261 26.4561 73.1726 26.4835C72.9206 26.453 72.6649 26.4748 72.4217 26.5475C72.1786 26.6202 71.9531 26.7422 71.7596 26.906C71.566 27.0697 71.4086 27.2716 71.2971 27.4988C71.1857 27.7261 71.1226 27.9739 71.112 28.2267C70.9305 30.099 70.4251 30.5768 68.52 30.5897H67.2239C65.0467 30.5897 64.1783 29.6083 64.4375 27.4778C64.9171 23.604 66.7963 21.5251 70.6195 20.802C72.9928 20.2829 75.4692 20.5084 77.7087 21.4476C78.6108 21.8214 79.4139 22.3983 80.0547 23.1331C80.6955 23.8679 81.1568 24.7407 81.4023 25.6829C81.8743 27.8022 81.9664 29.9879 81.6744 32.1392C81.6168 32.965 81.3454 33.7619 80.8866 34.4522C80.4277 35.1424 79.7972 35.7024 79.0565 36.0775Z" fill="#05B2E2"/>
<path d="M80.4303 77.7073C79.536 76.0287 78.9139 74.1564 77.1384 72.8651L77.7087 72.6585C81.169 71.5481 82.6465 69.1722 82.3354 65.2209C82.2909 63.7299 81.6922 62.3085 80.6552 61.2324C79.6183 60.1563 78.2172 59.5024 76.7237 59.3974C73.2504 58.9455 69.7382 59.3974 66.2519 59.2037C65.2022 59.2037 64.8393 59.5136 64.8523 60.5983C64.8523 67.726 64.8523 74.802 64.8523 81.9684C64.8523 82.924 65.1244 83.2597 66.1483 83.2597C67.1721 83.2597 67.4443 82.9498 67.4443 81.9684C67.4443 79.3859 67.4443 76.8034 67.4443 74.2209C67.4443 73.3816 67.6128 73.033 68.52 73.0846C69.7253 73.1621 70.9305 73.0846 72.1358 73.0846C73.1473 73.0437 74.146 73.321 74.9903 73.8773C75.8347 74.4335 76.482 75.2404 76.8403 76.1836C77.8253 78.2367 78.8492 80.264 79.886 82.2913C80.0217 82.5718 80.2208 82.8171 80.4678 83.008C80.7147 83.1989 81.0027 83.3301 81.3091 83.3915C81.6155 83.4528 81.932 83.4425 82.2338 83.3613C82.5356 83.2802 82.8143 83.1305 83.0482 82.924C82.1799 81.142 81.3375 79.3989 80.4303 77.7073ZM75.7776 70.7346C73.1856 70.8766 70.6584 70.7346 68.0923 70.812C67.4702 70.812 67.3017 70.5538 67.3147 69.9598C67.3276 69.3659 67.3147 68.6686 67.3147 68.0488V66.1377C67.3147 65.4534 67.3147 64.8465 67.3147 64.0976C67.3147 63.3486 67.3147 63.0517 67.3147 62.5352C67.3147 62.0187 67.4443 61.5409 68.196 61.5538C70.6454 61.5538 73.0949 61.5538 75.5314 61.5538C76.1085 61.5457 76.6811 61.6562 77.2134 61.8785C77.7457 62.1008 78.2264 62.43 78.6253 62.8456C79.0242 63.2612 79.3328 63.7543 79.5319 64.2941C79.7309 64.8338 79.8162 65.4087 79.7823 65.9828C79.86 68.759 78.4085 70.5796 75.7776 70.7346Z" fill="#3B3A3B"/>
<path d="M41.9648 71.1349C41.9648 69.5983 41.9 68.0359 41.9648 66.4993C41.9333 64.8348 42.4701 63.209 43.4873 61.8883C44.5045 60.5675 45.9417 59.6301 47.5635 59.2296C50.1912 58.4294 53.007 58.4883 55.5988 59.3974C56.6797 59.7818 57.6571 60.4093 58.455 61.2312C59.2529 62.0531 59.8499 63.0472 60.1996 64.1363C60.5365 65.0273 60.0959 65.3113 59.409 65.5954C58.7221 65.8795 58.2037 65.9311 57.8149 65.1047C57.3454 64.148 56.6785 63.3009 55.8578 62.6186C55.0371 61.9364 54.0811 61.4344 53.0523 61.1455C52.0235 60.8567 50.9451 60.7874 49.8876 60.9423C48.8301 61.0973 47.8173 61.4728 46.9155 62.0445C46.2149 62.4718 45.6301 63.0636 45.2121 63.7682C44.7942 64.4727 44.5558 65.2685 44.5179 66.0861C44.3364 69.4495 44.3364 72.8202 44.5179 76.1836C44.5566 77.3191 44.9699 78.4101 45.6938 79.2878C46.4178 80.1655 47.412 80.7809 48.5225 81.0387C50.3551 81.6004 52.3147 81.6004 54.1472 81.0387C55.3229 80.7316 56.3587 80.035 57.0841 79.0634C57.8096 78.0918 58.1816 76.9032 58.1389 75.693C58.1389 73.1105 58.1389 73.1105 55.6247 73.1105C54.3287 73.1105 53.1363 73.1105 51.8922 73.1105C51.0886 73.1105 50.9072 72.6973 50.9202 72.0129C50.9331 71.3286 50.9202 70.7217 51.8533 70.7217C54.4453 70.7217 57.0373 70.7217 59.6293 70.7217C60.0829 70.7217 60.6013 70.825 60.5754 71.3673C60.4588 73.8594 60.9772 76.4032 59.9922 78.8307C59.631 79.7554 59.075 80.5923 58.3619 81.285C57.6488 81.9777 56.795 82.5101 55.858 82.8465C53.0501 83.9588 49.9326 84.0185 47.084 83.0144C45.6557 82.5824 44.3984 81.7168 43.4876 80.5386C42.5768 79.3603 42.058 77.9281 42.0036 76.4419C41.8481 74.6729 42.0036 72.8781 42.0036 71.0961L41.9648 71.1349Z" fill="#3B3A3B"/>
<path d="M104.705 71.8192C104.705 69.6758 104.705 68.0359 104.705 66.4218C104.704 65.0957 104.342 63.7947 103.657 62.6576C102.973 61.5205 101.991 60.59 100.816 59.9656C98.868 58.9674 96.6732 58.5462 94.492 58.7518C89.3079 59.023 86.1327 61.9928 86.0161 66.7575C85.9383 69.7274 85.9254 72.7102 86.0161 75.693C85.9456 77.2333 86.3616 78.7568 87.2055 80.0493C88.0494 81.3417 89.2787 82.3381 90.7206 82.8981C93.3475 83.9279 96.2451 84.0507 98.9502 83.2468C100.283 82.9405 101.501 82.2633 102.462 81.294C103.424 80.3247 104.089 79.1033 104.381 77.7719C104.977 75.6155 104.562 73.4462 104.705 71.8192ZM102.19 75.693C102.216 77.0291 101.751 78.3285 100.882 79.3465C100.013 80.3645 98.8006 81.0307 97.4728 81.2195C96.0649 81.5359 94.6039 81.5359 93.196 81.2195C91.8328 81.0127 90.5962 80.3063 89.7284 79.2387C88.8606 78.1711 88.4241 76.8191 88.5044 75.4476C88.5044 74.0531 88.5044 72.6585 88.5044 71.264C88.5044 69.8694 88.5044 68.3974 88.5044 66.9641C88.4148 65.6304 88.8251 64.311 89.6559 63.2614C90.4867 62.2118 91.6789 61.5067 93.0016 61.2826C94.7078 60.8367 96.5065 60.886 98.1856 61.4247C99.3409 61.7078 100.366 62.3725 101.093 63.3106C101.82 64.2486 102.207 65.4045 102.19 66.5897C102.268 69.6456 102.268 72.6844 102.19 75.7059V75.693Z" fill="#3B3A3B"/>
<path d="M143.015 59.3974C139.697 58.9713 136.353 59.3974 133.009 59.2037C131.908 59.2037 131.506 59.4749 131.532 60.637C131.597 64.1492 131.532 67.6743 131.532 71.1994C131.532 74.7245 131.532 78.3917 131.532 81.9943C131.532 82.924 131.791 83.2855 132.828 83.2855C133.865 83.2855 134.124 82.9627 134.124 81.9943C134.124 79.7991 134.124 77.5911 134.124 75.3831C134.124 74.4146 134.422 74.2209 135.316 74.2468C137.416 74.2468 139.515 74.2468 141.602 74.2468C145.632 74.2468 148.082 72.2712 149.015 68.3974C149.741 64.8465 148.03 60.043 143.015 59.3974ZM141.719 71.8967C139.399 72.0258 137.053 71.8967 134.733 71.9613C134.111 71.9613 133.93 71.6901 133.942 71.109C133.942 69.6758 133.942 68.2425 133.942 66.8092C133.942 65.3759 133.942 64.0201 133.942 62.6255C133.942 61.8508 134.111 61.5151 134.966 61.5409C137.105 61.5409 139.243 61.5409 141.446 61.5409C142.111 61.5135 142.773 61.6238 143.393 61.8646C144.012 62.1054 144.575 62.4715 145.045 62.9399C145.515 63.4083 145.882 63.9688 146.124 64.5859C146.366 65.2029 146.476 65.8633 146.449 66.5251C146.535 67.1929 146.478 67.8712 146.282 68.5156C146.087 69.1601 145.757 69.756 145.314 70.2644C144.871 70.7728 144.325 71.1822 143.712 71.4657C143.099 71.7493 142.433 71.9005 141.757 71.9096L141.719 71.8967Z" fill="#3B3A3B"/>
<path d="M109.124 68.2425C109.124 65.66 109.124 63.0775 109.124 60.5854C109.124 59.5911 109.396 59.1779 110.42 59.2037C111.444 59.2296 111.716 59.6557 111.638 60.5725C111.638 65.5308 111.638 70.4892 111.638 75.4476C111.546 76.6838 111.881 77.9141 112.589 78.9338C113.296 79.9535 114.333 80.7009 115.526 81.0517C118.598 82.0717 122.084 81.3486 123.704 79.3085C124.611 78.0817 125.068 76.5823 125 75.0603C125 70.2568 125 65.4534 125 60.6499C125 59.7331 125.117 59.1908 126.296 59.2166C127.475 59.2425 127.592 59.6557 127.592 60.637C127.592 65.5179 127.592 70.3988 127.592 75.2798C127.592 79.2439 125.765 82.0072 122.317 83.1822C119.537 84.1803 116.477 84.0693 113.777 82.8723C112.429 82.3421 111.273 81.4211 110.457 80.2285C109.642 79.0359 109.204 77.6268 109.202 76.1836C109.059 73.6012 109.202 70.9154 109.202 68.2812L109.124 68.2425Z" fill="#3B3A3B"/>
<path d="M56.506 9.34864L51.6718 9.34864C51.1016 9.34864 50.959 9.64562 50.972 10.1492C50.972 11.1564 50.972 12.1636 50.972 13.1707C50.972 13.6098 50.9072 13.9584 50.3758 13.9713C49.8445 13.9842 49.8056 13.571 49.8056 13.1707C49.8056 10.2697 49.8056 7.36442 49.8056 4.45481C49.8056 4.06743 49.8056 3.62841 50.324 3.61549C50.8424 3.60258 50.972 4.04161 50.959 4.50646C50.959 5.51363 50.959 6.5208 50.959 7.52798C50.959 8.00574 51.1146 8.25108 51.62 8.25108L56.506 8.25108V4.55811C56.506 4.14491 56.3893 3.62841 57.0503 3.62841C57.7113 3.62841 57.6464 4.08034 57.6464 4.53228V13.0158C57.6464 13.4419 57.7242 13.9455 57.1021 13.9713C56.48 13.9971 56.5189 13.4161 56.5189 12.977C56.506 11.8278 56.506 10.6657 56.506 9.34864Z" fill="#3B3A3B"/>
<path d="M60.6143 8.25108H64.5023C64.943 8.25108 65.4484 8.25108 65.4355 8.81923C65.4225 9.38737 64.9171 9.37446 64.4764 9.36155H60.705V12.99H65.3059C65.7465 12.99 66.2779 12.9254 66.239 13.5452C66.2001 14.165 65.7206 13.9971 65.3188 13.9971C63.6988 13.9971 62.0658 13.9971 60.4329 13.9971C59.7589 13.9971 59.4609 13.8164 59.4738 13.0674C59.4738 10.2396 59.4738 7.42468 59.4738 4.59684C59.4738 3.91248 59.6164 3.58967 60.3551 3.60258C61.9881 3.60258 63.621 3.60258 65.2411 3.60258C65.6428 3.60258 66.0964 3.60258 66.0575 4.15782C66.0187 4.71306 65.6169 4.63558 65.267 4.63558C63.971 4.63558 62.675 4.63558 61.379 4.63558C60.7828 4.63558 60.5366 4.84218 60.5495 5.43616C60.6273 6.28838 60.6143 7.16643 60.6143 8.25108Z" fill="#3B3A3B"/>
<path d="M44.9585 9.4132C44.9585 10.6141 44.9585 11.8149 44.9585 13.0158C44.9585 13.4032 45.114 13.9713 44.4531 13.9842C43.7921 13.9971 43.8828 13.4032 43.8828 12.9512C43.8828 10.5108 43.8828 8.0703 43.8828 5.64275C43.8828 4.86801 43.6884 4.57102 42.9108 4.62267C42.3795 4.62267 41.8351 4.62267 41.2908 4.62267C40.7465 4.62267 40.578 4.46772 40.591 4.02869C40.6039 3.58967 40.9279 3.57676 41.2649 3.57676H47.5635C47.9134 3.57676 48.1985 3.66715 48.1726 4.08034C48.1467 4.49354 47.9134 4.62267 47.5505 4.62267C46.9285 4.62267 46.2545 4.62267 45.6843 4.62267C45.114 4.62267 44.8678 4.85509 44.8937 5.46198C44.8937 6.75323 44.8937 8.04448 44.8937 9.4132H44.9585Z" fill="#3B3A3B"/>
<path d="M25.1685 24.0689C21.5334 26.2439 17.519 27.7159 13.3359 28.4075C11.5637 28.8359 9.76141 29.1294 7.94453 29.2855C6.493 29.3759 5.98756 29.066 5.46915 27.7231C5.14014 26.7706 4.92693 25.7822 4.83411 24.7791C4.56588 22.1794 4.43609 19.5674 4.44531 16.9541C4.43431 14.0337 4.59008 11.1151 4.91187 8.21234C5.41731 4.55811 6.11716 3.92539 9.7071 4.54519C15.0224 5.30487 20.1683 6.96436 24.9222 9.45194C31.7263 13.2611 29.8082 21.0215 25.1685 24.0689Z" fill="#FCFCFC"/>
<path d="M25.3629 51.2109C22.213 53.2511 18.6895 54.6509 14.9948 55.33C12.701 55.9294 10.3663 56.361 8.00933 56.6212C6.40228 56.7504 5.85796 56.4017 5.33955 54.8522C4.74693 52.7518 4.45889 50.5777 4.48419 48.396C4.48419 46.9756 4.48419 45.5423 4.48419 44.109C4.37803 41.2847 4.49938 38.4564 4.84707 35.6514V35.3027C5.33955 31.8938 5.9746 31.3257 9.3831 31.8293C14.4147 32.525 19.3098 33.9838 23.8984 36.1549C25.9677 37.0088 27.6634 38.5701 28.6807 40.5581C29.4519 42.4418 29.5427 44.5338 28.9376 46.4768C28.3324 48.4198 27.0689 50.0931 25.3629 51.2109Z" fill="#FCFCFC"/>
<path d="M29.1602 72.9039C28.7714 75.8867 26.8533 77.7848 24.4038 79.2697C20.6615 81.3403 16.581 82.7348 12.351 83.3888C10.9098 83.7049 9.45153 83.9377 7.98341 84.0861C6.40228 84.2023 5.92276 83.9053 5.39139 82.4075C4.8038 80.3034 4.48163 78.1346 4.43235 75.9512C4.18611 75.1894 4.69155 74.66 5.72836 74.505C6.3037 74.3989 6.84299 74.1502 7.29653 73.7819C7.64351 73.5569 7.93132 73.2523 8.13589 72.8936C8.34045 72.535 8.45581 72.1327 8.47231 71.7206C8.48881 71.3084 8.40596 70.8983 8.23071 70.5245C8.05546 70.1508 7.7929 69.8243 7.46501 69.5725C7.04478 69.2223 6.57261 68.9392 6.06532 68.7331C4.32867 68.0229 4.28979 68.0359 4.48419 66.1506C4.52864 64.2967 4.83402 62.4581 5.39139 60.6887C5.93572 59.307 6.45412 59.0488 7.98341 59.1392C13.6651 59.4917 19.1998 61.0829 24.1965 63.8006C25.8546 64.6353 27.218 65.9537 28.1048 67.5801C28.9917 69.2065 29.3598 71.0637 29.1602 72.9039Z" fill="#05B2E2"/>
<path d="M48.9373 36.3745C48.9373 33.5079 48.9373 30.6542 48.9373 27.7877C48.9373 26.9484 49.2094 26.7676 50 26.7547C53.5122 26.7547 54.4583 26.8967 54.3416 30.99C54.225 35.0832 54.3416 39.1765 54.3416 43.2826C54.3416 45.2195 53.7973 45.8651 51.8792 46.0976C49.041 46.4849 48.9762 46.4333 48.9762 43.5151L48.9373 36.3745Z" fill="#FCFCFC"/>
<path d="M67.3924 66.1377C67.3924 64.9369 67.3924 63.736 67.3924 62.5352C67.3924 61.8766 67.522 61.5409 68.2737 61.5538C70.7232 61.5538 73.1726 61.5538 75.6091 61.5538C76.1868 61.5438 76.7603 61.653 77.2935 61.8746C77.8267 62.0962 78.3081 62.4254 78.7074 62.8414C79.1067 63.2574 79.4153 63.7513 79.6136 64.2919C79.812 64.8326 79.8959 65.4083 79.86 65.9828C79.9378 68.7202 78.4863 70.5409 75.8554 70.6958C73.2245 70.8508 70.7361 70.6958 68.17 70.7733C67.548 70.7733 67.3795 70.5151 67.4054 69.9211C67.3924 68.6944 67.3924 67.4161 67.3924 66.1377Z" fill="#FCFCFC"/>
<path d="M88.5044 71.264C88.5044 69.8307 88.5044 68.3974 88.5044 66.9641C88.4148 65.6304 88.8251 64.311 89.6559 63.2614C90.4867 62.2118 91.6789 61.5067 93.0016 61.2826C94.7078 60.8367 96.5065 60.886 98.1856 61.4247C99.3409 61.7078 100.366 62.3725 101.093 63.3106C101.82 64.2486 102.207 65.4045 102.19 66.5897C102.277 69.6026 102.277 72.6155 102.19 75.6284C102.216 76.9645 101.751 78.264 100.882 79.2819C100.013 80.2999 98.8006 80.9661 97.4728 81.155C96.0649 81.4713 94.6039 81.4713 93.196 81.155C91.8328 80.9482 90.5962 80.2418 89.7284 79.1741C88.8606 78.1065 88.4241 76.7546 88.5044 75.3831C88.5044 73.9885 88.5044 72.594 88.5044 71.1994V71.264Z" fill="#FCFCFC"/>
<path d="M133.994 66.8221C133.994 65.4276 133.994 64.033 133.994 62.6385C133.994 61.8637 134.163 61.528 135.018 61.5538C137.157 61.5538 139.295 61.5538 141.498 61.5538C142.157 61.5339 142.813 61.6491 143.425 61.8924C144.038 62.1357 144.593 62.5018 145.057 62.968C145.522 63.4342 145.885 63.9905 146.124 64.6025C146.364 65.2144 146.474 65.8688 146.449 66.5251C146.535 67.194 146.478 67.8734 146.281 68.5187C146.085 69.164 145.754 69.7606 145.309 70.2692C144.865 70.7778 144.318 71.1869 143.703 71.4696C143.089 71.7524 142.421 71.9023 141.744 71.9096C139.425 72.0387 137.079 71.9096 134.759 71.9742C134.137 71.9742 133.955 71.703 133.968 71.122C134.02 69.7274 133.994 68.2554 133.994 66.8221Z" fill="#FCFCFC"/>
<path d="M149.119 99.4778H0V100.123H149.119V99.4778Z" fill="#98999B"/>
<path d="M28.6029 109.756C28.9916 109.859 29.3327 110.093 29.5688 110.418C29.8049 110.742 29.9214 111.138 29.8989 111.538C29.9045 111.86 29.8411 112.18 29.7131 112.476C29.585 112.773 29.3951 113.038 29.1561 113.256C28.917 113.473 28.6343 113.637 28.3266 113.737C28.019 113.838 27.6935 113.871 27.3717 113.836H24.4557L25.2851 105.882H27.9938C29.2898 105.882 30.0544 106.605 30.0544 107.664C30.0682 108.112 29.9334 108.552 29.6711 108.916C29.4087 109.28 29.0333 109.548 28.6029 109.679V109.756ZM25.648 110.131L25.311 113.113H27.3717C27.596 113.134 27.8222 113.106 28.0348 113.032C28.2474 112.958 28.4415 112.839 28.6038 112.684C28.7661 112.528 28.8929 112.339 28.9755 112.13C29.0581 111.922 29.0946 111.698 29.0824 111.473C29.0824 110.647 28.4474 110.182 27.5013 110.182L25.648 110.131ZM27.8771 106.657H25.9979L25.7128 109.407H27.5531C27.7673 109.436 27.9851 109.417 28.1912 109.353C28.3973 109.289 28.5868 109.18 28.7462 109.035C28.9056 108.889 29.0311 108.711 29.1138 108.512C29.1965 108.313 29.2345 108.099 29.225 107.884C29.2378 107.707 29.2111 107.53 29.1469 107.364C29.0828 107.199 28.9827 107.05 28.8538 106.928C28.725 106.806 28.5706 106.713 28.4017 106.658C28.2329 106.602 28.0537 106.584 27.8771 106.605V106.657Z" fill="#98999B"/>
<path d="M36.0679 109.149C36.0679 110.118 34.9922 110.944 32.0632 111.202C32.0632 112.261 32.5168 113.268 33.6703 113.268C34.2554 113.262 34.8299 113.111 35.3421 112.829L35.5236 113.372C34.9297 113.717 34.2545 113.9 33.5666 113.901C33.2452 113.903 32.927 113.837 32.6329 113.708C32.3388 113.579 32.0754 113.389 31.86 113.151C31.6446 112.913 31.4821 112.633 31.3831 112.328C31.2842 112.024 31.2509 111.701 31.2856 111.383C31.2428 110.944 31.2911 110.501 31.4274 110.081C31.5638 109.662 31.7854 109.275 32.0783 108.944C32.3713 108.613 32.7293 108.346 33.1303 108.16C33.5313 107.973 33.9665 107.87 34.409 107.858C35.4458 107.858 36.0679 108.465 36.0679 109.149ZM32.1799 110.647C34.6553 110.428 35.2773 109.756 35.2773 109.149C35.2773 108.813 34.9533 108.478 34.3313 108.478C33.76 108.497 33.2174 108.732 32.8132 109.135C32.409 109.537 32.1733 110.078 32.154 110.647H32.1799Z" fill="#98999B"/>
<path d="M37.9212 108.581H37.1047V108.207L37.9601 107.974L38.4655 106.58H38.8802L38.7377 107.974H40.4095L40.3447 108.581H38.6729L38.31 112.055C38.2193 112.894 38.31 113.268 38.971 113.268C39.2253 113.257 39.4754 113.2 39.7097 113.1L39.8134 113.72C39.4859 113.825 39.146 113.886 38.8025 113.901C37.7786 113.901 37.4158 113.462 37.5065 112.106L37.9212 108.581Z" fill="#98999B"/>
<path d="M41.6148 108.581H40.7983V108.207L41.6537 107.974L42.1721 106.58H42.535L42.4054 107.974H44.0643L43.9995 108.581H42.3535L41.9907 112.055C41.8999 112.894 41.9907 113.268 42.6646 113.268C42.9145 113.255 43.1602 113.198 43.3904 113.1L43.494 113.72C43.1669 113.826 42.8268 113.887 42.4832 113.901C41.4723 113.901 41.0964 113.462 41.1871 112.106L41.6148 108.581Z" fill="#98999B"/>
<path d="M49.4557 109.149C49.4557 110.118 48.393 110.944 45.464 111.202C45.464 112.261 45.9046 113.268 47.0581 113.268C47.6475 113.264 48.2266 113.113 48.7429 112.829L48.9114 113.372C48.3175 113.717 47.6422 113.9 46.9544 113.901C46.6336 113.901 46.3163 113.834 46.0232 113.704C45.73 113.574 45.4675 113.384 45.2526 113.147C45.0376 112.91 44.875 112.63 44.7752 112.326C44.6755 112.022 44.6408 111.701 44.6734 111.383C44.6306 110.944 44.6788 110.501 44.8152 110.081C44.9516 109.662 45.1731 109.275 45.4661 108.944C45.759 108.613 46.1171 108.346 46.5181 108.16C46.919 107.973 47.3543 107.87 47.7968 107.858C48.8336 107.858 49.4557 108.465 49.4557 109.149ZM45.5676 110.647C48.043 110.428 48.6651 109.756 48.6651 109.149C48.6651 108.813 48.3411 108.478 47.719 108.478C47.1477 108.497 46.6051 108.732 46.2009 109.135C45.7967 109.537 45.5611 110.078 45.5417 110.647H45.5676Z" fill="#98999B"/>
<path d="M51.7107 107.858H51.8403L51.6848 109.317C51.8659 108.907 52.156 108.555 52.5238 108.298C52.8916 108.04 53.3231 107.888 53.7714 107.858L53.6159 108.646C53.0535 108.689 52.5267 108.937 52.135 109.341C51.7434 109.746 51.5141 110.279 51.4904 110.841L51.1923 113.785H50.5443L51.1664 108L51.7107 107.858Z" fill="#98999B"/>
<path d="M60.6273 113.785V112.571C60.4255 112.948 60.1277 113.266 59.7638 113.493C59.3998 113.72 58.9825 113.847 58.5537 113.862C57.5039 113.862 56.9207 113.204 57.0503 111.951L57.478 107.935H58.3204L57.9057 111.809C57.8149 112.597 58.113 113.204 58.9684 113.204C59.4907 113.119 59.9682 112.859 60.3218 112.467C60.6754 112.075 60.8838 111.574 60.9124 111.047L61.2234 108H61.9751L61.353 113.811L60.6273 113.785Z" fill="#98999B"/>
<path d="M64.0487 107.858H64.2431L64.1006 109.149C64.3013 108.771 64.5989 108.452 64.963 108.226C65.3272 107.999 65.745 107.872 66.1742 107.858C67.224 107.858 67.8072 108.517 67.6776 109.756L67.2499 113.785H66.4982L66.9129 109.911C67.0036 109.123 66.7055 108.517 65.8502 108.517C65.3129 108.601 64.8225 108.871 64.4648 109.28C64.1071 109.688 63.9048 110.208 63.8932 110.75L63.5822 113.798H62.8564L63.5044 108L64.0487 107.858Z" fill="#98999B"/>
<path d="M74.1317 105.534H74.3131L73.4448 113.785H72.8097V112.881C72.6181 113.181 72.3566 113.43 72.0474 113.608C71.7383 113.785 71.3907 113.886 71.0342 113.901C69.7382 113.901 69.0254 112.791 69.0254 111.319C69.0254 109.407 70.0881 107.884 71.7081 107.884C71.9977 107.872 72.2865 107.922 72.5548 108.032C72.8232 108.141 73.0648 108.306 73.2633 108.517L73.5744 105.702L74.1317 105.534ZM71.2545 113.281C71.7231 113.236 72.1575 113.017 72.4719 112.668C72.7863 112.319 72.9577 111.865 72.9523 111.396L73.1985 109.098C72.8163 108.713 72.3025 108.487 71.76 108.465C70.464 108.465 69.7512 109.834 69.7512 111.202C69.7512 112.339 70.2177 113.255 71.2805 113.255L71.2545 113.281Z" fill="#98999B"/>
<path d="M79.9637 109.149C79.9637 110.118 78.888 110.944 75.9591 111.202C75.9591 112.261 76.3997 113.268 77.5531 113.268C78.1426 113.264 78.7216 113.113 79.238 112.829L79.4194 113.372C78.8218 113.72 78.1417 113.902 77.4495 113.901C77.128 113.903 76.8098 113.837 76.5157 113.708C76.2216 113.579 75.9582 113.389 75.7429 113.151C75.5275 112.913 75.365 112.633 75.266 112.328C75.167 112.024 75.1338 111.701 75.1685 111.383C75.1257 110.945 75.1736 110.503 75.3092 110.084C75.4447 109.666 75.6651 109.279 75.9567 108.949C76.2483 108.618 76.6048 108.351 77.0042 108.163C77.4037 107.976 77.8375 107.872 78.2789 107.858C79.3287 107.858 79.9637 108.465 79.9637 109.149ZM76.0757 110.647C78.5511 110.428 79.1861 109.756 79.1861 109.149C79.1861 108.813 78.8621 108.478 78.24 108.478C77.6662 108.497 77.1206 108.731 76.7122 109.133C76.3038 109.535 76.0626 110.076 76.0368 110.647H76.0757Z" fill="#98999B"/>
<path d="M82.2188 107.858H82.4002L82.2317 109.317C82.4163 108.91 82.7074 108.56 83.0744 108.303C83.4415 108.046 83.8712 107.892 84.3183 107.858L84.1757 108.646C83.6123 108.687 83.0839 108.933 82.6917 109.338C82.2995 109.743 82.0711 110.278 82.0503 110.841L81.7392 113.785H81.0005L81.6485 108L82.2188 107.858Z" fill="#98999B"/>
<path d="M86.8974 107.858C87.4863 107.852 88.0724 107.939 88.634 108.116L88.5044 108.71C87.9639 108.54 87.3994 108.457 86.8326 108.465C85.705 108.465 85.5365 108.865 85.5365 109.356C85.5365 110.647 88.4137 110.26 88.4137 112.042C88.4137 113.178 87.5065 113.888 86.1975 113.888C85.5356 113.906 84.875 113.819 84.2405 113.63V113.01C84.8785 113.182 85.5366 113.269 86.1975 113.268C87.2343 113.268 87.6102 112.687 87.6102 112.235C87.6102 110.854 84.746 111.267 84.746 109.459C84.733 108.374 85.6532 107.858 86.8974 107.858Z" fill="#98999B"/>
<path d="M90.3318 108.581H89.5153V108.207L90.3577 107.974L90.8761 106.58H91.252L91.1094 107.974H92.7812L92.7035 108.581H91.0835L90.7206 112.055C90.6169 112.894 90.7206 113.268 91.3816 113.268C91.6357 113.255 91.8856 113.198 92.1203 113.1L92.224 113.72C91.8921 113.825 91.5479 113.886 91.2001 113.901C90.1892 113.901 89.8134 113.462 89.9041 112.106L90.3318 108.581Z" fill="#98999B"/>
<path d="M97.8875 107.974H98.3282L97.6024 113.785H96.9673V112.881C96.7782 113.183 96.5172 113.434 96.2076 113.612C95.8979 113.79 95.5491 113.889 95.1918 113.901C93.8958 113.901 93.196 112.791 93.196 111.319C93.196 109.407 94.2587 107.884 95.8787 107.884C96.1666 107.87 96.4539 107.92 96.7203 108.029C96.9868 108.139 97.226 108.305 97.4209 108.517L97.8875 107.974ZM95.3992 113.255C95.8701 113.213 96.3077 112.996 96.6248 112.646C96.9418 112.297 97.1151 111.841 97.1099 111.37L97.3561 109.072C96.9645 108.697 96.4472 108.481 95.9046 108.465C94.6086 108.465 93.8958 109.834 93.8958 111.202C93.9088 112.339 94.3753 113.255 95.3992 113.255Z" fill="#98999B"/>
<path d="M100.35 107.858H100.531L100.402 109.149C100.607 108.772 100.907 108.454 101.273 108.228C101.639 108.001 102.058 107.874 102.488 107.858C103.538 107.858 104.121 108.517 103.992 109.756L103.551 113.785H102.812L103.214 109.911C103.318 109.123 103.02 108.517 102.151 108.517C101.615 108.602 101.127 108.872 100.771 109.281C100.415 109.689 100.216 110.21 100.207 110.75L99.8963 113.798H99.1446L99.7926 108L100.35 107.858Z" fill="#98999B"/>
<path d="M110.433 105.534H110.614L109.746 113.785H109.111V112.881C108.922 113.183 108.661 113.434 108.351 113.612C108.042 113.79 107.693 113.889 107.335 113.901C106.039 113.901 105.34 112.791 105.34 111.319C105.34 109.407 106.402 107.884 108.022 107.884C108.31 107.872 108.597 107.923 108.863 108.032C109.129 108.141 109.368 108.306 109.565 108.517L109.876 105.702L110.433 105.534ZM107.543 113.281C108.014 113.239 108.451 113.022 108.768 112.672C109.085 112.323 109.259 111.867 109.254 111.396L109.5 109.098C109.115 108.717 108.603 108.491 108.061 108.465C106.765 108.465 106.052 109.834 106.052 111.202C106.052 112.339 106.519 113.255 107.569 113.255L107.543 113.281Z" fill="#98999B"/>
<path d="M112.494 107.858H112.675L112.053 113.785H111.301L111.923 108L112.494 107.858ZM112.494 105.805C112.554 105.803 112.613 105.814 112.669 105.836C112.725 105.858 112.776 105.891 112.818 105.933C112.861 105.976 112.894 106.026 112.916 106.082C112.938 106.137 112.949 106.197 112.947 106.257C112.945 106.328 112.93 106.398 112.901 106.463C112.872 106.529 112.83 106.587 112.779 106.637C112.727 106.686 112.666 106.724 112.599 106.75C112.532 106.776 112.461 106.788 112.39 106.786C112.329 106.792 112.267 106.784 112.209 106.765C112.151 106.745 112.098 106.714 112.053 106.672C112.008 106.631 111.972 106.581 111.947 106.525C111.923 106.469 111.91 106.408 111.91 106.347C111.91 106.269 111.926 106.191 111.958 106.12C111.99 106.049 112.037 105.985 112.096 105.933C112.155 105.882 112.225 105.844 112.3 105.822C112.375 105.799 112.455 105.794 112.532 105.805H112.494Z" fill="#98999B"/>
<path d="M114.8 107.858H114.982L114.852 109.149C115.057 108.772 115.358 108.454 115.723 108.228C116.089 108.001 116.508 107.874 116.939 107.858C117.989 107.858 118.572 108.517 118.442 109.756L118.015 113.785H117.263L117.665 109.911C117.781 109.11 117.483 108.465 116.641 108.465C116.103 108.55 115.613 108.82 115.255 109.228C114.898 109.636 114.695 110.157 114.684 110.699L114.373 113.746H113.621L114.243 107.961L114.8 107.858Z" fill="#98999B"/>
<path d="M124.196 113.785C124.015 115.076 123.51 116.109 122.058 116.109C121.341 116.111 120.636 115.929 120.01 115.58L120.205 115.024C120.743 115.314 121.343 115.469 121.954 115.476C122.952 115.476 123.328 114.766 123.445 113.733L123.548 112.881C123.359 113.183 123.098 113.434 122.789 113.612C122.479 113.79 122.13 113.889 121.773 113.901C120.477 113.901 119.777 112.791 119.777 111.319C119.777 109.407 120.84 107.884 122.46 107.884C122.747 107.872 123.034 107.923 123.3 108.032C123.567 108.141 123.806 108.306 124.002 108.517L124.482 108H124.922L124.196 113.785ZM121.993 113.255C122.464 113.213 122.902 112.996 123.219 112.646C123.536 112.297 123.709 111.841 123.704 111.37L123.95 109.072C123.562 108.7 123.05 108.484 122.512 108.465C121.216 108.465 120.503 109.834 120.503 111.202C120.529 112.339 120.969 113.255 121.993 113.255Z" fill="#98999B"/>
<path d="M23.1078 121.92H23.5614L22.8227 127.73H22.1877V126.826C21.996 127.126 21.7345 127.376 21.4254 127.553C21.1162 127.731 20.7686 127.831 20.4121 127.846C19.1161 127.846 18.4033 126.736 18.4033 125.264C18.4033 123.353 19.466 121.829 21.0861 121.829C21.3759 121.816 21.6651 121.865 21.9337 121.975C22.2023 122.084 22.4438 122.25 22.6413 122.462L23.1078 121.92ZM20.6325 127.201C21.101 127.156 21.5355 126.937 21.8498 126.588C22.1642 126.239 22.3357 125.785 22.3302 125.316L22.5765 123.017C22.1862 122.652 21.6733 122.445 21.1379 122.436C19.8419 122.436 19.1291 123.805 19.1291 125.174C19.1291 126.258 19.5956 127.201 20.6325 127.201Z" fill="#98999B"/>
<path d="M25.5702 121.803H25.7646L25.6221 123.095C25.8229 122.716 26.1204 122.398 26.4845 122.171C26.8487 121.944 27.2665 121.818 27.6957 121.803C28.7455 121.803 29.3287 122.462 29.1991 123.702L28.7714 127.73H28.0197L28.4344 123.857C28.5251 123.069 28.2271 122.462 27.3717 122.462C26.8344 122.547 26.344 122.817 25.9863 123.225C25.6286 123.633 25.4263 124.154 25.4147 124.696L25.1037 127.743H24.352L24.9741 121.958L25.5702 121.803Z" fill="#98999B"/>
<path d="M35.6532 119.479H35.8346L34.9922 127.73H34.3572V126.826C34.1617 127.133 33.8919 127.387 33.5726 127.563C33.2533 127.739 32.8947 127.832 32.5298 127.834C31.2338 127.834 30.521 126.723 30.521 125.251C30.521 123.34 31.5837 121.816 33.2037 121.816C33.4914 121.805 33.7782 121.855 34.0444 121.965C34.3106 122.074 34.5499 122.239 34.746 122.449L35.057 119.634L35.6532 119.479ZM32.7631 127.227C33.234 127.184 33.6716 126.967 33.9887 126.618C34.3058 126.268 34.479 125.812 34.4738 125.341L34.7201 123.043C34.3298 122.678 33.8169 122.471 33.2815 122.462C31.9855 122.462 31.2727 123.831 31.2727 125.199C31.2727 126.258 31.7392 127.201 32.7631 127.201V127.227Z" fill="#98999B"/>
<path d="M40.1763 125.251C40.1763 126.362 40.6428 127.253 41.6926 127.253C42.3027 127.248 42.9027 127.097 43.4422 126.813L43.6366 127.369C43.0173 127.721 42.3152 127.904 41.6019 127.898C40.1115 127.898 39.4246 126.736 39.4246 125.316C39.4246 123.521 40.3836 121.894 42.3147 121.894C42.8813 121.874 43.447 121.953 43.9865 122.126L43.844 122.785C43.3427 122.617 42.8177 122.53 42.2888 122.527C40.7076 122.436 40.1763 123.792 40.1763 125.251Z" fill="#98999B"/>
<path d="M49.339 121.92H49.7797L49.041 127.73H48.4059V126.826C48.2153 127.12 47.9572 127.365 47.653 127.54C47.3488 127.715 47.0072 127.816 46.6563 127.834C45.3603 127.834 44.6475 126.723 44.6475 125.251C44.6475 123.34 45.7102 121.816 47.3302 121.816C47.62 121.803 47.9093 121.852 48.1779 121.962C48.4465 122.071 48.6879 122.237 48.8854 122.449L49.339 121.92ZM46.8507 127.201C47.3193 127.156 47.7537 126.937 48.0681 126.588C48.3825 126.239 48.5539 125.785 48.5485 125.316L48.7947 123.017C48.4045 122.652 47.8915 122.445 47.3561 122.436C46.0601 122.436 45.3603 123.805 45.3603 125.174C45.3603 126.258 45.8269 127.201 46.8507 127.201Z" fill="#98999B"/>
<path d="M51.8403 121.803H52.0347L51.8403 123.263C52.0249 122.855 52.316 122.505 52.6831 122.248C53.0501 121.992 53.4798 121.838 53.9269 121.803L53.7714 122.591C53.2103 122.635 52.685 122.883 52.2955 123.288C51.906 123.693 51.6794 124.226 51.6589 124.786L51.3478 127.73H50.5443L51.1664 121.945L51.8403 121.803Z" fill="#98999B"/>
<path d="M59.2405 123.095C59.2405 124.063 58.1778 124.89 55.2488 125.148C55.2488 126.207 55.6895 127.214 56.8429 127.214C57.4324 127.209 58.0114 127.058 58.5277 126.775L58.6962 127.317C58.1024 127.663 57.4271 127.846 56.7392 127.846C56.4123 127.847 56.0889 127.779 55.7908 127.645C55.4926 127.511 55.2267 127.315 55.0107 127.071C54.7947 126.826 54.6336 126.539 54.5384 126.227C54.4431 125.915 54.4158 125.587 54.4583 125.264C54.4154 124.825 54.4637 124.382 54.6001 123.962C54.7364 123.543 54.958 123.156 55.2509 122.825C55.5439 122.494 55.902 122.227 56.3029 122.041C56.7039 121.854 57.1392 121.751 57.5816 121.739C58.6185 121.803 59.2405 122.346 59.2405 123.095ZM55.3525 124.593C57.8279 124.373 58.45 123.702 58.45 123.095C58.45 122.759 58.126 122.423 57.5168 122.423C56.9443 122.442 56.4002 122.677 55.9939 123.079C55.5876 123.482 55.3492 124.022 55.3266 124.593H55.3525Z" fill="#98999B"/>
<path d="M63.1545 125.251C63.1545 123.456 64.1265 121.829 65.9927 121.829C67.4831 121.829 68.183 122.991 68.183 124.412C68.183 126.22 67.198 127.846 65.3447 127.846C63.8543 127.834 63.1545 126.684 63.1545 125.251ZM63.9062 125.251C63.9062 126.362 64.3857 127.265 65.4225 127.265C66.7185 127.265 67.4184 125.974 67.4184 124.528C67.4184 123.418 66.9518 122.501 65.915 122.501C64.606 122.436 63.9062 123.74 63.9062 125.251Z" fill="#98999B"/>
<path d="M70.2048 122.527H69.3753V122.152L70.2307 121.92V121.287C70.3603 119.931 70.9046 119.479 71.9414 119.479C72.2477 119.488 72.5503 119.549 72.8357 119.66L72.6542 120.28C72.4304 120.175 72.1885 120.113 71.9414 120.099C71.2675 120.099 71.0601 120.461 70.9824 121.326L70.9176 121.92H72.3691V122.527H70.9435L70.3344 128.247C70.1918 129.603 69.6345 130.055 68.6107 130.055C68.2917 130.047 67.9763 129.986 67.6776 129.874L67.872 129.254C68.1099 129.356 68.3648 129.413 68.6236 129.422C69.2976 129.422 69.5049 129.06 69.5956 128.208L70.2048 122.527Z" fill="#98999B"/>
<path d="M76.7366 121.803H76.9181L76.8015 122.824C76.9889 122.52 77.2494 122.267 77.5595 122.089C77.8695 121.911 78.2192 121.813 78.577 121.803C79.873 121.803 80.5728 122.901 80.5728 124.386C80.5728 126.31 79.5231 127.834 77.8901 127.834C77.6011 127.846 77.3129 127.795 77.0462 127.683C76.7796 127.572 76.541 127.402 76.3478 127.188L76.0368 130.042H75.2981L76.1534 121.933L76.7366 121.803ZM78.3567 122.436C77.8847 122.481 77.4469 122.702 77.1301 123.053C76.8133 123.405 76.6405 123.862 76.6459 124.334L76.4645 126.62C76.8547 126.985 77.3677 127.192 77.9031 127.201C79.1991 127.201 79.8989 125.845 79.8989 124.476C79.8341 123.379 79.3805 122.436 78.3567 122.436Z" fill="#98999B"/>
<path d="M86.6641 123.095C86.6641 124.063 85.6013 124.89 82.6724 125.148C82.6724 126.207 83.113 127.214 84.2664 127.214C84.8557 127.207 85.4343 127.057 85.9513 126.775L86.1197 127.317C85.5259 127.663 84.8506 127.846 84.1628 127.846C83.8352 127.85 83.5107 127.782 83.2116 127.649C82.9124 127.516 82.6455 127.32 82.4291 127.075C82.2127 126.83 82.0518 126.542 81.9573 126.229C81.8629 125.917 81.8371 125.587 81.8818 125.264C81.839 124.825 81.8872 124.382 82.0236 123.962C82.16 123.543 82.3815 123.156 82.6745 122.825C82.9674 122.494 83.3255 122.227 83.7265 122.041C84.1274 121.854 84.5627 121.751 85.0052 121.739C86.042 121.803 86.6641 122.346 86.6641 123.095ZM82.776 124.593C85.2514 124.373 85.8735 123.702 85.8735 123.095C85.8735 122.759 85.5495 122.423 84.9274 122.423C84.3561 122.443 83.8135 122.677 83.4093 123.08C83.0051 123.483 82.7695 124.023 82.7501 124.593H82.776Z" fill="#98999B"/>
<path d="M87.8953 125.251C87.8953 123.456 88.8673 121.829 90.7336 121.829C92.224 121.829 92.9238 122.991 92.9238 124.412C92.9238 126.22 91.9388 127.846 90.0855 127.846C88.5951 127.834 87.8953 126.684 87.8953 125.251ZM88.647 125.251C88.647 126.362 89.1265 127.265 90.1503 127.265C91.4463 127.265 92.1462 125.974 92.1462 124.528C92.1462 123.418 91.6796 122.501 90.6558 122.501C89.3468 122.436 88.647 123.74 88.647 125.251Z" fill="#98999B"/>
<path d="M95.2177 121.803H95.3992L95.2825 122.824C95.4725 122.522 95.7337 122.272 96.0432 122.094C96.3526 121.916 96.701 121.816 97.0581 121.803C98.3541 121.803 99.0669 122.901 99.0669 124.386C99.0669 126.31 98.0042 127.834 96.3841 127.834C96.0931 127.847 95.8027 127.796 95.5338 127.685C95.2648 127.573 95.0241 127.403 94.8289 127.188L94.5308 130.042H93.7792L94.6086 121.945L95.2177 121.803ZM96.8377 122.436C96.3669 122.482 95.9306 122.702 95.6159 123.054C95.3012 123.406 95.1312 123.863 95.14 124.334L94.8937 126.62C95.2826 126.987 95.7964 127.195 96.3323 127.201C97.6283 127.201 98.3152 125.845 98.3152 124.476C98.3152 123.379 97.8616 122.436 96.8377 122.436Z" fill="#98999B"/>
<path d="M101.633 119.479H101.814L100.946 127.73H100.194L101.089 119.621L101.633 119.479Z" fill="#98999B"/>
<path d="M107.465 123.095C107.465 124.063 106.389 124.89 103.46 125.148C103.46 126.207 103.901 127.214 105.067 127.214C105.653 127.207 106.227 127.057 106.739 126.775L106.921 127.317C106.329 127.656 105.659 127.834 104.977 127.834C104.649 127.837 104.325 127.769 104.025 127.636C103.726 127.503 103.459 127.307 103.243 127.062C103.027 126.817 102.866 126.529 102.771 126.216C102.677 125.904 102.651 125.574 102.696 125.251C102.653 124.813 102.701 124.371 102.836 123.952C102.972 123.534 103.192 123.147 103.484 122.817C103.775 122.486 104.132 122.219 104.531 122.031C104.931 121.844 105.365 121.74 105.806 121.726C106.83 121.803 107.465 122.346 107.465 123.095ZM103.577 124.593C106.039 124.373 106.674 123.702 106.674 123.095C106.674 122.759 106.35 122.423 105.728 122.423C105.157 122.443 104.614 122.677 104.21 123.08C103.806 123.483 103.57 124.023 103.551 124.593H103.577Z" fill="#98999B"/>
<path d="M117.185 125.419C117.712 124.325 117.999 123.132 118.027 121.92H118.883C118.817 123.276 118.445 124.6 117.794 125.793L116.861 127.834H115.928L115.163 123.224L113.478 127.834H112.532L111.379 121.971H112.208L113.129 126.917L114.865 121.971H115.721L116.485 126.917L117.185 125.419Z" fill="#98999B"/>
<path d="M120.982 121.803H121.164L120.529 127.73H119.777L120.399 121.945L120.982 121.803ZM120.982 119.75C121.042 119.749 121.102 119.759 121.158 119.781C121.214 119.803 121.265 119.836 121.307 119.879C121.35 119.921 121.383 119.972 121.405 120.027C121.427 120.083 121.438 120.142 121.436 120.202C121.434 120.274 121.419 120.344 121.39 120.409C121.361 120.474 121.319 120.533 121.267 120.582C121.216 120.631 121.155 120.67 121.088 120.695C121.021 120.721 120.95 120.733 120.879 120.732C120.819 120.735 120.759 120.726 120.702 120.706C120.646 120.686 120.594 120.654 120.55 120.613C120.507 120.572 120.472 120.522 120.448 120.467C120.424 120.412 120.412 120.353 120.412 120.293C120.412 120.216 120.427 120.139 120.459 120.069C120.49 119.999 120.536 119.936 120.594 119.884C120.651 119.833 120.719 119.795 120.793 119.772C120.867 119.748 120.945 119.741 121.021 119.75H120.982Z" fill="#98999B"/>
<path d="M123.017 122.527H122.201V122.152L123.056 121.92L123.574 120.525H123.95L123.808 121.92H125.467V122.527H123.756L123.393 126C123.302 126.839 123.393 127.214 124.067 127.214C124.317 127.201 124.562 127.144 124.793 127.046L124.909 127.666C124.577 127.77 124.233 127.831 123.885 127.846C122.875 127.846 122.499 127.407 122.589 126.052L123.017 122.527Z" fill="#98999B"/>
<path d="M127.346 119.479H127.527L127.138 123.121C127.342 122.745 127.641 122.428 128.004 122.202C128.368 121.976 128.784 121.847 129.212 121.829C130.262 121.829 130.845 122.488 130.715 123.727L130.288 127.756H129.601L130.016 123.882C130.106 123.095 129.821 122.488 128.953 122.488C128.422 122.569 127.937 122.833 127.582 123.235C127.227 123.636 127.024 124.148 127.009 124.683L126.685 127.73H125.946L126.801 119.621L127.346 119.479Z" fill="#98999B"/>
<path d="M1.99585 141.676L2.8253 133.773H5.35251C7.30949 133.773 7.94453 135.155 7.94453 136.937C7.94453 139.261 7.23173 141.676 4.49715 141.676H1.99585ZM3.55106 134.496L2.86418 140.953H4.58787C6.64852 140.953 7.17989 138.835 7.17989 136.989C7.17989 135.697 6.7522 134.496 5.31363 134.496H3.55106Z" fill="#98999B"/>
<path d="M14.0099 137.04C14.0099 138.009 12.9471 138.835 10.0181 139.093C10.0181 140.152 10.4588 141.159 11.6122 141.159C12.2017 141.155 12.7807 141.004 13.297 140.72L13.4655 141.263C12.8717 141.608 12.1964 141.791 11.5086 141.792C11.1816 141.793 10.8582 141.724 10.5601 141.59C10.262 141.457 9.99598 141.261 9.77998 141.016C9.56397 140.772 9.40294 140.484 9.30767 140.172C9.2124 139.861 9.18509 139.532 9.22758 139.209C9.18475 138.771 9.23301 138.327 9.36938 137.908C9.50574 137.488 9.72729 137.101 10.0202 136.771C10.3132 136.44 10.6713 136.173 11.0722 135.986C11.4732 135.799 11.9085 135.696 12.351 135.684C13.3878 135.749 14.0099 136.291 14.0099 137.04ZM10.1218 138.538C12.5972 138.319 13.2193 137.647 13.2193 137.04C13.2193 136.704 12.8953 136.369 12.2732 136.369C11.7019 136.388 11.1593 136.623 10.7551 137.026C10.3509 137.428 10.1153 137.969 10.0959 138.538H10.1218Z" fill="#98999B"/>
<path d="M17.7294 139.364C18.2624 138.273 18.5499 137.079 18.5718 135.865H19.4401C19.3649 137.22 18.9934 138.542 18.3515 139.739L17.4054 141.792H16.4463L15.0726 135.93H15.902L17.0555 140.875L17.7294 139.364Z" fill="#98999B"/>
<path d="M25.311 137.04C25.311 138.009 24.2354 138.835 21.3064 139.093C21.3064 140.152 21.747 141.159 22.9005 141.159C23.5009 141.169 24.0939 141.027 24.6242 140.746L24.7926 141.288C24.1988 141.634 23.5235 141.817 22.8357 141.818C22.5087 141.819 22.1853 141.75 21.8872 141.616C21.5891 141.482 21.3231 141.287 21.1071 141.042C20.8911 140.798 20.7301 140.51 20.6348 140.198C20.5395 139.887 20.5122 139.558 20.5547 139.235C20.5119 138.796 20.5601 138.353 20.6965 137.934C20.8329 137.514 21.0544 137.127 21.3474 136.796C21.6403 136.466 21.9984 136.199 22.3994 136.012C22.8003 135.825 23.2356 135.722 23.6781 135.71C24.6242 135.749 25.311 136.291 25.311 137.04ZM21.423 138.538C23.8984 138.319 24.5334 137.647 24.5334 137.04C24.5334 136.704 24.1965 136.369 23.5874 136.369C23.0125 136.385 22.4652 136.618 22.0562 137.02C21.6471 137.423 21.4069 137.966 21.3841 138.538H21.423Z" fill="#98999B"/>
<path d="M27.7994 133.425H27.9808L27.1125 141.676H26.3608L27.2291 133.567L27.7994 133.425Z" fill="#98999B"/>
<path d="M28.8362 139.171C28.8362 137.376 29.8082 135.749 31.6744 135.749C33.1649 135.749 33.8647 136.911 33.8647 138.331C33.8647 140.139 32.8927 141.766 31.0264 141.766C29.536 141.792 28.8362 140.63 28.8362 139.171ZM29.6008 139.171C29.6008 140.281 30.0804 141.185 31.1042 141.185C32.4002 141.185 33.1001 139.894 33.1001 138.448C33.1001 137.337 32.6335 136.42 31.6096 136.42C30.3007 136.382 29.6008 137.686 29.6008 139.132V139.171Z" fill="#98999B"/>
<path d="M36.1586 135.749H36.353L36.2364 136.769C36.4226 136.467 36.6811 136.216 36.9887 136.038C37.2963 135.86 37.6434 135.761 37.999 135.749C39.295 135.749 40.0078 136.846 40.0078 138.331C40.0078 140.255 38.945 141.779 37.325 141.779C37.0341 141.792 36.744 141.741 36.4752 141.629C36.2064 141.517 35.9656 141.348 35.7698 141.133L35.4588 143.987H34.733L35.5884 135.878L36.1586 135.749ZM37.7916 136.382C37.3196 136.427 36.8819 136.647 36.565 136.999C36.2482 137.35 36.0754 137.807 36.0809 138.28L35.8346 140.565C36.2206 140.937 36.7363 141.146 37.2732 141.146C38.5692 141.146 39.2691 139.855 39.2691 138.422C39.2691 137.324 38.8802 136.382 37.7916 136.382Z" fill="#98999B"/>
<path d="M45.5547 141.676H44.803L45.2177 137.802C45.3085 137.014 45.0233 136.407 44.155 136.407C43.6179 136.49 43.1276 136.76 42.7716 137.169C42.4156 137.578 42.2169 138.1 42.211 138.641L41.887 141.689H41.1483L41.7574 135.904L42.3276 135.762H42.522L42.3795 137.053C42.5802 136.675 42.8778 136.356 43.2419 136.13C43.6061 135.903 44.0239 135.776 44.4531 135.762C44.6381 135.742 44.8251 135.761 45.0026 135.816C45.1802 135.871 45.3445 135.962 45.4854 136.083C45.6263 136.204 45.7408 136.353 45.8218 136.52C45.9028 136.686 45.9486 136.868 45.9565 137.053C46.1735 136.677 46.482 136.362 46.8534 136.137C47.2249 135.911 47.6473 135.782 48.0819 135.762C49.1317 135.762 49.7149 136.42 49.5853 137.66L49.2483 141.676H48.4707L48.8725 137.802C48.9762 137.014 48.6781 136.407 47.8227 136.407C47.2943 136.478 46.8083 136.734 46.452 137.129C46.0957 137.524 45.8925 138.033 45.8787 138.564L45.5547 141.676Z" fill="#98999B"/>
<path d="M55.7284 137.04C55.7284 138.009 54.6527 138.835 51.7237 139.093C51.7237 140.152 52.1643 141.159 53.3178 141.159C53.9073 141.155 54.4863 141.004 55.0026 140.72L55.1711 141.263C54.5772 141.608 53.902 141.791 53.2141 141.792C52.8876 141.793 52.5646 141.724 52.267 141.591C51.9694 141.457 51.7042 141.261 51.4891 141.016C51.2741 140.771 51.1144 140.483 51.0207 140.171C50.927 139.86 50.9016 139.532 50.9461 139.209C50.9033 138.772 50.9512 138.33 51.0868 137.911C51.2224 137.492 51.4427 137.106 51.7343 136.775C52.0259 136.445 52.3824 136.177 52.7819 135.99C53.1813 135.802 53.6151 135.698 54.0565 135.684C55.1063 135.749 55.7284 136.291 55.7284 137.04ZM51.8403 138.538C54.3157 138.319 54.9508 137.647 54.9508 137.04C54.9508 136.704 54.6138 136.369 54.0047 136.369C53.4376 136.397 52.9016 136.635 52.5014 137.036C52.1011 137.437 51.8654 137.973 51.8403 138.538Z" fill="#98999B"/>
<path d="M57.9834 135.749H58.1778L58.0353 137.04C58.236 136.662 58.5336 136.343 58.8977 136.117C59.2618 135.89 59.6797 135.763 60.1089 135.749C61.1586 135.749 61.7418 136.407 61.6122 137.647L61.1846 141.676H60.4329L60.8476 137.802C60.9383 137.014 60.6402 136.407 59.7849 136.407C59.2476 136.492 58.7572 136.762 58.3995 137.171C58.0418 137.579 57.8394 138.099 57.8279 138.641L57.5168 141.689H56.7652L57.3872 135.904L57.9834 135.749Z" fill="#98999B"/>
<path d="M63.6729 136.472H62.8564V136.098L63.7118 135.865L64.2172 134.471H64.5931L64.4505 135.865H66.1223V136.472H64.4246L64.0617 139.945C63.971 140.798 64.0617 141.159 64.7227 141.159C64.977 141.148 65.2271 141.091 65.4614 140.991L65.5651 141.611C65.2376 141.716 64.8977 141.777 64.5542 141.792C63.5433 141.792 63.1674 141.353 63.2582 139.997L63.6729 136.472Z" fill="#98999B"/>
<path d="M71.2805 135.865H71.7211L70.9824 141.676H70.3603V140.746C70.1694 141.047 69.9081 141.297 69.5988 141.474C69.2895 141.652 68.9415 141.752 68.5848 141.766C67.2887 141.766 66.5759 140.656 66.5759 139.184C66.5759 137.273 67.6387 135.749 69.2587 135.749C69.5485 135.735 69.8378 135.785 70.1064 135.894C70.3749 136.004 70.6164 136.17 70.8139 136.382L71.2805 135.865ZM68.7921 141.146C69.2607 141.101 69.6951 140.882 70.0095 140.533C70.3239 140.184 70.4953 139.73 70.4899 139.261L70.7361 136.963C70.3492 136.6 69.8414 136.393 69.3105 136.382C68.0145 136.382 67.3017 137.75 67.3017 139.119C67.2628 140.217 67.7294 141.146 68.7532 141.146H68.7921Z" fill="#98999B"/>
<path d="M73.9373 133.425H74.1317L73.2504 141.676H72.5765L73.4318 133.567L73.9373 133.425Z" fill="#98999B"/>
<path d="M77.6179 141.676L78.4474 133.773H80.9616C82.9316 133.773 83.5537 135.155 83.5537 136.937C83.5537 139.261 82.8408 141.676 80.0933 141.676H77.6179ZM79.1731 134.496L78.4863 140.953H80.21C82.2706 140.953 82.802 138.835 82.802 136.989C82.802 135.697 82.3743 134.496 80.9357 134.496H79.1731Z" fill="#98999B"/>
<path d="M89.6319 137.04C89.6319 138.009 88.5563 138.835 85.6273 139.093C85.6273 140.152 86.0679 141.159 87.2343 141.159C87.8173 141.161 88.3916 141.019 88.9062 140.746L89.0876 141.288C88.49 141.636 87.8099 141.819 87.1177 141.818C86.7912 141.819 86.4682 141.75 86.1706 141.616C85.873 141.483 85.6077 141.287 85.3927 141.042C85.1777 140.797 85.018 140.509 84.9243 140.197C84.8306 139.886 84.8051 139.558 84.8497 139.235C84.8069 138.797 84.8548 138.355 84.9904 137.937C85.1259 137.518 85.3463 137.131 85.6379 136.801C85.9295 136.471 86.286 136.203 86.6854 136.016C87.0849 135.828 87.5187 135.724 87.9601 135.71C88.9969 135.749 89.6319 136.291 89.6319 137.04ZM85.7439 138.538C88.2193 138.319 88.8543 137.647 88.8543 137.04C88.8543 136.704 88.5303 136.369 87.9082 136.369C87.3344 136.388 86.7888 136.622 86.3804 137.024C85.972 137.426 85.7308 137.967 85.705 138.538H85.7439Z" fill="#98999B"/>
<path d="M91.887 135.749H92.0166L91.874 137.04C92.0779 136.664 92.3761 136.348 92.7396 136.122C93.1031 135.895 93.5194 135.767 93.9476 135.749C94.9974 135.749 95.5806 136.407 95.451 137.647L95.0233 141.676H94.3494L94.7641 137.802C94.8549 137.014 94.5697 136.407 93.7014 136.407C93.1643 136.49 92.674 136.76 92.318 137.169C91.962 137.578 91.7633 138.1 91.7574 138.641L91.4334 141.689H90.7206L91.3427 135.904L91.887 135.749Z" fill="#98999B"/>
<path d="M97.5765 136.472H96.76V136.098L97.6153 135.865L98.1338 134.471H98.4966L98.3541 135.865H100.026L99.9482 136.472H98.3152L97.9523 139.945C97.8616 140.798 97.9523 141.159 98.6262 141.159C98.8804 141.146 99.1303 141.089 99.365 140.991L99.4686 141.611C99.1368 141.716 98.7926 141.777 98.4448 141.792C97.4339 141.792 97.0581 141.353 97.1488 139.997L97.5765 136.472Z" fill="#98999B"/>
<path d="M105.132 135.865H105.573L104.847 141.676H104.212V140.746C104.021 141.047 103.76 141.297 103.451 141.474C103.141 141.652 102.793 141.752 102.437 141.766C101.14 141.766 100.441 140.656 100.441 139.184C100.441 137.273 101.503 135.749 103.123 135.749C103.411 135.737 103.698 135.788 103.964 135.897C104.23 136.006 104.47 136.172 104.666 136.382L105.132 135.865ZM102.644 141.146C103.115 141.104 103.552 140.887 103.869 140.537C104.187 140.188 104.36 139.732 104.355 139.261L104.601 136.963C104.209 136.601 103.697 136.394 103.162 136.382C101.866 136.382 101.153 137.75 101.153 139.119C101.153 140.217 101.62 141.146 102.644 141.146Z" fill="#98999B"/>
<path d="M107.841 133.425H108.022L107.154 141.676H106.402L107.271 133.567L107.841 133.425Z" fill="#98999B"/>
<path d="M111.457 141.676L112.286 133.773H114.813C116.77 133.773 117.405 135.155 117.405 136.937C117.405 139.261 116.693 141.676 113.958 141.676H111.457ZM113.012 134.496L112.325 140.953H114.049C116.109 140.953 116.641 138.835 116.641 136.989C116.641 135.697 116.213 134.496 114.774 134.496H113.012Z" fill="#98999B"/>
<path d="M123.523 137.04C123.523 138.009 122.46 138.835 119.531 139.093C119.531 140.152 119.971 141.159 121.125 141.159C121.714 141.155 122.293 141.004 122.81 140.72L122.978 141.263C122.384 141.608 121.709 141.791 121.021 141.792C120.694 141.793 120.371 141.724 120.073 141.59C119.775 141.457 119.509 141.261 119.293 141.016C119.077 140.772 118.916 140.484 118.82 140.172C118.725 139.861 118.698 139.532 118.74 139.209C118.707 138.779 118.761 138.346 118.899 137.936C119.037 137.527 119.257 137.149 119.545 136.826C119.833 136.503 120.183 136.242 120.575 136.056C120.966 135.871 121.392 135.767 121.825 135.749C122.9 135.749 123.523 136.291 123.523 137.04ZM119.635 138.538C122.11 138.319 122.732 137.647 122.732 137.04C122.732 136.704 122.408 136.369 121.799 136.369C121.225 136.385 120.679 136.618 120.273 137.021C119.866 137.424 119.628 137.967 119.609 138.538H119.635Z" fill="#98999B"/>
<path d="M125.376 136.472H124.559V136.098L125.415 135.865V135.232C125.544 133.941 126.089 133.425 127.125 133.425C127.432 133.433 127.734 133.494 128.02 133.605L127.838 134.225C127.614 134.12 127.372 134.059 127.125 134.044C126.439 134.044 126.244 134.406 126.166 135.336V135.93H127.618V136.537H126.128L125.518 142.257C125.376 143.548 124.819 144.065 123.795 144.065C123.476 144.057 123.16 143.996 122.862 143.884L123.056 143.264C123.294 143.366 123.549 143.423 123.808 143.432C124.482 143.432 124.676 143.07 124.78 142.218L125.376 136.472Z" fill="#98999B"/>
<path d="M132.996 137.04C132.996 138.009 131.921 138.835 128.992 139.093C128.992 140.152 129.445 141.159 130.599 141.159C131.184 141.153 131.758 141.002 132.271 140.72L132.452 141.263C131.858 141.608 131.183 141.791 130.495 141.792C130.167 141.795 129.843 141.728 129.544 141.595C129.245 141.462 128.978 141.266 128.761 141.021C128.545 140.776 128.384 140.487 128.29 140.175C128.195 139.862 128.169 139.533 128.214 139.209C128.171 138.772 128.219 138.33 128.355 137.911C128.49 137.492 128.711 137.106 129.002 136.775C129.294 136.445 129.65 136.177 130.05 135.99C130.449 135.802 130.883 135.698 131.325 135.684C132.374 135.749 132.996 136.291 132.996 137.04ZM129.108 138.538C131.571 138.319 132.206 137.647 132.206 137.04C132.206 136.704 131.882 136.369 131.26 136.369C130.688 136.388 130.146 136.623 129.742 137.026C129.337 137.428 129.102 137.969 129.082 138.538H129.108Z" fill="#98999B"/>
<path d="M134.979 139.145C134.979 140.255 135.446 141.146 136.496 141.146C137.102 141.143 137.698 140.992 138.232 140.707L138.44 141.263C137.82 141.614 137.118 141.797 136.405 141.792C134.914 141.792 134.228 140.63 134.228 139.209C134.228 137.415 135.174 135.788 137.118 135.788C137.68 135.767 138.242 135.845 138.777 136.02L138.647 136.679C138.145 136.512 137.621 136.424 137.092 136.42C135.562 136.382 134.979 137.737 134.979 139.145Z" fill="#98999B"/>
<path d="M140.306 136.472H139.489V136.098L140.345 135.865L140.85 134.471H141.265L141.122 135.865H142.794L142.729 136.472H141.058L140.695 139.945C140.604 140.798 140.695 141.159 141.356 141.159C141.61 141.148 141.86 141.091 142.094 140.991L142.198 141.611C141.871 141.716 141.531 141.777 141.187 141.792C140.176 141.792 139.8 141.353 139.891 139.997L140.306 136.472Z" fill="#98999B"/>
<path d="M145.542 135.749C146.131 135.743 146.717 135.83 147.278 136.007L147.149 136.614C146.622 136.443 146.07 136.36 145.516 136.369C144.388 136.369 144.22 136.769 144.22 137.26C144.22 138.551 147.097 138.164 147.097 139.945C147.097 141.082 146.19 141.792 144.881 141.792C144.223 141.807 143.567 141.72 142.937 141.534V140.914C143.579 141.086 144.241 141.173 144.907 141.172C145.931 141.172 146.306 140.591 146.306 140.139C146.306 138.758 143.442 139.171 143.442 137.363C143.377 136.265 144.298 135.749 145.542 135.749Z" fill="#98999B"/>
</svg>
