<svg width="91" height="37" viewBox="0 0 91 37" fill="none" xmlns="http://www.w3.org/2000/svg">
<path d="M43.5242 3.87363H50.1344V25.2874H43.5242V3.87363Z" fill="white"/>
<path d="M59.4597 27.6876L51.9519 27.7479L50.3563 31.0773L43.5161 31.1395L52.0406 10.4964H59.028L66.8304 31.4125L60.3533 31.4928L59.4597 27.6876ZM57.8984 23.146L55.1833 15.883L53.0169 23.146H57.8984Z" fill="white"/>
<path d="M80.3938 13.6352C80.3938 19.4232 75.9762 22.9413 68.7507 22.9413H61.8137V4.29306L68.7507 4.28102C75.9762 4.25894 80.3938 7.80114 80.3938 13.6352ZM73.7371 13.6112C73.7371 9.37055 72.422 8.19249 68.6115 8.19249L68.0427 8.21055V18.2913L68.664 18.2752C72.43 18.2772 73.7311 17.4383 73.7311 13.6071L73.7371 13.6112Z" fill="white"/>
<path d="M75.5627 31.7476C74.7275 30.6438 73.3276 29.0885 73.3276 27.1478C74.5964 27.1779 78.3463 27.1317 78.3463 27.1317C78.7276 27.786 79.0967 29.8952 82.8103 30.0157C84.0387 30.0558 85.2309 28.8115 85.1926 27.9345C85.1058 25.8031 83.2521 25.48 81.1199 24.5448C78.3645 23.3708 75.7139 21.9499 75.7139 18.7047C75.7139 14.9779 79.2924 12.3187 83.4235 12.3187C86.7458 12.3187 89.0615 13.5831 90.1891 15.9913C90.7377 16.9386 91.0181 18.0163 90.9959 19.1101C89.0594 19.1101 86.3423 19.1703 86.3423 19.1703C85.7069 17.1995 84.6338 16.9306 83.593 16.9306C82.4048 16.9306 81.4669 18.1347 81.4507 18.8773C81.4185 20.3062 82.7538 20.4367 85.1038 21.412C88.5067 22.8269 90.9959 24.6351 90.9959 27.8141C90.9959 31.9142 87.1351 34.465 82.774 34.465C79.1976 34.465 76.541 32.9758 75.5627 31.7476Z" fill="white"/>
<path d="M27.2437 4.50981C26.9432 4.39541 26.6265 4.32517 26.3259 4.21078C26.1222 4.26095 25.9164 4.31112 25.7127 4.35929C24.7606 4.29707 23.8327 4.44759 22.9069 4.65631C22.8927 4.566 22.8766 4.47569 22.8605 4.38538C22.8705 3.8395 22.1403 3.84351 22.0758 3.31369C22.2493 3.30164 22.4207 3.2896 22.5922 3.27756C21.2871 3.01867 19.982 3.04275 18.6749 3.26552C18.574 3.27154 18.4711 3.27555 18.3682 3.28157C17.9446 3.21133 17.5473 3.35784 17.1499 3.44815C14.2795 4.10441 11.7096 5.32662 9.63396 7.46197C8.70808 8.21055 7.95972 9.11567 7.3223 10.1151C6.79784 10.8617 6.35204 11.6444 5.98694 12.4632C8.41761 6.89803 13.993 3.00663 20.4842 3.00663C22.9048 3.00462 25.1943 3.54448 27.2437 4.50981Z" fill="#C4E7F1"/>
<path d="M36.2887 18.7268C36.2887 19.0398 36.2786 19.3509 36.2604 19.662C36.2503 19.8185 36.2403 19.9771 36.2261 20.1336C36.1959 20.4808 36.1535 20.822 36.0991 21.1631C36.0123 21.715 35.8973 22.2569 35.7541 22.7887C35.6633 23.1319 35.5605 23.4671 35.4475 23.7962C35.268 24.318 35.0622 24.8278 34.8323 25.3235C34.6427 25.7329 34.4349 26.1303 34.211 26.5196C34.0153 26.8648 33.8055 27.1999 33.5816 27.5271C30.7596 31.6774 25.9971 34.4148 20.5891 34.4489C20.5871 34.4509 20.5871 34.4509 20.5871 34.4489C20.5851 34.4509 20.5851 34.4489 20.5851 34.4489C20.5831 34.4509 20.5831 34.4509 20.5811 34.4489C20.5791 34.4509 20.5791 34.4489 20.5791 34.4489C20.5448 34.4509 20.5145 34.4509 20.4822 34.4509C20.3047 34.4509 20.1312 34.4469 19.9578 34.4409H19.9558C19.4938 34.4268 19.0359 34.3907 18.5841 34.3365C18.4449 34.3205 18.3057 34.3024 18.1665 34.2823C18.1645 34.2823 18.1625 34.2823 18.1605 34.2803C17.751 34.2221 17.3496 34.1459 16.9522 34.0556C16.9502 34.0535 16.9482 34.0535 16.9462 34.0535C16.5447 33.9632 16.1474 33.8549 15.758 33.7345C15.6431 33.7003 15.5321 33.6642 15.4192 33.6261C15.3203 33.592 15.2235 33.5598 15.1247 33.5237C14.3965 33.2628 13.6925 32.9497 13.0208 32.5905C12.93 32.5403 12.8392 32.4922 12.7464 32.442C12.5407 32.3276 12.339 32.2072 12.1372 32.0828C12.1332 32.0808 12.1272 32.0787 12.1231 32.0727C11.9456 31.9644 11.7742 31.85 11.6007 31.7336C11.6007 31.7336 11.6007 31.7336 11.5987 31.7336C11.4111 31.6071 11.2295 31.4767 11.048 31.3422C11.044 31.3402 11.044 31.3382 11.0399 31.3362C11.0379 31.3362 11.0379 31.3362 11.0379 31.3342C10.8422 31.1897 10.6526 31.0412 10.467 30.8886C10.465 30.8886 10.465 30.8866 10.463 30.8866C10.2593 30.7221 10.0616 30.5515 9.86593 30.3769C9.86391 30.3749 9.8619 30.3749 9.8619 30.3729C9.65413 30.1842 9.45241 29.9936 9.25675 29.7949C9.25473 29.7929 9.25473 29.7929 9.25272 29.7909C9.10748 29.6444 8.96426 29.4959 8.82306 29.3433C8.59311 29.0965 8.37324 28.8396 8.16143 28.5767C8.15337 28.5646 8.1453 28.5546 8.13521 28.5426C8.01217 28.39 7.89315 28.2375 7.77817 28.079C7.77616 28.077 7.77414 28.075 7.77212 28.0729C7.61075 27.8582 7.45745 27.6395 7.30818 27.4167L7.30616 27.4147C7.03788 27.0113 6.78573 26.5979 6.55376 26.1704C6.54973 26.1644 6.54367 26.1563 6.54166 26.1483C6.28548 25.6707 6.05149 25.181 5.84372 24.6752C5.74891 24.4404 5.65613 24.2036 5.57342 23.9668C5.47862 23.6979 5.38784 23.4229 5.30716 23.146C5.30514 23.142 5.30514 23.14 5.30514 23.1359C5.24664 22.9332 5.19016 22.7326 5.13772 22.5258V22.5238C5.06913 22.2489 5.00862 21.9719 4.95415 21.691C4.95415 21.689 4.95415 21.687 4.95214 21.687C4.88355 21.3257 4.82506 20.9605 4.7827 20.5912C4.78068 20.5872 4.78068 20.5811 4.78068 20.5771C4.71411 20.0192 4.67982 19.4533 4.67175 18.8793V18.7187C4.67175 18.5582 4.67377 18.3976 4.67982 18.2391C4.67982 18.229 4.67982 18.219 4.68184 18.211C4.68386 18.1488 4.68587 18.0886 4.68789 18.0263C4.71613 17.3982 4.77866 16.7801 4.8775 16.172C4.936 15.897 5.01064 15.6221 5.11149 15.3531C5.10141 15.7927 5.08124 16.2362 5.58553 16.4529C5.80338 16.2884 5.74286 16.0475 5.73681 15.8328C5.72269 15.3913 5.91836 15.1846 6.36213 15.2106C6.41458 15.1083 6.46702 15.0039 6.51947 14.9016C6.49728 14.6889 6.59209 14.444 6.36415 14.2814C6.13419 14.446 5.85986 14.2955 5.60771 14.2955C5.59359 14.2955 5.57947 14.2975 5.56535 14.2975C5.55123 14.2995 5.53711 14.2995 5.52501 14.3015C5.51291 14.3035 5.50282 14.3055 5.49072 14.3075C5.48063 14.3095 5.47256 14.3116 5.4645 14.3136C5.45441 14.3176 5.44432 14.3196 5.43424 14.3256C5.42617 14.3276 5.42012 14.3316 5.41205 14.3356C5.40398 14.3396 5.39793 14.3417 5.38986 14.3457C5.3596 14.3637 5.32935 14.3858 5.29909 14.4139C5.29304 14.4199 5.28699 14.4259 5.28093 14.432V14.43C5.38179 14.0507 5.49879 13.6754 5.63192 13.3081C5.63595 13.2981 5.63797 13.288 5.64201 13.278C5.6763 13.1857 5.71059 13.0913 5.74891 12.999C5.77312 12.9368 5.79934 12.8726 5.82557 12.8104C5.84776 12.7562 5.87196 12.7 5.89415 12.6458C5.89415 12.6438 5.89415 12.6418 5.89617 12.6398C5.9002 12.6278 5.90625 12.6177 5.91029 12.6057C5.93248 12.5535 5.95668 12.4993 5.97887 12.4451C6.34398 11.6243 6.78977 10.8436 7.31423 10.097C7.95165 9.09759 8.70002 8.19248 9.62589 7.4439C11.7015 5.30854 14.2714 4.08633 17.1418 3.43007C17.5372 3.33976 17.9366 3.19326 18.3602 3.2635C18.461 3.25748 18.5639 3.25347 18.6668 3.24744C19.9739 3.02468 21.279 3.00059 22.5841 3.25949C22.4126 3.27153 22.2392 3.28156 22.0677 3.29561C22.1343 3.82544 22.8625 3.82142 22.8524 4.3673C22.8665 4.45761 22.8826 4.54792 22.8988 4.63823C23.8226 4.42952 24.7526 4.279 25.7046 4.34121C25.9104 4.29104 26.1141 4.24087 26.3179 4.1927C26.6184 4.30709 26.9351 4.37934 27.2357 4.49173C27.2377 4.49374 27.2397 4.49374 27.2417 4.49574C27.3789 4.55997 27.5161 4.6282 27.6492 4.69644C27.6512 4.69644 27.6512 4.69644 27.6512 4.69844L28.4339 5.12391C28.4359 5.12591 28.4359 5.12591 28.4379 5.12591C29.0067 5.45505 29.5514 5.82031 30.0718 6.21567C30.5963 6.61504 31.0965 7.04854 31.5665 7.50812C32.0103 7.94362 32.4298 8.4032 32.8192 8.88888C33.1822 9.34043 33.5231 9.81205 33.8358 10.3037C34.1545 10.8035 34.445 11.3233 34.7052 11.8571C34.9977 12.4552 35.2519 13.0733 35.4677 13.7115C35.4677 13.7115 35.4677 13.7115 35.4677 13.7135C35.9215 15.0641 36.1979 16.4971 36.2665 17.9822C36.2826 18.2391 36.2887 18.4819 36.2887 18.7268Z" fill="#365CA8"/>
<path d="M36.2887 18.7268C36.2887 19.0398 36.2786 19.3509 36.2605 19.662C35.9518 19.8607 35.7905 20.1758 35.6452 20.5209C34.3563 23.5875 32.5328 26.2687 29.8862 28.3439C25.154 32.0567 19.8206 33.3572 13.8882 32.2995C13.4303 32.2172 12.9502 31.9102 12.4661 32.2453C12.3572 32.1952 12.2482 32.143 12.1433 32.0848C12.1393 32.0828 12.1332 32.0808 12.1292 32.0747C11.9477 31.9744 11.7742 31.862 11.6068 31.7356C11.6068 31.7356 11.6068 31.7356 11.6048 31.7356C11.518 31.6693 11.4313 31.5971 11.3466 31.5248C11.5442 31.27 11.8125 31.3221 12.0586 31.3984C14.6527 32.2152 17.2911 32.5002 20.0022 32.1309C22.5922 31.7777 25.037 31.0412 27.2599 29.6444C28.3512 29.1868 29.2993 28.5325 30.0658 27.6274C30.8747 27.1919 31.498 26.5718 31.9357 25.767C32.8434 25.0044 33.503 24.0611 33.9629 22.9754C34.2594 22.849 34.3119 22.5479 34.4511 22.3091C35.1026 21.1953 35.4637 19.959 35.9861 18.789C35.9881 18.6846 35.9902 18.5803 35.9902 18.4759C36.085 18.3174 36.1798 18.1568 36.2746 17.9983C36.2826 18.2391 36.2887 18.4819 36.2887 18.7268Z" fill="#63CAE8"/>
<path d="M36.2604 19.662C36.2503 19.8185 36.2402 19.9771 36.2261 20.1336C36.0022 20.2902 35.9175 20.5591 35.8045 20.816C34.3723 24.0551 32.333 26.8126 29.4606 28.964C26.7676 30.979 23.7581 32.1911 20.4661 32.7109C18.8362 32.9678 17.1821 32.9799 15.52 32.8012C14.8785 32.731 14.1806 32.2794 13.5169 32.7912C13.3475 32.733 13.1821 32.6688 13.0248 32.5905C12.932 32.5444 12.8392 32.4962 12.7504 32.442C12.6516 32.3818 12.5568 32.3176 12.464 32.2453C12.9481 31.9102 13.4282 32.2172 13.8861 32.2995C19.8165 33.3572 25.1499 32.0567 29.8842 28.3439C32.5307 26.2667 34.3542 23.5875 35.6431 20.5209C35.7884 20.1778 35.9518 19.8607 36.2604 19.662Z" fill="#5EC9E5"/>
<path d="M36.2261 20.1336C36.1959 20.4808 36.1535 20.822 36.099 21.1632C35.9336 21.4 35.7541 21.6267 35.6069 21.8736C34.7496 23.3105 33.9346 24.7615 32.8454 26.062C30.5277 28.8255 27.6653 30.7722 24.2886 31.9824C21.2286 33.0802 18.0798 33.4133 14.8523 32.9136C14.6082 32.8755 14.3238 32.8213 14.1443 33.0942C13.9345 32.9939 13.7268 32.8916 13.517 32.7892C14.1786 32.2774 14.8785 32.731 15.52 32.7992C17.1821 32.9799 18.8362 32.9658 20.4661 32.7089C23.7581 32.1891 26.7677 30.977 29.4606 28.962C32.333 26.8106 34.3703 24.0551 35.8045 20.8139C35.9175 20.5591 36.0022 20.2922 36.2261 20.1336Z" fill="#5DC9E5"/>
<path d="M36.2705 17.9963C36.1757 18.1548 36.0809 18.3154 35.9861 18.4739C35.9397 18.4217 35.8913 18.3675 35.8449 18.3154C35.8409 17.9039 35.8369 17.4925 35.8328 17.0831C35.4395 16.6356 35.5767 15.9813 35.2095 15.5257C35.1652 15.1525 34.9392 15.0381 34.5923 15.0923C34.9534 14.8635 35.2983 14.6407 35.2519 14.1169C35.2499 14.1049 35.2499 14.0928 35.2539 14.0808C35.2539 14.0747 35.2559 14.0687 35.2579 14.0627C35.262 14.0467 35.268 14.0286 35.2761 14.0105C35.2801 14.0025 35.2821 13.9965 35.2862 13.9885C35.2902 13.9804 35.2963 13.9744 35.3003 13.9664C35.3104 13.9523 35.3205 13.9363 35.3306 13.9202V13.9182C35.3427 13.9042 35.3527 13.8881 35.3649 13.8721C35.3749 13.86 35.383 13.85 35.3931 13.8379C35.4072 13.8199 35.4213 13.8018 35.4355 13.7837C35.4496 13.7657 35.4637 13.7476 35.4758 13.7316C35.9276 15.0782 36.204 16.5111 36.2705 17.9963Z" fill="#3B84C5"/>
<path d="M20.2462 4.04822C19.6128 4.15258 19.0218 4.36732 18.461 4.6523C18.3682 4.69846 18.2754 4.75064 18.1826 4.80082C18.0899 4.853 17.9991 4.90517 17.9083 4.95936C17.8881 4.94531 17.868 4.93126 17.8498 4.91722C17.7893 4.87507 17.7288 4.84095 17.6683 4.81085C17.1055 4.52988 16.4963 4.69044 15.8972 4.75265C15.2194 4.82088 14.6183 5.30455 13.8639 5.06372C13.636 4.98947 13.174 5.17209 13.1559 5.50323C13.1337 5.87451 12.9058 5.96683 12.6798 6.12738C9.67226 8.26073 8.42162 11.245 8.92792 14.7912C9.39994 18.1066 11.3727 20.4668 14.5437 21.7131C15.407 22.0522 16.3107 22.4777 17.2931 22.0442C17.3455 21.994 17.3939 21.9439 17.4464 21.8957C17.7207 22.0663 17.9466 22.269 17.9325 22.6302C17.5593 23.3306 16.8957 23.0015 16.4257 22.9333C13.0127 22.4356 10.578 20.5591 9.02071 17.5226C8.5729 16.6476 8.33085 15.7044 8.09484 14.7571C8.04239 14.3959 7.98995 14.0386 7.9375 13.6774C7.94759 11.6785 8.45994 9.82412 9.52702 8.12226C9.64603 7.93361 9.94054 7.73693 9.642 7.46198C11.7177 5.32663 14.2875 4.10442 17.1579 3.44816C17.5533 3.35784 17.9527 3.21134 18.3763 3.28158C18.4045 3.68698 18.7192 3.58663 18.9532 3.59265C19.2295 3.59667 19.5079 3.48629 19.7822 3.61072C19.754 3.71106 19.5624 3.73113 19.639 3.89168C19.8407 3.93584 20.0868 3.82746 20.2462 4.04822Z" fill="#C4E7F1"/>
<path d="M7.91731 28.2516C7.70954 27.9405 7.36058 27.7238 7.29199 27.3184C7.61474 27.2822 7.87697 27.3886 8.15735 27.5632C11.407 29.6103 14.935 30.6478 18.8039 30.413C19.2255 30.3869 19.6995 30.4773 19.9335 29.9735C20.4479 29.6885 21.0752 29.9213 21.5876 29.6203C23.0904 29.6163 24.3733 28.964 25.6481 28.2757C25.8438 28.1693 26.0314 28.077 25.8559 27.8141C26.3561 27.8321 26.5538 27.4609 26.7656 27.1076C27.0803 27.495 27.3567 27.1297 27.5402 26.9932C28.1655 26.5357 28.8453 26.1222 29.2871 25.4519C29.392 25.5563 29.4948 25.6607 29.5977 25.765C29.7571 26.3731 29.2003 26.5778 28.8897 26.8186C25.1882 29.6925 21.049 31.1375 16.2865 30.7502C13.6723 30.5375 11.2779 29.7668 9.01263 28.5265C8.65156 28.3339 8.31872 28.2034 7.91731 28.2516Z" fill="#7CD1EE"/>
<path d="M7.91736 28.2516C8.31877 28.2034 8.64959 28.3339 9.01066 28.5305C11.2779 29.7708 13.6703 30.5415 16.2845 30.7542C21.047 31.1415 25.1862 29.6986 28.8877 26.8227C29.1984 26.5818 29.7551 26.3771 29.5957 25.769C29.9245 25.7028 30.1323 25.9336 30.3744 26.0781C30.1081 26.5818 29.5957 26.8227 29.1883 27.1719C26.1625 29.7728 22.5982 31.0713 18.6527 31.3342C15.7096 31.5309 12.9058 30.8947 10.2068 29.7186C9.86795 29.5701 9.49477 29.1085 9.01873 29.4939C8.55478 29.1667 8.26633 28.6811 7.91736 28.2516Z" fill="#7AD0ED"/>
<path d="M9.01868 29.4959C9.49473 29.1105 9.86588 29.5721 10.2068 29.7206C12.9057 30.8947 15.7096 31.5309 18.6526 31.3362C22.6002 31.0713 26.1625 29.7748 29.1882 27.1739C29.5957 26.8227 30.1081 26.5818 30.3743 26.0801C30.4792 26.1303 30.5841 26.1825 30.687 26.2326C30.6587 26.4996 30.5256 26.6922 30.3239 26.8829C28.9462 28.1834 27.4111 29.239 25.6885 30.0438C21.6299 31.9443 17.4403 32.3076 13.0913 31.286C12.0989 31.0532 11.1891 30.4893 10.1241 30.5515C9.68434 30.2766 9.33134 29.9053 9.01868 29.4959Z" fill="#6FCDEB"/>
<path d="M30.9754 13.8701C30.5518 13.7476 30.0879 13.8921 29.6643 13.7557C29.634 13.7456 29.6038 13.7336 29.5735 13.7215C29.5291 13.7015 29.4848 13.6794 29.4424 13.6513C29.4727 13.6292 29.5029 13.6051 29.5271 13.5811C29.7087 13.4085 29.7571 13.1877 29.7591 12.9188C29.7652 12.2224 29.7067 11.536 29.5977 10.8476C29.1519 7.99783 27.4353 6.06718 25.0269 4.53189C25.2951 4.55196 25.5069 4.46968 25.7087 4.3593C25.9144 4.30912 26.1181 4.25895 26.3219 4.21078C26.6224 4.32518 26.9391 4.39743 27.2397 4.50981C27.2417 4.51182 27.2437 4.51182 27.2457 4.51383C27.3869 4.56601 27.5241 4.63023 27.6532 4.71452C27.6552 4.71452 27.6552 4.71452 27.6552 4.71653C27.6976 4.74462 27.7399 4.77272 27.7803 4.80483C27.3809 5.08981 27.7641 5.24234 27.9053 5.39286C29.9608 7.60046 31.0218 10.1613 30.6628 13.1997C30.6245 13.557 30.8221 13.6714 30.9754 13.8701Z" fill="#38B7E4"/>
<path d="M10.1241 30.5535C11.1892 30.4913 12.0989 31.0552 13.0914 31.288C17.4404 32.3096 21.632 31.9443 25.6885 30.0458C27.4112 29.239 28.9462 28.1833 30.324 26.8849C30.5257 26.6962 30.6568 26.5015 30.687 26.2346C30.8585 26.2286 31.0421 26.2607 31.155 26.0781C33.0128 24.1274 34.3623 21.8756 35.2115 19.3228C35.3386 18.9395 35.391 18.502 35.8449 18.3174C35.8913 18.3695 35.9397 18.4237 35.9861 18.4779C35.9841 18.5823 35.9841 18.6866 35.9821 18.791C35.8126 18.803 35.6815 18.8813 35.6331 19.0439C35.2297 20.4206 34.4692 21.6448 33.9589 22.9754C33.2367 23.8705 32.5388 24.7856 31.9336 25.767C31.2458 26.3249 30.6225 26.9451 30.0637 27.6274C29.0773 28.2295 28.1595 28.9239 27.2579 29.6424C25.035 31.0392 22.5902 31.7777 20.0022 32.1309C17.2911 32.5002 14.6547 32.2172 12.0586 31.3984C11.8145 31.3222 11.5462 31.27 11.3465 31.5248C10.8886 31.266 10.4872 30.9328 10.1241 30.5535Z" fill="#69CCE9"/>
<path d="M33.7148 27.4789C31.3366 31.0653 27.97 33.2006 23.7985 34.1318C22.6366 34.3907 21.4545 34.5432 20.2563 34.4228C21.1318 33.9492 22.1384 33.9693 23.0703 33.6943C26.2937 32.7471 29.2166 31.3101 31.7239 29.0383C32.3391 28.4804 32.8575 27.7498 33.7148 27.4789Z" fill="#46C0DB"/>
<path d="M19.9336 29.9755C19.6976 30.4793 19.2236 30.3889 18.804 30.415C14.9351 30.6498 11.4071 29.6103 8.15743 27.5652C7.87906 27.3886 7.61482 27.2843 7.29207 27.3204C7.19323 27.1598 7.09237 27.0013 6.99353 26.8427C7.08229 26.7384 7.17104 26.634 7.26181 26.5296C7.65112 26.329 7.93554 26.5317 8.24215 26.7484C10.0657 28.0529 12.0808 28.9359 14.2775 29.3815C15.6068 29.6504 16.9603 29.8571 18.3219 29.7166C18.7435 29.6725 19.1328 29.6404 19.5302 29.7829C19.6633 29.8471 19.7984 29.9113 19.9336 29.9755Z" fill="#80D2EF"/>
<path d="M31.6351 13.0532C31.6149 13.4968 31.5141 13.852 31.1591 14.1229C31.1127 14.1269 31.0643 14.1269 31.0179 14.1209C31.0058 14.0366 30.9916 13.9523 30.9795 13.8701C30.8242 13.6714 30.6265 13.559 30.6709 13.1977C31.028 10.1593 29.9669 7.59846 27.9135 5.39085C27.7723 5.24033 27.389 5.08781 27.7884 4.80283C28.0022 4.92123 28.2241 5.02961 28.446 5.13999C28.448 5.14199 28.448 5.14199 28.45 5.14199C29.0189 5.47113 29.5635 5.83639 30.0839 6.23175C30.0779 6.23777 30.0738 6.24178 30.0698 6.2458C30.0658 6.24981 30.0597 6.25583 30.0557 6.26185C30.0517 6.26587 30.0517 6.26587 30.0496 6.26787C30.0395 6.27791 30.0335 6.28593 30.0274 6.29597C30.0194 6.306 30.0133 6.31604 30.0073 6.32407C30.0012 6.33009 29.9972 6.33611 29.9952 6.34414C29.9911 6.35216 29.9871 6.35818 29.9831 6.36621C29.977 6.37625 29.973 6.38829 29.9689 6.40033C29.9387 6.48462 29.9528 6.56289 29.9871 6.63714C30.0073 6.6833 30.0375 6.72746 30.0678 6.7696C30.098 6.81175 30.1323 6.85188 30.1646 6.89202C30.1787 6.91209 30.1949 6.93216 30.209 6.95022C30.2231 6.97029 30.2352 6.98835 30.2453 7.00842C31.3083 8.8889 31.7319 10.9038 31.6351 13.0532Z" fill="#32ADDF"/>
<path d="M34.8343 25.3235C34.4046 25.2633 34.2614 25.6827 34.0859 25.9155C32.0768 28.5887 29.5231 30.5876 26.5135 32.0266C24.2079 33.1284 21.759 33.7164 19.2275 33.9773C18.9108 34.0114 18.6082 34.0275 18.3823 34.2804C18.4509 34.3024 18.5215 34.3205 18.5901 34.3386L19.9618 34.4429H19.9638C20.0626 34.4389 20.1594 34.4329 20.2583 34.4248C21.1337 33.9512 22.1403 33.9713 23.0722 33.6963C26.2976 32.7511 29.2185 31.3121 31.7258 29.0403C31.7984 28.9741 31.8711 28.9058 31.9396 28.8356C32.0607 28.7152 32.1797 28.5928 32.3007 28.4723C32.3411 28.4322 32.3814 28.3901 32.4217 28.3519C32.4681 28.3058 32.5165 28.2576 32.567 28.2135C32.6013 28.1793 32.6356 28.1492 32.6719 28.1171C32.7566 28.0409 32.8433 27.9686 32.9341 27.8984C32.9765 27.8663 33.0188 27.8362 33.0612 27.8061C33.1519 27.7438 33.2468 27.6856 33.3456 27.6355C33.3597 27.6254 33.3759 27.6194 33.392 27.6134C33.4021 27.6094 33.4122 27.6034 33.4202 27.5993C33.4344 27.5913 33.4505 27.5853 33.4666 27.5773C33.4747 27.5733 33.4807 27.5712 33.4888 27.5672C33.507 27.5592 33.5231 27.5532 33.5413 27.5452C33.5554 27.5391 33.5695 27.5351 33.5836 27.5291C33.5856 27.5271 33.5877 27.5271 33.5877 27.5271C33.628 27.513 33.6704 27.497 33.7147 27.4829L34.8343 25.3235Z" fill="#4AC4DE"/>
<path d="M35.7561 22.7888C35.6653 23.132 35.5625 23.4671 35.4495 23.7962C35.4475 23.7983 35.4455 23.8003 35.4434 23.8003C35.4071 23.8223 35.3728 23.8484 35.3406 23.8745C35.3043 23.9006 35.27 23.9287 35.2377 23.9568C35.2034 23.9849 35.1711 24.015 35.1409 24.0471C35.1147 24.0712 35.0884 24.0973 35.0642 24.1234C35.0481 24.1414 35.0299 24.1595 35.0138 24.1776C34.9956 24.1956 34.9795 24.2137 34.9634 24.2317C34.9371 24.2618 34.9129 24.292 34.8887 24.3241C34.8665 24.3522 34.8464 24.3782 34.8262 24.4084C34.8222 24.4144 34.8161 24.4204 34.8121 24.4264C34.808 24.4344 34.802 24.4405 34.798 24.4485C34.7959 24.4505 34.7939 24.4525 34.7939 24.4545C34.7697 24.4886 34.7475 24.5227 34.7233 24.5569C33.7047 26.0922 32.4742 27.4508 31.1025 28.673C29.7107 29.9133 28.1595 30.9489 26.4631 31.7296C23.6632 33.02 20.7263 33.7505 17.6158 33.6743C17.2749 33.6642 16.9542 33.7606 16.6718 33.9613C16.3692 33.885 16.0687 33.8087 15.7661 33.7325C15.6511 33.7044 15.5361 33.6743 15.4211 33.6462C15.4232 33.6381 15.4252 33.6321 15.4272 33.6241C15.4373 33.596 15.4453 33.5699 15.4575 33.5458C15.4575 33.5458 15.4575 33.5438 15.4595 33.5438C15.4635 33.5338 15.4696 33.5238 15.4736 33.5137C15.5159 33.4395 15.5684 33.3933 15.6289 33.3692C15.639 33.3652 15.6471 33.3612 15.6572 33.3592C15.7177 33.3391 15.7842 33.3371 15.8528 33.3391C15.9174 33.3431 15.9839 33.3532 16.0485 33.3612C16.0626 33.3632 16.0808 33.3652 16.0949 33.3672C16.1251 33.3712 16.1574 33.3712 16.1856 33.3712H16.1957C17.8458 33.3512 19.4877 33.3612 21.1297 33.0782C26.4025 32.1631 30.5518 29.4798 33.7995 25.3175C34.3401 24.6251 34.7859 23.8765 35.2195 23.1179C35.3849 22.8309 35.4858 22.7246 35.6189 22.7406C35.625 22.7426 35.6331 22.7426 35.6411 22.7446C35.6512 22.7466 35.6593 22.7486 35.6694 22.7526C35.6795 22.7567 35.6916 22.7607 35.7037 22.7647C35.7077 22.7667 35.7137 22.7687 35.7178 22.7707C35.7299 22.7767 35.742 22.7828 35.7561 22.7888Z" fill="#55C7E1"/>
<path d="M4.94623 21.3237C4.65374 20.242 4.6719 19.1402 4.69409 18.0344C5.33554 17.8738 5.29117 18.6846 5.75511 18.7769C6.14039 18.9174 6.58013 19.0037 6.66687 19.4974C6.80807 20.3022 7.45961 20.4547 8.09098 20.6454C8.75462 20.8822 9.24883 21.2555 9.2105 22.0482C9.19235 22.1385 9.17621 22.2288 9.16007 22.3211C9.06527 22.3874 8.96643 22.4516 8.87162 22.5178C7.62502 21.8395 6.30983 21.2816 5.2367 20.3624C4.86151 20.6955 5.02894 21.0387 4.94623 21.3237Z" fill="#3566AA"/>
<path d="M36.0991 21.1632C36.0123 21.7151 35.8974 22.2569 35.7541 22.7888C35.742 22.7828 35.7279 22.7767 35.7178 22.7707C35.7118 22.7667 35.7078 22.7667 35.7037 22.7647C35.6916 22.7607 35.6815 22.7547 35.6694 22.7527C35.6593 22.7486 35.6493 22.7466 35.6412 22.7446C35.6331 22.7426 35.6271 22.7406 35.619 22.7406C35.4859 22.7246 35.385 22.8309 35.2196 23.1179C34.7859 23.8785 34.3401 24.6251 33.7995 25.3175C30.5519 29.4798 26.4026 32.1651 21.1298 33.0782C19.4858 33.3632 17.8458 33.3512 16.1958 33.3712H16.1857C16.1575 33.3712 16.1252 33.3692 16.0949 33.3672C16.0808 33.3652 16.0627 33.3632 16.0485 33.3612C15.984 33.3532 15.9174 33.3431 15.8529 33.3391C15.7843 33.3351 15.7177 33.3371 15.6572 33.3592C15.6471 33.3632 15.637 33.3652 15.629 33.3692C15.5685 33.3953 15.516 33.4395 15.4736 33.5137C15.4696 33.5238 15.4636 33.5338 15.4595 33.5438C15.4575 33.5458 15.4575 33.5458 15.4575 33.5458C15.4454 33.5699 15.4353 33.596 15.4273 33.6241C15.4232 33.6301 15.4232 33.6381 15.4212 33.6462C15.3264 33.604 15.2296 33.5639 15.1348 33.5217C14.806 33.3793 14.4792 33.2368 14.1504 33.0943C14.3299 32.8193 14.6123 32.8755 14.8584 32.9137C18.0859 33.4134 21.2346 33.0782 24.2947 31.9824C27.6714 30.7723 30.5358 28.8256 32.8515 26.0621C33.9407 24.7616 34.7557 23.3126 35.6129 21.8736C35.7562 21.6268 35.9337 21.4 36.0991 21.1632Z" fill="#59C8E3"/>
<path d="M35.4475 23.7962C35.2679 24.318 35.0622 24.8278 34.8322 25.3235C34.4026 25.2633 34.2594 25.6827 34.0839 25.9155C32.0748 28.5887 29.521 30.5876 26.5114 32.0266C24.2058 33.1284 21.757 33.7164 19.2255 33.9773C18.9088 34.0114 18.6062 34.0275 18.3803 34.2803C18.3097 34.2844 18.2411 34.2844 18.1705 34.2824C18.1685 34.2824 18.1665 34.2824 18.1645 34.2803L16.9562 34.0556C16.9542 34.0536 16.9521 34.0536 16.9501 34.0536C16.8553 34.0255 16.7605 33.9934 16.6677 33.9633C16.9501 33.7626 17.2709 33.6662 17.6118 33.6763C20.7222 33.7525 23.6592 33.022 26.459 31.7316C28.1554 30.9489 29.7066 29.9153 31.0985 28.675C32.4701 27.4528 33.7006 26.0941 34.7193 24.5589C34.7415 24.5247 34.7657 24.4906 34.7899 24.4565C34.7919 24.4545 34.7939 24.4525 34.7939 24.4505C34.804 24.4364 34.8141 24.4244 34.8221 24.4103C34.8423 24.3823 34.8625 24.3521 34.8847 24.3261C34.9089 24.296 34.9351 24.2638 34.9593 24.2337C34.9754 24.2137 34.9916 24.1956 35.0097 24.1796C35.0239 24.1595 35.044 24.1414 35.0602 24.1254C35.0864 24.0993 35.1106 24.0732 35.1368 24.0491C35.1671 24.019 35.2014 23.9889 35.2336 23.9588C35.2679 23.9307 35.3002 23.9026 35.3365 23.8765C35.3708 23.8504 35.4031 23.8263 35.4394 23.8023C35.4454 23.8002 35.4475 23.7982 35.4475 23.7962Z" fill="#50C6DF"/>
<path d="M32.2725 13.557C32.1877 13.9824 32.0385 14.4561 32.2482 14.9096C32.0405 15.026 31.8327 15.0862 31.6209 14.9157C31.5705 14.7591 31.52 14.6006 31.4696 14.444C31.3647 14.3357 31.2619 14.2313 31.157 14.1229C31.512 13.854 31.6128 13.4968 31.633 13.0532C31.7298 10.9058 31.3082 8.88889 30.2371 7.0064C30.227 6.98834 30.2149 6.96827 30.2008 6.9482C30.1867 6.93014 30.1726 6.91007 30.1564 6.89C30.1242 6.84987 30.0899 6.80973 30.0596 6.76758C30.0294 6.72544 29.9991 6.68128 29.9789 6.63513C29.9446 6.56087 29.9325 6.4826 29.9608 6.39831C29.9648 6.38627 29.9689 6.37623 29.9749 6.36419C29.9789 6.35616 29.983 6.35014 29.987 6.34212C29.991 6.3361 29.9931 6.33007 29.9991 6.32205C30.0031 6.31201 30.0112 6.30198 30.0193 6.29395C30.0253 6.28392 30.0334 6.27589 30.0415 6.26585C30.0435 6.26385 30.0455 6.26184 30.0475 6.25983C30.0576 6.2498 30.0677 6.23776 30.0778 6.22772C30.6022 6.6271 31.1025 7.06059 31.5725 7.52017C31.5221 7.93962 31.6491 8.33297 31.7661 8.72633C32.2261 10.3078 32.6073 11.8852 32.2725 13.557Z" fill="#35A5DD"/>
<path d="M34.7113 11.8732C34.6911 11.9314 34.6709 11.9876 34.6528 12.0458C34.6346 12.0999 34.6185 12.1561 34.6024 12.2123C34.6003 12.2143 34.6003 12.2163 34.6003 12.2183C34.5822 12.2826 34.564 12.3468 34.5499 12.413C34.5277 12.4973 34.5096 12.5816 34.4934 12.6659C34.4834 12.7201 34.4713 12.7743 34.4632 12.8285C34.4491 12.9027 34.437 12.975 34.4269 13.0492C34.4168 13.1114 34.4087 13.1756 34.4006 13.2379C34.3926 13.3041 34.3865 13.3703 34.3785 13.4345C34.3744 13.4727 34.3704 13.5108 34.3684 13.5489C34.3643 13.5891 34.3623 13.6272 34.3583 13.6673C34.3522 13.7456 34.3462 13.8239 34.3422 13.9042C34.3361 14.0346 34.328 14.1651 34.324 14.2955C34.322 14.3537 34.32 14.4159 34.3179 14.4741C34.3058 14.8374 34.2998 15.2006 34.2857 15.5639C33.6886 16.3325 33.6563 17.2677 33.5151 18.1688C33.4284 18.2973 33.3497 18.4358 33.1783 18.4719C32.9523 18.0825 33.0411 17.5768 32.7183 17.2256C32.7143 17.0751 32.7123 16.9246 32.7083 16.774C33.6624 15.1645 33.7874 13.3964 33.7047 11.5862C33.6946 11.3433 33.6019 11.0844 33.6019 10.8376C33.6019 10.8155 33.6039 10.7914 33.6059 10.7694C33.6059 10.7633 33.6079 10.7553 33.6079 10.7473V10.7433C33.6099 10.7272 33.6119 10.7092 33.614 10.6951C33.616 10.6851 33.618 10.675 33.62 10.667C33.624 10.655 33.6261 10.6449 33.6301 10.6329C33.6341 10.6208 33.6361 10.6108 33.6402 10.5988C33.6442 10.5867 33.6503 10.5727 33.6543 10.5606C33.6583 10.5486 33.6644 10.5345 33.6725 10.5225C33.6825 10.5044 33.6906 10.4884 33.7027 10.4703C33.7088 10.4603 33.7168 10.4483 33.7249 10.4382C33.733 10.4282 33.739 10.4161 33.7491 10.4061C33.7592 10.3961 33.7673 10.386 33.7773 10.376C33.7874 10.366 33.7975 10.3559 33.8056 10.3459C33.8157 10.3359 33.8278 10.3238 33.8399 10.3158C34.1606 10.8195 34.4491 11.3373 34.7113 11.8732Z" fill="#3992CF"/>
<path d="M4.94604 21.3237C5.02875 21.0387 4.86132 20.6976 5.23652 20.3604C6.30763 21.2796 7.62281 21.8375 8.87143 22.5158C8.70804 22.9634 8.62736 23.421 8.69997 23.8966C8.65963 23.9147 8.6213 23.9327 8.58298 23.9548C8.56482 23.6839 8.54667 23.4129 8.52852 23.13C8.30865 23.2042 8.47809 23.5233 8.15736 23.5333C7.53002 23.1801 6.7635 23.0115 6.11801 22.556C5.78922 22.3232 5.3172 22.0743 5.27081 22.845C5.05699 22.3613 4.94604 21.8536 4.94604 21.3237Z" fill="#365CA8"/>
<path d="M33.8419 10.3198C33.8298 10.3298 33.8197 10.3399 33.8076 10.3499C33.7975 10.3599 33.7875 10.37 33.7794 10.38C33.7693 10.3901 33.7612 10.4001 33.7511 10.4101C33.7411 10.4202 33.735 10.4322 33.7269 10.4422C33.7189 10.4523 33.7128 10.4643 33.7047 10.4743C33.6926 10.4924 33.6826 10.5085 33.6745 10.5265C33.6684 10.5386 33.6624 10.5526 33.6563 10.5647C33.6523 10.5787 33.6463 10.5907 33.6422 10.6028C33.6382 10.6148 33.6341 10.6249 33.6321 10.6369C33.6301 10.6489 33.6261 10.659 33.622 10.671C33.62 10.6811 33.618 10.6891 33.616 10.6991C33.612 10.7132 33.612 10.7312 33.6099 10.7473V10.7513C33.6079 10.7573 33.6079 10.7653 33.6079 10.7734C33.6059 10.7954 33.6039 10.8195 33.6039 10.8416C33.6019 11.0865 33.6947 11.3453 33.7068 11.5902C33.7875 13.4004 33.6644 15.1665 32.7103 16.7781C32.4965 16.5071 32.3976 16.1961 32.3956 15.8529C32.2847 15.3331 32.7769 15.018 32.8414 14.5725C33.0371 13.2499 33.1097 11.9294 32.9241 10.5867C32.8475 10.0429 32.4884 9.47891 32.8233 8.90494C33.1904 9.35649 33.5293 9.82812 33.8419 10.3198Z" fill="#3998D4"/>
<path d="M9.52099 8.12024C8.45391 9.8221 7.94156 11.6765 7.93147 13.6754C7.64503 13.7817 7.51594 14.153 7.15487 14.137C7.12864 13.1054 7.14074 12.0759 7.38079 11.0664C7.45744 10.7393 7.57645 10.4182 7.32632 10.1151C7.96375 9.11567 8.71211 8.21055 9.63799 7.46198C9.93451 7.73692 9.64 7.93159 9.52099 8.12024Z" fill="#BDE5F0"/>
<path d="M32.8434 14.5705C32.7768 15.018 32.2866 15.3311 32.3976 15.8509C32.1616 15.5659 32.2887 15.2247 32.2463 14.9096C32.0365 14.4581 32.1858 13.9824 32.2705 13.557C32.6054 11.8852 32.2261 10.3078 31.7642 8.72834C31.6492 8.33499 31.5201 7.94163 31.5706 7.52219C32.0143 7.95769 32.4339 8.41727 32.8232 8.90294C32.4904 9.47692 32.8494 10.0409 32.9241 10.5847C33.1137 11.9274 33.039 13.2479 32.8434 14.5705Z" fill="#369FD9"/>
<path d="M5.27283 22.847C5.31922 22.0783 5.79325 22.3272 6.12003 22.558C6.76552 23.0155 7.53003 23.1841 8.15938 23.5353C8.48011 23.5253 8.30865 23.2042 8.53054 23.1319C8.55071 23.4149 8.56684 23.6858 8.585 23.9568C8.55676 24.2418 8.5265 24.5267 8.49826 24.8097C8.30865 24.9081 8.24006 25.2292 7.93346 25.1188C7.409 24.4324 6.34595 24.015 5.73072 24.2538C5.48059 23.8163 5.32326 23.3487 5.27283 22.847Z" fill="#3454A4"/>
<path d="M7.38085 11.0664C7.14282 12.0779 7.13072 13.1054 7.15493 14.137C6.93506 14.3898 6.58811 14.0025 6.3763 14.2915C6.14635 14.4561 5.87201 14.3055 5.61987 14.3055C5.60575 14.3055 5.59163 14.3076 5.57751 14.3076C5.56339 14.3076 5.54927 14.3096 5.53717 14.3116C5.52506 14.3136 5.51498 14.3156 5.50288 14.3176C5.49279 14.3196 5.48472 14.3216 5.47665 14.3236C5.46657 14.3276 5.45648 14.3296 5.44639 14.3357C5.43833 14.3397 5.43227 14.3417 5.42421 14.3457C5.41614 14.3497 5.41009 14.3517 5.40202 14.3557C5.37176 14.3738 5.3415 14.3959 5.31125 14.424C5.30519 14.43 5.29914 14.436 5.29309 14.442V14.44C5.39395 14.0607 5.51094 13.6854 5.64408 13.3181C5.64811 13.3081 5.65013 13.2981 5.65416 13.288C5.68845 13.1957 5.72275 13.1014 5.76107 13.0091C5.78528 12.9469 5.8115 12.8826 5.83772 12.8204C5.85991 12.7662 5.88412 12.7101 5.90631 12.6559C5.90631 12.6539 5.90631 12.6519 5.90832 12.6498C5.91236 12.6378 5.91841 12.6278 5.92244 12.6157C5.94463 12.5635 5.96884 12.5094 5.99103 12.4552C6.35613 11.6343 6.80192 10.8537 7.32638 10.1071C7.5745 10.4182 7.4575 10.7393 7.38085 11.0664Z" fill="#B4E2EF"/>
<path d="M5.72876 24.2538C6.34601 24.013 7.40905 24.4304 7.93149 25.1188C7.88106 25.1349 7.83265 25.1529 7.78424 25.171C7.02983 25.4018 7.61883 26.1463 7.25978 26.5297C7.17103 26.634 7.08227 26.7384 6.9915 26.8427C6.44888 26.04 5.9688 25.2051 5.72876 24.2538Z" fill="#334C9F"/>
<path d="M22.8604 4.38338C21.989 4.27099 21.1176 4.1586 20.2442 4.04822C20.0868 3.82947 19.8387 3.93584 19.633 3.88767C19.5563 3.72712 19.7479 3.70905 19.7762 3.6067C19.8669 3.53245 20.0102 3.49231 19.9234 3.26151H18.6748C19.9819 3.03875 21.287 3.01466 22.5921 3.27355C22.4207 3.2856 22.2472 3.29563 22.0757 3.30968C22.1423 3.84352 22.8685 3.8395 22.8604 4.38338Z" fill="#B9E4EF"/>
<path d="M35.4717 13.7276C35.4576 13.7456 35.4434 13.7637 35.4313 13.7817C35.4172 13.7998 35.4031 13.8179 35.389 13.8359C35.3789 13.848 35.3708 13.858 35.3607 13.8701C35.3486 13.8841 35.3365 13.9002 35.3265 13.9162V13.9182C35.3143 13.9323 35.3043 13.9503 35.2962 13.9644C35.2922 13.9724 35.2861 13.9784 35.2821 13.9865C35.278 13.9945 35.274 14.0005 35.272 14.0085C35.2639 14.0266 35.2579 14.0426 35.2538 14.0607C35.2518 14.0667 35.2498 14.0728 35.2498 14.0788C35.2478 14.0908 35.2478 14.1029 35.2478 14.1149C35.2942 14.6407 34.9492 14.8615 34.5882 15.0903C34.4873 15.2468 34.3844 15.4073 34.2836 15.5659C34.2977 15.2026 34.3037 14.8394 34.3158 14.4761C34.3179 14.4159 34.3199 14.3557 34.3219 14.2975C34.3259 14.1671 34.334 14.0366 34.3401 13.9062C34.3441 13.8279 34.3501 13.7496 34.3562 13.6694C34.3602 13.6292 34.3622 13.5911 34.3663 13.551C34.3703 13.5128 34.3723 13.4747 34.3764 13.4366C34.3824 13.3703 34.3905 13.3041 34.3985 13.2399C34.4066 13.1777 34.4147 13.1134 34.4248 13.0512C34.4349 12.977 34.447 12.9047 34.4611 12.8305C34.4712 12.7763 34.4813 12.7221 34.4913 12.6679C34.5075 12.5836 34.5256 12.4993 34.5478 12.415C34.5619 12.3508 34.5821 12.2846 34.5982 12.2204C34.6003 12.2164 34.6003 12.2164 34.6003 12.2144C34.6144 12.1582 34.6325 12.102 34.6507 12.0478C34.6688 11.9896 34.687 11.9334 34.7092 11.8752C35.0037 12.4712 35.2579 13.0894 35.4717 13.7276Z" fill="#398ACA"/>
<path d="M5.75726 18.7749C5.29533 18.6846 5.33769 17.8758 4.69825 18.0324L4.69421 18.0344C4.71237 17.4102 4.75876 16.7881 4.88988 16.18C4.94838 15.905 5.02301 15.6301 5.12387 15.3612C5.11378 15.8007 5.09361 16.2442 5.5979 16.461C5.63219 17.0028 5.81575 17.5126 6.06588 17.9722C6.32004 18.4318 6.0921 18.5983 5.75726 18.7749Z" fill="#A4DCEE"/>
<path d="M6.53161 14.9116C6.47917 15.014 6.42672 15.1183 6.37428 15.2207C5.9305 15.1926 5.73282 15.4013 5.74896 15.8428C5.75501 16.0576 5.81351 16.2984 5.59767 16.463C5.09338 16.2442 5.11355 15.8007 5.12364 15.3632C5.0248 15.6321 4.94815 15.9071 4.88965 16.182C5.05102 15.1966 5.30317 14.2413 5.64205 13.3262C5.50892 13.6934 5.39192 14.0667 5.29106 14.448V14.45C5.29711 14.444 5.30317 14.438 5.30922 14.432C5.33746 14.4039 5.36771 14.3798 5.39999 14.3637C5.40806 14.3597 5.41411 14.3557 5.42218 14.3537C5.43025 14.3497 5.4363 14.3437 5.44437 14.3437C5.45445 14.3397 5.46454 14.3336 5.47462 14.3316C5.48471 14.3276 5.49278 14.3276 5.50085 14.3256C5.51295 14.3216 5.52304 14.3196 5.53514 14.3196C5.54926 14.3156 5.56338 14.3156 5.57548 14.3156C5.5896 14.3136 5.60372 14.3136 5.61784 14.3136C5.86999 14.3116 6.14634 14.4621 6.37428 14.2995C6.60423 14.4541 6.50942 14.6969 6.53161 14.9116Z" fill="#A6DDEE"/>
<path d="M5.29102 14.444C5.29713 14.438 5.30325 14.432 5.30937 14.426C5.30325 14.434 5.29713 14.44 5.29102 14.444Z" fill="#9EDBEF"/>
<path d="M19.7762 3.60871C19.5019 3.48428 19.2235 3.59466 18.9471 3.59065C18.7132 3.58663 18.3985 3.68497 18.3702 3.27957C18.4711 3.27355 18.574 3.26954 18.6768 3.26352H19.9255C20.0102 3.49431 19.867 3.53445 19.7762 3.60871Z" fill="#7BBACB"/>
<path d="M33.9608 22.9734C34.4712 21.6428 35.2316 20.4166 35.6351 19.0419C35.6815 18.8793 35.8146 18.801 35.984 18.789C35.4616 19.959 35.1025 21.1953 34.449 22.3091C34.3098 22.5459 34.2573 22.849 33.9608 22.9734Z" fill="#69CCE8"/>
<path d="M27.2599 29.6404C28.1595 28.9219 29.0794 28.2275 30.0658 27.6254C29.2972 28.5285 28.3512 29.1828 27.2599 29.6404Z" fill="#69CCE8"/>
<path d="M31.9336 25.765C32.5387 24.7836 33.2367 23.8705 33.9588 22.9734C33.5009 24.0591 32.8433 25.0024 31.9336 25.765Z" fill="#69CCE8"/>
<path d="M30.0637 27.6254C30.6245 26.9411 31.2478 26.3209 31.9336 25.765C31.4979 26.5698 30.8746 27.1899 30.0637 27.6254Z" fill="#69CCE8"/>
<path d="M35.2115 15.5258C35.5786 15.9813 35.4415 16.6376 35.8348 17.0831C35.389 16.8222 35.2862 17.1493 35.2236 17.4624C35.0118 18.5 34.683 19.5055 34.2534 20.4688C33.4505 22.261 32.5247 23.9829 31.0017 25.2994C31.0844 24.7857 31.2155 24.2759 31.159 23.7481C31.4576 23.9588 31.6069 23.7822 31.7622 23.5434C32.1232 22.9875 32.567 22.4737 32.8535 21.8837C33.3699 20.812 34.2312 19.8145 33.8076 18.4759C34.0517 18.4177 34.0537 18.7348 34.1868 18.7649C34.7577 17.7374 34.6528 16.5332 35.2115 15.5258Z" fill="#79D0ED"/>
<path d="M30.9977 25.2994C32.5206 23.9829 33.4465 22.2609 34.2493 20.4688C34.679 19.5054 35.0098 18.502 35.2196 17.4624C35.2842 17.1473 35.385 16.8222 35.8308 17.0831C35.8348 17.4945 35.8389 17.9039 35.8429 18.3153C35.389 18.5 35.3366 18.9375 35.2095 19.3208C34.3623 21.8736 33.0108 24.1254 31.153 26.0761C31.0824 25.8212 30.6225 25.6446 30.9977 25.2994Z" fill="#6FCDEB"/>
<path d="M35.2116 15.5257C34.6548 16.5332 34.7577 17.7374 34.1848 18.7669C34.0537 18.7368 34.0517 18.4197 33.8056 18.4779C33.7088 18.3776 33.614 18.2752 33.5192 18.1749C33.6583 17.2718 33.6926 16.3385 34.2877 15.5699C34.3886 15.4114 34.4914 15.2528 34.5923 15.0943C34.9393 15.0381 35.1672 15.1525 35.2116 15.5257Z" fill="#7DD1EE"/>
<path d="M17.285 22.0442C16.3047 22.4757 15.399 22.0522 14.5357 21.7131C11.3667 20.4648 9.39393 18.1046 8.92192 14.7892C8.41763 11.243 9.66826 8.25873 12.6738 6.12538C12.8997 5.96483 13.1277 5.87452 13.1499 5.50123C13.17 5.16809 13.632 4.98746 13.8599 5.05971C14.6143 5.30255 15.2134 4.81888 15.8932 4.74864C16.579 4.68041 17.279 4.47972 17.9063 4.95736C17.5735 4.98746 17.2971 5.16006 17.0067 5.30054C16.4782 5.50123 15.8529 5.44303 15.4151 5.89058C15.2578 5.88857 15.1005 5.88656 14.9451 5.88455C14.5861 5.62566 14.2573 5.79826 13.9285 5.9548C10.2774 7.70282 8.47209 11.8932 9.58153 15.6642C10.5498 18.9516 12.7767 20.9806 16.1716 21.7071C16.5488 21.7893 17.0329 21.5445 17.285 22.0442Z" fill="#CCEAF1"/>
<path d="M8.08881 14.7531C8.32481 15.7003 8.56687 16.6456 9.01468 17.5186C10.5699 20.5571 13.0066 22.4315 16.4197 22.9313C16.8897 22.9995 17.5533 23.3286 17.9265 22.6282C17.9648 22.6563 18.0052 22.6804 18.0475 22.7005C18.106 23.0477 18.1645 23.3969 18.225 23.7441C17.9305 23.7922 17.63 23.9046 17.3435 23.8765C14.4388 23.6076 11.879 22.572 9.91837 20.3544C8.58099 18.8432 7.63898 17.1253 7.47156 15.0642C7.73782 15.0862 7.87499 14.8434 8.08881 14.7531Z" fill="#BEE5F0"/>
<path d="M17.285 22.0442C17.0328 21.5445 16.5467 21.7893 16.1695 21.7091C12.7766 20.9826 10.5497 18.9536 9.58147 15.6662C8.47002 11.8973 10.2774 7.70482 13.9305 5.95881C14.2593 5.80227 14.5881 5.62968 14.9471 5.88857C14.5255 6.06919 14.8483 6.3341 14.8684 6.5649C14.6405 6.55888 14.4105 6.55085 14.1826 6.54483C13.4121 6.66725 12.8069 7.07867 12.2441 7.59444C10.6828 9.02136 9.83765 10.8216 9.68233 12.8786C9.56937 14.3738 9.72066 15.887 10.7978 17.1413C10.9471 16.9547 10.8422 16.7259 11.0258 16.6135C11.2961 17.8899 11.9415 18.9094 13.0772 19.5938C13.4463 20.1136 13.9627 20.4126 14.5477 20.6574C15.3425 20.9886 16.1695 21.117 17.0086 21.2254C17.1458 21.404 17.285 21.5826 17.4222 21.7612C17.4262 21.8054 17.4322 21.8495 17.4383 21.8937C17.3879 21.9439 17.3354 21.994 17.285 22.0442Z" fill="#CDEBF1"/>
<path d="M17.4384 21.8957C17.4323 21.8515 17.4263 21.8074 17.4222 21.7632C17.7288 21.6147 18.0092 21.7592 18.2957 21.8395C19.9699 22.3011 21.6542 22.3493 23.3285 21.8636C24.1878 21.6147 25.0189 21.2736 25.864 20.9765C25.862 21.0227 25.858 21.0668 25.8499 21.113C25.3134 21.3699 25.2549 21.9679 24.9321 22.3794C24.7667 22.1847 24.5831 22.3392 24.4399 22.3914C22.6568 23.0336 20.8393 23.1199 18.9714 22.863C18.6628 22.8209 18.3844 22.5319 18.0455 22.7065C18.0032 22.6864 17.9628 22.6623 17.9245 22.6342C17.9386 22.269 17.7127 22.0663 17.4384 21.8957Z" fill="#3D8FCD"/>
<path d="M17.0067 5.30455C17.2972 5.16407 17.5735 4.99147 17.9064 4.96137C18.6325 4.52186 19.4011 4.18871 20.2443 4.05023C21.1177 4.16262 21.9891 4.27501 22.8605 4.38739C22.8746 4.4777 22.8908 4.56801 22.9049 4.65833C22.8504 4.71653 22.7939 4.77673 22.7375 4.83493C21.9609 5.27445 21.1136 5.49521 20.2362 5.61362C19.6028 5.50123 20.0466 5.12393 20.1152 4.77071C19.7521 4.93929 19.4777 5.06774 19.2074 5.19417C19.4273 5.8986 19.044 6.27991 18.1968 6.24178C18.1989 5.8705 18.1625 5.55542 17.6502 5.79625C17.1358 6.03507 17.045 5.69991 17.0067 5.30455Z" fill="#3DC4EA"/>
<path d="M8.08879 14.7531C7.87497 14.8434 7.73579 15.0842 7.4675 15.0662C7.13669 15.1183 6.8442 14.9618 6.53154 14.9096C6.50935 14.6969 6.60416 14.4521 6.37622 14.2895C6.58802 14.0005 6.93699 14.3878 7.15484 14.135C7.51591 14.151 7.64501 13.7797 7.93145 13.6734C7.9839 14.0346 8.03634 14.3939 8.08879 14.7531Z" fill="#A6DDEE"/>
<path d="M19.9336 29.9755C19.7985 29.9113 19.6633 29.8471 19.5282 29.7829C19.5564 29.3293 19.2659 28.9741 19.1489 28.5647C19.4676 28.3138 19.7924 28.2516 20.214 28.3439C20.6295 28.4342 21.1036 28.4523 21.511 28.3459C21.985 28.2235 22.3602 28.2877 22.7374 28.5486C22.3764 28.9299 22.1141 29.4136 21.5897 29.6223C21.0773 29.9213 20.448 29.6885 19.9336 29.9755Z" fill="#3463AE"/>
<path d="M21.5876 29.6203C22.1121 29.4116 22.3743 28.9279 22.7354 28.5466C22.9775 28.4884 23.0662 28.3238 23.0501 28.089C23.3063 28.4423 23.6028 28.4342 23.98 28.2576C24.5024 28.0128 24.9684 27.6214 25.5877 27.6114C25.6784 27.6796 25.7672 27.7479 25.856 27.8141C26.0315 28.077 25.8439 28.1693 25.6482 28.2757C24.3754 28.964 23.0904 29.6183 21.5876 29.6203Z" fill="#83D3EF"/>
<path d="M30.9976 25.2994C30.6204 25.6446 31.0823 25.8212 31.1549 26.0741C31.042 26.2567 30.8584 26.2246 30.687 26.2306C30.5821 26.1805 30.4772 26.1283 30.3743 26.0781C30.1322 25.9336 29.9245 25.7008 29.5957 25.769C29.4908 25.6647 29.3879 25.5603 29.285 25.456C29.283 25.4058 29.281 25.3556 29.281 25.3074C29.6421 24.4926 30.3763 24.019 30.9956 23.443C31.048 23.5454 31.1025 23.6477 31.157 23.7501C31.2134 24.2779 31.0823 24.7856 30.9976 25.2994Z" fill="#55C9F3"/>
<path d="M29.2811 25.3054C29.2831 25.3556 29.2831 25.4058 29.2851 25.4539C28.8434 26.1242 28.1656 26.5377 27.5383 26.9952C27.3547 27.1297 27.0783 27.497 26.7637 27.1096C26.7838 26.8628 26.7818 26.6099 26.9593 26.4052C27.2579 26.0299 27.2357 25.4981 27.5786 25.1449C27.8146 24.9903 28.0789 24.9763 28.3492 24.9863C28.6255 25.193 28.914 25.3636 29.2811 25.3054Z" fill="#84D3EE"/>
<path d="M26.9613 26.4052C26.7838 26.6099 26.7878 26.8628 26.7656 27.1096C26.5538 27.4609 26.3581 27.8341 25.8559 27.8141C25.7651 27.7458 25.6764 27.6776 25.5876 27.6114C25.7288 27.3465 25.5674 27.1016 25.5392 26.8467C25.64 26.6782 25.753 26.5236 25.9809 26.5236C26.2956 26.3992 26.5457 25.7269 26.9613 26.4052Z" fill="#517386"/>
<path d="M29.7612 12.9168C29.7571 13.1837 29.7107 13.4064 29.5292 13.579C29.505 13.6051 29.4767 13.6292 29.4445 13.6493L29.4425 13.6513C29.1742 13.6814 29.0229 13.4667 28.8171 13.3603C28.8191 13.3081 28.8192 13.2579 28.8151 13.2058C28.6336 13.0251 28.5569 12.8064 28.4742 12.5555C28.2543 11.9013 28.452 11.2229 28.2725 10.5747C27.5463 7.93962 25.9306 6.13541 23.3042 5.25036C23.0864 5.17811 22.7556 5.19818 22.7374 4.83091C22.7919 4.77271 22.8484 4.71251 22.9028 4.6543H22.9049C23.8287 4.44559 24.7586 4.29507 25.7107 4.35728C25.509 4.46766 25.2972 4.54995 25.0289 4.52988C27.4374 6.06516 29.154 7.99381 29.5998 10.8456C29.7087 11.534 29.7672 12.2204 29.7612 12.9168Z" fill="#37C0E9"/>
<path d="M28.8191 13.3603C29.0229 13.4667 29.1762 13.6814 29.4445 13.6513C29.9225 13.9543 30.4773 13.7255 30.9775 13.87C30.9896 13.9543 31.0037 14.0386 31.0158 14.1209C30.5882 14.3637 31.1369 15.1665 30.3784 15.2207C30.4672 15.7826 30.4389 16.2864 29.7511 16.461C29.5715 16.3285 29.624 16.17 29.6704 15.9873C29.7753 15.5759 29.866 15.1565 29.6139 14.7571C29.6603 14.0627 28.8131 14.0426 28.6598 13.4988C28.7122 13.4546 28.7667 13.4064 28.8191 13.3603Z" fill="#A7DDEE"/>
<path d="M19.151 28.5647C19.268 28.9741 19.5584 29.3293 19.5302 29.7829C19.1328 29.6384 18.7455 29.6725 18.3219 29.7166C16.9603 29.8571 15.6088 29.6504 14.2775 29.3815C12.0808 28.936 10.0637 28.0529 8.24218 26.7484C7.93759 26.5297 7.65317 26.329 7.26184 26.5297C7.62089 26.1463 7.03188 25.4018 7.7863 25.171C10.2977 27.4328 13.3234 28.4944 16.6255 28.8356C17.4102 28.9179 18.2836 29.1106 19.0118 28.5225C19.0582 28.5366 19.1046 28.5506 19.151 28.5647Z" fill="#89D4EE"/>
<path d="M30.3763 15.2207C31.1348 15.1665 30.5861 14.3637 31.0138 14.1209C31.0602 14.1269 31.1086 14.1269 31.155 14.1229C31.2599 14.2293 31.3647 14.3357 31.4676 14.444C31.3022 14.5524 31.274 14.721 31.2215 14.8996C31.0904 15.3532 30.8201 15.5318 30.3763 15.2207Z" fill="#7DD1EB"/>
<path d="M18.3925 24.3742C18.2715 24.5789 18.1545 24.7836 18.0355 24.9883C17.862 24.7214 17.6098 24.6773 17.3032 24.6732C15.157 24.6532 13.2144 23.9929 11.4272 22.8189C10.7959 22.4034 10.2331 21.8997 9.72275 21.4802C9.31932 21.5906 9.77923 22.1706 9.21241 22.0462C9.25073 21.2535 8.75855 20.8822 8.09288 20.6434C8.21391 20.5591 8.33696 20.4728 8.46808 20.3825C7.42319 18.803 6.53766 17.1533 6.37427 15.2207C6.42671 15.1183 6.47916 15.014 6.53161 14.9116C6.84427 14.9638 7.13675 15.1203 7.46757 15.0682C7.63701 17.1273 8.57902 18.8452 9.91438 20.3564C11.8751 22.576 14.4348 23.6096 17.3395 23.8785C17.626 23.9046 17.9265 23.7922 18.221 23.746C18.2634 23.7601 18.3058 23.7762 18.3501 23.7882C18.3642 23.9829 18.3784 24.1775 18.3925 24.3742Z" fill="#B4E2EF"/>
<path d="M9.2104 22.0462C9.77723 22.1706 9.31731 21.5886 9.72075 21.4803C10.2291 21.8997 10.7939 22.4034 11.4252 22.8189C13.2124 23.9909 15.155 24.6532 17.3012 24.6733C17.6078 24.6753 17.858 24.7214 18.0334 24.9883C18.0435 25.0405 18.0536 25.0927 18.0637 25.1449C18.0012 25.2994 17.9386 25.4539 17.8761 25.6085C17.8136 25.7148 17.747 25.8212 17.7934 25.7449C14.4691 25.6004 11.5907 24.4806 9.15796 22.3191C9.17813 22.2288 9.19427 22.1385 9.2104 22.0462Z" fill="#AFE0EF"/>
<path d="M9.16189 22.3192C11.5946 24.4806 14.4731 25.6025 17.7973 25.745C17.7509 25.8212 17.8155 25.7148 17.88 25.6085C17.8942 25.8092 17.9083 26.0099 17.9224 26.2106C17.6642 26.4574 17.3314 26.5718 17.0026 26.5256C15.524 26.3209 14.0616 26.0861 12.6617 25.4981C11.3001 24.9261 10.1059 24.1173 8.92991 23.1962C8.823 23.4691 8.95009 23.74 8.7282 23.9066L8.70399 23.8986C8.62936 23.423 8.71004 22.9654 8.87545 22.5178C8.96824 22.4516 9.06506 22.3854 9.16189 22.3192Z" fill="#A5DDEF"/>
<path d="M8.46807 20.3805C8.33696 20.4728 8.21391 20.5571 8.09288 20.6414C7.46151 20.4527 6.80997 20.2982 6.66877 19.4934C6.58405 18.9997 6.14027 18.9134 5.75701 18.7729C6.09186 18.5943 6.31778 18.4278 6.06564 17.9682C5.81349 17.5106 5.62993 16.9968 5.59766 16.457C5.81551 16.2924 5.75499 16.0516 5.74894 15.8368C5.73482 15.3953 5.93049 15.1886 6.37426 15.2147C6.53765 17.1534 7.42117 18.801 8.46807 20.3805Z" fill="#AADFEF"/>
<path d="M30.3763 15.2207C30.8181 15.5318 31.0904 15.3512 31.2215 14.8996C31.274 14.721 31.3002 14.5524 31.4676 14.444C31.518 14.6006 31.5685 14.7591 31.6189 14.9177C31.3446 15.6201 31.4696 16.4349 30.9976 17.0811C30.8927 17.3922 30.9956 17.7715 30.6829 18.0143C30.5821 18.0665 30.4792 18.1187 30.3784 18.1689C30.0899 17.9561 29.7672 17.9521 29.4343 18.0163C29.509 17.4925 29.8499 17.0229 29.749 16.465C30.4368 16.2864 30.4671 15.7826 30.3763 15.2207Z" fill="#A1DCEF"/>
<path d="M30.9977 17.0791C31.4697 16.4329 31.3467 15.6201 31.619 14.9157C31.8288 15.0842 32.0385 15.028 32.2443 14.9096C32.2867 15.2247 32.1596 15.5659 32.3956 15.8509C32.3976 16.1941 32.4944 16.5051 32.7103 16.7761C32.7123 16.9266 32.7163 17.0771 32.7183 17.2276C32.5085 17.4885 32.2988 17.7514 32.089 18.0123C31.5262 17.932 31.6089 17.1052 30.9977 17.0791Z" fill="#95D8EE"/>
<path d="M31.157 23.7481C31.1045 23.6457 31.0501 23.5434 30.9956 23.441C30.9452 23.3367 30.8927 23.2323 30.8423 23.1279C31.6391 22.4275 32.0768 21.5184 32.5004 20.4949C32.0727 20.4949 31.7682 20.4949 31.4636 20.4949C31.2376 20.4949 31.0097 20.4969 30.9976 20.1818V20.1798C31.3103 20.1296 31.6028 19.9691 31.9336 20.0232C32.2119 20.6715 32.7566 20.1637 32.7808 20.0373C32.8857 19.5075 33.4061 19.076 33.1822 18.4739C33.3536 18.4378 33.4323 18.2993 33.519 18.1709C33.6159 18.2712 33.7107 18.3736 33.8055 18.4739C34.2271 19.8125 33.3678 20.81 32.8514 21.8816C32.567 22.4717 32.1212 22.9855 31.7601 23.5414C31.6048 23.7822 31.4555 23.9608 31.157 23.7481Z" fill="#80D2EE"/>
<path d="M33.1822 18.4779C33.4081 19.08 32.8857 19.5095 32.7808 20.0413C32.7566 20.1677 32.2119 20.6755 31.9336 20.0273C31.8005 19.8406 32.2362 19.5135 31.7762 19.4091C32.1454 19.2064 32.4338 18.9395 32.5024 18.4819C32.4419 18.2712 32.0445 18.3294 32.0889 18.0163C32.2987 17.7554 32.5085 17.4925 32.7183 17.2316C33.045 17.5828 32.9543 18.0886 33.1822 18.4779Z" fill="#89D4EE"/>
<path d="M8.49829 24.8097C8.52653 24.5247 8.55679 24.2398 8.58503 23.9568C8.62134 23.9347 8.66168 23.9146 8.70202 23.8986L8.72623 23.9066C8.65563 24.5007 9.2043 24.1434 9.43627 24.3461C10.8382 25.5643 12.5245 26.2948 14.3077 26.7444C15.635 27.0795 16.9946 27.4247 18.3824 26.9872C18.4832 27.1518 18.5841 27.3164 18.6829 27.4809C18.689 27.6756 18.695 27.8703 18.7011 28.0649C18.2997 27.9164 17.8801 27.9204 17.4625 27.9365C16.5306 27.9726 15.6189 27.8582 14.701 27.6756C12.3934 27.22 10.3904 26.1383 8.49829 24.8097Z" fill="#98D9EE"/>
<path d="M8.49825 24.8097C10.3924 26.1383 12.3934 27.22 14.701 27.6756C15.6168 27.8562 16.5285 27.9726 17.4625 27.9365C17.8821 27.9204 18.2996 27.9164 18.701 28.0649C18.8059 28.2175 18.9108 28.37 19.0137 28.5225C18.2855 29.1085 17.4141 28.9159 16.6274 28.8356C13.3253 28.4944 10.2976 27.4328 7.78821 25.171C7.83662 25.1529 7.88503 25.1348 7.93546 25.1188C8.23803 25.2272 8.30662 24.9081 8.49825 24.8097Z" fill="#91D7EE"/>
<path d="M17.0066 5.30453C17.0429 5.6999 17.1357 6.03706 17.6521 5.79221C18.1645 5.55139 18.2008 5.86647 18.1988 6.23775C18.0798 6.31401 18.0677 6.43242 18.0697 6.55885C18.0535 6.57892 18.0394 6.60501 18.0192 6.61505C17.9991 6.62508 17.9688 6.62508 17.9486 6.61706C17.5916 6.49263 18.0334 6.16149 17.7348 5.94675C17.4202 6.70737 16.7242 6.91408 16.0505 7.15691C15.8387 6.73747 15.6289 6.31803 15.4171 5.89657C15.8548 5.44703 16.4781 5.50523 17.0066 5.30453Z" fill="#D3EDF3"/>
<path d="M15.4171 5.89256C15.6289 6.312 15.8387 6.73145 16.0505 7.1529C15.9436 7.19705 15.8346 7.2392 15.7277 7.28335C15.401 7.31947 15.0742 7.3576 14.7736 7.39172C14.6728 7.05456 15.169 6.93414 14.9471 6.61505C14.9209 6.59899 14.8946 6.58093 14.8704 6.56287C14.8503 6.33207 14.5255 6.06716 14.9471 5.88654C15.1044 5.88854 15.2618 5.89055 15.4171 5.89256Z" fill="#3EC5EB"/>
<path d="M18.3501 23.7882C18.3057 23.7762 18.2633 23.7621 18.221 23.7461C18.1625 23.3989 18.104 23.0497 18.0435 22.7025C18.3823 22.5279 18.6607 22.8169 18.9693 22.859C20.8392 23.1159 22.6547 23.0296 24.4378 22.3874C24.5811 22.3352 24.7646 22.1827 24.93 22.3753C24.924 22.5238 24.9179 22.6744 24.9099 22.8229C24.7566 23.134 24.5206 23.3266 24.1736 23.4129C23.1771 23.6598 22.1746 23.8404 21.1458 23.9187C20.2059 23.9889 19.2921 23.6036 18.3501 23.7882Z" fill="#3C88C8"/>
<path d="M11.0298 16.6155C10.8463 16.7279 10.9511 16.9567 10.8019 17.1433C9.72471 15.889 9.57343 14.3738 9.68639 12.8806C9.84171 10.8235 10.6869 9.02334 12.2462 7.59441C12.8089 7.07864 13.4161 6.66722 14.1846 6.5448C14.0374 6.7776 13.8357 6.98632 13.868 7.29539C13.7671 7.53822 13.5997 7.71282 13.3939 7.88542C12.0868 8.96915 11.1206 10.2917 10.8321 11.9875C10.6829 12.8666 10.1322 13.858 11.1791 14.6046C11.1912 15.1725 11.2033 15.7425 11.2154 16.3084C11.1508 16.4068 11.0903 16.5111 11.0298 16.6155Z" fill="#D4EDF3"/>
<path d="M25.864 20.9745C25.0208 21.2735 24.1877 21.6127 23.3284 21.8616C21.6562 22.3472 19.9719 22.2991 18.2956 21.8375C18.0092 21.7592 17.7288 21.6127 17.4222 21.7612C17.285 21.5826 17.1458 21.404 17.0087 21.2254C17.1075 20.9283 17.2063 20.6333 17.3052 20.3383C17.3496 20.3383 17.396 20.3383 17.4403 20.3363C17.4303 20.6494 17.515 20.8501 17.868 20.9605C20.7646 21.8696 23.4797 21.4983 26.0274 19.8627C26.4954 19.5636 26.9714 19.2767 27.4414 18.9836C27.1731 19.8506 26.4328 20.3443 25.864 20.9745Z" fill="#4195D1"/>
<path d="M17.3052 20.3383C17.2064 20.6353 17.1076 20.9304 17.0087 21.2254C16.1696 21.117 15.3425 20.9886 14.5478 20.6574C13.9628 20.4126 13.4464 20.1135 13.0773 19.5938C13.1822 19.5295 13.285 19.4633 13.3899 19.3991C13.8498 19.2927 14.3622 19.656 14.7858 19.2385C15.1489 19.1864 15.4535 18.9194 15.8428 18.9636C16.0889 19.1121 16.1736 19.375 16.2745 19.6379C16.9321 19.4513 17.3758 19.5456 17.3052 20.3383Z" fill="#D6EEF4"/>
<path d="M13.3919 19.4011C13.287 19.4653 13.1841 19.5316 13.0792 19.5958C11.9415 18.9114 11.2981 17.8919 11.0298 16.6175C11.0903 16.5132 11.1528 16.4088 11.2113 16.3065C11.5361 15.9994 11.2295 15.5599 11.3909 15.291C12.0081 16.6938 12.7444 18.0585 13.8195 19.2325C13.7287 19.3068 13.4907 19.2024 13.3919 19.4011Z" fill="#3D8FCD"/>
<path d="M13.866 7.2934C13.8357 6.98634 14.0374 6.77562 14.1827 6.54282C14.4106 6.54884 14.6385 6.55686 14.8685 6.56288C14.8947 6.58095 14.9189 6.597 14.9451 6.61506C14.6002 6.86392 14.3622 7.28136 13.866 7.2934Z" fill="#5296B0"/>
<path d="M25.864 20.9745C26.4328 20.3444 27.1731 19.8507 27.4434 18.9877C27.861 18.5863 27.8932 18.0685 27.8852 17.5367C27.8811 17.4885 27.8811 17.4404 27.8791 17.3922C27.9679 17.5026 28.0566 17.6129 28.1534 17.7334C28.3148 17.3701 28.4903 17.0269 28.6174 16.6677C28.7445 16.3064 28.5791 16.1298 28.1978 16.1519C28.9543 15.9733 29.1862 15.2669 29.6139 14.7571C29.866 15.1565 29.7752 15.5759 29.6703 15.9873C29.6239 16.168 29.5715 16.3265 29.751 16.461C29.8519 17.0189 29.509 17.4905 29.4364 18.0123C29.4424 18.0625 29.4464 18.1107 29.4485 18.1608C28.9785 18.9917 28.5085 19.8246 28.0385 20.6554C27.6713 20.5812 27.3183 20.3745 26.8746 20.5711C27.046 20.9344 26.8927 21.2053 26.5518 21.3639C26.2533 21.5023 26.0032 21.4221 25.8539 21.109C25.8579 21.0648 25.862 21.0187 25.864 20.9745Z" fill="#ABDFEF"/>
<path d="M25.8498 21.109C25.9991 21.422 26.2513 21.5023 26.5478 21.3638C26.8867 21.2073 27.042 20.9344 26.8705 20.5711C27.3143 20.3744 27.6673 20.5811 28.0344 20.6554C28.214 20.84 28.0949 21.2535 28.5024 21.2635C28.1918 21.5465 27.7319 21.2274 27.3809 21.6448C26.7313 22.4135 25.9406 23.0637 25.2104 23.7621C24.9361 23.5032 24.9199 23.164 24.9119 22.8229C24.9179 22.6744 24.924 22.5238 24.932 22.3753C25.2548 21.9659 25.3133 21.3638 25.8498 21.109Z" fill="#79D0ED"/>
<path d="M22.7394 4.8309C22.7576 5.19817 23.0904 5.1781 23.3083 5.25035C25.9326 6.1354 27.5504 7.93961 28.2765 10.5747C28.454 11.2229 28.2584 11.8992 28.4783 12.5555C28.563 12.8044 28.6356 13.0231 28.8192 13.2057C28.3028 13.3904 27.9437 13.1516 27.5826 12.8084C27.3628 12.5997 27.2901 12.2505 26.9513 12.1622C27.3083 11.819 27.3164 11.4015 27.2135 10.958C26.6124 8.41324 25.0007 6.87795 22.4873 6.20363C21.745 6.00495 20.9805 6.06315 20.2382 5.90861C20.2402 5.80827 20.2402 5.70792 20.2422 5.60557C21.1176 5.49318 21.9628 5.27242 22.7394 4.8309Z" fill="#41C5EB"/>
<path d="M20.2381 5.6096C20.2361 5.70994 20.2361 5.81029 20.2341 5.91264C20.0788 5.93472 19.8468 5.83838 19.8972 6.15949C19.9335 6.38627 19.7601 6.52274 19.5785 6.47658C19.161 6.36821 18.7838 6.62911 18.3803 6.55485C18.2754 6.55686 18.1726 6.55686 18.0697 6.55887C18.0656 6.43444 18.0798 6.31603 18.1988 6.23776C19.048 6.27388 19.4313 5.89257 19.2094 5.19015C19.4797 5.06372 19.754 4.93728 20.1171 4.76669C20.0485 5.12192 19.6068 5.49721 20.2381 5.6096Z" fill="#CBEAF1"/>
<path d="M19.0118 28.5225C18.9069 28.37 18.802 28.2175 18.6991 28.0649C18.6931 27.8703 18.687 27.6756 18.683 27.4809C18.7173 27.4207 18.7637 27.3043 18.7798 27.3083C19.6875 27.5371 20.5993 27.5572 21.5373 27.501C22.0799 27.4669 22.7233 27.1979 23.1994 27.7539C23.0945 27.8422 23.0118 27.9405 23.0521 28.091C23.0683 28.3258 22.9815 28.4904 22.7375 28.5486C22.3603 28.2877 21.9851 28.2255 21.511 28.3459C21.1036 28.4523 20.6295 28.4362 20.214 28.3439C19.7944 28.2516 19.4677 28.3138 19.1489 28.5647C19.1046 28.5506 19.0582 28.5366 19.0118 28.5225Z" fill="#3568B1"/>
<path d="M23.0501 28.091C23.0097 27.9385 23.0925 27.8422 23.1973 27.7539C23.5039 27.7258 23.6734 27.5251 23.8126 27.2823C24.4339 27.3264 24.8877 26.6982 25.5393 26.8488C25.5675 27.1016 25.7289 27.3485 25.5877 27.6134C24.9704 27.6234 24.5004 28.0148 23.98 28.2596C23.6028 28.4362 23.3063 28.4423 23.0501 28.091Z" fill="#89D4EE"/>
<path d="M30.8443 23.1279C30.8948 23.2323 30.9472 23.3367 30.9976 23.441C30.3763 24.017 29.6421 24.4906 29.283 25.3054C28.9159 25.3636 28.6275 25.193 28.3511 24.9863C28.2846 24.7856 27.9154 24.9041 27.9517 24.5127C28.6678 24.011 29.0874 23.16 29.745 22.5118C29.8156 22.6342 29.9346 22.6643 30.0637 22.6663C30.3239 22.8189 30.5841 22.9734 30.8443 23.1279Z" fill="#60CBF1"/>
<path d="M29.7429 22.5098C29.0854 23.158 28.6658 24.009 27.9497 24.5107C27.9134 24.902 28.2825 24.7856 28.3491 24.9843C28.0788 24.9743 27.8145 24.9883 27.5785 25.1429C27.5826 24.8298 27.635 24.4966 27.2154 24.2518C27.0843 24.8418 26.691 25.1529 26.2351 25.3937C25.9487 25.5463 25.8539 25.7791 25.8539 26.0781C25.4585 25.9858 25.049 25.9155 24.9199 25.4399C25.0531 25.2593 25.0853 25.0485 25.0974 24.8318C25.5311 24.8679 25.7974 24.5508 26.108 24.3401C27.2175 23.5895 28.1232 22.6041 29.1277 21.7331C29.2366 21.9137 29.4202 21.8836 29.5896 21.8937C29.6421 22.1004 29.6925 22.3051 29.7429 22.5098Z" fill="#68CCF0"/>
<path d="M25.856 26.0801C25.856 25.7831 25.9487 25.5463 26.2372 25.3957C26.6911 25.1549 27.0844 24.8418 27.2175 24.2538C27.6371 24.4987 27.5826 24.8318 27.5806 25.1449C27.2397 25.4981 27.2599 26.0299 26.9614 26.4052C26.5458 25.7269 26.2957 26.3992 25.981 26.5256C26.0274 26.353 25.9487 26.2146 25.856 26.0801Z" fill="#4F788E"/>
<path d="M25.8559 26.0801C25.9487 26.2146 26.0273 26.353 25.9789 26.5256C25.753 26.5256 25.6401 26.6802 25.5372 26.8487C24.8877 26.6982 24.4338 27.3244 23.8125 27.2822C23.8831 26.9431 23.5583 26.7163 23.5583 26.3972C24.1453 26.2667 24.3511 25.5964 24.9219 25.4419C25.051 25.9175 25.4605 25.9878 25.8559 26.0801Z" fill="#91D7EE"/>
<path d="M26.9492 12.1622C27.2881 12.2505 27.3607 12.5997 27.5806 12.8084C27.9417 13.1516 28.3007 13.3904 28.8171 13.2058C28.8191 13.2579 28.8191 13.3101 28.8191 13.3603C28.7667 13.4065 28.7122 13.4526 28.6598 13.5008C28.4379 13.8319 28.1615 14.0527 27.7278 13.9483C27.6129 13.8098 27.4979 13.6714 27.3829 13.5309C27.3244 13.2519 27.1711 13.0271 26.9694 12.8345C26.7455 12.6137 26.7939 12.391 26.9492 12.1622Z" fill="#B8E3EF"/>
<path d="M27.7279 13.9463C28.1616 14.0527 28.4379 13.8319 28.6598 13.4988C28.8131 14.0427 29.6603 14.0627 29.6139 14.7571C29.1863 15.2669 28.9543 15.9713 28.1979 16.1519C28.0164 16.4349 27.7299 16.5553 27.4213 16.6416C27.3588 16.6797 27.2962 16.7179 27.2317 16.756C26.8585 16.1178 27.5766 15.8168 27.6876 15.3231C27.7925 14.8595 28.2806 14.426 27.7279 13.9463Z" fill="#36C2EA"/>
<path d="M18.0657 25.1449C18.0556 25.0927 18.0455 25.0405 18.0354 24.9883C18.1544 24.7836 18.2734 24.5789 18.3924 24.3742C18.6627 24.591 18.9613 24.6692 19.3163 24.6933C20.3168 24.7636 21.3072 24.8619 22.3098 24.6873C23.3022 24.5147 24.3027 24.4043 25.2024 23.9066C25.2629 24.1856 25.2366 24.4485 25.0551 24.6813C24.8836 24.8398 24.8736 25.0947 24.5327 25.165C22.9895 25.4861 21.4404 25.7349 19.869 25.5904C19.2638 25.5342 18.576 25.6466 18.0657 25.1449Z" fill="#397BBE"/>
<path d="M25.2043 23.9066C24.3047 24.4043 23.3022 24.5147 22.3117 24.6873C21.3092 24.8619 20.3168 24.7636 19.3183 24.6933C18.9612 24.6672 18.6647 24.589 18.3944 24.3742C18.3803 24.1795 18.3662 23.9829 18.3521 23.7882C19.2961 23.6036 20.2078 23.9909 21.1539 23.9187C22.1826 23.8404 23.1852 23.6598 24.1816 23.4129C24.5286 23.3266 24.7626 23.1319 24.9179 22.8229C24.926 23.1661 24.9441 23.5032 25.2164 23.7621C25.2205 23.8103 25.2164 23.8584 25.2043 23.9066Z" fill="#3B81C3"/>
<path d="M18.0656 25.1449C18.578 25.6466 19.2638 25.5322 19.869 25.5884C21.4404 25.7349 22.9895 25.4841 24.5327 25.163C24.8736 25.0927 24.8836 24.8378 25.0551 24.6793C25.0692 24.7295 25.0833 24.7816 25.0975 24.8318C25.0854 25.0486 25.0531 25.2593 24.9199 25.4399C24.3491 25.5944 24.1433 26.2648 23.5563 26.3952C22.3461 26.4534 21.1418 26.5939 19.9255 26.5437C19.3546 26.5216 18.7777 26.1865 18.2089 26.5538C18.1141 26.4374 18.0172 26.3209 17.9204 26.2066C17.9063 26.0059 17.8922 25.8052 17.8781 25.6045C17.9406 25.454 18.0031 25.2994 18.0656 25.1449Z" fill="#3876BB"/>
<path d="M17.9224 26.2106C18.0172 26.327 18.1141 26.4434 18.2109 26.5577C18.2694 26.7022 18.3259 26.8447 18.3823 26.9892C16.9945 27.4247 15.635 27.0816 14.3077 26.7464C12.5245 26.2969 10.8382 25.5663 9.43625 24.3481C9.20226 24.1454 8.65561 24.5027 8.72621 23.9086C8.9481 23.7441 8.82102 23.4711 8.92793 23.1982C10.1039 24.1194 11.2981 24.9281 12.6597 25.5001C14.0596 26.0881 15.524 26.3229 17.0006 26.5276C17.3314 26.5698 17.6642 26.4554 17.9224 26.2106Z" fill="#9FDBEF"/>
<path d="M29.5897 21.8937C29.4203 21.8836 29.2367 21.9137 29.1278 21.7331C29.0774 21.5786 29.0269 21.422 28.9745 21.2675C29.3376 20.6996 29.7027 20.1296 30.0658 19.5616C30.7355 19.2225 30.4773 18.6766 30.3784 18.1668C30.4793 18.1147 30.5822 18.0625 30.683 18.0123C30.8787 18.4659 30.6306 19.0659 31.153 19.4091C31.0058 19.6479 30.9816 19.9108 30.9977 20.1818V20.1838C30.2735 20.545 30.2312 21.4642 29.5897 21.8937Z" fill="#98D9EE"/>
<path d="M31.1551 19.4091C30.6306 19.0659 30.8787 18.4659 30.6851 18.0123C30.9977 17.7715 30.8969 17.3902 30.9997 17.0791C31.6109 17.1052 31.5282 17.934 32.091 18.0143C32.0466 18.3274 32.444 18.2692 32.5045 18.4799C32.4359 18.9375 32.1475 19.2044 31.7784 19.4071C31.5706 19.2686 31.3628 19.2646 31.1551 19.4091Z" fill="#69CDEF"/>
<path d="M30.3784 18.1668C30.4773 18.6766 30.7355 19.2225 30.0658 19.5616C30.1343 19.2385 29.7128 19.4191 29.6805 19.1783C29.7733 18.8813 29.8197 18.5461 30.1323 18.3394C29.9145 18.1187 29.6684 18.1869 29.4445 18.1628C29.4425 18.1126 29.4384 18.0645 29.4324 18.0143C29.7692 17.9481 30.092 17.9541 30.3784 18.1668Z" fill="#78D0EF"/>
<path d="M30.8444 23.1279C30.5841 22.9734 30.3239 22.8189 30.0637 22.6644C30.7596 22.0884 31.0582 21.2555 31.4656 20.4949C31.7723 20.4949 32.0768 20.4949 32.5025 20.4949C32.0789 21.5204 31.6432 22.4295 30.8444 23.1279Z" fill="#89D4EE"/>
<path d="M31.4656 20.4949C31.0581 21.2555 30.7596 22.0884 30.0637 22.6643C29.9326 22.6623 29.8176 22.6322 29.745 22.5098C29.6946 22.3051 29.6421 22.0984 29.5917 21.8937C30.2331 21.4622 30.2755 20.545 30.9996 20.1818C31.0117 20.4969 31.2377 20.4949 31.4656 20.4949Z" fill="#90D7EF"/>
<path d="M31.155 19.4091C31.3628 19.2646 31.5705 19.2686 31.7783 19.4071C32.2382 19.5115 31.8025 19.8406 31.9357 20.0252C31.6048 19.9711 31.3123 20.1316 30.9997 20.1818C30.9835 19.9109 31.0078 19.6479 31.155 19.4091Z" fill="#90D7EF"/>
<path d="M18.3824 26.9872C18.3239 26.8427 18.2674 26.7002 18.2109 26.5557C18.7798 26.1885 19.3567 26.5216 19.9275 26.5457C21.1439 26.5959 22.3481 26.4554 23.5584 26.3972C23.5584 26.7163 23.8852 26.9411 23.8126 27.2822C23.6754 27.5251 23.504 27.7278 23.1973 27.7539C22.7213 27.1999 22.0778 27.4669 21.5352 27.501C20.5993 27.5592 19.6875 27.5391 18.7778 27.3083C18.7616 27.3043 18.7152 27.4207 18.6809 27.4809C18.5841 27.3163 18.4833 27.1518 18.3824 26.9872Z" fill="#366FB6"/>
<path d="M18.0697 6.55687C18.1746 6.55486 18.2775 6.55486 18.3803 6.55286C18.4812 6.62109 18.5841 6.68732 18.691 6.75957C17.7671 7.12683 17.1115 7.79514 16.456 8.63001C16.7323 8.67617 16.8776 8.70226 17.0248 8.72634C16.3006 8.86081 15.7843 9.33444 15.2618 9.80004C15.1751 9.56323 15.0883 9.3244 14.9754 9.01333C14.5498 9.01333 14.1141 9.01333 13.6783 9.01333C14.0031 8.76447 14.3763 8.92704 14.7273 8.89091C14.9028 8.87285 15.1065 8.91299 15.1952 8.70427C15.284 8.49756 15.2195 8.31493 15.0944 8.13029C15.0016 7.99181 14.7394 8.0179 14.7555 7.78711C15.0641 7.57638 15.6209 7.86337 15.7278 7.28538C15.8347 7.24123 15.9436 7.19908 16.0505 7.15493C16.7243 6.9141 17.4202 6.70538 17.7348 5.94476C18.0334 6.1595 17.5916 6.49064 17.9487 6.61507C17.9709 6.6231 18.0011 6.6231 18.0193 6.61306C18.0415 6.60303 18.0536 6.57694 18.0697 6.55687Z" fill="#49C6EC"/>
<path d="M15.7278 7.28336C15.6209 7.86135 15.0662 7.57236 14.7555 7.78509C14.7394 8.01789 14.9996 7.98979 15.0944 8.12827C15.2195 8.31291 15.284 8.49554 15.1953 8.70225C15.1065 8.91097 14.9028 8.87083 14.7273 8.88889C14.3783 8.92502 14.0031 8.76446 13.6784 9.01131C13.3919 9.22405 13.5997 9.5873 13.406 9.85221C13.1579 10.1914 13.0994 10.5265 13.6965 10.5787C13.8599 10.5928 13.8518 10.7513 13.868 10.8757C13.7268 11.1085 13.6017 11.3474 13.3314 11.4778C13.0066 11.6323 12.8554 11.9053 12.9038 12.2705C12.8594 12.3749 12.817 12.4793 12.7726 12.5836C12.6516 12.6759 12.5286 12.7703 12.4075 12.8646C11.986 12.973 11.9194 13.3944 11.6915 13.6734C11.52 13.9804 11.3485 14.2895 11.1771 14.5965C10.1322 13.85 10.6809 12.8606 10.8301 11.9795C11.1186 10.2857 12.0828 8.96114 13.3919 7.87741C13.5977 7.70682 13.7651 7.53021 13.8659 7.28738C14.3622 7.27734 14.6022 6.8599 14.9451 6.60904C15.167 6.93015 14.6708 7.05056 14.7717 7.38571C15.0742 7.35762 15.401 7.32149 15.7278 7.28336Z" fill="#DAF0F5"/>
<path d="M11.175 14.5986C11.3465 14.2915 11.518 13.9824 11.6894 13.6754C11.8992 13.9182 11.9436 14.2293 12.0263 14.5203C12.5366 16.3325 13.4625 17.9019 14.7878 19.2385C14.3642 19.656 13.8498 19.2927 13.3919 19.3991C13.4907 19.2004 13.7288 19.3068 13.8195 19.2285C12.7444 18.0545 12.0081 16.6878 11.3909 15.2869C11.2295 15.5559 11.5361 15.9954 11.2114 16.3024C11.1993 15.7365 11.1892 15.1665 11.175 14.5986Z" fill="#4094D0"/>
<path d="M12.7706 12.5856C12.815 12.4813 12.8574 12.3769 12.9017 12.2726C13.2588 12.2926 13.4081 12.5054 13.3838 12.8385C13.3556 13.2298 13.4625 13.5991 13.5351 13.9764C14.5054 18.9997 20.3995 21.5927 24.8151 18.803C25.2851 18.506 25.7288 18.1628 26.1847 17.8397L26.1888 17.8337C26.2634 18.1107 26.6507 17.906 26.7294 18.1749C25.0228 20.3403 21.1116 21.4763 17.4625 20.0353C17.4545 20.1417 17.4464 20.24 17.4383 20.3403C17.394 20.3403 17.3476 20.3403 17.3032 20.3424C17.3718 19.5516 16.93 19.4553 16.2744 19.646C16.1736 19.381 16.0889 19.1181 15.8428 18.9716C15.873 18.9335 15.9013 18.8974 15.9295 18.8592C15.8609 18.8372 15.7923 18.8131 15.7237 18.791C15.7237 18.4639 15.4575 18.3114 15.2719 18.1107C14.229 16.9868 13.4444 15.7204 13.1256 14.2052C13.0127 13.6613 13.0389 13.0914 12.7706 12.5856Z" fill="#459FD8"/>
<path d="M17.4424 20.3383C17.4504 20.238 17.4585 20.1396 17.4666 20.0333C21.1156 21.4742 25.0249 20.3383 26.7334 18.1729C26.6547 17.9039 26.2654 18.1106 26.1928 17.8317C26.7697 17.7916 27.2982 17.4945 27.8892 17.5347C27.8973 18.0645 27.865 18.5823 27.4475 18.9857C26.9755 19.2787 26.4994 19.5657 26.0334 19.8647C23.4838 21.5003 20.7707 21.8716 17.8741 20.9625C17.515 20.8521 17.4303 20.6494 17.4424 20.3383Z" fill="#419AD4"/>
<path d="M15.7277 18.787C15.7963 18.8091 15.8649 18.8331 15.9335 18.8552C15.9052 18.8913 15.875 18.9295 15.8468 18.9676C15.4595 18.9235 15.1508 19.1884 14.7898 19.2426C13.4645 17.9039 12.5386 16.3365 12.0283 14.5243C11.9456 14.2333 11.9012 13.9222 11.6914 13.6794C11.9193 13.4004 11.9839 12.979 12.4075 12.8706C12.8129 14.4621 13.0671 16.1258 14.2008 17.4102C14.6445 17.914 14.8967 18.6846 15.7277 18.787Z" fill="#419AD4"/>
<path d="M29.4464 18.1608C29.6703 18.1849 29.9144 18.1167 30.1343 18.3374C29.8216 18.5441 29.7772 18.8793 29.6824 19.1763C29.7147 19.4172 30.1343 19.2365 30.0677 19.5596C29.7046 20.1276 29.3395 20.6976 28.9764 21.2655C28.8211 21.2314 28.6658 21.0187 28.5064 21.2615C28.099 21.2515 28.218 20.838 28.0385 20.6534C28.5064 19.8246 28.9764 18.9937 29.4464 18.1608Z" fill="#A1DCEF"/>
<path d="M27.8852 17.5367C27.2962 17.4985 26.7657 17.7936 26.1888 17.8337L26.1848 17.8397C26.1162 17.7394 26.0456 17.637 25.979 17.5367C26.0234 17.1694 26.326 17.1353 26.5922 17.0891C26.8504 17.045 27.0864 16.9968 27.2317 16.754C27.2942 16.7158 27.3567 16.6777 27.4213 16.6396C27.6008 16.8744 27.5262 17.2617 27.8792 17.3902C27.8812 17.4383 27.8832 17.4885 27.8852 17.5367Z" fill="#B8E3EF"/>
<path d="M27.8792 17.3902C27.5262 17.2617 27.6008 16.8724 27.4213 16.6396C27.7299 16.5553 28.0163 16.4349 28.1979 16.1499C28.5791 16.1278 28.7465 16.3044 28.6174 16.6657C28.4904 17.0249 28.3149 17.3681 28.1535 17.7314C28.0567 17.6109 27.9679 17.5006 27.8792 17.3902Z" fill="#B5E2EF"/>
<path d="M28.5045 21.2615C28.6639 21.0187 28.8172 21.2314 28.9745 21.2655C29.0249 21.4201 29.0754 21.5766 29.1278 21.7311C28.1253 22.6041 27.2176 23.5875 26.1081 24.3381C25.7975 24.5488 25.5312 24.8659 25.0975 24.8298C25.0834 24.7796 25.0693 24.7275 25.0552 24.6773C25.2367 24.4445 25.265 24.1816 25.2024 23.9026C25.2145 23.8565 25.2186 23.8083 25.2125 23.7581C25.9447 23.0577 26.7335 22.4095 27.383 21.6408C27.736 21.2274 28.1939 21.5465 28.5045 21.2615Z" fill="#6FCEEF"/>
<path d="M17.0228 8.72634C16.8776 8.70025 16.7323 8.67617 16.454 8.63001C17.1116 7.79714 17.7671 7.12683 18.689 6.75957C18.5821 6.68933 18.4792 6.62109 18.3783 6.55286C18.7818 6.62711 19.159 6.36421 19.5765 6.47459C19.7581 6.52075 19.9316 6.38428 19.8952 6.1575C19.8448 5.83639 20.0768 5.93272 20.2321 5.91064C20.9724 6.06518 21.7389 6.00497 22.4812 6.20566C24.9946 6.87798 26.6083 8.41326 27.2074 10.96C27.3123 11.4036 27.3043 11.821 26.9452 12.1642C26.7899 12.393 26.7415 12.6157 26.9654 12.8345C27.1671 13.0292 27.3204 13.2539 27.3789 13.5309C27.1187 13.8279 27.0501 14.2213 26.8706 14.5524C26.6023 15.0441 26.5579 15.7405 25.8116 15.8529C25.624 15.7365 25.4565 15.6 25.3859 15.3773C26.1747 13.9905 26.5801 12.5495 26.1585 10.94C25.396 8.01389 22.338 6.36621 19.4333 7.28137C18.5841 7.54829 18.1181 8.38115 17.2508 8.56579C17.1761 8.61998 17.0995 8.67416 17.0228 8.72634Z" fill="#4FC7EB"/>
<path d="M25.8156 15.8529C26.562 15.7405 26.6064 15.0441 26.8747 14.5524C27.0562 14.2213 27.1248 13.8279 27.383 13.5309C27.498 13.6694 27.6129 13.8078 27.7279 13.9483C28.2806 14.428 27.7904 14.8615 27.6876 15.3251C27.5766 15.8188 26.8585 16.1178 27.2317 16.758C27.0865 16.9988 26.8504 17.049 26.5922 17.0932C26.326 17.1393 26.0214 17.1734 25.979 17.5407C25.8862 17.3882 25.7955 17.2377 25.7027 17.0871C25.7007 17.039 25.6986 16.9908 25.7007 16.9406C26.0073 16.6035 25.8156 16.2181 25.8156 15.8529Z" fill="#41C5EB"/>
<path d="M17.0229 8.72633C17.0995 8.67415 17.1762 8.61996 17.2528 8.56778C17.8338 8.97719 18.4167 9.38459 18.9977 9.794C19.2982 10.0569 19.5988 9.67359 19.8973 9.79601C19.9881 9.94251 19.8973 10.1633 20.091 10.2696C20.567 10.4101 20.6638 10.8657 20.8998 11.2129C21.0108 11.3775 21.158 11.4918 20.8232 11.5199C20.4581 11.4276 20.0446 11.1085 19.8852 11.7889C19.8086 12.116 19.5302 11.9735 19.3144 11.9474C19.1651 11.7166 18.8766 11.817 18.687 11.6825C18.334 11.6805 18.0577 11.4738 17.7571 11.3353C17.6482 11.2029 17.5534 11.0664 17.5957 10.8797C17.8096 10.5606 17.7208 10.2877 17.3456 10.3439C16.8978 10.4101 16.4137 10.2977 15.9981 10.5546C15.5988 10.5145 15.2417 10.6148 14.9291 10.8677C14.8827 10.9179 14.8363 10.968 14.7919 11.0162C14.5236 10.9981 14.223 11.1487 13.9991 10.8797C14.0738 10.7092 14.1968 10.5807 14.3885 10.5767C14.9089 10.5647 15.1086 10.2114 15.2619 9.80002C15.7823 9.33241 16.2987 8.86079 17.0229 8.72633Z" fill="#E9F5F8"/>
<path d="M15.2619 9.79803C15.1086 10.2094 14.9089 10.5647 14.3884 10.5747C14.1948 10.5787 14.0738 10.7052 13.9991 10.8777C13.9548 10.8777 13.9124 10.8757 13.868 10.8757C13.8519 10.7513 13.8599 10.5928 13.6966 10.5787C13.1015 10.5265 13.158 10.1914 13.4061 9.85222C13.5997 9.58731 13.394 9.22606 13.6784 9.01132C14.1141 9.01132 14.5498 9.01132 14.9754 9.01132C15.0884 9.32239 15.1751 9.56122 15.2619 9.79803Z" fill="#3EC5EC"/>
<path d="M13.8659 10.8757C13.9103 10.8777 13.9526 10.8777 13.997 10.8777C14.2229 11.1467 14.5215 10.9982 14.7898 11.0142C14.6607 11.2831 14.1362 11.0925 14.1644 11.5741C14.1987 12.114 14.1241 12.6639 14.2008 13.1957C14.7252 16.8463 17.872 19.4312 21.4968 19.09C23.1368 18.9355 24.5326 18.2351 25.7006 17.0811C25.7934 17.2336 25.8861 17.3842 25.9769 17.5347C26.0455 17.635 26.1141 17.7374 26.1827 17.8377C25.7268 18.1608 25.285 18.504 24.813 18.801C20.3975 21.5886 14.5013 18.9977 13.5331 13.9744C13.4605 13.5971 13.3535 13.2278 13.3818 12.8365C13.404 12.5033 13.2567 12.2926 12.8997 12.2705C12.8533 11.9033 13.0046 11.6323 13.3273 11.4778C13.6017 11.3494 13.7247 11.1105 13.8659 10.8757Z" fill="#46A6DC"/>
<path d="M15.7278 18.787C14.8988 18.6846 14.6466 17.916 14.2008 17.4082C13.0672 16.1238 12.813 14.4581 12.4076 12.8686C12.5286 12.7743 12.6517 12.6819 12.7727 12.5876C13.041 13.0934 13.0148 13.6613 13.1277 14.1992C13.4484 15.7144 14.2311 16.9828 15.274 18.1046C15.4616 18.3073 15.7278 18.4598 15.7278 18.787Z" fill="#449ED7"/>
<path d="M18.9996 9.794C18.4187 9.38459 17.8357 8.97718 17.2548 8.56777C18.1221 8.38113 18.5881 7.55027 19.4373 7.28335C22.342 6.36619 25.4 8.01587 26.1625 10.942C26.5821 12.5515 26.1787 13.9925 25.39 15.3792C25.3456 15.3612 25.3032 15.3471 25.2568 15.3351C24.7445 14.9598 24.6113 14.3858 24.456 13.8219C24.8251 13.7436 25.0208 13.4927 25.0591 13.1455C25.1197 12.5936 25.1963 12.0538 25.0854 11.4818C24.5932 8.94106 21.6118 7.42985 19.4212 8.64805C19.4817 8.78653 19.5442 8.923 19.6068 9.06348C19.0783 8.9812 18.7111 8.52161 18.0838 8.36106C18.3924 8.95912 18.9068 9.16583 19.3143 9.49296C19.1791 9.6194 19.0904 9.70569 18.9996 9.794Z" fill="#57C8EB"/>
<path d="M25.2569 15.3331C25.3013 15.3451 25.3456 15.3612 25.388 15.3773C25.4586 15.598 25.626 15.7345 25.8136 15.8529C25.8156 16.2202 26.0073 16.6055 25.6986 16.9386C25.6159 16.6356 25.2932 16.6235 25.1076 16.4449C25.0531 16.2924 24.9946 16.1399 24.9402 15.9894C25.0471 15.7706 25.152 15.5519 25.2569 15.3331Z" fill="#CFEBF2"/>
<path d="M25.1096 16.4449C25.2952 16.6235 25.62 16.6356 25.7006 16.9386C25.6986 16.9868 25.7006 17.035 25.7027 17.0851C24.5347 18.2391 23.1389 18.9395 21.4989 19.094C17.8741 19.4352 14.7273 16.8503 14.2028 13.1997C14.1262 12.6679 14.2008 12.118 14.1665 11.5782C14.1363 11.0985 14.6628 11.2892 14.7919 11.0182C14.8382 10.9681 14.8846 10.9179 14.931 10.8697C15.2679 11.2229 15.1126 11.6604 15.0944 12.0498C15.0016 14.0146 15.6895 15.6582 17.1983 16.8905C18.3985 17.8718 19.7904 18.3796 21.4122 18.201C22.8665 18.0364 24.0425 17.3781 25.1096 16.4449Z" fill="#48AADF"/>
<path d="M25.1096 16.4449C24.0425 17.3781 22.8665 18.0364 21.4081 18.197C19.7884 18.3736 18.3945 17.8678 17.1943 16.8865C15.6875 15.6542 14.9996 14.0105 15.0904 12.0458C15.1085 11.6584 15.2639 11.2189 14.927 10.8657C15.2397 10.6128 15.5967 10.5125 15.9981 10.5526C16.4762 10.6289 16.2018 10.9761 16.1615 11.1507C15.9275 12.2063 15.9759 13.2319 16.3551 14.2514C17.1499 16.3867 19.1993 17.33 20.9321 17.3601C22.1101 17.3802 23.155 16.8082 24.1273 16.1258C24.452 15.899 24.4924 15.6923 24.4419 15.3773C24.7485 15.4676 24.7425 15.8087 24.9402 15.9874C24.9966 16.1419 25.0531 16.2924 25.1096 16.4449Z" fill="#4BB1E4"/>
<path d="M19.6068 9.05949C19.5463 8.92101 19.4838 8.78254 19.4213 8.64406C21.6099 7.42586 24.5912 8.93707 25.0854 11.4778C25.1964 12.0478 25.1218 12.5896 25.0592 13.1416C25.0209 13.4887 24.8232 13.7396 24.4561 13.8179C24.0426 13.5329 24.0385 12.9027 23.5161 12.7081C23.4677 12.4532 23.4173 12.1983 23.3688 11.9434C23.3547 11.4417 23.8994 11.0082 23.5524 10.4162C23.1268 10.5968 22.6689 10.3038 22.2473 10.5486C21.7975 10.37 21.3416 10.2135 21.2629 9.62343C21.2387 9.44281 21.035 9.34849 20.8373 9.42073C20.6699 9.48295 20.5408 9.56122 20.6195 9.81409C20.7748 10.3098 20.3834 10.2456 20.091 10.2656C19.8973 10.1593 19.9881 9.93852 19.8973 9.79201C19.7541 9.56925 19.5826 9.35451 19.6068 9.05949Z" fill="#64CBEB"/>
<path d="M24.4419 15.3792C24.4943 15.6943 24.452 15.901 24.1272 16.1278C23.1549 16.8082 22.11 17.3821 20.932 17.3621C19.1973 17.332 17.1498 16.3887 16.3551 14.2534C15.9759 13.2339 15.9274 12.2103 16.1614 11.1527C16.1998 10.9781 16.4761 10.6309 15.998 10.5546C16.4156 10.2977 16.8977 10.4101 17.3455 10.3439C17.7187 10.2877 17.8074 10.5606 17.5956 10.8797C17.4524 10.8416 17.4363 10.5907 17.2003 10.671C17.0268 11.5501 16.7424 12.391 16.9522 13.3603C17.4121 15.4696 19.8206 16.9165 21.9043 16.3245C22.8483 16.0556 23.4514 15.3351 24.2664 14.9136C24.3269 15.0682 24.3854 15.2227 24.4419 15.3792Z" fill="#4BB7E8"/>
<path d="M24.2664 14.9116C23.4535 15.3351 22.8483 16.0556 21.9043 16.3225C19.8186 16.9145 17.4101 15.4675 16.9522 13.3583C16.7424 12.3909 17.0268 11.55 17.2003 10.669C17.4363 10.5867 17.4524 10.8396 17.5957 10.8777C17.5533 11.0624 17.6461 11.2008 17.757 11.3333C17.755 11.823 17.7429 12.3107 17.755 12.8004C17.7913 14.2072 19.0904 15.4154 20.4943 15.5518C21.9648 15.6943 22.9331 14.9578 23.8267 13.9824C24.0304 14.2654 24.2583 14.5363 24.2664 14.9116Z" fill="#4CBCEC"/>
<path d="M23.8267 13.9804C22.9311 14.9558 21.9649 15.6923 20.4944 15.5498C19.0904 15.4134 17.7914 14.2052 17.7551 12.7984C17.743 12.3107 17.7551 11.821 17.7571 11.3313C18.0576 11.4698 18.334 11.6765 18.687 11.6785C18.683 11.7548 18.691 11.835 18.6729 11.9113C18.4268 12.9509 18.8645 13.9423 19.7984 14.452C20.7465 14.9698 21.6562 14.7992 22.4893 14.0105C22.8101 13.7075 22.9331 13.2379 23.3668 13.0472C23.6492 13.2981 23.7763 13.6192 23.8267 13.9804Z" fill="#4CC1EF"/>
<path d="M23.3667 13.0492C22.931 13.2399 22.808 13.7115 22.4892 14.0125C21.6541 14.8013 20.7464 14.9718 19.7984 14.4541C18.8644 13.9443 18.4267 12.9549 18.6728 11.9133C18.6909 11.8391 18.6829 11.7588 18.6869 11.6805C18.8765 11.817 19.165 11.7146 19.3142 11.9454C19.3405 12.1561 19.6511 12.0578 19.6793 12.3629C19.7701 13.3583 20.3611 13.8319 21.1599 13.6513C21.8639 13.4907 22.221 12.7582 21.993 11.9494C22.229 11.8591 22.465 11.7708 22.7011 11.6825C22.9229 11.7688 23.1468 11.8591 23.3687 11.9454C23.4171 12.2003 23.4676 12.4552 23.516 12.7121C23.4656 12.8224 23.4171 12.9348 23.3667 13.0492Z" fill="#4EC8F4"/>
<path d="M21.991 11.9494C22.221 12.7582 21.8619 13.4927 21.158 13.6513C20.3592 13.8319 19.7681 13.3563 19.6774 12.3628C19.6491 12.0578 19.3405 12.1581 19.3123 11.9454C19.5261 11.9715 19.8065 12.114 19.8831 11.7869C20.0425 11.1045 20.458 11.4256 20.8231 11.5179C21.164 11.7929 21.6925 11.5661 21.991 11.9494Z" fill="#55C9F3"/>
<path d="M21.9911 11.9494C21.6905 11.5661 21.1641 11.7949 20.8232 11.518C21.16 11.4899 21.0108 11.3755 20.8998 11.2109C20.6658 10.8637 20.569 10.4081 20.0909 10.2676C20.3814 10.2476 20.7748 10.3118 20.6194 9.81609C20.5408 9.56523 20.6699 9.48495 20.8373 9.42274C21.033 9.34848 21.2387 9.44481 21.2629 9.62544C21.3416 10.2155 21.7995 10.372 22.2473 10.5506C22.6164 10.8416 22.5963 11.2852 22.6991 11.6805C22.4651 11.7708 22.2291 11.8591 21.9911 11.9494Z" fill="#E4F3F7"/>
<path d="M19.6068 9.05948C19.5826 9.35249 19.754 9.56924 19.8992 9.79602C19.5987 9.6736 19.2981 10.0569 18.9976 9.79401C19.0883 9.70772 19.1771 9.61941 19.3123 9.49097C18.9068 9.16384 18.3904 8.95713 18.0818 8.35907C18.7132 8.51762 19.0783 8.9772 19.6068 9.05948Z" fill="#E4F3F7"/>
<path d="M23.3668 13.0492C23.4173 12.9368 23.4657 12.8244 23.5141 12.7101C24.0365 12.9047 24.0406 13.5349 24.4541 13.8199C24.6074 14.3818 24.7405 14.9578 25.2549 15.3331C25.15 15.5518 25.0451 15.7706 24.9402 15.9893C24.7445 15.8107 24.7506 15.4696 24.442 15.3792C24.3835 15.2227 24.325 15.0682 24.2665 14.9116C24.2564 14.5363 24.0305 14.2634 23.8247 13.9804C23.7763 13.6192 23.6492 13.2981 23.3668 13.0492Z" fill="#D4EDF4"/>
<path d="M22.7011 11.6825C22.5982 11.2872 22.6164 10.8436 22.2493 10.5526C22.6709 10.3058 23.1287 10.6008 23.5544 10.4202C23.9013 11.0122 23.3567 11.4437 23.3708 11.9474C23.1469 11.8571 22.923 11.7708 22.7011 11.6825Z" fill="#DAF0F5"/>
</svg>
