<svg width="10" height="12" viewBox="0 0 10 12" fill="none" xmlns="http://www.w3.org/2000/svg">
<path d="M8.15 4.4355V3.81249C8.15 2.12113 6.73971 0.75 5 0.75C3.26029 0.75 1.85 2.12113 1.85 3.81249V4.4355C1.03101 4.783 0.501181 5.56874 0.5 6.43749V9.06249C0.501477 10.27 1.50797 11.2486 2.74999 11.25H7.24999C8.49201 11.2486 9.4985 10.27 9.5 9.06249V6.43749C9.49884 5.56874 8.96898 4.783 8.15 4.4355ZM5.44999 8.18751C5.44999 8.42913 5.24853 8.625 5 8.625C4.75147 8.625 4.55001 8.42913 4.55001 8.18751V7.3125C4.55001 7.07088 4.75147 6.87501 5 6.87501C5.24853 6.87501 5.44999 7.07088 5.44999 7.3125V8.18751ZM7.25001 4.25001H2.74999V3.81251C2.74999 2.6044 3.75734 1.62501 5 1.62501C6.24266 1.62501 7.25001 2.60438 7.25001 3.81251V4.25001Z" fill="#55C9F3"/>
</svg>
