<svg width="10" height="11" viewBox="0 0 10 11" fill="none" xmlns="http://www.w3.org/2000/svg">
<path d="M8.15 3.9355V3.31249C8.15 1.62113 6.73971 0.25 5 0.25C3.26029 0.25 1.85 1.62113 1.85 3.31249V3.9355C1.03101 4.283 0.501181 5.06874 0.5 5.93749V8.56249C0.501477 9.77001 1.50797 10.7486 2.74999 10.75H7.24999C8.49201 10.7486 9.4985 9.77001 9.5 8.56249V5.93749C9.49884 5.06874 8.96898 4.283 8.15 3.9355ZM5.44999 7.68751C5.44999 7.92913 5.24853 8.125 5 8.125C4.75147 8.125 4.55001 7.92913 4.55001 7.68751V6.8125C4.55001 6.57088 4.75147 6.37501 5 6.37501C5.24853 6.37501 5.44999 6.57088 5.44999 6.8125V7.68751ZM7.25001 3.75001H2.74999V3.31251C2.74999 2.1044 3.75734 1.12501 5 1.12501C6.24266 1.12501 7.25001 2.10438 7.25001 3.31251V3.75001Z" fill="#3E1893"/>
</svg>
