<svg width="91" height="36" viewBox="0 0 91 36" fill="none" xmlns="http://www.w3.org/2000/svg">
<path d="M43.5242 3.37354H50.1344V24.7873H43.5242V3.37354Z" fill="#1884D8"/>
<path d="M59.4597 27.1876L51.9519 27.2478L50.3563 30.5772L43.5161 30.6394L52.0406 9.99634H59.028L66.8304 30.9124L60.3533 30.9927L59.4597 27.1876ZM57.8984 22.6459L55.1833 15.3829L53.0169 22.6459H57.8984Z" fill="#1884D8"/>
<path d="M80.3938 13.1353C80.3938 18.9233 75.9762 22.4414 68.7507 22.4414H61.8137V3.79315L68.7507 3.78111C75.9762 3.75903 80.3938 7.30123 80.3938 13.1353ZM73.7371 13.1112C73.7371 8.87064 72.422 7.69258 68.6115 7.69258L68.0427 7.71064V17.7914L68.664 17.7753C72.43 17.7773 73.7311 16.9384 73.7311 13.1072L73.7371 13.1112Z" fill="#1884D8"/>
<path d="M75.5627 31.2475C74.7275 30.1437 73.3276 28.5884 73.3276 26.6477C74.5964 26.6778 78.3463 26.6316 78.3463 26.6316C78.7276 27.2859 79.0967 29.3951 82.8103 29.5156C84.0387 29.5557 85.2309 28.3114 85.1926 27.4344C85.1058 25.303 83.2521 24.9799 81.1199 24.0447C78.3645 22.8707 75.7139 21.4498 75.7139 18.2046C75.7139 14.4778 79.2924 11.8186 83.4235 11.8186C86.7458 11.8186 89.0615 13.083 90.1891 15.4913C90.7377 16.4385 91.0181 17.5162 90.9959 18.61C89.0594 18.61 86.3423 18.6702 86.3423 18.6702C85.7069 16.6994 84.6338 16.4305 83.593 16.4305C82.4048 16.4305 81.4669 17.6346 81.4507 18.3772C81.4185 19.8061 82.7538 19.9366 85.1038 20.9119C88.5067 22.3268 90.9959 24.135 90.9959 27.314C90.9959 31.4141 87.1351 33.9649 82.774 33.9649C79.1976 33.9649 76.541 32.4758 75.5627 31.2475Z" fill="#1884D8"/>
<path d="M27.2436 4.00977C26.9431 3.89538 26.6264 3.82514 26.3258 3.71074C26.1221 3.76092 25.9163 3.81109 25.7126 3.85926C24.7605 3.79704 23.8326 3.94756 22.9067 4.15628C22.8926 4.06597 22.8765 3.97566 22.8603 3.88535C22.8704 3.33947 22.1402 3.34348 22.0757 2.81366C22.2491 2.80161 22.4206 2.78957 22.5921 2.77753C21.287 2.51864 19.9819 2.54272 18.6747 2.76549C18.5739 2.77151 18.471 2.77552 18.3681 2.78154C17.9445 2.7113 17.5471 2.85781 17.1498 2.94812C14.2793 3.60438 11.7095 4.82659 9.63384 6.96194C8.70796 7.71052 7.9596 8.61564 7.32217 9.61508C6.79771 10.3617 6.35192 11.1444 5.98682 11.9632C8.41749 6.398 13.9929 2.5066 20.4841 2.5066C22.9047 2.50459 25.1942 3.04445 27.2436 4.00977Z" fill="#C4E7F1"/>
<path d="M36.2885 18.2267C36.2885 18.5398 36.2785 18.8508 36.2603 19.1619C36.2502 19.3185 36.2401 19.477 36.226 19.6335C36.1958 19.9807 36.1534 20.3219 36.0989 20.6631C36.0122 21.215 35.8972 21.7569 35.754 22.2887C35.6632 22.6319 35.5604 22.967 35.4474 23.2962C35.2679 23.818 35.0621 24.3277 34.8322 24.8234C34.6425 25.2328 34.4348 25.6302 34.2109 26.0195C34.0152 26.3647 33.8054 26.6999 33.5815 27.027C30.7595 31.1773 25.997 33.9147 20.589 33.9488C20.587 33.9509 20.587 33.9509 20.587 33.9488C20.585 33.9509 20.585 33.9488 20.585 33.9488C20.583 33.9509 20.583 33.9509 20.5809 33.9488C20.5789 33.9509 20.5789 33.9488 20.5789 33.9488C20.5446 33.9509 20.5144 33.9509 20.4821 33.9509C20.3046 33.9509 20.1311 33.9468 19.9576 33.9408H19.9556C19.4937 33.9268 19.0358 33.8906 18.584 33.8365C18.4448 33.8204 18.3056 33.8023 18.1664 33.7823C18.1644 33.7823 18.1624 33.7823 18.1604 33.7803C17.7509 33.7221 17.3495 33.6458 16.9521 33.5555C16.9501 33.5535 16.948 33.5535 16.946 33.5535C16.5446 33.4632 16.1472 33.3548 15.7579 33.2344C15.6429 33.2003 15.532 33.1641 15.419 33.126C15.3202 33.0919 15.2234 33.0598 15.1245 33.0237C14.3963 32.7628 13.6924 32.4497 13.0206 32.0904C12.9299 32.0403 12.8391 31.9921 12.7463 31.9419C12.5406 31.8275 12.3388 31.7071 12.1371 31.5827C12.1331 31.5807 12.127 31.5787 12.123 31.5727C11.9455 31.4643 11.774 31.3499 11.6006 31.2335C11.6006 31.2335 11.6006 31.2335 11.5985 31.2335C11.411 31.1071 11.2294 30.9766 11.0479 30.8421C11.0438 30.8401 11.0438 30.8381 11.0398 30.8361C11.0378 30.8361 11.0378 30.8361 11.0378 30.8341C10.8421 30.6896 10.6525 30.5411 10.4669 30.3886C10.4649 30.3886 10.4649 30.3866 10.4629 30.3866C10.2592 30.222 10.0615 30.0514 9.86581 29.8768C9.86379 29.8748 9.86178 29.8748 9.86178 29.8728C9.65401 29.6842 9.45229 29.4935 9.25663 29.2948C9.25461 29.2928 9.25461 29.2928 9.25259 29.2908C9.10736 29.1443 8.96414 28.9958 8.82294 28.8433C8.59298 28.5964 8.37311 28.3395 8.16131 28.0766C8.15324 28.0646 8.14518 28.0545 8.13509 28.0425C8.01204 27.89 7.89303 27.7375 7.77805 27.5789C7.77604 27.5769 7.77402 27.5749 7.772 27.5729C7.61063 27.3581 7.45732 27.1394 7.30805 26.9166L7.30604 26.9146C7.03776 26.5112 6.78561 26.0978 6.55364 25.6703C6.5496 25.6643 6.54355 25.6563 6.54154 25.6483C6.28536 25.1706 6.05137 24.6809 5.8436 24.1752C5.74879 23.9404 5.656 23.7036 5.5733 23.4667C5.47849 23.1978 5.38772 22.9229 5.30704 22.6459C5.30502 22.6419 5.30502 22.6399 5.30502 22.6359C5.24652 22.4332 5.19004 22.2325 5.13759 22.0258V22.0238C5.06901 21.7488 5.0085 21.4719 4.95403 21.1909C4.95403 21.1889 4.95403 21.1869 4.95202 21.1869C4.88343 20.8256 4.82493 20.4604 4.78257 20.0911C4.78056 20.0871 4.78056 20.0811 4.78056 20.0771C4.71399 19.5191 4.6797 18.9532 4.67163 18.3792V18.2187C4.67163 18.0581 4.67365 17.8976 4.6797 17.739C4.6797 17.729 4.6797 17.7189 4.68172 17.7109C4.68373 17.6487 4.68575 17.5885 4.68777 17.5263C4.71601 16.8981 4.77854 16.28 4.87738 15.6719C4.93588 15.3969 5.01051 15.122 5.11137 14.8531C5.10129 15.2926 5.08111 15.7361 5.5854 15.9529C5.80326 15.7883 5.74274 15.5475 5.73669 15.3327C5.72257 14.8912 5.91823 14.6845 6.36201 14.7106C6.41445 14.6082 6.4669 14.5039 6.51935 14.4015C6.49716 14.1888 6.59196 13.9439 6.36403 13.7814C6.13407 13.946 5.85974 13.7954 5.60759 13.7954C5.59347 13.7954 5.57935 13.7974 5.56523 13.7974C5.55111 13.7994 5.53699 13.7994 5.52489 13.8015C5.51279 13.8035 5.5027 13.8055 5.4906 13.8075C5.48051 13.8095 5.47244 13.8115 5.46437 13.8135C5.45429 13.8175 5.4442 13.8195 5.43412 13.8255C5.42605 13.8275 5.42 13.8316 5.41193 13.8356C5.40386 13.8396 5.39781 13.8416 5.38974 13.8456C5.35948 13.8637 5.32922 13.8857 5.29897 13.9138C5.29292 13.9199 5.28686 13.9259 5.28081 13.9319V13.9299C5.38167 13.5506 5.49867 13.1753 5.6318 12.808C5.63583 12.798 5.63785 12.788 5.64188 12.7779C5.67617 12.6856 5.71047 12.5913 5.74879 12.499C5.773 12.4368 5.79922 12.3725 5.82544 12.3103C5.84763 12.2561 5.87184 12.1999 5.89403 12.1458C5.89403 12.1437 5.89403 12.1417 5.89604 12.1397C5.90008 12.1277 5.90613 12.1177 5.91016 12.1056C5.93235 12.0534 5.95656 11.9992 5.97875 11.9451C6.34385 11.1242 6.78965 10.3435 7.31411 9.59697C7.95153 8.59753 8.69989 7.69242 9.62577 6.94384C11.7014 4.80848 14.2713 3.58627 17.1417 2.93001C17.5371 2.8397 17.9365 2.6932 18.3601 2.76344C18.4609 2.75742 18.5638 2.7534 18.6667 2.74738C19.9738 2.52462 21.2789 2.50053 22.584 2.75942C22.4125 2.77147 22.239 2.7815 22.0676 2.79555C22.1342 3.32537 22.8624 3.32136 22.8523 3.86724C22.8664 3.95755 22.8825 4.04786 22.8987 4.13817C23.8225 3.92945 24.7524 3.77894 25.7045 3.84115C25.9103 3.79098 26.114 3.7408 26.3177 3.69264C26.6183 3.80703 26.935 3.87928 27.2355 3.99167C27.2376 3.99368 27.2396 3.99368 27.2416 3.99568C27.3788 4.0599 27.5159 4.12814 27.6491 4.19637C27.6511 4.19637 27.6511 4.19637 27.6511 4.19838L28.4337 4.62385C28.4358 4.62585 28.4358 4.62585 28.4378 4.62585C29.0066 4.95499 29.5512 5.32024 30.0717 5.71561C30.5961 6.11498 31.0964 6.54848 31.5664 7.00806C32.0102 7.44356 32.4297 7.90314 32.819 8.38881C33.1821 8.84037 33.523 9.31199 33.8357 9.80369C34.1544 10.3034 34.4449 10.8232 34.7051 11.357C34.9976 11.9551 35.2517 12.5732 35.4676 13.2114C35.4676 13.2114 35.4676 13.2114 35.4676 13.2134C35.9214 14.5641 36.1978 15.997 36.2664 17.4821C36.2825 17.739 36.2885 17.9819 36.2885 18.2267Z" fill="#365CA8"/>
<path d="M36.2886 18.2268C36.2886 18.5399 36.2785 18.8509 36.2603 19.162C35.9517 19.3607 35.7903 19.6758 35.6451 20.021C34.3561 23.0875 32.5326 25.7688 29.8861 27.8439C25.1539 31.5567 19.8205 32.8572 13.8881 31.7995C13.4302 31.7173 12.9501 31.4102 12.466 31.7454C12.357 31.6952 12.2481 31.643 12.1432 31.5848C12.1392 31.5828 12.1331 31.5808 12.1291 31.5748C11.9475 31.4744 11.7741 31.362 11.6066 31.2356C11.6066 31.2356 11.6066 31.2356 11.6046 31.2356C11.5179 31.1694 11.4312 31.0971 11.3464 31.0249C11.5441 30.77 11.8124 30.8222 12.0585 30.8984C14.6526 31.7153 17.291 32.0002 20.0021 31.631C22.5921 31.2777 25.0369 30.5412 27.2598 29.1444C28.3511 28.6868 29.2991 28.0326 30.0657 27.1275C30.8745 26.692 31.4978 26.0718 31.9356 25.267C32.8433 24.5044 33.5029 23.5612 33.9628 22.4754C34.2593 22.349 34.3118 22.048 34.4509 21.8091C35.1025 20.6953 35.4636 19.459 35.986 18.289C35.988 18.1847 35.99 18.0803 35.99 17.9759C36.0848 17.8174 36.1797 17.6568 36.2745 17.4983C36.2825 17.7391 36.2886 17.982 36.2886 18.2268Z" fill="#63CAE8"/>
<path d="M36.2603 19.1619C36.2502 19.3184 36.2401 19.477 36.226 19.6335C36.0021 19.79 35.9174 20.059 35.8044 20.3158C34.3722 23.555 32.3329 26.3125 29.4604 28.4639C26.7675 30.4788 23.7579 31.691 20.4659 32.2108C18.8361 32.4677 17.182 32.4797 15.5199 32.3011C14.8784 32.2309 14.1805 31.7793 13.5168 32.2911C13.3474 32.2329 13.182 32.1687 13.0246 32.0904C12.9318 32.0442 12.8391 31.9961 12.7503 31.9419C12.6515 31.8817 12.5567 31.8174 12.4639 31.7452C12.948 31.41 13.4281 31.7171 13.886 31.7994C19.8164 32.857 25.1498 31.5566 29.884 27.8438C32.5305 25.7666 34.3541 23.0874 35.643 20.0208C35.7883 19.6776 35.9516 19.3605 36.2603 19.1619Z" fill="#5EC9E5"/>
<path d="M36.226 19.6335C36.1957 19.9807 36.1534 20.3219 36.0989 20.6631C35.9335 20.8999 35.754 21.1267 35.6067 21.3735C34.7494 22.8105 33.9345 24.2615 32.8452 25.562C30.5275 28.3255 27.6652 30.2722 24.2885 31.4824C21.2284 32.5801 18.0797 32.9133 14.8522 32.4136C14.6081 32.3754 14.3237 32.3212 14.1442 32.5942C13.9344 32.4938 13.7266 32.3915 13.5168 32.2891C14.1785 31.7774 14.8784 32.2309 15.5199 32.2992C17.182 32.4798 18.8361 32.4657 20.466 32.2089C23.758 31.6891 26.7675 30.4769 29.4605 28.462C32.3329 26.3105 34.3702 23.5551 35.8044 20.3139C35.9174 20.059 36.0021 19.7921 36.226 19.6335Z" fill="#5DC9E5"/>
<path d="M36.2703 17.4961C36.1755 17.6547 36.0807 17.8152 35.9859 17.9738C35.9395 17.9216 35.8911 17.8674 35.8447 17.8152C35.8407 17.4038 35.8366 16.9924 35.8326 16.583C35.4392 16.1354 35.5764 15.4812 35.2093 15.0256C35.1649 14.6523 34.939 14.5379 34.592 14.5921C34.9531 14.3633 35.298 14.1406 35.2516 13.6168C35.2496 13.6047 35.2496 13.5927 35.2537 13.5806C35.2537 13.5746 35.2557 13.5686 35.2577 13.5626C35.2617 13.5465 35.2678 13.5285 35.2759 13.5104C35.2799 13.5024 35.2819 13.4964 35.2859 13.4883C35.29 13.4803 35.296 13.4743 35.3001 13.4663C35.3101 13.4522 35.3202 13.4362 35.3303 13.4201V13.4181C35.3424 13.404 35.3525 13.388 35.3646 13.3719C35.3747 13.3599 35.3828 13.3499 35.3928 13.3378C35.407 13.3197 35.4211 13.3017 35.4352 13.2836C35.4493 13.2656 35.4634 13.2475 35.4755 13.2314C35.9274 14.5781 36.2037 16.011 36.2703 17.4961Z" fill="#3B84C5"/>
<path d="M20.2462 3.54828C19.6128 3.65264 19.0218 3.86738 18.461 4.15236C18.3682 4.19852 18.2754 4.2507 18.1826 4.30088C18.0899 4.35306 17.9991 4.40524 17.9083 4.45942C17.8881 4.44537 17.868 4.43133 17.8498 4.41728C17.7893 4.37513 17.7288 4.34101 17.6683 4.31091C17.1055 4.02994 16.4963 4.1905 15.8972 4.25271C15.2194 4.32095 14.6183 4.80461 13.8639 4.56378C13.636 4.48953 13.174 4.67216 13.1559 5.0033C13.1337 5.37457 12.9058 5.46689 12.6798 5.62745C9.67226 7.76079 8.42162 10.7451 8.92792 14.2913C9.39994 17.6067 11.3727 19.9668 14.5437 21.2131C15.407 21.5523 16.3107 21.9778 17.2931 21.5443C17.3455 21.4941 17.3939 21.4439 17.4464 21.3958C17.7207 21.5663 17.9466 21.769 17.9325 22.1303C17.5593 22.8307 16.8957 22.5016 16.4257 22.4333C13.0127 21.9356 10.578 20.0592 9.02071 17.0227C8.5729 16.1477 8.33085 15.2044 8.09484 14.2572C8.04239 13.8959 7.98995 13.5387 7.9375 13.1775C7.94759 11.1786 8.45994 9.32418 9.52702 7.62232C9.64603 7.43367 9.94054 7.23699 9.642 6.96204C11.7177 4.82669 14.2875 3.60448 17.1579 2.94822C17.5533 2.85791 17.9527 2.7114 18.3763 2.78164C18.4045 3.18704 18.7192 3.08669 18.9532 3.09271C19.2295 3.09673 19.5079 2.98635 19.7822 3.11078C19.754 3.21112 19.5624 3.23119 19.639 3.39174C19.8407 3.4359 20.0868 3.32752 20.2462 3.54828Z" fill="#C4E7F1"/>
<path d="M7.91731 27.7516C7.70954 27.4405 7.36058 27.2237 7.29199 26.8183C7.61474 26.7822 7.87697 26.8886 8.15735 27.0632C11.407 29.1102 14.935 30.1478 18.8039 29.913C19.2255 29.8869 19.6995 29.9772 19.9335 29.4735C20.4479 29.1885 21.0752 29.4213 21.5876 29.1203C23.0904 29.1163 24.3733 28.464 25.6481 27.7756C25.8438 27.6693 26.0314 27.577 25.8559 27.314C26.3561 27.3321 26.5538 26.9608 26.7656 26.6076C27.0803 26.9949 27.3567 26.6297 27.5402 26.4932C28.1655 26.0356 28.8453 25.6222 29.2871 24.9519C29.392 25.0563 29.4948 25.1606 29.5977 25.265C29.7571 25.8731 29.2003 26.0778 28.8897 26.3186C25.1882 29.1925 21.049 30.6375 16.2865 30.2502C13.6723 30.0374 11.2779 29.2668 9.01263 28.0265C8.65156 27.8338 8.31872 27.7034 7.91731 27.7516Z" fill="#7CD1EE"/>
<path d="M7.91724 27.7515C8.31865 27.7034 8.64946 27.8338 9.01053 28.0305C11.2778 29.2708 13.6702 30.0414 16.2844 30.2542C21.0469 30.6415 25.1861 29.1985 28.8876 26.3226C29.1982 26.0818 29.755 25.8771 29.5956 25.269C29.9244 25.2028 30.1322 25.4336 30.3742 25.5781C30.108 26.0818 29.5956 26.3226 29.1882 26.6718C26.1624 29.2728 22.5981 30.5713 18.6525 30.8342C15.7095 31.0308 12.9057 30.3946 10.2067 29.2186C9.86783 29.0701 9.49465 28.6085 9.0186 28.9938C8.55466 28.6667 8.2662 28.181 7.91724 27.7515Z" fill="#7AD0ED"/>
<path d="M9.01855 28.9958C9.4946 28.6105 9.86576 29.0721 10.2067 29.2206C12.9056 30.3947 15.7095 31.0308 18.6525 30.8362C22.6001 30.5713 26.1624 29.2748 29.1881 26.6738C29.5956 26.3226 30.1079 26.0818 30.3742 25.5801C30.4791 25.6303 30.584 25.6824 30.6869 25.7326C30.6586 25.9995 30.5255 26.1922 30.3238 26.3828C28.946 27.6833 27.411 28.739 25.6883 29.5437C21.6298 31.4443 17.4402 31.8075 13.0912 30.786C12.0988 30.5532 11.189 29.9893 10.124 30.0515C9.68422 29.7765 9.33121 29.4053 9.01855 28.9958Z" fill="#6FCDEB"/>
<path d="M30.9754 13.37C30.5518 13.2475 30.0879 13.392 29.6643 13.2556C29.634 13.2455 29.6038 13.2335 29.5735 13.2214C29.5291 13.2014 29.4848 13.1793 29.4424 13.1512C29.4727 13.1291 29.5029 13.105 29.5271 13.081C29.7087 12.9084 29.7571 12.6876 29.7591 12.4187C29.7652 11.7223 29.7067 11.0359 29.5977 10.3476C29.1519 7.49774 27.4353 5.56709 25.0269 4.0318C25.2951 4.05187 25.5069 3.96958 25.7087 3.8592C25.9144 3.80903 26.1181 3.75886 26.3219 3.71069C26.6224 3.82509 26.9391 3.89734 27.2397 4.00972C27.2417 4.01173 27.2437 4.01173 27.2457 4.01374C27.3869 4.06592 27.5241 4.13014 27.6532 4.21443C27.6552 4.21443 27.6552 4.21443 27.6552 4.21644C27.6976 4.24453 27.7399 4.27263 27.7803 4.30474C27.3809 4.58972 27.7641 4.74225 27.9053 4.89276C29.9608 7.10037 31.0218 9.66119 30.6628 12.6997C30.6245 13.0569 30.8221 13.1713 30.9754 13.37Z" fill="#38B7E4"/>
<path d="M10.124 30.0535C11.1891 29.9913 12.0988 30.5553 13.0913 30.7881C17.4403 31.8096 21.6319 31.4443 25.6884 29.5458C27.4111 28.739 28.9461 27.6834 30.3238 26.3849C30.5255 26.1962 30.6567 26.0016 30.6869 25.7347C30.8584 25.7286 31.0419 25.7607 31.1549 25.5781C33.0127 23.6274 34.3622 21.3756 35.2114 18.8228C35.3385 18.4395 35.3909 18.002 35.8448 17.8174C35.8912 17.8696 35.9396 17.9237 35.986 17.9779C35.984 18.0823 35.984 18.1867 35.982 18.291C35.8125 18.3031 35.6814 18.3813 35.633 18.5439C35.2296 19.9206 34.4691 21.1448 33.9587 22.4754C33.2366 23.3705 32.5387 24.2857 31.9335 25.267C31.2457 25.825 30.6224 26.4451 30.0636 27.1275C29.0772 27.7295 28.1594 28.4239 27.2578 29.1424C25.0348 30.5392 22.5901 31.2777 20.002 31.631C17.291 32.0002 14.6546 31.7173 12.0585 30.8984C11.8144 30.8222 11.5461 30.77 11.3464 31.0249C10.8885 30.766 10.4871 30.4328 10.124 30.0535Z" fill="#69CCE9"/>
<path d="M33.7146 26.979C31.3363 30.5654 27.9697 32.7007 23.7982 33.6319C22.6363 33.8908 21.4543 34.0433 20.2561 33.9229C21.1315 33.4493 22.1381 33.4694 23.07 33.1944C26.2935 32.2471 29.2163 30.8102 31.7236 28.5384C32.3389 27.9805 32.8573 27.2499 33.7146 26.979Z" fill="#46C0DB"/>
<path d="M19.9335 29.4755C19.6975 29.9792 19.2234 29.8889 18.8039 29.915C14.935 30.1498 11.4069 29.1102 8.15731 27.0652C7.87894 26.8885 7.61469 26.7842 7.29195 26.8203C7.19311 26.6598 7.09225 26.5012 6.99341 26.3427C7.08216 26.2383 7.17092 26.1339 7.26169 26.0296C7.651 25.8289 7.93542 26.0316 8.24203 26.2483C10.0655 27.5528 12.0807 28.4359 14.2774 28.8814C15.6067 29.1503 16.9602 29.3571 18.3218 29.2166C18.7434 29.1724 19.1327 29.1403 19.53 29.2828C19.6632 29.347 19.7983 29.4112 19.9335 29.4755Z" fill="#80D2EF"/>
<path d="M31.6349 12.5532C31.6147 12.9967 31.5138 13.3519 31.1588 13.6228C31.1124 13.6269 31.064 13.6269 31.0176 13.6208C31.0055 13.5365 30.9914 13.4523 30.9793 13.37C30.824 13.1713 30.6263 13.0589 30.6707 12.6977C31.0277 9.65919 29.9667 7.09836 27.9132 4.89076C27.772 4.74024 27.3888 4.58772 27.7882 4.30273C28.002 4.42114 28.2239 4.52952 28.4458 4.6399C28.4478 4.6419 28.4478 4.6419 28.4498 4.6419C29.0186 4.97104 29.5633 5.33629 30.0837 5.73166C30.0776 5.73768 30.0736 5.74169 30.0696 5.7457C30.0655 5.74972 30.0595 5.75574 30.0554 5.76176C30.0514 5.76577 30.0514 5.76577 30.0494 5.76778C30.0393 5.77782 30.0333 5.78584 30.0272 5.79588C30.0191 5.80591 30.0131 5.81595 30.007 5.82397C30.001 5.83 29.9969 5.83602 29.9949 5.84404C29.9909 5.85207 29.9869 5.85809 29.9828 5.86612C29.9768 5.87615 29.9727 5.8882 29.9687 5.90024C29.9384 5.98453 29.9526 6.0628 29.9869 6.13705C30.007 6.18321 30.0373 6.22736 30.0675 6.26951C30.0978 6.31165 30.1321 6.35179 30.1644 6.39193C30.1785 6.412 30.1946 6.43207 30.2087 6.45013C30.2229 6.4702 30.235 6.48826 30.2451 6.50833C31.3081 8.38881 31.7317 10.4037 31.6349 12.5532Z" fill="#32ADDF"/>
<path d="M34.8343 24.8235C34.4046 24.7633 34.2614 25.1827 34.0859 25.4155C32.0768 28.0887 29.5231 30.0876 26.5135 31.5266C24.2079 32.6284 21.759 33.2164 19.2275 33.4773C18.9108 33.5114 18.6082 33.5275 18.3823 33.7803C18.4509 33.8024 18.5215 33.8205 18.5901 33.8385L19.9618 33.9429H19.9638C20.0626 33.9389 20.1594 33.9328 20.2583 33.9248C21.1337 33.4512 22.1403 33.4713 23.0722 33.1963C26.2976 32.2511 29.2185 30.8121 31.7258 28.5403C31.7984 28.474 31.8711 28.4058 31.9396 28.3356C32.0607 28.2152 32.1797 28.0927 32.3007 27.9723C32.3411 27.9322 32.3814 27.89 32.4217 27.8519C32.4681 27.8057 32.5165 27.7576 32.567 27.7134C32.6013 27.6793 32.6356 27.6492 32.6719 27.6171C32.7566 27.5408 32.8433 27.4686 32.9341 27.3983C32.9765 27.3662 33.0188 27.3361 33.0612 27.306C33.1519 27.2438 33.2468 27.1856 33.3456 27.1354C33.3597 27.1254 33.3759 27.1194 33.392 27.1134C33.4021 27.1093 33.4122 27.1033 33.4202 27.0993C33.4344 27.0913 33.4505 27.0853 33.4666 27.0772C33.4747 27.0732 33.4807 27.0712 33.4888 27.0672C33.507 27.0592 33.5231 27.0531 33.5413 27.0451C33.5554 27.0391 33.5695 27.0351 33.5836 27.0291C33.5856 27.0271 33.5877 27.0271 33.5877 27.0271C33.628 27.013 33.6704 26.997 33.7147 26.9829L34.8343 24.8235Z" fill="#4AC4DE"/>
<path d="M35.7561 22.2887C35.6653 22.6319 35.5625 22.9671 35.4495 23.2962C35.4475 23.2982 35.4455 23.3002 35.4434 23.3002C35.4071 23.3223 35.3728 23.3484 35.3406 23.3745C35.3043 23.4006 35.27 23.4287 35.2377 23.4568C35.2034 23.4849 35.1711 23.515 35.1409 23.5471C35.1147 23.5712 35.0884 23.5972 35.0642 23.6233C35.0481 23.6414 35.0299 23.6595 35.0138 23.6775C34.9956 23.6956 34.9795 23.7137 34.9634 23.7317C34.9371 23.7618 34.9129 23.7919 34.8887 23.824C34.8665 23.8521 34.8464 23.8782 34.8262 23.9083C34.8222 23.9143 34.8161 23.9204 34.8121 23.9264C34.808 23.9344 34.802 23.9404 34.798 23.9485C34.7959 23.9505 34.7939 23.9525 34.7939 23.9545C34.7697 23.9886 34.7475 24.0227 34.7233 24.0568C33.7047 25.5921 32.4742 26.9508 31.1025 28.173C29.7107 29.4133 28.1595 30.4489 26.4631 31.2295C23.6632 32.52 20.7263 33.2505 17.6158 33.1742C17.2749 33.1642 16.9542 33.2605 16.6718 33.4612C16.3692 33.385 16.0687 33.3087 15.7661 33.2324C15.6511 33.2043 15.5361 33.1742 15.4211 33.1461C15.4232 33.1381 15.4252 33.1321 15.4272 33.1241C15.4373 33.096 15.4453 33.0699 15.4575 33.0458C15.4575 33.0458 15.4575 33.0438 15.4595 33.0438C15.4635 33.0338 15.4696 33.0237 15.4736 33.0137C15.5159 32.9394 15.5684 32.8933 15.6289 32.8692C15.639 32.8652 15.6471 32.8612 15.6572 32.8592C15.7177 32.8391 15.7842 32.8371 15.8528 32.8391C15.9174 32.8431 15.9839 32.8531 16.0485 32.8612C16.0626 32.8632 16.0808 32.8652 16.0949 32.8672C16.1251 32.8712 16.1574 32.8712 16.1856 32.8712H16.1957C17.8458 32.8511 19.4877 32.8612 21.1297 32.5782C26.4025 31.663 30.5518 28.9798 33.7995 24.8175C34.3401 24.1251 34.7859 23.3765 35.2195 22.6179C35.3849 22.3309 35.4858 22.2245 35.6189 22.2406C35.625 22.2426 35.6331 22.2426 35.6411 22.2446C35.6512 22.2466 35.6593 22.2486 35.6694 22.2526C35.6795 22.2566 35.6916 22.2606 35.7037 22.2647C35.7077 22.2667 35.7137 22.2687 35.7178 22.2707C35.7299 22.2767 35.742 22.2827 35.7561 22.2887Z" fill="#55C7E1"/>
<path d="M4.94611 20.8237C4.65362 19.742 4.67178 18.6402 4.69397 17.5344C5.33542 17.3739 5.29104 18.1846 5.75499 18.277C6.14027 18.4174 6.58001 18.5037 6.66674 18.9974C6.80795 19.8022 7.45949 19.9547 8.09086 20.1454C8.7545 20.3822 9.24871 20.7555 9.21038 21.5482C9.19223 21.6385 9.17609 21.7289 9.15995 21.8212C9.06515 21.8874 8.9663 21.9516 8.8715 22.0179C7.62489 21.3395 6.30971 20.7816 5.23658 19.8624C4.86139 20.1956 5.02881 20.5388 4.94611 20.8237Z" fill="#3566AA"/>
<path d="M36.0988 20.6631C36.0121 21.215 35.8971 21.7569 35.7539 22.2887C35.7418 22.2827 35.7277 22.2766 35.7176 22.2706C35.7115 22.2666 35.7075 22.2666 35.7035 22.2646C35.6914 22.2606 35.6813 22.2546 35.6692 22.2526C35.6591 22.2485 35.649 22.2465 35.6409 22.2445C35.6329 22.2425 35.6268 22.2405 35.6188 22.2405C35.4856 22.2245 35.3848 22.3308 35.2194 22.6178C34.7857 23.3784 34.3399 24.125 33.7993 24.8174C30.5517 28.9797 26.4024 31.665 21.1295 32.5781C19.4855 32.8631 17.8456 32.8511 16.1955 32.8711H16.1855C16.1572 32.8711 16.1249 32.8691 16.0947 32.8671C16.0806 32.8651 16.0624 32.8631 16.0483 32.8611C15.9837 32.8531 15.9172 32.843 15.8526 32.839C15.784 32.835 15.7175 32.837 15.657 32.8591C15.6469 32.8631 15.6368 32.8651 15.6287 32.8691C15.5682 32.8952 15.5158 32.9394 15.4734 33.0136C15.4694 33.0237 15.4633 33.0337 15.4593 33.0437C15.4573 33.0457 15.4573 33.0457 15.4573 33.0457C15.4452 33.0698 15.4351 33.0959 15.427 33.124C15.423 33.13 15.423 33.1381 15.421 33.1461C15.3261 33.1039 15.2293 33.0638 15.1345 33.0217C14.8057 32.8792 14.4789 32.7367 14.1501 32.5942C14.3297 32.3192 14.6121 32.3754 14.8582 32.4136C18.0856 32.9133 21.2344 32.5781 24.2944 31.4824C27.6712 30.2722 30.5355 28.3255 32.8512 25.562C33.9405 24.2615 34.7554 22.8125 35.6127 21.3735C35.7559 21.1267 35.9334 20.8999 36.0988 20.6631Z" fill="#59C8E3"/>
<path d="M35.4475 23.2961C35.2679 23.8179 35.0622 24.3277 34.8322 24.8234C34.4026 24.7632 34.2594 25.1826 34.0839 25.4154C32.0748 28.0887 29.521 30.0875 26.5114 31.5265C24.2058 32.6283 21.757 33.2163 19.2255 33.4772C18.9088 33.5113 18.6062 33.5274 18.3803 33.7803C18.3097 33.7843 18.2411 33.7843 18.1705 33.7823C18.1685 33.7823 18.1665 33.7823 18.1645 33.7803L16.9562 33.5555C16.9542 33.5535 16.9521 33.5535 16.9501 33.5535C16.8553 33.5254 16.7605 33.4933 16.6677 33.4632C16.9501 33.2625 17.2709 33.1661 17.6118 33.1762C20.7222 33.2524 23.6592 32.5219 26.459 31.2315C28.1554 30.4488 29.7066 29.4152 31.0985 28.1749C32.4701 26.9527 33.7006 25.5941 34.7193 24.0588C34.7415 24.0247 34.7657 23.9905 34.7899 23.9564C34.7919 23.9544 34.7939 23.9524 34.7939 23.9504C34.804 23.9363 34.8141 23.9243 34.8221 23.9103C34.8423 23.8822 34.8625 23.8521 34.8847 23.826C34.9089 23.7959 34.9351 23.7638 34.9593 23.7336C34.9754 23.7136 34.9916 23.6955 35.0097 23.6795C35.0239 23.6594 35.044 23.6413 35.0602 23.6253C35.0864 23.5992 35.1106 23.5731 35.1368 23.549C35.1671 23.5189 35.2014 23.4888 35.2336 23.4587C35.2679 23.4306 35.3002 23.4025 35.3365 23.3764C35.3708 23.3503 35.4031 23.3262 35.4394 23.3022C35.4454 23.3002 35.4475 23.2981 35.4475 23.2961Z" fill="#50C6DF"/>
<path d="M32.2725 13.057C32.1877 13.4825 32.0385 13.9561 32.2482 14.4097C32.0405 14.5261 31.8327 14.5863 31.6209 14.4157C31.5705 14.2592 31.52 14.1006 31.4696 13.9441C31.3647 13.8357 31.2619 13.7314 31.157 13.623C31.512 13.3541 31.6128 12.9968 31.633 12.5533C31.7298 10.4059 31.3082 8.38895 30.2371 6.50647C30.227 6.4884 30.2149 6.46833 30.2008 6.44827C30.1867 6.4302 30.1726 6.41013 30.1564 6.39006C30.1242 6.34993 30.0899 6.30979 30.0596 6.26764C30.0294 6.2255 29.9991 6.18135 29.9789 6.13519C29.9446 6.06093 29.9325 5.98266 29.9608 5.89837C29.9648 5.88633 29.9689 5.87629 29.9749 5.86425C29.9789 5.85623 29.983 5.8502 29.987 5.84218C29.991 5.83616 29.9931 5.83014 29.9991 5.82211C30.0031 5.81207 30.0112 5.80204 30.0193 5.79401C30.0253 5.78398 30.0334 5.77595 30.0415 5.76591C30.0435 5.76391 30.0455 5.7619 30.0475 5.75989C30.0576 5.74986 30.0677 5.73782 30.0778 5.72778C30.6022 6.12716 31.1025 6.56065 31.5725 7.02024C31.5221 7.43968 31.6491 7.83304 31.7661 8.22639C32.2261 9.80784 32.6073 11.3853 32.2725 13.057Z" fill="#35A5DD"/>
<path d="M34.711 11.373C34.6909 11.4312 34.6707 11.4874 34.6525 11.5456C34.6344 11.5998 34.6183 11.656 34.6021 11.7122C34.6001 11.7142 34.6001 11.7162 34.6001 11.7182C34.5819 11.7824 34.5638 11.8467 34.5497 11.9129C34.5275 11.9972 34.5093 12.0815 34.4932 12.1658C34.4831 12.22 34.471 12.2741 34.4629 12.3283C34.4488 12.4026 34.4367 12.4748 34.4266 12.5491C34.4165 12.6113 34.4085 12.6755 34.4004 12.7377C34.3923 12.804 34.3863 12.8702 34.3782 12.9344C34.3742 12.9725 34.3701 13.0107 34.3681 13.0488C34.3641 13.0889 34.3621 13.1271 34.358 13.1672C34.352 13.2455 34.3459 13.3238 34.3419 13.404C34.3359 13.5345 34.3278 13.6649 34.3238 13.7954C34.3217 13.8536 34.3197 13.9158 34.3177 13.974C34.3056 14.3372 34.2995 14.7005 34.2854 15.0637C33.6883 15.8324 33.6561 16.7676 33.5149 17.6687C33.4281 17.7972 33.3495 17.9356 33.178 17.9718C32.9521 17.5824 33.0408 17.0767 32.7181 16.7255C32.7141 16.575 32.712 16.4244 32.708 16.2739C33.6621 14.6644 33.7872 12.8963 33.7045 11.086C33.6944 10.8432 33.6016 10.5843 33.6016 10.3375C33.6016 10.3154 33.6036 10.2913 33.6056 10.2692C33.6056 10.2632 33.6077 10.2552 33.6077 10.2472V10.2431C33.6097 10.2271 33.6117 10.209 33.6137 10.195C33.6157 10.1849 33.6177 10.1749 33.6198 10.1669C33.6238 10.1548 33.6258 10.1448 33.6299 10.1328C33.6339 10.1207 33.6359 10.1107 33.6399 10.0986C33.644 10.0866 33.65 10.0726 33.6541 10.0605C33.6581 10.0485 33.6641 10.0344 33.6722 10.0224C33.6823 10.0043 33.6904 9.98827 33.7025 9.97021C33.7085 9.96017 33.7166 9.94813 33.7247 9.9381C33.7327 9.92806 33.7388 9.91602 33.7489 9.90599C33.7589 9.89595 33.767 9.88592 33.7771 9.87588C33.7872 9.86585 33.7973 9.85581 33.8053 9.84578C33.8154 9.83574 33.8275 9.8237 33.8396 9.81567C34.1604 10.3194 34.4488 10.8372 34.711 11.373Z" fill="#3992CF"/>
<path d="M4.94604 20.8237C5.02875 20.5387 4.86132 20.1975 5.23652 19.8604C6.30763 20.7795 7.62281 21.3374 8.87143 22.0158C8.70804 22.4633 8.62736 22.9209 8.69997 23.3965C8.65963 23.4146 8.6213 23.4327 8.58298 23.4547C8.56482 23.1838 8.54667 22.9129 8.52852 22.6299C8.30865 22.7041 8.47809 23.0232 8.15736 23.0333C7.53002 22.6801 6.7635 22.5115 6.11801 22.0559C5.78922 21.8231 5.3172 21.5743 5.27081 22.3449C5.05699 21.8612 4.94604 21.3535 4.94604 20.8237Z" fill="#365CA8"/>
<path d="M33.8417 9.8199C33.8296 9.82994 33.8195 9.83997 33.8074 9.85001C33.7973 9.86004 33.7872 9.87008 33.7791 9.88011C33.7691 9.89014 33.761 9.90018 33.7509 9.91021C33.7408 9.92025 33.7348 9.93229 33.7267 9.94232C33.7186 9.95236 33.7126 9.9644 33.7045 9.97444C33.6924 9.9925 33.6823 10.0086 33.6742 10.0266C33.6682 10.0387 33.6621 10.0527 33.6561 10.0647C33.6521 10.0788 33.646 10.0908 33.642 10.1029C33.6379 10.1149 33.6339 10.125 33.6319 10.137C33.6299 10.149 33.6258 10.1591 33.6218 10.1711C33.6198 10.1811 33.6178 10.1892 33.6157 10.1992C33.6117 10.2133 33.6117 10.2313 33.6097 10.2474V10.2514C33.6077 10.2574 33.6077 10.2654 33.6077 10.2735C33.6057 10.2955 33.6036 10.3196 33.6036 10.3417C33.6016 10.5865 33.6944 10.8454 33.7065 11.0903C33.7872 12.9005 33.6642 14.6666 32.71 16.2781C32.4962 16.0072 32.3974 15.6961 32.3954 15.353C32.2844 14.8332 32.7766 14.5181 32.8412 14.0726C33.0368 12.75 33.1094 11.4294 32.9239 10.0868C32.8472 9.54295 32.4882 8.97901 32.823 8.40503C33.1901 8.85658 33.529 9.32821 33.8417 9.8199Z" fill="#3998D4"/>
<path d="M9.52087 7.62018C8.45379 9.32204 7.94143 11.1764 7.93135 13.1753C7.64491 13.2817 7.51581 13.653 7.15474 13.6369C7.12852 12.6054 7.14062 11.5758 7.38066 10.5663C7.45732 10.2392 7.57633 9.9181 7.3262 9.61505C7.96362 8.61561 8.71199 7.71049 9.63786 6.96191C9.93439 7.23686 9.63988 7.43153 9.52087 7.62018Z" fill="#BDE5F0"/>
<path d="M32.8431 14.0705C32.7766 14.518 32.2864 14.8311 32.3973 15.3509C32.1613 15.0659 32.2884 14.7247 32.2461 14.4097C32.0363 13.9581 32.1855 13.4825 32.2703 13.057C32.6051 11.3852 32.2259 9.80781 31.764 8.22837C31.649 7.83502 31.5199 7.44166 31.5703 7.02222C32.0141 7.45772 32.4337 7.9173 32.823 8.40297C32.4901 8.97695 32.8492 9.54089 32.9238 10.0848C33.1134 11.4274 33.0388 12.7479 32.8431 14.0705Z" fill="#369FD9"/>
<path d="M5.27271 22.3468C5.3191 21.5782 5.79313 21.827 6.11991 22.0578C6.7654 22.5154 7.5299 22.684 8.15926 23.0352C8.47998 23.0252 8.30853 22.7041 8.53041 22.6318C8.55058 22.9148 8.56672 23.1857 8.58488 23.4567C8.55664 23.7416 8.52638 24.0266 8.49814 24.3096C8.30853 24.4079 8.23994 24.729 7.93334 24.6187C7.40887 23.9323 6.34583 23.5149 5.7306 23.7537C5.48047 23.3162 5.32313 22.8486 5.27271 22.3468Z" fill="#3454A4"/>
<path d="M7.38073 10.5662C7.1427 11.5777 7.1306 12.6053 7.1548 13.6368C6.93493 13.8897 6.58798 13.5024 6.37618 13.7913C6.14623 13.9559 5.87189 13.8054 5.61975 13.8054C5.60563 13.8054 5.59151 13.8074 5.57739 13.8074C5.56327 13.8074 5.54915 13.8094 5.53704 13.8114C5.52494 13.8134 5.51486 13.8154 5.50275 13.8174C5.49267 13.8194 5.4846 13.8215 5.47653 13.8235C5.46644 13.8275 5.45636 13.8295 5.44627 13.8355C5.4382 13.8395 5.43215 13.8415 5.42408 13.8455C5.41602 13.8495 5.40996 13.8516 5.4019 13.8556C5.37164 13.8736 5.34138 13.8957 5.31112 13.9238C5.30507 13.9298 5.29902 13.9358 5.29297 13.9419V13.9399C5.39383 13.5606 5.51082 13.1853 5.64395 12.818C5.64799 12.808 5.65001 12.7979 5.65404 12.7879C5.68833 12.6956 5.72262 12.6012 5.76095 12.5089C5.78515 12.4467 5.81138 12.3825 5.8376 12.3203C5.85979 12.2661 5.884 12.2099 5.90618 12.1557C5.90618 12.1537 5.90618 12.1517 5.9082 12.1497C5.91224 12.1377 5.91829 12.1276 5.92232 12.1156C5.94451 12.0634 5.96872 12.0092 5.99091 11.955C6.35601 11.1342 6.8018 10.3535 7.32626 9.60693C7.57437 9.91801 7.45738 10.2391 7.38073 10.5662Z" fill="#B4E2EF"/>
<path d="M5.72852 23.7537C6.34577 23.5129 7.40881 23.9303 7.93125 24.6187C7.88082 24.6348 7.83241 24.6528 7.784 24.6709C7.02958 24.9017 7.61859 25.6462 7.25954 26.0296C7.17078 26.1339 7.08203 26.2383 6.99126 26.3426C6.44864 25.5399 5.96856 24.705 5.72852 23.7537Z" fill="#334C9F"/>
<path d="M22.8604 3.88341C21.989 3.77102 21.1176 3.65863 20.2442 3.54825C20.0868 3.3295 19.8387 3.43587 19.633 3.3877C19.5563 3.22715 19.7479 3.20908 19.7762 3.10673C19.8669 3.03248 20.0102 2.99234 19.9234 2.76154H18.6748C19.9819 2.53878 21.287 2.51469 22.5921 2.77359C22.4207 2.78563 22.2472 2.79566 22.0757 2.80971C22.1423 3.34355 22.8685 3.33953 22.8604 3.88341Z" fill="#B9E4EF"/>
<path d="M35.4716 13.2276C35.4574 13.2457 35.4433 13.2637 35.4312 13.2818C35.4171 13.2999 35.403 13.3179 35.3889 13.336C35.3788 13.348 35.3707 13.3581 35.3606 13.3701C35.3485 13.3842 35.3364 13.4002 35.3263 13.4163V13.4183C35.3142 13.4323 35.3041 13.4504 35.2961 13.4644C35.292 13.4725 35.286 13.4785 35.2819 13.4865C35.2779 13.4945 35.2739 13.5006 35.2719 13.5086C35.2638 13.5267 35.2577 13.5427 35.2537 13.5608C35.2517 13.5668 35.2497 13.5728 35.2497 13.5788C35.2477 13.5909 35.2477 13.6029 35.2477 13.615C35.2941 14.1408 34.9491 14.3615 34.588 14.5903C34.4872 14.7469 34.3843 14.9074 34.2834 15.066C34.2976 14.7027 34.3036 14.3395 34.3157 13.9762C34.3177 13.916 34.3198 13.8558 34.3218 13.7976C34.3258 13.6671 34.3339 13.5367 34.3399 13.4062C34.344 13.328 34.35 13.2497 34.3561 13.1694C34.3601 13.1293 34.3621 13.0912 34.3661 13.051C34.3702 13.0129 34.3722 12.9748 34.3762 12.9366C34.3823 12.8704 34.3904 12.8042 34.3984 12.7399C34.4065 12.6777 34.4146 12.6135 34.4246 12.5513C34.4347 12.477 34.4468 12.4048 34.461 12.3305C34.471 12.2763 34.4811 12.2222 34.4912 12.168C34.5074 12.0837 34.5255 11.9994 34.5477 11.9151C34.5618 11.8509 34.582 11.7847 34.5981 11.7204C34.6001 11.7164 34.6001 11.7164 34.6001 11.7144C34.6143 11.6582 34.6324 11.602 34.6506 11.5478C34.6687 11.4896 34.6869 11.4334 34.7091 11.3752C35.0036 11.9713 35.2577 12.5894 35.4716 13.2276Z" fill="#398ACA"/>
<path d="M5.75713 18.2748C5.2952 18.1845 5.33757 17.3757 4.69813 17.5323L4.69409 17.5343C4.71225 16.9101 4.75864 16.288 4.88976 15.6799C4.94825 15.405 5.02289 15.13 5.12375 14.8611C5.11366 15.3006 5.09349 15.7441 5.59778 15.9609C5.63207 16.5027 5.81563 17.0125 6.06576 17.4721C6.31992 17.9317 6.09198 18.0982 5.75713 18.2748Z" fill="#A4DCEE"/>
<path d="M6.53137 14.4116C6.47892 14.514 6.42648 14.6183 6.37403 14.7207C5.93026 14.6926 5.73258 14.9013 5.74871 15.3428C5.75476 15.5576 5.81326 15.7984 5.59743 15.963C5.09314 15.7442 5.11331 15.3007 5.12339 14.8632C5.02455 15.1321 4.9479 15.4071 4.8894 15.682C5.05078 14.6966 5.30292 13.7413 5.6418 12.8262C5.50867 13.1934 5.39168 13.5667 5.29082 13.948V13.95C5.29687 13.944 5.30292 13.938 5.30897 13.932C5.33721 13.9039 5.36747 13.8798 5.39974 13.8637C5.40781 13.8597 5.41386 13.8557 5.42193 13.8537C5.43 13.8497 5.43605 13.8437 5.44412 13.8437C5.45421 13.8397 5.46429 13.8336 5.47438 13.8316C5.48447 13.8276 5.49253 13.8276 5.5006 13.8256C5.51271 13.8216 5.52279 13.8196 5.53489 13.8196C5.54901 13.8156 5.56313 13.8156 5.57524 13.8156C5.58936 13.8136 5.60348 13.8136 5.6176 13.8136C5.86974 13.8116 6.14609 13.9621 6.37403 13.7995C6.60399 13.9541 6.50918 14.1969 6.53137 14.4116Z" fill="#A6DDEE"/>
<path d="M5.29102 13.9441C5.29713 13.9381 5.30325 13.932 5.30937 13.926C5.30325 13.9341 5.29713 13.9401 5.29102 13.9441Z" fill="#9EDBEF"/>
<path d="M19.7761 3.10862C19.5017 2.98419 19.2234 3.09457 18.947 3.09055C18.713 3.08654 18.3984 3.18488 18.3701 2.77948C18.471 2.77346 18.5738 2.76945 18.6767 2.76343H19.9253C20.0101 2.99422 19.8668 3.03436 19.7761 3.10862Z" fill="#7BBACB"/>
<path d="M33.9607 22.4735C34.471 21.1429 35.2315 19.9167 35.6349 18.5419C35.6813 18.3794 35.8145 18.3011 35.9839 18.2891C35.4615 19.4591 35.1024 20.6954 34.4488 21.8092C34.3097 22.046 34.2572 22.3491 33.9607 22.4735Z" fill="#69CCE8"/>
<path d="M27.2598 29.1404C28.1594 28.422 29.0792 27.7276 30.0656 27.1255C29.2971 28.0286 28.351 28.6828 27.2598 29.1404Z" fill="#69CCE8"/>
<path d="M31.9336 25.265C32.5387 24.2836 33.2367 23.3705 33.9588 22.4734C33.5009 23.5591 32.8433 24.5024 31.9336 25.265Z" fill="#69CCE8"/>
<path d="M30.0637 27.1253C30.6245 26.4409 31.2478 25.8208 31.9336 25.2649C31.4979 26.0697 30.8746 26.6898 30.0637 27.1253Z" fill="#69CCE8"/>
<path d="M35.2113 15.0256C35.5784 15.4812 35.4412 16.1375 35.8346 16.583C35.3888 16.3221 35.2859 16.6492 35.2234 16.9623C35.0116 17.9999 34.6828 19.0053 34.2531 19.9687C33.4503 21.7608 32.5244 23.4828 31.0015 24.7993C31.0842 24.2855 31.2153 23.7758 31.1588 23.248C31.4573 23.4587 31.6066 23.2821 31.7619 23.0433C32.123 22.4873 32.5668 21.9736 32.8532 21.3835C33.3696 20.3118 34.2309 19.3144 33.8073 17.9758C34.0514 17.9176 34.0534 18.2347 34.1866 18.2648C34.7574 17.2373 34.6525 16.0331 35.2113 15.0256Z" fill="#79D0ED"/>
<path d="M30.9974 24.7995C32.5204 23.483 33.4463 21.761 34.2491 19.9689C34.6788 19.0055 35.0096 18.0021 35.2194 16.9625C35.2839 16.6474 35.3848 16.3223 35.8306 16.5832C35.8346 16.9946 35.8386 17.404 35.8427 17.8154C35.3888 18.0001 35.3364 18.4376 35.2093 18.8209C34.3621 21.3737 33.0106 23.6254 31.1528 25.5762C31.0822 25.3213 30.6223 25.1447 30.9974 24.7995Z" fill="#6FCDEB"/>
<path d="M35.2114 15.0258C34.6547 16.0333 34.7576 17.2374 34.1847 18.267C34.0536 18.2369 34.0516 17.9198 33.8055 17.978C33.7087 17.8776 33.6138 17.7753 33.519 17.6749C33.6582 16.7718 33.6925 15.8386 34.2876 15.07C34.3884 14.9114 34.4913 14.7529 34.5922 14.5943C34.9391 14.5381 35.1671 14.6525 35.2114 15.0258Z" fill="#7DD1EE"/>
<path d="M17.2848 21.5441C16.3045 21.9756 15.3988 21.5522 14.5354 21.213C11.3665 19.9647 9.39369 17.6046 8.92167 14.2891C8.41738 10.7429 9.66802 7.75864 12.6736 5.62529C12.8995 5.46474 13.1274 5.37443 13.1496 5.00114C13.1698 4.66799 13.6317 4.48737 13.8597 4.55962C14.6141 4.80246 15.2132 4.31879 15.893 4.24855C16.5788 4.18032 17.2788 3.97962 17.9061 4.45727C17.5733 4.48737 17.2969 4.65997 17.0064 4.80045C16.4779 5.00114 15.8526 4.94294 15.4149 5.39048C15.2576 5.38848 15.1002 5.38647 14.9449 5.38446C14.5858 5.12557 14.2571 5.29817 13.9283 5.4547C10.2772 7.20273 8.47185 11.3932 9.58128 15.1641C10.5495 18.4515 12.7765 20.4805 16.1713 21.207C16.5485 21.2892 17.0327 21.0444 17.2848 21.5441Z" fill="#CCEAF1"/>
<path d="M8.08869 14.2532C8.32469 15.2004 8.56675 16.1457 9.01456 17.0187C10.5698 20.0572 13.0065 21.9316 16.4195 22.4313C16.8895 22.4996 17.5532 22.8287 17.9264 22.1283C17.9647 22.1564 18.005 22.1805 18.0474 22.2005C18.1059 22.5477 18.1644 22.8969 18.2249 23.2441C17.9304 23.2923 17.6298 23.4047 17.3434 23.3766C14.4387 23.1077 11.8789 22.0721 9.91825 19.8545C8.58087 18.3433 7.63886 16.6253 7.47144 14.5642C7.7377 14.5863 7.87487 14.3435 8.08869 14.2532Z" fill="#BEE5F0"/>
<path d="M17.2849 21.5441C17.0327 21.0444 16.5466 21.2892 16.1694 21.2089C12.7765 20.4824 10.5496 18.4534 9.58135 15.1661C8.4699 11.3971 10.2773 7.2047 13.9303 5.45869C14.2591 5.30215 14.5879 5.12955 14.947 5.38845C14.5254 5.56907 14.8481 5.83398 14.8683 6.06477C14.6404 6.05875 14.4104 6.05073 14.1825 6.04471C13.4119 6.16713 12.8068 6.57854 12.244 7.09432C10.6827 8.52124 9.83753 10.3214 9.68221 12.3785C9.56925 13.8737 9.72053 15.3869 10.7977 16.6412C10.947 16.4546 10.8421 16.2258 11.0256 16.1134C11.2959 17.3898 11.9414 18.4093 13.0771 19.0936C13.4462 19.6134 13.9626 19.9125 14.5476 20.1573C15.3424 20.4885 16.1694 20.6169 17.0085 20.7253C17.1457 20.9039 17.2849 21.0825 17.422 21.2611C17.4261 21.3053 17.4321 21.3494 17.4382 21.3936C17.3877 21.4437 17.3353 21.4939 17.2849 21.5441Z" fill="#CDEBF1"/>
<path d="M17.4383 21.3957C17.4322 21.3516 17.4262 21.3074 17.4221 21.2633C17.7287 21.1148 18.0091 21.2593 18.2955 21.3395C19.9698 21.8011 21.6541 21.8493 23.3284 21.3636C24.1877 21.1148 25.0187 20.7736 25.8639 20.4766C25.8619 20.5227 25.8579 20.5669 25.8498 20.613C25.3132 20.8699 25.2547 21.468 24.932 21.8794C24.7666 21.6847 24.583 21.8393 24.4398 21.8914C22.6566 22.5336 20.8392 22.6199 18.9713 22.3631C18.6627 22.3209 18.3843 22.0319 18.0454 22.2065C18.0031 22.1865 17.9627 22.1624 17.9244 22.1343C17.9385 21.769 17.7126 21.5663 17.4383 21.3957Z" fill="#3D8FCD"/>
<path d="M17.0066 4.80461C17.2971 4.66413 17.5734 4.49153 17.9062 4.46143C18.6324 4.02192 19.401 3.68877 20.2441 3.55029C21.1176 3.66268 21.989 3.77507 22.8604 3.88745C22.8745 3.97777 22.8906 4.06808 22.9048 4.15839C22.8503 4.21659 22.7938 4.2768 22.7373 4.335C21.9607 4.77451 21.1135 4.99527 20.2361 5.11368C19.6027 5.00129 20.0464 4.62399 20.115 4.27077C19.7519 4.43936 19.4776 4.5678 19.2073 4.69423C19.4272 5.39866 19.0439 5.77997 18.1967 5.74184C18.1987 5.37056 18.1624 5.05548 17.6501 5.29631C17.1357 5.53513 17.0449 5.19997 17.0066 4.80461Z" fill="#3DC4EA"/>
<path d="M8.08879 14.2531C7.87497 14.3434 7.73579 14.5842 7.4675 14.5661C7.13669 14.6183 6.8442 14.4618 6.53154 14.4096C6.50935 14.1969 6.60416 13.952 6.37622 13.7895C6.58802 13.5005 6.93699 13.8878 7.15484 13.6349C7.51591 13.651 7.64501 13.2797 7.93145 13.1733C7.9839 13.5346 8.03634 13.8938 8.08879 14.2531Z" fill="#A6DDEE"/>
<path d="M19.9334 29.4754C19.7982 29.4112 19.6631 29.3469 19.5279 29.2827C19.5561 28.8292 19.2657 28.4739 19.1487 28.0645C19.4674 27.8137 19.7922 27.7514 20.2137 27.8438C20.6293 27.9341 21.1033 27.9521 21.5108 27.8458C21.9848 27.7233 22.36 27.7876 22.7372 28.0485C22.3761 28.4298 22.1139 28.9134 21.5894 29.1222C21.0771 29.4212 20.4477 29.1884 19.9334 29.4754Z" fill="#3463AE"/>
<path d="M21.5874 29.1202C22.1119 28.9115 22.3741 28.4279 22.7352 28.0465C22.9772 27.9883 23.066 27.8238 23.0498 27.589C23.306 27.9422 23.6025 27.9342 23.9798 27.7576C24.5022 27.5127 24.9682 27.1214 25.5874 27.1113C25.6782 27.1796 25.767 27.2478 25.8557 27.314C26.0312 27.5769 25.8436 27.6692 25.6479 27.7756C24.3751 28.464 23.0902 29.1182 21.5874 29.1202Z" fill="#83D3EF"/>
<path d="M30.9976 24.7993C30.6204 25.1445 31.0823 25.3211 31.1549 25.5739C31.042 25.7566 30.8584 25.7245 30.687 25.7305C30.5821 25.6803 30.4772 25.6281 30.3743 25.5779C30.1322 25.4334 29.9245 25.2006 29.5957 25.2689C29.4908 25.1645 29.3879 25.0602 29.285 24.9558C29.283 24.9056 29.281 24.8555 29.281 24.8073C29.6421 23.9925 30.3763 23.5189 30.9956 22.9429C31.048 23.0452 31.1025 23.1476 31.157 23.2499C31.2134 23.7777 31.0823 24.2855 30.9976 24.7993Z" fill="#55C9F3"/>
<path d="M29.2808 24.8055C29.2829 24.8557 29.2829 24.9058 29.2849 24.954C28.8431 25.6243 28.1654 26.0377 27.538 26.4953C27.3545 26.6298 27.0781 26.997 26.7634 26.6097C26.7836 26.3628 26.7816 26.11 26.9591 25.9053C27.2576 25.53 27.2354 24.9981 27.5784 24.6449C27.8144 24.4904 28.0786 24.4763 28.3489 24.4864C28.6253 24.6931 28.9137 24.8637 29.2808 24.8055Z" fill="#84D3EE"/>
<path d="M26.9612 25.9053C26.7836 26.11 26.7877 26.3628 26.7655 26.6097C26.5537 26.9609 26.358 27.3342 25.8558 27.3141C25.765 27.2459 25.6762 27.1776 25.5875 27.1114C25.7287 26.8465 25.5673 26.6017 25.5391 26.3468C25.6399 26.1782 25.7529 26.0237 25.9808 26.0237C26.2955 25.8992 26.5456 25.2269 26.9612 25.9053Z" fill="#517386"/>
<path d="M29.761 12.4167C29.757 12.6836 29.7106 12.9064 29.5291 13.079C29.5049 13.105 29.4766 13.1291 29.4443 13.1492L29.4423 13.1512C29.174 13.1813 29.0228 12.9666 28.817 12.8602C28.819 12.808 28.819 12.7578 28.815 12.7057C28.6335 12.525 28.5568 12.3063 28.4741 12.0554C28.2542 11.4012 28.4519 10.7228 28.2724 10.0746C27.5462 7.43953 25.9305 5.63531 23.3041 4.75027C23.0863 4.67802 22.7555 4.69809 22.7373 4.33082C22.7918 4.27262 22.8482 4.21241 22.9027 4.15421H22.9047C23.8286 3.94549 24.7585 3.79498 25.7106 3.85719C25.5089 3.96757 25.2971 4.04985 25.0288 4.02978C27.4373 5.56507 29.1539 7.49372 29.5997 10.3455C29.7086 11.0339 29.7671 11.7203 29.761 12.4167Z" fill="#37C0E9"/>
<path d="M28.819 12.8604C29.0228 12.9667 29.1761 13.1815 29.4443 13.1514C29.9224 13.4544 30.4771 13.2256 30.9774 13.3701C30.9895 13.4544 31.0036 13.5387 31.0157 13.621C30.5881 13.8638 31.1367 14.6666 30.3783 14.7208C30.467 15.2827 30.4388 15.7864 29.751 15.961C29.5714 15.8286 29.6239 15.67 29.6703 15.4874C29.7752 15.076 29.8659 14.6565 29.6138 14.2572C29.6602 13.5628 28.813 13.5427 28.6597 12.9988C28.7121 12.9547 28.7666 12.9065 28.819 12.8604Z" fill="#A7DDEE"/>
<path d="M19.1508 28.0646C19.2678 28.474 19.5583 28.8292 19.5301 29.2828C19.1327 29.1383 18.7454 29.1724 18.3218 29.2165C16.9602 29.357 15.6087 29.1503 14.2774 28.8814C12.0807 28.4359 10.0635 27.5528 8.24206 26.2483C7.93747 26.0296 7.65305 25.8289 7.26172 26.0296C7.62077 25.6463 7.03176 24.9017 7.78618 24.6709C10.2975 26.9327 13.3233 27.9943 16.6254 28.3355C17.41 28.4178 18.2835 28.6105 19.0117 28.0224C19.0581 28.0365 19.1044 28.0505 19.1508 28.0646Z" fill="#89D4EE"/>
<path d="M30.3762 14.7206C31.1347 14.6664 30.586 13.8637 31.0136 13.6208C31.06 13.6269 31.1084 13.6269 31.1548 13.6229C31.2597 13.7292 31.3646 13.8356 31.4675 13.944C31.3021 14.0523 31.2739 14.2209 31.2214 14.3995C31.0903 14.8531 30.82 15.0317 30.3762 14.7206Z" fill="#7DD1EB"/>
<path d="M18.3922 23.8742C18.2712 24.0789 18.1542 24.2836 18.0352 24.4883C17.8617 24.2214 17.6096 24.1773 17.303 24.1732C15.1567 24.1532 13.2142 23.4929 11.427 22.3189C10.7956 21.9034 10.2328 21.3997 9.7225 20.9802C9.31907 21.0906 9.77898 21.6706 9.21216 21.5462C9.25049 20.7535 8.7583 20.3822 8.09264 20.1434C8.21367 20.0591 8.33672 19.9728 8.46783 19.8825C7.42294 18.303 6.53741 16.6533 6.37402 14.7207C6.42647 14.6183 6.47892 14.514 6.53136 14.4116C6.84402 14.4638 7.13651 14.6203 7.46732 14.5682C7.63676 16.6273 8.57878 18.3452 9.91413 19.8564C11.8748 22.076 14.4346 23.1096 17.3393 23.3785C17.6257 23.4046 17.9263 23.2922 18.2208 23.246C18.2631 23.2601 18.3055 23.2762 18.3499 23.2882C18.364 23.4829 18.3781 23.6775 18.3922 23.8742Z" fill="#B4E2EF"/>
<path d="M9.21016 21.5462C9.77698 21.6706 9.31707 21.0886 9.7205 20.9802C10.2288 21.3997 10.7936 21.9034 11.425 22.3188C13.2122 23.4909 15.1547 24.1532 17.301 24.1732C17.6076 24.1752 17.8577 24.2214 18.0332 24.4883C18.0433 24.5405 18.0534 24.5927 18.0635 24.6448C18.0009 24.7994 17.9384 24.9539 17.8759 25.1084C17.8133 25.2148 17.7468 25.3212 17.7932 25.2449C14.4689 25.1004 11.5904 23.9806 9.15771 21.8191C9.17789 21.7288 9.19402 21.6385 9.21016 21.5462Z" fill="#AFE0EF"/>
<path d="M9.16189 21.8191C11.5946 23.9805 14.4731 25.1024 17.7973 25.2449C17.7509 25.3212 17.8155 25.2148 17.88 25.1084C17.8942 25.3091 17.9083 25.5098 17.9224 25.7105C17.6642 25.9573 17.3314 26.0717 17.0026 26.0256C15.524 25.8209 14.0616 25.5861 12.6617 24.998C11.3001 24.4261 10.1059 23.6173 8.92991 22.6961C8.823 22.9691 8.95009 23.24 8.7282 23.4066L8.70399 23.3985C8.62936 22.9229 8.71004 22.4653 8.87545 22.0178C8.96824 21.9515 9.06506 21.8853 9.16189 21.8191Z" fill="#A5DDEF"/>
<path d="M8.46783 19.8804C8.33671 19.9727 8.21366 20.057 8.09264 20.1413C7.46126 19.9526 6.80972 19.7981 6.66852 18.9933C6.5838 18.4996 6.14003 18.4133 5.75677 18.2729C6.09162 18.0942 6.31754 17.9277 6.06539 17.4681C5.81325 17.0105 5.62969 16.4967 5.59741 15.9569C5.81527 15.7923 5.75475 15.5515 5.7487 15.3367C5.73458 14.8952 5.93024 14.6885 6.37402 14.7146C6.53741 16.6533 7.42092 18.3009 8.46783 19.8804Z" fill="#AADFEF"/>
<path d="M30.3763 14.7208C30.8181 15.0318 31.0904 14.8512 31.2215 14.3997C31.274 14.221 31.3002 14.0525 31.4676 13.9441C31.518 14.1006 31.5685 14.2592 31.6189 14.4177C31.3446 15.1201 31.4696 15.9349 30.9976 16.5812C30.8927 16.8922 30.9956 17.2716 30.6829 17.5144C30.5821 17.5666 30.4792 17.6187 30.3784 17.6689C30.0899 17.4562 29.7672 17.4522 29.4343 17.5164C29.509 16.9926 29.8499 16.523 29.749 15.9651C30.4368 15.7864 30.4671 15.2827 30.3763 14.7208Z" fill="#A1DCEF"/>
<path d="M30.9976 16.5791C31.4696 15.9329 31.3465 15.1201 31.6188 14.4157C31.8286 14.5843 32.0384 14.5281 32.2442 14.4097C32.2865 14.7248 32.1595 15.0659 32.3955 15.3509C32.3975 15.6941 32.4943 16.0052 32.7101 16.2761C32.7122 16.4266 32.7162 16.5771 32.7182 16.7277C32.5084 16.9886 32.2986 17.2515 32.0888 17.5124C31.5261 17.4321 31.6088 16.6052 30.9976 16.5791Z" fill="#95D8EE"/>
<path d="M31.157 23.2481C31.1045 23.1458 31.0501 23.0434 30.9956 22.9411C30.9452 22.8367 30.8927 22.7323 30.8423 22.628C31.6391 21.9276 32.0768 21.0184 32.5004 19.9949C32.0727 19.9949 31.7682 19.9949 31.4636 19.9949C31.2376 19.9949 31.0097 19.9969 30.9976 19.6818V19.6798C31.3103 19.6296 31.6028 19.4691 31.9336 19.5233C32.2119 20.1715 32.7566 19.6638 32.7808 19.5373C32.8857 19.0075 33.4061 18.576 33.1822 17.9739C33.3536 17.9378 33.4323 17.7993 33.519 17.6709C33.6159 17.7712 33.7107 17.8736 33.8055 17.9739C34.2271 19.3126 33.3678 20.31 32.8514 21.3817C32.567 21.9717 32.1212 22.4855 31.7601 23.0414C31.6048 23.2822 31.4555 23.4608 31.157 23.2481Z" fill="#80D2EE"/>
<path d="M33.1821 17.978C33.408 18.5801 32.8856 19.0095 32.7807 19.5414C32.7565 19.6678 32.2118 20.1756 31.9335 19.5273C31.8003 19.3407 32.236 19.0136 31.7761 18.9092C32.1453 18.7065 32.4337 18.4396 32.5023 17.982C32.4418 17.7713 32.0444 17.8295 32.0888 17.5164C32.2986 17.2555 32.5083 16.9926 32.7181 16.7317C33.0449 17.0829 32.9541 17.5886 33.1821 17.978Z" fill="#89D4EE"/>
<path d="M8.49829 24.3096C8.52653 24.0246 8.55679 23.7396 8.58503 23.4566C8.62134 23.4346 8.66168 23.4145 8.70202 23.3984L8.72623 23.4065C8.65563 24.0005 9.2043 23.6433 9.43627 23.846C10.8382 25.0642 12.5245 25.7947 14.3077 26.2442C15.635 26.5794 16.9946 26.9246 18.3824 26.4871C18.4832 26.6516 18.5841 26.8162 18.6829 26.9808C18.689 27.1754 18.695 27.3701 18.7011 27.5648C18.2997 27.4163 17.8801 27.4203 17.4625 27.4363C16.5306 27.4725 15.6189 27.3581 14.701 27.1754C12.3934 26.7199 10.3904 25.6382 8.49829 24.3096Z" fill="#98D9EE"/>
<path d="M8.49813 24.3098C10.3922 25.6384 12.3933 26.7201 14.7009 27.1757C15.6167 27.3563 16.5284 27.4727 17.4624 27.4366C17.8819 27.4205 18.2995 27.4165 18.7009 27.565C18.8058 27.7176 18.9107 27.8701 19.0136 28.0226C18.2854 28.6086 17.414 28.416 16.6273 28.3357C13.3252 27.9945 10.2974 26.9328 7.78809 24.6711C7.8365 24.653 7.88491 24.6349 7.93534 24.6189C8.23791 24.7273 8.3065 24.4082 8.49813 24.3098Z" fill="#91D7EE"/>
<path d="M17.0065 4.80444C17.0428 5.1998 17.1356 5.53697 17.652 5.29212C18.1644 5.05129 18.2007 5.36638 18.1987 5.73766C18.0796 5.81392 18.0675 5.93233 18.0696 6.05876C18.0534 6.07883 18.0393 6.10492 18.0191 6.11496C17.999 6.12499 17.9687 6.12499 17.9485 6.11696C17.5915 5.99253 18.0332 5.66139 17.7347 5.44665C17.42 6.20727 16.7241 6.41399 16.0504 6.65682C15.8386 6.23738 15.6288 5.81793 15.417 5.39648C15.8547 4.94693 16.478 5.00513 17.0065 4.80444Z" fill="#D3EDF3"/>
<path d="M15.417 5.3925C15.6288 5.81194 15.8386 6.23139 16.0504 6.65284C15.9434 6.69699 15.8345 6.73913 15.7276 6.78329C15.4008 6.81941 15.0741 6.85754 14.7735 6.89166C14.6726 6.5545 15.1689 6.43408 14.947 6.11498C14.9207 6.09893 14.8945 6.08087 14.8703 6.0628C14.8501 5.83201 14.5254 5.5671 14.947 5.38647C15.1043 5.38848 15.2616 5.39049 15.417 5.3925Z" fill="#3EC5EB"/>
<path d="M18.3501 23.2883C18.3057 23.2763 18.2633 23.2622 18.221 23.2461C18.1625 22.899 18.104 22.5498 18.0435 22.2026C18.3823 22.028 18.6607 22.317 18.9693 22.3591C20.8392 22.616 22.6547 22.5297 24.4378 21.8875C24.5811 21.8353 24.7646 21.6828 24.93 21.8754C24.924 22.0239 24.9179 22.1745 24.9099 22.323C24.7566 22.634 24.5206 22.8267 24.1736 22.913C23.1771 23.1599 22.1746 23.3405 21.1458 23.4187C20.2059 23.489 19.2921 23.1037 18.3501 23.2883Z" fill="#3C88C8"/>
<path d="M11.0297 16.1154C10.8461 16.2278 10.951 16.4565 10.8018 16.6432C9.72459 15.3889 9.57331 13.8736 9.68627 12.3805C9.84159 10.3234 10.6868 8.52321 12.246 7.09429C12.8088 6.57852 13.416 6.1671 14.1845 6.04468C14.0373 6.27748 13.8356 6.4862 13.8678 6.79526C13.767 7.0381 13.5995 7.2127 13.3938 7.3853C12.0867 8.46903 11.1205 9.79158 10.832 11.4874C10.6827 12.3665 10.1321 13.3579 11.179 14.1044C11.1911 14.6724 11.2032 15.2424 11.2153 15.8083C11.1507 15.9066 11.0902 16.011 11.0297 16.1154Z" fill="#D4EDF3"/>
<path d="M25.8639 20.4745C25.0207 20.7735 24.1876 21.1127 23.3283 21.3616C21.6561 21.8472 19.9717 21.7991 18.2955 21.3375C18.0091 21.2592 17.7287 21.1127 17.4221 21.2612C17.2849 21.0826 17.1457 20.904 17.0085 20.7254C17.1074 20.4283 17.2062 20.1333 17.3051 19.8383C17.3494 19.8383 17.3958 19.8383 17.4402 19.8363C17.4301 20.1494 17.5149 20.3501 17.8679 20.4605C20.7645 21.3696 23.4796 20.9983 26.0273 19.3627C26.4952 19.0636 26.9713 18.7767 27.4413 18.4836C27.173 19.3506 26.4327 19.8443 25.8639 20.4745Z" fill="#4195D1"/>
<path d="M17.3051 19.8384C17.2063 20.1354 17.1074 20.4304 17.0086 20.7254C16.1695 20.6171 15.3424 20.4886 14.5477 20.1575C13.9627 19.9126 13.4463 19.6136 13.0771 19.0938C13.182 19.0296 13.2849 18.9634 13.3898 18.8991C13.8497 18.7928 14.3621 19.156 14.7857 18.7386C15.1488 18.6864 15.4534 18.4195 15.8427 18.4636C16.0888 18.6122 16.1735 18.8751 16.2743 19.138C16.9319 18.9513 17.3757 19.0457 17.3051 19.8384Z" fill="#D6EEF4"/>
<path d="M13.3919 18.9012C13.287 18.9654 13.1841 19.0316 13.0792 19.0958C11.9415 18.4115 11.2981 17.392 11.0298 16.1176C11.0903 16.0132 11.1528 15.9089 11.2113 15.8065C11.5361 15.4995 11.2295 15.0599 11.3909 14.791C12.0081 16.1938 12.7444 17.5585 13.8195 18.7326C13.7287 18.8068 13.4907 18.7025 13.3919 18.9012Z" fill="#3D8FCD"/>
<path d="M13.8658 6.79331C13.8356 6.48625 14.0373 6.27553 14.1825 6.04272C14.4105 6.04875 14.6384 6.05677 14.8684 6.06279C14.8946 6.08086 14.9188 6.09691 14.945 6.11497C14.6001 6.36383 14.3621 6.78127 13.8658 6.79331Z" fill="#5296B0"/>
<path d="M25.8638 20.4745C26.4327 19.8443 27.173 19.3506 27.4433 18.4877C27.8608 18.0863 27.8931 17.5685 27.885 17.0367C27.881 16.9885 27.881 16.9403 27.879 16.8922C27.9677 17.0025 28.0565 17.1129 28.1533 17.2333C28.3147 16.8701 28.4902 16.5269 28.6173 16.1677C28.7443 15.8064 28.5789 15.6298 28.1977 15.6519C28.9541 15.4733 29.1861 14.7668 29.6137 14.2571C29.8659 14.6565 29.7751 15.0759 29.6702 15.4873C29.6238 15.6679 29.5714 15.8265 29.7509 15.9609C29.8518 16.5189 29.5088 16.9905 29.4362 17.5123C29.4423 17.5625 29.4463 17.6106 29.4483 17.6608C28.9783 18.4917 28.5083 19.3245 28.0383 20.1554C27.6712 20.0811 27.3182 19.8744 26.8744 20.0711C27.0459 20.4344 26.8926 20.7053 26.5517 20.8638C26.2532 21.0023 26.003 20.922 25.8538 20.609C25.8578 20.5648 25.8618 20.5186 25.8638 20.4745Z" fill="#ABDFEF"/>
<path d="M25.8498 20.609C25.9991 20.922 26.2513 21.0023 26.5478 20.8638C26.8867 20.7073 27.042 20.4344 26.8705 20.0711C27.3143 19.8744 27.6673 20.0811 28.0344 20.1554C28.214 20.34 28.0949 20.7535 28.5024 20.7635C28.1918 21.0465 27.7319 20.7274 27.3809 21.1448C26.7313 21.9135 25.9406 22.5637 25.2104 23.2621C24.9361 23.0032 24.9199 22.664 24.9119 22.3229C24.9179 22.1744 24.924 22.0238 24.932 21.8753C25.2548 21.4659 25.3133 20.8638 25.8498 20.609Z" fill="#79D0ED"/>
<path d="M22.7393 4.33081C22.7575 4.69808 23.0903 4.67801 23.3082 4.75026C25.9325 5.6353 27.5502 7.43952 28.2764 10.0746C28.4539 10.7228 28.2583 11.3992 28.4781 12.0554C28.5628 12.3043 28.6355 12.523 28.819 12.7057C28.3026 12.8903 27.9436 12.6515 27.5825 12.3083C27.3626 12.0996 27.29 11.7504 26.9511 11.6621C27.3082 11.3189 27.3162 10.9014 27.2134 10.4579C26.6123 7.91315 25.0005 6.37786 22.4872 5.70354C21.7449 5.50485 20.9804 5.56306 20.238 5.40852C20.2401 5.30818 20.2401 5.20783 20.2421 5.10548C21.1175 4.99309 21.9627 4.77233 22.7393 4.33081Z" fill="#41C5EB"/>
<path d="M20.2381 5.1095C20.2361 5.20985 20.2361 5.3102 20.2341 5.41255C20.0788 5.43462 19.8468 5.33829 19.8972 5.6594C19.9335 5.88618 19.7601 6.02265 19.5785 5.97649C19.161 5.86812 18.7838 6.12902 18.3803 6.05476C18.2754 6.05677 18.1726 6.05677 18.0697 6.05877C18.0656 5.93435 18.0798 5.81594 18.1988 5.73767C19.048 5.77379 19.4313 5.39248 19.2094 4.69006C19.4797 4.56362 19.754 4.43719 20.1171 4.2666C20.0485 4.62183 19.6068 4.99712 20.2381 5.1095Z" fill="#CBEAF1"/>
<path d="M19.0117 28.0224C18.9068 27.8699 18.8019 27.7173 18.699 27.5648C18.6929 27.3701 18.6869 27.1755 18.6829 26.9808C18.7172 26.9206 18.7635 26.8042 18.7797 26.8082C19.6874 27.037 20.5992 27.0571 21.5371 27.0009C22.0798 26.9668 22.7232 26.6978 23.1993 27.2537C23.0944 27.342 23.0117 27.4404 23.052 27.5909C23.0682 27.8257 22.9814 27.9903 22.7373 28.0485C22.3601 27.7876 21.9849 27.7254 21.5109 27.8458C21.1034 27.9521 20.6294 27.9361 20.2139 27.8438C19.7943 27.7515 19.4675 27.8137 19.1488 28.0645C19.1044 28.0505 19.0581 28.0364 19.0117 28.0224Z" fill="#3568B1"/>
<path d="M23.05 27.5911C23.0096 27.4385 23.0923 27.3422 23.1972 27.2539C23.5038 27.2258 23.6733 27.0251 23.8125 26.7823C24.4337 26.8264 24.8876 26.1983 25.5391 26.3488C25.5674 26.6017 25.7287 26.8485 25.5875 27.1134C24.9703 27.1235 24.5003 27.5148 23.9799 27.7597C23.6027 27.9363 23.3061 27.9423 23.05 27.5911Z" fill="#89D4EE"/>
<path d="M30.8443 22.6278C30.8948 22.7322 30.9472 22.8366 30.9976 22.9409C30.3763 23.5169 29.6421 23.9905 29.283 24.8053C28.9159 24.8635 28.6275 24.693 28.3511 24.4862C28.2846 24.2856 27.9154 24.404 27.9517 24.0126C28.6678 23.5109 29.0874 22.66 29.745 22.0117C29.8156 22.1341 29.9346 22.1642 30.0637 22.1663C30.3239 22.3188 30.5841 22.4733 30.8443 22.6278Z" fill="#60CBF1"/>
<path d="M29.7429 22.0098C29.0854 22.6581 28.6658 23.509 27.9497 24.0107C27.9134 24.4021 28.2825 24.2857 28.3491 24.4844C28.0788 24.4743 27.8145 24.4884 27.5785 24.6429C27.5826 24.3298 27.635 23.9967 27.2154 23.7518C27.0843 24.3419 26.691 24.6529 26.2351 24.8938C25.9487 25.0463 25.8539 25.2791 25.8539 25.5781C25.4585 25.4858 25.049 25.4156 24.9199 24.9399C25.0531 24.7593 25.0853 24.5486 25.0974 24.3318C25.5311 24.3679 25.7974 24.0509 26.108 23.8401C27.2175 23.0895 28.1232 22.1042 29.1277 21.2332C29.2366 21.4138 29.4202 21.3837 29.5896 21.3937C29.6421 21.6004 29.6925 21.8051 29.7429 22.0098Z" fill="#68CCF0"/>
<path d="M25.8557 25.5802C25.8557 25.2832 25.9485 25.0464 26.237 24.8958C26.6908 24.655 27.0842 24.3419 27.2173 23.7539C27.6369 23.9987 27.5824 24.3319 27.5804 24.645C27.2395 24.9982 27.2597 25.53 26.9611 25.9053C26.5456 25.227 26.2955 25.8993 25.9808 26.0257C26.0272 25.8531 25.9485 25.7147 25.8557 25.5802Z" fill="#4F788E"/>
<path d="M25.8559 25.5801C25.9487 25.7146 26.0273 25.853 25.9789 26.0256C25.753 26.0256 25.6401 26.1802 25.5372 26.3487C24.8877 26.1982 24.4338 26.8244 23.8125 26.7822C23.8831 26.4431 23.5583 26.2163 23.5583 25.8972C24.1453 25.7667 24.3511 25.0964 24.9219 24.9419C25.051 25.4175 25.4605 25.4878 25.8559 25.5801Z" fill="#91D7EE"/>
<path d="M26.9492 11.6621C27.2881 11.7504 27.3607 12.0996 27.5806 12.3083C27.9417 12.6515 28.3007 12.8903 28.8171 12.7057C28.8191 12.7579 28.8191 12.8101 28.8191 12.8602C28.7667 12.9064 28.7122 12.9526 28.6598 13.0007C28.4379 13.3319 28.1615 13.5526 27.7278 13.4483C27.6129 13.3098 27.4979 13.1713 27.3829 13.0308C27.3244 12.7519 27.1711 12.5271 26.9694 12.3344C26.7455 12.1137 26.7939 11.8909 26.9492 11.6621Z" fill="#B8E3EF"/>
<path d="M27.7278 13.4463C28.1615 13.5527 28.4378 13.3319 28.6597 12.9988C28.813 13.5427 29.6602 13.5627 29.6138 14.2571C29.1862 14.7669 28.9542 15.4713 28.1978 15.6519C28.0162 15.9349 27.7298 16.0553 27.4212 16.1416C27.3586 16.1797 27.2961 16.2179 27.2316 16.256C26.8584 15.6178 27.5765 15.3168 27.6874 14.8231C27.7923 14.3595 28.2805 13.926 27.7278 13.4463Z" fill="#36C2EA"/>
<path d="M18.0657 24.6448C18.0556 24.5926 18.0455 24.5404 18.0354 24.4882C18.1544 24.2835 18.2734 24.0788 18.3924 23.8741C18.6627 24.0909 18.9613 24.1691 19.3163 24.1932C20.3168 24.2634 21.3072 24.3618 22.3098 24.1872C23.3022 24.0146 24.3027 23.9042 25.2024 23.4065C25.2629 23.6855 25.2366 23.9484 25.0551 24.1812C24.8836 24.3397 24.8736 24.5946 24.5327 24.6648C22.9895 24.9859 21.4404 25.2348 19.869 25.0903C19.2638 25.0341 18.576 25.1465 18.0657 24.6448Z" fill="#397BBE"/>
<path d="M25.2043 23.4065C24.3047 23.9042 23.3022 24.0146 22.3117 24.1872C21.3092 24.3618 20.3168 24.2634 19.3183 24.1932C18.9612 24.1671 18.6647 24.0888 18.3944 23.8741C18.3803 23.6794 18.3662 23.4827 18.3521 23.2881C19.2961 23.1034 20.2078 23.4908 21.1539 23.4185C22.1826 23.3403 23.1852 23.1596 24.1816 22.9128C24.5286 22.8265 24.7626 22.6318 24.9179 22.3228C24.926 22.6659 24.9441 23.0031 25.2164 23.262C25.2205 23.3102 25.2164 23.3583 25.2043 23.4065Z" fill="#3B81C3"/>
<path d="M18.0655 24.6448C18.5779 25.1465 19.2637 25.0321 19.8689 25.0883C21.4402 25.2348 22.9894 24.984 24.5325 24.6629C24.8734 24.5926 24.8835 24.3377 25.055 24.1792C25.0691 24.2294 25.0832 24.2816 25.0973 24.3317C25.0852 24.5485 25.053 24.7592 24.9198 24.9398C24.349 25.0944 24.1432 25.7647 23.5562 25.8951C22.3459 25.9533 21.1417 26.0938 19.9253 26.0436C19.3545 26.0215 18.7776 25.6864 18.2087 26.0537C18.1139 25.9373 18.0171 25.8209 17.9203 25.7065C17.9062 25.5058 17.892 25.3051 17.8779 25.1044C17.9405 24.9539 18.003 24.7993 18.0655 24.6448Z" fill="#3876BB"/>
<path d="M17.9224 25.7106C18.0172 25.827 18.1141 25.9434 18.2109 26.0578C18.2694 26.2023 18.3259 26.3448 18.3823 26.4893C16.9945 26.9248 15.635 26.5816 14.3077 26.2465C12.5245 25.7969 10.8382 25.0664 9.43625 23.8482C9.20226 23.6455 8.65561 24.0027 8.72621 23.4087C8.9481 23.2441 8.82102 22.9712 8.92793 22.6982C10.1039 23.6194 11.2981 24.4282 12.6597 25.0002C14.0596 25.5882 15.524 25.823 17.0006 26.0277C17.3314 26.0699 17.6642 25.9555 17.9224 25.7106Z" fill="#9FDBEF"/>
<path d="M29.5896 21.3936C29.4202 21.3835 29.2366 21.4136 29.1277 21.233C29.0772 21.0785 29.0268 20.922 28.9744 20.7674C29.3375 20.1995 29.7026 19.6295 30.0656 19.0615C30.7353 18.7224 30.4771 18.1765 30.3783 17.6667C30.4792 17.6146 30.582 17.5624 30.6829 17.5122C30.8786 17.9658 30.6305 18.5658 31.1529 18.909C31.0056 19.1478 30.9814 19.4107 30.9976 19.6817V19.6837C30.2734 20.0449 30.2311 20.9641 29.5896 21.3936Z" fill="#98D9EE"/>
<path d="M31.1548 18.9091C30.6304 18.5659 30.8785 17.9659 30.6848 17.5123C30.9975 17.2715 30.8966 16.8902 30.9995 16.5791C31.6107 16.6052 31.528 17.434 32.0908 17.5143C32.0464 17.8274 32.4438 17.7692 32.5043 17.9799C32.4357 18.4375 32.1473 18.7044 31.7781 18.9071C31.5703 18.7686 31.3626 18.7646 31.1548 18.9091Z" fill="#69CDEF"/>
<path d="M30.3782 17.6668C30.477 18.1766 30.7352 18.7224 30.0655 19.0616C30.1341 18.7385 29.7125 18.9191 29.6802 18.6783C29.773 18.3813 29.8194 18.0461 30.1321 17.8394C29.9142 17.6186 29.6681 17.6869 29.4442 17.6628C29.4422 17.6126 29.4382 17.5645 29.4321 17.5143C29.769 17.448 30.0917 17.4541 30.3782 17.6668Z" fill="#78D0EF"/>
<path d="M30.8444 22.6279C30.5841 22.4734 30.3239 22.3189 30.0637 22.1644C30.7596 21.5884 31.0582 20.7555 31.4656 19.9949C31.7723 19.9949 32.0768 19.9949 32.5025 19.9949C32.0789 21.0204 31.6432 21.9295 30.8444 22.6279Z" fill="#89D4EE"/>
<path d="M31.4655 19.9947C31.058 20.7553 30.7595 21.5882 30.0636 22.1642C29.9325 22.1622 29.8175 22.1321 29.7449 22.0097C29.6944 21.805 29.642 21.5982 29.5916 21.3935C30.233 20.9621 30.2754 20.0449 30.9995 19.6816C31.0116 19.9967 31.2375 19.9947 31.4655 19.9947Z" fill="#90D7EF"/>
<path d="M31.1548 18.9091C31.3625 18.7646 31.5703 18.7686 31.7781 18.9071C32.238 19.0115 31.8023 19.3406 31.9354 19.5252C31.6046 19.4711 31.3121 19.6316 30.9994 19.6818C30.9833 19.4109 31.0075 19.1479 31.1548 18.9091Z" fill="#90D7EF"/>
<path d="M18.3822 26.4873C18.3237 26.3428 18.2672 26.2003 18.2107 26.0558C18.7795 25.6885 19.3564 26.0217 19.9273 26.0458C21.1436 26.0959 22.3479 25.9554 23.5582 25.8972C23.5582 26.2163 23.885 26.4411 23.8123 26.7823C23.6752 27.0251 23.5037 27.2278 23.1971 27.2539C22.7211 26.7 22.0776 26.9669 21.535 27.001C20.599 27.0592 19.6873 27.0392 18.7775 26.8084C18.7614 26.8044 18.715 26.9208 18.6807 26.981C18.5839 26.8164 18.483 26.6518 18.3822 26.4873Z" fill="#366FB6"/>
<path d="M18.0696 6.05693C18.1745 6.05493 18.2773 6.05493 18.3802 6.05292C18.4811 6.12115 18.5839 6.18738 18.6909 6.25963C17.767 6.6269 17.1114 7.2952 16.4558 8.13007C16.7322 8.17623 16.8774 8.20232 17.0247 8.22641C16.3005 8.36087 15.7841 8.8345 15.2617 9.3001C15.175 9.06329 15.0882 8.82446 14.9753 8.51339C14.5496 8.51339 14.1139 8.51339 13.6782 8.51339C14.003 8.26454 14.3762 8.4271 14.7271 8.39097C14.9026 8.37291 15.1064 8.41305 15.1951 8.20433C15.2839 7.99762 15.2193 7.81499 15.0943 7.63035C15.0015 7.49187 14.7392 7.51797 14.7554 7.28717C15.064 7.07644 15.6207 7.36343 15.7277 6.78544C15.8346 6.74129 15.9435 6.69914 16.0504 6.65499C16.7241 6.41416 17.42 6.20544 17.7347 5.44482C18.0333 5.65956 17.5915 5.9907 17.9485 6.11513C17.9707 6.12316 18.001 6.12316 18.0191 6.11313C18.0413 6.10309 18.0534 6.077 18.0696 6.05693Z" fill="#49C6EC"/>
<path d="M15.7278 6.78321C15.6209 7.3612 15.0662 7.0722 14.7555 7.28494C14.7394 7.51774 14.9996 7.48964 15.0944 7.62812C15.2195 7.81275 15.284 7.99538 15.1953 8.2021C15.1065 8.41081 14.9028 8.37068 14.7273 8.38874C14.3783 8.42486 14.0031 8.26431 13.6784 8.51116C13.3919 8.72389 13.5997 9.08714 13.406 9.35206C13.1579 9.69122 13.0994 10.0264 13.6965 10.0786C13.8599 10.0926 13.8518 10.2512 13.868 10.3756C13.7268 10.6084 13.6017 10.8472 13.3314 10.9777C13.0066 11.1322 12.8554 11.4051 12.9038 11.7704C12.8594 11.8747 12.817 11.9791 12.7726 12.0835C12.6516 12.1758 12.5286 12.2701 12.4075 12.3644C11.986 12.4728 11.9194 12.8943 11.6915 13.1732C11.52 13.4803 11.3485 13.7893 11.1771 14.0964C10.1322 13.3498 10.6809 12.3604 10.8301 11.4794C11.1186 9.78555 12.0828 8.46099 13.3919 7.37725C13.5977 7.20667 13.7651 7.03006 13.8659 6.78722C14.3622 6.77719 14.6022 6.35975 14.9451 6.10889C15.167 6.42999 14.6708 6.55041 14.7717 6.88556C15.0742 6.85747 15.401 6.82134 15.7278 6.78321Z" fill="#DAF0F5"/>
<path d="M11.175 14.0985C11.3465 13.7914 11.518 13.4824 11.6894 13.1753C11.8992 13.4181 11.9436 13.7292 12.0263 14.0202C12.5366 15.8324 13.4625 17.4019 14.7878 18.7385C14.3642 19.1559 13.8498 18.7926 13.3919 18.899C13.4907 18.7003 13.7288 18.8067 13.8195 18.7284C12.7444 17.5544 12.0081 16.1877 11.3909 14.7868C11.2295 15.0558 11.5361 15.4953 11.2114 15.8023C11.1993 15.2364 11.1892 14.6664 11.175 14.0985Z" fill="#4094D0"/>
<path d="M12.7705 12.0855C12.8149 11.9812 12.8572 11.8768 12.9016 11.7725C13.2587 11.7925 13.4079 12.0053 13.3837 12.3384C13.3555 12.7298 13.4624 13.099 13.535 13.4763C14.5053 18.4996 20.3994 21.0926 24.815 18.303C25.2849 18.0059 25.7287 17.6628 26.1846 17.3396L26.1886 17.3336C26.2633 17.6106 26.6506 17.4059 26.7292 17.6748C25.0227 19.8403 21.1115 20.9762 17.4624 19.5352C17.4543 19.6416 17.4463 19.7399 17.4382 19.8403C17.3938 19.8403 17.3474 19.8403 17.3031 19.8423C17.3716 19.0515 16.9299 18.9552 16.2743 19.1459C16.1735 18.8809 16.0887 18.618 15.8426 18.4715C15.8729 18.4334 15.9011 18.3973 15.9294 18.3592C15.8608 18.3371 15.7922 18.313 15.7236 18.2909C15.7236 17.9638 15.4574 17.8113 15.2718 17.6106C14.2289 16.4867 13.4442 15.2203 13.1255 13.7051C13.0126 13.1612 13.0388 12.5913 12.7705 12.0855Z" fill="#459FD8"/>
<path d="M17.4423 19.8384C17.4503 19.738 17.4584 19.6397 17.4665 19.5333C21.1155 20.9743 25.0247 19.8384 26.7333 17.6729C26.6546 17.404 26.2653 17.6107 26.1927 17.3317C26.7696 17.2916 27.2981 16.9946 27.8891 17.0347C27.8972 17.5646 27.8649 18.0823 27.4474 18.4857C26.9753 18.7787 26.4993 19.0657 26.0333 19.3647C23.4836 21.0004 20.7706 21.3717 17.8739 20.4625C17.5149 20.3521 17.4302 20.1495 17.4423 19.8384Z" fill="#419AD4"/>
<path d="M15.7277 18.287C15.7963 18.3091 15.8649 18.3331 15.9335 18.3552C15.9052 18.3913 15.875 18.4295 15.8468 18.4676C15.4595 18.4235 15.1508 18.6884 14.7898 18.7426C13.4645 17.4039 12.5386 15.8365 12.0283 14.0243C11.9456 13.7333 11.9012 13.4222 11.6914 13.1794C11.9193 12.9004 11.9839 12.479 12.4075 12.3706C12.8129 13.9621 13.0671 15.6258 14.2008 16.9102C14.6445 17.414 14.8967 18.1846 15.7277 18.287Z" fill="#419AD4"/>
<path d="M29.4463 17.6609C29.6702 17.685 29.9143 17.6167 30.1342 17.8375C29.8215 18.0442 29.7771 18.3794 29.6823 18.6764C29.7146 18.9172 30.1342 18.7366 30.0676 19.0597C29.7045 19.6277 29.3394 20.1976 28.9763 20.7656C28.821 20.7315 28.6657 20.5187 28.5063 20.7616C28.0988 20.7515 28.2179 20.3381 28.0383 20.1535C28.5063 19.3246 28.9763 18.4938 29.4463 17.6609Z" fill="#A1DCEF"/>
<path d="M27.885 17.0367C27.296 16.9986 26.7655 17.2936 26.1885 17.3338L26.1845 17.3398C26.1159 17.2394 26.0453 17.1371 25.9788 17.0367C26.0231 16.6695 26.3257 16.6354 26.592 16.5892C26.8502 16.545 27.0862 16.4969 27.2314 16.254C27.2939 16.2159 27.3565 16.1778 27.421 16.1396C27.6006 16.3745 27.5259 16.7618 27.8789 16.8902C27.8809 16.9384 27.883 16.9886 27.885 17.0367Z" fill="#B8E3EF"/>
<path d="M27.879 16.8901C27.526 16.7616 27.6007 16.3723 27.4211 16.1395C27.7298 16.0552 28.0162 15.9348 28.1977 15.6498C28.579 15.6277 28.7464 15.8043 28.6173 16.1656C28.4902 16.5248 28.3147 16.868 28.1534 17.2312C28.0565 17.1108 27.9678 17.0004 27.879 16.8901Z" fill="#B5E2EF"/>
<path d="M28.5043 20.7615C28.6636 20.5186 28.8169 20.7314 28.9743 20.7655C29.0247 20.92 29.0751 21.0766 29.1276 21.2311C28.125 22.1041 27.2173 23.0875 26.1079 23.8381C25.7972 24.0488 25.531 24.3659 25.0973 24.3298C25.0832 24.2796 25.0691 24.2274 25.0549 24.1773C25.2365 23.9444 25.2647 23.6815 25.2022 23.4026C25.2143 23.3564 25.2183 23.3083 25.2123 23.2581C25.9445 22.5577 26.7332 21.9094 27.3827 21.1408C27.7357 20.7274 28.1936 21.0465 28.5043 20.7615Z" fill="#6FCEEF"/>
<path d="M17.0227 8.22634C16.8775 8.20025 16.7322 8.17617 16.4539 8.13001C17.1115 7.29714 17.767 6.62683 18.6889 6.25957C18.582 6.18933 18.4791 6.12109 18.3782 6.05286C18.7817 6.12711 19.1589 5.86421 19.5764 5.97459C19.758 6.02075 19.9314 5.88428 19.8951 5.6575C19.8447 5.33639 20.0767 5.43272 20.232 5.41064C20.9723 5.56518 21.7388 5.50497 22.4811 5.70566C24.9945 6.37798 26.6082 7.91326 27.2073 10.46C27.3122 10.9036 27.3041 11.321 26.9451 11.6642C26.7898 11.893 26.7414 12.1157 26.9653 12.3345C27.167 12.5292 27.3203 12.7539 27.3788 13.0309C27.1186 13.3279 27.05 13.7213 26.8705 14.0524C26.6022 14.5441 26.5578 15.2405 25.8114 15.3529C25.6238 15.2365 25.4564 15.1 25.3858 14.8773C26.1745 13.4905 26.58 12.0495 26.1584 10.44C25.3959 7.51389 22.3379 5.86621 19.4332 6.78137C18.584 7.04829 18.118 7.88115 17.2506 8.06579C17.176 8.11998 17.0993 8.17416 17.0227 8.22634Z" fill="#4FC7EB"/>
<path d="M25.8155 15.3528C26.5619 15.2404 26.6062 14.544 26.8745 14.0523C27.0561 13.7211 27.1247 13.3278 27.3829 13.0308C27.4978 13.1692 27.6128 13.3077 27.7278 13.4482C28.2805 13.9279 27.7903 14.3613 27.6874 14.8249C27.5765 15.3186 26.8584 15.6177 27.2316 16.2579C27.0863 16.4987 26.8503 16.5489 26.5921 16.593C26.3259 16.6392 26.0213 16.6733 25.9789 17.0406C25.8861 16.888 25.7953 16.7375 25.7026 16.587C25.7005 16.5388 25.6985 16.4907 25.7005 16.4405C26.0072 16.1033 25.8155 15.718 25.8155 15.3528Z" fill="#41C5EB"/>
<path d="M17.0227 8.22642C17.0994 8.17424 17.176 8.12005 17.2527 8.06787C17.8336 8.47728 18.4166 8.88468 18.9975 9.29409C19.2981 9.557 19.5987 9.17368 19.8972 9.2961C19.988 9.44261 19.8972 9.66337 20.0908 9.76973C20.5669 9.91022 20.6637 10.3658 20.8997 10.713C21.0107 10.8775 21.1579 10.9919 20.8231 11.02C20.458 10.9277 20.0444 10.6086 19.8851 11.289C19.8084 11.6161 19.5301 11.4736 19.3142 11.4475C19.165 11.2167 18.8765 11.3171 18.6869 11.1826C18.3339 11.1806 18.0575 10.9739 17.757 10.8354C17.6481 10.7029 17.5533 10.5665 17.5956 10.3798C17.8094 10.0607 17.7207 9.78779 17.3455 9.84399C16.8977 9.91022 16.4136 9.79783 15.998 10.0547C15.5986 10.0146 15.2416 10.1149 14.9289 10.3678C14.8825 10.418 14.8361 10.4681 14.7918 10.5163C14.5235 10.4982 14.2229 10.6488 13.999 10.3798C14.0737 10.2092 14.1967 10.0808 14.3883 10.0768C14.9088 10.0647 15.1085 9.71153 15.2618 9.30011C15.7822 8.8325 16.2986 8.36088 17.0227 8.22642Z" fill="#E9F5F8"/>
<path d="M15.2618 9.29794C15.1084 9.70936 14.9087 10.0646 14.3883 10.0746C14.1947 10.0786 14.0736 10.2051 13.999 10.3777C13.9546 10.3777 13.9123 10.3757 13.8679 10.3757C13.8518 10.2512 13.8598 10.0927 13.6964 10.0786C13.1014 10.0264 13.1579 9.69129 13.406 9.35213C13.5996 9.08721 13.3939 8.72597 13.6783 8.51123C14.114 8.51123 14.5497 8.51123 14.9753 8.51123C15.0883 8.8223 15.175 9.06112 15.2618 9.29794Z" fill="#3EC5EC"/>
<path d="M13.8658 10.3757C13.9102 10.3777 13.9525 10.3777 13.9969 10.3777C14.2228 10.6467 14.5214 10.4982 14.7896 10.5142C14.6605 10.7831 14.1361 10.5925 14.1643 11.0741C14.1986 11.614 14.124 12.1639 14.2006 12.6957C14.7251 16.3463 17.8719 18.9312 21.4967 18.59C23.1366 18.4355 24.5325 17.7351 25.7004 16.5811C25.7932 16.7336 25.886 16.8842 25.9768 17.0347C26.0454 17.135 26.114 17.2374 26.1825 17.3377C25.7267 17.6608 25.2849 18.004 24.8129 18.301C20.3973 21.0886 14.5012 18.4977 13.533 13.4744C13.4603 13.0971 13.3534 12.7278 13.3817 12.3365C13.4039 12.0033 13.2566 11.7926 12.8996 11.7705C12.8532 11.4033 13.0045 11.1323 13.3272 10.9778C13.6015 10.8494 13.7246 10.6105 13.8658 10.3757Z" fill="#46A6DC"/>
<path d="M15.7277 18.287C14.8987 18.1847 14.6465 17.416 14.2007 16.9083C13.0671 15.6238 12.8129 13.9581 12.4075 12.3686C12.5285 12.2743 12.6515 12.182 12.7726 12.0876C13.0409 12.5934 13.0146 13.1613 13.1276 13.6992C13.4483 15.2144 14.231 16.4828 15.2739 17.6047C15.4614 17.8074 15.7277 17.9599 15.7277 18.287Z" fill="#449ED7"/>
<path d="M18.9995 9.29388C18.4185 8.88447 17.8356 8.47706 17.2546 8.06765C18.122 7.88101 18.588 7.05015 19.4372 6.78323C22.3419 5.86607 25.3999 7.51575 26.1624 10.4418C26.582 12.0514 26.1785 13.4923 25.3898 14.8791C25.3455 14.8611 25.3031 14.847 25.2567 14.835C24.7443 14.4597 24.6112 13.8857 24.4559 13.3217C24.825 13.2435 25.0207 12.9926 25.059 12.6454C25.1195 12.0935 25.1962 11.5537 25.0852 10.9817C24.5931 8.44094 21.6117 6.92973 19.4211 8.14793C19.4816 8.28641 19.5441 8.42288 19.6066 8.56336C19.0781 8.48108 18.711 8.02149 18.0837 7.86094C18.3923 8.459 18.9067 8.66571 19.3142 8.99284C19.179 9.11927 19.0903 9.20557 18.9995 9.29388Z" fill="#57C8EB"/>
<path d="M25.2566 14.833C25.301 14.845 25.3454 14.8611 25.3878 14.8772C25.4584 15.0979 25.6258 15.2344 25.8134 15.3528C25.8154 15.7201 26.007 16.1054 25.6984 16.4385C25.6157 16.1355 25.2929 16.1235 25.1074 15.9448C25.0529 15.7923 24.9944 15.6398 24.9399 15.4893C25.0469 15.2705 25.1517 15.0518 25.2566 14.833Z" fill="#CFEBF2"/>
<path d="M25.1094 15.9448C25.2949 16.1234 25.6197 16.1355 25.7004 16.4385C25.6984 16.4867 25.7004 16.5349 25.7024 16.585C24.5345 17.739 23.1386 18.4394 21.4987 18.594C17.8738 18.9351 14.7271 16.3502 14.2026 12.6997C14.1259 12.1678 14.2006 11.6179 14.1663 11.0781C14.136 10.5984 14.6625 10.7891 14.7916 10.5181C14.838 10.468 14.8844 10.4178 14.9308 10.3696C15.2677 10.7228 15.1123 11.1604 15.0942 11.5497C15.0014 13.5145 15.6892 15.1581 17.1981 16.3904C18.3983 17.3717 19.7901 17.8795 21.4119 17.7009C22.8663 17.5363 24.0423 16.878 25.1094 15.9448Z" fill="#48AADF"/>
<path d="M25.1094 15.9448C24.0423 16.878 22.8663 17.5363 21.4079 17.6968C19.7881 17.8735 18.3943 17.3677 17.194 16.3863C15.6872 15.1541 14.9994 13.5104 15.0901 11.5457C15.1083 11.1583 15.2636 10.7188 14.9268 10.3656C15.2394 10.1127 15.5965 10.0124 15.9979 10.0525C16.4759 10.1288 16.2016 10.476 16.1613 10.6506C15.9273 11.7062 15.9757 12.7317 16.3549 13.7513C17.1497 15.8866 19.1991 16.8299 20.9318 16.86C22.1099 16.88 23.1547 16.3081 24.127 15.6257C24.4518 15.3989 24.4921 15.1922 24.4417 14.8771C24.7483 14.9674 24.7422 15.3086 24.9399 15.4872C24.9964 15.6418 25.0529 15.7923 25.1094 15.9448Z" fill="#4BB1E4"/>
<path d="M19.6067 8.55949C19.5462 8.42101 19.4837 8.28254 19.4211 8.14406C21.6098 6.92586 24.5911 8.43707 25.0853 10.9778C25.1963 11.5478 25.1216 12.0896 25.0591 12.6416C25.0208 12.9887 24.8231 13.2396 24.456 13.3179C24.0424 13.0329 24.0384 12.4027 23.516 12.2081C23.4676 11.9532 23.4171 11.6983 23.3687 11.4434C23.3546 10.9417 23.8992 10.5082 23.5523 9.91616C23.1267 10.0968 22.6688 9.80378 22.2472 10.0486C21.7974 9.87 21.3415 9.71346 21.2628 9.12343C21.2386 8.94281 21.0349 8.84849 20.8372 8.92073C20.6698 8.98295 20.5407 9.06122 20.6193 9.31409C20.7747 9.8098 20.3833 9.74557 20.0908 9.76564C19.8972 9.65928 19.988 9.43852 19.8972 9.29201C19.754 9.06925 19.5825 8.85451 19.6067 8.55949Z" fill="#64CBEB"/>
<path d="M24.4419 14.8792C24.4943 15.1942 24.452 15.401 24.1272 15.6277C23.1549 16.3081 22.11 16.8821 20.932 16.862C19.1973 16.8319 17.1498 15.8886 16.3551 13.7533C15.9759 12.7338 15.9274 11.7102 16.1614 10.6526C16.1998 10.478 16.4761 10.1308 15.998 10.0545C16.4156 9.79765 16.8977 9.91004 17.3455 9.84381C17.7187 9.78761 17.8074 10.0606 17.5956 10.3797C17.4524 10.3415 17.4363 10.0907 17.2003 10.1709C17.0268 11.05 16.7424 11.8909 16.9522 12.8602C17.4121 14.9695 19.8206 16.4165 21.9043 15.8244C22.8483 15.5555 23.4514 14.835 24.2664 14.4136C24.3269 14.5681 24.3854 14.7226 24.4419 14.8792Z" fill="#4BB7E8"/>
<path d="M24.2663 14.4116C23.4534 14.835 22.8482 15.5555 21.9042 15.8224C19.8184 16.4145 17.41 14.9675 16.9521 12.8582C16.7423 11.8909 17.0267 11.05 17.2002 10.169C17.4362 10.0867 17.4523 10.3395 17.5955 10.3777C17.5532 10.5623 17.646 10.7008 17.7569 10.8332C17.7549 11.3229 17.7428 11.8106 17.7549 12.3003C17.7912 13.7071 19.0902 14.9153 20.4942 15.0518C21.9647 15.1943 22.9329 14.4577 23.8265 13.4824C24.0303 13.7653 24.2582 14.0363 24.2663 14.4116Z" fill="#4CBCEC"/>
<path d="M23.8265 13.4804C22.9308 14.4558 21.9646 15.1923 20.4941 15.0498C19.0902 14.9134 17.7911 13.7052 17.7548 12.2984C17.7427 11.8107 17.7548 11.321 17.7568 10.8313C18.0574 10.9698 18.3337 11.1765 18.6867 11.1785C18.6827 11.2548 18.6908 11.335 18.6726 11.4113C18.4265 12.4509 18.8643 13.4423 19.7982 13.952C20.7463 14.4698 21.656 14.2992 22.4891 13.5105C22.8098 13.2075 22.9329 12.7379 23.3666 12.5472C23.649 12.7981 23.776 13.1192 23.8265 13.4804Z" fill="#4CC1EF"/>
<path d="M23.3667 12.5491C22.931 12.7398 22.808 13.2114 22.4892 13.5125C21.6541 14.3012 20.7464 14.4718 19.7984 13.954C18.8644 13.4442 18.4267 12.4548 18.6728 11.4132C18.6909 11.339 18.6829 11.2587 18.6869 11.1804C18.8765 11.3169 19.165 11.2145 19.3142 11.4453C19.3405 11.6561 19.6511 11.5577 19.6793 11.8628C19.7701 12.8582 20.3611 13.3318 21.1599 13.1512C21.8639 12.9907 22.221 12.2581 21.993 11.4493C22.229 11.359 22.465 11.2707 22.7011 11.1824C22.9229 11.2687 23.1468 11.359 23.3687 11.4453C23.4171 11.7002 23.4676 11.9551 23.516 12.212C23.4656 12.3224 23.4171 12.4347 23.3667 12.5491Z" fill="#4EC8F4"/>
<path d="M21.991 11.4494C22.221 12.2582 21.8619 12.9927 21.158 13.1513C20.3592 13.3319 19.7681 12.8563 19.6774 11.8628C19.6491 11.5578 19.3405 11.6581 19.3123 11.4454C19.5261 11.4715 19.8065 11.614 19.8831 11.2869C20.0425 10.6045 20.458 10.9256 20.8231 11.0179C21.164 11.2929 21.6925 11.0661 21.991 11.4494Z" fill="#55C9F3"/>
<path d="M21.991 11.4494C21.6904 11.0661 21.1639 11.2948 20.823 11.0179C21.1599 10.9898 21.0106 10.8754 20.8997 10.7108C20.6657 10.3636 20.5689 9.90807 20.0908 9.76759C20.3813 9.74752 20.7746 9.81174 20.6193 9.31603C20.5406 9.06517 20.6697 8.98489 20.8372 8.92268C21.0328 8.84842 21.2386 8.94475 21.2628 9.12537C21.3415 9.71541 21.7994 9.87195 22.2472 10.0506C22.6163 10.3416 22.5961 10.7851 22.699 11.1805C22.465 11.2708 22.229 11.3591 21.991 11.4494Z" fill="#E4F3F7"/>
<path d="M19.6068 8.55954C19.5826 8.85255 19.754 9.0693 19.8992 9.29608C19.5987 9.17366 19.2981 9.55698 18.9976 9.29407C19.0883 9.20778 19.1771 9.11947 19.3123 8.99103C18.9068 8.6639 18.3904 8.45719 18.0818 7.85913C18.7132 8.01768 19.0783 8.47726 19.6068 8.55954Z" fill="#E4F3F7"/>
<path d="M23.3667 12.5491C23.4171 12.4367 23.4655 12.3244 23.514 12.21C24.0364 12.4046 24.0404 13.0348 24.4539 13.3198C24.6073 13.8817 24.7404 14.4577 25.2548 14.833C25.1499 15.0518 25.045 15.2705 24.9401 15.4893C24.7444 15.3106 24.7505 14.9695 24.4418 14.8792C24.3833 14.7226 24.3249 14.5681 24.2664 14.4115C24.2563 14.0363 24.0303 13.7633 23.8246 13.4803C23.7762 13.1191 23.6491 12.798 23.3667 12.5491Z" fill="#D4EDF4"/>
<path d="M22.7009 11.1825C22.598 10.7872 22.6161 10.3436 22.249 10.0526C22.6706 9.80577 23.1285 10.1008 23.5541 9.92017C23.9011 10.5122 23.3564 10.9437 23.3706 11.4474C23.1467 11.3571 22.9228 11.2708 22.7009 11.1825Z" fill="#DAF0F5"/>
</svg>
