<svg width="158" height="460" viewBox="0 0 158 460" fill="none" xmlns="http://www.w3.org/2000/svg">
<path d="M151.226 240.687C151.226 241.957 151.226 243.226 151.226 244.49C150.193 244.68 150.245 245.517 150.118 246.284C147.746 260.75 139.241 269.908 125.393 273.97C110.211 278.419 94.9547 277.72 79.9752 272.966C67.9789 269.163 58.6543 254.876 59.1909 241.576C68.7291 240.941 78.3018 240.301 87.9323 239.654C88.3593 241.264 88.6594 242.464 88.9998 243.659C91.6772 253.093 98.688 257.802 108.313 256.648C114.804 255.869 119.403 252.147 119.911 247.254C120.424 242.303 116.731 237.9 110.24 236.019C103.252 234 96.1607 232.315 89.2018 230.197C76.7785 226.412 66.0113 220.59 62.6415 206.937C44.6846 207.976 27.1143 207.433 9.54974 207.353C9.5382 176.609 9.53241 145.865 9.52087 115.116C16.6413 115.052 23.756 115.012 30.8764 114.908C32.2324 114.891 34.0847 115.537 34.7483 113.927C36.4332 109.819 38.6778 105.849 39.301 100.858C34.6155 100.858 30.5475 100.858 26.618 100.858C25.5505 98.8899 25.9775 97.1185 25.9775 95.422C25.9487 69.7792 25.9718 44.1306 25.9429 18.4878C25.9371 12.3252 25.764 6.16259 25.6717 0C36.7678 0 47.864 0 58.9658 0C58.9658 15.8623 58.9658 31.7246 58.9658 47.587C61.724 42.5611 63.8071 37.4833 65.642 32.3132C66.5018 29.8897 67.7135 28.8453 70.4486 28.8972C79.479 29.0761 88.5151 29.0761 97.5455 28.8972C100.304 28.8395 101.29 29.9359 102.196 32.3651C113.085 61.5509 124.14 90.6789 135.046 119.859C136.171 122.865 137.735 125.825 137.891 129.195C127.101 129.195 116.541 129.195 106.057 129.195C104.574 124.521 103.039 120.194 101.873 115.762C101.337 113.719 100.552 112.871 98.388 112.888C88.4055 112.975 78.423 112.917 68.4406 112.935C67.2057 112.935 65.8036 112.75 65.5208 114.556C65.2208 116.472 66.796 116.524 67.9039 116.841C82.9238 121.18 89.9461 132.282 93.2756 146.598C95.2259 155.005 94.1988 163.557 94.418 172.085C99.4151 172.085 104.135 172.097 108.855 172.085C113.8 172.074 118.624 172.956 123.431 173.984C137.083 176.909 146.944 188.807 146.535 202.24C137.02 202.794 127.47 203.348 118.093 203.891C114.7 193.47 111.838 190.319 99.6286 191.104C94.8912 191.41 91.4118 194.514 91.4753 198.23C91.556 202.69 94.77 204.369 98.538 205.322C106.357 207.307 114.262 209.014 121.982 211.323C136.673 215.714 149.068 222.603 150.505 240.208C150.499 240.399 150.972 240.537 151.226 240.687ZM38.2219 186.297C42.7227 186.297 46.6868 186.47 50.6221 186.263C58.0311 185.864 62.8954 182.062 64.5341 174.901C66.571 165.992 66.5537 156.956 64.361 148.052C62.9819 142.444 59.5256 138.456 53.7553 136.973C48.6718 135.664 43.5017 135.808 38.2219 136.321C38.2219 153.038 38.2219 169.454 38.2219 186.297ZM83.4604 55.1344C79.6117 67.8981 76.1726 79.3058 72.6759 90.9155C80.2406 90.9155 87.1072 90.9155 94.3892 90.9155C90.7886 79.1327 87.3092 67.7481 83.4604 55.1344Z" fill="#1B65B0"/>
<path d="M8.55145 115.116C8.87459 115.122 9.20351 115.122 9.52665 115.127C9.53819 145.871 9.54395 176.615 9.55549 207.364C9.22081 207.376 8.88613 207.382 8.55145 207.393C8.55145 176.632 8.55145 145.877 8.55145 115.116Z" fill="#C9DDEF"/>
<path d="M112.785 309.393C111.284 308.821 109.698 308.464 108.197 307.887C107.176 308.135 106.155 308.389 105.128 308.637C100.367 308.325 95.7279 309.081 91.1059 310.125C91.0309 309.67 90.9559 309.214 90.8751 308.764C90.9213 306.023 87.2803 306.046 86.9514 303.38C87.8169 303.316 88.6766 303.259 89.5364 303.201C83.0161 301.897 76.49 302.018 69.9581 303.138C69.4503 303.166 68.9425 303.19 68.429 303.218C66.3113 302.861 64.3206 303.599 62.3414 304.055C47.9966 307.35 35.1464 313.489 24.7715 324.216C20.1438 327.978 16.4047 332.525 13.2138 337.545C10.5941 341.296 8.36105 345.226 6.53766 349.345C18.6897 321.389 46.5599 301.834 79 301.834C91.0944 301.828 102.542 304.54 112.785 309.393Z" fill="#C4E7F1"/>
<path d="M158 380.816C158 382.391 157.954 383.955 157.862 385.513C157.815 386.304 157.758 387.1 157.694 387.885C157.538 389.627 157.331 391.347 157.059 393.055C156.627 395.825 156.055 398.554 155.34 401.22C154.89 402.939 154.371 404.624 153.811 406.286C152.916 408.906 151.889 411.468 150.735 413.955C149.789 416.009 148.75 418.011 147.631 419.961C146.65 421.692 145.6 423.377 144.486 425.022C130.378 445.875 106.57 459.626 79.5424 459.799C79.5366 459.805 79.5366 459.805 79.5309 459.799C79.5251 459.805 79.5193 459.799 79.5193 459.799C79.5078 459.805 79.5078 459.805 79.502 459.799C79.4962 459.805 79.4962 459.799 79.4962 459.799C79.3289 459.805 79.1731 459.805 79.0116 459.805C78.1287 459.805 77.2574 459.787 76.3861 459.758H76.3803C74.0665 459.683 71.7872 459.51 69.5253 459.239C68.8271 459.158 68.1289 459.066 67.4365 458.962C67.4249 458.962 67.4192 458.962 67.4076 458.956C65.365 458.662 63.3569 458.281 61.3662 457.825C61.3547 457.82 61.3431 457.82 61.3316 457.814C59.3236 457.358 57.3386 456.816 55.3941 456.21C54.8228 456.037 54.2631 455.852 53.7034 455.662C53.2129 455.494 52.7225 455.327 52.232 455.148C48.5967 453.838 45.0769 452.269 41.7129 450.463C41.257 450.215 40.8012 449.966 40.3453 449.713C39.3182 449.136 38.3085 448.535 37.3044 447.912C37.2814 447.901 37.2525 447.889 37.2294 447.866C36.3466 447.318 35.481 446.747 34.6213 446.164C34.6213 446.164 34.6213 446.164 34.6155 446.164C33.6807 445.529 32.769 444.877 31.8631 444.202C31.8458 444.19 31.8401 444.185 31.8227 444.173C31.817 444.173 31.817 444.173 31.8112 444.162C30.836 443.435 29.8897 442.69 28.9549 441.923C28.9492 441.923 28.9434 441.917 28.9376 441.911C27.9221 441.08 26.9296 440.226 25.9544 439.349C25.9487 439.343 25.9371 439.338 25.9371 439.332C24.8985 438.386 23.8945 437.428 22.9078 436.43C22.902 436.424 22.8962 436.418 22.8904 436.412C22.1634 435.679 21.4479 434.929 20.7439 434.168C19.5957 432.927 18.4993 431.64 17.4318 430.319C17.3914 430.261 17.351 430.209 17.3049 430.152C16.6932 429.39 16.0931 428.617 15.5161 427.82C15.5046 427.809 15.4988 427.797 15.4873 427.786C14.6852 426.707 13.912 425.61 13.1676 424.491L13.1619 424.485C11.8174 422.46 10.5653 420.377 9.40546 418.23C9.38815 418.196 9.35929 418.155 9.34198 418.121C8.06099 415.72 6.89542 413.262 5.85678 410.723C5.37785 409.546 4.922 408.357 4.50078 407.163C4.02185 405.807 3.57753 404.434 3.17362 403.043C3.16785 403.026 3.16208 403.014 3.16208 402.997C2.8678 401.981 2.58505 400.966 2.3254 399.927C2.3254 399.927 2.3254 399.921 2.3254 399.916C1.97918 398.537 1.67913 397.146 1.40793 395.732C1.40793 395.721 1.40795 395.715 1.40218 395.715C1.05596 393.903 0.767451 392.062 0.553953 390.21C0.548183 390.187 0.548172 390.164 0.542401 390.135C0.213499 387.337 0.0346213 384.486 0 381.607V380.799C0 379.991 0.0115447 379.189 0.0403957 378.393C0.0403957 378.347 0.0404014 378.295 0.0461716 378.248C0.0519418 377.937 0.0634808 377.631 0.0807914 377.319C0.219277 374.163 0.536635 371.053 1.03287 368.006C1.32715 366.621 1.70221 365.248 2.19845 363.892C2.15229 366.096 2.04266 368.324 4.56424 369.42C5.64904 368.589 5.35476 367.383 5.32014 366.304C5.24512 364.088 6.23184 363.044 8.4476 363.182C8.71303 362.669 8.97269 362.144 9.23812 361.63C9.12848 360.557 9.60164 359.334 8.45914 358.514C7.31086 359.339 5.93755 358.589 4.67388 358.589C4.59886 358.589 4.53539 358.595 4.46038 358.601C4.39114 358.607 4.32189 358.612 4.25842 358.624C4.20072 358.63 4.14879 358.641 4.08532 358.659C4.03916 358.67 3.99876 358.676 3.9526 358.693C3.90644 358.711 3.8545 358.728 3.80257 358.751C3.76218 358.762 3.72757 358.78 3.68718 358.803C3.64678 358.82 3.61216 358.837 3.57754 358.855C3.42751 358.941 3.27749 359.057 3.12746 359.201C3.09284 359.23 3.06399 359.259 3.03514 359.293V359.288C3.54292 357.378 4.12571 355.497 4.78929 353.656C4.8066 353.61 4.82391 353.552 4.84122 353.5C5.01432 353.033 5.18742 352.56 5.37207 352.098C5.49324 351.781 5.62019 351.463 5.7529 351.152C5.86254 350.875 5.98372 350.598 6.09912 350.321C6.09912 350.309 6.09911 350.303 6.11065 350.292C6.12796 350.234 6.15682 350.182 6.18567 350.119C6.2953 349.853 6.41648 349.582 6.53189 349.317C8.35527 345.197 10.5884 341.267 13.208 337.517C16.3932 332.491 20.1323 327.95 24.7658 324.187C35.1406 313.461 47.9851 307.321 62.3356 304.026C64.3148 303.57 66.3113 302.832 68.4232 303.19C68.931 303.161 69.4388 303.138 69.9523 303.109C76.4842 301.989 83.0103 301.868 89.5307 303.172C88.6709 303.23 87.8111 303.288 86.9456 303.351C87.2745 306.017 90.9155 305.994 90.8693 308.735C90.9443 309.185 91.0194 309.641 91.1001 310.096C95.7221 309.052 100.361 308.296 105.122 308.608C106.149 308.36 107.17 308.106 108.192 307.858C109.692 308.435 111.279 308.798 112.779 309.364C112.79 309.369 112.796 309.375 112.808 309.381C113.494 309.704 114.175 310.045 114.845 310.385C114.85 310.385 114.856 310.385 114.856 310.391L118.768 312.526C118.774 312.532 118.78 312.532 118.786 312.537C121.625 314.193 124.348 316.023 126.95 318.007C129.576 320.016 132.074 322.191 134.423 324.505C136.644 326.692 138.739 329.005 140.689 331.446C142.507 333.714 144.203 336.086 145.767 338.555C147.36 341.065 148.814 343.673 150.112 346.362C151.572 349.369 152.847 352.473 153.92 355.675C153.92 355.675 153.92 355.675 153.92 355.681C156.194 362.467 157.573 369.662 157.913 377.129C157.971 378.364 158 379.587 158 380.816Z" fill="#365CA8"/>
<path d="M158 380.816C158 382.391 157.954 383.955 157.862 385.513C156.321 386.511 155.507 388.098 154.786 389.829C148.341 405.236 139.224 418.703 125.998 429.136C102.346 447.785 75.6822 454.323 46.0348 449.009C43.7498 448.593 41.3494 447.053 38.9259 448.732C38.3777 448.484 37.8411 448.218 37.316 447.924C37.2929 447.912 37.2641 447.901 37.241 447.878C36.3293 447.376 35.4638 446.81 34.6329 446.175C34.6329 446.175 34.6329 446.175 34.6271 446.175C34.1886 445.841 33.7558 445.483 33.3403 445.114C34.3328 443.833 35.6715 444.092 36.8948 444.479C49.8662 448.587 63.0512 450.013 76.5996 448.155C89.548 446.383 101.769 442.685 112.877 435.662C118.33 433.36 123.067 430.077 126.899 425.53C130.943 423.343 134.059 420.227 136.246 416.182C140.787 412.35 144.076 407.613 146.379 402.16C147.856 401.526 148.121 400.008 148.82 398.808C152.08 393.216 153.88 386.996 156.488 381.122C156.494 380.603 156.506 380.078 156.506 379.552C156.979 378.756 157.452 377.954 157.925 377.152C157.971 378.364 158 379.587 158 380.816Z" fill="#63CAE8"/>
<path d="M157.856 385.513C157.81 386.304 157.752 387.1 157.688 387.885C156.569 388.675 156.148 390.026 155.582 391.312C148.421 407.59 138.231 421.438 123.875 432.246C110.419 442.373 95.3701 448.46 78.9192 451.074C70.7717 452.361 62.5087 452.43 54.1939 451.524C50.9914 451.172 47.4946 448.905 44.1825 451.472C43.3343 451.184 42.5092 450.855 41.7187 450.468C41.2513 450.238 40.7954 449.99 40.3511 449.718C39.8607 449.418 39.3817 449.089 38.9201 448.726C41.3436 447.047 43.744 448.587 46.029 449.003C75.6764 454.317 102.335 447.78 125.993 429.13C139.218 418.698 148.341 405.23 154.78 389.824C155.502 388.104 156.315 386.511 157.856 385.513Z" fill="#5EC9E5"/>
<path d="M157.688 387.891C157.533 389.633 157.325 391.353 157.054 393.061C156.223 394.249 155.334 395.392 154.596 396.632C150.314 403.857 146.235 411.139 140.793 417.671C129.207 431.56 114.902 441.334 98.0186 447.416C82.7218 452.927 66.9806 454.606 50.8529 452.096C49.6296 451.905 48.2159 451.628 47.3157 453.007C46.2713 452.5 45.2269 451.986 44.1825 451.478C47.4889 448.91 50.9856 451.184 54.1939 451.53C62.503 452.436 70.7717 452.367 78.9192 451.08C95.3701 448.466 110.419 442.379 123.875 432.252C138.231 421.444 148.421 407.596 155.582 391.318C156.142 390.025 156.569 388.681 157.688 387.891Z" fill="#5DC9E5"/>
<path d="M157.913 377.152C157.434 377.948 156.967 378.75 156.494 379.553C156.257 379.287 156.021 379.022 155.784 378.756C155.767 376.691 155.744 374.625 155.727 372.565C153.765 370.32 154.446 367.031 152.611 364.74C152.391 362.865 151.255 362.294 149.524 362.565C151.324 361.411 153.055 360.297 152.818 357.66C152.813 357.603 152.813 357.539 152.824 357.482C152.824 357.453 152.83 357.424 152.841 357.395C152.859 357.314 152.888 357.228 152.928 357.135C152.945 357.095 152.963 357.06 152.98 357.02C152.997 356.979 153.026 356.945 153.049 356.904C153.095 356.829 153.147 356.749 153.199 356.668V356.662C153.257 356.587 153.315 356.506 153.372 356.431C153.418 356.374 153.459 356.316 153.511 356.258C153.586 356.166 153.655 356.074 153.724 355.981C153.794 355.895 153.863 355.802 153.926 355.716C156.194 362.49 157.573 369.686 157.913 377.152Z" fill="#3B84C5"/>
<path d="M77.8056 307.073C74.6377 307.598 71.6891 308.671 68.8791 310.108C68.4117 310.345 67.9501 310.598 67.4884 310.858C67.0268 311.118 66.571 311.383 66.1151 311.654C66.017 311.579 65.9132 311.51 65.8208 311.441C65.5208 311.233 65.215 311.054 64.9092 310.904C62.0933 309.496 59.0466 310.298 56.0519 310.61C52.6648 310.951 49.6642 313.385 45.8905 312.168C44.7538 311.799 42.4399 312.71 42.3476 314.378C42.238 316.248 41.0955 316.703 39.9645 317.511C24.9331 328.232 18.684 343.223 21.2055 361.042C23.5656 377.695 33.4269 389.552 49.2719 395.819C53.588 397.527 58.1061 399.656 63.0108 397.486C63.2704 397.238 63.5185 396.984 63.7782 396.736C65.1457 397.596 66.2767 398.612 66.2075 400.423C64.3379 403.937 61.0258 402.287 58.6716 401.941C41.609 399.437 29.4396 390.014 21.6614 374.757C19.4225 370.366 18.2108 365.617 17.0337 360.863C16.7682 359.051 16.5086 357.251 16.2432 355.439C16.2893 345.399 18.8571 336.08 24.1887 327.534C24.7831 326.588 26.2545 325.601 24.7658 324.216C35.1406 313.489 47.9851 307.35 62.3356 304.055C64.3148 303.599 66.3113 302.861 68.4232 303.218C68.5617 305.255 70.137 304.748 71.3083 304.776C72.6874 304.799 74.078 304.24 75.4513 304.869C75.3129 305.376 74.355 305.469 74.7358 306.277C75.7803 306.507 77.0151 305.965 77.8056 307.073Z" fill="#C4E7F1"/>
<path d="M16.1797 428.669C15.1411 427.105 13.3927 426.02 13.058 423.983C14.6679 423.799 15.9835 424.335 17.3799 425.218C33.6231 435.501 51.2569 440.711 70.5928 439.54C72.699 439.413 75.0648 439.863 76.2419 437.335C78.8154 435.899 81.9486 437.07 84.5106 435.558C92.0234 435.541 98.4399 432.258 104.804 428.801C105.785 428.27 106.72 427.803 105.843 426.482C108.347 426.568 109.328 424.704 110.39 422.933C111.96 424.883 113.344 423.043 114.262 422.362C117.389 420.059 120.788 417.988 122.992 414.618C123.511 415.143 124.031 415.668 124.544 416.193C125.341 419.246 122.554 420.273 121.001 421.491C102.502 435.933 81.8102 443.186 58.0022 441.242C44.9385 440.174 32.971 436.297 21.6383 430.071C19.8496 429.084 18.1878 428.426 16.1797 428.669Z" fill="#7CD1EE"/>
<path d="M16.1797 428.669C18.1878 428.426 19.8437 429.078 21.6441 430.071C32.9768 436.303 44.9384 440.174 58.0079 441.242C81.8158 443.187 102.508 435.933 121.007 421.491C122.559 420.279 125.346 419.252 124.55 416.193C126.189 415.859 127.227 417.024 128.439 417.746C127.112 420.273 124.55 421.485 122.513 423.245C107.389 436.314 89.5768 442.835 69.8484 444.162C55.1344 445.154 41.1185 441.952 27.6278 436.049C25.9313 435.304 24.0733 432.979 21.6902 434.918C19.3706 433.268 17.9281 430.832 16.1797 428.669Z" fill="#7AD0ED"/>
<path d="M21.6903 434.923C24.0734 432.985 25.9256 435.31 27.6278 436.054C41.1186 441.957 55.1344 445.154 69.8485 444.167C89.5768 442.84 107.389 436.32 122.513 423.25C124.55 421.49 127.112 420.279 128.439 417.751C128.959 418.005 129.484 418.265 130.003 418.519C129.859 419.863 129.195 420.833 128.185 421.785C121.301 428.317 113.627 433.619 105.012 437.67C84.7299 447.214 63.7782 449.043 42.0418 443.914C37.0794 442.742 32.5325 439.909 27.2124 440.226C25.0139 438.841 23.254 436.983 21.6903 434.923Z" fill="#6FCDEB"/>
<path d="M131.445 356.414C129.328 355.797 127.008 356.529 124.891 355.843C124.741 355.797 124.59 355.733 124.44 355.67C124.215 355.572 123.996 355.456 123.783 355.312C123.938 355.197 124.083 355.081 124.21 354.954C125.121 354.083 125.358 352.975 125.369 351.63C125.398 348.128 125.104 344.683 124.567 341.227C122.334 326.905 113.754 317.205 101.717 309.496C103.062 309.6 104.118 309.185 105.128 308.631C106.155 308.383 107.176 308.129 108.197 307.881C109.698 308.458 111.284 308.821 112.785 309.387C112.796 309.393 112.802 309.398 112.813 309.404C113.517 309.67 114.204 309.993 114.85 310.408C114.856 310.408 114.862 310.408 114.862 310.414C115.075 310.552 115.283 310.697 115.491 310.858C113.494 312.295 115.41 313.057 116.114 313.812C126.385 324.903 131.694 337.765 129.899 353.033C129.686 354.845 130.672 355.416 131.445 356.414Z" fill="#38B7E4"/>
<path d="M27.2181 440.232C32.5382 439.915 37.0851 442.748 42.0475 443.919C63.7839 449.049 84.7356 447.22 105.018 437.676C113.633 433.625 121.301 428.322 128.191 421.79C129.195 420.838 129.859 419.869 130.009 418.525C130.868 418.496 131.786 418.657 132.351 417.74C141.641 407.942 148.387 396.627 152.628 383.805C153.263 381.878 153.528 379.679 155.796 378.756C156.032 379.022 156.269 379.293 156.505 379.558C156.5 380.083 156.494 380.603 156.488 381.128C155.64 381.191 154.982 381.584 154.746 382.403C152.732 389.321 148.929 395.473 146.379 402.16C142.767 406.661 139.276 411.254 136.252 416.182C132.819 418.98 129.703 422.096 126.904 425.53C121.977 428.553 117.383 432.044 112.883 435.656C101.775 442.679 89.5537 446.383 76.6111 448.155C63.0627 450.007 49.8777 448.587 36.9063 444.479C35.683 444.092 34.3443 443.833 33.3518 445.114C31.0322 443.815 29.0299 442.142 27.2181 440.232Z" fill="#69CCE9"/>
<path d="M145.132 424.791C133.246 442.806 116.42 453.538 95.5605 458.212C89.7499 459.516 83.847 460.278 77.8517 459.672C82.2313 457.295 87.2572 457.393 91.9195 456.014C108.036 451.259 122.64 444.035 135.173 432.621C138.254 429.823 140.845 426.147 145.132 424.791Z" fill="#46C0DB"/>
<path d="M76.2476 437.336C75.0647 439.869 72.699 439.413 70.5986 439.54C51.2626 440.717 33.6288 435.501 17.3857 425.218C15.9893 424.335 14.6737 423.804 13.0638 423.983C12.5676 423.181 12.0655 422.385 11.5693 421.583C12.0136 421.058 12.4579 420.533 12.908 420.008C14.8525 418.998 16.2778 420.013 17.8069 421.11C26.9181 427.665 36.9986 432.102 47.9794 434.341C54.6267 435.697 61.3893 436.73 68.1924 436.026C70.3043 435.806 72.2489 435.639 74.2281 436.36C74.8974 436.689 75.5725 437.012 76.2476 437.336Z" fill="#80D2EF"/>
<path d="M134.735 352.311C134.631 354.539 134.129 356.327 132.351 357.683C132.115 357.707 131.878 357.701 131.642 357.678C131.578 357.256 131.515 356.835 131.445 356.414C130.672 355.416 129.686 354.85 129.899 353.038C131.688 337.77 126.385 324.909 116.114 313.818C115.41 313.062 113.494 312.295 115.491 310.864C116.564 311.458 117.672 312.007 118.774 312.555C118.78 312.56 118.786 312.56 118.791 312.566C121.63 314.222 124.354 316.051 126.956 318.036C126.927 318.065 126.904 318.088 126.881 318.111C126.858 318.134 126.835 318.163 126.806 318.192C126.789 318.209 126.783 318.215 126.777 318.227C126.731 318.273 126.697 318.319 126.668 318.365C126.627 318.411 126.593 318.463 126.57 318.51C126.541 318.544 126.523 318.573 126.506 318.608C126.489 318.648 126.466 318.683 126.448 318.723C126.42 318.775 126.402 318.833 126.379 318.89C126.229 319.312 126.298 319.71 126.466 320.079C126.57 320.31 126.714 320.529 126.87 320.743C127.025 320.95 127.193 321.158 127.354 321.354C127.429 321.458 127.51 321.556 127.579 321.648C127.649 321.747 127.712 321.845 127.764 321.937C133.107 331.389 135.219 341.515 134.735 352.311Z" fill="#32ADDF"/>
<path d="M150.73 413.96C148.577 413.655 147.862 415.766 146.985 416.932C136.939 430.359 124.181 440.405 109.138 447.63C97.6147 453.163 85.3761 456.123 72.7163 457.433C71.1295 457.6 69.6234 457.687 68.4867 458.957C68.8329 459.066 69.1791 459.159 69.5253 459.245L76.3803 459.764H76.3861C76.8766 459.747 77.3613 459.712 77.8575 459.678C82.2371 457.3 87.263 457.399 91.9253 456.019C108.047 451.271 122.652 444.04 135.185 432.627C135.548 432.298 135.906 431.952 136.258 431.6C136.864 431 137.458 430.382 138.064 429.771C138.266 429.569 138.468 429.361 138.67 429.165C138.906 428.928 139.149 428.692 139.397 428.467C139.564 428.299 139.743 428.144 139.916 427.988C140.337 427.607 140.776 427.238 141.232 426.891C141.439 426.73 141.653 426.574 141.866 426.424C142.322 426.112 142.796 425.824 143.292 425.57C143.367 425.524 143.448 425.489 143.523 425.455C143.569 425.432 143.621 425.408 143.667 425.38C143.742 425.339 143.823 425.305 143.898 425.27C143.938 425.253 143.973 425.235 144.007 425.224C144.094 425.183 144.175 425.149 144.267 425.114C144.336 425.085 144.405 425.062 144.475 425.033C144.486 425.028 144.492 425.028 144.498 425.022C144.7 424.947 144.913 424.866 145.132 424.797L150.73 413.96Z" fill="#4AC4DE"/>
<path d="M155.334 401.226C154.884 402.945 154.365 404.63 153.805 406.292C153.794 406.298 153.788 406.309 153.776 406.309C153.597 406.425 153.424 406.551 153.263 406.678C153.084 406.811 152.911 406.95 152.749 407.094C152.582 407.238 152.42 407.388 152.264 407.544C152.132 407.665 152.005 407.798 151.878 407.931C151.797 408.017 151.711 408.109 151.63 408.207C151.543 408.294 151.462 408.386 151.382 408.484C151.255 408.634 151.128 408.79 151.007 408.946C150.897 409.085 150.793 409.223 150.689 409.367C150.666 409.396 150.643 409.425 150.62 409.454C150.597 409.494 150.568 409.529 150.545 409.563C150.533 409.575 150.528 409.587 150.522 409.598C150.401 409.771 150.285 409.939 150.164 410.112C145.069 417.821 138.918 424.653 132.063 430.792C125.11 437.024 117.349 442.223 108.872 446.152C94.8739 452.632 80.1944 456.302 64.6437 455.921C62.9357 455.875 61.3374 456.36 59.9237 457.364C58.4119 456.983 56.9058 456.602 55.3941 456.216C54.817 456.071 54.24 455.921 53.6688 455.777C53.6803 455.737 53.6861 455.702 53.7034 455.668C53.7495 455.523 53.7957 455.391 53.8534 455.269C53.8534 455.269 53.8534 455.264 53.8592 455.258C53.8823 455.206 53.9053 455.154 53.9342 455.108C54.1419 454.733 54.4073 454.508 54.7074 454.381C54.7536 454.363 54.7997 454.34 54.8459 454.329C55.1517 454.225 55.4806 454.213 55.8268 454.231C56.1499 454.248 56.4846 454.3 56.8078 454.34C56.8828 454.352 56.9693 454.358 57.0443 454.369C57.2001 454.387 57.3559 454.392 57.5002 454.392H57.5463C65.792 454.288 73.9972 454.346 82.214 452.921C108.572 448.328 129.311 434.843 145.548 413.926C148.248 410.446 150.481 406.69 152.645 402.87C153.47 401.427 153.972 400.897 154.642 400.977C154.676 400.983 154.711 400.989 154.751 400.995C154.798 401.006 154.844 401.018 154.896 401.035C154.948 401.052 155.005 401.076 155.069 401.099C155.092 401.11 155.115 401.116 155.144 401.133C155.207 401.162 155.271 401.191 155.334 401.226Z" fill="#55C7E1"/>
<path d="M1.33294 393.863C-0.126927 388.433 -0.0345997 382.888 0.0750343 377.337C3.28327 376.529 3.06401 380.603 5.38364 381.064C7.30512 381.768 9.50933 382.207 9.9421 384.682C10.6461 388.721 13.9005 389.495 17.0568 390.447C20.3746 391.641 22.8443 393.511 22.6481 397.498C22.5615 397.954 22.4808 398.41 22.3942 398.865C21.9153 399.194 21.4306 399.523 20.9517 399.858C14.7198 396.448 8.1418 393.643 2.78704 389.027C0.905952 390.712 1.74839 392.432 1.33294 393.863Z" fill="#3566AA"/>
<path d="M157.054 393.055C156.621 395.825 156.05 398.554 155.334 401.22C155.271 401.185 155.207 401.156 155.15 401.127C155.121 401.11 155.098 401.104 155.075 401.093C155.017 401.07 154.959 401.047 154.901 401.029C154.85 401.012 154.798 401.001 154.757 400.989C154.717 400.977 154.682 400.972 154.648 400.972C153.978 400.891 153.476 401.422 152.651 402.864C150.487 406.684 148.254 410.441 145.554 413.92C129.316 434.837 108.578 448.322 82.2198 452.915C74.003 454.346 65.8036 454.288 57.5521 454.387H57.506C57.3617 454.387 57.2059 454.375 57.0501 454.363C56.9751 454.352 56.8886 454.346 56.8136 454.335C56.4904 454.294 56.1557 454.242 55.8326 454.225C55.4864 454.208 55.1575 454.219 54.8517 454.323C54.8055 454.34 54.7536 454.358 54.7132 454.375C54.4131 454.508 54.1477 454.733 53.94 455.102C53.9169 455.148 53.8938 455.2 53.865 455.252C53.8592 455.258 53.8592 455.264 53.8592 455.264C53.8015 455.385 53.7496 455.517 53.7092 455.662C53.6919 455.696 53.6861 455.737 53.6746 455.771C53.1956 455.564 52.7167 455.356 52.2378 455.142C50.599 454.427 48.9603 453.706 47.3158 452.99C48.2159 451.611 49.6239 451.894 50.8529 452.078C66.9864 454.588 82.7276 452.909 98.0186 447.399C114.902 441.317 129.212 431.542 140.793 417.653C146.235 411.121 150.314 403.839 154.596 396.615C155.34 395.386 156.223 394.244 157.054 393.055Z" fill="#59C8E3"/>
<path d="M153.799 406.292C152.905 408.911 151.878 411.473 150.724 413.96C148.572 413.655 147.856 415.766 146.979 416.932C136.933 430.359 124.175 440.405 109.132 447.63C97.609 453.163 85.3704 456.123 72.7105 457.433C71.1237 457.6 69.6177 457.687 68.4809 458.956C68.129 458.974 67.7827 458.974 67.4365 458.968C67.425 458.968 67.4192 458.968 67.4077 458.962L61.3663 457.831C61.3547 457.826 61.3432 457.826 61.3316 457.82C60.8585 457.675 60.3853 457.52 59.9237 457.364C61.3316 456.36 62.9357 455.875 64.6437 455.921C80.1887 456.302 94.8739 452.632 108.872 446.152C117.349 442.223 125.104 437.024 132.063 430.792C138.918 424.653 145.069 417.821 150.164 410.112C150.279 409.939 150.395 409.765 150.522 409.598C150.533 409.587 150.539 409.575 150.545 409.563C150.591 409.494 150.643 409.431 150.689 409.362C150.793 409.217 150.891 409.073 151.007 408.94C151.128 408.785 151.255 408.629 151.382 408.479C151.462 408.381 151.543 408.288 151.63 408.202C151.705 408.104 151.797 408.011 151.878 407.925C152.005 407.792 152.132 407.659 152.264 407.538C152.42 407.382 152.588 407.238 152.749 407.088C152.917 406.95 153.084 406.805 153.263 406.673C153.43 406.546 153.597 406.419 153.776 406.303C153.782 406.303 153.794 406.298 153.799 406.292Z" fill="#50C6DF"/>
<path d="M137.92 354.845C137.498 356.98 136.754 359.363 137.799 361.636C136.76 362.225 135.721 362.519 134.665 361.665C134.417 360.874 134.163 360.084 133.909 359.293C133.39 358.751 132.871 358.22 132.346 357.678C134.123 356.322 134.625 354.533 134.729 352.306C135.213 341.515 133.102 331.383 127.753 321.925C127.701 321.833 127.637 321.735 127.568 321.637C127.499 321.545 127.424 321.447 127.343 321.343C127.181 321.141 127.014 320.939 126.858 320.731C126.702 320.518 126.558 320.298 126.454 320.067C126.287 319.698 126.218 319.306 126.368 318.879C126.385 318.821 126.408 318.769 126.437 318.711C126.454 318.671 126.477 318.636 126.495 318.596C126.512 318.561 126.529 318.533 126.558 318.498C126.581 318.452 126.616 318.4 126.656 318.354C126.691 318.307 126.725 318.267 126.766 318.215C126.772 318.204 126.783 318.198 126.795 318.181C126.841 318.129 126.893 318.071 126.945 318.019C129.57 320.027 132.069 322.202 134.417 324.516C134.163 326.622 134.804 328.596 135.381 330.575C137.695 338.521 139.593 346.443 137.92 354.845Z" fill="#35A5DD"/>
<path d="M150.112 346.385C150.008 346.674 149.91 346.962 149.824 347.251C149.731 347.528 149.65 347.805 149.57 348.088C149.564 348.099 149.564 348.105 149.558 348.122C149.466 348.445 149.379 348.768 149.304 349.097C149.195 349.519 149.102 349.946 149.022 350.373C148.97 350.644 148.912 350.921 148.872 351.192C148.802 351.561 148.745 351.931 148.693 352.3C148.646 352.617 148.606 352.935 148.566 353.252C148.525 353.581 148.491 353.915 148.456 354.244C148.439 354.435 148.416 354.631 148.404 354.821C148.387 355.023 148.369 355.214 148.358 355.416C148.329 355.808 148.3 356.206 148.277 356.604C148.243 357.256 148.208 357.914 148.185 358.566C148.173 358.861 148.168 359.166 148.156 359.466C148.098 361.29 148.069 363.119 147.994 364.942C145.011 368.803 144.85 373.5 144.146 378.035C143.707 378.681 143.321 379.379 142.461 379.558C141.33 377.602 141.78 375.063 140.159 373.292C140.141 372.536 140.13 371.78 140.112 371.018C144.884 362.929 145.502 354.048 145.098 344.954C145.046 343.731 144.584 342.433 144.584 341.198C144.584 341.083 144.59 340.967 144.602 340.852C144.602 340.817 144.607 340.777 144.613 340.742V340.719C144.625 340.638 144.63 340.552 144.648 340.477C144.659 340.431 144.665 340.379 144.677 340.338C144.694 340.28 144.705 340.229 144.723 340.171C144.74 340.113 144.757 340.061 144.775 340.004C144.792 339.94 144.821 339.877 144.85 339.807C144.873 339.744 144.902 339.68 144.936 339.617C144.982 339.53 145.029 339.444 145.086 339.351C145.121 339.3 145.156 339.242 145.196 339.19C145.236 339.138 145.271 339.08 145.317 339.028C145.363 338.976 145.404 338.924 145.456 338.873C145.502 338.826 145.554 338.769 145.6 338.723C145.652 338.671 145.709 338.613 145.767 338.573C147.36 341.088 148.808 343.696 150.112 346.385Z" fill="#3992CF"/>
<path d="M1.33294 393.863C1.74839 392.432 0.905952 390.712 2.78704 389.027C8.1418 393.643 14.7198 396.448 20.9575 399.858C20.1381 402.103 19.7342 404.405 20.1035 406.799C19.9015 406.886 19.7111 406.978 19.5207 407.094C19.4284 405.732 19.336 404.37 19.2437 402.951C18.1416 403.32 18.9956 404.93 17.3915 404.982C14.2525 403.21 10.4268 402.362 7.20125 400.071C5.56251 398.906 3.20249 397.654 2.96591 401.52C1.88688 399.079 1.32717 396.529 1.33294 393.863Z" fill="#365CA8"/>
<path d="M145.767 338.578C145.709 338.624 145.658 338.676 145.6 338.728C145.554 338.774 145.502 338.832 145.456 338.878C145.409 338.93 145.363 338.982 145.317 339.034C145.271 339.086 145.236 339.144 145.196 339.196C145.156 339.248 145.121 339.305 145.086 339.357C145.029 339.444 144.977 339.53 144.936 339.623C144.902 339.686 144.873 339.75 144.85 339.813C144.827 339.882 144.798 339.946 144.775 340.009C144.757 340.067 144.734 340.119 144.723 340.177C144.711 340.234 144.694 340.286 144.677 340.344C144.665 340.39 144.659 340.436 144.648 340.482C144.63 340.557 144.625 340.644 144.613 340.725V340.748C144.607 340.782 144.602 340.823 144.602 340.857C144.59 340.967 144.584 341.088 144.584 341.204C144.579 342.433 145.04 343.737 145.098 344.96C145.502 354.054 144.884 362.929 140.112 371.024C139.039 369.662 138.549 368.099 138.543 366.373C137.989 363.765 140.447 362.178 140.776 359.94C141.751 353.292 142.12 346.657 141.191 339.917C140.811 337.182 139.016 334.349 140.684 331.469C142.507 333.737 144.203 336.109 145.767 338.578Z" fill="#3998D4"/>
<path d="M24.2003 327.528C18.8686 336.074 16.3009 345.393 16.2547 355.433C14.8179 355.97 14.1774 357.833 12.3714 357.753C12.2386 352.571 12.2963 347.401 13.4966 342.329C13.8832 340.69 14.4717 339.075 13.2253 337.545C16.4105 332.52 20.1496 327.978 24.7831 324.216C26.266 325.601 24.7946 326.582 24.2003 327.528Z" fill="#BDE5F0"/>
<path d="M140.782 359.94C140.453 362.184 137.995 363.765 138.549 366.373C137.366 364.942 138.006 363.223 137.793 361.642C136.748 359.368 137.493 356.985 137.914 354.85C139.587 346.449 137.689 338.526 135.387 330.592C134.815 328.613 134.169 326.64 134.423 324.534C136.645 326.72 138.739 329.034 140.689 331.475C139.022 334.354 140.816 337.188 141.197 339.923C142.126 346.657 141.757 353.292 140.782 359.94Z" fill="#369FD9"/>
<path d="M2.96591 401.514C3.20249 397.648 5.56828 398.9 7.20125 400.066C10.4268 402.362 14.2525 403.21 17.3915 404.976C18.9956 404.924 18.1416 403.314 19.2437 402.945C19.3418 404.365 19.4283 405.726 19.5207 407.088C19.3764 408.519 19.2264 409.95 19.0821 411.375C18.13 411.872 17.7896 413.482 16.2605 412.928C13.6408 409.477 8.32643 407.382 5.24514 408.583C4.00454 406.384 3.2198 404.036 2.96591 401.514Z" fill="#3454A4"/>
<path d="M13.4966 342.329C12.3021 347.407 12.2444 352.577 12.3714 357.753C11.275 359.022 9.5382 357.078 8.47648 358.526C7.32821 359.351 5.9549 358.601 4.69123 358.601C4.61621 358.601 4.54697 358.607 4.47773 358.612C4.40849 358.618 4.33924 358.624 4.27577 358.635C4.21807 358.641 4.16614 358.653 4.10267 358.67C4.05651 358.682 4.01611 358.687 3.96995 358.705C3.92379 358.722 3.87185 358.739 3.81992 358.762C3.77953 358.78 3.74492 358.791 3.70453 358.814C3.66413 358.832 3.62951 358.849 3.59489 358.866C3.44487 358.953 3.29484 359.068 3.14482 359.212C3.11019 359.241 3.08134 359.27 3.05249 359.305V359.299C3.56027 357.389 4.14306 355.508 4.80664 353.667C4.82395 353.621 4.84126 353.563 4.85857 353.512C5.03167 353.044 5.20477 352.571 5.38942 352.109C5.51059 351.792 5.63754 351.475 5.77025 351.163C5.87989 350.886 6.00106 350.609 6.11647 350.332C6.11647 350.321 6.11646 350.315 6.128 350.303C6.14531 350.246 6.17417 350.194 6.20302 350.13C6.31265 349.865 6.43383 349.594 6.54923 349.328C8.37262 345.208 10.6057 341.279 13.2254 337.528C14.4717 339.074 13.8832 340.69 13.4966 342.329Z" fill="#B4E2EF"/>
<path d="M5.24512 408.588C8.32641 407.382 13.6408 409.477 16.2605 412.933C16.0124 413.014 15.77 413.101 15.5276 413.193C11.7539 414.353 14.7025 418.098 12.9022 420.019C12.4579 420.544 12.0136 421.069 11.5635 421.594C8.83997 417.555 6.43955 413.366 5.24512 408.588Z" fill="#334C9F"/>
<path d="M90.8809 308.758C86.5244 308.192 82.1679 307.633 77.8056 307.073C77.0151 305.971 75.7803 306.507 74.7532 306.271C74.3665 305.463 75.3244 305.376 75.4687 304.863C75.9187 304.494 76.6342 304.292 76.2072 303.132H69.9696C76.5015 302.012 83.0276 301.891 89.548 303.195C88.6882 303.253 87.8285 303.311 86.9629 303.374C87.2861 306.04 90.9213 306.023 90.8809 308.758Z" fill="#B9E4EF"/>
<path d="M153.92 355.699C153.851 355.791 153.782 355.883 153.719 355.97C153.644 356.062 153.574 356.154 153.505 356.247C153.459 356.304 153.413 356.362 153.367 356.42C153.303 356.495 153.245 356.576 153.193 356.651V356.656C153.136 356.731 153.084 356.818 153.043 356.893C153.02 356.933 152.997 356.968 152.974 357.008C152.951 357.049 152.934 357.083 152.922 357.124C152.882 357.21 152.853 357.297 152.836 357.383C152.824 357.412 152.818 357.441 152.818 357.47C152.807 357.528 152.807 357.591 152.813 357.649C153.049 360.286 151.318 361.4 149.518 362.554C149.01 363.344 148.502 364.146 147.994 364.942C148.069 363.119 148.098 361.29 148.156 359.466C148.168 359.166 148.173 358.861 148.185 358.566C148.208 357.908 148.243 357.251 148.277 356.604C148.3 356.212 148.329 355.814 148.358 355.416C148.375 355.214 148.387 355.023 148.404 354.821C148.421 354.625 148.439 354.435 148.456 354.244C148.491 353.915 148.525 353.581 148.566 353.252C148.606 352.935 148.646 352.617 148.693 352.3C148.745 351.931 148.802 351.561 148.872 351.192C148.918 350.921 148.97 350.644 149.022 350.373C149.102 349.951 149.195 349.524 149.304 349.097C149.379 348.774 149.472 348.445 149.558 348.122C149.564 348.105 149.564 348.099 149.57 348.088C149.645 347.805 149.731 347.528 149.824 347.251C149.91 346.957 150.008 346.674 150.112 346.385C151.572 349.392 152.847 352.496 153.92 355.699Z" fill="#398ACA"/>
<path d="M5.38364 381.064C3.06979 380.608 3.28327 376.546 0.0923526 377.337L0.0750427 377.343C0.167366 374.204 0.398175 371.076 1.05021 368.024C1.34449 366.639 1.71954 365.266 2.21578 363.91C2.16962 366.114 2.05999 368.341 4.58156 369.437C4.74889 372.155 5.66635 374.723 6.92425 377.031C8.19369 379.333 7.05699 380.17 5.38364 381.064Z" fill="#A4DCEE"/>
<path d="M9.25544 361.648C8.99001 362.161 8.73035 362.686 8.46492 363.2C6.24916 363.061 5.26245 364.106 5.33746 366.322C5.37208 367.401 5.66059 368.607 4.58156 369.437C2.05998 368.341 2.16385 366.114 2.21578 363.91C1.71954 365.266 1.33872 366.639 1.05021 368.024C1.85804 363.073 3.1217 358.272 4.81237 353.679C4.1488 355.52 3.56025 357.401 3.05824 359.311V359.316C3.08709 359.282 3.11595 359.253 3.15057 359.224C3.29482 359.08 3.44485 358.964 3.60064 358.878C3.64103 358.861 3.67566 358.838 3.71028 358.826C3.75067 358.803 3.78528 358.78 3.82567 358.774C3.8776 358.751 3.92954 358.728 3.9757 358.716C4.02186 358.699 4.06224 358.693 4.10841 358.682C4.16611 358.664 4.21805 358.653 4.28152 358.647C4.35077 358.63 4.42001 358.63 4.48348 358.624C4.5585 358.618 4.62197 358.612 4.69698 358.612C5.96065 358.607 7.33396 359.363 8.48223 358.537C9.61897 359.351 9.14581 360.569 9.25544 361.648Z" fill="#A6DDEE"/>
<path d="M3.05823 359.305C3.08708 359.27 3.11593 359.241 3.15055 359.218C3.11593 359.247 3.08708 359.276 3.05823 359.305Z" fill="#9EDBEF"/>
<path d="M75.4628 304.863C74.0895 304.234 72.6989 304.794 71.3198 304.771C70.1485 304.747 68.5732 305.249 68.4347 303.213C68.9425 303.184 69.4503 303.161 69.9638 303.132H76.2014C76.6284 304.292 75.9129 304.494 75.4628 304.863Z" fill="#7BBACB"/>
<path d="M146.362 402.155C148.912 395.467 152.715 389.31 154.728 382.397C154.965 381.578 155.628 381.186 156.471 381.122C153.863 386.996 152.062 393.216 148.802 398.808C148.11 400.008 147.844 401.526 146.362 402.155Z" fill="#69CCE8"/>
<path d="M112.865 435.651C117.366 432.038 121.959 428.548 126.887 425.524C123.056 430.065 118.318 433.354 112.865 435.651Z" fill="#69CCE8"/>
<path d="M136.235 416.176C139.258 411.248 142.749 406.655 146.362 402.155C144.065 407.607 140.776 412.345 136.235 416.176Z" fill="#69CCE8"/>
<path d="M126.887 425.524C129.686 422.091 132.801 418.975 136.235 416.176C134.048 420.221 130.932 423.337 126.887 425.524Z" fill="#69CCE8"/>
<path d="M152.611 364.735C154.446 367.025 153.759 370.32 155.727 372.559C153.499 371.249 152.986 372.888 152.668 374.469C151.607 379.685 149.968 384.734 147.816 389.57C143.805 398.577 139.178 407.227 131.561 413.839C131.976 411.26 132.628 408.698 132.351 406.049C133.84 407.111 134.59 406.217 135.363 405.022C137.17 402.229 139.391 399.65 140.816 396.684C143.401 391.301 147.7 386.286 145.588 379.564C146.812 379.27 146.823 380.868 147.481 381.018C150.343 375.842 149.824 369.801 152.611 364.735Z" fill="#79D0ED"/>
<path d="M131.555 413.839C139.172 407.221 143.799 398.577 147.81 389.57C149.962 384.734 151.607 379.685 152.663 374.469C152.986 372.888 153.493 371.249 155.721 372.559C155.738 374.625 155.761 376.685 155.778 378.751C153.511 379.674 153.251 381.872 152.611 383.799C148.375 396.621 141.624 407.936 132.334 417.734C131.976 416.459 129.674 415.57 131.555 413.839Z" fill="#6FCDEB"/>
<path d="M152.611 364.735C149.824 369.801 150.343 375.842 147.481 381.018C146.823 380.868 146.812 379.27 145.588 379.564C145.109 379.056 144.63 378.549 144.152 378.041C144.85 373.505 145.017 368.814 147.994 364.948C148.502 364.152 149.01 363.356 149.518 362.559C151.249 362.288 152.391 362.859 152.611 364.735Z" fill="#7DD1EE"/>
<path d="M63.0108 397.481C58.1061 399.65 53.588 397.521 49.2719 395.813C33.4269 389.547 23.5655 377.689 21.2055 361.036C18.6839 343.218 24.9331 328.227 39.9645 317.505C41.0955 316.698 42.238 316.248 42.3476 314.372C42.4457 312.699 44.7538 311.787 45.8963 312.156C49.67 313.38 52.6648 310.945 56.0577 310.599C59.4852 310.252 62.9819 309.248 66.1209 311.649C64.4591 311.799 63.0743 312.664 61.6259 313.374C58.9832 314.384 55.8557 314.09 53.6746 316.334C52.8898 316.323 52.1051 316.311 51.3203 316.299C49.5258 314.995 47.887 315.861 46.2425 316.652C27.9798 325.434 18.9551 346.489 24.5061 365.427C29.3473 381.941 40.4781 392.137 57.4425 395.784C59.3236 396.205 61.7471 394.971 63.0108 397.481Z" fill="#CCEAF1"/>
<path d="M17.0395 360.857C18.2166 365.612 19.4283 370.361 21.6672 374.752C29.4454 390.014 41.6206 399.437 58.6773 401.941C61.0316 402.287 64.3437 403.937 66.2075 400.423C66.3979 400.562 66.5998 400.683 66.8076 400.787C67.1019 402.535 67.3961 404.284 67.6904 406.032C66.219 406.274 64.7188 406.84 63.282 406.701C48.7583 405.351 35.9715 400.152 26.1679 389.004C19.486 381.411 14.7775 372.778 13.9351 362.427C15.2853 362.525 15.9662 361.307 17.0395 360.857Z" fill="#BEE5F0"/>
<path d="M63.0108 397.481C61.7471 394.971 59.3236 396.2 57.4367 395.796C40.4723 392.149 29.3416 381.953 24.5004 365.439C18.9494 346.501 27.974 325.44 46.2368 316.663C47.8813 315.872 49.5258 315.007 51.3146 316.311C49.2027 317.217 50.8241 318.55 50.9222 319.71C49.7797 319.675 48.6372 319.64 47.4947 319.606C43.6402 320.223 40.6166 322.283 37.8007 324.88C30.0052 332.058 25.7814 341.106 25.0082 351.44C24.4484 358.947 25.2043 366.558 30.588 372.859C31.3381 371.924 30.813 370.77 31.7305 370.205C33.0749 376.616 36.2947 381.739 41.9783 385.173C43.8248 387.787 46.4041 389.287 49.3238 390.516C53.2937 392.184 57.431 392.83 61.6201 393.372C62.3068 394.267 62.9992 395.167 63.6859 396.061C63.7032 396.286 63.732 396.505 63.7667 396.725C63.5185 396.984 63.2647 397.233 63.0108 397.481Z" fill="#CDEBF1"/>
<path d="M63.7782 396.736C63.7436 396.517 63.7205 396.292 63.6974 396.073C65.2266 395.323 66.6287 396.055 68.0597 396.454C76.4323 398.773 84.8511 399.016 93.2121 396.575C97.5051 395.323 101.665 393.615 105.883 392.114C105.878 392.345 105.855 392.57 105.814 392.795C103.131 394.082 102.837 397.094 101.227 399.154C100.396 398.179 99.4785 398.952 98.763 399.212C89.8481 402.437 80.7657 402.876 71.4238 401.583C69.8831 401.37 68.4925 399.922 66.7961 400.799C66.5883 400.695 66.3864 400.574 66.1959 400.435C66.2767 398.612 65.1457 397.596 63.7782 396.736Z" fill="#3D8FCD"/>
<path d="M61.6201 313.38C63.0684 312.67 64.4533 311.804 66.1151 311.654C69.7446 309.45 73.5818 307.771 77.8056 307.073C82.1679 307.633 86.5244 308.198 90.8809 308.764C90.9559 309.219 91.0309 309.67 91.1059 310.125C90.829 310.42 90.552 310.72 90.2692 311.014C86.3859 313.218 82.1563 314.332 77.7652 314.926C74.6031 314.361 76.8131 312.468 77.1651 310.691C75.3475 311.539 73.9799 312.18 72.6239 312.814C73.726 316.351 71.8103 318.267 67.5692 318.077C67.5808 316.213 67.4019 314.626 64.8399 315.838C62.2606 317.055 61.8105 315.365 61.6201 313.38Z" fill="#3DC4EA"/>
<path d="M17.0395 360.857C15.9662 361.307 15.2795 362.525 13.9293 362.432C12.279 362.692 10.8134 361.907 9.24967 361.642C9.14003 360.569 9.6132 359.345 8.4707 358.526C9.53242 357.078 11.2693 359.022 12.3656 357.753C14.1717 357.834 14.8122 355.97 16.2489 355.433C16.5144 357.245 16.7798 359.051 17.0395 360.857Z" fill="#A6DDEE"/>
<path d="M76.2476 437.336C75.5725 437.012 74.8974 436.689 74.2223 436.372C74.3665 434.093 72.9124 432.304 72.3239 430.25C73.9165 428.986 75.5437 428.68 77.644 429.142C79.7213 429.598 82.0871 429.684 84.124 429.153C86.4898 428.536 88.3651 428.859 90.252 430.169C88.4459 432.085 87.136 434.52 84.5164 435.564C81.9602 437.064 78.8212 435.893 76.2476 437.336Z" fill="#3463AE"/>
<path d="M84.5163 435.553C87.136 434.508 88.4516 432.073 90.2519 430.157C91.4637 429.863 91.9022 429.038 91.8214 427.861C93.1024 429.632 94.5853 429.598 96.4664 428.709C99.0746 427.474 101.411 425.512 104.504 425.46C104.954 425.801 105.399 426.141 105.849 426.482C106.726 427.803 105.791 428.271 104.81 428.801C98.4456 432.252 92.0291 435.541 84.5163 435.553Z" fill="#83D3EF"/>
<path d="M131.555 413.839C129.668 415.57 131.976 416.459 132.34 417.734C131.78 418.652 130.857 418.49 129.997 418.519C129.478 418.265 128.953 418.005 128.433 417.751C127.222 417.03 126.183 415.859 124.544 416.199C124.025 415.674 123.506 415.149 122.992 414.624C122.981 414.376 122.975 414.122 122.975 413.874C124.775 409.783 128.445 407.4 131.549 404.503C131.815 405.017 132.08 405.536 132.351 406.049C132.628 408.704 131.971 411.26 131.555 413.839Z" fill="#55C9F3"/>
<path d="M122.975 413.868C122.981 414.116 122.986 414.37 122.992 414.618C120.788 417.988 117.395 420.059 114.262 422.362C113.344 423.037 111.965 424.883 110.39 422.933C110.494 421.692 110.482 420.423 111.365 419.396C112.86 417.509 112.75 414.843 114.464 413.06C115.641 412.281 116.962 412.212 118.313 412.264C119.697 413.308 121.14 414.162 122.975 413.868Z" fill="#84D3EE"/>
<path d="M111.371 419.396C110.488 420.423 110.5 421.693 110.396 422.933C109.334 424.699 108.359 426.568 105.849 426.476C105.399 426.136 104.954 425.795 104.504 425.455C105.214 424.128 104.401 422.893 104.262 421.617C104.77 420.769 105.335 419.996 106.466 419.996C108.047 419.361 109.294 415.986 111.371 419.396Z" fill="#517386"/>
<path d="M125.375 351.631C125.358 352.975 125.127 354.089 124.215 354.954C124.094 355.081 123.95 355.202 123.788 355.312L123.783 355.318C122.444 355.468 121.682 354.389 120.661 353.852C120.673 353.592 120.673 353.339 120.655 353.073C119.744 352.161 119.368 351.065 118.953 349.807C117.857 346.518 118.838 343.114 117.943 339.859C114.314 326.617 106.235 317.552 93.114 313.109C92.0292 312.745 90.3673 312.843 90.2808 311.002C90.5578 310.708 90.8347 310.408 91.1117 310.114H91.1175C95.7394 309.069 100.379 308.314 105.139 308.625C104.135 309.179 103.073 309.594 101.729 309.491C113.766 317.2 122.352 326.894 124.579 341.221C125.11 344.683 125.404 348.128 125.375 351.631Z" fill="#37C0E9"/>
<path d="M120.661 353.852C121.677 354.389 122.444 355.468 123.783 355.312C126.172 356.829 128.947 355.681 131.445 356.408C131.509 356.829 131.572 357.251 131.636 357.672C129.501 358.895 132.236 362.929 128.451 363.2C128.895 366.027 128.751 368.555 125.318 369.432C124.417 368.768 124.683 367.966 124.914 367.054C125.439 364.983 125.895 362.877 124.631 360.869C124.867 357.383 120.626 357.28 119.865 354.55C120.13 354.325 120.396 354.089 120.661 353.852Z" fill="#A7DDEE"/>
<path d="M72.3297 430.244C72.9124 432.298 74.3665 434.087 74.2281 436.366C72.2431 435.645 70.3043 435.812 68.1924 436.031C61.3893 436.735 54.6324 435.702 47.9793 434.346C36.9986 432.108 26.9181 427.67 17.8069 421.115C16.2835 420.019 14.8583 419.004 12.908 420.013C14.7025 418.092 11.7597 414.347 15.5334 413.187C28.0836 424.549 43.2131 429.886 59.7217 431.594C63.6455 432.004 68.0078 432.973 71.6488 430.025C71.8738 430.1 72.0988 430.175 72.3297 430.244Z" fill="#89D4EE"/>
<path d="M128.451 363.206C132.242 362.934 129.501 358.901 131.636 357.678C131.872 357.706 132.109 357.706 132.346 357.683C132.865 358.22 133.39 358.757 133.909 359.299C133.078 359.841 132.94 360.695 132.68 361.59C132.017 363.863 130.661 364.763 128.451 363.206Z" fill="#7DD1EB"/>
<path d="M68.5444 409.188C67.9443 410.221 67.3557 411.248 66.7614 412.27C65.8901 410.925 64.6322 410.706 63.0973 410.689C52.3647 410.591 42.6592 407.267 33.7212 401.37C30.5648 399.287 27.749 396.754 25.2043 394.647C23.1847 395.201 25.4871 398.115 22.6539 397.492C22.8501 393.511 20.3804 391.641 17.0625 390.447C17.6684 390.02 18.2858 389.593 18.9379 389.131C13.71 381.191 9.29007 372.911 8.4707 363.194C8.73613 362.68 8.99579 362.155 9.26122 361.642C10.8249 361.907 12.2906 362.686 13.9409 362.432C14.7833 372.778 19.4918 381.411 26.1737 389.004C35.9773 400.152 48.7699 405.351 63.2877 406.701C64.7245 406.834 66.2248 406.269 67.6962 406.032C67.9097 406.107 68.1232 406.182 68.3367 406.24C68.4002 407.227 68.4694 408.207 68.5444 409.188Z" fill="#B4E2EF"/>
<path d="M22.6481 397.498C25.4813 398.121 23.179 395.201 25.1985 394.653C27.7432 396.759 30.5591 399.292 33.7154 401.375C42.6534 407.267 52.3589 410.591 63.0915 410.694C64.6206 410.706 65.8785 410.937 66.7556 412.275C66.8075 412.541 66.8537 412.801 66.9056 413.066C66.594 413.839 66.2825 414.618 65.9709 415.391C65.6535 415.928 65.3304 416.459 65.5612 416.078C48.9429 415.357 34.5578 409.731 22.3942 398.871C22.4807 398.41 22.5673 397.954 22.6481 397.498Z" fill="#AFE0EF"/>
<path d="M22.4 398.865C34.5636 409.725 48.9487 415.357 65.5669 416.072C65.3361 416.453 65.6593 415.922 65.9766 415.386C66.0459 416.395 66.1209 417.399 66.1901 418.409C64.9034 419.65 63.2358 420.227 61.5913 419.996C54.2054 418.969 46.8888 417.786 39.8895 414.837C33.0806 411.964 27.1143 407.896 21.2344 403.268C20.7035 404.636 21.3383 406.003 20.2246 406.834L20.1034 406.794C19.7341 404.399 20.1381 402.103 20.9574 399.852C21.4364 399.529 21.9153 399.194 22.4 398.865Z" fill="#A5DDEF"/>
<path d="M18.9321 389.131C18.2743 389.593 17.6626 390.02 17.0568 390.447C13.9005 389.495 10.6403 388.721 9.9363 384.676C9.5093 382.195 7.29932 381.763 5.38361 381.059C7.05697 380.164 8.18792 379.327 6.92425 377.019C5.66634 374.717 4.74311 372.144 4.58154 369.426C5.66634 368.595 5.37206 367.389 5.33744 366.31C5.26243 364.094 6.24914 363.05 8.4649 363.188C9.28427 372.917 13.7042 381.191 18.9321 389.131Z" fill="#AADFEF"/>
<path d="M128.451 363.206C130.661 364.763 132.017 363.863 132.68 361.59C132.94 360.695 133.078 359.841 133.909 359.299C134.163 360.09 134.411 360.88 134.665 361.676C133.298 365.202 133.915 369.299 131.555 372.542C131.036 374.105 131.544 376.01 129.986 377.227C129.478 377.487 128.97 377.746 128.462 378.006C127.02 376.939 125.41 376.916 123.742 377.239C124.112 374.607 125.82 372.247 125.318 369.443C128.751 368.56 128.895 366.027 128.451 363.206Z" fill="#A1DCEF"/>
<path d="M131.555 372.536C133.915 369.293 133.298 365.202 134.665 361.671C135.715 362.519 136.76 362.23 137.793 361.642C138.006 363.223 137.366 364.942 138.549 366.373C138.56 368.099 139.045 369.662 140.118 371.024C140.13 371.78 140.147 372.536 140.159 373.292C139.108 374.607 138.058 375.923 137.008 377.239C134.198 376.829 134.608 372.669 131.555 372.536Z" fill="#95D8EE"/>
<path d="M132.351 406.049C132.086 405.536 131.821 405.017 131.549 404.503C131.295 403.978 131.036 403.459 130.782 402.934C134.769 399.419 136.956 394.849 139.074 389.702C136.939 389.702 135.415 389.702 133.886 389.702C132.755 389.702 131.619 389.708 131.555 388.133V388.127C133.113 387.873 134.584 387.071 136.229 387.342C137.625 390.597 140.343 388.046 140.464 387.417C140.984 384.752 143.592 382.588 142.467 379.564C143.321 379.385 143.713 378.687 144.152 378.041C144.63 378.549 145.109 379.056 145.588 379.564C147.7 386.292 143.401 391.301 140.816 396.684C139.391 399.65 137.164 402.229 135.363 405.022C134.59 406.217 133.84 407.111 132.351 406.049Z" fill="#80D2EE"/>
<path d="M142.472 379.564C143.598 382.588 140.989 384.752 140.47 387.417C140.349 388.052 137.631 390.603 136.235 387.342C135.571 386.408 137.747 384.757 135.45 384.232C137.296 383.217 138.733 381.872 139.08 379.57C138.779 378.514 136.794 378.808 137.014 377.233C138.064 375.917 139.114 374.602 140.164 373.286C141.786 375.069 141.336 377.608 142.472 379.564Z" fill="#89D4EE"/>
<path d="M19.0821 411.381C19.2264 409.95 19.3764 408.519 19.5207 407.094C19.7053 406.984 19.9015 406.886 20.1035 406.799L20.2246 406.84C19.8669 409.823 22.6135 408.034 23.7733 409.05C30.7783 415.172 39.2086 418.842 48.1236 421.104C54.7536 422.783 61.5509 424.52 68.4867 422.327C68.9887 423.152 69.4907 423.983 69.9927 424.808C70.0216 425.784 70.0504 426.765 70.0793 427.74C68.0712 426.995 65.9766 427.013 63.8878 427.093C59.2255 427.278 54.667 426.695 50.0855 425.784C38.5566 423.493 28.5453 418.057 19.0821 411.381Z" fill="#98D9EE"/>
<path d="M19.0821 411.381C28.5453 418.057 38.5566 423.493 50.0855 425.784C54.667 426.695 59.2255 427.272 63.8878 427.093C65.9824 427.013 68.0712 426.995 70.0793 427.74C70.5986 428.507 71.1237 429.269 71.643 430.036C68.002 432.985 63.6455 432.015 59.716 431.606C43.2074 429.892 28.0778 424.56 15.5276 413.199C15.77 413.106 16.0123 413.02 16.2604 412.939C17.7896 413.481 18.13 411.872 19.0821 411.381Z" fill="#91D7EE"/>
<path d="M61.6201 313.38C61.8048 315.365 62.2606 317.055 64.8457 315.832C67.4076 314.62 67.5865 316.207 67.575 318.071C66.9807 318.457 66.9229 319.052 66.9345 319.681C66.8537 319.779 66.7845 319.912 66.6806 319.964C66.5825 320.015 66.4267 320.01 66.3228 319.969C64.5398 319.346 66.7498 317.679 65.2553 316.6C63.6801 320.419 60.2064 321.464 56.8366 322.676C55.7806 320.564 54.7247 318.457 53.6745 316.346C55.8557 314.095 58.9774 314.39 61.6201 313.38Z" fill="#D3EDF3"/>
<path d="M53.6688 316.34C54.7247 318.452 55.7807 320.558 56.8308 322.67C56.2942 322.889 55.7518 323.103 55.2152 323.322C53.5822 323.506 51.9493 323.697 50.449 323.87C49.947 322.179 52.4282 321.573 51.3145 319.964C51.1818 319.883 51.0549 319.796 50.9279 319.704C50.8241 318.544 49.2084 317.211 51.3145 316.305C52.105 316.317 52.8898 316.328 53.6688 316.34Z" fill="#3EC5EB"/>
<path d="M68.3309 406.246C68.1116 406.188 67.8981 406.113 67.6904 406.032C67.3961 404.284 67.1019 402.535 66.8076 400.787C68.4982 399.91 69.8946 401.358 71.4353 401.572C80.7773 402.864 89.8596 402.426 98.7745 399.2C99.4901 398.941 100.408 398.173 101.238 399.142C101.204 399.893 101.175 400.643 101.14 401.393C100.373 402.951 99.1958 403.926 97.4647 404.359C92.485 405.599 87.4765 406.505 82.3352 406.898C77.6036 407.255 73.0452 405.322 68.3309 406.246Z" fill="#3C88C8"/>
<path d="M31.7362 370.211C30.8187 370.776 31.3438 371.924 30.5937 372.865C25.2101 366.558 24.4542 358.953 25.0139 351.446C25.7871 341.111 30.0167 332.064 37.8064 324.886C40.6223 322.295 43.6517 320.229 47.5004 319.612C46.7676 320.783 45.7578 321.833 45.9136 323.38C45.4116 324.597 44.5749 325.48 43.542 326.34C37.0102 331.781 32.1805 338.434 30.7379 346.945C29.9878 351.365 27.2412 356.339 32.469 360.09C32.5267 362.946 32.5902 365.802 32.6479 368.653C32.3478 369.166 32.042 369.686 31.7362 370.211Z" fill="#D4EDF3"/>
<path d="M105.889 392.109C101.671 393.609 97.5108 395.317 93.2178 396.569C84.8568 399.01 76.438 398.767 68.0655 396.448C66.6287 396.05 65.2323 395.317 63.7032 396.067C63.0165 395.173 62.3241 394.272 61.6374 393.378C62.1279 391.889 62.6241 390.406 63.1204 388.918C63.3454 388.918 63.5704 388.918 63.7955 388.912C63.7435 390.481 64.1648 391.497 65.9362 392.051C80.4195 396.621 93.991 394.751 106.726 386.535C109.063 385.029 111.44 383.586 113.794 382.12C112.433 386.46 108.734 388.947 105.889 392.109Z" fill="#4195D1"/>
<path d="M63.1088 388.918C62.6126 390.406 62.1222 391.895 61.6259 393.378C57.431 392.836 53.2937 392.189 49.3296 390.522C46.4041 389.293 43.8248 387.792 41.9841 385.179C42.5034 384.855 43.0227 384.527 43.5478 384.203C45.8443 383.667 48.4121 385.496 50.5298 383.401C52.3416 383.136 53.8707 381.803 55.8095 382.022C57.0386 382.772 57.4598 384.088 57.9676 385.415C61.2451 384.457 63.4608 384.936 63.1088 388.918Z" fill="#D6EEF4"/>
<path d="M43.5478 384.203C43.0285 384.527 42.5092 384.855 41.9841 385.179C36.3004 381.74 33.0806 376.621 31.7362 370.211C32.042 369.691 32.3478 369.166 32.6479 368.647C34.2693 367.1 32.7402 364.896 33.5422 363.546C36.6293 370.591 40.3107 377.446 45.6828 383.349C45.2327 383.736 44.044 383.205 43.5478 384.203Z" fill="#3D8FCD"/>
<path d="M45.9194 323.374C45.7636 321.827 46.7734 320.777 47.5062 319.606C48.6487 319.64 49.7854 319.675 50.9337 319.71C51.0606 319.802 51.1876 319.883 51.3203 319.969C49.5892 321.221 48.4006 323.316 45.9194 323.374Z" fill="#5296B0"/>
<path d="M105.889 392.109C108.734 388.947 112.433 386.465 113.789 382.126C115.877 380.107 116.033 377.504 115.999 374.838C115.981 374.596 115.976 374.354 115.97 374.111C116.414 374.665 116.853 375.219 117.337 375.825C118.139 373.996 119.016 372.276 119.657 370.47C120.292 368.658 119.461 367.764 117.557 367.879C121.336 366.979 122.502 363.436 124.637 360.874C125.895 362.882 125.439 364.989 124.919 367.06C124.689 367.972 124.423 368.768 125.323 369.437C125.825 372.242 124.117 374.608 123.748 377.233C123.777 377.481 123.794 377.729 123.806 377.977C121.457 382.155 119.109 386.333 116.76 390.51C114.925 390.141 113.16 389.097 110.938 390.089C111.792 391.912 111.025 393.28 109.323 394.07C107.834 394.763 106.576 394.359 105.832 392.789C105.86 392.564 105.883 392.334 105.889 392.109Z" fill="#ABDFEF"/>
<path d="M105.82 392.789C106.564 394.359 107.828 394.763 109.311 394.07C111.007 393.28 111.781 391.912 110.927 390.089C113.142 389.102 114.914 390.141 116.749 390.51C117.649 391.433 117.055 393.511 119.091 393.563C117.539 394.988 115.243 393.384 113.483 395.478C110.24 399.339 106.287 402.605 102.629 406.119C101.262 404.82 101.175 403.118 101.135 401.399C101.169 400.648 101.198 399.898 101.233 399.148C102.848 397.088 103.137 394.07 105.82 392.789Z" fill="#79D0ED"/>
<path d="M90.275 311.008C90.3616 312.849 92.0292 312.751 93.114 313.114C106.235 317.557 114.32 326.622 117.949 339.865C118.838 343.119 117.857 346.524 118.959 349.813C119.38 351.065 119.749 352.161 120.667 353.079C118.082 354.008 116.287 352.808 114.481 351.082C113.385 350.038 113.015 348.284 111.325 347.839C113.114 346.114 113.154 344.02 112.635 341.792C109.628 329.011 101.573 321.291 89.0056 317.909C85.2953 316.911 81.4754 317.205 77.7652 316.432C77.771 315.924 77.7767 315.422 77.7825 314.915C82.1621 314.326 86.3859 313.218 90.275 311.008Z" fill="#41C5EB"/>
<path d="M77.771 314.92C77.7652 315.428 77.7594 315.93 77.7536 316.438C76.9804 316.553 75.8206 316.063 76.0745 317.679C76.2534 318.815 75.3879 319.508 74.4819 319.271C72.3931 318.723 70.512 320.033 68.4924 319.664C67.9731 319.669 67.4538 319.675 66.9403 319.681C66.9229 319.052 66.9864 318.458 67.5807 318.071C71.8276 318.256 73.7433 316.34 72.6355 312.809C73.9857 312.174 75.359 311.533 77.1766 310.685C76.8189 312.462 74.6089 314.355 77.771 314.92Z" fill="#CBEAF1"/>
<path d="M71.643 430.03C71.1237 429.269 70.5986 428.501 70.0793 427.734C70.0504 426.759 70.0216 425.778 69.9985 424.803C70.1658 424.503 70.4024 423.914 70.4832 423.937C75.0243 425.091 79.577 425.189 84.2624 424.901C86.9744 424.733 90.1884 423.383 92.5658 426.176C92.0407 426.62 91.6252 427.111 91.8272 427.872C91.908 429.049 91.4694 429.875 90.2577 430.169C88.3766 428.859 86.4955 428.542 84.1297 429.153C82.0928 429.684 79.7271 429.603 77.6498 429.142C75.5494 428.68 73.9165 428.986 72.3296 430.25C72.0988 430.175 71.8738 430.1 71.643 430.03Z" fill="#3568B1"/>
<path d="M91.8214 427.861C91.6195 427.099 92.035 426.609 92.5601 426.164C94.0892 426.026 94.9431 425.016 95.6356 423.793C98.7457 424.012 101.013 420.862 104.262 421.617C104.401 422.893 105.214 424.128 104.504 425.455C101.417 425.507 99.0746 427.468 96.4665 428.703C94.5854 429.598 93.1024 429.632 91.8214 427.861Z" fill="#89D4EE"/>
<path d="M130.782 402.934C131.036 403.459 131.295 403.978 131.549 404.503C128.445 407.4 124.775 409.777 122.975 413.874C121.14 414.168 119.697 413.314 118.318 412.27C117.984 411.266 116.137 411.854 116.322 409.887C119.905 407.365 122 403.089 125.289 399.829C125.646 400.447 126.235 400.591 126.881 400.602C128.18 401.381 129.484 402.155 130.782 402.934Z" fill="#60CBF1"/>
<path d="M125.283 399.829C121.994 403.083 119.899 407.359 116.316 409.887C116.131 411.854 117.978 411.266 118.313 412.27C116.962 412.218 115.641 412.287 114.464 413.066C114.481 411.491 114.747 409.823 112.646 408.588C111.988 411.548 110.026 413.118 107.747 414.33C106.31 415.091 105.843 416.268 105.843 417.769C103.87 417.307 101.821 416.955 101.175 414.56C101.839 413.649 102.006 412.593 102.058 411.502C104.227 411.687 105.56 410.089 107.113 409.033C112.658 405.265 117.187 400.314 122.202 395.934C122.75 396.84 123.667 396.69 124.51 396.736C124.775 397.763 125.029 398.796 125.283 399.829Z" fill="#68CCF0"/>
<path d="M105.849 417.763C105.849 416.268 106.316 415.086 107.753 414.324C110.026 413.112 111.988 411.543 112.652 408.583C114.746 409.817 114.481 411.491 114.47 413.06C112.762 414.837 112.871 417.509 111.377 419.396C109.299 415.986 108.053 419.361 106.472 419.996C106.709 419.13 106.31 418.438 105.849 417.763Z" fill="#4F788E"/>
<path d="M105.849 417.763C106.31 418.438 106.709 419.13 106.466 420.002C105.335 420.002 104.77 420.775 104.262 421.623C101.013 420.867 98.7515 424.012 95.6413 423.799C95.9991 422.096 94.3719 420.96 94.3661 419.356C97.3032 418.698 98.3245 415.328 101.181 414.555C101.827 416.944 103.875 417.301 105.849 417.763Z" fill="#91D7EE"/>
<path d="M111.313 347.839C113.004 348.284 113.373 350.038 114.47 351.082C116.276 352.808 118.07 354.008 120.655 353.079C120.667 353.339 120.667 353.598 120.661 353.852C120.396 354.089 120.13 354.319 119.865 354.556C118.757 356.224 117.378 357.331 115.208 356.801C114.631 356.102 114.06 355.404 113.483 354.706C113.189 353.304 112.421 352.179 111.417 351.204C110.292 350.101 110.54 348.982 111.313 347.839Z" fill="#B8E3EF"/>
<path d="M115.208 356.801C117.378 357.331 118.757 356.224 119.865 354.556C120.626 357.285 124.867 357.389 124.631 360.874C122.496 363.436 121.33 366.979 117.551 367.879C116.645 369.305 115.214 369.911 113.673 370.338C113.356 370.528 113.044 370.724 112.727 370.915C110.857 367.706 114.446 366.195 115.006 363.719C115.525 361.388 117.966 359.207 115.208 356.801Z" fill="#36C2EA"/>
<path d="M66.9114 413.066C66.8595 412.801 66.8133 412.541 66.7614 412.275C67.3557 411.248 67.9501 410.221 68.5444 409.194C69.8946 410.279 71.3833 410.671 73.1606 410.798C78.1576 411.15 83.1142 411.647 88.1285 410.769C93.0851 409.904 98.0879 409.344 102.589 406.846C102.894 408.248 102.762 409.563 101.85 410.735C100.99 411.531 100.938 412.812 99.2419 413.164C91.5329 414.78 83.7893 416.032 75.9303 415.299C72.9009 415.016 69.4619 415.582 66.9114 413.066Z" fill="#397BBE"/>
<path d="M102.589 406.84C98.0879 409.339 93.0851 409.898 88.1285 410.764C83.1142 411.641 78.1576 411.145 73.1606 410.793C71.3776 410.666 69.8946 410.273 68.5444 409.188C68.4752 408.207 68.4059 407.221 68.3367 406.24C73.0509 405.317 77.6094 407.255 82.341 406.898C87.4822 406.505 92.4907 405.599 97.4704 404.359C99.2015 403.926 100.379 402.951 101.146 401.393C101.186 403.112 101.273 404.815 102.641 406.113C102.669 406.361 102.652 406.603 102.589 406.84Z" fill="#3B81C3"/>
<path d="M66.9114 413.066C69.4677 415.582 72.9009 415.016 75.9303 415.299C83.7893 416.032 91.5329 414.78 99.2419 413.164C100.944 412.806 100.996 411.531 101.85 410.735C101.919 410.989 101.989 411.248 102.064 411.502C102.006 412.593 101.839 413.649 101.175 414.56C98.3187 415.334 97.2974 418.703 94.3603 419.361C88.3131 419.656 82.289 420.359 76.2072 420.111C73.3567 419.996 70.4716 418.317 67.6269 420.163C67.148 419.58 66.669 418.998 66.1843 418.421C66.1151 417.411 66.0401 416.407 65.9709 415.397C66.2882 414.612 66.5999 413.839 66.9114 413.066Z" fill="#3876BB"/>
<path d="M66.1902 418.415C66.6691 418.998 67.148 419.58 67.6327 420.158C67.9212 420.879 68.204 421.6 68.4925 422.321C61.5567 424.514 54.7594 422.783 48.1294 421.098C39.2144 418.836 30.7841 415.166 23.7791 409.044C22.6135 408.029 19.8726 409.817 20.2304 406.834C21.344 406.003 20.7093 404.636 21.2402 403.268C27.12 407.896 33.0864 411.964 39.8953 414.837C46.8946 417.792 54.2112 418.969 61.5971 419.996C63.2416 420.227 64.9034 419.65 66.1902 418.415Z" fill="#9FDBEF"/>
<path d="M124.516 396.73C123.667 396.684 122.756 396.834 122.207 395.928C121.954 395.149 121.7 394.365 121.446 393.586C123.263 390.729 125.081 387.867 126.899 385.011C130.251 383.309 128.959 380.568 128.462 378.006C128.97 377.746 129.478 377.487 129.986 377.227C130.961 379.506 129.72 382.524 132.34 384.25C131.601 385.45 131.48 386.771 131.561 388.133V388.139C127.931 389.95 127.718 394.567 124.516 396.73Z" fill="#98D9EE"/>
<path d="M132.34 384.244C129.72 382.518 130.961 379.501 129.986 377.221C131.544 376.01 131.042 374.1 131.555 372.536C134.608 372.669 134.198 376.829 137.014 377.239C136.794 378.814 138.779 378.52 139.08 379.576C138.733 381.878 137.296 383.217 135.45 384.238C134.411 383.54 133.373 383.522 132.34 384.244Z" fill="#69CDEF"/>
<path d="M128.457 378C128.953 380.562 130.245 383.303 126.893 385.005C127.233 383.378 125.133 384.29 124.971 383.078C125.439 381.59 125.67 379.899 127.227 378.86C126.137 377.752 124.908 378.093 123.794 377.972C123.783 377.723 123.765 377.475 123.736 377.227C125.41 376.904 127.02 376.933 128.457 378Z" fill="#78D0EF"/>
<path d="M130.782 402.934C129.478 402.155 128.18 401.381 126.875 400.602C130.355 397.706 131.849 393.528 133.881 389.702C135.41 389.702 136.939 389.702 139.068 389.702C136.956 394.849 134.775 399.419 130.782 402.934Z" fill="#89D4EE"/>
<path d="M133.886 389.702C131.849 393.528 130.361 397.706 126.881 400.602C126.229 400.591 125.646 400.441 125.289 399.829C125.035 398.796 124.775 397.763 124.521 396.73C127.724 394.567 127.937 389.951 131.561 388.133C131.619 389.714 132.755 389.702 133.886 389.702Z" fill="#90D7EF"/>
<path d="M132.34 384.244C133.379 383.523 134.417 383.54 135.456 384.232C137.752 384.757 135.577 386.408 136.24 387.342C134.59 387.071 133.125 387.873 131.567 388.127C131.48 386.765 131.601 385.444 132.34 384.244Z" fill="#90D7EF"/>
<path d="M68.4925 422.321C68.204 421.6 67.9212 420.879 67.6327 420.158C70.4774 418.311 73.3625 419.99 76.213 420.106C82.2891 420.354 88.3132 419.65 94.3661 419.356C94.3661 420.96 95.9991 422.091 95.6413 423.799C94.9547 425.022 94.0949 426.037 92.5658 426.17C90.1885 423.383 86.9745 424.728 84.2625 424.895C79.5828 425.183 75.0244 425.091 70.4832 423.931C70.4024 423.908 70.1658 424.497 69.9985 424.797C69.4965 423.977 68.9945 423.146 68.4925 422.321Z" fill="#366FB6"/>
<path d="M66.9345 319.675C67.4538 319.669 67.9731 319.663 68.4867 319.658C68.9945 319.998 69.5022 320.333 70.0389 320.696C65.4227 322.543 62.1452 325.901 58.862 330.09C60.2468 330.327 60.9739 330.454 61.7009 330.575C58.0772 331.25 55.4979 333.627 52.8898 335.964C52.457 334.77 52.0243 333.576 51.4588 332.012C49.3354 332.012 47.1542 332.012 44.9789 332.012C46.6003 330.765 48.4698 331.573 50.2182 331.394C51.0953 331.302 52.1108 331.504 52.5609 330.46C53.0052 329.421 52.6821 328.503 52.0589 327.574C51.5915 326.882 50.2874 327.015 50.3682 325.849C51.9146 324.787 54.6901 326.236 55.2268 323.333C55.7634 323.114 56.3058 322.901 56.8424 322.681C60.2122 321.47 63.6859 320.425 65.2611 316.605C66.7556 317.684 64.5456 319.352 66.3286 319.975C66.4383 320.015 66.5883 320.016 66.6864 319.969C66.7903 319.906 66.8537 319.773 66.9345 319.675Z" fill="#49C6EC"/>
<path d="M55.2209 323.322C54.6843 326.224 51.9088 324.776 50.3624 325.838C50.2816 327.003 51.5857 326.871 52.0531 327.563C52.682 328.492 52.9994 329.409 52.5551 330.448C52.1108 331.492 51.0895 331.296 50.2124 331.383C48.464 331.562 46.5945 330.76 44.973 332C43.542 333.074 44.5749 334.897 43.6113 336.224C42.3707 337.926 42.0821 339.611 45.0596 339.871C45.8732 339.94 45.8386 340.742 45.9193 341.365C45.2096 342.537 44.5922 343.737 43.2362 344.389C41.6148 345.168 40.8589 346.535 41.0954 348.376C40.8762 348.901 40.6569 349.426 40.4376 349.951C39.8318 350.419 39.2201 350.892 38.6143 351.359C36.5024 351.907 36.1792 354.019 35.0367 355.422C34.1827 356.968 33.323 358.514 32.469 360.061C27.247 356.31 29.9936 351.336 30.7379 346.916C32.1805 338.405 37.0044 331.752 43.542 326.311C44.5749 325.451 45.4116 324.568 45.9136 323.351C48.3948 323.299 49.5892 321.198 51.3087 319.946C52.4224 321.556 49.9412 322.162 50.4432 323.847C51.955 323.697 53.588 323.512 55.2209 323.322Z" fill="#DAF0F5"/>
<path d="M32.469 360.078C33.323 358.532 34.1827 356.985 35.0367 355.439C36.0811 356.662 36.3062 358.22 36.7159 359.686C39.2663 368.791 43.8998 376.673 50.5182 383.396C48.4006 385.49 45.8328 383.667 43.5363 384.198C44.0325 383.199 45.2212 383.73 45.677 383.344C40.2992 377.441 36.6178 370.58 33.5365 363.54C32.7344 364.89 34.2635 367.095 32.6421 368.641C32.5902 365.791 32.5325 362.934 32.469 360.078Z" fill="#4094D0"/>
<path d="M40.4377 349.969C40.657 349.444 40.8762 348.919 41.0955 348.393C42.8842 348.497 43.6228 349.559 43.5074 351.232C43.369 353.2 43.8998 355.058 44.2633 356.951C49.1103 382.19 78.5788 395.213 100.65 381.203C103.004 379.708 105.214 377.983 107.493 376.362L107.516 376.327C107.886 377.723 109.825 376.691 110.223 378.041C101.689 388.918 82.139 394.624 63.9051 387.383C63.8647 387.914 63.8244 388.416 63.784 388.912C63.5589 388.912 63.3339 388.912 63.1088 388.918C63.4551 384.942 61.2451 384.457 57.9618 385.415C57.4598 384.088 57.0328 382.767 55.8038 382.022C55.9538 381.832 56.098 381.647 56.2423 381.457C55.8961 381.341 55.5556 381.226 55.2094 381.116C55.2094 379.478 53.8823 378.71 52.9475 377.695C47.7312 372.046 43.8075 365.681 42.2149 358.07C41.6494 355.364 41.7821 352.508 40.4377 349.969Z" fill="#459FD8"/>
<path d="M63.7897 388.912C63.8301 388.41 63.8705 387.914 63.9109 387.383C82.1506 394.624 101.694 388.918 110.228 378.041C109.83 376.69 107.891 377.723 107.522 376.327C110.402 376.125 113.05 374.636 115.999 374.832C116.039 377.498 115.877 380.101 113.789 382.12C111.429 383.592 109.051 385.034 106.72 386.54C93.9795 394.757 80.4137 396.627 65.9305 392.057C64.159 391.497 63.732 390.481 63.7897 388.912Z" fill="#419AD4"/>
<path d="M55.221 381.116C55.5672 381.232 55.9077 381.347 56.2539 381.457C56.1096 381.641 55.9596 381.832 55.8153 382.022C53.8765 381.803 52.3417 383.136 50.5356 383.401C43.9114 376.673 39.2836 368.797 36.7332 359.692C36.3235 358.232 36.0985 356.668 35.0541 355.445C36.1908 354.043 36.5197 351.931 38.6316 351.382C40.6627 359.374 41.9322 367.735 47.5985 374.192C49.8143 376.737 51.0722 380.603 55.221 381.116Z" fill="#419AD4"/>
<path d="M123.8 377.977C124.919 378.098 126.143 377.758 127.233 378.866C125.675 379.905 125.445 381.589 124.977 383.084C125.139 384.296 127.239 383.384 126.899 385.011C125.081 387.867 123.263 390.729 121.446 393.586C120.667 393.413 119.894 392.345 119.097 393.563C117.06 393.511 117.655 391.433 116.755 390.51C119.097 386.333 121.451 382.155 123.8 377.977Z" fill="#A1DCEF"/>
<path d="M115.993 374.838C113.044 374.642 110.396 376.131 107.516 376.333L107.493 376.367C107.147 375.86 106.801 375.352 106.46 374.844C106.68 373.003 108.197 372.83 109.53 372.599C110.817 372.38 112 372.132 112.727 370.92C113.044 370.73 113.356 370.534 113.673 370.343C114.568 371.52 114.198 373.471 115.964 374.117C115.97 374.348 115.981 374.596 115.993 374.838Z" fill="#B8E3EF"/>
<path d="M115.964 374.106C114.198 373.459 114.568 371.509 113.673 370.332C115.214 369.911 116.645 369.305 117.551 367.874C119.461 367.758 120.292 368.653 119.651 370.465C119.016 372.271 118.139 373.99 117.332 375.819C116.853 375.213 116.408 374.659 115.964 374.106Z" fill="#B5E2EF"/>
<path d="M119.091 393.557C119.888 392.339 120.655 393.407 121.44 393.58C121.694 394.359 121.948 395.144 122.202 395.923C117.187 400.308 112.658 405.253 107.113 409.021C105.56 410.077 104.233 411.67 102.058 411.491C101.989 411.237 101.919 410.977 101.85 410.723C102.762 409.552 102.894 408.236 102.583 406.834C102.646 406.598 102.664 406.355 102.629 406.113C106.287 402.599 110.234 399.333 113.477 395.473C115.249 393.378 117.539 394.988 119.091 393.557Z" fill="#6FCEEF"/>
<path d="M61.7009 330.575C60.9739 330.448 60.2468 330.327 58.862 330.09C62.1452 325.901 65.4227 322.543 70.0389 320.696C69.5022 320.339 68.9945 319.998 68.4867 319.658C70.5063 320.027 72.3873 318.711 74.4762 319.265C75.3821 319.502 76.2476 318.815 76.0688 317.673C75.8149 316.057 76.9747 316.548 77.7479 316.432C81.4524 317.205 85.278 316.911 88.9883 317.909C101.556 321.285 109.617 329.005 112.617 341.792C113.142 344.02 113.102 346.114 111.307 347.839C110.534 348.988 110.286 350.107 111.411 351.203C112.415 352.179 113.183 353.31 113.477 354.706C112.179 356.2 111.833 358.174 110.932 359.841C109.594 362.311 109.374 365.814 105.641 366.379C104.701 365.791 103.864 365.104 103.512 363.99C107.459 357.02 109.478 349.784 107.378 341.7C103.564 327.003 88.2785 318.717 73.7607 323.322C69.5138 324.666 67.1884 328.85 62.8492 329.779C62.4684 330.038 62.0818 330.31 61.7009 330.575Z" fill="#4FC7EB"/>
<path d="M105.647 366.379C109.38 365.814 109.599 362.311 110.938 359.842C111.844 358.174 112.185 356.201 113.483 354.706C114.06 355.404 114.631 356.102 115.208 356.801C117.966 359.207 115.525 361.388 115.006 363.719C114.452 366.2 110.857 367.706 112.727 370.915C112 372.126 110.817 372.374 109.53 372.594C108.197 372.824 106.674 372.998 106.46 374.838C105.999 374.077 105.543 373.321 105.081 372.559C105.07 372.317 105.064 372.074 105.07 371.826C106.605 370.153 105.653 368.214 105.647 366.379Z" fill="#41C5EB"/>
<path d="M61.7009 330.575C62.0818 330.31 62.4684 330.044 62.8492 329.779C65.7574 331.833 68.6656 333.887 71.5737 335.941C73.074 337.263 74.58 335.335 76.0745 335.953C76.5246 336.691 76.0745 337.799 77.0439 338.33C79.427 339.034 79.9117 341.325 81.0831 343.068C81.637 343.893 82.3756 344.47 80.6965 344.608C78.8731 344.147 76.8016 342.537 76.0053 345.964C75.6244 347.609 74.228 346.893 73.1548 346.76C72.4104 345.601 70.9621 346.108 70.0158 345.428C68.2501 345.416 66.871 344.377 65.365 343.679C64.8168 343.016 64.3494 342.329 64.5629 341.394C65.6304 339.79 65.1861 338.417 63.3166 338.699C61.0777 339.034 58.66 338.469 56.577 339.761C54.5805 339.559 52.7917 340.061 51.2279 341.331C50.9971 341.579 50.7663 341.833 50.5413 342.081C49.1968 341.994 47.7023 342.75 46.5771 341.394C46.9522 340.534 47.5639 339.894 48.5275 339.871C51.1241 339.813 52.1281 338.036 52.8955 335.964C55.4979 333.622 58.0772 331.25 61.7009 330.575Z" fill="#E9F5F8"/>
<path d="M52.8898 335.959C52.1224 338.03 51.1241 339.807 48.5218 339.865C47.5524 339.888 46.9465 340.523 46.5714 341.388C46.3522 341.388 46.1387 341.383 45.9194 341.377C45.8386 340.754 45.879 339.951 45.0596 339.882C42.0822 339.623 42.3707 337.938 43.6113 336.236C44.5749 334.908 43.5478 333.085 44.9731 332.012C47.1542 332.012 49.3296 332.012 51.453 332.012C52.0243 333.57 52.4571 334.764 52.8898 335.959Z" fill="#3EC5EC"/>
<path d="M45.9194 341.377C46.1387 341.383 46.3522 341.388 46.5714 341.388C47.6966 342.744 49.1911 341.988 50.5355 342.075C49.8893 343.431 47.2638 342.473 47.4139 344.885C47.5812 347.597 47.2119 350.361 47.5985 353.033C50.224 371.376 65.9536 384.365 84.0721 382.651C92.2716 381.872 99.2477 378.352 105.087 372.559C105.549 373.321 106.01 374.077 106.466 374.838C106.812 375.346 107.153 375.854 107.499 376.362C105.22 377.983 103.01 379.708 100.656 381.203C78.5846 395.213 49.1161 382.19 44.2691 356.951C43.9055 355.052 43.3747 353.2 43.5132 351.232C43.6286 349.559 42.89 348.503 41.1012 348.393C40.8647 346.553 41.6205 345.185 43.242 344.406C44.598 343.748 45.2154 342.548 45.9194 341.377Z" fill="#46A6DC"/>
<path d="M55.221 381.116C51.078 380.603 49.8201 376.737 47.587 374.192C41.9206 367.735 40.6512 359.368 38.6201 351.382C39.226 350.909 39.8376 350.442 40.4435 349.969C41.7879 352.508 41.6552 355.364 42.2207 358.07C43.819 365.681 47.737 372.051 52.9533 377.695C53.8938 378.71 55.221 379.478 55.221 381.116Z" fill="#449ED7"/>
<path d="M71.5738 335.935C68.6656 333.881 65.7574 331.827 62.8492 329.773C67.1884 328.838 69.5138 324.66 73.7607 323.316C88.2786 318.711 103.564 326.997 107.378 341.694C109.473 349.778 107.459 357.02 103.512 363.985C103.293 363.898 103.073 363.823 102.848 363.759C100.286 361.878 99.6171 358.993 98.8438 356.16C100.685 355.768 101.671 354.504 101.862 352.761C102.168 349.992 102.543 347.274 101.989 344.406C99.5247 331.637 84.626 324.049 73.6799 330.165C73.9857 330.858 74.2973 331.55 74.6032 332.248C71.9604 331.833 70.1312 329.531 66.9922 328.723C68.5386 331.729 71.1064 332.762 73.1433 334.412C72.4797 335.058 72.0296 335.497 71.5738 335.935Z" fill="#57C8EB"/>
<path d="M102.854 363.765C103.079 363.829 103.298 363.904 103.512 363.99C103.864 365.104 104.701 365.785 105.641 366.379C105.653 368.22 106.605 370.159 105.064 371.832C104.654 370.315 103.033 370.251 102.11 369.357C101.833 368.595 101.55 367.828 101.273 367.066C101.804 365.964 102.329 364.862 102.854 363.765Z" fill="#CFEBF2"/>
<path d="M102.116 369.351C103.045 370.245 104.666 370.309 105.07 371.826C105.064 372.069 105.07 372.311 105.081 372.559C99.2419 378.352 92.2657 381.878 84.0663 382.651C65.9478 384.365 50.2182 371.376 47.5927 353.033C47.2119 350.361 47.5812 347.597 47.4081 344.885C47.2581 342.473 49.8835 343.431 50.5298 342.075C50.7606 341.827 50.9914 341.573 51.2222 341.325C52.9014 343.096 52.1281 345.301 52.0358 347.251C51.5684 357.118 55.0133 365.375 62.5492 371.567C68.5444 376.494 75.509 379.045 83.6104 378.15C90.904 377.354 96.7838 374.042 102.116 369.351Z" fill="#48AADF"/>
<path d="M102.116 369.351C96.7838 374.036 90.904 377.348 83.6104 378.15C75.5091 379.039 68.5502 376.494 62.5492 371.567C55.0133 365.375 51.5742 357.118 52.0358 347.251C52.1281 345.301 52.9014 343.096 51.2222 341.325C52.7859 340.055 54.5747 339.553 56.577 339.755C58.9716 340.142 57.5925 341.879 57.3963 342.756C56.2308 348.064 56.4674 353.211 58.36 358.33C62.3357 369.062 72.572 373.8 81.2389 373.95C87.1245 374.054 92.3465 371.174 97.2108 367.752C98.8323 366.616 99.04 365.577 98.7803 363.996C100.315 364.446 100.286 366.166 101.267 367.06C101.556 367.827 101.833 368.589 102.116 369.351Z" fill="#4BB1E4"/>
<path d="M74.6147 332.248C74.3088 331.556 73.9973 330.858 73.6914 330.165C84.6318 324.049 99.5305 331.637 102 344.406C102.554 347.274 102.179 349.992 101.873 352.761C101.683 354.504 100.696 355.768 98.8554 356.16C96.7839 354.723 96.7665 351.561 94.1584 350.58C93.9161 349.299 93.6679 348.018 93.4256 346.737C93.3506 344.216 96.0799 342.04 94.343 339.063C92.2138 339.975 89.9288 338.497 87.8227 339.732C85.5723 338.832 83.2989 338.053 82.9007 335.087C82.7795 334.181 81.7582 333.702 80.7773 334.072C79.9406 334.389 79.3001 334.781 79.6925 336.045C80.4715 338.538 78.5096 338.209 77.0497 338.313C76.0803 337.782 76.5361 336.674 76.0803 335.936C75.3475 334.81 74.4935 333.726 74.6147 332.248Z" fill="#64CBEB"/>
<path d="M98.7861 363.996C99.0457 365.577 98.838 366.616 97.2166 367.752C92.3523 371.174 87.1302 374.054 81.2446 373.95C72.5778 373.8 62.3414 369.062 58.3657 358.33C56.4673 353.211 56.2308 348.064 57.4021 342.756C57.5983 341.879 58.9774 340.136 56.5827 339.755C58.6658 338.463 61.0835 339.028 63.3224 338.694C65.1919 338.411 65.6362 339.784 64.5687 341.388C63.8532 341.198 63.7724 339.934 62.5895 340.344C61.724 344.758 60.2988 348.988 61.3489 353.852C63.6455 364.452 75.6821 371.722 86.1031 368.745C90.8174 367.395 93.841 363.777 97.909 361.653C98.2033 362.432 98.4976 363.217 98.7861 363.996Z" fill="#4BB7E8"/>
<path d="M97.909 361.648C93.8467 363.777 90.8174 367.395 86.1031 368.739C75.6821 371.717 63.6397 364.446 61.3489 353.846C60.2987 348.988 61.724 344.758 62.5895 340.338C63.7724 339.928 63.8532 341.192 64.5687 341.383C64.3552 342.312 64.8226 343.004 65.3708 343.668C65.365 346.126 65.2957 348.578 65.365 351.036C65.5496 358.105 72.0353 364.175 79.0577 364.856C86.4089 365.571 91.2444 361.867 95.7163 356.968C96.7261 358.399 97.8628 359.767 97.909 361.648Z" fill="#4CBCEC"/>
<path d="M95.7048 356.974C91.2329 361.873 86.4032 365.577 79.0462 364.862C72.0238 364.175 65.5381 358.111 65.3535 351.042C65.29 348.59 65.3535 346.132 65.3592 343.673C66.8653 344.372 68.2444 345.41 70.01 345.422C69.9927 345.808 70.0274 346.212 69.9408 346.587C68.7117 351.815 70.8987 356.795 75.5668 359.351C80.3099 361.953 84.851 361.099 89.0171 357.135C90.6155 355.618 91.2329 353.252 93.4025 352.294C94.8162 353.54 95.4567 355.156 95.7048 356.974Z" fill="#4CC1EF"/>
<path d="M93.4083 352.288C91.2329 353.246 90.6155 355.612 89.0229 357.13C84.851 361.094 80.3157 361.948 75.5725 359.345C70.9044 356.789 68.7175 351.809 69.9466 346.582C70.0331 346.207 69.9927 345.808 70.0158 345.416C70.9621 346.097 72.4104 345.589 73.1548 346.749C73.2875 347.811 74.8397 347.314 74.9782 348.844C75.4283 353.841 78.3826 356.224 82.3756 355.318C85.8897 354.516 87.6842 350.828 86.5417 346.766C87.7246 346.316 88.9017 345.872 90.0846 345.422C91.1983 345.86 92.312 346.305 93.4256 346.743C93.668 348.024 93.9161 349.305 94.1584 350.592C93.9045 351.157 93.6564 351.723 93.4083 352.288Z" fill="#4EC8F4"/>
<path d="M86.5359 346.766C87.6842 350.828 85.8896 354.516 82.3698 355.318C78.3768 356.229 75.4225 353.84 74.9724 348.843C74.8339 347.314 73.2875 347.811 73.149 346.749C74.2165 346.882 75.6187 347.597 75.9995 345.953C76.7958 342.525 78.8731 344.135 80.6964 344.597C82.3987 345.981 85.0356 344.839 86.5359 346.766Z" fill="#55C9F3"/>
<path d="M86.5359 346.766C85.0356 344.845 82.3987 345.987 80.6964 344.602C82.3756 344.464 81.637 343.887 81.0831 343.062C79.9175 341.319 79.4328 339.028 77.0439 338.324C78.498 338.22 80.4599 338.549 79.6867 336.057C79.2943 334.793 79.9348 334.395 80.7715 334.083C81.7524 333.714 82.7737 334.193 82.8949 335.099C83.2931 338.065 85.5723 338.849 87.8169 339.75C89.6576 341.209 89.5653 343.442 90.0788 345.427C88.8959 345.872 87.7188 346.316 86.5359 346.766Z" fill="#E4F3F7"/>
<path d="M74.6147 332.248C74.4935 333.72 75.3475 334.81 76.0803 335.947C74.58 335.33 73.0741 337.257 71.5738 335.935C72.0239 335.497 72.4739 335.058 73.149 334.412C71.1179 332.768 68.5444 331.735 66.998 328.723C70.1427 329.531 71.9719 331.839 74.6147 332.248Z" fill="#E4F3F7"/>
<path d="M93.4083 352.288C93.6564 351.723 93.9045 351.157 94.1469 350.586C96.7608 351.561 96.7781 354.729 98.8438 356.166C99.6112 358.993 100.281 361.878 102.848 363.765C102.323 364.862 101.798 365.964 101.273 367.06C100.292 366.166 100.321 364.446 98.7861 363.996C98.4918 363.211 98.1975 362.432 97.909 361.648C97.8628 359.767 96.7261 358.393 95.7048 356.968C95.4567 355.156 94.8162 353.54 93.4083 352.288Z" fill="#D4EDF4"/>
<path d="M90.0788 345.422C89.5653 343.431 89.6576 341.204 87.817 339.744C89.923 338.503 92.208 339.986 94.3372 339.074C96.074 342.052 93.3447 344.221 93.4198 346.749C92.3061 346.305 91.1925 345.866 90.0788 345.422Z" fill="#DAF0F5"/>
</svg>
