<svg width="12" height="12" viewBox="0 0 12 12" fill="none" xmlns="http://www.w3.org/2000/svg">
<g clip-path="url(#clip0_1524_309)">
<path d="M11.977 2.77092L7.768 6.97992C7.29869 7.44805 6.66287 7.71094 6 7.71094C5.33713 7.71094 4.70131 7.44805 4.232 6.97992L0.023 2.77092C0.016 2.84992 0 2.92142 0 2.99992V8.99992C0.000793929 9.66272 0.264441 10.2981 0.73311 10.7668C1.20178 11.2355 1.8372 11.4991 2.5 11.4999H9.5C10.1628 11.4991 10.7982 11.2355 11.2669 10.7668C11.7356 10.2981 11.9992 9.66272 12 8.99992V2.99992C12 2.92142 11.984 2.84992 11.977 2.77092Z" fill="#55C9F3"/>
<path d="M7.06107 6.27292L11.6281 1.70542C11.4068 1.33858 11.0948 1.03494 10.7221 0.823789C10.3493 0.612635 9.92846 0.501094 9.50007 0.499924H2.50007C2.07168 0.501094 1.65082 0.612635 1.27808 0.823789C0.905346 1.03494 0.59331 1.33858 0.37207 1.70542L4.93907 6.27292C5.22086 6.55358 5.60236 6.71116 6.00007 6.71116C6.39778 6.71116 6.77928 6.55358 7.06107 6.27292Z" fill="#55C9F3"/>
</g>
<defs>
<clipPath id="clip0_1524_309">
<rect width="12" height="12" fill="white"/>
</clipPath>
</defs>
</svg>
