<svg width="98" height="284" viewBox="0 0 98 284" fill="none" xmlns="http://www.w3.org/2000/svg">
<path d="M93.7983 148.636C93.7983 149.42 93.7983 150.204 93.7983 150.984C93.1576 151.102 93.1899 151.618 93.1111 152.092C91.6402 161.026 86.3647 166.681 77.7751 169.189C68.3588 171.937 58.8959 171.506 49.6049 168.569C42.1641 166.221 36.3805 157.398 36.7133 149.185C42.6294 148.793 48.567 148.397 54.5403 147.998C54.8052 148.992 54.9913 149.733 55.2024 150.471C56.8631 156.297 61.2116 159.205 67.1813 158.492C71.2077 158.011 74.0601 155.713 74.3751 152.691C74.6936 149.634 72.4031 146.915 68.3767 145.753C64.0425 144.506 59.644 143.465 55.3277 142.158C47.6221 139.82 40.9437 136.225 38.8536 127.794C27.7157 128.435 16.8177 128.1 5.92325 128.05C5.9161 109.064 5.91251 90.0788 5.90535 71.0895C10.3218 71.0503 14.7347 71.0254 19.1512 70.9612C19.9923 70.9505 21.1411 71.3496 21.5527 70.3555C22.5978 67.8183 23.99 65.3667 24.3765 62.2844C21.4704 62.2844 18.9472 62.2844 16.5099 62.2844C15.8478 61.0693 16.1126 59.9753 16.1126 58.9277C16.0948 43.092 16.1091 27.2528 16.0912 11.4171C16.0876 7.61139 15.9802 3.80569 15.923 0C22.8054 0 29.6878 0 36.5738 0C36.5738 9.79574 36.5738 19.5915 36.5738 29.3872C38.2845 26.2835 39.5765 23.1477 40.7147 19.9549C41.2479 18.4583 41.9995 17.8134 43.6959 17.8454C49.2971 17.9559 54.9018 17.9559 60.5029 17.8454C62.2137 17.8098 62.8257 18.4868 63.3876 19.987C70.1411 38.0106 76.9985 55.9986 83.7628 74.0186C84.4607 75.8751 85.4306 77.7031 85.5272 79.7842C78.8345 79.7842 72.2849 79.7842 65.7819 79.7842C64.8621 76.8978 63.9101 74.2253 63.1871 71.4886C62.8543 70.2272 62.3676 69.7033 61.0254 69.714C54.8338 69.7675 48.6421 69.7319 42.4505 69.7426C41.6846 69.7426 40.8149 69.6285 40.6395 70.7439C40.4534 71.9269 41.4305 71.959 42.1176 72.155C51.4337 74.8346 55.7894 81.6906 57.8545 90.5313C59.0642 95.7232 58.4271 101.004 58.5631 106.271C61.6625 106.271 64.5901 106.278 67.5177 106.271C70.5849 106.264 73.577 106.809 76.5583 107.443C85.0262 109.25 91.1427 116.597 90.8886 124.893C84.9868 125.235 79.0636 125.577 73.2477 125.912C71.1433 119.477 69.3681 117.531 61.7949 118.016C58.8566 118.205 56.6984 120.122 56.7378 122.416C56.7879 125.171 58.7814 126.208 61.1185 126.796C65.968 128.022 70.8713 129.076 75.66 130.502C84.7721 133.214 92.4597 137.468 93.3509 148.34C93.3473 148.458 93.6408 148.543 93.7983 148.636ZM23.7073 115.047C26.4989 115.047 28.9577 115.154 31.3985 115.026C35.994 114.78 39.011 112.432 40.0275 108.01C41.2909 102.508 41.2801 96.9276 39.9201 91.4293C39.0647 87.9657 36.9209 85.5034 33.3419 84.5876C30.1888 83.7787 26.9821 83.8678 23.7073 84.1849C23.7073 94.5081 23.7073 104.646 23.7073 115.047ZM51.7666 34.0481C49.3794 41.9303 47.2463 48.9751 45.0774 56.1447C49.7695 56.1447 54.0285 56.1447 58.5452 56.1447C56.3119 48.8682 54.1538 41.8377 51.7666 34.0481Z" fill="#1B65B0"/>
<path d="M5.30407 71.0895C5.50449 71.0931 5.7085 71.0931 5.90893 71.0966C5.91609 90.0823 5.91967 109.068 5.92682 128.057C5.71924 128.064 5.51165 128.068 5.30407 128.075C5.30407 109.079 5.30407 90.0859 5.30407 71.0895Z" fill="#C9DDEF"/>
<path d="M69.955 191.065C69.0245 190.712 68.0403 190.491 67.1097 190.135C66.4762 190.288 65.8428 190.445 65.2057 190.598C62.253 190.405 59.3755 190.872 56.5087 191.517C56.4622 191.236 56.4157 190.954 56.3656 190.676C56.3942 188.984 54.1359 188.998 53.9319 187.352C54.4687 187.312 55.002 187.277 55.5352 187.241C51.491 186.436 47.4431 186.511 43.3917 187.202C43.0768 187.22 42.7618 187.234 42.4433 187.252C41.1298 187.031 39.895 187.487 38.6674 187.769C29.7701 189.803 21.7997 193.595 15.3646 200.219C12.4943 202.542 10.1751 205.35 8.1959 208.45C6.57104 210.767 5.18597 213.193 4.055 215.738C11.5924 198.473 28.8789 186.397 49 186.397C56.5016 186.393 63.6023 188.068 69.955 191.065Z" fill="#C4E7F1"/>
<path d="M98 235.172C98 236.145 97.9714 237.111 97.9141 238.073C97.8855 238.561 97.8497 239.053 97.8103 239.537C97.7137 240.614 97.5848 241.675 97.4166 242.73C97.1482 244.441 96.7939 246.126 96.3501 247.772C96.0709 248.834 95.7488 249.875 95.4016 250.901C94.8469 252.519 94.2098 254.101 93.494 255.637C92.9071 256.905 92.2629 258.142 91.5686 259.346C90.9601 260.415 90.3087 261.456 89.618 262.471C80.8674 275.349 66.1004 283.841 49.3364 283.948C49.3328 283.951 49.3328 283.951 49.3293 283.948C49.3257 283.951 49.3221 283.948 49.3221 283.948C49.3149 283.951 49.3149 283.951 49.3114 283.948C49.3078 283.951 49.3078 283.948 49.3078 283.948C49.204 283.951 49.1074 283.951 49.0072 283.951C48.4596 283.951 47.9191 283.941 47.3787 283.923H47.3751C45.94 283.877 44.5263 283.77 43.1233 283.602C42.6902 283.552 42.2572 283.495 41.8277 283.431C41.8205 283.431 41.817 283.431 41.8098 283.428C40.5428 283.246 39.2973 283.011 38.0626 282.729C38.0554 282.726 38.0483 282.726 38.0411 282.722C36.7956 282.44 35.5645 282.106 34.3583 281.731C34.004 281.625 33.6569 281.51 33.3097 281.393C33.0055 281.29 32.7013 281.186 32.3971 281.076C30.1423 280.267 27.9591 279.298 25.8725 278.182C25.5898 278.029 25.3071 277.876 25.0243 277.719C24.3873 277.363 23.7609 276.992 23.1382 276.607C23.1239 276.6 23.106 276.593 23.0917 276.579C22.5441 276.24 22.0072 275.887 21.474 275.528C21.474 275.528 21.474 275.528 21.4704 275.528C20.8906 275.136 20.3251 274.733 19.7632 274.316C19.7525 274.309 19.7489 274.305 19.7382 274.298C19.7346 274.298 19.7346 274.298 19.731 274.291C19.1261 273.842 18.5392 273.382 17.9594 272.908C17.9558 272.908 17.9522 272.905 17.9487 272.901C17.3188 272.388 16.7032 271.861 16.0983 271.319C16.0947 271.316 16.0876 271.312 16.0876 271.309C15.4434 270.724 14.8206 270.133 14.2086 269.516C14.205 269.513 14.2014 269.509 14.1979 269.505C13.7469 269.053 13.3031 268.59 12.8665 268.119C12.1543 267.353 11.4743 266.559 10.8121 265.742C10.7871 265.707 10.762 265.675 10.7334 265.639C10.354 265.169 9.98182 264.691 9.62392 264.2C9.61676 264.192 9.61317 264.185 9.60602 264.178C9.10854 263.512 8.62895 262.835 8.16726 262.143L8.16368 262.14C7.32978 260.889 6.55314 259.603 5.83377 258.277C5.82303 258.256 5.80513 258.231 5.79439 258.21C4.99985 256.727 4.27691 255.209 3.63269 253.641C3.33563 252.914 3.05289 252.18 2.79162 251.443C2.49456 250.605 2.21898 249.757 1.96845 248.898C1.96487 248.888 1.96129 248.881 1.96129 248.87C1.77876 248.243 1.60339 247.616 1.44233 246.974C1.44233 246.974 1.44233 246.971 1.44233 246.967C1.22759 246.115 1.04149 245.257 0.873275 244.384C0.873275 244.376 0.873283 244.373 0.869704 244.373C0.654964 243.254 0.476014 242.117 0.343591 240.973C0.340012 240.959 0.340005 240.945 0.336426 240.927C0.132424 239.199 0.021474 237.439 0 235.66V235.162C0 234.663 0.00716061 234.167 0.0250556 233.676C0.0250556 233.647 0.0250591 233.615 0.0286381 233.587C0.0322171 233.394 0.0393742 233.205 0.0501111 233.013C0.136007 231.064 0.332849 229.143 0.640643 227.262C0.823171 226.406 1.0558 225.558 1.3636 224.721C1.33496 226.082 1.26696 227.458 2.83098 228.135C3.50384 227.621 3.32131 226.877 3.29983 226.21C3.25331 224.842 3.86532 224.197 5.23965 224.283C5.40428 223.965 5.56534 223.641 5.72997 223.324C5.66197 222.661 5.95545 221.906 5.24681 221.4C4.53459 221.909 3.68279 221.446 2.89899 221.446C2.85246 221.446 2.81309 221.45 2.76657 221.453C2.72362 221.457 2.68067 221.46 2.6413 221.467C2.60551 221.471 2.5733 221.478 2.53393 221.489C2.5053 221.496 2.48024 221.5 2.45161 221.51C2.42298 221.521 2.39077 221.532 2.35856 221.546C2.3335 221.553 2.31203 221.564 2.28698 221.578C2.26193 221.589 2.24045 221.599 2.21898 221.61C2.12593 221.663 2.03287 221.735 1.93982 221.824C1.91835 221.842 1.90045 221.859 1.88255 221.881V221.877C2.19751 220.698 2.55899 219.536 2.97057 218.399C2.98131 218.371 2.99204 218.335 3.00278 218.303C3.11015 218.015 3.21751 217.722 3.33204 217.437C3.4072 217.241 3.48594 217.045 3.56826 216.853C3.63626 216.682 3.71142 216.511 3.783 216.34C3.783 216.333 3.78299 216.329 3.79015 216.322C3.80089 216.286 3.81879 216.254 3.83668 216.215C3.90468 216.051 3.97984 215.884 4.05142 215.72C5.18238 213.176 6.56746 210.749 8.19232 208.433C10.1679 205.329 12.4871 202.525 15.361 200.201C21.7961 193.577 29.7629 189.785 38.6639 187.751C39.8915 187.469 41.1298 187.013 42.4397 187.234C42.7547 187.216 43.0696 187.202 43.3881 187.184C47.4396 186.493 51.4874 186.418 55.5317 187.223C54.9984 187.259 54.4651 187.295 53.9283 187.334C54.1323 188.98 56.3906 188.966 56.362 190.658C56.4085 190.936 56.455 191.218 56.5051 191.499C59.3719 190.854 62.2494 190.388 65.2021 190.58C65.8391 190.427 66.4726 190.27 67.1061 190.117C68.0367 190.473 69.0209 190.698 69.9514 191.047C69.9586 191.05 69.9622 191.054 69.9693 191.058C70.3952 191.257 70.8175 191.467 71.2327 191.678C71.2363 191.678 71.2399 191.678 71.2399 191.681L73.6664 193C73.67 193.003 73.6736 193.003 73.6771 193.007C75.438 194.029 77.1273 195.159 78.7414 196.385C80.3699 197.625 81.9196 198.968 83.3762 200.397C84.7541 201.748 86.0533 203.177 87.263 204.684C88.3904 206.084 89.4426 207.549 90.4125 209.074C91.4003 210.624 92.3022 212.235 93.1075 213.895C94.013 215.752 94.8039 217.669 95.4696 219.647C95.4696 219.647 95.4696 219.647 95.4696 219.65C96.8798 223.841 97.7351 228.284 97.9463 232.895C97.9821 233.658 98 234.413 98 235.172Z" fill="#365CA8"/>
<path d="M98 235.172C98 236.145 97.9714 237.111 97.9141 238.073C96.9585 238.689 96.4539 239.669 96.0065 240.738C92.0088 250.252 86.354 258.569 78.1509 265.012C63.4806 276.529 46.9421 280.566 28.5532 277.284C27.1359 277.028 25.6471 276.076 24.1439 277.113C23.8039 276.96 23.4711 276.796 23.1454 276.614C23.1311 276.607 23.1132 276.6 23.0988 276.586C22.5334 276.276 21.9965 275.927 21.4811 275.535C21.4811 275.535 21.4811 275.535 21.4776 275.535C21.2056 275.328 20.9371 275.107 20.6794 274.879C21.295 274.088 22.1254 274.248 22.8841 274.487C30.9297 277.024 39.1077 277.904 47.5112 276.757C55.5424 275.663 63.1227 273.379 70.0123 269.042C73.3944 267.62 76.3328 265.593 78.7092 262.785C81.2181 261.434 83.1508 259.51 84.5072 257.012C87.3239 254.646 89.3639 251.721 90.7919 248.353C91.7081 247.961 91.8728 247.024 92.3058 246.283C94.328 242.83 95.4446 238.989 97.0623 235.361C97.0659 235.04 97.073 234.716 97.073 234.392C97.3665 233.9 97.66 233.405 97.9535 232.909C97.9821 233.658 98 234.413 98 235.172Z" fill="#63CAE8"/>
<path d="M97.9105 238.073C97.8819 238.561 97.8461 239.053 97.8068 239.537C97.1124 240.026 96.8512 240.859 96.5004 241.654C92.0589 251.706 85.7384 260.258 76.8338 266.933C68.4876 273.186 59.1536 276.946 48.9499 278.56C43.8964 279.355 38.7712 279.397 33.6139 278.838C31.6276 278.621 29.4587 277.22 27.4044 278.806C26.8782 278.628 26.3665 278.425 25.8761 278.186C25.5862 278.043 25.3035 277.89 25.0279 277.723C24.7237 277.537 24.4266 277.334 24.1403 277.11C25.6435 276.073 27.1324 277.024 28.5496 277.281C46.9385 280.563 63.4735 276.525 78.1473 265.008C86.3504 258.566 92.0088 250.249 96.0029 240.735C96.4503 239.673 96.955 238.689 97.9105 238.073Z" fill="#5EC9E5"/>
<path d="M97.8067 239.541C97.7101 240.617 97.5813 241.679 97.413 242.734C96.8977 243.468 96.3465 244.173 95.8884 244.939C93.2328 249.401 90.7024 253.898 87.3274 257.932C80.1408 266.509 71.2685 272.545 60.7964 276.301C51.3084 279.704 41.545 280.741 31.5417 279.191C30.7829 279.073 29.9061 278.902 29.3477 279.754C28.6999 279.44 28.0521 279.123 27.4044 278.809C29.4551 277.224 31.624 278.628 33.6139 278.842C38.7677 279.401 43.8964 279.358 48.9499 278.564C59.1536 276.949 68.4876 273.19 76.8338 266.936C85.7384 260.262 92.0589 251.71 96.5004 241.658C96.8476 240.859 97.1124 240.029 97.8067 239.541Z" fill="#5DC9E5"/>
<path d="M97.9463 232.91C97.6492 233.401 97.3594 233.897 97.0659 234.392C96.9192 234.228 96.7724 234.064 96.6257 233.9C96.6149 232.624 96.6006 231.349 96.5899 230.077C95.373 228.69 95.7953 226.659 94.6572 225.245C94.5212 224.087 93.8162 223.734 92.7425 223.901C93.8591 223.189 94.9328 222.501 94.7861 220.872C94.7825 220.837 94.7825 220.798 94.7897 220.762C94.7897 220.744 94.7932 220.726 94.8004 220.708C94.8111 220.659 94.829 220.605 94.8541 220.548C94.8648 220.523 94.8755 220.502 94.8863 220.477C94.897 220.452 94.9149 220.431 94.9292 220.406C94.9579 220.359 94.9901 220.309 95.0223 220.26V220.256C95.0581 220.21 95.0939 220.16 95.1297 220.113C95.1583 220.078 95.1833 220.042 95.2156 220.007C95.2621 219.949 95.305 219.892 95.348 219.835C95.3909 219.782 95.4339 219.725 95.4732 219.672C96.8798 223.855 97.7351 228.299 97.9463 232.91Z" fill="#3B84C5"/>
<path d="M48.2592 189.632C46.2943 189.956 44.4654 190.619 42.7225 191.507C42.4326 191.653 42.1462 191.809 41.8599 191.97C41.5736 192.13 41.2909 192.294 41.0081 192.462C40.9473 192.415 40.8829 192.372 40.8256 192.33C40.6395 192.201 40.4498 192.091 40.2601 191.998C38.5136 191.129 36.6239 191.624 34.7664 191.817C32.6655 192.027 30.8044 193.531 28.4637 192.779C27.7587 192.551 26.3235 193.114 26.2662 194.143C26.1982 195.298 25.4896 195.58 24.7881 196.078C15.4648 202.699 11.5888 211.957 13.1528 222.961C14.6166 233.244 20.7331 240.567 30.561 244.437C33.2381 245.492 36.0405 246.807 39.0826 245.467C39.2437 245.314 39.3976 245.157 39.5586 245.004C40.4068 245.535 41.1083 246.162 41.0654 247.281C39.9058 249.451 37.8515 248.432 36.3912 248.218C25.8081 246.671 18.26 240.852 13.4355 231.431C12.0469 228.719 11.2953 225.786 10.5652 222.85C10.4006 221.731 10.2395 220.619 10.0749 219.5C10.1035 213.3 11.6962 207.545 15.0031 202.268C15.3718 201.684 16.2844 201.074 15.361 200.219C21.7961 193.595 29.7629 189.803 38.6639 187.769C39.8915 187.487 41.1298 187.031 42.4397 187.252C42.5256 188.51 43.5027 188.196 44.2292 188.214C45.0846 188.228 45.9471 187.883 46.7989 188.271C46.713 188.585 46.1189 188.642 46.3551 189.14C47.0029 189.283 47.7688 188.948 48.2592 189.632Z" fill="#C4E7F1"/>
<path d="M10.0355 264.723C9.39131 263.758 8.30687 263.088 8.09929 261.83C9.09783 261.716 9.91384 262.047 10.78 262.592C20.8548 268.942 31.7922 272.16 43.7854 271.437C45.0918 271.358 46.5592 271.636 47.2893 270.076C48.8855 269.188 50.8289 269.912 52.418 268.978C57.0778 268.967 61.0577 266.94 65.0053 264.805C65.6137 264.478 66.1935 264.189 65.6495 263.373C67.2028 263.426 67.8112 262.275 68.4697 261.181C69.4432 262.386 70.3022 261.249 70.8713 260.829C72.8111 259.407 74.9191 258.128 76.2863 256.047C76.6084 256.371 76.9305 256.695 77.249 257.019C77.7429 258.904 76.0143 259.539 75.0515 260.291C63.5773 269.21 50.743 273.689 35.9761 272.488C27.8732 271.829 20.4504 269.434 13.4213 265.589C12.3118 264.98 11.281 264.574 10.0355 264.723Z" fill="#7CD1EE"/>
<path d="M10.0355 264.723C11.281 264.574 12.3081 264.976 13.4248 265.589C20.4539 269.438 27.8732 271.829 35.9796 272.488C50.7465 273.689 63.5808 269.21 75.0551 260.291C76.0178 259.542 77.7465 258.908 77.2526 257.019C78.269 256.813 78.9132 257.533 79.6648 257.978C78.8416 259.539 77.2526 260.287 75.9892 261.374C66.6086 269.445 55.5603 273.472 43.3237 274.291C34.1973 274.904 25.5039 272.926 17.1362 269.281C16.084 268.821 14.9315 267.385 13.4534 268.583C12.0147 267.563 11.12 266.06 10.0355 264.723Z" fill="#7AD0ED"/>
<path d="M13.4535 268.586C14.9316 267.389 16.0804 268.825 17.1362 269.285C25.5039 272.93 34.1973 274.904 43.3237 274.295C55.5603 273.475 66.6087 269.448 75.9892 261.377C77.2526 260.291 78.8417 259.542 79.6648 257.981C79.987 258.138 80.3126 258.299 80.6347 258.455C80.5453 259.286 80.1337 259.884 79.5074 260.472C75.2376 264.506 70.4776 267.781 65.1341 270.282C52.554 276.176 39.5586 277.306 26.0766 274.138C22.9986 273.414 20.1784 271.665 16.8786 271.861C15.515 271.006 14.4234 269.858 13.4535 268.586Z" fill="#6FCDEB"/>
<path d="M81.5295 220.103C80.216 219.721 78.7772 220.174 77.4637 219.75C77.3707 219.721 77.2776 219.682 77.1846 219.643C77.045 219.582 76.909 219.511 76.7766 219.422C76.8732 219.351 76.9627 219.28 77.0414 219.201C77.6069 218.663 77.7536 217.979 77.7608 217.149C77.7787 214.986 77.5962 212.858 77.2633 210.724C75.8783 201.88 70.5563 195.89 63.0905 191.129C63.9244 191.193 64.5794 190.936 65.2057 190.594C65.8428 190.441 66.4762 190.284 67.1097 190.131C68.0403 190.487 69.0245 190.712 69.955 191.061C69.9622 191.065 69.9658 191.068 69.9729 191.072C70.4096 191.236 70.8355 191.435 71.2363 191.692C71.2399 191.692 71.2435 191.692 71.2435 191.695C71.3759 191.781 71.5047 191.87 71.6336 191.97C70.3952 192.857 71.5835 193.327 72.0201 193.794C78.3907 200.643 81.6834 208.586 80.5703 218.015C80.4379 219.133 81.0499 219.486 81.5295 220.103Z" fill="#38B7E4"/>
<path d="M16.8821 271.864C20.1819 271.668 23.0022 273.418 26.0801 274.141C39.5622 277.309 52.5575 276.18 65.1377 270.286C70.4811 267.784 75.2376 264.51 79.5109 260.476C80.1337 259.888 80.5452 259.289 80.6383 258.459C81.1716 258.441 81.7406 258.541 82.0914 257.974C87.8535 251.924 92.0374 244.936 94.668 237.018C95.0616 235.828 95.2263 234.47 96.6328 233.9C96.7796 234.064 96.9263 234.231 97.073 234.395C97.0695 234.72 97.0659 235.04 97.0623 235.365C96.5362 235.404 96.1282 235.646 95.9814 236.152C94.7324 240.425 92.3738 244.223 90.7919 248.353C88.5515 251.133 86.3862 253.969 84.5108 257.012C82.3813 258.74 80.4486 260.665 78.7128 262.785C75.6563 264.652 72.8075 266.808 70.0158 269.039C63.1263 273.375 55.546 275.663 47.5183 276.757C39.1148 277.901 30.9368 277.024 22.8912 274.487C22.1325 274.248 21.3022 274.088 20.6866 274.879C19.2478 274.077 18.0059 273.044 16.8821 271.864Z" fill="#69CCE9"/>
<path d="M90.0189 262.329C82.6461 273.454 72.2098 280.082 59.2717 282.968C55.6677 283.773 52.0064 284.244 48.2878 283.869C51.0042 282.401 54.1215 282.462 57.0134 281.61C67.0095 278.674 76.0679 274.213 83.8415 267.164C85.7527 265.436 87.3597 263.166 90.0189 262.329Z" fill="#46C0DB"/>
<path d="M47.2928 270.076C46.5591 271.64 45.0918 271.358 43.789 271.437C31.7958 272.164 20.8584 268.942 10.7835 262.593C9.9174 262.047 9.1014 261.719 8.10286 261.83C7.79506 261.335 7.48369 260.843 7.1759 260.348C7.45148 260.023 7.72706 259.699 8.00622 259.375C9.21234 258.751 10.0964 259.378 11.0448 260.055C16.696 264.103 22.9485 266.844 29.7593 268.226C33.8824 269.064 38.0769 269.701 42.2966 269.267C43.6065 269.131 44.8126 269.028 46.0402 269.473C46.4554 269.677 46.8741 269.876 47.2928 270.076Z" fill="#80D2EF"/>
<path d="M83.5695 217.569C83.5051 218.945 83.1937 220.049 82.0914 220.887C81.9446 220.901 81.7979 220.897 81.6512 220.883C81.6118 220.623 81.5724 220.363 81.5295 220.103C81.0499 219.486 80.4379 219.137 80.5703 218.018C81.6798 208.589 78.3907 200.647 72.0201 193.798C71.5834 193.331 70.3952 192.857 71.6336 191.973C72.2993 192.34 72.9864 192.679 73.67 193.017C73.6736 193.021 73.6772 193.021 73.6807 193.025C75.4416 194.047 77.1309 195.177 78.745 196.403C78.7271 196.42 78.7128 196.435 78.6985 196.449C78.6842 196.463 78.6699 196.481 78.652 196.499C78.6412 196.51 78.6377 196.513 78.6341 196.52C78.6054 196.549 78.584 196.577 78.5661 196.606C78.541 196.634 78.5196 196.666 78.5052 196.695C78.4873 196.716 78.4766 196.734 78.4659 196.755C78.4551 196.78 78.4408 196.802 78.4301 196.827C78.4122 196.859 78.4014 196.894 78.3871 196.93C78.2941 197.19 78.337 197.436 78.4408 197.664C78.5052 197.807 78.5947 197.942 78.6913 198.074C78.788 198.202 78.8918 198.33 78.992 198.452C79.0385 198.516 79.0886 198.576 79.1316 198.633C79.1745 198.694 79.2139 198.755 79.2461 198.812C82.5602 204.648 83.8701 210.902 83.5695 217.569Z" fill="#32ADDF"/>
<path d="M93.4905 255.64C92.1555 255.451 91.7117 256.756 91.1677 257.475C84.9367 265.767 77.0235 271.971 67.6931 276.433C60.5458 279.85 52.9548 281.678 45.1025 282.487C44.1183 282.59 43.1842 282.644 42.4791 283.428C42.6938 283.495 42.9086 283.552 43.1233 283.606L47.3751 283.926H47.3787C47.6829 283.916 47.9836 283.894 48.2914 283.873C51.0078 282.405 54.1251 282.466 57.017 281.614C67.0167 278.681 76.0751 274.216 83.8487 267.168C84.0742 266.965 84.296 266.751 84.5144 266.534C84.8902 266.163 85.2588 265.782 85.6346 265.404C85.7599 265.279 85.8851 265.151 86.0104 265.03C86.1571 264.884 86.3074 264.738 86.4613 264.599C86.5651 264.495 86.6761 264.399 86.7834 264.303C87.0447 264.068 87.3167 263.84 87.5994 263.626C87.7283 263.526 87.8607 263.43 87.9931 263.337C88.2759 263.145 88.5694 262.967 88.8772 262.81C88.9237 262.781 88.9738 262.76 89.0203 262.739C89.0489 262.724 89.0811 262.71 89.1098 262.692C89.1563 262.667 89.2064 262.646 89.2529 262.625C89.278 262.614 89.2995 262.603 89.3209 262.596C89.3746 262.571 89.4247 262.55 89.482 262.528C89.5249 262.511 89.5679 262.496 89.6108 262.478C89.618 262.475 89.6216 262.475 89.6251 262.471C89.7504 262.425 89.8829 262.375 90.0189 262.332L93.4905 255.64Z" fill="#4AC4DE"/>
<path d="M96.3465 247.776C96.0674 248.838 95.7453 249.878 95.3981 250.905C95.3909 250.908 95.3874 250.915 95.3802 250.915C95.2692 250.987 95.1619 251.065 95.0617 251.143C94.9507 251.225 94.8434 251.311 94.7431 251.4C94.6394 251.489 94.5391 251.582 94.4425 251.678C94.3602 251.753 94.2814 251.835 94.2027 251.917C94.1526 251.97 94.0989 252.027 94.0488 252.088C93.9951 252.141 93.945 252.198 93.8949 252.259C93.8162 252.351 93.7374 252.448 93.6623 252.544C93.5943 252.629 93.5299 252.715 93.4654 252.804C93.4511 252.822 93.4368 252.84 93.4225 252.857C93.4082 252.882 93.3903 252.904 93.376 252.925C93.3688 252.932 93.3652 252.939 93.3616 252.946C93.2865 253.053 93.2149 253.157 93.1397 253.264C89.9795 258.024 86.1643 262.243 81.9124 266.035C77.5997 269.883 72.786 273.094 67.5285 275.52C58.8458 279.522 49.7409 281.788 40.0955 281.553C39.0361 281.525 38.0447 281.824 37.1678 282.444C36.2302 282.209 35.296 281.974 34.3583 281.735C34.0004 281.646 33.6425 281.553 33.2882 281.464C33.2954 281.439 33.299 281.418 33.3097 281.397C33.3383 281.307 33.367 281.225 33.4027 281.151C33.4027 281.151 33.4027 281.147 33.4063 281.143C33.4206 281.111 33.435 281.079 33.4529 281.051C33.5817 280.819 33.7463 280.68 33.9324 280.602C33.9611 280.591 33.9897 280.577 34.0183 280.57C34.208 280.506 34.412 280.499 34.6268 280.509C34.8272 280.52 35.0348 280.552 35.2352 280.577C35.2817 280.584 35.3354 280.588 35.3819 280.595C35.4786 280.605 35.5752 280.609 35.6647 280.609H35.6933C40.8077 280.545 45.897 280.581 50.9935 279.7C67.3424 276.864 80.2053 268.536 90.2765 255.619C91.9515 253.47 93.3366 251.15 94.6787 248.792C95.1905 247.901 95.5019 247.573 95.917 247.623C95.9385 247.626 95.96 247.63 95.985 247.633C96.0137 247.641 96.0423 247.648 96.0745 247.658C96.1067 247.669 96.1425 247.683 96.1819 247.698C96.1962 247.705 96.2105 247.708 96.2284 247.719C96.2678 247.737 96.3072 247.755 96.3465 247.776Z" fill="#55C7E1"/>
<path d="M0.826758 243.229C-0.0787271 239.876 -0.0214606 236.451 0.0465403 233.024C2.03646 232.525 1.90046 235.04 3.33922 235.325C4.53102 235.76 5.89819 236.031 6.16662 237.56C6.60326 240.054 8.6218 240.532 10.5795 241.12C12.6374 241.857 14.1692 243.012 14.0476 245.474C13.9939 245.755 13.9438 246.037 13.8901 246.318C13.593 246.522 13.2924 246.725 12.9953 246.931C9.13002 244.825 5.04998 243.094 1.72867 240.243C0.561919 241.283 1.08445 242.345 0.826758 243.229Z" fill="#3566AA"/>
<path d="M97.4131 242.73C97.1446 244.441 96.7903 246.126 96.3465 247.772C96.3072 247.751 96.2678 247.733 96.232 247.715C96.2141 247.705 96.1998 247.701 96.1855 247.694C96.1497 247.68 96.1139 247.666 96.0781 247.655C96.0459 247.644 96.0137 247.637 95.9886 247.63C95.9636 247.623 95.9421 247.619 95.9206 247.619C95.5055 247.569 95.1941 247.897 94.6823 248.788C93.3402 251.147 91.9551 253.467 90.2801 255.615C80.2088 268.533 67.3459 276.86 50.9971 279.697C45.9006 280.58 40.8149 280.545 35.6969 280.605H35.6683C35.5788 280.605 35.4821 280.598 35.3855 280.591C35.339 280.584 35.2853 280.58 35.2388 280.573C35.0384 280.548 34.8308 280.516 34.6304 280.506C34.4156 280.495 34.2116 280.502 34.0219 280.566C33.9933 280.577 33.9611 280.588 33.936 280.598C33.7499 280.68 33.5853 280.819 33.4564 281.047C33.4421 281.076 33.4278 281.108 33.4099 281.14C33.4063 281.143 33.4063 281.147 33.4063 281.147C33.3705 281.222 33.3383 281.304 33.3133 281.393C33.3025 281.414 33.299 281.439 33.2918 281.461C32.9948 281.332 32.6977 281.204 32.4006 281.072C31.3842 280.63 30.3678 280.185 29.3478 279.743C29.9061 278.891 30.7794 279.066 31.5417 279.18C41.5485 280.73 51.312 279.693 60.7964 276.29C71.2685 272.534 80.1444 266.498 87.3275 257.921C90.7025 253.887 93.2328 249.39 95.8884 244.929C96.3501 244.17 96.8977 243.464 97.4131 242.73Z" fill="#59C8E3"/>
<path d="M95.3945 250.905C94.8398 252.522 94.2027 254.105 93.4869 255.64C92.152 255.451 91.7082 256.756 91.1642 257.475C84.9331 265.767 77.02 271.971 67.6895 276.433C60.5423 279.85 52.9512 281.678 45.0989 282.487C44.1147 282.59 43.1806 282.644 42.4755 283.428C42.2572 283.438 42.0425 283.438 41.8277 283.435C41.8206 283.435 41.817 283.435 41.8098 283.431L38.0626 282.733C38.0555 282.729 38.0483 282.729 38.0411 282.726C37.7477 282.637 37.4542 282.54 37.1678 282.444C38.0411 281.824 39.0361 281.525 40.0955 281.553C49.7373 281.788 58.8458 279.522 67.5285 275.52C72.786 273.094 77.5962 269.883 81.9124 266.035C86.1643 262.243 89.9795 258.024 93.1397 253.264C93.2113 253.157 93.2829 253.05 93.3616 252.946C93.3688 252.939 93.3724 252.932 93.376 252.925C93.4046 252.882 93.4368 252.843 93.4655 252.8C93.5299 252.711 93.5907 252.622 93.6623 252.54C93.7374 252.444 93.8162 252.348 93.8949 252.255C93.945 252.195 93.9951 252.138 94.0488 252.084C94.0954 252.024 94.1526 251.967 94.2027 251.913C94.2815 251.831 94.3602 251.749 94.4425 251.674C94.5391 251.578 94.6429 251.489 94.7432 251.396C94.8469 251.311 94.9507 251.222 95.0617 251.14C95.1655 251.061 95.2693 250.983 95.3802 250.912C95.3838 250.912 95.391 250.908 95.3945 250.905Z" fill="#50C6DF"/>
<path d="M85.5451 219.133C85.2839 220.452 84.8222 221.924 85.47 223.328C84.8257 223.691 84.1815 223.873 83.5266 223.345C83.3727 222.857 83.2152 222.369 83.0577 221.881C82.7356 221.546 82.4135 221.218 82.0878 220.883C83.1901 220.046 83.5015 218.941 83.5659 217.566C83.8666 210.902 82.5567 204.645 79.2389 198.804C79.2067 198.747 79.1674 198.687 79.1244 198.626C79.0815 198.569 79.0349 198.509 78.9848 198.444C78.8846 198.32 78.7808 198.195 78.6842 198.067C78.5876 197.935 78.4981 197.799 78.4337 197.657C78.3299 197.429 78.2869 197.187 78.38 196.923C78.3907 196.887 78.405 196.855 78.4229 196.82C78.4337 196.795 78.448 196.773 78.4587 196.748C78.4695 196.727 78.4802 196.709 78.4981 196.688C78.5124 196.659 78.5339 196.627 78.5589 196.599C78.5804 196.57 78.6019 196.545 78.6269 196.513C78.6305 196.506 78.6377 196.502 78.6448 196.492C78.6735 196.46 78.7057 196.424 78.7379 196.392C80.3663 197.632 81.916 198.975 83.3727 200.404C83.2152 201.705 83.6125 202.924 83.9704 204.146C85.4055 209.053 86.583 213.945 85.5451 219.133Z" fill="#35A5DD"/>
<path d="M93.1075 213.91C93.0431 214.088 92.9822 214.266 92.9286 214.444C92.8713 214.615 92.8212 214.786 92.7711 214.961C92.7675 214.968 92.7675 214.971 92.7639 214.982C92.7067 215.182 92.653 215.381 92.6064 215.584C92.5384 215.844 92.4812 216.108 92.4311 216.372C92.3989 216.539 92.3631 216.71 92.338 216.878C92.2951 217.106 92.2593 217.334 92.2271 217.562C92.1984 217.758 92.1734 217.954 92.1483 218.15C92.1233 218.353 92.1018 218.56 92.0803 218.763C92.0696 218.88 92.0553 219.002 92.0481 219.119C92.0374 219.244 92.0266 219.362 92.0195 219.486C92.0016 219.729 91.9837 219.974 91.9694 220.22C91.9479 220.623 91.9264 221.029 91.9121 221.432C91.905 221.614 91.9014 221.802 91.8942 221.988C91.8584 223.114 91.8405 224.243 91.794 225.369C89.9437 227.753 89.8435 230.654 89.4068 233.455C89.1348 233.854 88.895 234.285 88.3618 234.395C87.6603 233.187 87.9395 231.62 86.9338 230.526C86.923 230.059 86.9159 229.592 86.9051 229.122C89.8649 224.126 90.2479 218.642 89.9974 213.026C89.9652 212.27 89.6788 211.469 89.6788 210.706C89.6788 210.635 89.6824 210.564 89.6896 210.492C89.6896 210.471 89.6931 210.446 89.6967 210.425V210.41C89.7039 210.36 89.7075 210.307 89.7182 210.261C89.7253 210.232 89.7289 210.2 89.7361 210.175C89.7468 210.139 89.754 210.107 89.7647 210.072C89.7755 210.036 89.7862 210.004 89.7969 209.968C89.8077 209.929 89.8256 209.89 89.8435 209.847C89.8578 209.808 89.8757 209.769 89.8971 209.73C89.9258 209.676 89.9544 209.623 89.9902 209.566C90.0117 209.534 90.0332 209.498 90.0582 209.466C90.0833 209.434 90.1047 209.398 90.1334 209.366C90.162 209.334 90.187 209.302 90.2193 209.27C90.2479 209.242 90.2801 209.206 90.3087 209.177C90.341 209.145 90.3767 209.11 90.4125 209.085C91.4003 210.638 92.2987 212.249 93.1075 213.91Z" fill="#3992CF"/>
<path d="M0.826758 243.229C1.08445 242.345 0.561919 241.283 1.72867 240.243C5.04998 243.094 9.13003 244.825 12.9989 246.931C12.4907 248.318 12.2402 249.739 12.4692 251.218C12.344 251.272 12.2259 251.329 12.1078 251.4C12.0505 250.559 11.9932 249.718 11.936 248.841C11.2524 249.069 11.7821 250.064 10.7871 250.096C8.84013 249.002 6.46726 248.478 4.4666 247.063C3.45016 246.343 1.98636 245.57 1.83962 247.958C1.17034 246.45 0.823179 244.875 0.826758 243.229Z" fill="#365CA8"/>
<path d="M90.4125 209.088C90.3768 209.117 90.3446 209.149 90.3088 209.181C90.2801 209.209 90.2479 209.245 90.2193 209.274C90.1907 209.306 90.162 209.338 90.1334 209.37C90.1048 209.402 90.0833 209.438 90.0582 209.47C90.0332 209.502 90.0117 209.537 89.9902 209.569C89.9544 209.623 89.9222 209.676 89.8972 209.733C89.8757 209.772 89.8578 209.812 89.8435 209.851C89.8292 209.894 89.8113 209.933 89.797 209.972C89.7862 210.008 89.7719 210.04 89.7647 210.075C89.7576 210.111 89.7468 210.143 89.7361 210.179C89.729 210.207 89.7254 210.236 89.7182 210.264C89.7075 210.311 89.7039 210.364 89.6967 210.414V210.428C89.6932 210.449 89.6896 210.474 89.6896 210.496C89.6824 210.564 89.6788 210.638 89.6788 210.71C89.6753 211.469 89.9616 212.274 89.9974 213.029C90.2479 218.645 89.865 224.126 86.9051 229.125C86.2394 228.284 85.9352 227.319 85.9317 226.253C85.5881 224.642 87.1127 223.663 87.3167 222.28C87.9216 218.175 88.1506 214.077 87.5744 209.915C87.3382 208.226 86.2251 206.476 87.2595 204.698C88.3904 206.099 89.4426 207.563 90.4125 209.088Z" fill="#3998D4"/>
<path d="M15.0103 202.264C11.7033 207.542 10.1107 213.297 10.082 219.497C9.19087 219.828 8.79359 220.979 7.67337 220.929C7.59105 217.73 7.62685 214.537 8.37128 211.405C8.61107 210.393 8.97613 209.395 8.20306 208.45C10.1787 205.347 12.4979 202.542 15.3718 200.219C16.2916 201.074 15.3789 201.68 15.0103 202.264Z" fill="#BDE5F0"/>
<path d="M87.3203 222.28C87.1163 223.666 85.5917 224.642 85.9353 226.253C85.2016 225.369 85.5989 224.307 85.4664 223.331C84.8186 221.927 85.2803 220.455 85.5416 219.137C86.5795 213.949 85.402 209.056 83.974 204.157C83.6197 202.934 83.2188 201.716 83.3763 200.415C84.7542 201.766 86.0534 203.194 87.2631 204.702C86.2288 206.48 87.3418 208.229 87.578 209.919C88.1543 214.077 87.9252 218.175 87.3203 222.28Z" fill="#369FD9"/>
<path d="M1.83962 247.954C1.98635 245.567 3.45374 246.34 4.4666 247.06C6.46726 248.478 8.84013 249.002 10.7871 250.092C11.7821 250.06 11.2524 249.066 11.936 248.838C11.9968 249.714 12.0505 250.555 12.1078 251.396C12.0183 252.28 11.9252 253.164 11.8357 254.044C11.2452 254.35 11.0341 255.345 10.0856 255.003C8.46076 252.872 5.1645 251.578 3.25331 252.319C2.48383 250.962 1.99709 249.511 1.83962 247.954Z" fill="#3454A4"/>
<path d="M8.37128 211.405C7.63043 214.54 7.59463 217.733 7.67337 220.929C6.99336 221.713 5.9161 220.512 5.25756 221.407C4.54534 221.916 3.69355 221.453 2.90975 221.453C2.86322 221.453 2.82028 221.457 2.77733 221.46C2.73438 221.464 2.69143 221.467 2.65206 221.475C2.61627 221.478 2.58406 221.485 2.54469 221.496C2.51606 221.503 2.49101 221.507 2.46237 221.517C2.43374 221.528 2.40153 221.539 2.36932 221.553C2.34426 221.564 2.3228 221.571 2.29774 221.585C2.27269 221.596 2.25122 221.606 2.22974 221.617C2.13669 221.671 2.04364 221.742 1.95058 221.831C1.92911 221.849 1.91121 221.867 1.89332 221.888V221.884C2.20827 220.705 2.56975 219.543 2.98133 218.407C2.99207 218.378 3.0028 218.342 3.01354 218.31C3.12091 218.022 3.22827 217.729 3.3428 217.444C3.41796 217.248 3.4967 217.052 3.57902 216.86C3.64702 216.689 3.72218 216.518 3.79376 216.347C3.79376 216.34 3.79375 216.336 3.80091 216.329C3.81165 216.293 3.82955 216.261 3.84744 216.222C3.91544 216.058 3.9906 215.891 4.06218 215.727C5.19314 213.183 6.57821 210.756 8.20307 208.44C8.97614 209.395 8.61107 210.393 8.37128 211.405Z" fill="#B4E2EF"/>
<path d="M3.2533 252.323C5.16448 251.578 8.46074 252.872 10.0856 255.006C9.93171 255.056 9.78139 255.109 9.63107 255.166C7.29041 255.883 9.11928 258.195 8.00263 259.382C7.72705 259.706 7.45146 260.03 7.1723 260.355C5.48302 257.86 3.99415 255.273 3.2533 252.323Z" fill="#334C9F"/>
<path d="M56.3692 190.673C53.667 190.324 50.9649 189.978 48.2592 189.632C47.7688 188.952 47.0029 189.283 46.3659 189.137C46.1261 188.638 46.7202 188.585 46.8097 188.267C47.0888 188.039 47.5326 187.915 47.2678 187.198H43.3989C47.4503 186.507 51.4982 186.432 55.5424 187.238C55.0092 187.273 54.4759 187.309 53.939 187.348C54.1395 188.994 56.3942 188.984 56.3692 190.673Z" fill="#B9E4EF"/>
<path d="M95.4697 219.661C95.4267 219.718 95.3838 219.775 95.3444 219.828C95.2979 219.885 95.2549 219.942 95.212 219.999C95.1833 220.035 95.1547 220.071 95.1261 220.106C95.0867 220.153 95.0509 220.203 95.0187 220.249V220.252C94.9829 220.299 94.9507 220.352 94.9257 220.398C94.9113 220.423 94.897 220.445 94.8827 220.47C94.8684 220.495 94.8577 220.516 94.8505 220.541C94.8254 220.594 94.8075 220.648 94.7968 220.701C94.7896 220.719 94.7861 220.737 94.7861 220.755C94.7789 220.79 94.7789 220.83 94.7825 220.865C94.9292 222.494 93.8555 223.182 92.7389 223.894C92.424 224.382 92.109 224.878 91.794 225.369C91.8405 224.243 91.8584 223.114 91.8942 221.988C91.9014 221.802 91.905 221.614 91.9121 221.432C91.9264 221.026 91.9479 220.619 91.9694 220.22C91.9837 219.978 92.0016 219.732 92.0195 219.486C92.0302 219.362 92.0374 219.244 92.0481 219.119C92.0589 218.998 92.0696 218.88 92.0803 218.763C92.1018 218.56 92.1233 218.353 92.1483 218.15C92.1734 217.954 92.1984 217.758 92.2271 217.562C92.2593 217.334 92.2951 217.106 92.338 216.878C92.3667 216.71 92.3989 216.539 92.4311 216.372C92.4812 216.112 92.5384 215.848 92.6064 215.584C92.653 215.385 92.7102 215.182 92.7639 214.982C92.7675 214.971 92.7675 214.968 92.7711 214.961C92.8176 214.786 92.8713 214.615 92.9286 214.444C92.9822 214.262 93.0431 214.088 93.1075 213.91C94.013 215.766 94.804 217.683 95.4697 219.661Z" fill="#398ACA"/>
<path d="M3.33922 235.325C1.90405 235.044 2.03646 232.535 0.057282 233.024L0.0465455 233.027C0.103809 231.089 0.246969 229.157 0.651393 227.272C0.833921 226.417 1.06655 225.569 1.37434 224.732C1.34571 226.093 1.27771 227.468 2.84173 228.145C2.94552 229.824 3.51457 231.409 4.29479 232.835C5.08216 234.256 4.37712 234.773 3.33922 235.325Z" fill="#A4DCEE"/>
<path d="M5.74072 223.335C5.57608 223.652 5.41503 223.976 5.2504 224.293C3.87606 224.208 3.26405 224.853 3.31058 226.221C3.33205 226.887 3.511 227.632 2.84173 228.145C1.27771 227.468 1.34213 226.093 1.37434 224.732C1.06655 225.569 0.830343 226.417 0.651393 227.272C1.15245 224.215 1.93624 221.25 2.98489 218.414C2.57331 219.55 2.20826 220.712 1.89688 221.892V221.895C1.91478 221.874 1.93267 221.856 1.95415 221.838C2.04362 221.749 2.13668 221.678 2.23331 221.624C2.25836 221.614 2.27984 221.599 2.30131 221.592C2.32636 221.578 2.34783 221.564 2.37288 221.56C2.4051 221.546 2.43731 221.532 2.46594 221.525C2.49457 221.514 2.51962 221.51 2.54825 221.503C2.58404 221.492 2.61626 221.485 2.65563 221.482C2.69858 221.471 2.74153 221.471 2.78089 221.467C2.82742 221.464 2.86679 221.46 2.91332 221.46C3.69711 221.457 4.54891 221.924 5.26113 221.414C5.96619 221.916 5.67272 222.668 5.74072 223.335Z" fill="#A6DDEE"/>
<path d="M1.89688 221.888C1.91477 221.867 1.93266 221.849 1.95414 221.834C1.93266 221.852 1.91477 221.87 1.89688 221.888Z" fill="#9EDBEF"/>
<path d="M46.8061 188.267C45.9543 187.879 45.0917 188.225 44.2364 188.21C43.5098 188.196 42.5327 188.506 42.4469 187.248C42.7618 187.23 43.0768 187.216 43.3953 187.198H47.2642C47.529 187.915 47.0852 188.039 46.8061 188.267Z" fill="#7BBACB"/>
<path d="M90.7812 248.35C92.3631 244.22 94.7217 240.418 95.9707 236.149C96.1175 235.643 96.529 235.4 97.0516 235.361C95.4339 238.989 94.3172 242.83 92.2951 246.283C91.8656 247.024 91.701 247.961 90.7812 248.35Z" fill="#69CCE8"/>
<path d="M70.0051 269.035C72.7967 266.804 75.6456 264.649 78.7021 262.781C76.3256 265.586 73.3873 267.617 70.0051 269.035Z" fill="#69CCE8"/>
<path d="M84.5 257.009C86.3754 253.966 88.5407 251.129 90.7812 248.35C89.3568 251.717 87.3167 254.643 84.5 257.009Z" fill="#69CCE8"/>
<path d="M78.7021 262.781C80.4379 260.661 82.3706 258.737 84.5 257.009C83.1436 259.507 81.211 261.431 78.7021 262.781Z" fill="#69CCE8"/>
<path d="M94.6572 225.241C95.7954 226.656 95.3695 228.69 96.5899 230.073C95.2084 229.264 94.8899 230.276 94.693 231.253C94.0345 234.474 93.0181 237.592 91.6831 240.578C89.1957 246.14 86.3253 251.482 81.6011 255.566C81.8588 253.973 82.2632 252.391 82.0914 250.755C83.0148 251.411 83.48 250.858 83.9596 250.121C85.0799 248.396 86.4578 246.803 87.3418 244.972C88.9452 241.647 91.6115 238.55 90.3016 234.399C91.0604 234.217 91.0675 235.204 91.4755 235.297C93.2507 232.101 92.9286 228.37 94.6572 225.241Z" fill="#79D0ED"/>
<path d="M81.5975 255.566C86.3217 251.478 89.1921 246.14 91.6795 240.578C93.0145 237.592 94.0345 234.474 94.6894 231.253C94.8898 230.276 95.2048 229.264 96.5863 230.073C96.597 231.349 96.6113 232.621 96.6221 233.897C95.2155 234.467 95.0545 235.824 94.6572 237.015C92.0302 244.932 87.8428 251.92 82.0806 257.971C81.8587 257.183 80.4307 256.635 81.5975 255.566Z" fill="#6FCDEB"/>
<path d="M94.6572 225.241C92.9286 228.37 93.2507 232.101 91.4755 235.297C91.0675 235.204 91.0604 234.217 90.3016 234.399C90.0046 234.085 89.7075 233.772 89.4104 233.458C89.8435 230.657 89.9473 227.76 91.794 225.373C92.109 224.881 92.424 224.389 92.7389 223.898C93.8126 223.73 94.5212 224.083 94.6572 225.241Z" fill="#7DD1EE"/>
<path d="M39.0826 245.463C36.0405 246.803 33.2381 245.488 30.561 244.434C20.7331 240.564 14.6166 233.241 13.1528 222.957C11.5888 211.953 15.4648 202.696 24.7881 196.075C25.4896 195.576 26.1982 195.298 26.2662 194.14C26.3271 193.107 27.7587 192.544 28.4673 192.772C30.808 193.527 32.6655 192.023 34.7699 191.809C36.8959 191.596 39.0647 190.976 41.0117 192.458C39.981 192.551 39.122 193.085 38.2237 193.523C36.5845 194.147 34.6447 193.965 33.2918 195.351C32.8051 195.344 32.3183 195.337 31.8316 195.33C30.7185 194.525 29.7021 195.059 28.6821 195.547C17.3545 200.971 11.757 213.974 15.2 225.669C18.2028 235.867 25.1066 242.164 35.6289 244.416C36.7957 244.676 38.2988 243.913 39.0826 245.463Z" fill="#CCEAF1"/>
<path d="M10.5688 222.847C11.2989 225.783 12.0505 228.715 13.4391 231.427C18.2636 240.852 25.8153 246.671 36.3948 248.218C37.855 248.432 39.9094 249.451 41.0654 247.281C41.1835 247.366 41.3088 247.441 41.4376 247.505C41.6201 248.585 41.8027 249.665 41.9852 250.744C41.0725 250.894 40.142 251.243 39.2508 251.158C30.2425 250.324 22.3115 247.113 16.2307 240.229C12.0863 235.539 9.16582 230.208 8.64328 223.816C9.48077 223.876 9.90308 223.124 10.5688 222.847Z" fill="#BEE5F0"/>
<path d="M39.0826 245.463C38.2988 243.913 36.7956 244.672 35.6253 244.423C25.1031 242.171 18.1992 235.874 15.1964 225.676C11.7535 213.981 17.351 200.974 28.6785 195.555C29.6985 195.066 30.7185 194.532 31.828 195.337C30.5181 195.897 31.5238 196.72 31.5846 197.436C30.876 197.415 30.1674 197.393 29.4587 197.372C27.0679 197.753 25.1926 199.025 23.446 200.629C18.6108 205.062 15.991 210.649 15.5114 217.031C15.1642 221.667 15.6331 226.367 18.9723 230.258C19.4375 229.681 19.1119 228.968 19.6809 228.619C20.5148 232.578 22.5119 235.742 26.0372 237.863C27.1825 239.477 28.7823 240.403 30.5933 241.162C33.0556 242.192 35.6217 242.591 38.2201 242.926C38.646 243.478 39.0755 244.034 39.5014 244.587C39.5121 244.726 39.53 244.861 39.5515 244.996C39.3976 245.157 39.2401 245.31 39.0826 245.463Z" fill="#CDEBF1"/>
<path d="M39.5586 245.004C39.5371 244.868 39.5229 244.729 39.5085 244.594C40.457 244.131 41.3267 244.583 42.2143 244.829C47.4074 246.262 52.6291 246.411 57.8151 244.904C60.4779 244.131 63.0583 243.076 65.6746 242.149C65.671 242.292 65.6567 242.431 65.6316 242.57C63.9674 243.365 63.7848 245.225 62.7863 246.497C62.2709 245.895 61.7019 246.372 61.2581 246.532C55.7285 248.524 50.0952 248.795 44.3008 247.997C43.3452 247.865 42.4827 246.971 41.4305 247.512C41.3016 247.448 41.1763 247.373 41.0582 247.288C41.1083 246.162 40.4068 245.535 39.5586 245.004Z" fill="#3D8FCD"/>
<path d="M38.2201 193.527C39.1184 193.089 39.9774 192.554 41.0081 192.462C43.2593 191.1 45.6393 190.063 48.2592 189.632C50.9649 189.978 53.667 190.327 56.3692 190.676C56.4157 190.958 56.4622 191.236 56.5087 191.517C56.3369 191.699 56.1652 191.884 55.9898 192.066C53.5811 193.427 50.9577 194.115 48.2341 194.482C46.2728 194.133 47.6436 192.964 47.8619 191.866C46.7345 192.39 45.8863 192.786 45.0452 193.178C45.7288 195.362 44.5406 196.545 41.91 196.428C41.9172 195.277 41.8062 194.297 40.2171 195.045C38.6173 195.797 38.3382 194.753 38.2201 193.527Z" fill="#3DC4EA"/>
<path d="M10.5688 222.847C9.90308 223.124 9.47719 223.876 8.6397 223.819C7.61611 223.98 6.70704 223.495 5.73714 223.331C5.66914 222.668 5.96262 221.913 5.25398 221.407C5.91251 220.513 6.98979 221.713 7.6698 220.929C8.79002 220.979 9.18729 219.828 10.0785 219.497C10.2431 220.616 10.4077 221.731 10.5688 222.847Z" fill="#A6DDEE"/>
<path d="M47.2928 270.076C46.8741 269.876 46.4554 269.677 46.0366 269.481C46.1261 268.073 45.2242 266.968 44.8591 265.7C45.8469 264.919 46.8562 264.73 48.159 265.016C49.4474 265.297 50.9148 265.351 52.1782 265.023C53.6456 264.641 54.8087 264.841 55.9791 265.65C54.8588 266.833 54.0464 268.337 52.4215 268.982C50.836 269.908 48.8891 269.185 47.2928 270.076Z" fill="#3463AE"/>
<path d="M52.4215 268.975C54.0464 268.33 54.8624 266.826 55.979 265.643C56.7306 265.461 57.0026 264.951 56.9525 264.225C57.7471 265.319 58.6669 265.297 59.8336 264.748C61.4513 263.986 62.9008 262.774 64.8191 262.742C65.0983 262.952 65.3739 263.163 65.653 263.373C66.1971 264.189 65.6173 264.478 65.0088 264.805C61.0612 266.936 57.0814 268.967 52.4215 268.975Z" fill="#83D3EF"/>
<path d="M81.5975 255.566C80.4271 256.635 81.8588 257.183 82.0842 257.971C81.7371 258.537 81.1644 258.438 80.6312 258.455C80.3091 258.299 79.9834 258.138 79.6613 257.981C78.9097 257.536 78.2655 256.813 77.249 257.023C76.9269 256.699 76.6048 256.374 76.2863 256.05C76.2791 255.897 76.2755 255.74 76.2755 255.587C77.3922 253.06 79.6684 251.589 81.5939 249.8C81.7585 250.117 81.9232 250.438 82.0914 250.755C82.2632 252.394 81.8551 253.973 81.5975 255.566Z" fill="#55C9F3"/>
<path d="M76.2755 255.583C76.2791 255.737 76.2827 255.893 76.2863 256.047C74.9191 258.128 72.8146 259.407 70.8713 260.829C70.3022 261.246 69.4468 262.386 68.4697 261.181C68.5342 260.415 68.527 259.631 69.0746 258.997C70.0016 257.832 69.9336 256.186 70.9965 255.084C71.7266 254.603 72.5462 254.561 73.3837 254.593C74.2427 255.238 75.1374 255.765 76.2755 255.583Z" fill="#84D3EE"/>
<path d="M69.0782 258.997C68.5306 259.631 68.5377 260.415 68.4733 261.181C67.8148 262.272 67.2099 263.426 65.6531 263.369C65.3739 263.159 65.0983 262.949 64.8192 262.739C65.2594 261.919 64.7547 261.156 64.6688 260.369C64.9838 259.845 65.3345 259.368 66.036 259.368C67.0167 258.976 67.7897 256.891 69.0782 258.997Z" fill="#517386"/>
<path d="M77.7644 217.149C77.7537 217.979 77.6105 218.667 77.045 219.201C76.9699 219.28 76.8804 219.354 76.7802 219.422L76.7766 219.426C75.9463 219.518 75.4738 218.852 74.8403 218.521C74.8475 218.36 74.8475 218.203 74.8368 218.04C74.2713 217.477 74.0387 216.799 73.781 216.023C73.101 213.992 73.7094 211.889 73.1546 209.879C70.9035 201.701 65.8929 196.103 57.7542 193.36C57.0814 193.135 56.0506 193.196 55.9969 192.059C56.1687 191.877 56.3405 191.692 56.5123 191.51H56.5159C59.3827 190.865 62.2602 190.398 65.2129 190.591C64.5901 190.933 63.9316 191.189 63.0977 191.125C70.5634 195.886 75.889 201.872 77.2705 210.72C77.5998 212.858 77.7823 214.986 77.7644 217.149Z" fill="#37C0E9"/>
<path d="M74.8403 218.521C75.4702 218.852 75.9463 219.518 76.7766 219.422C78.2583 220.359 79.9798 219.65 81.5295 220.099C81.5688 220.359 81.6082 220.619 81.6476 220.88C80.3234 221.635 82.0198 224.126 79.672 224.293C79.9476 226.039 79.8581 227.6 77.7286 228.142C77.1703 227.732 77.3349 227.237 77.4781 226.674C77.8037 225.394 78.0865 224.094 77.3027 222.854C77.4494 220.701 74.8189 220.637 74.3465 218.952C74.5111 218.813 74.6757 218.667 74.8403 218.521Z" fill="#A7DDEE"/>
<path d="M44.8627 265.696C45.2242 266.965 46.1261 268.069 46.0402 269.477C44.809 269.031 43.6065 269.135 42.2966 269.27C38.0769 269.705 33.8859 269.067 29.7593 268.23C22.9485 266.847 16.696 264.107 11.0448 260.059C10.0999 259.382 9.2159 258.755 8.0062 259.378C9.11927 258.192 7.29399 255.879 9.63465 255.163C17.419 262.179 26.8031 265.475 37.0426 266.53C39.4763 266.783 42.182 267.382 44.4404 265.561C44.58 265.607 44.7195 265.653 44.8627 265.696Z" fill="#89D4EE"/>
<path d="M79.672 224.297C82.0234 224.129 80.3234 221.638 81.6476 220.883C81.7943 220.901 81.941 220.901 82.0878 220.887C82.4099 221.218 82.7356 221.549 83.0577 221.884C82.5423 222.219 82.4564 222.747 82.2954 223.299C81.8838 224.703 81.0427 225.259 79.672 224.297Z" fill="#7DD1EB"/>
<path d="M42.5149 252.693C42.1427 253.331 41.7776 253.966 41.409 254.596C40.8685 253.766 40.0883 253.631 39.1363 253.62C32.4794 253.559 26.4595 251.507 20.9157 247.865C18.9579 246.579 17.2114 245.014 15.6331 243.714C14.3804 244.056 15.8084 245.855 14.0511 245.47C14.1728 243.012 12.641 241.857 10.5831 241.12C10.9589 240.856 11.3418 240.592 11.7463 240.307C8.5037 235.404 5.7622 230.29 5.25398 224.29C5.41861 223.973 5.57967 223.648 5.7443 223.331C6.71421 223.495 7.62327 223.976 8.64686 223.819C9.16939 230.208 12.0899 235.539 16.2343 240.229C22.315 247.113 30.2497 250.324 39.2544 251.158C40.1456 251.24 41.0761 250.89 41.9888 250.744C42.1212 250.791 42.2536 250.837 42.386 250.873C42.4254 251.482 42.4684 252.088 42.5149 252.693Z" fill="#B4E2EF"/>
<path d="M14.0476 245.474C15.8048 245.859 14.3768 244.056 15.6295 243.717C17.2078 245.018 18.9544 246.582 20.9121 247.869C26.4559 251.507 32.4758 253.559 39.1327 253.623C40.0811 253.631 40.8614 253.773 41.4054 254.6C41.4376 254.764 41.4662 254.924 41.4984 255.088C41.3052 255.566 41.1119 256.047 40.9186 256.524C40.7218 256.855 40.5214 257.183 40.6645 256.948C30.357 256.503 21.4346 253.028 13.8901 246.322C13.9438 246.037 13.9974 245.755 14.0476 245.474Z" fill="#AFE0EF"/>
<path d="M13.8937 246.319C21.4382 253.025 30.3606 256.503 40.6681 256.944C40.5249 257.18 40.7254 256.852 40.9222 256.52C40.9652 257.144 41.0117 257.764 41.0546 258.388C40.2565 259.154 39.2222 259.51 38.2022 259.368C33.6211 258.733 29.0829 258.003 24.7416 256.182C20.5184 254.407 16.8177 251.895 13.1707 249.037C12.8414 249.882 13.2351 250.726 12.5444 251.24L12.4692 251.215C12.2402 249.736 12.4907 248.318 12.9989 246.928C13.296 246.728 13.593 246.522 13.8937 246.319Z" fill="#A5DDEF"/>
<path d="M11.7427 240.307C11.3347 240.592 10.9553 240.856 10.5795 241.12C8.6218 240.532 6.59966 240.054 6.16302 237.556C5.89817 236.024 4.52743 235.757 3.3392 235.322C4.37711 234.77 5.07859 234.253 4.29479 232.828C3.51457 231.406 2.94193 229.816 2.84172 228.138C3.51457 227.625 3.33204 226.88 3.31056 226.214C3.26404 224.846 3.87605 224.201 5.25038 224.286C5.7586 230.294 8.5001 235.404 11.7427 240.307Z" fill="#AADFEF"/>
<path d="M79.672 224.297C81.0427 225.259 81.8838 224.703 82.2954 223.299C82.4564 222.747 82.5423 222.219 83.0577 221.884C83.2152 222.373 83.3691 222.861 83.5266 223.352C82.6784 225.53 83.0613 228.06 81.5975 230.062C81.2754 231.028 81.5904 232.204 80.624 232.956C80.3091 233.116 79.9941 233.277 79.6792 233.437C78.7844 232.778 77.7859 232.763 76.7515 232.963C76.9806 231.338 78.04 229.881 77.7286 228.149C79.8581 227.604 79.9476 226.039 79.672 224.297Z" fill="#A1DCEF"/>
<path d="M81.5975 230.059C83.0613 228.056 82.6783 225.53 83.5266 223.349C84.1779 223.873 84.8258 223.695 85.4664 223.331C85.5989 224.307 85.2016 225.369 85.9353 226.253C85.9424 227.319 86.243 228.284 86.9087 229.125C86.9159 229.592 86.9266 230.059 86.9338 230.526C86.2824 231.338 85.631 232.15 84.9796 232.963C83.2367 232.71 83.4908 230.141 81.5975 230.059Z" fill="#95D8EE"/>
<path d="M82.0914 250.755C81.9268 250.438 81.7621 250.117 81.5939 249.8C81.4364 249.476 81.2754 249.155 81.1179 248.831C83.591 246.661 84.9474 243.838 86.2609 240.66C84.9367 240.66 83.9918 240.66 83.0434 240.66C82.3419 240.66 81.6368 240.663 81.5975 239.691V239.687C82.5638 239.53 83.4765 239.035 84.4965 239.202C85.3626 241.212 87.0483 239.637 87.1234 239.249C87.4455 237.602 89.0632 236.266 88.3653 234.399C88.895 234.289 89.1384 233.857 89.4104 233.458C89.7075 233.772 90.0046 234.085 90.3016 234.399C91.6115 238.554 88.9452 241.647 87.3418 244.972C86.4578 246.803 85.0763 248.396 83.9596 250.121C83.48 250.858 83.0148 251.411 82.0914 250.755Z" fill="#80D2EE"/>
<path d="M88.369 234.399C89.0669 236.266 87.4492 237.602 87.127 239.249C87.0519 239.641 85.3662 241.216 84.5001 239.202C84.0885 238.625 85.4377 237.606 84.0133 237.282C85.1586 236.655 86.0498 235.824 86.2645 234.403C86.0784 233.75 84.8472 233.932 84.9832 232.959C85.6346 232.147 86.286 231.335 86.9374 230.522C87.9431 231.623 87.6639 233.191 88.369 234.399Z" fill="#89D4EE"/>
<path d="M11.8357 254.048C11.9252 253.164 12.0183 252.28 12.1078 251.4C12.2223 251.332 12.344 251.272 12.4692 251.218L12.5444 251.243C12.3225 253.085 14.0261 251.981 14.7455 252.608C19.0904 256.389 24.3193 258.655 29.8488 260.052C33.9611 261.089 38.1771 262.161 42.4791 260.807C42.7905 261.317 43.1018 261.83 43.4132 262.34C43.4311 262.942 43.449 263.548 43.4669 264.15C42.2214 263.69 40.9222 263.701 39.6266 263.751C36.7348 263.865 33.9074 263.505 31.0657 262.942C23.9149 261.527 17.7053 258.17 11.8357 254.048Z" fill="#98D9EE"/>
<path d="M11.8357 254.048C17.7053 258.17 23.9149 261.527 31.0657 262.942C33.9074 263.505 36.7348 263.861 39.6266 263.751C40.9258 263.701 42.2214 263.69 43.4669 264.15C43.789 264.624 44.1147 265.094 44.4368 265.568C42.1784 267.389 39.4763 266.79 37.039 266.537C26.7995 265.479 17.4154 262.186 9.63105 255.17C9.78137 255.113 9.9317 255.06 10.0856 255.01C11.034 255.345 11.2452 254.35 11.8357 254.048Z" fill="#91D7EE"/>
<path d="M38.2201 193.527C38.3346 194.753 38.6173 195.797 40.2207 195.041C41.8098 194.293 41.9208 195.273 41.9136 196.424C41.545 196.663 41.5092 197.03 41.5163 197.418C41.4662 197.479 41.4233 197.561 41.3588 197.593C41.298 197.625 41.2014 197.621 41.1369 197.596C40.031 197.212 41.4018 196.182 40.4748 195.515C39.4978 197.874 37.3432 198.519 35.2531 199.268C34.5981 197.963 33.9432 196.663 33.2918 195.359C34.6447 193.969 36.5809 194.151 38.2201 193.527Z" fill="#D3EDF3"/>
<path d="M33.2882 195.355C33.9432 196.659 34.5981 197.96 35.2495 199.264C34.9167 199.399 34.5802 199.531 34.2474 199.667C33.2345 199.781 32.2217 199.898 31.2911 200.005C30.9798 198.961 32.5187 198.587 31.828 197.593C31.7457 197.543 31.6669 197.489 31.5882 197.432C31.5238 196.716 30.5217 195.893 31.828 195.334C32.3183 195.341 32.8051 195.348 33.2882 195.355Z" fill="#3EC5EB"/>
<path d="M42.3825 250.876C42.2465 250.84 42.114 250.794 41.9852 250.744C41.8027 249.665 41.6201 248.585 41.4376 247.505C42.4863 246.963 43.3524 247.858 44.308 247.99C50.1023 248.788 55.7357 248.517 61.2652 246.525C61.709 246.365 62.2781 245.891 62.7935 246.49C62.772 246.953 62.7541 247.416 62.7326 247.879C62.2566 248.841 61.5265 249.444 60.4528 249.711C57.3641 250.477 54.2576 251.036 51.0687 251.279C48.1339 251.5 45.3065 250.306 42.3825 250.876Z" fill="#3C88C8"/>
<path d="M19.6845 228.623C19.1154 228.972 19.4411 229.681 18.9758 230.262C15.6366 226.367 15.1678 221.671 15.5149 217.035C15.9945 210.653 18.6179 205.065 23.4496 200.632C25.1961 199.032 27.0751 197.757 29.4623 197.375C29.0077 198.099 28.3814 198.747 28.4781 199.702C28.1667 200.454 27.6477 200.999 27.0071 201.53C22.9557 204.891 19.96 208.999 19.0653 214.255C18.6 216.985 16.8964 220.056 20.139 222.373C20.1748 224.136 20.2142 225.9 20.2499 227.661C20.0638 227.978 19.8741 228.299 19.6845 228.623Z" fill="#D4EDF3"/>
<path d="M65.6781 242.146C63.0619 243.072 60.4814 244.127 57.8186 244.9C52.6327 246.408 47.4109 246.258 42.2178 244.826C41.3266 244.58 40.4605 244.127 39.5121 244.59C39.0862 244.038 38.6567 243.482 38.2308 242.93C38.535 242.01 38.8428 241.095 39.1506 240.175C39.2902 240.175 39.4298 240.175 39.5693 240.172C39.5371 241.141 39.7984 241.768 40.8972 242.11C49.8804 244.932 58.2982 243.778 66.1971 238.704C67.6466 237.774 69.1211 236.883 70.5813 235.978C69.7367 238.657 67.4426 240.193 65.6781 242.146Z" fill="#4195D1"/>
<path d="M39.1435 240.175C38.8357 241.095 38.5315 242.014 38.2237 242.93C35.6217 242.595 33.0556 242.196 30.5968 241.166C28.7823 240.407 27.1825 239.48 26.0408 237.866C26.3629 237.667 26.685 237.464 27.0107 237.264C28.4351 236.933 30.0278 238.062 31.3412 236.769C32.4651 236.605 33.4135 235.782 34.616 235.917C35.3784 236.38 35.6396 237.193 35.9546 238.012C37.9875 237.421 39.3618 237.717 39.1435 240.175Z" fill="#D6EEF4"/>
<path d="M27.0107 237.264C26.6885 237.464 26.3664 237.667 26.0408 237.866C22.5154 235.742 20.5184 232.582 19.6845 228.623C19.8741 228.302 20.0638 227.978 20.2499 227.657C21.2556 226.702 20.3072 225.341 20.8047 224.507C22.7194 228.858 25.0028 233.091 28.3349 236.737C28.0557 236.975 27.3185 236.648 27.0107 237.264Z" fill="#3D8FCD"/>
<path d="M28.4817 199.699C28.385 198.744 29.0113 198.095 29.4659 197.372C30.1745 197.393 30.8796 197.415 31.5918 197.436C31.6705 197.493 31.7493 197.543 31.8316 197.596C30.7579 198.37 30.0206 199.663 28.4817 199.699Z" fill="#5296B0"/>
<path d="M65.6781 242.146C67.4426 240.193 69.7367 238.661 70.5778 235.981C71.8734 234.734 71.97 233.127 71.9485 231.481C71.9378 231.331 71.9342 231.181 71.9306 231.032C72.2062 231.374 72.4782 231.716 72.7789 232.09C73.2763 230.96 73.8203 229.898 74.2176 228.783C74.6113 227.664 74.0959 227.112 72.9148 227.183C75.2591 226.627 75.982 224.439 77.3063 222.857C78.0865 224.097 77.8037 225.398 77.4816 226.677C77.3385 227.24 77.1738 227.732 77.7322 228.145C78.0435 229.877 76.9842 231.338 76.7551 232.959C76.773 233.113 76.7837 233.266 76.7909 233.419C75.3342 235.999 73.8776 238.579 72.421 241.159C71.2828 240.931 70.1877 240.286 68.8097 240.899C69.3394 242.025 68.8634 242.869 67.8076 243.357C66.8843 243.785 66.104 243.536 65.6423 242.566C65.6602 242.427 65.6745 242.285 65.6781 242.146Z" fill="#ABDFEF"/>
<path d="M65.6352 242.566C66.0969 243.536 66.8807 243.785 67.8005 243.357C68.8527 242.869 69.3323 242.025 68.8026 240.899C70.1769 240.289 71.2757 240.931 72.4138 241.159C72.9721 241.729 72.6035 243.012 73.8669 243.044C72.9041 243.924 71.4797 242.933 70.3881 244.227C68.3767 246.611 65.9251 248.628 63.656 250.798C62.8078 249.996 62.7541 248.945 62.729 247.883C62.7505 247.42 62.7684 246.956 62.7899 246.493C63.792 245.221 63.971 243.357 65.6352 242.566Z" fill="#79D0ED"/>
<path d="M55.9934 192.062C56.047 193.199 57.0814 193.139 57.7542 193.363C65.8929 196.107 70.907 201.705 73.1582 209.883C73.7094 211.893 73.101 213.995 73.7845 216.026C74.0458 216.799 74.2748 217.477 74.8439 218.043C73.2405 218.617 72.1275 217.876 71.0072 216.81C70.3272 216.165 70.0982 215.082 69.0495 214.808C70.159 213.742 70.1841 212.449 69.862 211.073C67.9973 203.18 63.001 198.412 55.206 196.324C52.9047 195.708 50.5354 195.89 48.2341 195.412C48.2377 195.098 48.2413 194.788 48.2448 194.475C50.9613 194.111 53.5811 193.427 55.9934 192.062Z" fill="#41C5EB"/>
<path d="M48.2377 194.478C48.2341 194.792 48.2305 195.102 48.2269 195.416C47.7474 195.487 47.028 195.184 47.1855 196.182C47.2964 196.884 46.7596 197.311 46.1977 197.165C44.9021 196.827 43.7353 197.636 42.4827 197.408C42.1605 197.411 41.8384 197.415 41.5199 197.418C41.5092 197.03 41.5485 196.663 41.9172 196.424C44.5513 196.538 45.7395 195.355 45.0524 193.174C45.8899 192.782 46.7417 192.387 47.869 191.863C47.6471 192.96 46.2764 194.129 48.2377 194.478Z" fill="#CBEAF1"/>
<path d="M44.4368 265.564C44.1147 265.094 43.789 264.62 43.4669 264.146C43.449 263.544 43.4311 262.938 43.4168 262.336C43.5206 262.151 43.6673 261.787 43.7174 261.801C46.5341 262.514 49.3579 262.575 52.264 262.397C53.9462 262.293 55.9397 261.459 57.4142 263.184C57.0885 263.458 56.8308 263.761 56.9561 264.232C57.0062 264.959 56.7342 265.468 55.9826 265.65C54.8159 264.841 53.6491 264.645 52.1817 265.023C50.9184 265.351 49.451 265.301 48.1625 265.016C46.8598 264.73 45.8469 264.919 44.8627 265.7C44.7195 265.653 44.5799 265.607 44.4368 265.564Z" fill="#3568B1"/>
<path d="M56.9525 264.225C56.8273 263.754 57.085 263.451 57.4107 263.177C58.3591 263.091 58.8888 262.468 59.3183 261.712C61.2473 261.848 62.6539 259.902 64.6688 260.369C64.7547 261.156 65.2594 261.919 64.8192 262.739C62.9044 262.771 61.4513 263.982 59.8336 264.745C58.6669 265.297 57.7471 265.319 56.9525 264.225Z" fill="#89D4EE"/>
<path d="M81.1179 248.831C81.2754 249.155 81.4364 249.476 81.5939 249.8C79.6684 251.589 77.3922 253.057 76.2755 255.587C75.1374 255.769 74.2426 255.241 73.3873 254.596C73.1797 253.976 72.0344 254.34 72.1489 253.125C74.3715 251.567 75.6707 248.927 77.7107 246.914C77.9326 247.295 78.2976 247.384 78.6985 247.391C79.5038 247.872 80.3126 248.35 81.1179 248.831Z" fill="#60CBF1"/>
<path d="M77.7071 246.914C75.6671 248.923 74.3679 251.564 72.1454 253.125C72.0308 254.34 73.1761 253.976 73.3837 254.596C72.5462 254.564 71.7266 254.607 70.9965 255.088C71.0072 254.115 71.1719 253.085 69.8691 252.323C69.4611 254.151 68.2442 255.12 66.8305 255.868C65.9394 256.339 65.6495 257.066 65.6495 257.992C64.4255 257.707 63.1549 257.49 62.7541 256.011C63.1657 255.448 63.2695 254.796 63.3017 254.122C64.6474 254.236 65.4741 253.249 66.4369 252.597C69.8763 250.27 72.6858 247.213 75.796 244.508C76.136 245.068 76.705 244.975 77.2275 245.004C77.3922 245.638 77.5496 246.276 77.7071 246.914Z" fill="#68CCF0"/>
<path d="M65.6531 257.989C65.6531 257.066 65.943 256.335 66.8341 255.865C68.2442 255.117 69.4611 254.147 69.8727 252.319C71.1719 253.082 71.0072 254.115 71.0001 255.084C69.9407 256.182 70.0087 257.832 69.0817 258.997C67.7933 256.891 67.0202 258.976 66.0396 259.368C66.1863 258.833 65.9394 258.405 65.6531 257.989Z" fill="#4F788E"/>
<path d="M65.6531 257.989C65.9394 258.405 66.1863 258.833 66.036 259.371C65.3345 259.371 64.9838 259.849 64.6688 260.372C62.6539 259.906 61.2509 261.848 59.3218 261.716C59.5437 260.665 58.5345 259.963 58.5309 258.972C60.3526 258.566 60.9861 256.485 62.7577 256.007C63.1585 257.483 64.429 257.703 65.6531 257.989Z" fill="#91D7EE"/>
<path d="M69.0424 214.808C70.0911 215.082 70.3201 216.165 71.0001 216.81C72.1203 217.876 73.2334 218.617 74.8368 218.043C74.844 218.203 74.8439 218.364 74.8403 218.521C74.6757 218.667 74.5111 218.809 74.3465 218.955C73.6593 219.985 72.8039 220.669 71.4582 220.341C71.1003 219.91 70.746 219.479 70.3881 219.048C70.2056 218.182 69.7296 217.487 69.1068 216.885C68.4089 216.204 68.5628 215.513 69.0424 214.808Z" fill="#B8E3EF"/>
<path d="M71.4582 220.341C72.8039 220.669 73.6593 219.985 74.3465 218.955C74.8189 220.641 77.4494 220.705 77.3027 222.857C75.9785 224.439 75.2555 226.627 72.9113 227.183C72.3494 228.063 71.4618 228.438 70.5062 228.701C70.3093 228.819 70.1161 228.94 69.9192 229.058C68.7596 227.076 70.9858 226.143 71.3329 224.614C71.655 223.174 73.169 221.827 71.4582 220.341Z" fill="#36C2EA"/>
<path d="M41.502 255.088C41.4698 254.924 41.4412 254.764 41.409 254.6C41.7776 253.966 42.1462 253.331 42.5149 252.697C43.3524 253.367 44.2757 253.609 45.3781 253.688C48.4775 253.905 51.5518 254.211 54.662 253.67C57.7363 253.135 60.8393 252.79 63.6309 251.247C63.8206 252.113 63.7383 252.925 63.1728 253.648C62.6395 254.14 62.6073 254.931 61.5551 255.149C56.7736 256.146 51.9706 256.92 47.096 256.467C45.217 256.292 43.0839 256.642 41.502 255.088Z" fill="#397BBE"/>
<path d="M63.6309 251.243C60.8393 252.786 57.7363 253.132 54.662 253.666C51.5518 254.208 48.4775 253.901 45.3781 253.684C44.2722 253.606 43.3524 253.363 42.5149 252.693C42.4719 252.088 42.429 251.478 42.386 250.873C45.3101 250.302 48.1375 251.5 51.0722 251.279C54.2611 251.036 57.3677 250.477 60.4563 249.711C61.53 249.444 62.2602 248.841 62.7362 247.879C62.7612 248.941 62.8149 249.992 63.6631 250.794C63.681 250.947 63.6703 251.097 63.6309 251.243Z" fill="#3B81C3"/>
<path d="M41.502 255.088C43.0875 256.642 45.217 256.292 47.096 256.467C51.9706 256.92 56.7736 256.146 61.5551 255.149C62.6109 254.928 62.6431 254.14 63.1728 253.648C63.2157 253.805 63.2587 253.966 63.3052 254.122C63.2695 254.796 63.1657 255.448 62.7541 256.011C60.9825 256.488 60.349 258.569 58.5273 258.976C54.7765 259.157 51.04 259.592 47.2678 259.439C45.4997 259.368 43.7102 258.331 41.9458 259.471C41.6487 259.111 41.3517 258.751 41.0511 258.395C41.0081 257.771 40.9616 257.151 40.9186 256.528C41.1155 256.043 41.3088 255.566 41.502 255.088Z" fill="#3876BB"/>
<path d="M41.0547 258.391C41.3517 258.751 41.6488 259.111 41.9494 259.467C42.1284 259.913 42.3037 260.358 42.4827 260.804C38.1807 262.158 33.9647 261.089 29.8524 260.048C24.3228 258.651 19.0939 256.385 14.749 252.604C14.0261 251.977 12.3261 253.082 12.5479 251.24C13.2387 250.726 12.845 249.882 13.1743 249.037C16.8213 251.895 20.522 254.407 24.7452 256.182C29.0865 258.006 33.6247 258.733 38.2058 259.368C39.2258 259.51 40.2565 259.154 41.0547 258.391Z" fill="#9FDBEF"/>
<path d="M77.2311 245C76.705 244.972 76.1395 245.064 75.7995 244.505C75.6421 244.024 75.4846 243.539 75.3271 243.058C76.4545 241.294 77.5818 239.527 78.7092 237.763C80.7886 236.712 79.987 235.019 79.6792 233.437C79.9941 233.277 80.3091 233.116 80.624 232.956C81.2289 234.363 80.4594 236.227 82.0843 237.292C81.6261 238.034 81.551 238.85 81.6011 239.691V239.694C79.3499 240.813 79.2175 243.664 77.2311 245Z" fill="#98D9EE"/>
<path d="M82.0842 237.289C80.4594 236.223 81.2289 234.36 80.624 232.952C81.5903 232.204 81.2789 231.024 81.5975 230.059C83.4908 230.141 83.2367 232.71 84.9832 232.963C84.8472 233.936 86.0784 233.754 86.2645 234.406C86.0498 235.828 85.1586 236.655 84.0133 237.285C83.3691 236.854 82.7249 236.844 82.0842 237.289Z" fill="#69CDEF"/>
<path d="M79.6756 233.433C79.9834 235.016 80.7851 236.708 78.7057 237.759C78.9168 236.754 77.6141 237.317 77.5139 236.569C77.8038 235.65 77.9469 234.606 78.9132 233.964C78.2368 233.28 77.4745 233.49 76.7837 233.416C76.7766 233.262 76.7658 233.109 76.7479 232.956C77.7859 232.756 78.7844 232.774 79.6756 233.433Z" fill="#78D0EF"/>
<path d="M81.1179 248.831C80.309 248.35 79.5038 247.872 78.6949 247.391C80.8531 245.602 81.78 243.022 83.0398 240.66C83.9883 240.66 84.9367 240.66 86.2573 240.66C84.9474 243.838 83.5946 246.661 81.1179 248.831Z" fill="#89D4EE"/>
<path d="M83.0434 240.66C81.78 243.022 80.8566 245.602 78.6985 247.391C78.2941 247.384 77.9326 247.291 77.7107 246.914C77.5532 246.276 77.3922 245.638 77.2347 245C79.221 243.664 79.3535 240.813 81.6011 239.691C81.6369 240.667 82.3419 240.66 83.0434 240.66Z" fill="#90D7EF"/>
<path d="M82.0842 237.289C82.7285 236.844 83.3727 236.854 84.0169 237.282C85.4413 237.606 84.092 238.625 84.5036 239.202C83.48 239.035 82.571 239.53 81.6047 239.687C81.551 238.846 81.6261 238.03 82.0842 237.289Z" fill="#90D7EF"/>
<path d="M42.4827 260.804C42.3037 260.358 42.1284 259.913 41.9494 259.467C43.7139 258.327 45.5033 259.364 47.2714 259.435C51.0401 259.589 54.7765 259.154 58.5309 258.972C58.5309 259.963 59.5437 260.661 59.3218 261.716C58.8959 262.471 58.3627 263.099 57.4142 263.18C55.9397 261.459 53.9462 262.29 52.2641 262.393C49.3615 262.571 46.5341 262.514 43.7174 261.798C43.6673 261.784 43.5206 262.147 43.4168 262.332C43.1054 261.826 42.794 261.313 42.4827 260.804Z" fill="#366FB6"/>
<path d="M41.5163 197.415C41.8384 197.411 42.1606 197.408 42.4791 197.404C42.794 197.614 43.109 197.821 43.4418 198.045C40.5786 199.186 38.5458 201.26 36.5093 203.847C37.3683 203.993 37.8192 204.071 38.2702 204.146C36.0226 204.563 34.4228 206.031 32.8051 207.474C32.5366 206.736 32.2682 205.999 31.9175 205.033C30.6004 205.033 29.2476 205.033 27.8983 205.033C28.904 204.263 30.0636 204.762 31.148 204.652C31.692 204.595 32.3219 204.72 32.6011 204.075C32.8766 203.433 32.6762 202.867 32.2897 202.293C31.9998 201.865 31.1909 201.947 31.2411 201.227C32.2002 200.572 33.9217 201.466 34.2546 199.674C34.5874 199.538 34.9238 199.407 35.2567 199.271C37.3468 198.523 39.5014 197.878 40.4784 195.519C41.4054 196.185 40.0346 197.215 41.1405 197.6C41.2085 197.625 41.3016 197.625 41.3624 197.596C41.4269 197.557 41.4662 197.475 41.5163 197.415Z" fill="#49C6EC"/>
<path d="M34.2509 199.667C33.9181 201.459 32.1966 200.565 31.2374 201.22C31.1873 201.94 31.9962 201.858 32.2861 202.286C32.6762 202.86 32.873 203.426 32.5975 204.067C32.3219 204.712 31.6884 204.591 31.1444 204.645C30.06 204.755 28.9004 204.26 27.8947 205.026C27.0071 205.689 27.6477 206.815 27.05 207.634C26.2805 208.686 26.1016 209.726 27.9483 209.887C28.453 209.929 28.4315 210.425 28.4816 210.809C28.0414 211.533 27.6585 212.274 26.8174 212.677C25.8117 213.158 25.3428 214.002 25.4896 215.139C25.3536 215.463 25.2176 215.787 25.0816 216.112C24.7058 216.4 24.3264 216.693 23.9506 216.981C22.6407 217.32 22.4403 218.624 21.7316 219.49C21.2019 220.445 20.6687 221.4 20.139 222.355C16.9 220.039 18.6036 216.967 19.0653 214.237C19.96 208.981 22.9521 204.873 27.0071 201.513C27.6477 200.982 28.1667 200.436 28.478 199.685C30.017 199.652 30.7579 198.355 31.8244 197.582C32.5151 198.576 30.9762 198.95 31.2875 199.991C32.2252 199.898 33.2381 199.784 34.2509 199.667Z" fill="#DAF0F5"/>
<path d="M20.139 222.365C20.6687 221.41 21.202 220.455 21.7316 219.501C22.3794 220.256 22.519 221.218 22.7731 222.123C24.355 227.746 27.229 232.614 31.3341 236.765C30.0206 238.059 28.4279 236.933 27.0035 237.26C27.3113 236.644 28.0486 236.972 28.3313 236.733C24.9957 233.088 22.7123 228.851 20.8011 224.503C20.3036 225.337 21.2521 226.699 20.2464 227.654C20.2141 225.893 20.1784 224.129 20.139 222.365Z" fill="#4094D0"/>
<path d="M25.0816 216.122C25.2176 215.798 25.3536 215.474 25.4896 215.15C26.5991 215.214 27.0572 215.869 26.9856 216.903C26.8997 218.118 27.229 219.265 27.4545 220.434C30.4608 236.02 48.7387 244.063 62.4284 235.411C63.8886 234.488 65.2594 233.423 66.6731 232.421L66.6874 232.4C66.9165 233.262 68.119 232.624 68.366 233.458C63.0726 240.175 50.947 243.699 39.6374 239.227C39.6123 239.555 39.5873 239.865 39.5622 240.172C39.4226 240.172 39.283 240.172 39.1435 240.175C39.3582 237.72 37.9874 237.421 35.951 238.012C35.6396 237.193 35.3748 236.377 34.6125 235.917C34.7055 235.799 34.795 235.685 34.8845 235.568C34.6697 235.497 34.4586 235.425 34.2438 235.358C34.2438 234.346 33.4207 233.872 32.8409 233.245C29.6054 229.756 27.1717 225.826 26.1839 221.125C25.8332 219.454 25.9155 217.69 25.0816 216.122Z" fill="#459FD8"/>
<path d="M39.5658 240.172C39.5908 239.862 39.6159 239.555 39.6409 239.227C50.9541 243.699 63.0762 240.175 68.3695 233.458C68.1226 232.624 66.92 233.262 66.691 232.4C68.4769 232.275 70.1197 231.356 71.9485 231.477C71.9736 233.123 71.8734 234.73 70.5778 235.978C69.114 236.886 67.6394 237.777 66.1935 238.707C58.2911 243.781 49.8769 244.936 40.8936 242.114C39.7948 241.768 39.53 241.141 39.5658 240.172Z" fill="#419AD4"/>
<path d="M34.251 235.358C34.4657 235.429 34.6769 235.5 34.8916 235.568C34.8022 235.682 34.7091 235.799 34.6196 235.917C33.4171 235.782 32.4651 236.605 31.3449 236.769C27.2362 232.614 24.3658 227.75 22.7839 222.127C22.5298 221.225 22.3902 220.26 21.7424 219.504C22.4475 218.638 22.6515 217.334 23.9614 216.995C25.2212 221.931 26.0086 227.094 29.5231 231.082C30.8975 232.653 31.6777 235.04 34.251 235.358Z" fill="#419AD4"/>
<path d="M76.7873 233.419C77.4817 233.494 78.2404 233.284 78.9168 233.968C77.9505 234.609 77.8074 235.65 77.5174 236.573C77.6177 237.321 78.9204 236.758 78.7092 237.763C77.5818 239.527 76.4545 241.294 75.3271 243.058C74.8439 242.951 74.3643 242.292 73.8705 243.044C72.6071 243.012 72.9757 241.729 72.4174 241.159C73.8705 238.579 75.3307 235.999 76.7873 233.419Z" fill="#A1DCEF"/>
<path d="M71.9449 231.481C70.1161 231.359 68.4733 232.279 66.6874 232.403L66.6731 232.425C66.4583 232.111 66.2436 231.798 66.0324 231.484C66.1684 230.347 67.1097 230.24 67.9365 230.098C68.7346 229.963 69.4683 229.809 69.9192 229.061C70.1161 228.943 70.3093 228.822 70.5062 228.705C71.0609 229.432 70.8319 230.636 71.9271 231.035C71.9306 231.178 71.9378 231.331 71.9449 231.481Z" fill="#B8E3EF"/>
<path d="M71.927 231.028C70.8319 230.629 71.0609 229.425 70.5062 228.698C71.4618 228.437 72.3493 228.063 72.9113 227.18C74.0959 227.108 74.6112 227.661 74.214 228.78C73.8203 229.895 73.2763 230.957 72.7752 232.086C72.4782 231.712 72.2026 231.37 71.927 231.028Z" fill="#B5E2EF"/>
<path d="M73.8669 243.04C74.3608 242.288 74.8368 242.948 75.3235 243.054C75.481 243.535 75.6385 244.02 75.7959 244.501C72.6858 247.209 69.8763 250.263 66.4369 252.59C65.4741 253.242 64.6509 254.226 63.3017 254.115C63.2587 253.958 63.2158 253.798 63.1728 253.641C63.7383 252.918 63.8206 252.105 63.6274 251.24C63.6667 251.093 63.6775 250.944 63.656 250.794C65.9251 248.624 68.3731 246.607 70.3845 244.223C71.4833 242.93 72.9041 243.924 73.8669 243.04Z" fill="#6FCEEF"/>
<path d="M38.2702 204.146C37.8192 204.068 37.3683 203.993 36.5093 203.847C38.5458 201.26 40.5786 199.186 43.4418 198.045C43.109 197.824 42.794 197.614 42.4791 197.404C43.7317 197.632 44.8985 196.82 46.1941 197.162C46.756 197.308 47.2928 196.884 47.1819 196.178C47.0244 195.18 47.7438 195.483 48.2234 195.412C50.5211 195.89 52.894 195.708 55.1952 196.324C62.9903 198.409 67.9901 203.177 69.8512 211.073C70.1769 212.449 70.1519 213.742 69.0388 214.808C68.5592 215.517 68.4053 216.208 69.1032 216.885C69.726 217.487 70.202 218.186 70.3845 219.048C69.5792 219.971 69.3645 221.19 68.8062 222.219C67.9758 223.744 67.8398 225.907 65.5242 226.257C64.9408 225.893 64.4219 225.469 64.2036 224.781C66.6516 220.477 67.9043 216.008 66.6015 211.016C64.2358 201.94 54.755 196.823 45.7503 199.667C43.1161 200.497 41.6738 203.08 38.9824 203.654C38.7462 203.814 38.5064 203.982 38.2702 204.146Z" fill="#4FC7EB"/>
<path d="M65.5278 226.257C67.8434 225.907 67.9794 223.745 68.8098 222.219C69.3717 221.19 69.5828 219.971 70.3881 219.048C70.746 219.479 71.1003 219.91 71.4582 220.341C73.169 221.827 71.655 223.174 71.3329 224.614C70.9893 226.146 68.7596 227.076 69.9192 229.058C69.4683 229.806 68.7346 229.959 67.9365 230.094C67.1097 230.237 66.1649 230.344 66.0324 231.481C65.7461 231.01 65.4634 230.543 65.1771 230.073C65.1699 229.923 65.1663 229.774 65.1699 229.621C66.1219 228.587 65.5314 227.39 65.5278 226.257Z" fill="#41C5EB"/>
<path d="M38.2702 204.146C38.5064 203.982 38.7462 203.818 38.9824 203.654C40.7862 204.923 42.59 206.191 44.3938 207.46C45.3244 208.276 46.2585 207.086 47.1855 207.467C47.4646 207.923 47.1855 208.607 47.7867 208.935C49.2649 209.37 49.5655 210.784 50.292 211.861C50.6356 212.37 51.0937 212.727 50.0522 212.812C48.9213 212.527 47.6364 211.533 47.1425 213.649C46.9063 214.665 46.0402 214.223 45.3745 214.141C44.9128 213.425 44.0145 213.739 43.4275 213.318C42.3323 213.311 41.477 212.67 40.5428 212.238C40.2028 211.829 39.9129 211.405 40.0454 210.827C40.7075 209.837 40.4319 208.989 39.2723 209.163C37.8836 209.37 36.384 209.021 35.092 209.819C33.8537 209.694 32.7442 210.004 31.7743 210.788C31.6311 210.941 31.488 211.098 31.3484 211.251C30.5145 211.198 29.5875 211.665 28.8896 210.827C29.1223 210.296 29.5016 209.901 30.0993 209.887C31.7099 209.851 32.3326 208.753 32.8086 207.474C34.4228 206.027 36.0226 204.563 38.2702 204.146Z" fill="#E9F5F8"/>
<path d="M32.8051 207.47C32.3291 208.75 31.7099 209.847 30.0958 209.883C29.4945 209.897 29.1187 210.289 28.8861 210.824C28.7501 210.824 28.6176 210.82 28.4816 210.816C28.4315 210.432 28.4566 209.936 27.9484 209.894C26.1016 209.733 26.2806 208.693 27.05 207.642C27.6477 206.822 27.0107 205.696 27.8947 205.033C29.2475 205.033 30.5968 205.033 31.9139 205.033C32.2682 205.995 32.5367 206.733 32.8051 207.47Z" fill="#3EC5EC"/>
<path d="M28.4816 210.816C28.6176 210.82 28.7501 210.824 28.8861 210.824C29.584 211.661 30.5109 211.194 31.3448 211.248C30.944 212.085 29.3155 211.494 29.4086 212.983C29.5124 214.658 29.2833 216.365 29.5231 218.015C31.1516 229.343 40.9079 237.364 52.146 236.305C57.2317 235.824 61.5587 233.651 65.1807 230.073C65.467 230.543 65.7533 231.01 66.036 231.481C66.2508 231.794 66.4619 232.108 66.6767 232.421C65.263 233.423 63.8922 234.488 62.432 235.411C48.7423 244.063 30.4644 236.02 27.458 220.434C27.2326 219.262 26.9033 218.118 26.9892 216.903C27.0608 215.869 26.6027 215.217 25.4932 215.15C25.3464 214.013 25.8153 213.168 26.821 212.687C27.662 212.281 28.045 211.54 28.4816 210.816Z" fill="#46A6DC"/>
<path d="M34.251 235.358C31.6813 235.04 30.901 232.653 29.516 231.082C26.0014 227.094 25.214 221.927 23.9542 216.995C24.33 216.703 24.7094 216.415 25.0852 216.122C25.9191 217.69 25.8368 219.454 26.1875 221.125C27.1789 225.826 29.609 229.759 32.8444 233.244C33.4278 233.872 34.251 234.346 34.251 235.358Z" fill="#449ED7"/>
<path d="M44.3939 207.456C42.5901 206.188 40.7862 204.919 38.9824 203.651C41.6738 203.073 43.1162 200.493 45.7503 199.663C54.7551 196.82 64.2358 201.937 66.6016 211.012C67.9007 216.005 66.6517 220.477 64.2036 224.778C64.0676 224.724 63.9316 224.678 63.792 224.639C62.203 223.477 61.7878 221.696 61.3082 219.946C62.4499 219.704 63.0619 218.923 63.18 217.847C63.3697 216.137 63.6024 214.458 63.2588 212.687C61.7305 204.802 52.4896 200.116 45.7002 203.893C45.8899 204.32 46.0832 204.748 46.2728 205.179C44.6337 204.923 43.4991 203.501 41.5521 203.002C42.5113 204.859 44.104 205.496 45.3674 206.516C44.9558 206.915 44.6766 207.185 44.3939 207.456Z" fill="#57C8EB"/>
<path d="M63.7956 224.642C63.9351 224.682 64.0712 224.728 64.2036 224.781C64.4219 225.469 64.9409 225.89 65.5242 226.257C65.5314 227.393 66.1219 228.591 65.1663 229.624C64.9122 228.687 63.9065 228.648 63.3339 228.095C63.1621 227.625 62.9867 227.151 62.8149 226.681C63.1442 226 63.4699 225.32 63.7956 224.642Z" fill="#CFEBF2"/>
<path d="M63.3375 228.092C63.9137 228.644 64.9194 228.683 65.1699 229.621C65.1663 229.77 65.1699 229.92 65.1771 230.073C61.5551 233.651 57.2281 235.828 52.1424 236.305C40.9043 237.364 31.148 229.343 29.5196 218.015C29.2833 216.365 29.5124 214.658 29.405 212.983C29.312 211.494 30.9404 212.085 31.3413 211.248C31.4844 211.094 31.6276 210.938 31.7707 210.784C32.8122 211.878 32.3326 213.24 32.2754 214.444C31.9855 220.537 34.1221 225.637 38.7963 229.46C42.5149 232.503 46.8347 234.078 51.8596 233.526C56.3835 233.034 60.0305 230.989 63.3375 228.092Z" fill="#48AADF"/>
<path d="M63.3375 228.092C60.0305 230.985 56.3835 233.031 51.8596 233.526C46.8347 234.075 42.5185 232.503 38.7963 229.46C34.1221 225.637 31.9891 220.537 32.2754 214.444C32.3326 213.24 32.8122 211.878 31.7707 210.784C32.7407 210 33.8501 209.69 35.0921 209.815C36.5773 210.054 35.722 211.126 35.6003 211.668C34.8773 214.946 35.0241 218.125 36.198 221.286C38.6639 227.914 45.013 230.839 50.3887 230.932C54.0392 230.996 57.2782 229.218 60.2953 227.105C61.301 226.403 61.4299 225.761 61.2688 224.785C62.2208 225.063 62.2029 226.125 62.8113 226.677C62.9903 227.151 63.1621 227.621 63.3375 228.092Z" fill="#4BB1E4"/>
<path d="M46.28 205.179C46.0903 204.752 45.897 204.32 45.7073 203.893C52.4931 200.116 61.7341 204.802 63.2659 212.687C63.6095 214.458 63.3769 216.137 63.1872 217.847C63.0691 218.923 62.4571 219.704 61.3153 219.946C60.0305 219.059 60.0198 217.106 58.402 216.5C58.2517 215.709 58.0978 214.918 57.9475 214.127C57.901 212.57 59.5939 211.226 58.5166 209.388C57.1959 209.951 55.7786 209.038 54.4723 209.801C53.0765 209.245 51.6664 208.764 51.4194 206.932C51.3443 206.373 50.7108 206.077 50.1024 206.305C49.5834 206.501 49.1861 206.744 49.4295 207.524C49.9127 209.063 48.6958 208.86 47.7903 208.924C47.189 208.597 47.4718 207.912 47.189 207.456C46.7345 206.761 46.2048 206.091 46.28 205.179Z" fill="#64CBEB"/>
<path d="M61.2724 224.785C61.4334 225.761 61.3046 226.403 60.2989 227.105C57.2818 229.218 54.0428 230.996 50.3922 230.932C45.0166 230.839 38.6675 227.914 36.2015 221.286C35.024 218.125 34.8773 214.946 35.6038 211.668C35.7255 211.127 36.5809 210.05 35.0956 209.815C36.3876 209.017 37.8872 209.366 39.2759 209.16C40.4355 208.985 40.7111 209.833 40.049 210.824C39.6052 210.706 39.555 209.926 38.8214 210.179C38.2845 212.905 37.4005 215.517 38.0519 218.521C39.4763 225.066 46.9421 229.556 53.4057 227.718C56.3298 226.884 58.2052 224.65 60.7284 223.338C60.9109 223.819 61.0934 224.304 61.2724 224.785Z" fill="#4BB7E8"/>
<path d="M60.7283 223.335C58.2087 224.65 56.3298 226.884 53.4057 227.714C46.9421 229.553 39.4727 225.063 38.0519 218.517C37.4005 215.517 38.2845 212.905 38.8213 210.175C39.555 209.922 39.6051 210.702 40.0489 210.82C39.9165 211.394 40.2064 211.821 40.5464 212.231C40.5428 213.749 40.4999 215.264 40.5428 216.782C40.6574 221.147 44.6801 224.895 49.0358 225.316C53.5954 225.758 56.5946 223.47 59.3683 220.445C59.9947 221.329 60.6997 222.173 60.7283 223.335Z" fill="#4CBCEC"/>
<path d="M59.3612 220.448C56.5875 223.474 53.5919 225.761 49.0287 225.32C44.673 224.895 40.6502 221.15 40.5357 216.785C40.4963 215.271 40.5357 213.753 40.5393 212.235C41.4734 212.666 42.3288 213.307 43.4239 213.315C43.4132 213.553 43.4347 213.803 43.381 214.034C42.6187 217.263 43.9751 220.338 46.8705 221.917C49.8125 223.524 52.6291 222.996 55.2132 220.548C56.2045 219.611 56.5875 218.15 57.9332 217.558C58.81 218.328 59.2073 219.326 59.3612 220.448Z" fill="#4CC1EF"/>
<path d="M57.9368 217.555C56.5875 218.146 56.2045 219.607 55.2167 220.545C52.6291 222.993 49.816 223.52 46.8741 221.913C43.9787 220.334 42.6222 217.259 43.3846 214.031C43.4383 213.799 43.4132 213.553 43.4275 213.311C44.0145 213.731 44.9128 213.418 45.3745 214.134C45.4568 214.79 46.4196 214.483 46.5055 215.428C46.7846 218.513 48.6171 219.985 51.0937 219.426C53.2734 218.93 54.3864 216.653 53.6778 214.145C54.4115 213.867 55.1416 213.592 55.8753 213.314C56.566 213.585 57.2568 213.86 57.9475 214.131C58.0979 214.922 58.2517 215.713 58.4021 216.507C58.2446 216.857 58.0907 217.206 57.9368 217.555Z" fill="#4EC8F4"/>
<path d="M53.6742 214.145C54.3864 216.653 53.2733 218.93 51.0901 219.426C48.6135 219.989 46.781 218.513 46.5019 215.428C46.416 214.483 45.4568 214.79 45.3709 214.134C46.033 214.216 46.9027 214.658 47.1389 213.642C47.6328 211.526 48.9213 212.52 50.0522 212.805C51.108 213.66 52.7436 212.955 53.6742 214.145Z" fill="#55C9F3"/>
<path d="M53.6742 214.145C52.7436 212.958 51.108 213.664 50.0522 212.808C51.0937 212.723 50.6356 212.367 50.292 211.857C49.5691 210.781 49.2684 209.366 47.7867 208.931C48.6886 208.867 49.9055 209.07 49.4259 207.531C49.1825 206.751 49.5798 206.505 50.0988 206.312C50.7072 206.084 51.3407 206.38 51.4158 206.94C51.6628 208.771 53.0765 209.256 54.4687 209.812C55.6104 210.713 55.5531 212.092 55.8717 213.318C55.138 213.592 54.4079 213.867 53.6742 214.145Z" fill="#E4F3F7"/>
<path d="M46.28 205.179C46.2048 206.088 46.7345 206.761 47.189 207.463C46.2585 207.082 45.3244 208.272 44.3939 207.456C44.673 207.185 44.9522 206.915 45.3709 206.516C44.1111 205.5 42.5149 204.862 41.5557 203.002C43.5062 203.501 44.6408 204.926 46.28 205.179Z" fill="#E4F3F7"/>
<path d="M57.9368 217.555C58.0907 217.206 58.2446 216.857 58.3949 216.504C60.0162 217.106 60.0269 219.062 61.3082 219.95C61.7842 221.696 62.1993 223.477 63.792 224.642C63.4663 225.32 63.1406 226 62.8149 226.677C62.2065 226.125 62.2244 225.063 61.2724 224.785C61.0898 224.3 60.9073 223.819 60.7283 223.335C60.6997 222.173 59.9947 221.325 59.3612 220.445C59.2073 219.326 58.8101 218.328 57.9368 217.555Z" fill="#D4EDF4"/>
<path d="M55.8717 213.314C55.5532 212.085 55.6104 210.71 54.4687 209.808C55.7751 209.042 57.1923 209.958 58.5129 209.395C59.5902 211.233 57.8974 212.573 57.9439 214.134C57.2532 213.86 56.5624 213.589 55.8717 213.314Z" fill="#DAF0F5"/>
</svg>
