<svg width="67" height="67" viewBox="0 0 67 67" fill="none" xmlns="http://www.w3.org/2000/svg">
<path d="M14.1593 0H52.8407C60.6601 0 67 6.33987 67 14.1593V52.8407C67 60.6601 60.6601 67 52.8407 67H14.1593C6.33987 67 0 60.6601 0 52.8407V14.1593C0 6.33987 6.33987 0 14.1593 0Z" fill="#3E1893"/>
<path d="M19.541 45.7862C17.2323 45.7862 15.3535 43.9074 15.3535 41.5987V39.6584H16.7493V41.5987C16.7493 43.1383 18.0014 44.3903 19.541 44.3903C21.0806 44.3903 22.3327 43.1383 22.3327 41.5987V39.6584H23.7285V41.5987C23.7285 43.9074 21.8497 45.7862 19.541 45.7862Z" fill="white"/>
<path d="M23.0315 40.5629C22.9179 40.5631 22.8059 40.5354 22.7055 40.4824C22.605 40.4293 22.519 40.3525 22.455 40.2586L21.6929 39.1434H17.3728L16.6316 40.2517C16.6701 40.363 16.6796 40.4822 16.6593 40.5982C16.639 40.7142 16.5894 40.8231 16.5154 40.9147C16.4413 41.0063 16.3452 41.0775 16.236 41.1216C16.1268 41.1657 16.0082 41.1814 15.8913 41.167C15.7744 41.1526 15.6631 41.1087 15.5679 41.0394C15.4726 40.9701 15.3966 40.8777 15.3469 40.771C15.2973 40.6642 15.2756 40.5465 15.284 40.429C15.2924 40.3116 15.3306 40.1982 15.3949 40.0995L14.5741 37.8006C14.4178 37.0985 14.5686 36.4689 14.9622 35.9818C15.2204 35.6636 15.5596 35.4332 15.9393 35.3132C16.0784 34.7367 16.4307 34.2343 16.9254 33.9072C17.4201 33.5801 18.0204 33.4525 18.6053 33.5503L22.5834 34.2133C23.2185 34.3194 23.7713 34.6683 24.1412 35.1946C24.5111 35.7208 24.6521 36.3601 24.5376 36.9924L23.7043 40.0479C23.664 40.1955 23.5763 40.3259 23.4548 40.4189C23.3332 40.5119 23.1846 40.5625 23.0315 40.5629ZM18.2187 34.914C17.9658 34.9151 17.7236 35.016 17.5448 35.1948C17.366 35.3737 17.265 35.6159 17.2639 35.8687C17.2639 36.254 16.9512 36.6113 16.566 36.6113C16.4664 36.6109 16.3679 36.6329 16.2779 36.6756C16.188 36.7184 16.1087 36.7807 16.046 36.8582C15.9833 36.9356 15.9388 37.0261 15.9157 37.123C15.8927 37.2199 15.8917 37.3208 15.9127 37.4181L16.2394 38.3254L16.4194 38.0574C16.483 37.9616 16.5693 37.8831 16.6706 37.8288C16.772 37.7745 16.8851 37.7461 17.0001 37.7461H22.0614C22.2917 37.7461 22.5081 37.8592 22.6379 38.0504L22.7565 38.2235L23.1781 36.6825C23.2081 36.4394 23.1447 36.194 23.0008 35.9958C22.9259 35.888 22.83 35.7964 22.719 35.7264C22.608 35.6564 22.484 35.6094 22.3545 35.5882L18.3764 34.9252C18.3234 34.9196 18.2717 34.914 18.2187 34.914ZM15.3223 55.8333C15.1372 55.8333 14.9597 55.7598 14.8288 55.6289C14.6979 55.498 14.6244 55.3205 14.6244 55.1354V53.5986C14.6244 53.1659 14.4639 52.7527 14.1721 52.4331L13.6669 51.8803C13.6051 51.8127 13.5572 51.7336 13.526 51.6474C13.4949 51.5613 13.4809 51.4699 13.4851 51.3784C13.4892 51.2869 13.5114 51.1971 13.5502 51.1141C13.5891 51.0312 13.6439 50.9567 13.7115 50.8949C13.7792 50.8331 13.8583 50.7853 13.9444 50.7541C14.0306 50.7229 14.122 50.709 14.2135 50.7131C14.305 50.7173 14.3948 50.7394 14.4778 50.7783C14.5607 50.8171 14.6352 50.8719 14.697 50.9396L15.2023 51.4923C15.7285 52.0688 16.0188 52.8169 16.0188 53.5986V55.1354C16.019 55.227 16.0011 55.3177 15.9662 55.4024C15.9313 55.4871 15.88 55.564 15.8153 55.6288C15.7506 55.6937 15.6738 55.7451 15.5892 55.7802C15.5046 55.8153 15.4139 55.8333 15.3223 55.8333ZM42.5732 55.8333C42.3881 55.8333 42.2105 55.7598 42.0797 55.6289C41.9488 55.498 41.8752 55.3205 41.8752 55.1354V51.1364C41.8752 50.2347 41.4174 49.4125 40.6525 48.9351L35.5982 45.7875C35.4451 45.6879 35.3371 45.5323 35.2975 45.354C35.2578 45.1757 35.2896 44.989 35.3861 44.8339C35.4826 44.6788 35.636 44.5677 35.8134 44.5245C35.9908 44.4812 36.1782 44.5092 36.3352 44.6025L41.3895 47.7501C41.9666 48.1064 42.4427 48.6048 42.7721 49.1977C43.1015 49.7906 43.2733 50.4581 43.2711 51.1364V55.1354C43.2711 55.3205 43.1975 55.498 43.0667 55.6289C42.9358 55.7598 42.7583 55.8333 42.5732 55.8333ZM24.4273 55.8333C24.2422 55.8333 24.0647 55.7598 23.9338 55.6289C23.8029 55.498 23.7294 55.3205 23.7294 55.1354V51.135C23.7294 49.7489 24.4315 48.4843 25.6082 47.7487L30.6597 44.6011C30.8164 44.5156 30.9998 44.4933 31.1724 44.5387C31.345 44.5841 31.4937 44.6937 31.5881 44.8452C31.6825 44.9967 31.7154 45.1785 31.6801 45.3534C31.6447 45.5283 31.5439 45.6832 31.3981 45.7861L26.3466 48.9337C25.9718 49.1656 25.6626 49.4897 25.4488 49.8751C25.235 50.2604 25.1236 50.6942 25.1252 51.135V55.1354C25.1252 55.3205 25.0517 55.498 24.9208 55.6289C24.7899 55.7598 24.6124 55.8333 24.4273 55.8333Z" fill="white"/>
<path d="M30.3304 42.7181H31.7262V45.1943H30.3304V42.7181ZM35.2689 42.7181H36.6647V45.1943H35.2689V42.7181ZM28.1515 55.8334C27.9664 55.8334 27.7889 55.7599 27.658 55.629C27.5271 55.4981 27.4536 55.3206 27.4536 55.1355V52.6872C27.4536 52.1958 27.2721 51.7268 26.9399 51.3639C26.8781 51.2961 26.8303 51.2168 26.7992 51.1305C26.7681 51.0442 26.7543 50.9526 26.7586 50.861C26.7628 50.7693 26.7851 50.6794 26.8242 50.5964C26.8632 50.5134 26.9182 50.4388 26.986 50.3771C27.0538 50.3153 27.1331 50.2675 27.2194 50.2364C27.3057 50.2053 27.3973 50.1914 27.489 50.1957C27.5806 50.2 27.6705 50.2223 27.7535 50.2613C27.8365 50.3003 27.9111 50.3553 27.9728 50.4231C28.5382 51.0443 28.8494 51.8483 28.8494 52.6872V55.1355C28.8494 55.3206 28.7759 55.4981 28.645 55.629C28.5141 55.7599 28.3366 55.8334 28.1515 55.8334ZM38.8492 55.8334C38.6641 55.8334 38.4866 55.7599 38.3557 55.629C38.2248 55.4981 38.1513 55.3206 38.1513 55.1355V52.6872C38.1513 51.8469 38.4639 51.0429 39.0292 50.4231C39.0906 50.3549 39.165 50.2995 39.248 50.2603C39.331 50.221 39.4209 50.1987 39.5126 50.1945C39.6043 50.1904 39.6959 50.2045 39.7821 50.2361C39.8683 50.2677 39.9474 50.3161 40.0147 50.3785C40.0825 50.4402 40.1374 50.5146 40.1763 50.5976C40.2152 50.6806 40.2374 50.7704 40.2415 50.8619C40.2457 50.9535 40.2317 51.0449 40.2005 51.1311C40.1692 51.2172 40.1213 51.2964 40.0594 51.3639C39.7285 51.7268 39.5457 52.1972 39.5457 52.6872V55.1355C39.5459 55.2271 39.528 55.3178 39.4931 55.4024C39.4582 55.4871 39.4069 55.5641 39.3422 55.6289C39.2775 55.6937 39.2006 55.7451 39.116 55.7802C39.0314 55.8153 38.9408 55.8334 38.8492 55.8334Z" fill="white"/>
<path d="M33.4908 44.0204C32.098 44.0189 30.7626 43.4649 29.7778 42.4799C28.7931 41.4948 28.2394 40.1593 28.2383 38.7665V37.7126C28.2383 37.5275 28.3118 37.35 28.4427 37.2191C28.5736 37.0883 28.7511 37.0147 28.9362 37.0147C29.1213 37.0147 29.2988 37.0883 29.4297 37.2191C29.5606 37.35 29.6341 37.5275 29.6341 37.7126V38.7665C29.6341 40.8924 31.3649 42.6246 33.4908 42.6246C35.6167 42.6246 37.3475 40.8938 37.3475 38.7665V36.7021C37.3475 36.517 37.421 36.3394 37.5519 36.2086C37.6828 36.0777 37.8603 36.0042 38.0454 36.0042C38.2305 36.0042 38.408 36.0777 38.5389 36.2086C38.6698 36.3394 38.7433 36.517 38.7433 36.7021V38.7665C38.7422 40.1593 38.1885 41.4948 37.2038 42.4799C36.219 43.4649 34.8836 44.0189 33.4908 44.0204Z" fill="white"/>
<path d="M28.9342 38.5851C28.7491 38.5851 28.5716 38.5115 28.4407 38.3806C28.3099 38.2498 28.2363 38.0722 28.2363 37.8871C28.2363 36.1102 29.3544 34.4981 31.0168 33.8755C31.1905 33.8105 31.3828 33.8172 31.5515 33.894C31.7202 33.9709 31.8515 34.1116 31.9164 34.2852C31.9814 34.4588 31.9747 34.6511 31.8979 34.8198C31.8211 34.9886 31.6804 35.1198 31.5068 35.1848C30.957 35.3923 30.4833 35.762 30.1485 36.2448C29.8137 36.7277 29.6337 37.3009 29.6322 37.8885C29.6318 38.0734 29.5581 38.2505 29.4273 38.3811C29.2964 38.5117 29.1191 38.5851 28.9342 38.5851ZM33.5 48.7704C32.6298 48.768 31.7718 48.5651 30.9926 48.1775C30.2134 47.79 29.5339 47.2282 29.0068 46.5357C28.9516 46.4626 28.9112 46.3793 28.8882 46.2906C28.8651 46.2018 28.8597 46.1094 28.8724 46.0186C28.885 45.9278 28.9154 45.8404 28.9618 45.7614C29.0082 45.6823 29.0698 45.6132 29.1429 45.5579C29.2161 45.5027 29.2994 45.4624 29.3881 45.4393C29.4768 45.4162 29.5692 45.4108 29.66 45.4235C29.7508 45.4361 29.8382 45.4665 29.9173 45.5129C29.9963 45.5594 30.0654 45.6209 30.1207 45.694C30.517 46.2149 31.028 46.6375 31.6141 46.929C32.2002 47.2204 32.8455 47.3729 33.5 47.3746C34.8191 47.3746 36.0837 46.7465 36.8807 45.694C36.9346 45.6174 37.0034 45.5525 37.083 45.503C37.1625 45.4536 37.2512 45.4206 37.3438 45.4062C37.4363 45.3917 37.5308 45.3961 37.6217 45.4189C37.7125 45.4418 37.7978 45.4827 37.8725 45.5392C37.9472 45.5957 38.0098 45.6667 38.0565 45.7479C38.1032 45.8291 38.133 45.9189 38.1443 46.0118C38.1556 46.1048 38.148 46.1991 38.122 46.2891C38.0961 46.3791 38.0523 46.463 37.9932 46.5357C37.4663 47.2284 36.7869 47.7904 36.0077 48.178C35.2284 48.5655 34.3703 48.7683 33.5 48.7704Z" fill="white"/>
<path d="M40.1331 40.4833C39.948 40.4833 39.7705 40.4098 39.6396 40.2789C39.5087 40.148 39.4352 39.9705 39.4352 39.7854C39.4352 38.3994 38.426 37.2715 37.1851 37.2715L36.8683 37.2618H36.8669C34.6935 37.2618 32.597 36.5234 30.8299 35.1261C30.7579 35.0693 30.6979 34.9989 30.6532 34.9188C30.6084 34.8388 30.5799 34.7507 30.5692 34.6597C30.5585 34.5686 30.5659 34.4764 30.5908 34.3882C30.6158 34.2999 30.6579 34.2175 30.7147 34.1456C30.7715 34.0736 30.842 34.0136 30.922 33.9688C31.002 33.9241 31.0901 33.8956 31.1812 33.8849C31.2722 33.8742 31.3645 33.8815 31.4527 33.9065C31.5409 33.9315 31.6234 33.9736 31.6953 34.0304C33.214 35.2308 35.0104 35.8659 36.8906 35.8659L37.2074 35.8757C39.1951 35.8757 40.831 37.6303 40.831 39.7854C40.831 39.9705 40.7575 40.148 40.6266 40.2789C40.4957 40.4098 40.3182 40.4833 40.1331 40.4833Z" fill="white"/>
<path d="M28.9738 47.1261H28.0748C27.7355 47.1266 27.4001 47.0534 27.0919 46.9114C26.7837 46.7694 26.51 46.5621 26.2899 46.3039C26.0697 46.0456 25.9084 45.7426 25.817 45.4158C25.7256 45.089 25.7063 44.7462 25.7606 44.4112C26.0969 42.3091 26.2686 40.1665 26.2686 38.042V35.7292C26.2709 33.7989 27.0386 31.9483 28.4035 30.5834C29.7685 29.2185 31.619 28.4507 33.5493 28.4485C35.4796 28.4507 37.3302 29.2185 38.6951 30.5834C40.06 31.9483 40.8278 33.7989 40.83 35.7292C40.83 35.9143 40.7564 36.0918 40.6256 36.2227C40.4947 36.3535 40.3172 36.4271 40.1321 36.4271C39.947 36.4271 39.7694 36.3535 39.6386 36.2227C39.5077 36.0918 39.4341 35.9143 39.4341 35.7292C39.4341 32.4852 36.7932 29.8443 33.5493 29.8443C30.3054 29.8443 27.6645 32.4852 27.6645 35.7292V38.042C27.6645 40.2391 27.4886 42.4571 27.1396 44.6318C27.1181 44.7672 27.1261 44.9056 27.1631 45.0376C27.2002 45.1696 27.2654 45.292 27.3542 45.3964C27.4431 45.5008 27.5536 45.5847 27.6779 45.6423C27.8023 45.7 27.9377 45.73 28.0748 45.7303H28.9738C29.1589 45.7303 29.3364 45.8038 29.4673 45.9347C29.5981 46.0656 29.6717 46.2431 29.6717 46.4282C29.6717 46.6133 29.5981 46.7908 29.4673 46.9217C29.3364 47.0526 29.1589 47.1261 28.9738 47.1261Z" fill="white"/>
<path d="M39.0241 47.1262H38.0246C37.8395 47.1262 37.662 47.0526 37.5311 46.9217C37.4003 46.7909 37.3267 46.6133 37.3267 46.4282C37.3267 46.2431 37.4003 46.0656 37.5311 45.9347C37.662 45.8039 37.8395 45.7303 38.0246 45.7303H39.0241C39.1611 45.7298 39.2965 45.6996 39.4208 45.6419C39.5451 45.5842 39.6555 45.5003 39.7445 45.396C39.8334 45.2917 39.8987 45.1694 39.9361 45.0375C39.9734 44.9056 39.9818 44.7672 39.9607 44.6318C39.6114 42.4526 39.4359 40.2491 39.4358 38.0421V35.732C39.4358 35.5469 39.5094 35.3694 39.6402 35.2385C39.7711 35.1076 39.9486 35.0341 40.1337 35.0341C40.3188 35.0341 40.4964 35.1076 40.6272 35.2385C40.7581 35.3694 40.8317 35.5469 40.8317 35.732V38.0421C40.8317 40.1693 41.0034 42.3133 41.3397 44.4113C41.3935 44.7463 41.3739 45.089 41.2822 45.4157C41.1905 45.7424 41.029 46.0453 40.8088 46.3034C40.5886 46.5616 40.315 46.7689 40.0068 46.9109C39.6987 47.053 39.3634 47.1264 39.0241 47.1262ZM11.8639 55.8334C11.6788 55.8334 11.5013 55.7598 11.3704 55.629C11.2395 55.4981 11.166 55.3206 11.166 55.1355V50.8153C11.166 49.3693 12.0761 48.0544 13.4301 47.5477L16.7493 46.3026V44.375C16.7492 44.2451 16.7852 44.1178 16.8536 44.0074C16.9219 43.897 17.0197 43.8079 17.1359 43.7501C17.2522 43.6924 17.3823 43.6682 17.5116 43.6805C17.6408 43.6927 17.7641 43.7409 17.8674 43.8194C18.3489 44.1838 18.9363 44.3808 19.5401 44.3803C20.1439 44.3797 20.731 44.1818 21.2118 43.8166C21.3153 43.7378 21.4388 43.6895 21.5683 43.6771C21.6978 43.6647 21.8281 43.6887 21.9447 43.7465C22.0613 43.8043 22.1594 43.8935 22.2279 44.004C22.2965 44.1146 22.3328 44.2421 22.3327 44.3722V46.3026L25.652 47.5491C25.8488 47.6217 26.0358 47.7124 26.2131 47.8185C26.2917 47.8656 26.3603 47.9277 26.4149 48.0014C26.4696 48.075 26.5092 48.1586 26.5315 48.2475C26.5537 48.3365 26.5583 48.4289 26.5449 48.5196C26.5315 48.6103 26.5003 48.6974 26.4532 48.776C26.4061 48.8547 26.3439 48.9233 26.2703 48.9779C26.1967 49.0325 26.1131 49.0721 26.0241 49.0944C25.9352 49.1167 25.8428 49.1212 25.7521 49.1078C25.6614 49.0944 25.5743 49.0632 25.4956 49.0161C25.3896 48.9528 25.278 48.8995 25.162 48.857L21.3877 47.4402C21.2552 47.3899 21.1411 47.3004 21.0606 47.1838C20.9801 47.0671 20.9369 46.9287 20.9368 46.787V45.5405C20.0343 45.8626 19.0481 45.8631 18.1452 45.5419V46.787C18.1452 46.9289 18.1019 47.0675 18.0211 47.1842C17.9403 47.301 17.8258 47.3903 17.6929 47.4402L13.9214 48.8542C13.5229 49.0051 13.1796 49.2733 12.9369 49.6235C12.6941 49.9737 12.5633 50.3893 12.5618 50.8153V55.1355C12.5618 55.3206 12.4883 55.4981 12.3574 55.629C12.2265 55.7598 12.049 55.8334 11.8639 55.8334Z" fill="white"/>
<path d="M19.5408 50.2766C18.6437 50.2761 17.7599 50.0597 16.964 49.6458C16.1681 49.2318 15.4835 48.6323 14.9681 47.898C14.9155 47.8229 14.8782 47.7381 14.8583 47.6486C14.8385 47.559 14.8365 47.4664 14.8524 47.376C14.8684 47.2857 14.902 47.1994 14.9513 47.122C15.0006 47.0447 15.0646 46.9778 15.1398 46.9252C15.2149 46.8725 15.2997 46.8353 15.3893 46.8154C15.4788 46.7956 15.5714 46.7936 15.6618 46.8095C15.7521 46.8254 15.8384 46.859 15.9158 46.9083C15.9932 46.9576 16.0601 47.0217 16.1127 47.0968C16.4986 47.6477 17.0115 48.0975 17.608 48.4082C18.2046 48.7189 18.8672 48.8813 19.5397 48.8817C20.2123 48.8821 20.8751 48.7205 21.472 48.4105C22.0689 48.1006 22.5824 47.6514 22.969 47.101C23.0799 46.9618 23.2398 46.87 23.416 46.8446C23.5923 46.8191 23.7716 46.8619 23.9174 46.964C24.0632 47.0662 24.1645 47.2202 24.2007 47.3945C24.2369 47.5689 24.2052 47.7504 24.1122 47.9022C23.596 48.6351 22.9114 49.2333 22.1159 49.6465C21.3204 50.0597 20.4372 50.2758 19.5408 50.2766ZM47.4561 45.7862C45.1474 45.7862 43.2686 43.9074 43.2686 41.5987V39.6584H44.6644V41.5987C44.6644 43.1383 45.9165 44.3903 47.4561 44.3903C48.9957 44.3903 50.2478 43.1383 50.2478 41.5987V39.6584H51.6436V41.5987C51.6436 43.9074 49.7648 45.7862 47.4561 45.7862Z" fill="white"/>
<path d="M50.9478 40.5629C50.8342 40.563 50.7223 40.5354 50.6218 40.4823C50.5213 40.4293 50.4353 40.3525 50.3714 40.2586L49.6092 39.1433H45.2891L44.5479 40.2516C44.5864 40.3629 44.596 40.4822 44.5756 40.5982C44.5553 40.7142 44.5058 40.8231 44.4317 40.9147C44.3577 41.0062 44.2615 41.0774 44.1523 41.1216C44.0431 41.1657 43.9245 41.1813 43.8076 41.1669C43.6907 41.1526 43.5794 41.1087 43.4842 41.0394C43.389 40.9701 43.3129 40.8777 43.2633 40.7709C43.2136 40.6641 43.192 40.5464 43.2004 40.429C43.2087 40.3115 43.2469 40.1981 43.3112 40.0995L42.4905 37.8005C42.3341 37.0984 42.4849 36.4689 42.8785 35.9818C43.1368 35.6635 43.4759 35.4332 43.8556 35.3131C43.9944 34.7365 44.3467 34.2339 44.8415 33.9067C45.3362 33.5795 45.9367 33.4521 46.5216 33.5502L50.4998 34.2132C51.1349 34.3193 51.6876 34.6683 52.0575 35.1945C52.4274 35.7207 52.5684 36.36 52.4539 36.9923L51.6206 40.0478C51.5803 40.1955 51.4927 40.3258 51.3711 40.4188C51.2496 40.5119 51.1009 40.5625 50.9478 40.5629ZM46.135 34.9139C45.8821 34.915 45.6399 35.016 45.4611 35.1948C45.2823 35.3736 45.1814 35.6158 45.1803 35.8687C45.1803 36.2539 44.8676 36.6113 44.4823 36.6113C44.3827 36.6109 44.2843 36.6329 44.1943 36.6756C44.1043 36.7183 44.025 36.7807 43.9623 36.8581C43.8997 36.9355 43.8551 37.026 43.8321 37.1229C43.809 37.2199 43.808 37.3207 43.8291 37.4181L44.1557 38.3254L44.3358 38.0574C44.3994 37.9616 44.4857 37.883 44.587 37.8287C44.6883 37.7744 44.8015 37.746 44.9164 37.7461H49.9777C50.208 37.7461 50.4244 37.8591 50.5542 38.0504L50.6729 38.2235L51.0944 36.6825C51.1244 36.4394 51.061 36.1939 50.9171 35.9957C50.8422 35.888 50.7464 35.7963 50.6354 35.7263C50.5243 35.6563 50.4004 35.6093 50.2709 35.5881L46.2927 34.9251C46.2397 34.9195 46.188 34.9139 46.135 34.9139ZM51.6779 55.8333C51.4928 55.8333 51.3152 55.7598 51.1844 55.6289C51.0535 55.498 50.9799 55.3205 50.9799 55.1354V53.5986C50.9799 52.8169 51.2703 52.0701 51.7951 51.4923L52.3018 50.9395C52.3636 50.8718 52.4381 50.8169 52.5211 50.7779C52.6041 50.739 52.6939 50.7168 52.7855 50.7126C52.8771 50.7084 52.9686 50.7222 53.0548 50.7534C53.141 50.7845 53.2202 50.8324 53.2879 50.8941C53.3557 50.9559 53.4106 51.0304 53.4495 51.1134C53.4885 51.1964 53.5107 51.2862 53.5149 51.3778C53.5191 51.4694 53.5052 51.5609 53.4741 51.6471C53.4429 51.7333 53.3951 51.8126 53.3333 51.8803L52.828 52.433C52.5377 52.7518 52.3769 53.1674 52.3772 53.5986V55.1354C52.3768 55.3206 52.303 55.4981 52.1719 55.629C52.0407 55.7598 51.8631 55.8333 51.6779 55.8333Z" fill="white"/>
<path d="M55.1352 55.8333C54.9501 55.8333 54.7726 55.7598 54.6417 55.6289C54.5109 55.498 54.4373 55.3205 54.4373 55.1354V50.8153C54.4373 49.9471 53.8916 49.1585 53.0778 48.8542L49.3062 47.4388C49.1735 47.3891 49.059 47.3 48.9782 47.1835C48.8974 47.0671 48.8541 46.9287 48.854 46.7869V45.5419C47.9621 45.8629 46.9529 45.8629 46.0623 45.5405V46.7869C46.0623 46.9289 46.019 47.0675 45.9382 47.1842C45.8574 47.3009 45.7429 47.3902 45.6101 47.4402L41.8385 48.8542C41.7197 48.8994 41.6048 48.9545 41.4952 49.0189C41.336 49.1133 41.1458 49.1406 40.9665 49.0948C40.7872 49.049 40.6334 48.9338 40.539 48.7746C40.4446 48.6154 40.4173 48.4253 40.4631 48.2459C40.5089 48.0666 40.6241 47.9129 40.7833 47.8185C40.9592 47.7138 41.149 47.6203 41.3472 47.5477L44.6665 46.3026V44.3721C44.6663 44.2423 44.7024 44.115 44.7707 44.0046C44.839 43.8942 44.9368 43.8051 45.0531 43.7473C45.1693 43.6895 45.2994 43.6654 45.4287 43.6777C45.5579 43.6899 45.6812 43.738 45.7846 43.8166C46.2657 44.1811 46.8527 44.3787 47.4563 44.3792C48.0599 44.3797 48.6472 44.1831 49.129 43.8194C49.2323 43.7408 49.3556 43.6928 49.4849 43.6807C49.6142 43.6686 49.7443 43.693 49.8604 43.751C49.9773 43.808 50.0757 43.8968 50.1446 44.0071C50.2135 44.1174 50.2499 44.2449 50.2498 44.3749V46.3026L53.5691 47.5491C54.2329 47.8001 54.8048 48.2469 55.2091 48.8301C55.6134 49.4134 55.831 50.1056 55.8332 50.8153V55.1354C55.8332 55.3205 55.7596 55.498 55.6287 55.6289C55.4979 55.7598 55.3203 55.8333 55.1352 55.8333Z" fill="white"/>
<path d="M47.4577 50.2765C46.5606 50.276 45.6767 50.0597 44.8808 49.6457C44.0849 49.2317 43.4004 48.6323 42.8849 47.898C42.8323 47.8228 42.795 47.738 42.7752 47.6485C42.7554 47.5589 42.7533 47.4663 42.7693 47.376C42.7852 47.2856 42.8188 47.1993 42.8681 47.122C42.9174 47.0446 42.9815 46.9777 43.0566 46.9251C43.1318 46.8725 43.2166 46.8352 43.3061 46.8153C43.3957 46.7955 43.4883 46.7935 43.5786 46.8094C43.669 46.8254 43.7553 46.859 43.8326 46.9083C43.91 46.9576 43.9769 47.0216 44.0295 47.0968C44.4154 47.6476 44.9284 48.0974 45.5249 48.4081C46.1214 48.7188 46.784 48.8812 47.4566 48.8816C48.1292 48.882 48.792 48.7204 49.3889 48.4105C49.9858 48.1005 50.4993 47.6513 50.8859 47.101C50.9968 46.9617 51.1567 46.87 51.3329 46.8445C51.5091 46.8191 51.6884 46.8618 51.8342 46.964C51.98 47.0662 52.0814 47.2201 52.1176 47.3945C52.1538 47.5688 52.1221 47.7504 52.029 47.9022C51.5129 48.6351 50.8282 49.2333 50.0327 49.6464C49.2372 50.0596 48.3541 50.2757 47.4577 50.2765ZM13.9619 43.4885C13.8298 43.4887 13.7005 43.4514 13.5888 43.381C13.4771 43.3106 13.3877 43.2099 13.331 43.0907C11.9098 40.0929 11.1704 36.8175 11.166 33.5C11.166 21.1859 21.1853 11.1666 33.4994 11.1666C45.8134 11.1666 55.8327 21.1859 55.8327 33.5C55.8327 36.7899 55.0873 40.1009 53.6775 43.0712C53.6405 43.1574 53.5865 43.2354 53.5187 43.3003C53.4509 43.3652 53.3707 43.4157 53.283 43.4489C53.1952 43.4821 53.1016 43.4973 53.0078 43.4935C52.914 43.4897 52.822 43.467 52.7372 43.4268C52.6524 43.3866 52.5765 43.3297 52.5142 43.2595C52.4519 43.1893 52.4044 43.1073 52.3745 43.0183C52.3446 42.9294 52.333 42.8353 52.3403 42.7417C52.3476 42.6481 52.3737 42.557 52.4171 42.4738C53.7433 39.6679 54.433 36.6035 54.4369 33.5C54.4369 21.955 45.0443 12.5625 33.4994 12.5625C21.9544 12.5625 12.5618 21.955 12.5618 33.5C12.5618 36.5917 13.264 39.7003 14.5914 42.4905C14.6424 42.5968 14.6657 42.7143 14.6589 42.8321C14.6521 42.9498 14.6155 43.0639 14.5526 43.1636C14.4897 43.2634 14.4025 43.3455 14.2992 43.4023C14.1959 43.4592 14.0798 43.4888 13.9619 43.4885Z" fill="white"/>
<path d="M55.1348 34.198C54.9497 34.198 54.7722 34.1244 54.6413 33.9935C54.5104 33.8627 54.4369 33.6851 54.4369 33.5C54.4369 25.8034 45.0443 19.5417 33.4994 19.5417C21.9544 19.5417 12.5618 25.8034 12.5618 33.5C12.5618 33.6851 12.4883 33.8627 12.3574 33.9935C12.2265 34.1244 12.049 34.198 11.8639 34.198C11.6788 34.198 11.5013 34.1244 11.3704 33.9935C11.2395 33.8627 11.166 33.6851 11.166 33.5C11.166 25.0343 21.1853 18.1459 33.4994 18.1459C45.8134 18.1459 55.8327 25.0343 55.8327 33.5C55.8327 33.6851 55.7592 33.8627 55.6283 33.9935C55.4974 34.1244 55.3199 34.198 55.1348 34.198Z" fill="white"/>
<path d="M55.1348 34.1979C54.9497 34.1979 54.7722 34.1243 54.6413 33.9935C54.5104 33.8626 54.4369 33.6851 54.4369 33.5C54.4369 30.5282 45.8385 27.2187 33.4994 27.2187C21.1602 27.2187 12.5618 30.5282 12.5618 33.5C12.5618 33.6851 12.4883 33.8626 12.3574 33.9935C12.2265 34.1243 12.049 34.1979 11.8639 34.1979C11.6788 34.1979 11.5013 34.1243 11.3704 33.9935C11.2395 33.8626 11.166 33.6851 11.166 33.5C11.166 28.6955 22.5211 25.8229 33.4994 25.8229C44.4776 25.8229 55.8327 28.6955 55.8327 33.5C55.8327 33.6851 55.7592 33.8626 55.6283 33.9935C55.4974 34.1243 55.3199 34.1979 55.1348 34.1979Z" fill="white"/>
<path d="M48.084 32.1041C47.9069 32.1042 47.7364 32.0368 47.607 31.9158C47.4777 31.7947 47.3992 31.629 47.3875 31.4523C46.684 20.8593 40.5842 12.5625 33.5004 12.5625C26.4151 12.5625 20.3167 20.8593 19.6132 31.4523C19.6083 31.5441 19.585 31.6341 19.5448 31.7168C19.5046 31.7995 19.4482 31.8734 19.379 31.934C19.3098 31.9946 19.2292 32.0408 19.1419 32.0697C19.0546 32.0987 18.9624 32.1099 18.8707 32.1027C18.686 32.0902 18.5139 32.005 18.392 31.8658C18.2701 31.7266 18.2083 31.5448 18.2202 31.3601C18.9712 20.0357 25.6837 11.1666 33.5004 11.1666C41.317 11.1666 48.0296 20.0357 48.7806 31.3601C48.7866 31.4516 48.7746 31.5434 48.7452 31.6302C48.7158 31.717 48.6696 31.7972 48.6092 31.8662C48.5488 31.9351 48.4754 31.9915 48.3932 32.0321C48.311 32.0727 48.2216 32.0967 48.1301 32.1027L48.084 32.1041Z" fill="white"/>
<path d="M27.3396 30.0327L27.2991 30.0313C27.1144 30.0209 26.9414 29.9375 26.8182 29.7996C26.6949 29.6617 26.6314 29.4804 26.6417 29.2957C27.1526 20.2703 29.4725 11.1666 33.5008 11.1666C37.5083 11.1666 39.8309 20.2074 40.3544 29.1659C40.365 29.3506 40.3019 29.532 40.1789 29.6702C40.0559 29.8084 39.883 29.8921 39.6983 29.9029C39.6065 29.9101 39.5141 29.8987 39.4267 29.8693C39.3394 29.8399 39.2589 29.7932 39.19 29.7319C39.1212 29.6706 39.0655 29.5961 39.0262 29.5127C38.9869 29.4294 38.9648 29.3389 38.9613 29.2469C38.35 18.8032 35.7062 12.5625 33.5008 12.5625C31.2829 12.5625 28.6322 18.8507 28.0347 29.3739C28.0251 29.5518 27.9477 29.7192 27.8184 29.8417C27.6891 29.9643 27.5178 30.0326 27.3396 30.0327Z" fill="white"/>
</svg>
