<svg width="67" height="67" viewBox="0 0 67 67" fill="none" xmlns="http://www.w3.org/2000/svg">
<path d="M14.1593 0H52.8407C60.6601 0 67 6.33988 67 14.1593V52.8407C67 60.6601 60.6601 67 52.8407 67H14.1593C6.33988 67 0 60.6601 0 52.8407V14.1593C0 6.33988 6.33988 0 14.1593 0Z" fill="#3E1893"/>
<path d="M49.7714 58V43.3L42.4571 39.1M54.3429 40.9V48.1826C54.3433 48.4132 54.2685 48.6376 54.1296 48.822C53.2258 50.0194 49.4128 54.4 42 54.4C34.5872 54.4 30.7742 50.0194 29.8704 48.822C29.7315 48.6376 29.6567 48.4132 29.6571 48.1826V40.9M26 39.1L42 31L58 39.1L42 47.2L26 39.1Z" stroke="#F5F5F5" stroke-width="2" stroke-linecap="round" stroke-linejoin="round"/>
<path d="M32.4134 12.2777C29.664 8.94991 26.8451 10.0297 24.7847 10.8201C24.0595 11.1559 23.2881 11.3662 22.5 11.443C21.7119 11.3663 20.9405 11.156 20.2153 10.8203C18.1549 10.0279 15.336 8.94821 12.5866 12.2779C9.19694 16.3776 11.9881 23.0921 14.024 27.9953C14.688 29.4095 15.2145 30.8916 15.5953 32.4186C15.9695 35.0755 17.3928 36 18.5708 36C18.63 36 18.6875 35.9974 18.7449 35.9926C19.3409 35.9441 19.8969 35.6563 20.2992 35.1881C20.7016 34.72 20.9199 34.1068 20.9095 33.4739L20.8992 32.7137C20.8678 30.9955 20.7923 26.9713 21.8997 25.7764C21.9769 25.6899 22.07 25.6211 22.1732 25.5741C22.2764 25.527 22.3876 25.5028 22.5 25.5028C22.6124 25.5028 22.7236 25.527 22.8268 25.5741C22.93 25.6211 23.0231 25.6899 23.1003 25.7764C24.207 26.9713 24.1322 30.9955 24.1008 32.7137L24.0905 33.4739C24.0801 34.1068 24.2984 34.72 24.7008 35.1881C25.1031 35.6563 25.6591 35.9441 26.2551 35.9926C26.3125 35.9974 26.37 36 26.4292 36C27.6072 35.9991 29.0307 35.0755 29.4049 32.419C29.7857 30.8919 30.3122 29.4099 30.9762 27.9957C33.0119 23.092 35.8031 16.3769 32.4134 12.2777ZM29.3456 27.2351C28.6059 28.7974 28.035 30.443 27.6437 32.1409C27.4418 33.5588 26.8433 34.1466 26.3873 34.1117C26.3138 34.106 26.2421 34.085 26.1764 34.0498C26.1106 34.0146 26.0521 33.966 26.0042 33.9067C25.9563 33.8474 25.92 33.7786 25.8973 33.7044C25.8747 33.6301 25.8662 33.5518 25.8724 33.4741L25.8827 32.7518C25.9418 29.5898 25.8775 26.0805 24.3724 24.4554C24.1293 24.1898 23.8382 23.9787 23.5166 23.8346C23.195 23.6904 22.8493 23.6161 22.5 23.6161C22.1507 23.6161 21.805 23.6904 21.4834 23.8346C21.1617 23.9787 20.8707 24.1898 20.6276 24.4554C19.1225 26.0805 19.0581 29.5898 19.1173 32.7518L19.1276 33.4741C19.1338 33.5518 19.1253 33.6301 19.1026 33.7044C19.08 33.7786 19.0437 33.8474 18.9958 33.9067C18.9479 33.966 18.8894 34.0146 18.8236 34.0498C18.7579 34.085 18.6862 34.106 18.6127 34.1117C18.1775 34.143 17.5582 33.5588 17.3563 32.1409C16.965 30.443 16.3941 28.7974 15.6544 27.2351C13.8116 22.7963 11.2851 16.7165 13.9265 13.5196C15.8772 11.1611 17.605 11.8271 19.608 12.5951C20.5252 13.0137 21.5034 13.2626 22.5 13.331C23.4966 13.2626 24.4748 13.0137 25.392 12.5951C27.395 11.8268 29.1228 11.1588 31.0734 13.5196C33.7149 16.7165 31.1884 22.7963 29.3456 27.2351Z" fill="#F5F5F5"/>
</svg>
