<svg width="67" height="67" viewBox="0 0 67 67" fill="none" xmlns="http://www.w3.org/2000/svg">
<path d="M14.1593 0H52.8407C60.6601 0 67 6.33987 67 14.1593V52.8407C67 60.6601 60.6601 67 52.8407 67H14.1593C6.33987 67 0 60.6601 0 52.8407V14.1593C0 6.33987 6.33987 0 14.1593 0Z" fill="#3E1893"/>
<path d="M29.4204 32.58C29.0438 32.2034 28.533 31.9918 28.0004 31.9918C27.4678 31.9918 26.957 32.2034 26.5804 32.58C26.2038 32.9566 25.9922 33.4674 25.9922 34C25.9922 34.5326 26.2038 35.0434 26.5804 35.42L32.5804 41.42C32.7673 41.6053 32.9889 41.752 33.2326 41.8515C33.4762 41.9511 33.7372 42.0015 34.0004 42C34.2742 41.9913 34.5433 41.9265 34.791 41.8095C35.0387 41.6925 35.2597 41.5259 35.4404 41.32L49.4404 25.32C49.7636 24.9186 49.9195 24.408 49.8755 23.8946C49.8314 23.3811 49.5909 22.9045 49.204 22.564C48.8172 22.2236 48.3138 22.0456 47.7989 22.0672C47.284 22.0888 46.7974 22.3083 46.4404 22.68L34.0004 37.08L29.4204 32.58Z" fill="#F5F5F5"/>
<path d="M51.9996 32C51.4692 32 50.9605 32.2107 50.5854 32.5858C50.2103 32.9609 49.9996 33.4696 49.9996 34C49.9996 38.2435 48.3139 42.3131 45.3133 45.3137C42.3127 48.3143 38.2431 50 33.9996 50C30.8398 49.9986 27.7512 49.0615 25.1231 47.3071C22.4951 45.5526 20.4455 43.0593 19.2326 40.1415C18.0197 37.2238 17.6979 34.0122 18.3078 30.9118C18.9177 27.8114 20.4319 24.961 22.6596 22.72C24.141 21.2188 25.907 20.0281 27.8541 19.2176C29.8013 18.4072 31.8905 17.9932 33.9996 18C35.2785 18.008 36.5527 18.1555 37.7996 18.44C38.0606 18.5207 38.3353 18.5471 38.6068 18.5176C38.8783 18.4881 39.1409 18.4033 39.3784 18.2684C39.6159 18.1335 39.8233 17.9513 39.9877 17.7332C40.1521 17.5151 40.2701 17.2657 40.3344 17.0002C40.3987 16.7348 40.408 16.459 40.3616 16.1898C40.3152 15.9206 40.2142 15.6638 40.0648 15.4352C39.9154 15.2065 39.7207 15.0109 39.4928 14.8604C39.2649 14.7099 39.0086 14.6077 38.7396 14.56C37.1859 14.1945 35.5957 14.0066 33.9996 14C30.0483 14.0205 26.1916 15.211 22.9162 17.4213C19.6408 19.6316 17.0936 22.7625 15.5959 26.4191C14.0982 30.0756 13.7171 34.0938 14.5009 37.9667C15.2846 41.8396 17.198 45.3935 19.9996 48.18C23.713 51.8951 28.7469 53.9877 33.9996 54C39.304 54 44.391 51.8929 48.1418 48.1421C51.8925 44.3914 53.9996 39.3043 53.9996 34C53.9996 33.4696 53.7889 32.9609 53.4138 32.5858C53.0388 32.2107 52.5301 32 51.9996 32Z" fill="#F5F5F5"/>
</svg>
