<svg width="67" height="67" viewBox="0 0 67 67" fill="none" xmlns="http://www.w3.org/2000/svg">
<path d="M14.1593 0H52.8407C60.6601 0 67 6.33987 67 14.1593V52.8407C67 60.6601 60.6601 67 52.8407 67H14.1593C6.33987 67 0 60.6601 0 52.8407V14.1593C0 6.33987 6.33987 0 14.1593 0Z" fill="#3E1893"/>
<path fill-rule="evenodd" clip-rule="evenodd" d="M48.9218 22.2435C48.6051 21.9203 48.6051 21.3978 48.9228 21.0751C49.24 20.7527 49.755 20.7527 50.0717 21.0751L51.5443 22.5727L54.3517 19.7231C54.6679 19.3999 55.1805 19.3999 55.4967 19.7231C55.8129 20.0449 55.8129 20.5683 55.4967 20.8901L52.1192 24.3239C51.9668 24.4787 51.7603 24.5654 51.5443 24.5654C51.3287 24.5654 51.1227 24.4787 50.9704 24.3239L48.9218 22.2435ZM31.1862 23.7153L32.8515 22.0235L31.1862 20.3306C30.869 20.0088 30.869 19.4854 31.1862 19.1631C31.5038 18.8404 32.0179 18.8413 32.3346 19.1631L34.0003 20.8549L35.666 19.1631C35.9827 18.8404 36.4977 18.8404 36.8144 19.1631C37.1316 19.4854 37.1316 20.0088 36.8144 20.3306L35.1487 22.0235L36.8144 23.7153C37.1316 24.0381 37.1316 24.5605 36.8144 24.8832C36.6563 25.0443 36.4479 25.1246 36.2395 25.1246C36.0325 25.1246 35.8241 25.0443 35.666 24.8832L34.0003 23.1909L32.3346 24.8832C32.0179 25.2055 31.5039 25.2055 31.1862 24.8832C30.869 24.5605 30.869 24.038 31.1862 23.7153ZM34.0003 15.651C30.6377 15.651 27.9016 18.4319 27.9016 21.849C27.9016 24.4425 29.5123 26.7833 31.909 27.6719C32.1132 27.7482 32.2798 27.9041 32.3699 28.1046L34.0003 31.7259L35.6306 28.1046C35.7207 27.9041 35.8873 27.7482 36.0915 27.6719C38.4884 26.7833 40.0989 24.4425 40.0989 21.849C40.0989 18.432 37.3629 15.651 34.0003 15.651ZM31.0286 29.0954L33.262 34.0536C33.3938 34.3476 33.6822 34.5356 34.0003 34.5356C34.3179 34.5356 34.6063 34.3476 34.7386 34.0536L36.972 29.0954C39.8279 27.8846 41.724 25.0156 41.724 21.849C41.724 17.5199 38.2588 14 34.0003 14C29.7417 14 26.2766 17.5199 26.2766 21.849C26.2766 25.0156 28.1728 27.8847 31.0286 29.0954ZM12.9049 22.2435C12.5877 21.9203 12.5877 21.3978 12.9049 21.0751C13.2224 20.7527 13.7366 20.7527 14.0541 21.0751L15.5268 22.5727L18.3313 19.7231C18.6489 19.3999 19.163 19.3999 19.4806 19.7231C19.7973 20.0449 19.7973 20.5683 19.4806 20.8901L16.1016 24.3239C15.9493 24.4787 15.7423 24.5654 15.5268 24.5654C15.3117 24.5654 15.1052 24.4787 14.952 24.3239L12.9049 22.2435ZM15.7899 15.651C12.4272 15.651 9.69122 18.4319 9.69122 21.849C9.69122 24.4425 11.3019 26.7833 13.6997 27.6719C13.9042 27.7482 14.0696 27.9041 14.1601 28.1046L15.7899 31.7259L17.4212 28.1046C17.5118 27.9041 17.6771 27.7482 17.8811 27.6719C20.278 26.7833 21.8891 24.4425 21.8891 21.849C21.8891 18.432 19.1526 15.651 15.7899 15.651ZM12.8191 29.0954L15.0517 34.0536C15.1839 34.3476 15.4724 34.5356 15.7899 34.5356C16.108 34.5356 16.3974 34.3476 16.5296 34.0536L18.7617 29.0954C21.6189 27.8846 23.5137 25.0156 23.5137 21.849C23.5137 17.5199 20.0494 14 15.7899 14C11.5318 14 8.06622 17.5199 8.06622 21.849C8.06622 25.0156 9.96239 27.8847 12.8191 29.0954ZM52.2102 15.651C48.8475 15.651 46.1114 18.4319 46.1114 21.849C46.1114 24.4425 47.7221 26.7833 50.1189 27.6719C50.3234 27.7482 50.4888 27.9041 50.5793 28.1046L52.2101 31.7259L53.8389 28.1046C53.9299 27.9041 54.0976 27.7482 54.2988 27.6719C56.699 26.7833 58.3087 24.4425 58.3087 21.849C58.3089 18.432 55.5733 15.651 52.2102 15.651ZM49.2389 29.0954L51.471 34.0536C51.6032 34.3476 51.8926 34.5356 52.2102 34.5356C52.5283 34.5356 52.8167 34.3476 52.9489 34.0536L55.1805 29.0954C58.0358 27.8846 59.933 25.0156 59.933 21.849C59.933 17.5199 56.4692 14 52.2102 14C47.9506 14 44.4864 17.5199 44.4864 21.849C44.4864 25.0156 46.3817 27.8847 49.2389 29.0954ZM46.0985 52.3486C46.4976 49.2825 49.0866 46.9085 52.2102 46.9085C55.3337 46.9085 57.9208 49.2825 58.3232 52.3486H46.0985ZM49.4948 42.4981C49.4948 40.9762 50.7121 39.7386 52.2103 39.7386C53.7098 39.7386 54.9267 40.9762 54.9267 42.4981C54.9267 44.0196 53.7098 45.2572 52.2103 45.2572C50.7121 45.2572 49.4948 44.0196 49.4948 42.4981ZM55.0703 45.8121C55.9757 45.0029 56.5506 43.817 56.5506 42.4981C56.5506 40.0658 54.6008 38.0872 52.2102 38.0872C49.8166 38.0872 47.8697 40.0658 47.8697 42.4981C47.8697 43.8171 48.4431 45.0029 49.3506 45.8121C46.466 46.9732 44.4194 49.8345 44.4194 53.1743C44.4194 53.6295 44.7845 54 45.2319 54H59.1856C59.6359 54 60 53.6295 60 53.1743C60 49.8345 57.9543 46.9732 55.0703 45.8121ZM27.8882 52.3486C28.2872 49.2825 30.8761 46.9085 34.0003 46.9085C37.1244 46.9085 39.7129 49.2825 40.1124 52.3486H27.8882ZM31.2844 42.4981C31.2844 40.9762 32.5032 39.7386 34.0003 39.7386C35.4974 39.7386 36.7162 40.9762 36.7162 42.4981C36.7162 44.0196 35.4974 45.2572 34.0003 45.2572C32.5032 45.2572 31.2844 44.0196 31.2844 42.4981ZM36.859 45.8121C37.7663 45.0029 38.3413 43.817 38.3413 42.4981C38.3413 40.0658 36.3928 38.0872 34.0003 38.0872C31.6073 38.0872 29.6593 40.0658 29.6593 42.4981C29.6593 43.8171 30.2342 45.0029 31.1411 45.8121C28.2565 46.9732 26.2104 49.8345 26.2104 53.1743C26.2104 53.6295 26.574 54 27.0229 54H40.9776C41.4265 54 41.7901 53.6295 41.7901 53.1743C41.7901 49.8345 39.7436 46.9732 36.859 45.8121ZM9.67781 52.3486C10.0774 49.2825 12.6663 46.9085 15.7899 46.9085C18.914 46.9085 21.503 49.2825 21.9021 52.3486H9.67781ZM13.0755 42.4981C13.0755 40.9762 14.2933 39.7386 15.7899 39.7386C17.288 39.7386 18.5058 40.9762 18.5058 42.4981C18.5058 44.0196 17.288 45.2572 15.7899 45.2572C14.2932 45.2572 13.0755 44.0196 13.0755 42.4981ZM18.65 45.8121C19.5569 45.0029 20.1309 43.817 20.1309 42.4981C20.1309 40.0658 18.1839 38.0872 15.7899 38.0872C13.3974 38.0872 11.4504 40.0658 11.4504 42.4981C11.4504 43.8171 12.0243 45.0029 12.9313 45.8121C10.0467 46.9732 8 49.8345 8 53.1743C8 53.6295 8.3637 54 8.8125 54H22.7686C23.2161 54 23.5806 53.6295 23.5806 53.1743C23.5807 49.8345 21.5346 46.9732 18.65 45.8121Z" fill="#F5F5F5"/>
</svg>
