<svg width="67" height="67" viewBox="0 0 67 67" fill="none" xmlns="http://www.w3.org/2000/svg">
<path d="M14.1593 0H52.8407C60.6601 0 67 6.33987 67 14.1593V52.8407C67 60.6601 60.6601 67 52.8407 67H14.1593C6.33987 67 0 60.6601 0 52.8407V14.1593C0 6.33987 6.33987 0 14.1593 0Z" fill="#3E1893"/>
<path d="M57.1167 36.0262C57.0833 35.8965 57.0217 35.7795 56.9388 35.6794C54.2986 30.6727 49.0428 27.25 43 27.25C36.9572 27.25 31.7014 30.6727 29.0612 35.6794C28.9783 35.7795 28.9167 35.8965 28.8833 36.0262C27.8397 38.1299 27.25 40.4969 27.25 43C27.25 45.5031 27.8397 47.8701 28.8833 49.9738C28.9167 50.1035 28.9783 50.2205 29.0612 50.3206C31.7014 55.3273 36.9572 58.75 43 58.75C49.0428 58.75 54.2986 55.3273 56.9388 50.3206C57.0217 50.2205 57.0833 50.1035 57.1167 49.9738C58.1603 47.8701 58.75 45.5031 58.75 43C58.75 40.4969 58.1603 38.1299 57.1167 36.0262ZM55.6595 48.85H50.1213C50.4123 47.3109 50.5917 45.6484 50.6374 43.9H56.9178C56.8053 45.6579 56.3659 47.3275 55.6595 48.85ZM29.0822 43.9H35.3626C35.4083 45.6484 35.5877 47.3109 35.8787 48.85H30.3405C29.6341 47.3275 29.1947 45.6579 29.0822 43.9ZM30.3405 37.15H35.8787C35.5877 38.6891 35.4083 40.3516 35.3626 42.1H29.0822C29.1947 40.3421 29.6341 38.6725 30.3405 37.15ZM43.9 35.35V29.2387C45.4376 29.8658 46.9325 32.0548 47.87 35.35H43.9ZM48.3023 37.15C48.5993 38.6407 48.7892 40.3005 48.8369 42.1H43.9V37.15H48.3023ZM42.1 29.2387V35.35H38.13C39.0675 32.0548 40.5624 29.8658 42.1 29.2387ZM42.1 37.15V42.1H37.1631C37.2108 40.3005 37.4007 38.6407 37.6977 37.15H42.1ZM37.1631 43.9H42.1V48.85H37.6977C37.4007 47.3593 37.2108 45.6995 37.1631 43.9ZM42.1 50.65V56.7613C40.5624 56.1342 39.0675 53.9452 38.13 50.65H42.1ZM43.9 56.7613V50.65H47.87C46.9325 53.9452 45.4376 56.1342 43.9 56.7613ZM43.9 48.85V43.9H48.8369C48.7892 45.6995 48.5993 47.3593 48.3023 48.85H43.9ZM50.6374 42.1C50.5917 40.3516 50.4123 38.6891 50.1213 37.15H55.6595C56.3659 38.6725 56.8053 40.3421 56.9178 42.1H50.6374ZM54.6568 35.35H49.7166C49.102 33.0268 48.211 31.0786 47.1292 29.6741C50.2468 30.6421 52.8973 32.6779 54.6568 35.35ZM38.8708 29.6741C37.789 31.0786 36.898 33.0268 36.2834 35.35H31.3432C33.1027 32.6779 35.7532 30.6421 38.8708 29.6741ZM31.3432 50.65H36.2834C36.898 52.9732 37.789 54.9214 38.8708 56.3259C35.7532 55.3579 33.1027 53.3221 31.3432 50.65ZM47.1292 56.3259C48.211 54.9214 49.102 52.9732 49.7166 50.65H54.6568C52.8973 53.3221 50.2468 55.3579 47.1292 56.3259Z" fill="#F5F5F5"/>
<path d="M32.3444 10.2777C29.4755 6.94991 26.534 8.02975 24.384 8.82014C23.6273 9.15591 22.8224 9.3662 22 9.44299C21.1776 9.36626 20.3727 9.15604 19.616 8.82033C17.466 8.02786 14.5245 6.94821 11.6556 10.2779C8.11855 14.3776 11.031 21.0921 13.1555 25.9953C13.8483 27.4095 14.3977 28.8916 14.7951 30.4186C15.1855 33.0755 16.6708 34 17.9 34C17.9617 34 18.0218 33.9974 18.0816 33.9926C18.7035 33.9441 19.2837 33.6563 19.7035 33.1881C20.1234 32.72 20.3511 32.1068 20.3404 31.4739L20.3296 30.7137C20.2968 28.9955 20.218 24.9713 21.3736 23.7764C21.4542 23.6899 21.5513 23.6211 21.659 23.5741C21.7667 23.527 21.8827 23.5028 22 23.5028C22.1172 23.5028 22.2333 23.527 22.341 23.5741C22.4487 23.6211 22.5458 23.6899 22.6264 23.7764C23.7812 24.9713 23.7031 28.9955 23.6704 30.7137L23.6596 31.4739C23.6488 32.1068 23.8766 32.72 24.2965 33.1881C24.7163 33.6563 25.2964 33.9441 25.9184 33.9926C25.9782 33.9974 26.0383 34 26.1 34C27.3292 33.9991 28.8147 33.0755 29.2051 30.419C29.6025 28.8919 30.1518 27.4099 30.8447 25.9957C32.969 21.092 35.8814 14.3769 32.3444 10.2777ZM29.1432 25.2351C28.3714 26.7974 27.7757 28.443 27.3673 30.1409C27.1567 31.5588 26.5321 32.1466 26.0563 32.1117C25.9796 32.106 25.9048 32.085 25.8362 32.0498C25.7676 32.0146 25.7065 31.966 25.6565 31.9067C25.6066 31.8474 25.5687 31.7786 25.5451 31.7044C25.5214 31.6301 25.5126 31.5518 25.519 31.4741L25.5298 30.7518C25.5915 27.5898 25.5244 24.0805 23.9538 22.4554C23.7001 22.1898 23.3964 21.9787 23.0608 21.8346C22.7252 21.6904 22.3644 21.6161 22 21.6161C21.6355 21.6161 21.2748 21.6904 20.9392 21.8346C20.6036 21.9787 20.2999 22.1898 20.0462 22.4554C18.4756 24.0805 18.4085 27.5898 18.4702 30.7518L18.481 31.4741C18.4874 31.5518 18.4785 31.6301 18.4549 31.7044C18.4313 31.7786 18.3934 31.8474 18.3435 31.9067C18.2935 31.966 18.2324 32.0146 18.1638 32.0498C18.0952 32.085 18.0203 32.106 17.9437 32.1117C17.4896 32.143 16.8433 31.5588 16.6326 30.1409C16.2243 28.443 15.6286 26.7974 14.8568 25.2351C12.9339 20.7963 10.2975 14.7165 13.0538 11.5196C15.0892 9.16109 16.8922 9.82715 18.9823 10.5951C19.9393 11.0137 20.96 11.2626 22 11.331C23.04 11.2626 24.0607 11.0137 25.0177 10.5951C27.1078 9.82677 28.9108 9.15883 30.9462 11.5196C33.7025 14.7165 31.0661 20.7963 29.1432 25.2351Z" fill="#F5F5F5"/>
</svg>
