<svg width="67" height="67" viewBox="0 0 67 67" fill="none" xmlns="http://www.w3.org/2000/svg">
<path d="M14.1593 0H52.8407C60.6601 0 67 6.33987 67 14.1593V52.8407C67 60.6601 60.6601 67 52.8407 67H14.1593C6.33987 67 0 60.6601 0 52.8407V14.1593C0 6.33987 6.33987 0 14.1593 0Z" fill="#3E1893"/>
<path d="M42.3125 39.8595V46.5125C42.3125 50.6067 45.6435 53.9375 49.7375 53.9375C53.8315 53.9375 57.1625 50.6067 57.1625 46.5125V41.0712C59.2714 40.6817 60.875 38.8324 60.875 36.6125C60.875 34.1105 58.8395 32.075 56.3375 32.075C53.8355 32.075 51.8 34.1105 51.8 36.6125C51.8 38.8324 53.4036 40.6817 55.5125 41.0712V46.5125C55.5125 49.6969 52.9219 52.2875 49.7375 52.2875C46.5531 52.2875 43.9625 49.6969 43.9625 46.5125V39.8595C47.4412 39.4493 50.15 36.4872 50.15 32.9V25.0625H45.2V26.7125H48.5V32.9C48.5 35.857 46.0943 38.2625 43.1375 38.2625C40.1807 38.2625 37.775 35.857 37.775 32.9V26.7125H41.075V25.0625H36.125V32.9C36.125 36.4872 38.8338 39.4493 42.3125 39.8595ZM53.45 36.6125C53.45 35.0203 54.7455 33.725 56.3375 33.725C57.9295 33.725 59.225 35.0203 59.225 36.6125C59.225 38.2047 57.9295 39.5 56.3375 39.5C54.7455 39.5 53.45 38.2047 53.45 36.6125Z" fill="#F5F5F5"/>
<path fill-rule="evenodd" clip-rule="evenodd" d="M21.8996 31.7063C21.1875 31.5057 20.2401 31.5 19.2941 31.5C18.3076 31.5 17.6328 31.713 17.1622 32.0149C16.6943 32.315 16.3707 32.7399 16.147 33.2648C15.7213 34.2637 15.6871 35.5423 15.7297 36.75H29.7508C30.165 36.75 30.5052 37.0873 30.4581 37.4988C29.9765 41.7043 25.4785 45 20.0008 45C14.523 45 10.0249 41.7043 9.54344 37.4988C9.49629 37.0873 9.83654 36.75 10.2508 36.75H14.2285C14.1862 35.5253 14.213 33.9767 14.767 32.6767C15.0853 31.9302 15.5848 31.2447 16.3522 30.7523C17.117 30.2617 18.0899 30 19.2941 30H19.3483C20.2272 29.9999 21.3735 29.9997 22.3063 30.2625C22.792 30.3993 23.2904 30.625 23.6719 31.0198C24.0724 31.4343 24.2882 31.9776 24.2882 32.625C24.2882 33.0392 23.9524 33.375 23.5382 33.375C23.124 33.375 22.7882 33.0392 22.7882 32.625C22.7882 32.3349 22.7023 32.1751 22.5933 32.0622C22.4652 31.9297 22.246 31.8039 21.8996 31.7063ZM11.2301 38.25C12.1112 41.0696 15.4804 43.5 20.0008 43.5C24.5211 43.5 27.8903 41.0696 28.7714 38.25H11.2301ZM14.0008 58.5V60H26.0008V58.5H14.0008Z" fill="#F5F5F5"/>
<path fill-rule="evenodd" clip-rule="evenodd" d="M25.3466 42.3059C25.8198 42.9496 26 43.7017 26 44.4771C26 45.6358 25.5934 46.7144 24.537 47.4677C23.7964 47.9958 22.7895 48.3244 21.5 48.4612V46.9515C22.5318 46.8247 23.2206 46.5641 23.6662 46.2463C24.2503 45.8299 24.5 45.2546 24.5 44.4771C24.5 43.9347 24.3763 43.5184 24.138 43.1942L25.3466 42.3059ZM18.5 47.0521V48.5539C17.7745 48.5816 17.1364 48.6496 16.6206 48.8158C16.2166 48.946 15.952 49.1183 15.7855 49.3253C15.6259 49.5235 15.5 49.8231 15.5 50.3218C15.5 50.8233 15.6263 51.1248 15.7862 51.3242C15.9531 51.5322 16.2176 51.7051 16.6213 51.8356C17.4614 52.1071 18.626 52.1173 19.9654 52.1174L19.9798 52.1162C20.0136 52.1135 20.0599 52.1104 20.1171 52.108C20.231 52.103 20.3896 52.1005 20.5784 52.1093C20.9512 52.1267 21.466 52.1891 21.994 52.3798C22.5247 52.5715 23.0945 52.9026 23.5302 53.471C23.9711 54.0463 24.2284 54.8047 24.2284 55.7647C24.2284 56.7237 23.9713 57.477 23.5199 58.0397C23.0739 58.5956 22.4921 58.8984 21.9566 59.0605C21.802 59.1073 21.6488 59.1433 21.5 59.1706V57.6315C21.5073 57.6293 21.5146 57.6271 21.5218 57.625C21.856 57.5238 22.1437 57.358 22.3499 57.101C22.5507 56.8508 22.7284 56.4467 22.7284 55.7647C22.7284 55.0835 22.5509 54.6592 22.3396 54.3835C22.1231 54.101 21.8233 53.913 21.4845 53.7906C21.1428 53.6672 20.788 53.6207 20.5086 53.6077C20.3713 53.6013 20.2582 53.6032 20.1819 53.6065C20.1439 53.6082 20.1155 53.6101 20.0983 53.6115L20.0812 53.613L20.0803 53.6131L20.0795 53.6131L20.0414 53.6174H19.9198C18.6685 53.6176 17.2579 53.6177 16.1599 53.2628C15.5793 53.0752 15.0235 52.7707 14.6161 52.2628C14.2018 51.7462 14 51.0931 14 50.3218C14 49.5521 14.2022 48.9002 14.6169 48.3849C15.0245 47.8783 15.5803 47.575 16.1607 47.3881C16.8551 47.1643 17.6746 47.0822 18.5 47.0521Z" fill="#F5F5F5"/>
<path fill-rule="evenodd" clip-rule="evenodd" d="M19.3359 54V58.875H20.8359V54H19.3359ZM19.3359 51H20.8359V43.875H19.3359V51Z" fill="#F5F5F5"/>
<path d="M32.7583 7.66449C30.6066 5.23263 28.4005 6.02174 26.788 6.59934C26.2205 6.84471 25.6168 6.99838 25 7.05449C24.3832 6.99842 23.7795 6.8448 23.212 6.59947C21.5995 6.02036 19.3934 5.23138 17.2417 7.66463C14.5889 10.6606 16.7733 15.5673 18.3666 19.1504C18.8863 20.1839 19.2983 21.2669 19.5963 22.3828C19.8891 24.3244 21.0031 25 21.925 25C21.9713 25 22.0163 24.9981 22.0612 24.9946C22.5277 24.9591 22.9628 24.7488 23.2776 24.4067C23.5925 24.0646 23.7634 23.6165 23.7553 23.154L23.7472 22.5985C23.7226 21.3429 23.6635 18.4021 24.5302 17.5289C24.5906 17.4657 24.6635 17.4154 24.7443 17.3811C24.825 17.3467 24.9121 17.329 25 17.329C25.0879 17.329 25.175 17.3467 25.2557 17.3811C25.3365 17.4154 25.4094 17.4657 25.4698 17.5289C26.3359 18.4021 26.2774 21.3429 26.2528 22.5985L26.2447 23.154C26.2366 23.6165 26.4075 24.0646 26.7223 24.4067C27.0372 24.7488 27.4723 24.9591 27.9388 24.9946C27.9837 24.9981 28.0287 25 28.075 25C28.9969 24.9993 30.111 24.3244 30.4038 22.3831C30.7019 21.2672 31.1139 20.1842 31.6335 19.1507C33.2267 15.5672 35.4111 10.66 32.7583 7.66449ZM30.3574 18.5949C29.7785 19.7365 29.3317 20.9391 29.0255 22.1799C28.8675 23.2161 28.3991 23.6456 28.0422 23.6201C27.9847 23.6159 27.9286 23.6006 27.8771 23.5749C27.8257 23.5491 27.7799 23.5136 27.7424 23.4703C27.7049 23.4269 27.6765 23.3767 27.6588 23.3224C27.6411 23.2682 27.6344 23.211 27.6392 23.1541L27.6473 22.6263C27.6936 20.3157 27.6433 17.7511 26.4653 16.5635C26.2751 16.3695 26.0473 16.2152 25.7956 16.1099C25.5439 16.0045 25.2733 15.9502 25 15.9502C24.7267 15.9502 24.4561 16.0045 24.2044 16.1099C23.9527 16.2152 23.7249 16.3695 23.5347 16.5635C22.3567 17.7511 22.3064 20.3157 22.3527 22.6263L22.3608 23.1541C22.3656 23.211 22.3589 23.2682 22.3412 23.3224C22.3235 23.3767 22.2951 23.4269 22.2576 23.4703C22.2201 23.5136 22.1743 23.5491 22.1228 23.5749C22.0714 23.6006 22.0153 23.6159 21.9577 23.6201C21.6172 23.6429 21.1325 23.2161 20.9745 22.1799C20.6683 20.9391 20.2215 19.7365 19.6426 18.5949C18.2004 15.3511 16.2231 10.9082 18.2903 8.57205C19.8169 6.84849 21.1692 7.33522 22.7367 7.89641C23.4545 8.20234 24.22 8.38422 25 8.43416C25.78 8.38422 26.5455 8.20234 27.2633 7.89641C28.8308 7.33495 30.1831 6.84684 31.7097 8.57205C33.7769 10.9082 31.7996 15.3511 30.3574 18.5949Z" fill="#F5F5F5"/>
</svg>
