<svg width="103" height="45" viewBox="0 0 103 45" fill="none" xmlns="http://www.w3.org/2000/svg">
<path d="M66.9467 35.4724C62.2805 37.8615 57.1547 39.1035 51.9601 39.1035C46.7656 39.1035 41.6397 37.8615 36.9736 35.4724C32.2092 32.9991 27.9603 29.5622 24.4722 25.3603L23.2031 28.7954C26.3812 33.7227 30.6674 37.7571 35.6847 40.5437C40.702 43.3304 46.2967 44.7839 51.9767 44.7763C57.6566 44.7688 63.2478 43.3006 68.2583 40.5006C73.2689 37.7007 77.5454 33.655 80.7116 28.7193L79.476 25.3837C75.98 29.5851 71.7235 33.02 66.9523 35.4899L66.9467 35.4724ZM82.4559 16.2255C82.1764 15.8393 82.2491 15.0551 82.6516 14.0076L85.0557 7.82219H88.1643L88.9582 5.65699H85.8552L86.7889 3.0295L82.0646 3.87803L81.416 5.63359H79.3362L78.5814 7.79878H80.6445L78.1621 14.2359C77.5247 15.8685 77.4912 17.0623 78.0615 17.8875C78.6317 18.7126 79.7387 19.0578 81.416 19.0578C82.5243 19.0298 83.6257 18.8668 84.6979 18.5721L85.6987 16.0383C84.9842 16.3345 84.2294 16.5103 83.4623 16.5591C83.2737 16.5946 83.0795 16.5789 82.8984 16.5133C82.7173 16.4477 82.5553 16.3345 82.428 16.1845L82.4559 16.2255ZM28.5424 11.1227C27.4243 16.9336 24.0697 17.232 23.382 17.232C22.3141 17.232 21.537 16.9511 21.0841 16.3952C20.6313 15.8393 20.4635 14.862 20.7039 13.6214C21.1456 11.3743 23.0074 8.02116 26.3564 8.02116C26.6874 7.99322 27.0202 8.0428 27.3307 8.16629C27.6411 8.28978 27.9213 8.48408 28.1511 8.73509C28.3841 9.07752 28.5399 9.47082 28.6068 9.88539C28.6736 10.3 28.6497 10.725 28.5368 11.1285L28.5424 11.1227ZM33.0879 11.7078C33.9209 7.89241 30.7061 5.75062 26.4458 5.75062C21.9731 5.75062 17.0139 8.56538 16.1082 13.3054C15.141 18.3731 19.4627 19.4616 22.2135 19.4909C28.4362 19.5669 32.2157 15.6754 33.0879 11.702V11.7078ZM98.6697 10.9061H92.8383C93.1068 10.0098 93.6486 9.23038 94.3807 8.68712C95.1128 8.14386 95.9948 7.86677 96.8918 7.89827C97.1994 7.86245 97.5107 7.90137 97.8016 8.01199C98.0925 8.12262 98.3551 8.30198 98.569 8.53613C98.938 9.03939 98.9548 9.85865 98.6194 10.8769L98.6697 10.9061ZM97.5515 5.5458C92.7265 5.5458 88.606 8.36056 87.5549 12.3867C86.9958 14.4231 87.2977 16.2079 88.36 17.548C89.5285 19.0286 91.586 19.842 94.141 19.842C95.7913 19.8196 97.4304 19.5557 99.0107 19.0578L100.341 16.1962C98.8077 16.8425 97.1697 17.1743 95.5164 17.1735C94.9785 17.2092 94.4398 17.1166 93.9411 16.9027C93.4423 16.6888 92.9964 16.3592 92.6371 15.9388C92.362 15.5523 92.1807 15.1017 92.1086 14.6257C92.0366 14.1497 92.0759 13.6625 92.2233 13.2059H102.416L102.466 13.0655C103.265 10.7247 103.165 8.72924 102.181 7.38916C101.286 6.16612 99.7152 5.53996 97.5515 5.53996V5.5458ZM5.25056 11.1753C5.98297 6.90345 9.91901 3.66149 14.5874 3.66149C15.9176 3.6519 17.2364 3.91844 18.4676 4.44566L19.8318 1.66601C18.47 1.07121 17.0079 0.768724 15.5323 0.776514C8.07399 0.776514 1.10207 5.22981 0.112477 11.1578C-0.759711 16.3952 3.56209 19.3095 8.86231 19.3095C10.3172 19.2813 11.7647 19.085 13.1785 18.7243L14.5986 15.3828C13.2301 15.9974 11.765 16.3425 10.2768 16.4011C6.0892 16.4011 4.80887 13.7385 5.24496 11.1344L5.25056 11.1753ZM46.9926 12.1994C48.1611 9.56021 50.5205 8.35471 52.0244 8.2962C52.5232 8.22869 53.0299 8.27196 53.5116 8.42321C53.9932 8.57445 54.439 8.83028 54.8199 9.17398C53.0587 16.325 49.4973 16.9102 48.4406 16.9102C45.8464 16.9102 46.0812 14.271 46.9926 12.2287V12.1994ZM42.7714 18.0045C43.5877 18.9349 44.8177 19.2978 46.2769 19.368C48.4051 19.5208 50.5229 18.9435 52.3096 17.7236C51.1914 21.1704 47.4175 21.8843 44.8792 21.8667C43.629 21.9464 42.3769 21.747 41.2059 21.2815L40.0877 24.2075C41.432 24.5448 42.8091 24.7177 44.1915 24.7224C50.4198 24.7224 54.4285 22.3817 56.1002 17.7997L60.3549 6.09588C59.6591 6.29487 58.9451 6.4165 58.2248 6.45871C55.9437 6.45871 55.843 5.80329 52.1306 5.80329C46.8025 5.80329 42.4192 9.89962 41.793 14.4465C41.6862 15.0853 41.7182 15.741 41.8866 16.365C42.055 16.9891 42.3555 17.5654 42.7658 18.0513L42.7714 18.0045ZM64.017 14.9381C64.2183 13.7677 65.0905 13.1181 67.4387 12.8607C68.7392 12.724 70.0484 12.7025 71.3523 12.7963L70.2509 15.7398C69.1054 16.285 67.8688 16.5893 66.6112 16.6351C64.4252 16.7346 63.8157 15.851 64.0002 14.8796L64.017 14.9381ZM64.386 19.4558C67.8188 19.4558 68.7246 18.8706 70.8212 18.8355C71.988 18.7486 73.1603 18.8713 74.2876 19.1983C74.1366 18.4902 73.9801 17.7353 74.7069 15.7457C75.2269 14.3236 75.8251 12.6324 76.4345 11.0232C77.8043 7.28967 74.869 5.63359 70.0888 5.63359C68.0257 5.62573 65.9666 5.82166 63.9387 6.21878L62.8205 9.27347C65.0088 8.60045 67.283 8.28464 69.5632 8.33716C72.7165 8.33716 72.4314 9.72405 72.2413 10.3912C70.4676 10.2545 68.6868 10.2545 66.9131 10.3912C65.4554 10.4604 64.0165 10.7643 62.6472 11.2924C60.5227 12.176 59.5722 13.7326 59.4436 15.5233C59.2983 17.5597 60.6569 19.485 64.3748 19.485L64.386 19.4558ZM37.2028 19.1924L43.912 1.14519H39.4783L32.7692 19.1924H37.2028Z" fill="#F5010B"/>
</svg>
