<svg width="161" height="51" viewBox="0 0 161 51" fill="none" xmlns="http://www.w3.org/2000/svg">
<g clip-path="url(#clip0_301_299)">
<path d="M130.3 2.65282C130.299 2.14908 130.44 1.65627 130.706 1.23671C130.973 0.817162 131.352 0.489735 131.796 0.295862C132.24 0.101989 132.729 0.0503834 133.201 0.147573C133.674 0.244762 134.108 0.486376 134.449 0.84185C134.79 1.19732 135.022 1.65069 135.117 2.14456C135.212 2.63844 135.164 3.15064 134.981 3.61636C134.798 4.08208 134.486 4.48039 134.087 4.76089C133.687 5.04139 133.217 5.19147 132.736 5.19216C132.415 5.19676 132.097 5.1343 131.801 5.00845C131.504 4.8826 131.234 4.69588 131.007 4.4593C130.78 4.22272 130.601 3.94103 130.479 3.6308C130.358 3.32058 130.297 2.98807 130.3 2.65282ZM134.688 2.65282C134.626 2.15553 134.394 1.69876 134.034 1.36779C133.674 1.03683 133.211 0.854293 132.732 0.854293C132.253 0.854293 131.791 1.03683 131.431 1.36779C131.071 1.69876 130.838 2.15553 130.777 2.65282C130.74 2.94395 130.764 3.2398 130.846 3.52062C130.928 3.80145 131.066 4.06078 131.251 4.28134C131.436 4.50189 131.664 4.67859 131.919 4.79964C132.175 4.92068 132.452 4.98329 132.732 4.98329C133.013 4.98329 133.29 4.92068 133.545 4.79964C133.801 4.67859 134.029 4.50189 134.214 4.28134C134.399 4.06078 134.537 3.80145 134.619 3.52062C134.7 3.2398 134.724 2.94395 134.688 2.65282ZM133.945 4.02916H133.344L132.762 2.86272H132.252V4.02916H131.743V1.27649H133.002C133.251 1.25703 133.501 1.30317 133.728 1.41069C133.831 1.49339 133.912 1.60227 133.963 1.72694C134.014 1.85162 134.034 1.98795 134.021 2.12294C134.021 2.61842 133.771 2.83175 133.304 2.86616L133.962 4.0326L133.945 4.02916ZM133.012 2.4567C133.304 2.4567 133.521 2.38788 133.521 2.0438C133.521 1.69972 133.133 1.68939 132.893 1.68939H132.236V2.46358L133.012 2.4567Z" fill="#231F20"/>
<path d="M0.509766 20.8927L1.27561 17.4657L14.2819 3.2103H4.75974L5.56832 0H20.9017L20.1852 3.25503L6.99483 17.5723H17.033L16.2475 20.8927H0.509766Z" fill="#231F20"/>
<path d="M17.6577 20.8962L21.9307 3.25507L22.69 0.158325H27.0747L25.1026 8.1617C26.0623 7.34622 27.3278 6.44129 29.8127 6.44129C33.0733 6.44129 34.8745 8.36815 34.8745 10.7939C34.8606 11.8852 34.7294 12.9713 34.4834 14.0318L32.9155 20.8928H28.5045L30.3386 13.0855C30.4466 12.5783 30.5159 12.0628 30.5457 11.544C30.5457 10.4051 29.7963 9.51051 28.2448 9.51051C27.2949 9.51051 24.7509 9.9234 23.7188 14.0524L22.0359 20.8962H17.6577Z" fill="#231F20"/>
<path d="M43.187 21.1956C39.3446 21.1956 35.7915 19.2377 35.7915 15.1948C35.7915 10.7733 39.1672 6.33118 45.146 6.33118C49.6294 6.33118 51.5325 8.76385 51.5325 11.6886C51.4956 12.7818 51.3446 13.8675 51.0822 14.9264H39.7851C39.8508 16.7087 40.6265 18.3672 44.3868 18.3672C46.1033 18.3753 47.8003 17.9864 49.3566 17.2283L48.8734 20.3491C47.024 20.8736 45.1193 21.1545 43.2035 21.1853L43.187 21.1956ZM44.8864 9.01503C43.9071 8.97669 42.9431 9.27804 42.1442 9.87227C41.3454 10.4665 40.7564 11.3203 40.4688 12.301H47.6737C47.7065 11.9569 47.7065 11.4649 47.7065 11.2929C47.7065 10.0714 46.7205 9.01503 44.8962 9.01503H44.8864Z" fill="#231F20"/>
<path d="M50.9409 20.8962L54.3264 6.66833H58.4252L57.8631 9.18357C58.9643 7.7281 60.565 6.43091 62.8264 6.43091C63.3391 6.43758 63.85 6.49752 64.3515 6.60983L63.4509 10.178C62.9875 10.0044 62.5 9.91142 62.0079 9.90271C58.2871 9.90271 57.2879 12.9754 56.7489 15.1465L55.3651 20.8962H50.9409Z" fill="#231F20"/>
<path d="M62.1526 20.8961L65.5644 6.6683H69.5646L69.0814 8.71216C69.6938 7.96755 70.4586 7.377 71.319 6.98443C72.1794 6.59186 73.1133 6.40737 74.0512 6.44465C75.767 6.44465 77.8278 6.92293 78.1861 9.36936C78.8271 8.19947 80.6612 6.44465 83.8297 6.44465C86.6302 6.44465 88.5826 8.19948 88.5826 10.4257C88.5221 11.4731 88.3568 12.5111 88.0896 13.5224L86.2489 20.8892H81.9299L83.902 12.7964C84.0287 12.2774 84.1123 11.7478 84.1518 11.2136C84.1518 10.0334 83.3761 9.5414 82.2849 9.5414C81.3415 9.5414 79.09 10.0334 78.0119 14.3861L76.3882 20.8892H71.9969L73.7751 13.8011C74.0142 12.968 74.1533 12.1069 74.1892 11.2377C74.1892 10.1711 73.4497 9.5414 72.4242 9.5414C70.0214 9.5414 68.7034 11.8295 68.3221 13.4433L66.511 20.8892L62.1526 20.8961Z" fill="#231F20"/>
<path d="M93.401 21.1095C90.5841 21.1095 88.3655 19.7332 88.3655 17.1491C88.3655 13.4778 92.8751 12.1358 96.7865 12.1358C97.8836 12.1225 98.9807 12.1673 100.073 12.27V11.5819C100.073 10.0748 99.14 9.07349 96.6879 9.07349C94.7457 9.11954 92.8321 9.57353 91.0607 10.4085L91.7444 7.22577C93.6883 6.72949 95.6799 6.46744 97.6806 6.4447C101.658 6.4447 104.041 7.89329 104.041 10.9178C104.018 11.8221 103.889 12.7201 103.656 13.5913L102.565 18.0713C102.305 19.3031 102.236 19.6609 102.055 20.8962H98.3807L98.7291 19.0416C97.697 19.9431 96.3461 21.1061 93.4109 21.1061L93.401 21.1095ZM92.6746 16.8704C92.6746 17.8476 93.4668 18.4945 94.7421 18.4945C97.8515 18.4945 99.1465 15.8967 99.4621 14.4653C98.9197 14.4653 98.6436 14.4481 98.4037 14.4481C95.6854 14.4481 92.6746 14.947 92.6746 16.8566V16.8704Z" fill="#231F20"/>
<path d="M111.735 21.1095C107.834 21.1095 104.764 18.8558 104.764 14.8678C104.764 12.9754 106.125 6.4447 114.625 6.4447C116.018 6.45558 117.405 6.65449 118.75 7.03653L117.652 10.0713C116.679 9.66151 115.64 9.45125 114.592 9.45199C113.237 9.41123 111.922 9.93519 110.936 10.9088C109.95 11.8823 109.373 13.2259 109.333 14.6442C109.333 17.3108 111.305 18.085 113.201 18.085C114.314 18.0778 115.412 17.8184 116.419 17.3246L116.068 20.4764C114.659 20.8879 113.205 21.1053 111.742 21.1233L111.735 21.1095Z" fill="#231F20"/>
<path d="M117.445 20.8927L122.513 0.147949H126.901L124.005 11.8812L130.159 6.66832H135.654L127.684 13.2231L134.379 24.3267H129.567L123.549 13.7496L121.807 20.8927H117.445Z" fill="#231F20"/>
<path d="M1.56824 24.2372H3.08352C3.88553 24.2372 4.63493 24.509 4.63493 25.3967C4.61428 25.6946 4.4932 25.975 4.29332 26.188C4.09344 26.401 3.82775 26.5328 3.54368 26.5597C3.7837 26.5825 4.00532 26.7039 4.15997 26.8974C4.31462 27.0909 4.38968 27.3407 4.36869 27.592C4.36869 28.9924 2.72524 29.0991 1.95939 29.0991H0.5L1.56824 24.2372ZM1.65042 28.3352H2.00212C2.6332 28.3352 3.33331 28.2698 3.33331 27.5094C3.33331 27.0139 2.84356 26.9314 2.28479 26.9314H1.9561L1.64713 28.3352H1.65042ZM2.11717 26.2019H2.52474C3.04408 26.2019 3.60942 26.0643 3.60942 25.4862C3.60942 25.0286 3.14267 25.001 2.74167 25.001H2.39326L2.11717 26.2019Z" fill="#231F20"/>
<path d="M6.64316 24.2372H9.65397L9.50277 25.001H7.50433L7.22823 26.1985H9.01959L8.85525 26.9692H7.0606L6.76806 28.3352H8.78622L8.61202 29.0991H5.56177L6.64316 24.2372Z" fill="#231F20"/>
<path d="M11.9154 27.0862L10.7058 24.2372H11.7872L12.5563 26.2776L14.2228 24.2372H15.4159L12.9376 27.0862L12.4972 29.0991H11.4618L11.9154 27.0862Z" fill="#231F20"/>
<path d="M20.8689 26.2088C20.8657 27.0178 20.5601 27.7934 20.0176 28.3696C19.7255 28.649 19.3833 28.8649 19.011 29.0049C18.6386 29.1449 18.2434 29.2061 17.8482 29.1851C16.5893 29.1851 15.8235 28.3249 15.8235 27.1619C15.8314 26.3767 16.124 25.624 16.6419 25.0561C16.9115 24.7586 17.2378 24.5237 17.5996 24.3667C17.9614 24.2096 18.3507 24.1338 18.7423 24.1443C20.1326 24.1443 20.8689 24.9184 20.8689 26.2088ZM16.8983 27.2204C16.8837 27.3753 16.9009 27.5316 16.9487 27.679C16.9966 27.8263 17.0741 27.9612 17.1759 28.0747C17.2777 28.1881 17.4015 28.2774 17.539 28.3366C17.6765 28.3957 17.8246 28.4234 17.9731 28.4178C19.1597 28.4178 19.8072 27.0827 19.8072 26.1124C19.8222 25.9562 19.8046 25.7984 19.7558 25.6499C19.7069 25.5015 19.6279 25.3659 19.5242 25.2524C19.4205 25.1389 19.2946 25.0503 19.1551 24.9927C19.0155 24.935 18.8657 24.9097 18.716 24.9184C17.5163 24.9184 16.8983 26.2328 16.8983 27.2204Z" fill="#231F20"/>
<path d="M22.828 24.2372H24.1263L25.2209 27.9292H25.2275L26.0623 24.2372H27.0287L25.9276 29.0991H24.6029L23.5347 25.3692H23.5183L22.7097 29.0991H21.717L22.828 24.2372Z" fill="#231F20"/>
<path d="M28.6556 24.2372H30.1873C31.2654 24.2372 32.4881 24.626 32.4881 26.3017C32.4881 27.4302 31.8899 29.0853 29.3129 29.0853H27.5972L28.672 24.2234L28.6556 24.2372ZM28.7805 28.3352H29.2669C30.7329 28.3352 31.41 27.5094 31.41 26.1709C31.41 25.4105 30.7855 25.001 29.8684 25.001H29.5069L28.7838 28.3352H28.7805Z" fill="#231F20"/>
<path d="M36.909 24.2372H37.9839L36.8992 29.0991H35.8342L36.909 24.2372Z" fill="#231F20"/>
<path d="M39.5353 24.2372H40.837L41.9282 27.9292H41.9348L42.7795 24.2372H43.7459L42.6349 29.0991H41.3201L40.242 25.3692H40.2355L39.4104 29.0991H38.4441L39.5353 24.2372Z" fill="#231F20"/>
<path d="M45.3465 24.2372H46.6448L47.7393 27.9292H47.7459L48.5808 24.2372H49.5471L48.4395 29.0991H47.1313L46.0532 25.3692H46.0367L45.2216 29.0991H44.2454L45.3465 24.2372Z" fill="#231F20"/>
<path d="M55.4078 26.2088C55.4091 26.6096 55.3348 27.0068 55.1893 27.3776C55.0438 27.7484 54.8299 28.0855 54.5597 28.3696C54.2678 28.6493 53.9257 28.8654 53.5533 29.0054C53.1809 29.1454 52.7856 29.2065 52.3904 29.1851C51.1315 29.1851 50.3821 28.3249 50.3821 27.1619C50.381 26.3788 50.6669 25.6251 51.1808 25.0561C51.4513 24.7598 51.7777 24.5257 52.1393 24.3688C52.5009 24.2118 52.8898 24.1353 53.2811 24.1443C54.6682 24.1443 55.4078 24.9184 55.4078 26.2088ZM51.4405 27.2204C51.4257 27.3761 51.4431 27.5334 51.4916 27.6815C51.54 27.8297 51.6184 27.9651 51.7213 28.0787C51.8242 28.1923 51.9492 28.2814 52.0879 28.3399C52.2266 28.3984 52.3758 28.425 52.5252 28.4178C53.692 28.4178 54.3494 27.0827 54.3494 26.1124C54.3634 25.9555 54.3448 25.7973 54.295 25.6486C54.2451 25.4999 54.1652 25.3642 54.0607 25.2508C53.9561 25.1374 53.8294 25.0491 53.6891 24.9917C53.5489 24.9343 53.3986 24.9093 53.2483 24.9184C52.0584 24.9184 51.4405 26.2328 51.4405 27.2204Z" fill="#231F20"/>
<path d="M56.8606 24.2372H57.8927L58.3693 28.0255H58.3857L60.5123 24.2372H61.6266L58.7604 29.0991H57.5344L56.8606 24.2372Z" fill="#231F20"/>
<path d="M64.2726 24.2372H65.4231L66.35 29.0991H65.331L65.1568 27.9911H62.971L62.3136 29.0991H61.1731L64.2661 24.2372H64.2726ZM63.4213 27.2204H65.0056L64.6769 25.1008H64.6375L63.4115 27.2204H63.4213Z" fill="#231F20"/>
<path d="M68.082 24.2372H72.0428L71.8587 25.001H70.4256L69.4888 29.0991H68.414L69.3574 25.001H67.9045L68.082 24.2372Z" fill="#231F20"/>
<path d="M73.0748 24.2372H74.1496L73.0748 29.0991H72L73.0748 24.2372Z" fill="#231F20"/>
<path d="M79.9709 26.2088C79.9785 26.6176 79.9043 27.0235 79.753 27.4004C79.6017 27.7773 79.3767 28.1169 79.0925 28.3972C78.8082 28.6776 78.4711 28.8926 78.1027 29.0283C77.7343 29.164 77.3428 29.2174 76.9535 29.1851C75.6847 29.1851 74.9419 28.3249 74.9419 27.1619C74.9427 26.3805 75.2256 25.6283 75.734 25.0561C76.0052 24.7609 76.3318 24.5275 76.6932 24.3706C77.0547 24.2137 77.4432 24.1366 77.8344 24.1443C79.2379 24.1443 79.9709 24.9185 79.9709 26.2088ZM76.0266 27.2204C76.0114 27.3754 76.0282 27.532 76.0759 27.6796C76.1235 27.8272 76.201 27.9624 76.3029 28.076C76.4048 28.1895 76.5289 28.2788 76.6666 28.3378C76.8044 28.3968 76.9527 28.4241 77.1014 28.4178C78.2682 28.4178 78.919 27.0828 78.919 26.1125C78.934 25.9562 78.9164 25.7984 78.8676 25.65C78.8187 25.5015 78.7397 25.3659 78.636 25.2525C78.5323 25.139 78.4064 25.0504 78.2669 24.9927C78.1274 24.9351 77.9776 24.9098 77.8278 24.9185C76.6445 24.9185 76.0266 26.2329 76.0266 27.2204Z" fill="#231F20"/>
<path d="M81.9297 24.2372H83.228L84.3127 27.9292H84.3291L85.164 24.2372H86.1402L85.0227 29.0991H83.7145L82.6364 25.3692H82.62L81.8048 29.0991H80.822L81.9297 24.2372Z" fill="#231F20"/>
<path d="M134.379 24.3267L88.106 51H114.237L160.5 24.3267H134.379Z" fill="#EE3224"/>
<path d="M105.691 38.09L129.567 24.3267H103.446L79.5698 38.09H105.691Z" fill="#EE3224"/>
</g>
<defs>
<clipPath id="clip0_301_299">
<rect width="160" height="51" fill="white" transform="translate(0.5)"/>
</clipPath>
</defs>
</svg>
