<svg width="90" height="260" viewBox="0 0 90 260" fill="none" xmlns="http://www.w3.org/2000/svg">
<path d="M86.1413 136.075C86.1413 136.793 86.1413 137.51 86.1413 138.225C85.5529 138.333 85.5825 138.806 85.5102 139.239C84.1593 147.418 79.3145 152.595 71.4261 154.892C62.7785 157.407 54.0881 157.012 45.5555 154.324C38.7222 152.174 33.4107 144.097 33.7163 136.577C39.1495 136.219 44.6023 135.857 50.088 135.491C50.3313 136.401 50.5022 137.08 50.6961 137.755C52.2212 143.089 56.2147 145.751 61.6971 145.098C65.3948 144.658 68.0144 142.554 68.3036 139.788C68.5962 136.989 66.4926 134.499 62.7949 133.436C58.8146 132.294 54.7751 131.342 50.8111 130.144C43.7346 128.004 37.6014 124.713 35.6819 116.994C25.4532 117.581 15.4448 117.275 5.43972 117.229C5.43315 99.8478 5.42986 82.4665 5.42328 65.0819C9.47923 65.0461 13.5319 65.0232 17.5878 64.9645C18.3603 64.9547 19.4153 65.3201 19.7933 64.4099C20.7531 62.0872 22.0316 59.8428 22.3866 57.0209C19.7177 57.0209 17.4005 57.0209 15.1622 57.0209C14.5541 55.9085 14.7973 54.907 14.7973 53.9479C14.7809 39.4504 14.794 24.9497 14.7776 10.4523C14.7743 6.96817 14.6757 3.48409 14.6231 0C20.9437 0 27.2643 0 33.5881 0C33.5881 8.96793 33.5881 17.9359 33.5881 26.9038C35.1592 24.0624 36.3458 21.1916 37.391 18.2686C37.8807 16.8985 38.571 16.308 40.1289 16.3374C45.2728 16.4385 50.42 16.4385 55.5639 16.3374C57.135 16.3047 57.697 16.9246 58.2131 18.298C64.4153 34.7985 70.7129 51.2663 76.925 67.7635C77.5659 69.4632 78.4567 71.1367 78.5454 73.0418C72.399 73.0418 66.3841 73.0418 60.412 73.0418C59.5672 70.3994 58.693 67.9527 58.029 65.4473C57.7233 64.2925 57.2763 63.8129 56.0438 63.8227C50.3576 63.8716 44.6713 63.839 38.9851 63.8488C38.2817 63.8488 37.483 63.7444 37.322 64.7655C37.1511 65.8486 38.0484 65.8779 38.6794 66.0574C47.2351 68.5106 51.2351 74.7871 53.1316 82.8808C54.2426 87.6339 53.6575 92.4686 53.7824 97.2902C56.6288 97.2902 59.3175 97.2967 62.0061 97.2902C64.8229 97.2836 67.5707 97.7828 70.3086 98.3634C78.0853 100.017 83.7025 106.744 83.4691 114.339C78.0491 114.652 72.6094 114.965 67.2683 115.272C65.3357 109.38 63.7054 107.599 56.7505 108.043C54.052 108.215 52.07 109.971 52.1062 112.071C52.1522 114.593 53.9829 115.542 56.1292 116.081C60.5829 117.203 65.0859 118.169 69.4836 119.473C77.8519 121.956 84.912 125.851 85.7304 135.804C85.7271 135.912 85.9967 135.99 86.1413 136.075ZM21.772 105.325C24.3357 105.325 26.5938 105.423 28.8354 105.306C33.0557 105.08 35.8265 102.931 36.7599 98.8821C37.9202 93.8452 37.9103 88.7365 36.6613 83.7029C35.8758 80.532 33.907 78.2778 30.6201 77.4394C27.7244 76.6988 24.7794 76.7804 21.772 77.0707C21.772 86.5215 21.772 95.8026 21.772 105.325ZM47.5407 31.1708C45.3484 38.3869 43.3895 44.8364 41.3977 51.4001C45.7067 51.4001 49.618 51.4001 53.766 51.4001C51.715 44.7385 49.7331 38.3021 47.5407 31.1708Z" fill="#1B65B0"/>
<path d="M4.87108 65.0819C5.05515 65.0852 5.2425 65.0852 5.42657 65.0885C5.43314 82.4697 5.43643 99.851 5.443 117.236C5.25236 117.242 5.06172 117.245 4.87108 117.252C4.87108 99.8608 4.87108 82.473 4.87108 65.0819Z" fill="#C9DDEF"/>
<path d="M64.2444 174.918C63.3898 174.595 62.486 174.393 61.6314 174.067C61.0496 174.207 60.4678 174.351 59.8828 174.491C57.1711 174.315 54.5285 174.742 51.8958 175.333C51.8531 175.075 51.8103 174.817 51.7643 174.563C51.7906 173.013 49.7166 173.026 49.5293 171.519C50.0223 171.483 50.512 171.451 51.0018 171.418C47.2876 170.681 43.5702 170.749 39.8495 171.382C39.5603 171.398 39.2711 171.411 38.9785 171.428C37.7723 171.226 36.6383 171.643 35.5109 171.901C27.3399 173.764 20.0201 177.235 14.1104 183.299C11.4743 185.426 9.34447 187.997 7.52685 190.835C6.03463 192.955 4.76262 195.177 3.72398 197.506C10.646 181.701 26.5214 170.645 45 170.645C51.8892 170.642 58.4103 172.175 64.2444 174.918Z" fill="#C4E7F1"/>
<path d="M90 215.299C90 216.189 89.9737 217.073 89.9211 217.954C89.8948 218.401 89.862 218.851 89.8258 219.295C89.7371 220.28 89.6187 221.252 89.4642 222.218C89.2177 223.784 88.8923 225.327 88.4848 226.834C88.2284 227.806 87.9326 228.759 87.6137 229.698C87.1043 231.179 86.5192 232.628 85.8619 234.034C85.3228 235.195 84.7312 236.327 84.0936 237.43C83.5348 238.408 82.9366 239.361 82.3022 240.291C74.2659 252.08 60.7045 259.854 45.309 259.952C45.3057 259.956 45.3057 259.956 45.3024 259.952C45.2991 259.956 45.2958 259.952 45.2958 259.952C45.2892 259.956 45.2892 259.956 45.2859 259.952C45.2827 259.956 45.2827 259.952 45.2827 259.952C45.1874 259.956 45.0986 259.955 45.0066 259.955C44.5037 259.955 44.0074 259.946 43.5111 259.929H43.5078C42.1898 259.887 40.8915 259.789 39.603 259.636C39.2053 259.59 38.8076 259.538 38.4132 259.479C38.4066 259.479 38.4033 259.479 38.3968 259.476C37.2332 259.31 36.0894 259.094 34.9554 258.837C34.9489 258.833 34.9423 258.833 34.9357 258.83C33.7919 258.572 32.6612 258.266 31.5536 257.923C31.2282 257.825 30.9094 257.721 30.5905 257.613C30.3112 257.519 30.0318 257.424 29.7524 257.323C27.6817 256.582 25.6767 255.695 23.7605 254.674C23.5008 254.534 23.2412 254.393 22.9815 254.25C22.3965 253.924 21.8213 253.584 21.2494 253.232C21.2362 253.225 21.2198 253.219 21.2066 253.206C20.7038 252.896 20.2107 252.573 19.721 252.244C19.721 252.244 19.721 252.244 19.7177 252.244C19.1852 251.885 18.6659 251.516 18.1499 251.134C18.14 251.128 18.1367 251.125 18.1269 251.118C18.1236 251.118 18.1236 251.118 18.1203 251.112C17.5648 250.7 17.0258 250.28 16.4933 249.846C16.49 249.846 16.4867 249.842 16.4835 249.839C15.905 249.369 15.3396 248.887 14.7842 248.391C14.7809 248.388 14.7743 248.384 14.7743 248.381C14.1827 247.846 13.6108 247.304 13.0487 246.74C13.0454 246.737 13.0421 246.734 13.0389 246.73C12.6247 246.316 12.2172 245.892 11.8162 245.461C11.1621 244.76 10.5376 244.032 9.92952 243.285C9.90651 243.253 9.88351 243.223 9.85721 243.191C9.50881 242.76 9.16698 242.323 8.83829 241.873C8.83172 241.866 8.82843 241.86 8.82185 241.853C8.36498 241.243 7.92455 240.623 7.50055 239.991L7.49726 239.987C6.73143 238.842 6.01819 237.665 5.35754 236.451C5.34768 236.431 5.33124 236.409 5.32138 236.389C4.5917 235.032 3.92777 233.642 3.33614 232.207C3.06333 231.541 2.80367 230.869 2.56373 230.194C2.29093 229.427 2.03783 228.651 1.80776 227.865C1.80447 227.855 1.80119 227.848 1.80119 227.839C1.63356 227.264 1.4725 226.69 1.32459 226.103C1.32459 226.103 1.32459 226.1 1.32459 226.097C1.12738 225.317 0.956468 224.531 0.801987 223.731C0.801987 223.725 0.801994 223.722 0.798707 223.722C0.601498 222.697 0.437156 221.657 0.315543 220.609C0.312256 220.596 0.31225 220.583 0.308963 220.567C0.121614 218.985 0.019721 217.373 0 215.745V215.289C0 214.832 0.00657607 214.379 0.0230102 213.928C0.0230102 213.902 0.0230134 213.873 0.0263003 213.847C0.0295871 213.671 0.03616 213.498 0.0460204 213.322C0.124904 211.537 0.305678 209.779 0.588345 208.056C0.755974 207.273 0.969614 206.497 1.25228 205.73C1.22599 206.977 1.16354 208.236 2.59988 208.856C3.21781 208.386 3.05018 207.704 3.03046 207.094C2.98773 205.841 3.54978 205.251 4.81192 205.329C4.96312 205.039 5.11102 204.742 5.26222 204.452C5.19977 203.845 5.46929 203.153 4.81849 202.69C4.16442 203.156 3.38215 202.732 2.66233 202.732C2.61961 202.732 2.58345 202.736 2.54072 202.739C2.50128 202.742 2.46184 202.745 2.42568 202.752C2.39281 202.755 2.36324 202.762 2.32708 202.771C2.30079 202.778 2.27778 202.781 2.25148 202.791C2.22519 202.801 2.1956 202.811 2.16602 202.824C2.14301 202.83 2.1233 202.84 2.10029 202.853C2.07728 202.863 2.05756 202.873 2.03784 202.882C1.95238 202.931 1.86692 202.997 1.78147 203.078C1.76175 203.094 1.74531 203.111 1.72888 203.13V203.127C2.01812 202.047 2.35009 200.984 2.72808 199.943C2.73794 199.917 2.7478 199.884 2.75766 199.855C2.85626 199.591 2.95486 199.323 3.06004 199.062C3.12906 198.883 3.20137 198.703 3.27697 198.527C3.33942 198.371 3.40845 198.214 3.47418 198.058C3.47418 198.051 3.47418 198.048 3.48075 198.041C3.49061 198.009 3.50705 197.979 3.52348 197.943C3.58593 197.793 3.65496 197.64 3.72069 197.49C4.75933 195.161 6.03134 192.939 7.52356 190.819C9.33789 187.977 11.4678 185.41 14.1071 183.283C20.0168 177.218 27.3333 173.747 35.5076 171.884C36.635 171.627 37.7723 171.209 38.9752 171.411C39.2645 171.395 39.5537 171.382 39.8463 171.366C43.5669 170.733 47.2844 170.664 50.9985 171.402C50.5087 171.434 50.019 171.467 49.526 171.503C49.7133 173.01 51.7873 172.997 51.761 174.546C51.8037 174.801 51.8465 175.059 51.8925 175.316C54.5252 174.726 57.1678 174.299 59.8795 174.475C60.4645 174.334 61.0463 174.191 61.6281 174.051C62.4826 174.377 63.3865 174.582 64.2411 174.902C64.2477 174.905 64.251 174.909 64.2575 174.912C64.6487 175.095 65.0365 175.287 65.4178 175.479C65.4211 175.479 65.4244 175.479 65.4244 175.483L67.6528 176.69C67.6561 176.693 67.6594 176.693 67.6627 176.696C69.2798 177.633 70.8312 178.667 72.3136 179.789C73.8091 180.924 75.2323 182.154 76.57 183.462C77.8354 184.699 79.0285 186.007 80.1395 187.387C81.1749 188.669 82.1412 190.01 83.0319 191.406C83.9391 192.825 84.7674 194.299 85.5069 195.82C86.3385 197.519 87.0648 199.274 87.6762 201.085C87.6762 201.085 87.6762 201.085 87.6762 201.088C88.9712 204.925 89.7568 208.993 89.9507 213.214C89.9836 213.912 90 214.604 90 215.299Z" fill="#365CA8"/>
<path d="M90 215.299C90 216.189 89.9737 217.073 89.9211 217.954C89.0435 218.518 88.5801 219.415 88.1692 220.394C84.4979 229.104 79.3047 236.719 71.7712 242.617C58.2985 253.16 43.1101 256.856 26.2224 253.852C24.9208 253.617 23.5535 252.746 22.173 253.695C21.8607 253.555 21.5551 253.405 21.256 253.239C21.2428 253.232 21.2264 253.225 21.2132 253.212C20.6939 252.929 20.2009 252.609 19.7276 252.25C19.7276 252.25 19.7276 252.25 19.7243 252.25C19.4745 252.061 19.228 251.859 18.9913 251.65C19.5567 250.926 20.3192 251.072 21.016 251.291C28.4048 253.614 35.9152 254.419 43.6327 253.369C51.0083 252.368 57.9698 250.276 64.297 246.306C67.403 245.005 70.1015 243.148 72.284 240.578C74.5881 239.341 76.3629 237.58 77.6087 235.293C80.1954 233.127 82.0689 230.448 83.3803 227.366C84.2218 227.007 84.373 226.149 84.7707 225.47C86.6277 222.309 87.6532 218.792 89.1389 215.471C89.1421 215.178 89.1487 214.881 89.1487 214.584C89.4182 214.134 89.6878 213.68 89.9573 213.227C89.9836 213.912 90 214.604 90 215.299Z" fill="#63CAE8"/>
<path d="M89.9178 217.954C89.8916 218.401 89.8587 218.851 89.8225 219.295C89.1849 219.742 88.9449 220.505 88.6228 221.233C84.5439 230.435 78.7393 238.265 70.5617 244.375C62.8968 250.1 54.3247 253.542 44.954 255.02C40.313 255.747 35.6062 255.786 30.8699 255.274C29.0457 255.075 27.0539 253.793 25.1673 255.245C24.6841 255.082 24.2141 254.896 23.7638 254.677C23.4976 254.547 23.2379 254.406 22.9848 254.253C22.7054 254.083 22.4326 253.897 22.1697 253.692C23.5501 252.743 24.9175 253.614 26.2191 253.849C43.1068 256.853 58.292 253.157 71.768 242.613C79.3014 236.715 84.4979 229.101 88.166 220.391C88.5768 219.419 89.0403 218.518 89.9178 217.954Z" fill="#5EC9E5"/>
<path d="M89.8225 219.298C89.7338 220.283 89.6154 221.255 89.461 222.221C88.9877 222.893 88.4815 223.539 88.0608 224.24C85.6219 228.325 83.2982 232.442 80.1987 236.135C73.5987 243.987 65.4507 249.513 55.8334 252.951C47.12 256.067 38.1535 257.016 28.9668 255.597C28.27 255.489 27.4648 255.333 26.952 256.113C26.3571 255.826 25.7622 255.535 25.1673 255.248C27.0506 253.796 29.0424 255.082 30.8699 255.277C35.603 255.79 40.313 255.75 44.954 255.023C54.3247 253.545 62.8968 250.104 70.5617 244.378C78.7393 238.268 84.5439 230.439 88.6228 221.236C88.9416 220.505 89.1849 219.745 89.8225 219.298Z" fill="#5DC9E5"/>
<path d="M89.9507 213.227C89.6779 213.677 89.4117 214.131 89.1421 214.584C89.0074 214.434 88.8726 214.284 88.7378 214.134C88.728 212.966 88.7148 211.798 88.705 210.634C87.5875 209.365 87.9753 207.505 86.9301 206.21C86.8052 205.15 86.1577 204.827 85.1717 204.98C86.1972 204.328 87.1832 203.698 87.0484 202.207C87.0452 202.175 87.0452 202.139 87.0517 202.106C87.0517 202.09 87.055 202.073 87.0616 202.057C87.0714 202.011 87.0879 201.962 87.1109 201.91C87.1208 201.887 87.1306 201.868 87.1405 201.845C87.1503 201.822 87.1668 201.803 87.1799 201.78C87.2062 201.737 87.2358 201.692 87.2654 201.646V201.643C87.2982 201.6 87.3311 201.555 87.364 201.512C87.3903 201.48 87.4133 201.447 87.4429 201.414C87.4856 201.362 87.525 201.31 87.5645 201.258C87.6039 201.209 87.6433 201.157 87.6795 201.108C88.9712 204.938 89.7568 209.006 89.9507 213.227Z" fill="#3B84C5"/>
<path d="M44.3196 173.607C42.5152 173.904 40.8356 174.511 39.2349 175.323C38.9687 175.457 38.7057 175.6 38.4428 175.747C38.1798 175.894 37.9202 176.044 37.6605 176.197C37.6046 176.155 37.5455 176.116 37.4929 176.076C37.322 175.959 37.1478 175.858 36.9736 175.773C35.3696 174.977 33.6342 175.431 31.9283 175.607C29.9989 175.799 28.2898 177.176 26.1402 176.488C25.4927 176.279 24.1747 176.794 24.1221 177.737C24.0596 178.794 23.4088 179.052 22.7646 179.508C14.2024 185.57 10.6428 194.045 12.0791 204.119C13.4234 213.534 19.0406 220.238 28.0663 223.78C30.5248 224.746 33.0984 225.95 35.8922 224.723C36.0401 224.583 36.1814 224.439 36.3293 224.299C37.1083 224.785 37.7525 225.359 37.7131 226.384C36.6482 228.37 34.7615 227.437 33.4205 227.242C23.7013 225.826 16.7694 220.499 12.3388 211.873C11.0635 209.391 10.3732 206.706 9.70273 204.018C9.55153 202.993 9.40363 201.975 9.25243 200.951C9.27873 195.275 10.7414 190.006 13.7784 185.175C14.1169 184.64 14.9551 184.082 14.1071 183.299C20.0168 177.235 27.3333 173.764 35.5076 171.901C36.635 171.643 37.7723 171.226 38.9753 171.428C39.0541 172.579 39.9514 172.292 40.6187 172.309C41.4042 172.322 42.1963 172.005 42.9786 172.361C42.8997 172.648 42.3541 172.7 42.571 173.157C43.166 173.287 43.8693 172.981 44.3196 173.607Z" fill="#C4E7F1"/>
<path d="M9.2163 242.352C8.62467 241.468 7.62876 240.855 7.43813 239.703C8.35515 239.599 9.10455 239.902 9.89996 240.402C19.1524 246.215 29.1969 249.161 40.2111 248.498C41.4108 248.427 42.7584 248.681 43.4289 247.252C44.8948 246.44 46.6796 247.102 48.139 246.248C52.4184 246.238 56.0734 244.382 59.6987 242.427C60.2575 242.127 60.79 241.863 60.2904 241.116C61.7168 241.165 62.2756 240.111 62.8804 239.11C63.7744 240.212 64.5632 239.172 65.0859 238.787C66.8673 237.485 68.8033 236.314 70.0588 234.409C70.3546 234.706 70.6505 235.003 70.943 235.299C71.3966 237.025 69.809 237.606 68.9249 238.294C58.3873 246.46 46.6007 250.56 33.0393 249.461C25.5979 248.857 18.781 246.665 12.3256 243.145C11.3067 242.587 10.3601 242.215 9.2163 242.352Z" fill="#7CD1EE"/>
<path d="M9.2163 242.352C10.3601 242.215 11.3034 242.584 12.3289 243.145C18.7842 246.668 25.5978 248.857 33.0425 249.461C46.604 250.56 58.3905 246.46 68.9281 238.294C69.8123 237.609 71.3998 237.028 70.9463 235.299C71.8797 235.11 72.4713 235.769 73.1616 236.177C72.4056 237.606 70.9462 238.291 69.786 239.286C61.1712 246.675 51.0248 250.361 39.7871 251.112C31.4057 251.673 23.4219 249.862 15.7373 246.525C14.771 246.104 13.7126 244.789 12.3552 245.885C11.0339 244.952 10.2122 243.576 9.2163 242.352Z" fill="#7AD0ED"/>
<path d="M12.3552 245.889C13.7127 244.793 14.7678 246.107 15.7374 246.528C23.422 249.865 31.4057 251.673 39.7871 251.115C51.0248 250.364 61.1712 246.678 69.786 239.289C70.9463 238.294 72.4056 237.609 73.1616 236.18C73.4574 236.324 73.7565 236.471 74.0523 236.614C73.9701 237.374 73.5922 237.922 73.017 238.461C69.0958 242.153 64.7243 245.151 59.817 247.441C48.2638 252.837 36.3294 253.871 23.9479 250.971C21.1212 250.309 18.5312 248.707 15.5007 248.887C14.2484 248.104 13.246 247.053 12.3552 245.889Z" fill="#6FCDEB"/>
<path d="M74.874 201.502C73.6677 201.153 72.3464 201.568 71.1402 201.18C71.0547 201.153 70.9693 201.118 70.8838 201.082C70.7556 201.026 70.6307 200.961 70.5091 200.879C70.5979 200.814 70.68 200.749 70.7523 200.677C71.2717 200.185 71.4064 199.558 71.413 198.798C71.4294 196.818 71.2618 194.87 70.9561 192.916C69.6841 184.819 64.7966 179.335 57.9403 174.977C58.7061 175.036 59.3076 174.801 59.8828 174.488C60.4678 174.347 61.0496 174.204 61.6314 174.064C62.486 174.39 63.3898 174.595 64.2444 174.915C64.251 174.918 64.2543 174.922 64.2608 174.925C64.6618 175.075 65.053 175.258 65.4211 175.493C65.4244 175.493 65.4277 175.493 65.4277 175.496C65.5493 175.574 65.6676 175.656 65.7859 175.747C64.6487 176.559 65.7399 176.99 66.1409 177.417C71.9915 183.687 75.0153 190.959 73.9931 199.591C73.8715 200.615 74.4336 200.938 74.874 201.502Z" fill="#38B7E4"/>
<path d="M15.504 248.89C18.5344 248.711 21.1244 250.312 23.9511 250.975C36.3326 253.875 48.2671 252.841 59.8203 247.445C64.7275 245.155 69.0958 242.157 73.0202 238.464C73.5921 237.926 73.9701 237.377 74.0556 236.617C74.5453 236.601 75.0679 236.692 75.39 236.174C80.6818 230.634 84.5241 224.237 86.94 216.988C87.3015 215.899 87.4527 214.656 88.7444 214.134C88.8792 214.284 89.0139 214.437 89.1487 214.587C89.1454 214.884 89.1421 215.178 89.1388 215.475C88.6557 215.511 88.281 215.732 88.1462 216.196C86.9991 220.107 84.8331 223.585 83.3803 227.366C81.3228 229.91 79.3342 232.507 77.6119 235.293C75.6563 236.875 73.8814 238.637 72.2873 240.578C69.4803 242.287 66.864 244.261 64.3003 246.303C57.9731 250.273 51.0116 252.367 43.6392 253.369C35.9218 254.416 28.4114 253.614 21.0226 251.291C20.3258 251.072 19.5632 250.926 18.9979 251.65C17.6766 250.916 16.536 249.97 15.504 248.89Z" fill="#69CCE9"/>
<path d="M82.6704 240.16C75.8995 250.345 66.3151 256.413 54.4332 259.055C51.1234 259.792 47.7609 260.223 44.3459 259.881C46.8406 258.536 49.7035 258.592 52.3592 257.812C61.5393 255.124 69.8583 251.04 76.9973 244.587C78.7525 243.005 80.2283 240.927 82.6704 240.16Z" fill="#46C0DB"/>
<path d="M43.4322 247.252C42.7584 248.684 41.4108 248.427 40.2144 248.499C29.2002 249.164 19.1557 246.215 9.90323 240.402C9.10782 239.902 8.35843 239.602 7.4414 239.703C7.15873 239.25 6.87278 238.8 6.59011 238.346C6.8432 238.05 7.09627 237.753 7.35265 237.456C8.46031 236.885 9.27216 237.459 10.1432 238.079C15.3331 241.785 21.0752 244.293 27.33 245.559C31.1164 246.326 34.9686 246.91 38.8438 246.512C40.0468 246.388 41.1544 246.293 42.2818 246.701C42.6631 246.887 43.0476 247.07 43.4322 247.252Z" fill="#80D2EF"/>
<path d="M76.7475 199.183C76.6883 200.442 76.4024 201.454 75.39 202.22C75.2553 202.233 75.1205 202.23 74.9858 202.217C74.9496 201.979 74.9135 201.741 74.874 201.502C74.4336 200.938 73.8715 200.618 73.9931 199.594C75.0121 190.962 71.9915 183.691 66.1409 177.421C65.7399 176.993 64.6487 176.559 65.7859 175.75C66.3973 176.086 67.0284 176.396 67.6561 176.706C67.6594 176.709 67.6627 176.709 67.666 176.713C69.2831 177.649 70.8345 178.683 72.3169 179.805C72.3004 179.822 72.2873 179.835 72.2741 179.848C72.261 179.861 72.2478 179.877 72.2314 179.893C72.2215 179.903 72.2183 179.906 72.215 179.913C72.1887 179.939 72.169 179.965 72.1525 179.991C72.1295 180.017 72.1098 180.047 72.0966 180.073C72.0802 180.092 72.0703 180.109 72.0605 180.128C72.0506 180.151 72.0375 180.171 72.0276 180.193C72.0112 180.223 72.0013 180.255 71.9882 180.288C71.9027 180.526 71.9422 180.751 72.0375 180.96C72.0966 181.091 72.1788 181.215 72.2676 181.335C72.3563 181.453 72.4516 181.57 72.5437 181.681C72.5864 181.74 72.6324 181.795 72.6718 181.847C72.7113 181.903 72.7474 181.958 72.777 182.011C75.8206 187.354 77.0236 193.079 76.7475 199.183Z" fill="#32ADDF"/>
<path d="M85.8586 234.037C84.6326 233.864 84.225 235.058 83.7254 235.717C78.0031 243.308 70.7359 248.988 62.1671 253.072C55.6033 256.201 48.632 257.874 41.4207 258.615C40.5168 258.709 39.6589 258.758 39.0114 259.476C39.2086 259.538 39.4058 259.59 39.603 259.639L43.5078 259.933H43.5111C43.7905 259.923 44.0666 259.903 44.3492 259.884C46.8439 258.54 49.7067 258.595 52.3625 257.815C61.5459 255.131 69.8649 251.043 77.0039 244.59C77.211 244.404 77.4147 244.209 77.6152 244.01C77.9603 243.67 78.2989 243.321 78.644 242.976C78.759 242.861 78.8741 242.744 78.9891 242.633C79.1239 242.499 79.2619 242.365 79.4033 242.238C79.4986 242.144 79.6005 242.056 79.6991 241.967C79.939 241.752 80.1888 241.543 80.4485 241.348C80.5668 241.256 80.6884 241.168 80.81 241.083C81.0697 240.907 81.3392 240.744 81.6219 240.601C81.6646 240.574 81.7106 240.555 81.7533 240.535C81.7796 240.522 81.8092 240.509 81.8355 240.493C81.8782 240.47 81.9243 240.451 81.967 240.431C81.99 240.421 82.0097 240.411 82.0294 240.405C82.0787 240.382 82.1248 240.362 82.1774 240.343C82.2168 240.327 82.2562 240.313 82.2957 240.297C82.3022 240.294 82.3055 240.294 82.3088 240.291C82.4238 240.248 82.5455 240.203 82.6704 240.163L85.8586 234.037Z" fill="#4AC4DE"/>
<path d="M88.4815 226.837C88.2251 227.809 87.9293 228.762 87.6105 229.701C87.6039 229.705 87.6006 229.711 87.5941 229.711C87.4922 229.776 87.3935 229.848 87.3015 229.92C87.1996 229.995 87.101 230.073 87.009 230.155C86.9137 230.236 86.8216 230.321 86.7329 230.409C86.6573 230.478 86.585 230.553 86.5127 230.628C86.4667 230.677 86.4174 230.729 86.3714 230.784C86.3221 230.833 86.2761 230.886 86.23 230.941C86.1577 231.026 86.0854 231.114 86.0164 231.202C85.9539 231.28 85.8948 231.359 85.8356 231.44C85.8225 231.457 85.8093 231.473 85.7962 231.489C85.783 231.512 85.7666 231.532 85.7534 231.551C85.7469 231.558 85.7436 231.564 85.7403 231.571C85.6713 231.669 85.6055 231.763 85.5365 231.861C82.6342 236.219 79.1305 240.082 75.2257 243.553C71.2651 247.076 66.8443 250.015 62.0159 252.237C54.0421 255.901 45.6804 257.975 36.8224 257.76C35.8495 257.734 34.939 258.008 34.1337 258.576C33.2726 258.36 32.4147 258.145 31.5536 257.926C31.2249 257.845 30.8962 257.76 30.5708 257.678C30.5774 257.656 30.5807 257.636 30.5905 257.617C30.6168 257.535 30.6431 257.46 30.676 257.391C30.676 257.391 30.676 257.388 30.6793 257.385C30.6924 257.356 30.7056 257.326 30.722 257.3C30.8403 257.088 30.9915 256.961 31.1624 256.889C31.1887 256.879 31.215 256.866 31.2413 256.86C31.4155 256.801 31.6029 256.794 31.8001 256.804C31.9841 256.814 32.1748 256.843 32.3589 256.866C32.4016 256.873 32.4509 256.876 32.4936 256.883C32.5824 256.892 32.6711 256.896 32.7533 256.896H32.7796C37.4764 256.837 42.1503 256.869 46.8308 256.064C61.845 253.467 73.6579 245.843 82.907 234.017C84.4453 232.05 85.7173 229.927 86.9499 227.767C87.4199 226.951 87.7058 226.651 88.0871 226.697C88.1068 226.7 88.1265 226.703 88.1495 226.707C88.1758 226.713 88.2021 226.72 88.2317 226.73C88.2613 226.739 88.2942 226.752 88.3303 226.765C88.3435 226.772 88.3566 226.775 88.373 226.785C88.4092 226.801 88.4454 226.818 88.4815 226.837Z" fill="#55C7E1"/>
<path d="M0.759267 222.674C-0.0723004 219.605 -0.0197087 216.47 0.0427411 213.331C1.87022 212.875 1.74532 215.178 3.06663 215.439C4.16114 215.837 5.41671 216.085 5.66322 217.484C6.06421 219.768 7.91798 220.205 9.71588 220.743C11.6058 221.418 13.0126 222.475 12.9008 224.73C12.8515 224.987 12.8055 225.245 12.7562 225.503C12.4834 225.689 12.2073 225.875 11.9345 226.064C8.38471 224.136 4.63773 222.551 1.58755 219.941C0.516048 220.893 0.995919 221.865 0.759267 222.674Z" fill="#3566AA"/>
<path d="M89.461 222.218C89.2145 223.784 88.8891 225.327 88.4815 226.834C88.4454 226.814 88.4092 226.798 88.3763 226.782C88.3599 226.772 88.3468 226.769 88.3336 226.762C88.3007 226.749 88.2679 226.736 88.235 226.726C88.2054 226.716 88.1758 226.71 88.1528 226.703C88.1298 226.697 88.1101 226.694 88.0904 226.694C87.7091 226.648 87.4231 226.948 86.9531 227.764C85.7206 229.923 84.4486 232.047 82.9103 234.014C73.6612 245.84 61.8483 253.464 46.8341 256.06C42.1536 256.869 37.483 256.837 32.7829 256.892H32.7566C32.6744 256.892 32.5856 256.886 32.4969 256.879C32.4542 256.873 32.4049 256.869 32.3622 256.863C32.1781 256.84 31.9874 256.811 31.8034 256.801C31.6062 256.791 31.4188 256.798 31.2446 256.856C31.2183 256.866 31.1887 256.876 31.1657 256.886C30.9948 256.961 30.8436 257.088 30.7253 257.297C30.7122 257.323 30.699 257.352 30.6826 257.382C30.6793 257.385 30.6793 257.388 30.6793 257.388C30.6464 257.457 30.6168 257.532 30.5938 257.613C30.584 257.633 30.5807 257.656 30.5741 257.675C30.3013 257.558 30.0285 257.44 29.7557 257.32C28.8222 256.915 27.8888 256.507 26.952 256.103C27.4648 255.323 28.2668 255.483 28.9668 255.587C38.1568 257.006 47.1233 256.057 55.8334 252.942C65.4507 249.503 73.602 243.977 80.1987 236.125C83.2982 232.432 85.622 228.315 88.0608 224.231C88.4848 223.536 88.9877 222.89 89.461 222.218Z" fill="#59C8E3"/>
<path d="M87.6072 229.701C87.0978 231.182 86.5127 232.631 85.8553 234.037C84.6293 233.864 84.2218 235.058 83.7222 235.717C77.9998 243.308 70.7326 248.988 62.1639 253.072C55.6001 256.201 48.6287 257.874 41.4174 258.615C40.5135 258.709 39.6556 258.758 39.0081 259.476C38.8076 259.486 38.6104 259.486 38.4132 259.482C38.4066 259.482 38.4034 259.483 38.3968 259.479L34.9555 258.84C34.9489 258.837 34.9423 258.837 34.9357 258.833C34.6662 258.752 34.3967 258.664 34.1337 258.576C34.9357 258.008 35.8495 257.734 36.8224 257.76C45.6771 257.975 54.0421 255.901 62.0159 252.237C66.8443 250.015 71.2618 247.076 75.2257 243.553C79.1305 240.082 82.6342 236.219 85.5365 231.861C85.6022 231.763 85.668 231.665 85.7403 231.571C85.7468 231.564 85.7501 231.558 85.7534 231.551C85.7797 231.512 85.8093 231.476 85.8356 231.437C85.8948 231.355 85.9507 231.274 86.0164 231.199C86.0854 231.111 86.1577 231.023 86.23 230.938C86.2761 230.882 86.3221 230.83 86.3714 230.781C86.4141 230.726 86.4667 230.674 86.5127 230.625C86.585 230.55 86.6573 230.475 86.7329 230.406C86.8217 230.318 86.917 230.236 87.009 230.152C87.1043 230.073 87.1996 229.992 87.3015 229.917C87.3969 229.845 87.4922 229.773 87.5941 229.708C87.5974 229.708 87.6039 229.705 87.6072 229.701Z" fill="#50C6DF"/>
<path d="M78.5619 200.615C78.3219 201.822 77.8979 203.169 78.4928 204.455C77.9012 204.788 77.3096 204.954 76.7081 204.471C76.5667 204.024 76.4221 203.577 76.2775 203.13C75.9817 202.824 75.6859 202.524 75.3868 202.217C76.3991 201.45 76.6851 200.439 76.7442 199.18C77.0203 193.079 75.8174 187.351 72.7705 182.004C72.7409 181.952 72.7047 181.896 72.6653 181.841C72.6258 181.789 72.5831 181.733 72.5371 181.675C72.4451 181.56 72.3498 181.446 72.261 181.329C72.1723 181.208 72.0901 181.084 72.0309 180.954C71.9356 180.745 71.8962 180.523 71.9816 180.282C71.9915 180.249 72.0046 180.22 72.0211 180.187C72.0309 180.164 72.0441 180.145 72.0539 180.122C72.0638 180.102 72.0737 180.086 72.0901 180.066C72.1032 180.04 72.1229 180.011 72.146 179.985C72.1657 179.959 72.1854 179.936 72.2084 179.906C72.2117 179.9 72.2183 179.897 72.2248 179.887C72.2511 179.857 72.2807 179.825 72.3103 179.795C73.8058 180.931 75.229 182.161 76.5667 183.469C76.4221 184.659 76.7869 185.775 77.1156 186.894C78.4337 191.386 79.515 195.865 78.5619 200.615Z" fill="#35A5DD"/>
<path d="M85.5069 195.833C85.4477 195.996 85.3919 196.159 85.3426 196.322C85.29 196.479 85.244 196.635 85.1979 196.795C85.1947 196.802 85.1946 196.805 85.1914 196.815C85.1388 196.997 85.0895 197.18 85.0467 197.366C84.9843 197.604 84.9317 197.846 84.8857 198.087C84.8561 198.24 84.8232 198.397 84.8002 198.55C84.7608 198.759 84.7279 198.968 84.6983 199.176C84.672 199.356 84.649 199.535 84.626 199.715C84.603 199.901 84.5833 200.09 84.5636 200.276C84.5537 200.384 84.5406 200.494 84.534 200.602C84.5241 200.716 84.5143 200.824 84.5077 200.938C84.4913 201.16 84.4748 201.385 84.4617 201.61C84.442 201.979 84.4222 202.351 84.4091 202.719C84.4025 202.886 84.3992 203.059 84.3927 203.228C84.3598 204.259 84.3434 205.293 84.3006 206.324C82.6013 208.507 82.5093 211.162 82.1083 213.726C81.8585 214.092 81.6383 214.486 81.1486 214.587C80.5043 213.481 80.7607 212.046 79.8371 211.045C79.8273 210.617 79.8207 210.19 79.8108 209.759C82.529 205.186 82.8807 200.165 82.6507 195.024C82.6211 194.332 82.3581 193.598 82.3581 192.9C82.3581 192.835 82.3614 192.769 82.368 192.704C82.368 192.685 82.3713 192.662 82.3745 192.642V192.629C82.3811 192.583 82.3844 192.535 82.3943 192.492C82.4008 192.466 82.4041 192.437 82.4107 192.414C82.4206 192.381 82.4271 192.352 82.437 192.319C82.4469 192.287 82.4567 192.257 82.4666 192.225C82.4764 192.189 82.4929 192.153 82.5093 192.114C82.5225 192.078 82.5389 192.042 82.5586 192.006C82.5849 191.957 82.6112 191.908 82.6441 191.856C82.6638 191.827 82.6835 191.794 82.7065 191.765C82.7295 191.735 82.7493 191.703 82.7756 191.673C82.8018 191.644 82.8248 191.615 82.8544 191.585C82.8807 191.559 82.9103 191.527 82.9366 191.5C82.9662 191.471 82.999 191.438 83.0319 191.416C83.9391 192.838 84.7641 194.312 85.5069 195.833Z" fill="#3992CF"/>
<path d="M0.759267 222.674C0.995919 221.865 0.516048 220.893 1.58755 219.941C4.63774 222.551 8.38472 224.136 11.9378 226.064C11.4711 227.333 11.241 228.635 11.4513 229.988C11.3363 230.037 11.2278 230.09 11.1194 230.155C11.0668 229.385 11.0142 228.615 10.9616 227.813C10.3338 228.021 10.8203 228.931 9.90653 228.961C8.11849 227.959 5.93932 227.48 4.10198 226.185C3.16852 225.526 1.8242 224.818 1.68944 227.003C1.07481 225.624 0.755981 224.182 0.759267 222.674Z" fill="#365CA8"/>
<path d="M83.0319 191.419C82.9991 191.445 82.9695 191.474 82.9366 191.504C82.9103 191.53 82.8807 191.562 82.8544 191.588C82.8281 191.618 82.8019 191.647 82.7756 191.677C82.7493 191.706 82.7295 191.739 82.7065 191.768C82.6835 191.797 82.6638 191.83 82.6441 191.859C82.6112 191.908 82.5816 191.957 82.5586 192.009C82.5389 192.045 82.5225 192.081 82.5093 192.117C82.4962 192.156 82.4798 192.192 82.4666 192.228C82.4567 192.261 82.4436 192.29 82.437 192.322C82.4304 192.355 82.4206 192.384 82.4107 192.417C82.4041 192.443 82.4009 192.469 82.3943 192.495C82.3844 192.538 82.3811 192.587 82.3746 192.632V192.645C82.3713 192.665 82.368 192.688 82.368 192.707C82.3614 192.769 82.3581 192.838 82.3581 192.903C82.3548 193.598 82.6178 194.335 82.6507 195.027C82.8807 200.168 82.5291 205.186 79.8108 209.762C79.1995 208.993 78.9201 208.109 78.9168 207.133C78.6013 205.659 80.0015 204.761 80.1888 203.496C80.7443 199.738 80.9547 195.986 80.4255 192.176C80.2085 190.629 79.1863 189.028 80.1362 187.4C81.1749 188.682 82.1412 190.023 83.0319 191.419Z" fill="#3998D4"/>
<path d="M13.785 185.172C10.7479 190.003 9.28531 195.272 9.25901 200.948C8.44059 201.251 8.07575 202.305 7.04697 202.259C6.97138 199.33 7.00425 196.407 7.68791 193.539C7.90813 192.613 8.24338 191.699 7.53343 190.835C9.34776 187.993 11.4776 185.426 14.1169 183.299C14.9617 184.082 14.1235 184.637 13.785 185.172Z" fill="#BDE5F0"/>
<path d="M80.1922 203.496C80.0048 204.765 78.6046 205.659 78.9202 207.133C78.2463 206.324 78.6112 205.352 78.4896 204.458C77.8947 203.173 78.3187 201.825 78.5586 200.618C79.5118 195.869 78.4304 191.389 77.119 186.904C76.7936 185.785 76.4255 184.669 76.5701 183.479C77.8355 184.715 79.0286 186.023 80.1396 187.403C79.1897 189.031 80.2119 190.633 80.4288 192.179C80.958 195.986 80.7476 199.738 80.1922 203.496Z" fill="#369FD9"/>
<path d="M1.68944 227C1.8242 224.815 3.1718 225.522 4.10198 226.181C5.93932 227.48 8.11849 227.959 9.90653 228.958C10.8203 228.928 10.3338 228.018 10.9616 227.809C11.0175 228.612 11.0668 229.382 11.1194 230.152C11.0372 230.961 10.9517 231.77 10.8696 232.575C10.3272 232.856 10.1333 233.766 9.26231 233.453C7.77009 231.502 4.74291 230.318 2.98774 230.997C2.28107 229.754 1.83406 228.426 1.68944 227Z" fill="#3454A4"/>
<path d="M7.68791 193.539C7.00754 196.41 6.97466 199.333 7.04697 202.259C6.42248 202.977 5.43315 201.878 4.82837 202.696C4.1743 203.163 3.39203 202.739 2.67222 202.739C2.62949 202.739 2.59005 202.742 2.55061 202.745C2.51116 202.749 2.47172 202.752 2.43557 202.758C2.4027 202.762 2.37312 202.768 2.33696 202.778C2.31067 202.785 2.28766 202.788 2.26136 202.798C2.23507 202.807 2.20549 202.817 2.1759 202.83C2.1529 202.84 2.13318 202.846 2.11017 202.86C2.08717 202.869 2.06744 202.879 2.04772 202.889C1.96227 202.938 1.87681 203.003 1.79135 203.085C1.77163 203.101 1.75519 203.117 1.73876 203.137V203.134C2.028 202.054 2.35997 200.99 2.73796 199.95C2.74782 199.924 2.75768 199.891 2.76754 199.862C2.86614 199.597 2.96474 199.33 3.06992 199.069C3.13894 198.889 3.21126 198.71 3.28685 198.534C3.3493 198.377 3.41833 198.221 3.48406 198.064C3.48406 198.058 3.48406 198.054 3.49063 198.048C3.50049 198.015 3.51693 197.986 3.53336 197.95C3.59581 197.8 3.66484 197.646 3.73058 197.496C4.76921 195.167 6.04122 192.946 7.53343 190.825C8.24339 191.699 7.90813 192.613 7.68791 193.539Z" fill="#B4E2EF"/>
<path d="M2.98773 231C4.74289 230.318 7.77007 231.502 9.26229 233.456C9.12096 233.502 8.98291 233.551 8.84486 233.603C6.69527 234.259 8.37485 236.376 7.34935 237.462C7.09627 237.759 6.84318 238.056 6.58681 238.353C5.03542 236.069 3.6681 233.701 2.98773 231Z" fill="#334C9F"/>
<path d="M51.7676 174.56C49.286 174.24 46.8045 173.923 44.3196 173.607C43.8693 172.984 43.166 173.287 42.5809 173.153C42.3607 172.697 42.9063 172.648 42.9885 172.358C43.2449 172.149 43.6524 172.035 43.4092 171.379H39.8561C43.5768 170.746 47.2942 170.677 51.0083 171.415C50.5186 171.447 50.0289 171.48 49.5359 171.516C49.7199 173.023 51.7906 173.013 51.7676 174.56Z" fill="#B9E4EF"/>
<path d="M87.6762 201.098C87.6368 201.15 87.5973 201.202 87.5612 201.251C87.5185 201.303 87.479 201.356 87.4396 201.408C87.4133 201.441 87.387 201.473 87.3607 201.506C87.3245 201.548 87.2917 201.594 87.2621 201.636V201.64C87.2292 201.682 87.1996 201.731 87.1766 201.773C87.1635 201.796 87.1503 201.816 87.1372 201.839C87.124 201.861 87.1142 201.881 87.1076 201.904C87.0846 201.953 87.0682 202.002 87.0583 202.051C87.0517 202.067 87.0484 202.083 87.0484 202.1C87.0419 202.132 87.0419 202.168 87.0452 202.201C87.1799 203.691 86.1939 204.321 85.1684 204.974C84.8791 205.42 84.5899 205.874 84.3006 206.324C84.3434 205.293 84.3598 204.259 84.3927 203.228C84.3992 203.059 84.4025 202.886 84.4091 202.719C84.4222 202.347 84.442 201.976 84.4617 201.61C84.4748 201.388 84.4913 201.163 84.5077 200.938C84.5176 200.824 84.5241 200.716 84.534 200.602C84.5438 200.491 84.5537 200.384 84.5636 200.276C84.5833 200.09 84.603 199.901 84.626 199.715C84.649 199.535 84.672 199.356 84.6983 199.176C84.7279 198.968 84.7608 198.759 84.8002 198.55C84.8265 198.397 84.8561 198.24 84.8857 198.087C84.9317 197.849 84.9843 197.607 85.0467 197.366C85.0895 197.183 85.1421 196.997 85.1914 196.815C85.1946 196.805 85.1947 196.802 85.1979 196.795C85.2407 196.635 85.29 196.479 85.3426 196.322C85.3919 196.156 85.4477 195.996 85.5069 195.833C86.3385 197.532 87.0649 199.287 87.6762 201.098Z" fill="#398ACA"/>
<path d="M3.06663 215.439C1.74862 215.181 1.87021 212.885 0.0526059 213.331L0.0427459 213.335C0.0953349 211.56 0.226808 209.792 0.598218 208.066C0.765846 207.283 0.979485 206.507 1.26215 205.74C1.23586 206.986 1.17341 208.246 2.60975 208.865C2.70507 210.402 3.22767 211.854 3.94419 213.159C4.66729 214.46 4.0198 214.933 3.06663 215.439Z" fill="#A4DCEE"/>
<path d="M5.27209 204.461C5.12089 204.752 4.97299 205.049 4.82179 205.339C3.55965 205.261 2.9976 205.851 3.04033 207.104C3.06005 207.714 3.22438 208.396 2.60975 208.865C1.1734 208.246 1.23257 206.986 1.26215 205.74C0.979484 206.507 0.76256 207.283 0.598218 208.066C1.05837 205.267 1.77818 202.553 2.74122 199.956C2.36324 200.997 2.02799 202.06 1.74204 203.14V203.143C1.75847 203.124 1.77491 203.108 1.79463 203.091C1.8768 203.01 1.96225 202.944 2.051 202.895C2.07401 202.886 2.09373 202.873 2.11345 202.866C2.13646 202.853 2.15617 202.84 2.17918 202.837C2.20876 202.824 2.23835 202.811 2.26464 202.804C2.29094 202.794 2.31394 202.791 2.34023 202.785C2.3731 202.775 2.40269 202.768 2.43884 202.765C2.47828 202.755 2.51773 202.755 2.55388 202.752C2.59661 202.749 2.63277 202.745 2.67549 202.745C3.39531 202.742 4.17757 203.17 4.83165 202.703C5.47916 203.163 5.20964 203.851 5.27209 204.461Z" fill="#A6DDEE"/>
<path d="M1.74203 203.137C1.75846 203.117 1.7749 203.101 1.79461 203.088C1.7749 203.104 1.75846 203.121 1.74203 203.137Z" fill="#9EDBEF"/>
<path d="M42.9852 172.358C42.2029 172.002 41.4108 172.318 40.6252 172.305C39.958 172.292 39.0607 172.576 38.9818 171.424C39.271 171.408 39.5603 171.395 39.8528 171.379H43.4059C43.6491 172.035 43.2415 172.149 42.9852 172.358Z" fill="#7BBACB"/>
<path d="M83.3705 227.362C84.8233 223.581 86.9893 220.101 88.1364 216.192C88.2711 215.729 88.6491 215.507 89.129 215.471C87.6434 218.792 86.6179 222.309 84.7608 225.47C84.3664 226.149 84.2152 227.007 83.3705 227.362Z" fill="#69CCE8"/>
<path d="M64.2904 246.3C66.8542 244.258 69.4705 242.284 72.2774 240.575C70.095 243.142 67.3965 245.001 64.2904 246.3Z" fill="#69CCE8"/>
<path d="M77.6021 235.29C79.3244 232.504 81.3129 229.907 83.3705 227.362C82.0623 230.445 80.1888 233.124 77.6021 235.29Z" fill="#69CCE8"/>
<path d="M72.2774 240.575C73.8715 238.633 75.6464 236.872 77.6021 235.29C76.3564 237.576 74.5815 239.338 72.2774 240.575Z" fill="#69CCE8"/>
<path d="M86.9301 206.207C87.9753 207.502 87.5842 209.364 88.705 210.63C87.4363 209.89 87.1438 210.816 86.963 211.71C86.3582 214.659 85.4248 217.514 84.1988 220.247C81.9144 225.34 79.2784 230.23 74.9398 233.968C75.1764 232.51 75.5478 231.062 75.3901 229.564C76.2381 230.165 76.6654 229.659 77.1058 228.984C78.1346 227.405 79.4 225.947 80.2119 224.27C81.6843 221.226 84.133 218.391 82.9301 214.591C83.6269 214.424 83.6334 215.328 84.0081 215.413C85.6384 212.486 85.3426 209.071 86.9301 206.207Z" fill="#79D0ED"/>
<path d="M74.9364 233.968C79.2751 230.227 81.9111 225.34 84.1955 220.247C85.4214 217.514 86.3582 214.659 86.9597 211.71C87.1437 210.816 87.433 209.89 88.7017 210.63C88.7115 211.798 88.7247 212.963 88.7346 214.131C87.4428 214.653 87.2949 215.896 86.9301 216.985C84.5175 224.234 80.672 230.631 75.3802 236.17C75.1764 235.45 73.8649 234.947 74.9364 233.968Z" fill="#6FCDEB"/>
<path d="M86.9301 206.207C85.3426 209.071 85.6384 212.486 84.0081 215.413C83.6334 215.328 83.6269 214.424 82.9301 214.591C82.6572 214.304 82.3844 214.016 82.1116 213.729C82.5093 211.165 82.6046 208.513 84.3007 206.327C84.5899 205.877 84.8791 205.427 85.1684 204.977C86.1544 204.823 86.8052 205.146 86.9301 206.207Z" fill="#7DD1EE"/>
<path d="M35.8922 224.72C33.0984 225.947 30.5248 224.743 28.0663 223.777C19.0406 220.234 13.4234 213.53 12.0791 204.116C10.6427 194.042 14.2024 185.566 22.7646 179.505C23.4088 179.048 24.0596 178.794 24.1221 177.734C24.1779 176.788 25.4927 176.272 26.1435 176.481C28.2931 177.173 29.9989 175.796 31.9316 175.6C33.884 175.404 35.8758 174.837 37.6638 176.194C36.7172 176.279 35.9284 176.768 35.1034 177.169C33.598 177.74 31.8165 177.574 30.5741 178.843C30.1271 178.836 29.6801 178.83 29.2331 178.823C28.2109 178.086 27.2774 178.575 26.3407 179.022C15.9378 183.987 10.7972 195.891 13.9592 206.598C16.7168 215.935 23.0571 221.699 32.7204 223.761C33.7919 223.999 35.1724 223.301 35.8922 224.72Z" fill="#CCEAF1"/>
<path d="M9.70602 204.014C10.3765 206.702 11.0668 209.387 12.3421 211.87C16.7727 220.499 23.7079 225.826 33.4238 227.242C34.7648 227.437 36.6515 228.37 37.7131 226.384C37.8216 226.462 37.9366 226.53 38.0549 226.589C38.2226 227.578 38.3902 228.566 38.5578 229.555C37.7197 229.692 36.8651 230.011 36.0467 229.933C27.7737 229.17 20.4901 226.23 14.9058 219.928C11.0996 215.635 8.41759 210.754 7.93771 204.902C8.70683 204.957 9.09467 204.269 9.70602 204.014Z" fill="#BEE5F0"/>
<path d="M35.8922 224.72C35.1724 223.301 33.7919 223.996 32.7171 223.767C23.0539 221.706 16.7136 215.941 13.9559 206.605C10.794 195.898 15.9346 183.991 26.3374 179.029C27.2741 178.582 28.2109 178.093 29.2298 178.83C28.0268 179.342 28.9504 180.096 29.0063 180.751C28.3555 180.732 27.7047 180.712 27.0539 180.693C24.8583 181.042 23.136 182.206 21.5321 183.674C17.0915 187.733 14.6856 192.848 14.2451 198.69C13.9263 202.935 14.3569 207.238 17.4235 210.8C17.8508 210.271 17.5517 209.619 18.0743 209.299C18.8401 212.924 20.6742 215.82 23.9117 217.762C24.9635 219.239 26.4327 220.088 28.0958 220.782C30.3572 221.725 32.7138 222.091 35.1001 222.397C35.4912 222.903 35.8856 223.412 36.2768 223.917C36.2866 224.045 36.3031 224.169 36.3228 224.293C36.1814 224.439 36.0368 224.58 35.8922 224.72Z" fill="#CDEBF1"/>
<path d="M36.3293 224.299C36.3096 224.175 36.2965 224.048 36.2834 223.924C37.1544 223.5 37.9531 223.914 38.7682 224.139C43.5374 225.451 48.3329 225.588 53.0955 224.208C55.5409 223.5 57.9107 222.534 60.3134 221.686C60.3101 221.817 60.2969 221.944 60.2739 222.071C58.7455 222.798 58.5779 224.501 57.6609 225.666C57.1876 225.115 56.665 225.552 56.2574 225.699C51.1793 227.522 46.0058 227.77 40.6844 227.039C39.8068 226.919 39.0147 226.1 38.0484 226.596C37.9301 226.537 37.815 226.469 37.7066 226.39C37.7526 225.359 37.1083 224.785 36.3293 224.299Z" fill="#3D8FCD"/>
<path d="M35.1001 177.173C35.9251 176.771 36.7139 176.282 37.6605 176.197C39.7279 174.951 41.9137 174.002 44.3196 173.607C46.8045 173.923 49.286 174.243 51.7676 174.563C51.8103 174.821 51.8531 175.075 51.8958 175.333C51.738 175.499 51.5802 175.669 51.4192 175.835C49.2072 177.081 46.7979 177.711 44.2966 178.047C42.4954 177.727 43.7543 176.657 43.9548 175.652C42.9194 176.132 42.1405 176.494 41.3681 176.853C41.9958 178.853 40.9046 179.936 38.4888 179.828C38.4954 178.774 38.3935 177.877 36.9341 178.562C35.4649 179.251 35.2085 178.295 35.1001 177.173Z" fill="#3DC4EA"/>
<path d="M9.70602 204.014C9.09467 204.269 8.70354 204.957 7.93442 204.905C6.99439 205.052 6.15953 204.608 5.2688 204.458C5.20635 203.851 5.47588 203.16 4.82508 202.697C5.42986 201.878 6.4192 202.977 7.04369 202.259C8.07247 202.305 8.4373 201.251 9.25572 200.948C9.40692 201.972 9.55811 202.993 9.70602 204.014Z" fill="#A6DDEE"/>
<path d="M43.4322 247.252C43.0476 247.07 42.6631 246.887 42.2785 246.708C42.3607 245.419 41.5324 244.408 41.1971 243.246C42.1043 242.532 43.0312 242.359 44.2276 242.62C45.4109 242.878 46.7585 242.927 47.9187 242.626C49.2663 242.277 50.3346 242.46 51.4094 243.201C50.3806 244.284 49.6345 245.66 48.1422 246.251C46.6862 247.099 44.8981 246.437 43.4322 247.252Z" fill="#3463AE"/>
<path d="M48.1422 246.244C49.6344 245.654 50.3838 244.277 51.4093 243.194C52.0996 243.028 52.3493 242.561 52.3033 241.896C53.033 242.897 53.8777 242.878 54.9492 242.375C56.4349 241.677 57.766 240.568 59.5278 240.539C59.7841 240.731 60.0372 240.924 60.2936 241.116C60.7932 241.863 60.2607 242.127 59.702 242.427C56.0766 244.378 52.4217 246.238 48.1422 246.244Z" fill="#83D3EF"/>
<path d="M74.9364 233.968C73.8616 234.947 75.1764 235.45 75.3835 236.17C75.0647 236.689 74.5388 236.598 74.049 236.614C73.7532 236.471 73.4541 236.324 73.1583 236.18C72.4681 235.772 71.8764 235.11 70.943 235.303C70.6472 235.006 70.3513 234.709 70.0588 234.412C70.0522 234.272 70.049 234.128 70.049 233.988C71.0744 231.675 73.1649 230.328 74.9332 228.69C75.0844 228.98 75.2356 229.274 75.3901 229.564C75.5478 231.065 75.1731 232.51 74.9364 233.968Z" fill="#55C9F3"/>
<path d="M70.049 233.985C70.0522 234.125 70.0555 234.269 70.0588 234.409C68.8033 236.314 66.8706 237.485 65.0859 238.787C64.5632 239.168 63.7777 240.212 62.8804 239.11C62.9395 238.408 62.933 237.691 63.4359 237.11C64.2871 236.043 64.2247 234.536 65.2009 233.528C65.8714 233.088 66.6241 233.048 67.3932 233.078C68.182 233.668 69.0037 234.151 70.049 233.985Z" fill="#84D3EE"/>
<path d="M63.4391 237.11C62.9362 237.691 62.9428 238.408 62.8837 239.11C62.2789 240.108 61.7234 241.165 60.2936 241.113C60.0373 240.92 59.7842 240.728 59.5278 240.535C59.9321 239.785 59.4686 239.087 59.3898 238.366C59.679 237.886 60.0011 237.449 60.6453 237.449C61.5459 237.09 62.2559 235.182 63.4391 237.11Z" fill="#517386"/>
<path d="M71.4163 198.798C71.4064 199.558 71.2749 200.188 70.7556 200.677C70.6866 200.749 70.6044 200.817 70.5124 200.879L70.5091 200.883C69.7466 200.967 69.3127 200.357 68.7309 200.054C68.7375 199.907 68.7375 199.764 68.7277 199.614C68.2083 199.098 67.9947 198.478 67.758 197.767C67.1335 195.908 67.6923 193.983 67.1828 192.143C65.1154 184.656 60.5138 179.531 53.0396 177.019C52.4217 176.814 51.4751 176.869 51.4258 175.829C51.5835 175.662 51.7413 175.493 51.8991 175.326H51.9024C54.5351 174.736 57.1777 174.308 59.8894 174.485C59.3175 174.798 58.7127 175.033 57.9468 174.974C64.8032 179.332 69.694 184.813 70.9627 192.913C71.2651 194.87 71.4327 196.818 71.4163 198.798Z" fill="#37C0E9"/>
<path d="M68.7309 200.054C69.3094 200.357 69.7466 200.967 70.5091 200.879C71.8699 201.737 73.4508 201.088 74.874 201.499C74.9102 201.737 74.9463 201.976 74.9825 202.214C73.7664 202.905 75.3243 205.186 73.1681 205.339C73.4212 206.937 73.3391 208.366 71.3834 208.862C70.8707 208.487 71.0219 208.034 71.1533 207.518C71.4524 206.347 71.7121 205.156 70.9923 204.021C71.127 202.051 68.7112 201.992 68.2774 200.449C68.4285 200.322 68.5797 200.188 68.7309 200.054Z" fill="#A7DDEE"/>
<path d="M41.2004 243.243C41.5324 244.404 42.3607 245.416 42.2818 246.704C41.1511 246.296 40.0468 246.391 38.8438 246.515C34.9686 246.913 31.1197 246.329 27.33 245.562C21.0752 244.297 15.3331 241.788 10.1432 238.082C9.27544 237.462 8.46358 236.888 7.35263 237.459C8.37484 236.373 6.69856 234.255 8.84815 233.6C15.997 240.023 24.6151 243.041 34.0187 244.006C36.2537 244.238 38.7386 244.786 40.8126 243.119C40.9408 243.161 41.069 243.204 41.2004 243.243Z" fill="#89D4EE"/>
<path d="M73.1681 205.342C75.3276 205.189 73.7663 202.908 74.9825 202.217C75.1172 202.233 75.252 202.233 75.3867 202.22C75.6826 202.524 75.9817 202.827 76.2775 203.134C75.8042 203.44 75.7253 203.923 75.5774 204.429C75.1994 205.714 74.427 206.223 73.1681 205.342Z" fill="#7DD1EB"/>
<path d="M39.0443 231.339C38.7024 231.923 38.3672 232.504 38.0286 233.081C37.5323 232.321 36.8158 232.197 35.9415 232.187C29.828 232.132 24.2996 230.253 19.2083 226.919C17.4104 225.741 15.8064 224.309 14.3569 223.118C13.2065 223.431 14.5179 225.079 12.9041 224.726C13.0159 222.476 11.6091 221.419 9.71917 220.743C10.0643 220.502 10.416 220.26 10.7874 219.999C7.80952 215.511 5.29181 210.829 4.82508 205.336C4.97628 205.045 5.12418 204.748 5.27538 204.458C6.16611 204.608 7.00096 205.049 7.94099 204.905C8.42087 210.754 11.1029 215.635 14.9091 219.928C20.4934 226.23 27.7803 229.17 36.05 229.933C36.8684 230.008 37.723 229.688 38.5611 229.555C38.6827 229.597 38.8043 229.639 38.926 229.672C38.9621 230.23 39.0016 230.784 39.0443 231.339Z" fill="#B4E2EF"/>
<path d="M12.9008 224.73C14.5147 225.082 13.2032 223.431 14.3536 223.121C15.8031 224.312 17.4071 225.744 19.205 226.922C24.2963 230.253 29.8247 232.132 35.9382 232.191C36.8092 232.197 37.5257 232.327 38.0253 233.084C38.0549 233.234 38.0812 233.381 38.1108 233.531C37.9333 233.968 37.7558 234.409 37.5783 234.846C37.3976 235.149 37.2135 235.45 37.345 235.234C27.8789 234.826 19.6848 231.646 12.7562 225.506C12.8055 225.245 12.8548 224.987 12.9008 224.73Z" fill="#AFE0EF"/>
<path d="M12.7595 225.503C19.6881 231.642 27.8822 234.826 37.3483 235.231C37.2168 235.446 37.4008 235.146 37.5816 234.843C37.6211 235.414 37.6638 235.981 37.7032 236.552C36.9703 237.253 36.0204 237.58 35.0836 237.449C30.8765 236.869 26.7088 236.2 22.7219 234.533C18.8434 232.908 15.4448 230.608 12.0955 227.992C11.7932 228.765 12.1547 229.538 11.5204 230.008L11.4513 229.985C11.241 228.631 11.471 227.333 11.9378 226.061C12.2106 225.878 12.4834 225.689 12.7595 225.503Z" fill="#A5DDEF"/>
<path d="M10.7841 219.999C10.4094 220.26 10.061 220.502 9.71588 220.743C7.91798 220.205 6.06091 219.768 5.65992 217.481C5.41669 216.078 4.15784 215.834 3.06661 215.436C4.01979 214.93 4.66401 214.457 3.94419 213.152C3.22766 211.85 2.70177 210.395 2.60974 208.859C3.22766 208.389 3.06003 207.707 3.04031 207.097C2.99758 205.845 3.55964 205.254 4.82178 205.332C5.28851 210.832 7.80621 215.511 10.7841 219.999Z" fill="#AADFEF"/>
<path d="M73.1681 205.342C74.427 206.223 75.1994 205.714 75.5774 204.429C75.7253 203.923 75.8042 203.44 76.2775 203.134C76.4221 203.58 76.5635 204.027 76.7081 204.478C75.9291 206.471 76.2808 208.787 74.9365 210.62C74.6407 211.505 74.9299 212.581 74.0425 213.269C73.7532 213.416 73.464 213.563 73.1747 213.71C72.353 213.106 71.436 213.093 70.4861 213.276C70.6965 211.788 71.6694 210.454 71.3834 208.869C73.3391 208.37 73.4212 206.937 73.1681 205.342Z" fill="#A1DCEF"/>
<path d="M74.9365 210.617C76.2808 208.784 75.9291 206.471 76.7081 204.474C77.3063 204.954 77.9012 204.791 78.4896 204.458C78.6112 205.352 78.2463 206.324 78.9202 207.133C78.9267 208.109 79.2028 208.993 79.8141 209.762C79.8207 210.19 79.8306 210.617 79.8371 211.045C79.2389 211.788 78.6407 212.532 78.0425 213.276C76.4418 213.044 76.6752 210.692 74.9365 210.617Z" fill="#95D8EE"/>
<path d="M75.3901 229.564C75.2389 229.274 75.0877 228.98 74.9332 228.69C74.7886 228.393 74.6406 228.1 74.496 227.803C76.7672 225.816 78.0129 223.232 79.2192 220.322C78.0031 220.322 77.1354 220.322 76.2643 220.322C75.6201 220.322 74.9726 220.326 74.9365 219.435V219.432C75.8239 219.288 76.6621 218.835 77.5988 218.988C78.3942 220.828 79.9423 219.386 80.0113 219.031C80.3071 217.523 81.7928 216.3 81.1518 214.591C81.6383 214.49 81.8618 214.095 82.1116 213.729C82.3844 214.016 82.6572 214.304 82.9301 214.591C84.133 218.394 81.6843 221.226 80.2119 224.27C79.4 225.947 78.1313 227.405 77.1058 228.984C76.6654 229.659 76.2381 230.165 75.3901 229.564Z" fill="#80D2EE"/>
<path d="M81.1552 214.591C81.7961 216.3 80.3104 217.523 80.0146 219.031C79.9456 219.389 78.3975 220.831 77.6021 218.988C77.2241 218.46 78.4632 217.527 77.1551 217.23C78.2069 216.656 79.0253 215.896 79.2225 214.594C79.0516 213.997 77.9209 214.163 78.0458 213.273C78.644 212.529 79.2422 211.785 79.8404 211.041C80.764 212.049 80.5077 213.485 81.1552 214.591Z" fill="#89D4EE"/>
<path d="M10.8696 232.579C10.9517 231.77 11.0372 230.961 11.1194 230.155C11.2245 230.093 11.3363 230.037 11.4513 229.988L11.5204 230.011C11.3166 231.698 12.8811 230.687 13.5418 231.261C17.532 234.722 22.334 236.797 27.4122 238.076C31.1888 239.025 35.0606 240.007 39.0114 238.767C39.2974 239.234 39.5833 239.703 39.8693 240.17C39.8857 240.721 39.9021 241.276 39.9186 241.827C38.7748 241.406 37.5816 241.416 36.3918 241.462C33.736 241.566 31.1395 241.237 28.5297 240.721C21.9626 239.426 16.26 236.353 10.8696 232.579Z" fill="#98D9EE"/>
<path d="M10.8696 232.579C16.26 236.353 21.9626 239.426 28.5297 240.721C31.1395 241.237 33.736 241.563 36.3918 241.462C37.5849 241.416 38.7748 241.406 39.9186 241.827C40.2144 242.261 40.5135 242.692 40.8093 243.126C38.7353 244.793 36.2538 244.245 34.0154 244.013C24.6118 243.044 15.9937 240.03 8.84485 233.606C8.98289 233.554 9.12095 233.505 9.26228 233.46C10.1333 233.766 10.3272 232.856 10.8696 232.579Z" fill="#91D7EE"/>
<path d="M35.1001 177.173C35.2052 178.295 35.4649 179.251 36.9374 178.559C38.3968 177.874 38.4987 178.771 38.4921 179.825C38.1535 180.043 38.1207 180.379 38.1272 180.735C38.0812 180.79 38.0418 180.865 37.9826 180.895C37.9267 180.924 37.838 180.921 37.7788 180.898C36.7632 180.546 38.0221 179.603 37.1708 178.993C36.2735 181.153 34.2948 181.743 32.3753 182.428C31.7738 181.234 31.1723 180.043 30.5741 178.849C31.8165 177.577 33.5947 177.744 35.1001 177.173Z" fill="#D3EDF3"/>
<path d="M30.5708 178.846C31.1723 180.04 31.7738 181.231 32.372 182.425C32.0663 182.549 31.7574 182.67 31.4517 182.793C30.5215 182.898 29.5913 183.005 28.7368 183.103C28.4508 182.148 29.8642 181.805 29.2298 180.895C29.1542 180.849 29.0819 180.8 29.0096 180.748C28.9504 180.092 28.0301 179.339 29.2298 178.827C29.6801 178.833 30.1271 178.84 30.5708 178.846Z" fill="#3EC5EB"/>
<path d="M38.9227 229.675C38.7978 229.643 38.6762 229.6 38.5578 229.555C38.3902 228.566 38.2226 227.578 38.0549 226.589C39.018 226.093 39.8134 226.912 40.691 227.033C46.0124 227.764 51.1858 227.516 56.264 225.692C56.6715 225.545 57.1942 225.111 57.6675 225.659C57.6477 226.084 57.6313 226.508 57.6116 226.932C57.1744 227.813 56.5039 228.364 55.5179 228.609C52.6814 229.31 49.8284 229.822 46.8998 230.044C44.2046 230.246 41.608 229.153 38.9227 229.675Z" fill="#3C88C8"/>
<path d="M18.0776 209.303C17.555 209.622 17.8541 210.271 17.4268 210.803C14.3602 207.238 13.9296 202.938 14.2484 198.694C14.6888 192.851 17.0981 187.736 21.5353 183.678C23.1393 182.213 24.8649 181.045 27.0572 180.696C26.6398 181.358 26.0646 181.952 26.1533 182.826C25.8674 183.514 25.3908 184.014 24.8024 184.5C21.0817 187.576 18.3307 191.337 17.5089 196.149C17.0817 198.648 15.5171 201.46 18.495 203.581C18.5279 205.195 18.564 206.81 18.5969 208.422C18.426 208.712 18.2518 209.006 18.0776 209.303Z" fill="#D4EDF3"/>
<path d="M60.3166 221.683C57.914 222.531 55.5441 223.497 53.0987 224.205C48.3361 225.584 43.5407 225.447 38.7715 224.136C37.953 223.911 37.1576 223.497 36.2866 223.921C35.8955 223.415 35.5011 222.906 35.1099 222.4C35.3893 221.559 35.672 220.72 35.9546 219.879C36.0828 219.879 36.211 219.879 36.3392 219.876C36.3096 220.763 36.5496 221.337 37.5586 221.65C45.8086 224.234 53.5392 223.177 60.7932 218.531C62.1244 217.68 63.4786 216.864 64.8196 216.036C64.0439 218.489 61.937 219.895 60.3166 221.683Z" fill="#4195D1"/>
<path d="M35.9481 219.879C35.6654 220.72 35.386 221.562 35.1034 222.4C32.7138 222.094 30.3572 221.728 28.0991 220.786C26.4327 220.091 24.9635 219.243 23.915 217.765C24.2108 217.582 24.5066 217.396 24.8057 217.214C26.1139 216.91 27.5765 217.944 28.7828 216.76C29.8148 216.61 30.6859 215.856 31.7902 215.98C32.4903 216.404 32.7303 217.148 33.0195 217.899C34.8864 217.357 36.1486 217.628 35.9481 219.879Z" fill="#D6EEF4"/>
<path d="M24.8057 217.214C24.5099 217.396 24.2141 217.582 23.915 217.765C20.6774 215.821 18.8434 212.927 18.0776 209.303C18.2518 209.009 18.426 208.712 18.5969 208.418C19.5205 207.544 18.6495 206.298 19.1063 205.535C20.8648 209.518 22.9618 213.393 26.0218 216.731C25.7655 216.949 25.0884 216.649 24.8057 217.214Z" fill="#3D8FCD"/>
<path d="M26.1566 182.823C26.0679 181.949 26.6431 181.355 27.0605 180.693C27.7113 180.712 28.3588 180.732 29.0129 180.751C29.0852 180.803 29.1575 180.849 29.2331 180.898C28.247 181.606 27.57 182.79 26.1566 182.823Z" fill="#5296B0"/>
<path d="M60.3166 221.683C61.937 219.895 64.0439 218.492 64.8163 216.039C66.0061 214.897 66.0949 213.426 66.0752 211.919C66.0653 211.782 66.062 211.645 66.0587 211.508C66.3118 211.821 66.5616 212.134 66.8377 212.477C67.2946 211.443 67.7942 210.47 68.159 209.449C68.5206 208.425 68.0473 207.919 66.9626 207.985C69.1155 207.476 69.7794 205.473 70.9956 204.024C71.7121 205.159 71.4524 206.35 71.1566 207.521C71.0251 208.037 70.8739 208.487 71.3867 208.865C71.6726 210.451 70.6997 211.788 70.4894 213.273C70.5058 213.413 70.5157 213.553 70.5222 213.694C69.1845 216.055 67.8468 218.417 66.509 220.779C65.4638 220.57 64.4581 219.98 63.1926 220.541C63.6791 221.572 63.2419 222.345 62.2723 222.792C61.4243 223.183 60.7078 222.955 60.2838 222.068C60.3002 221.94 60.3134 221.81 60.3166 221.683Z" fill="#ABDFEF"/>
<path d="M60.2772 222.068C60.7012 222.955 61.421 223.183 62.2657 222.792C63.2321 222.345 63.6725 221.572 63.1861 220.541C64.4482 219.983 65.4573 220.57 66.5025 220.779C67.0152 221.301 66.6767 222.476 67.8369 222.505C66.9528 223.311 65.6446 222.404 64.6421 223.588C62.7949 225.77 60.5434 227.617 58.4596 229.604C57.6806 228.87 57.6313 227.907 57.6083 226.935C57.628 226.511 57.6445 226.087 57.6642 225.663C58.5845 224.498 58.7488 222.792 60.2772 222.068Z" fill="#79D0ED"/>
<path d="M51.4225 175.832C51.4718 176.872 52.4217 176.817 53.0396 177.023C60.5138 179.534 65.1187 184.659 67.1861 192.146C67.6923 193.986 67.1335 195.911 67.7613 197.77C68.0013 198.478 68.2116 199.098 68.7342 199.617C67.2617 200.142 66.2395 199.464 65.2107 198.488C64.5862 197.898 64.3759 196.906 63.4128 196.655C64.4317 195.679 64.4548 194.495 64.1589 193.236C62.4465 186.01 57.8581 181.645 50.6994 179.733C48.5859 179.169 46.4101 179.335 44.2966 178.898C44.2999 178.611 44.3032 178.327 44.3065 178.04C46.8012 177.708 49.2072 177.081 51.4225 175.832Z" fill="#41C5EB"/>
<path d="M44.2999 178.044C44.2966 178.331 44.2933 178.615 44.2901 178.902C43.8496 178.967 43.189 178.69 43.3336 179.603C43.4355 180.246 42.9425 180.637 42.4264 180.503C41.2366 180.193 40.1651 180.934 39.0147 180.725C38.7189 180.728 38.4231 180.732 38.1305 180.735C38.1207 180.379 38.1568 180.043 38.4954 179.825C40.9145 179.929 42.0057 178.846 41.3746 176.85C42.1437 176.491 42.926 176.129 43.9614 175.649C43.7576 176.654 42.4987 177.724 44.2999 178.044Z" fill="#CBEAF1"/>
<path d="M40.8093 243.122C40.5135 242.692 40.2144 242.258 39.9186 241.824C39.9021 241.273 39.8857 240.718 39.8725 240.167C39.9679 239.997 40.1026 239.664 40.1487 239.677C42.7354 240.33 45.3287 240.385 47.9976 240.222C49.5424 240.128 51.3732 239.364 52.7273 240.943C52.4282 241.194 52.1916 241.472 52.3066 241.902C52.3526 242.568 52.1028 243.034 51.4126 243.201C50.3411 242.46 49.2696 242.281 47.922 242.626C46.7618 242.927 45.4141 242.881 44.2309 242.62C43.0345 242.359 42.1043 242.532 41.2004 243.246C41.069 243.204 40.9408 243.161 40.8093 243.122Z" fill="#3568B1"/>
<path d="M52.3033 241.896C52.1883 241.465 52.425 241.188 52.7241 240.937C53.5951 240.858 54.0815 240.287 54.476 239.596C56.2476 239.72 57.5393 237.939 59.3898 238.366C59.4686 239.087 59.9321 239.785 59.5278 240.535C57.7693 240.565 56.4349 241.674 54.9493 242.372C53.8778 242.878 53.033 242.897 52.3033 241.896Z" fill="#89D4EE"/>
<path d="M74.496 227.803C74.6406 228.1 74.7886 228.393 74.9332 228.69C73.1649 230.328 71.0744 231.672 70.049 233.988C69.0037 234.154 68.182 233.672 67.3965 233.081C67.2058 232.513 66.154 232.846 66.2592 231.734C68.3003 230.308 69.4935 227.891 71.367 226.048C71.5707 226.397 71.906 226.478 72.2741 226.485C73.0137 226.925 73.7565 227.362 74.496 227.803Z" fill="#60CBF1"/>
<path d="M71.3637 226.048C69.4902 227.888 68.2971 230.305 66.256 231.734C66.1508 232.846 67.2026 232.513 67.3932 233.081C66.6241 233.052 65.8714 233.091 65.2009 233.531C65.2107 232.641 65.3619 231.698 64.1655 231C63.7908 232.673 62.6733 233.561 61.375 234.246C60.5566 234.676 60.2903 235.342 60.2903 236.19C59.1662 235.929 57.9994 235.73 57.6313 234.376C58.0093 233.861 58.1046 233.264 58.1342 232.647C59.37 232.752 60.1293 231.848 61.0135 231.251C64.1721 229.121 66.7523 226.322 69.6085 223.846C69.9208 224.358 70.4434 224.273 70.9233 224.299C71.0745 224.88 71.2191 225.464 71.3637 226.048Z" fill="#68CCF0"/>
<path d="M60.2936 236.187C60.2936 235.342 60.5599 234.673 61.3783 234.242C62.6733 233.557 63.7908 232.67 64.1688 230.997C65.3619 231.695 65.2107 232.641 65.2041 233.528C64.2312 234.533 64.2937 236.043 63.4424 237.11C62.2592 235.182 61.5492 237.09 60.6486 237.449C60.7834 236.96 60.5566 236.568 60.2936 236.187Z" fill="#4F788E"/>
<path d="M60.2936 236.187C60.5566 236.568 60.7834 236.96 60.6453 237.452C60.0011 237.452 59.679 237.89 59.3898 238.369C57.5393 237.942 56.2508 239.72 54.4792 239.599C54.683 238.637 53.7561 237.994 53.7529 237.087C55.4258 236.715 56.0076 234.81 57.6346 234.373C58.0027 235.724 59.1695 235.926 60.2936 236.187Z" fill="#91D7EE"/>
<path d="M63.4063 196.655C64.3693 196.906 64.5797 197.898 65.2042 198.488C66.233 199.464 67.2552 200.142 68.7277 199.617C68.7343 199.764 68.7342 199.911 68.7309 200.054C68.5797 200.188 68.4286 200.318 68.2774 200.452C67.6463 201.395 66.8608 202.021 65.6249 201.721C65.2962 201.326 64.9708 200.932 64.6421 200.537C64.4745 199.744 64.0374 199.108 63.4655 198.557C62.8245 197.934 62.9659 197.301 63.4063 196.655Z" fill="#B8E3EF"/>
<path d="M65.6249 201.721C66.8608 202.021 67.6463 201.395 68.2774 200.452C68.7112 201.995 71.127 202.054 70.9923 204.024C69.7762 205.473 69.1122 207.476 66.9593 207.985C66.4433 208.79 65.6282 209.133 64.7506 209.374C64.5698 209.482 64.3923 209.593 64.2115 209.701C63.1466 207.887 65.191 207.032 65.5098 205.633C65.8056 204.315 67.196 203.081 65.6249 201.721Z" fill="#36C2EA"/>
<path d="M38.1141 233.531C38.0845 233.381 38.0582 233.234 38.0287 233.084C38.3672 232.504 38.7057 231.923 39.0443 231.342C39.8134 231.956 40.6614 232.177 41.6737 232.249C44.5201 232.448 47.3435 232.729 50.1998 232.233C53.0232 231.744 55.8728 231.427 58.4366 230.015C58.6108 230.807 58.5352 231.551 58.0158 232.213C57.5261 232.664 57.4965 233.388 56.5302 233.587C52.139 234.5 47.7281 235.208 43.2514 234.794C41.5258 234.634 39.5669 234.954 38.1141 233.531Z" fill="#397BBE"/>
<path d="M58.4366 230.011C55.8728 231.424 53.0232 231.74 50.1998 232.23C47.3435 232.726 44.5201 232.445 41.6737 232.246C40.6581 232.174 39.8134 231.952 39.0443 231.339C39.0048 230.784 38.9654 230.227 38.926 229.672C41.6113 229.15 44.2079 230.246 46.9031 230.044C49.8316 229.822 52.6846 229.31 55.5211 228.609C56.5072 228.364 57.1777 227.813 57.6149 226.932C57.6379 227.904 57.6872 228.866 58.4661 229.6C58.4826 229.741 58.4727 229.878 58.4366 230.011Z" fill="#3B81C3"/>
<path d="M38.1141 233.531C39.5702 234.954 41.5258 234.634 43.2514 234.794C47.7281 235.208 52.139 234.5 56.5302 233.587C57.4998 233.384 57.5294 232.664 58.0158 232.213C58.0553 232.357 58.0947 232.504 58.1375 232.647C58.1046 233.264 58.0093 233.861 57.6313 234.376C56.0043 234.813 55.4226 236.718 53.7496 237.09C50.305 237.257 46.8735 237.655 43.4092 237.514C41.7855 237.449 40.1421 236.5 38.5217 237.544C38.2488 237.214 37.976 236.885 37.6999 236.559C37.6605 235.988 37.6178 235.42 37.5783 234.849C37.7591 234.406 37.9366 233.968 38.1141 233.531Z" fill="#3876BB"/>
<path d="M37.7033 236.555C37.9761 236.885 38.2489 237.214 38.525 237.541C38.6893 237.948 38.8504 238.356 39.0147 238.764C35.0639 240.004 31.192 239.025 27.4155 238.072C22.3373 236.793 17.5353 234.719 13.545 231.257C12.8811 230.683 11.3198 231.695 11.5236 230.008C12.158 229.538 11.7964 228.765 12.0988 227.992C15.4481 230.608 18.8467 232.908 22.7252 234.533C26.7121 236.203 30.8798 236.869 35.0869 237.449C36.0237 237.58 36.9703 237.253 37.7033 236.555Z" fill="#9FDBEF"/>
<path d="M70.9266 224.296C70.4434 224.27 69.9241 224.355 69.6118 223.842C69.4672 223.402 69.3226 222.958 69.178 222.518C70.2133 220.903 71.2486 219.285 72.284 217.67C74.1936 216.708 73.4574 215.158 73.1747 213.71C73.464 213.563 73.7532 213.416 74.0425 213.269C74.5979 214.558 73.8913 216.264 75.3835 217.24C74.9628 217.918 74.8937 218.665 74.9398 219.435V219.438C72.8723 220.463 72.7507 223.072 70.9266 224.296Z" fill="#98D9EE"/>
<path d="M75.3835 217.236C73.8913 216.261 74.5979 214.555 74.0425 213.266C74.9299 212.581 74.6439 211.501 74.9365 210.617C76.6752 210.692 76.4418 213.044 78.0458 213.276C77.9209 214.167 79.0516 214 79.2225 214.597C79.0253 215.899 78.2069 216.656 77.1551 217.233C76.5635 216.838 75.9718 216.829 75.3835 217.236Z" fill="#69CDEF"/>
<path d="M73.1714 213.707C73.4541 215.155 74.1904 216.705 72.2807 217.667C72.4746 216.747 71.2782 217.262 71.1862 216.577C71.4524 215.736 71.5839 214.78 72.4713 214.193C71.8501 213.566 71.15 213.759 70.5157 213.69C70.5091 213.55 70.4992 213.41 70.4828 213.269C71.436 213.087 72.353 213.103 73.1714 213.707Z" fill="#78D0EF"/>
<path d="M74.496 227.803C73.7532 227.362 73.0137 226.925 72.2709 226.485C74.2528 224.847 75.1041 222.485 76.2611 220.322C77.1321 220.322 78.0031 220.322 79.2159 220.322C78.0129 223.232 76.7705 225.816 74.496 227.803Z" fill="#89D4EE"/>
<path d="M76.2643 220.322C75.1041 222.485 74.2561 224.847 72.2741 226.485C71.9027 226.478 71.5707 226.393 71.367 226.048C71.2223 225.464 71.0744 224.88 70.9298 224.296C72.754 223.072 72.8756 220.463 74.9398 219.435C74.9726 220.329 75.6201 220.322 76.2643 220.322Z" fill="#90D7EF"/>
<path d="M75.3835 217.236C75.9751 216.829 76.5667 216.838 77.1583 217.23C78.4665 217.527 77.2274 218.46 77.6053 218.988C76.6653 218.835 75.8305 219.288 74.9431 219.432C74.8938 218.662 74.9628 217.915 75.3835 217.236Z" fill="#90D7EF"/>
<path d="M39.0147 238.764C38.8504 238.356 38.6893 237.948 38.525 237.541C40.1454 236.497 41.7888 237.446 43.4125 237.511C46.8735 237.652 50.305 237.254 53.7529 237.087C53.7529 237.994 54.683 238.633 54.4792 239.599C54.0881 240.291 53.5984 240.865 52.7274 240.94C51.3732 239.364 49.5424 240.124 47.9976 240.219C45.332 240.382 42.7354 240.33 40.1487 239.674C40.1026 239.661 39.9679 239.994 39.8726 240.163C39.5866 239.7 39.3007 239.23 39.0147 238.764Z" fill="#366FB6"/>
<path d="M38.1272 180.732C38.4231 180.728 38.7189 180.725 39.0114 180.722C39.3006 180.914 39.5899 181.104 39.8956 181.309C37.2661 182.353 35.3992 184.252 33.529 186.62C34.3178 186.754 34.732 186.826 35.1461 186.894C33.082 187.276 31.6128 188.62 30.1271 189.941C29.8806 189.266 29.6341 188.59 29.312 187.706C28.1024 187.706 26.86 187.706 25.6209 187.706C26.5445 187.002 27.6094 187.458 28.6053 187.357C29.1049 187.305 29.6834 187.419 29.9398 186.829C30.1928 186.242 30.0088 185.723 29.6538 185.198C29.3876 184.806 28.6447 184.881 28.6908 184.222C29.5716 183.622 31.1526 184.441 31.4583 182.8C31.764 182.676 32.0729 182.555 32.3786 182.431C34.2981 181.746 36.2768 181.156 37.1741 178.996C38.0254 179.606 36.7665 180.549 37.7821 180.901C37.8446 180.924 37.93 180.924 37.9859 180.898C38.0451 180.862 38.0812 180.787 38.1272 180.732Z" fill="#49C6EC"/>
<path d="M31.455 182.793C31.1493 184.434 29.5683 183.616 28.6874 184.216C28.6414 184.875 29.3843 184.8 29.6505 185.191C30.0088 185.716 30.1895 186.235 29.9364 186.822C29.6834 187.413 29.1016 187.302 28.602 187.351C27.6061 187.452 26.5411 186.999 25.6175 187.7C24.8024 188.307 25.3908 189.338 24.8419 190.088C24.1352 191.05 23.9708 192.003 25.6668 192.15C26.1303 192.189 26.1106 192.642 26.1566 192.995C25.7523 193.657 25.4006 194.335 24.6282 194.704C23.7046 195.144 23.274 195.918 23.4088 196.958C23.2839 197.255 23.159 197.552 23.0341 197.849C22.689 198.113 22.3406 198.381 21.9955 198.645C20.7925 198.955 20.6084 200.149 19.9576 200.941C19.4712 201.816 18.9814 202.69 18.495 203.564C15.5204 201.444 17.0849 198.632 17.5089 196.133C18.3307 191.321 21.0784 187.56 24.8024 184.483C25.3908 183.997 25.8673 183.498 26.1533 182.81C27.5666 182.78 28.247 181.593 29.2265 180.885C29.8608 181.795 28.4475 182.138 28.7335 183.09C29.5946 183.006 30.5248 182.901 31.455 182.793Z" fill="#DAF0F5"/>
<path d="M18.495 203.574C18.9814 202.7 19.4712 201.825 19.9576 200.951C20.5525 201.643 20.6807 202.524 20.9141 203.352C22.3669 208.5 25.0062 212.956 28.7762 216.757C27.5699 217.941 26.1073 216.91 24.7991 217.21C25.0818 216.646 25.7589 216.946 26.0186 216.727C22.9552 213.39 20.8582 209.511 19.1031 205.531C18.6462 206.295 19.5172 207.541 18.5936 208.415C18.564 206.804 18.5312 205.189 18.495 203.574Z" fill="#4094D0"/>
<path d="M23.0341 197.859C23.159 197.562 23.2839 197.265 23.4088 196.968C24.4277 197.027 24.8485 197.627 24.7827 198.573C24.7038 199.685 25.0062 200.736 25.2133 201.806C27.9742 216.075 44.7601 223.438 57.3322 215.517C58.6732 214.672 59.9321 213.697 61.2304 212.78L61.2435 212.761C61.4539 213.55 62.5583 212.966 62.7851 213.729C57.9238 219.879 46.788 223.105 36.4017 219.011C36.3787 219.311 36.3556 219.595 36.3326 219.876C36.2045 219.876 36.0763 219.876 35.9481 219.879C36.1453 217.631 34.8864 217.357 33.0162 217.899C32.7303 217.148 32.4871 216.401 31.787 215.98C31.8724 215.873 31.9546 215.768 32.0368 215.661C31.8395 215.595 31.6456 215.53 31.4484 215.468C31.4484 214.542 30.6924 214.108 30.16 213.534C27.1887 210.34 24.9536 206.742 24.0465 202.439C23.7244 200.909 23.8 199.294 23.0341 197.859Z" fill="#459FD8"/>
<path d="M36.3359 219.875C36.3589 219.592 36.3819 219.311 36.4049 219.011C46.7946 223.105 57.9271 219.879 62.7883 213.729C62.5616 212.966 61.4572 213.55 61.2468 212.76C62.8869 212.646 64.3956 211.805 66.0752 211.916C66.0982 213.423 66.0061 214.894 64.8163 216.036C63.472 216.868 62.1178 217.683 60.7899 218.535C53.5326 223.18 45.8053 224.237 37.5553 221.653C36.5463 221.337 36.3031 220.763 36.3359 219.875Z" fill="#419AD4"/>
<path d="M31.455 215.468C31.6522 215.533 31.8461 215.599 32.0433 215.661C31.9612 215.765 31.8757 215.873 31.7935 215.98C30.6892 215.856 29.8149 216.61 28.7861 216.76C25.0128 212.956 22.3768 208.503 20.924 203.355C20.6906 202.53 20.5624 201.646 19.9675 200.954C20.615 200.162 20.8024 198.968 22.0054 198.658C23.1623 203.176 23.8854 207.903 27.1131 211.553C28.3752 212.992 29.0918 215.178 31.455 215.468Z" fill="#419AD4"/>
<path d="M70.519 213.694C71.1566 213.762 71.8534 213.57 72.4746 214.196C71.5872 214.783 71.4557 215.736 71.1895 216.581C71.2815 217.266 72.4779 216.75 72.284 217.67C71.2486 219.285 70.2133 220.903 69.178 222.518C68.7342 222.42 68.2938 221.817 67.8402 222.505C66.68 222.476 67.0185 221.301 66.5058 220.779C67.8402 218.417 69.1812 216.055 70.519 213.694Z" fill="#A1DCEF"/>
<path d="M66.0719 211.919C64.3923 211.808 62.8837 212.65 61.2435 212.764L61.2304 212.783C61.0332 212.496 60.836 212.209 60.642 211.922C60.7669 210.881 61.6314 210.784 62.3906 210.653C63.1236 210.529 63.7974 210.389 64.2115 209.704C64.3923 209.596 64.5698 209.485 64.7506 209.378C65.26 210.043 65.0497 211.146 66.0555 211.511C66.0587 211.642 66.0653 211.782 66.0719 211.919Z" fill="#B8E3EF"/>
<path d="M66.0554 211.505C65.0497 211.139 65.26 210.037 64.7506 209.371C65.6281 209.133 66.4433 208.79 66.9593 207.981C68.0472 207.916 68.5205 208.422 68.1557 209.446C67.7942 210.467 67.2946 211.439 66.8344 212.473C66.5616 212.131 66.3085 211.818 66.0554 211.505Z" fill="#B5E2EF"/>
<path d="M67.8369 222.502C68.2905 221.813 68.7276 222.417 69.1747 222.515C69.3193 222.955 69.4639 223.399 69.6085 223.839C66.7523 226.318 64.1721 229.114 61.0135 231.244C60.1293 231.841 59.3733 232.742 58.1342 232.641C58.0947 232.497 58.0553 232.35 58.0159 232.207C58.5352 231.545 58.6108 230.801 58.4333 230.008C58.4694 229.874 58.4793 229.737 58.4596 229.6C60.5434 227.614 62.7916 225.767 64.6388 223.585C65.6479 222.4 66.9528 223.311 67.8369 222.502Z" fill="#6FCEEF"/>
<path d="M35.1461 186.894C34.732 186.822 34.3178 186.754 33.529 186.62C35.3992 184.252 37.2661 182.353 39.8956 181.309C39.5899 181.107 39.3006 180.914 39.0114 180.722C40.1618 180.931 41.2333 180.187 42.4231 180.5C42.9392 180.634 43.4322 180.246 43.3303 179.6C43.1857 178.686 43.8463 178.964 44.2868 178.898C46.3969 179.335 48.5761 179.169 50.6895 179.733C57.8482 181.642 62.4399 186.007 64.1491 193.236C64.4482 194.495 64.4252 195.679 63.403 196.655C62.9626 197.304 62.8212 197.937 63.4621 198.557C64.034 199.108 64.4712 199.747 64.6388 200.537C63.8993 201.382 63.7021 202.497 63.1893 203.44C62.4268 204.836 62.3019 206.817 60.1753 207.136C59.6396 206.804 59.163 206.415 58.9625 205.786C61.2107 201.845 62.3611 197.754 61.1647 193.184C58.9921 184.875 50.2852 180.19 42.0156 182.793C39.5965 183.554 38.2719 185.919 35.8002 186.444C35.5832 186.591 35.363 186.744 35.1461 186.894Z" fill="#4FC7EB"/>
<path d="M60.1786 207.136C62.3052 206.817 62.4301 204.837 63.1926 203.44C63.7087 202.497 63.9026 201.382 64.6421 200.537C64.9708 200.932 65.2962 201.326 65.6249 201.721C67.196 203.081 65.8056 204.315 65.5098 205.633C65.1943 207.035 63.1466 207.887 64.2115 209.701C63.7974 210.386 63.1236 210.526 62.3906 210.65C61.6314 210.78 60.7637 210.878 60.642 211.919C60.3791 211.488 60.1194 211.061 59.8565 210.63C59.8499 210.493 59.8466 210.356 59.8499 210.216C60.7242 209.27 60.1819 208.174 60.1786 207.136Z" fill="#41C5EB"/>
<path d="M35.1461 186.894C35.363 186.744 35.5832 186.594 35.8002 186.444C37.4567 187.605 39.1133 188.767 40.7699 189.928C41.6244 190.675 42.4823 189.585 43.3336 189.935C43.59 190.352 43.3336 190.978 43.8858 191.279C45.2432 191.677 45.5193 192.972 46.1866 193.957C46.5021 194.423 46.9228 194.75 45.9663 194.828C44.9277 194.567 43.7477 193.657 43.2941 195.595C43.0772 196.524 42.2818 196.12 41.6704 196.045C41.2464 195.389 40.4214 195.676 39.8824 195.291C38.8766 195.285 38.0911 194.697 37.2332 194.303C36.921 193.928 36.6547 193.539 36.7764 193.011C37.3844 192.104 37.1313 191.328 36.0664 191.487C34.7911 191.677 33.4139 191.357 32.2274 192.088C31.0901 191.973 30.0712 192.257 29.1805 192.975C29.049 193.115 28.9175 193.259 28.7893 193.399C28.0235 193.35 27.1722 193.777 26.5313 193.011C26.7449 192.525 27.0933 192.163 27.6422 192.15C29.1213 192.117 29.6932 191.112 30.1304 189.941C31.6127 188.617 33.082 187.276 35.1461 186.894Z" fill="#E9F5F8"/>
<path d="M30.1271 189.938C29.69 191.109 29.1213 192.114 27.639 192.146C27.0868 192.159 26.7417 192.518 26.528 193.008C26.4031 193.008 26.2815 193.004 26.1566 193.001C26.1106 192.649 26.1336 192.195 25.6669 192.156C23.9709 192.009 24.1352 191.057 24.8419 190.094C25.3908 189.344 24.8057 188.313 25.6176 187.706C26.86 187.706 28.0991 187.706 29.3087 187.706C29.6341 188.587 29.8806 189.262 30.1271 189.938Z" fill="#3EC5EC"/>
<path d="M26.1566 193.001C26.2815 193.004 26.4031 193.008 26.528 193.008C27.169 193.774 28.0202 193.347 28.7861 193.396C28.4179 194.162 26.9224 193.621 27.0079 194.985C27.1032 196.518 26.8929 198.08 27.1131 199.591C28.6086 209.961 37.5685 217.305 47.8892 216.336C52.5597 215.896 56.5335 213.906 59.8598 210.63C60.1227 211.061 60.3857 211.488 60.6454 211.919C60.8426 212.206 61.0365 212.493 61.2337 212.78C59.9354 213.697 58.6765 214.672 57.3355 215.517C44.7634 223.438 27.9775 216.075 25.2166 201.806C25.0095 200.733 24.7071 199.685 24.786 198.573C24.8517 197.627 24.431 197.03 23.4121 196.968C23.2773 195.927 23.7079 195.154 24.6315 194.714C25.4039 194.342 25.7556 193.663 26.1566 193.001Z" fill="#46A6DC"/>
<path d="M31.455 215.468C29.0951 215.178 28.3785 212.992 27.1065 211.553C23.8788 207.903 23.1557 203.173 21.9988 198.658C22.3439 198.39 22.6923 198.126 23.0374 197.859C23.8032 199.294 23.7277 200.909 24.0498 202.439C24.9602 206.742 27.192 210.343 30.1633 213.534C30.699 214.108 31.455 214.542 31.455 215.468Z" fill="#449ED7"/>
<path d="M40.7699 189.925C39.1133 188.763 37.4567 187.602 35.8002 186.441C38.2719 185.912 39.5965 183.55 42.0156 182.79C50.2853 180.187 58.9921 184.871 61.1647 193.18C62.3578 197.751 61.2107 201.845 58.9625 205.783C58.8376 205.734 58.7127 205.691 58.5845 205.655C57.1252 204.592 56.7439 202.961 56.3035 201.359C57.352 201.137 57.914 200.423 58.0225 199.437C58.1967 197.872 58.4103 196.335 58.0948 194.714C56.6913 187.494 48.2047 183.204 41.9696 186.662C42.1438 187.054 42.3213 187.445 42.4955 187.84C40.9901 187.605 39.9482 186.304 38.1601 185.847C39.041 187.547 40.5036 188.13 41.6639 189.063C41.2859 189.429 41.0295 189.677 40.7699 189.925Z" fill="#57C8EB"/>
<path d="M58.5878 205.659C58.7159 205.694 58.8409 205.737 58.9625 205.786C59.163 206.415 59.6396 206.8 60.1753 207.136C60.1819 208.177 60.7242 209.273 59.8466 210.219C59.6133 209.361 58.6897 209.325 58.1638 208.82C58.006 208.389 57.8449 207.955 57.6872 207.525C57.9896 206.902 58.2887 206.278 58.5878 205.659Z" fill="#CFEBF2"/>
<path d="M58.1671 208.816C58.6963 209.322 59.6198 209.358 59.8499 210.216C59.8466 210.353 59.8499 210.49 59.8565 210.63C56.5302 213.906 52.5564 215.899 47.8858 216.336C37.5652 217.305 28.6053 209.961 27.1098 199.591C26.8929 198.08 27.1032 196.518 27.0046 194.984C26.9192 193.621 28.4147 194.162 28.7828 193.396C28.9143 193.255 29.0457 193.112 29.1772 192.972C30.1337 193.973 29.6932 195.219 29.6407 196.322C29.3744 201.9 31.3367 206.569 35.6293 210.069C39.0443 212.855 43.0115 214.297 47.6262 213.791C51.7808 213.341 55.13 211.469 58.1671 208.816Z" fill="#48AADF"/>
<path d="M58.1671 208.816C55.13 211.465 51.7808 213.338 47.6262 213.791C43.0115 214.294 39.0476 212.855 35.6293 210.069C31.3367 206.569 29.3777 201.9 29.6407 196.322C29.6932 195.219 30.1337 193.973 29.1772 192.972C30.0679 192.254 31.0869 191.97 32.2274 192.084C33.5914 192.303 32.8059 193.285 32.6941 193.781C32.0302 196.782 32.1649 199.692 33.243 202.586C35.5077 208.653 41.3385 211.332 46.2753 211.416C49.6279 211.475 52.6025 209.847 55.3733 207.913C56.2969 207.27 56.4152 206.683 56.2673 205.789C57.1416 206.044 57.1251 207.016 57.6839 207.521C57.8482 207.955 58.006 208.386 58.1671 208.816Z" fill="#4BB1E4"/>
<path d="M42.502 187.84C42.3278 187.449 42.1503 187.054 41.9761 186.663C48.208 183.205 56.6946 187.494 58.1013 194.714C58.4169 196.335 58.2032 197.872 58.029 199.437C57.9206 200.423 57.3585 201.137 56.31 201.359C55.13 200.547 55.1202 198.759 53.6345 198.204C53.4965 197.48 53.3552 196.756 53.2171 196.032C53.1744 194.606 54.729 193.376 53.7397 191.693C52.5269 192.208 51.2253 191.373 50.0256 192.071C48.7437 191.562 47.4487 191.122 47.2219 189.445C47.1529 188.933 46.5711 188.662 46.0124 188.871C45.5358 189.05 45.1709 189.272 45.3944 189.987C45.8382 191.396 44.7206 191.21 43.8891 191.269C43.3369 190.969 43.5965 190.342 43.3369 189.925C42.9195 189.289 42.433 188.675 42.502 187.84Z" fill="#64CBEB"/>
<path d="M56.2705 205.789C56.4185 206.683 56.3001 207.27 55.3765 207.913C52.6057 209.847 49.6312 211.475 46.2786 211.416C41.3418 211.332 35.5109 208.653 33.2463 202.586C32.1649 199.692 32.0302 196.782 32.6974 193.781C32.8092 193.285 33.5947 192.3 32.2307 192.084C33.4172 191.354 34.7944 191.673 36.0697 191.484C37.1346 191.324 37.3877 192.101 36.7797 193.008C36.3721 192.9 36.3261 192.185 35.6523 192.417C35.1592 194.913 34.3474 197.304 34.9456 200.054C36.2538 206.047 43.1101 210.157 49.0461 208.474C51.7314 207.711 53.4537 205.665 55.7709 204.465C55.9386 204.905 56.1062 205.349 56.2705 205.789Z" fill="#4BB7E8"/>
<path d="M55.7709 204.461C53.457 205.665 51.7314 207.711 49.0461 208.471C43.1101 210.154 36.2505 206.044 34.9456 200.051C34.3474 197.304 35.1592 194.913 35.6523 192.414C36.326 192.182 36.3721 192.897 36.7796 193.004C36.658 193.53 36.9243 193.921 37.2365 194.296C37.2332 195.686 37.1938 197.072 37.2332 198.462C37.3384 202.458 41.0328 205.89 45.0329 206.275C49.2203 206.68 51.9746 204.585 54.5219 201.816C55.0971 202.625 55.7446 203.398 55.7709 204.461Z" fill="#4CBCEC"/>
<path d="M54.5154 201.819C51.9681 204.589 49.217 206.683 45.0263 206.278C41.0262 205.89 37.3318 202.462 37.2267 198.465C37.1905 197.079 37.2267 195.689 37.2299 194.299C38.0878 194.694 38.8734 195.281 39.8791 195.288C39.8693 195.507 39.889 195.735 39.8397 195.947C39.1396 198.903 40.3853 201.718 43.0444 203.163C45.7461 204.634 48.3329 204.151 50.706 201.91C51.6164 201.052 51.9681 199.715 53.204 199.173C54.0092 199.878 54.3741 200.791 54.5154 201.819Z" fill="#4CC1EF"/>
<path d="M53.2073 199.17C51.9681 199.712 51.6164 201.049 50.7093 201.907C48.3329 204.148 45.7494 204.631 43.0476 203.16C40.3886 201.715 39.1429 198.899 39.843 195.944C39.8923 195.732 39.8693 195.506 39.8824 195.285C40.4215 195.67 41.2465 195.383 41.6705 196.038C41.7461 196.638 42.6302 196.358 42.7091 197.222C42.9655 200.048 44.6483 201.395 46.9228 200.883C48.9245 200.429 49.9467 198.345 49.2959 196.048C49.9697 195.794 50.6402 195.542 51.314 195.288C51.9484 195.536 52.5828 195.787 53.2171 196.035C53.3552 196.759 53.4965 197.483 53.6345 198.211C53.4899 198.531 53.3486 198.85 53.2073 199.17Z" fill="#4EC8F4"/>
<path d="M49.2926 196.048C49.9467 198.345 48.9245 200.429 46.9195 200.883C44.645 201.398 42.9622 200.047 42.7058 197.222C42.6269 196.358 41.746 196.638 41.6672 196.038C42.2752 196.113 43.0739 196.518 43.2909 195.588C43.7444 193.65 44.9277 194.56 45.9663 194.821C46.9359 195.604 48.438 194.958 49.2926 196.048Z" fill="#55C9F3"/>
<path d="M49.2926 196.048C48.438 194.962 46.9359 195.608 45.9663 194.825C46.9228 194.746 46.5021 194.42 46.1866 193.954C45.5226 192.968 45.2465 191.673 43.8858 191.275C44.7141 191.217 45.8316 191.403 45.3911 189.993C45.1676 189.279 45.5325 189.054 46.0091 188.878C46.5678 188.669 47.1496 188.94 47.2186 189.452C47.4454 191.128 48.7437 191.572 50.0223 192.081C51.0708 192.906 51.0182 194.169 51.3107 195.291C50.6369 195.542 49.9664 195.794 49.2926 196.048Z" fill="#E4F3F7"/>
<path d="M42.502 187.84C42.433 188.672 42.9194 189.289 43.3369 189.931C42.4823 189.582 41.6245 190.672 40.7699 189.925C41.0263 189.677 41.2826 189.429 41.6672 189.064C40.5102 188.134 39.0443 187.55 38.1634 185.847C39.9547 186.304 40.9966 187.609 42.502 187.84Z" fill="#E4F3F7"/>
<path d="M53.2073 199.17C53.3486 198.85 53.4899 198.531 53.628 198.208C55.1169 198.759 55.1267 200.55 56.3034 201.362C56.7406 202.961 57.1218 204.592 58.5845 205.659C58.2854 206.278 57.9863 206.902 57.6872 207.521C57.1284 207.016 57.1448 206.044 56.2705 205.789C56.1029 205.345 55.9353 204.905 55.7709 204.461C55.7446 203.398 55.0972 202.621 54.5154 201.816C54.3741 200.791 54.0092 199.878 53.2073 199.17Z" fill="#D4EDF4"/>
<path d="M51.3107 195.288C51.0182 194.162 51.0708 192.903 50.0223 192.078C51.222 191.376 52.5235 192.215 53.7364 191.699C54.7257 193.383 53.1711 194.609 53.2138 196.038C52.5794 195.787 51.9451 195.539 51.3107 195.288Z" fill="#DAF0F5"/>
</svg>
