<svg width="15" height="16" viewBox="0 0 15 16" fill="none" xmlns="http://www.w3.org/2000/svg">
<g clip-path="url(#clip0_510_4582)">
<path d="M4.85045 4.43423L6.5885 2.57966L6.60163 11.6673C6.60163 12.2195 7.02135 12.6672 7.53909 12.6672C8.05683 12.6672 8.47655 12.2195 8.47655 11.6673L8.46342 2.591L10.1915 4.43426C10.5512 4.8315 11.1446 4.8425 11.5171 4.45883C11.8895 4.07515 11.8998 3.44212 11.5401 3.04489C11.5325 3.03654 11.5248 3.02836 11.5171 3.02033L9.50963 0.879074C8.41133 -0.29247 6.63063 -0.29247 5.53231 0.879042L5.53228 0.879074L3.52488 3.02029C3.16519 3.41753 3.1755 4.05056 3.54791 4.43423C3.91121 4.8085 4.48716 4.8085 4.85045 4.43423Z" fill="white"/>
<path d="M14.0629 9.66685C13.5451 9.66685 13.1254 10.1146 13.1254 10.6668V13.7273C13.1251 13.8778 13.0108 13.9996 12.8698 14H2.1315C1.99047 13.9996 1.87622 13.8778 1.8759 13.7273V10.6668C1.8759 10.1146 1.45618 9.66685 0.938436 9.66685C0.420695 9.66685 0.000976562 10.1146 0.000976562 10.6668V13.7273C0.00235346 14.9818 0.955428 15.9984 2.1315 15.9999H12.8698C14.0459 15.9984 14.9989 14.9818 15.0003 13.7273V10.6668C15.0003 10.1146 14.5806 9.66685 14.0629 9.66685Z" fill="white"/>
</g>
<defs>
<clipPath id="clip0_510_4582">
<rect width="15" height="16" fill="white"/>
</clipPath>
</defs>
</svg>
